M48
; DRILL file {KiCad (5.1.4)-1} date 12/29/2023 1:05:04 PM
; FORMAT={-:-/ absolute / metric / decimal}
; #@! TF.CreationDate,2023-12-29T13:05:04-05:00
; #@! TF.GenerationSoftware,Kicad,Pcbnew,(5.1.4)-1
; #@! TF.FileFunction,NonPlated,1,2,NPTH
FMAT,2
METRIC
T1C1.702
T2C3.000
T3C3.429
%
G90
G05
T1
X109.235Y116.779
X125.158Y104.78
X206.217Y121.325
X215.002Y127.945
X191.443Y110.191
X200.228Y116.811
X94.46Y127.912
X103.245Y121.292
X118.02Y110.159
X133.942Y98.16
X175.248Y98.35
X184.032Y104.97
T2
X102.433Y129.354
X105.102Y124.588
X117.208Y118.221
X119.877Y113.455
X133.131Y106.222
X135.8Y101.456
X177.904Y95.656
X183.221Y96.908
X208.873Y118.631
X214.191Y119.883
X194.099Y107.497
X199.416Y108.749
T3
X195.835Y113.501
X98.853Y124.602
X113.627Y113.469
X129.55Y101.47
X179.64Y101.66
X210.61Y124.635
T0
M30
