M48
; DRILL file {KiCad (5.1.4)-1} date 12/29/2023 1:05:04 PM
; FORMAT={-:-/ absolute / metric / decimal}
; #@! TF.CreationDate,2023-12-29T13:05:04-05:00
; #@! TF.GenerationSoftware,Kicad,Pcbnew,(5.1.4)-1
; #@! TF.FileFunction,Plated,1,2,PTH
FMAT,2
METRIC
T1C0.400
T2C1.000
T3C1.270
%
G90
G05
T1
X97.87Y129.53
X112.72Y118.43
X180.92Y92.543
T2
X118.804Y101.819
X120.333Y103.847
X121.862Y105.876
X123.39Y107.904
X89.877Y119.114
X91.906Y117.586
X93.934Y116.057
X95.963Y114.528
X154.629Y157.642
X154.629Y155.102
X154.629Y152.562
X154.629Y150.022
X185.778Y108.103
X187.306Y106.074
X188.835Y104.046
X190.364Y102.017
X213.485Y114.682
X215.514Y116.211
X217.542Y117.739
X219.571Y119.268
T3
X92.572Y124.577
X95.302Y119.89
X107.347Y113.443
X110.077Y108.757
X123.27Y101.444
X125.999Y96.758
X176.089Y106.372
X181.346Y107.704
X207.059Y129.347
X212.316Y130.679
X192.284Y118.213
X197.541Y119.545
T0
M30
