%FSLAX45Y45*%
G04 Gerber Fmt 4.5, Leading zero omitted, Abs format (unit mm)*
G04 Created by KiCad (PCBNEW (5.1.4)-1) date 2023-12-29 13:05:02*
%MOMM*%
%LPD*%
G04 APERTURE LIST*
%ADD10C,0.050000*%
%ADD11C,0.200000*%
%ADD12C,0.300000*%
G04 APERTURE END LIST*
D10*
X17823000Y8834000D02*
X18275000Y8986000D01*
X13109000Y8834000D02*
X12657000Y8986000D01*
X13162876Y11964175D02*
X9852583Y13384721D01*
X13109000Y8834000D02*
X17823000Y8834000D01*
X14812876Y16044175D02*
X15382876Y17454175D01*
X13162876Y11964175D02*
X14812876Y16044175D01*
X8868474Y12337090D02*
X9653755Y13346414D01*
X16112876Y16044175D02*
X15542876Y17454175D01*
X22061504Y12335687D02*
X22200295Y11938777D01*
X21077396Y13383317D02*
X21276224Y13345010D01*
X8729683Y11940181D02*
X12657000Y8986000D01*
X22061504Y12335687D02*
X21276224Y13345010D01*
X15542876Y17454175D02*
X15382876Y17454175D01*
X18275000Y8986000D02*
X22200295Y11938777D01*
X9852583Y13384721D02*
X9653755Y13346414D01*
X8868474Y12337090D02*
X8729683Y11940181D01*
X17762877Y11964175D02*
X21077396Y13383317D01*
X17762877Y11964175D02*
X16112876Y16044175D01*
D11*
X9767000Y12973000D02*
X9807000Y12933000D01*
X9807000Y12973000D02*
X9767000Y12933000D01*
X11252000Y11863000D02*
X11292000Y11823000D01*
X11292000Y11863000D02*
X11252000Y11823000D01*
X18072000Y9274299D02*
X18112000Y9234299D01*
X18112000Y9274299D02*
X18072000Y9234299D01*
X11930428Y10181856D02*
G75*
G03X11930428Y10181856I-50000J0D01*
G01*
X12083289Y10384710D02*
G75*
G03X12083289Y10384710I-50000J0D01*
G01*
X12236150Y10587563D02*
G75*
G03X12236150Y10587563I-50000J0D01*
G01*
X12389011Y10790417D02*
G75*
G03X12389011Y10790417I-50000J0D01*
G01*
X9037702Y11911432D02*
G75*
G03X9037702Y11911432I-50000J0D01*
G01*
X9240555Y11758571D02*
G75*
G03X9240555Y11758571I-50000J0D01*
G01*
X9443408Y11605710D02*
G75*
G03X9443408Y11605710I-50000J0D01*
G01*
X9646262Y11452849D02*
G75*
G03X9646262Y11452849I-50000J0D01*
G01*
X15512876Y15764175D02*
G75*
G03X15512876Y15764175I-50000J0D01*
G01*
X15512876Y15510175D02*
G75*
G03X15512876Y15510175I-50000J0D01*
G01*
X15512876Y15256175D02*
G75*
G03X15512876Y15256175I-50000J0D01*
G01*
X15512876Y15002175D02*
G75*
G03X15512876Y15002175I-50000J0D01*
G01*
X18627781Y10810277D02*
G75*
G03X18627781Y10810277I-50000J0D01*
G01*
X18780642Y10607424D02*
G75*
G03X18780642Y10607424I-50000J0D01*
G01*
X18933503Y10404570D02*
G75*
G03X18933503Y10404570I-50000J0D01*
G01*
X19086364Y10201717D02*
G75*
G03X19086364Y10201717I-50000J0D01*
G01*
X21398514Y11468209D02*
G75*
G03X21398514Y11468209I-50000J0D01*
G01*
X21601368Y11621070D02*
G75*
G03X21601368Y11621070I-50000J0D01*
G01*
X21804221Y11773931D02*
G75*
G03X21804221Y11773931I-50000J0D01*
G01*
X22007074Y11926792D02*
G75*
G03X22007074Y11926792I-50000J0D01*
G01*
X9257243Y12521160D02*
X9257243Y12394160D01*
X9193743Y12457660D02*
X9320743Y12457660D01*
X9530180Y12052539D02*
X9530180Y11925539D01*
X9466680Y11989039D02*
X9593680Y11989039D01*
X10734719Y11407802D02*
X10734719Y11280802D01*
X10671219Y11344302D02*
X10798219Y11344302D01*
X11007656Y10939181D02*
X11007656Y10812181D01*
X10944156Y10875681D02*
X11071156Y10875681D01*
X12326992Y10207926D02*
X12326992Y10080926D01*
X12263492Y10144426D02*
X12390492Y10144426D01*
X12599929Y9739305D02*
X12599929Y9612305D01*
X12536429Y9675805D02*
X12663429Y9675805D01*
X17608929Y10700695D02*
X17608929Y10573695D01*
X17545429Y10637195D02*
X17672429Y10637195D01*
X18134628Y10833889D02*
X18134628Y10706889D01*
X18071128Y10770389D02*
X18198128Y10770389D01*
X20705908Y12998189D02*
X20705908Y12871189D01*
X20642408Y12934689D02*
X20769408Y12934689D01*
X21231607Y13131383D02*
X21231607Y13004383D01*
X21168107Y13067883D02*
X21295107Y13067883D01*
X19228432Y11884831D02*
X19228432Y11757831D01*
X19164932Y11821331D02*
X19291932Y11821331D01*
X19754131Y12018025D02*
X19754131Y11891025D01*
X19690631Y11954525D02*
X19817631Y11954525D01*
D12*
X9013612Y8365786D02*
X9013612Y8665786D01*
X9085040Y8665786D01*
X9127897Y8651500D01*
X9156469Y8622928D01*
X9170754Y8594357D01*
X9185040Y8537214D01*
X9185040Y8494357D01*
X9170754Y8437214D01*
X9156469Y8408643D01*
X9127897Y8380071D01*
X9085040Y8365786D01*
X9013612Y8365786D01*
X9313612Y8365786D02*
X9313612Y8565786D01*
X9313612Y8508643D02*
X9327897Y8537214D01*
X9342183Y8551500D01*
X9370754Y8565786D01*
X9399326Y8565786D01*
X9499326Y8365786D02*
X9499326Y8565786D01*
X9499326Y8665786D02*
X9485040Y8651500D01*
X9499326Y8637214D01*
X9513612Y8651500D01*
X9499326Y8665786D01*
X9499326Y8637214D01*
X9685040Y8365786D02*
X9656469Y8380071D01*
X9642183Y8408643D01*
X9642183Y8665786D01*
X9842183Y8365786D02*
X9813612Y8380071D01*
X9799326Y8408643D01*
X9799326Y8665786D01*
X10185040Y8365786D02*
X10185040Y8665786D01*
X10285040Y8451500D01*
X10385040Y8665786D01*
X10385040Y8365786D01*
X10656469Y8365786D02*
X10656469Y8522928D01*
X10642183Y8551500D01*
X10613612Y8565786D01*
X10556469Y8565786D01*
X10527897Y8551500D01*
X10656469Y8380071D02*
X10627897Y8365786D01*
X10556469Y8365786D01*
X10527897Y8380071D01*
X10513612Y8408643D01*
X10513612Y8437214D01*
X10527897Y8465786D01*
X10556469Y8480071D01*
X10627897Y8480071D01*
X10656469Y8494357D01*
X10799326Y8565786D02*
X10799326Y8265786D01*
X10799326Y8551500D02*
X10827897Y8565786D01*
X10885040Y8565786D01*
X10913612Y8551500D01*
X10927897Y8537214D01*
X10942183Y8508643D01*
X10942183Y8422928D01*
X10927897Y8394357D01*
X10913612Y8380071D01*
X10885040Y8365786D01*
X10827897Y8365786D01*
X10799326Y8380071D01*
X11070754Y8394357D02*
X11085040Y8380071D01*
X11070754Y8365786D01*
X11056469Y8380071D01*
X11070754Y8394357D01*
X11070754Y8365786D01*
X11070754Y8551500D02*
X11085040Y8537214D01*
X11070754Y8522928D01*
X11056469Y8537214D01*
X11070754Y8551500D01*
X11070754Y8522928D01*
X8687183Y7891500D02*
X8727183Y7851500D01*
X8727183Y7891500D02*
X8687183Y7851500D01*
X9070754Y8035786D02*
X9099326Y8035786D01*
X9127897Y8021500D01*
X9142183Y8007214D01*
X9156469Y7978643D01*
X9170754Y7921500D01*
X9170754Y7850071D01*
X9156469Y7792928D01*
X9142183Y7764357D01*
X9127897Y7750071D01*
X9099326Y7735786D01*
X9070754Y7735786D01*
X9042183Y7750071D01*
X9027897Y7764357D01*
X9013612Y7792928D01*
X8999326Y7850071D01*
X8999326Y7921500D01*
X9013612Y7978643D01*
X9027897Y8007214D01*
X9042183Y8021500D01*
X9070754Y8035786D01*
X9299326Y7764357D02*
X9313612Y7750071D01*
X9299326Y7735786D01*
X9285040Y7750071D01*
X9299326Y7764357D01*
X9299326Y7735786D01*
X9570754Y7935786D02*
X9570754Y7735786D01*
X9499326Y8050071D02*
X9427897Y7835786D01*
X9613612Y7835786D01*
X9785040Y8035786D02*
X9813612Y8035786D01*
X9842183Y8021500D01*
X9856469Y8007214D01*
X9870754Y7978643D01*
X9885040Y7921500D01*
X9885040Y7850071D01*
X9870754Y7792928D01*
X9856469Y7764357D01*
X9842183Y7750071D01*
X9813612Y7735786D01*
X9785040Y7735786D01*
X9756469Y7750071D01*
X9742183Y7764357D01*
X9727897Y7792928D01*
X9713612Y7850071D01*
X9713612Y7921500D01*
X9727897Y7978643D01*
X9742183Y8007214D01*
X9756469Y8021500D01*
X9785040Y8035786D01*
X10013612Y7735786D02*
X10013612Y7935786D01*
X10013612Y7907214D02*
X10027897Y7921500D01*
X10056469Y7935786D01*
X10099326Y7935786D01*
X10127897Y7921500D01*
X10142183Y7892928D01*
X10142183Y7735786D01*
X10142183Y7892928D02*
X10156469Y7921500D01*
X10185040Y7935786D01*
X10227897Y7935786D01*
X10256469Y7921500D01*
X10270754Y7892928D01*
X10270754Y7735786D01*
X10413612Y7735786D02*
X10413612Y7935786D01*
X10413612Y7907214D02*
X10427897Y7921500D01*
X10456469Y7935786D01*
X10499326Y7935786D01*
X10527897Y7921500D01*
X10542183Y7892928D01*
X10542183Y7735786D01*
X10542183Y7892928D02*
X10556469Y7921500D01*
X10585040Y7935786D01*
X10627897Y7935786D01*
X10656469Y7921500D01*
X10670754Y7892928D01*
X10670754Y7735786D01*
X11256469Y8050071D02*
X10999326Y7664357D01*
X11642183Y8035786D02*
X11670754Y8035786D01*
X11699326Y8021500D01*
X11713611Y8007214D01*
X11727897Y7978643D01*
X11742183Y7921500D01*
X11742183Y7850071D01*
X11727897Y7792928D01*
X11713611Y7764357D01*
X11699326Y7750071D01*
X11670754Y7735786D01*
X11642183Y7735786D01*
X11613611Y7750071D01*
X11599326Y7764357D01*
X11585040Y7792928D01*
X11570754Y7850071D01*
X11570754Y7921500D01*
X11585040Y7978643D01*
X11599326Y8007214D01*
X11613611Y8021500D01*
X11642183Y8035786D01*
X11870754Y7764357D02*
X11885040Y7750071D01*
X11870754Y7735786D01*
X11856469Y7750071D01*
X11870754Y7764357D01*
X11870754Y7735786D01*
X12070754Y8035786D02*
X12099326Y8035786D01*
X12127897Y8021500D01*
X12142183Y8007214D01*
X12156469Y7978643D01*
X12170754Y7921500D01*
X12170754Y7850071D01*
X12156469Y7792928D01*
X12142183Y7764357D01*
X12127897Y7750071D01*
X12099326Y7735786D01*
X12070754Y7735786D01*
X12042183Y7750071D01*
X12027897Y7764357D01*
X12013611Y7792928D01*
X11999326Y7850071D01*
X11999326Y7921500D01*
X12013611Y7978643D01*
X12027897Y8007214D01*
X12042183Y8021500D01*
X12070754Y8035786D01*
X12456469Y7735786D02*
X12285040Y7735786D01*
X12370754Y7735786D02*
X12370754Y8035786D01*
X12342183Y7992928D01*
X12313611Y7964357D01*
X12285040Y7950071D01*
X12713611Y8035786D02*
X12656469Y8035786D01*
X12627897Y8021500D01*
X12613611Y8007214D01*
X12585040Y7964357D01*
X12570754Y7907214D01*
X12570754Y7792928D01*
X12585040Y7764357D01*
X12599326Y7750071D01*
X12627897Y7735786D01*
X12685040Y7735786D01*
X12713611Y7750071D01*
X12727897Y7764357D01*
X12742183Y7792928D01*
X12742183Y7864357D01*
X12727897Y7892928D01*
X12713611Y7907214D01*
X12685040Y7921500D01*
X12627897Y7921500D01*
X12599326Y7907214D01*
X12585040Y7892928D01*
X12570754Y7864357D01*
X12856469Y8035786D02*
X12856469Y7978643D01*
X12970754Y8035786D02*
X12970754Y7978643D01*
X13413611Y7621500D02*
X13399326Y7635786D01*
X13370754Y7678643D01*
X13356469Y7707214D01*
X13342183Y7750071D01*
X13327897Y7821500D01*
X13327897Y7878643D01*
X13342183Y7950071D01*
X13356469Y7992928D01*
X13370754Y8021500D01*
X13399326Y8064357D01*
X13413611Y8078643D01*
X13499326Y8035786D02*
X13685040Y8035786D01*
X13585040Y7921500D01*
X13627897Y7921500D01*
X13656469Y7907214D01*
X13670754Y7892928D01*
X13685040Y7864357D01*
X13685040Y7792928D01*
X13670754Y7764357D01*
X13656469Y7750071D01*
X13627897Y7735786D01*
X13542183Y7735786D01*
X13513611Y7750071D01*
X13499326Y7764357D01*
X14042183Y7735786D02*
X14042183Y8035786D01*
X14170754Y7735786D02*
X14170754Y7892928D01*
X14156469Y7921500D01*
X14127897Y7935786D01*
X14085040Y7935786D01*
X14056469Y7921500D01*
X14042183Y7907214D01*
X14356469Y7735786D02*
X14327897Y7750071D01*
X14313611Y7764357D01*
X14299326Y7792928D01*
X14299326Y7878643D01*
X14313611Y7907214D01*
X14327897Y7921500D01*
X14356469Y7935786D01*
X14399326Y7935786D01*
X14427897Y7921500D01*
X14442183Y7907214D01*
X14456469Y7878643D01*
X14456469Y7792928D01*
X14442183Y7764357D01*
X14427897Y7750071D01*
X14399326Y7735786D01*
X14356469Y7735786D01*
X14627897Y7735786D02*
X14599326Y7750071D01*
X14585040Y7778643D01*
X14585040Y8035786D01*
X14856469Y7750071D02*
X14827897Y7735786D01*
X14770754Y7735786D01*
X14742183Y7750071D01*
X14727897Y7778643D01*
X14727897Y7892928D01*
X14742183Y7921500D01*
X14770754Y7935786D01*
X14827897Y7935786D01*
X14856469Y7921500D01*
X14870754Y7892928D01*
X14870754Y7864357D01*
X14727897Y7835786D01*
X14985040Y7750071D02*
X15013611Y7735786D01*
X15070754Y7735786D01*
X15099326Y7750071D01*
X15113611Y7778643D01*
X15113611Y7792928D01*
X15099326Y7821500D01*
X15070754Y7835786D01*
X15027897Y7835786D01*
X14999326Y7850071D01*
X14985040Y7878643D01*
X14985040Y7892928D01*
X14999326Y7921500D01*
X15027897Y7935786D01*
X15070754Y7935786D01*
X15099326Y7921500D01*
X15213611Y7621500D02*
X15227897Y7635786D01*
X15256469Y7678643D01*
X15270754Y7707214D01*
X15285040Y7750071D01*
X15299326Y7821500D01*
X15299326Y7878643D01*
X15285040Y7950071D01*
X15270754Y7992928D01*
X15256469Y8021500D01*
X15227897Y8064357D01*
X15213611Y8078643D01*
X8727183Y7475500D02*
G75*
G03X8727183Y7475500I-50000J0D01*
G01*
X9170754Y7339786D02*
X8999326Y7339786D01*
X9085040Y7339786D02*
X9085040Y7639786D01*
X9056469Y7596928D01*
X9027897Y7568357D01*
X8999326Y7554071D01*
X9299326Y7368357D02*
X9313612Y7354071D01*
X9299326Y7339786D01*
X9285040Y7354071D01*
X9299326Y7368357D01*
X9299326Y7339786D01*
X9499326Y7639786D02*
X9527897Y7639786D01*
X9556469Y7625500D01*
X9570754Y7611214D01*
X9585040Y7582643D01*
X9599326Y7525500D01*
X9599326Y7454071D01*
X9585040Y7396928D01*
X9570754Y7368357D01*
X9556469Y7354071D01*
X9527897Y7339786D01*
X9499326Y7339786D01*
X9470754Y7354071D01*
X9456469Y7368357D01*
X9442183Y7396928D01*
X9427897Y7454071D01*
X9427897Y7525500D01*
X9442183Y7582643D01*
X9456469Y7611214D01*
X9470754Y7625500D01*
X9499326Y7639786D01*
X9785040Y7639786D02*
X9813612Y7639786D01*
X9842183Y7625500D01*
X9856469Y7611214D01*
X9870754Y7582643D01*
X9885040Y7525500D01*
X9885040Y7454071D01*
X9870754Y7396928D01*
X9856469Y7368357D01*
X9842183Y7354071D01*
X9813612Y7339786D01*
X9785040Y7339786D01*
X9756469Y7354071D01*
X9742183Y7368357D01*
X9727897Y7396928D01*
X9713612Y7454071D01*
X9713612Y7525500D01*
X9727897Y7582643D01*
X9742183Y7611214D01*
X9756469Y7625500D01*
X9785040Y7639786D01*
X10013612Y7339786D02*
X10013612Y7539786D01*
X10013612Y7511214D02*
X10027897Y7525500D01*
X10056469Y7539786D01*
X10099326Y7539786D01*
X10127897Y7525500D01*
X10142183Y7496928D01*
X10142183Y7339786D01*
X10142183Y7496928D02*
X10156469Y7525500D01*
X10185040Y7539786D01*
X10227897Y7539786D01*
X10256469Y7525500D01*
X10270754Y7496928D01*
X10270754Y7339786D01*
X10413612Y7339786D02*
X10413612Y7539786D01*
X10413612Y7511214D02*
X10427897Y7525500D01*
X10456469Y7539786D01*
X10499326Y7539786D01*
X10527897Y7525500D01*
X10542183Y7496928D01*
X10542183Y7339786D01*
X10542183Y7496928D02*
X10556469Y7525500D01*
X10585040Y7539786D01*
X10627897Y7539786D01*
X10656469Y7525500D01*
X10670754Y7496928D01*
X10670754Y7339786D01*
X11256469Y7654071D02*
X10999326Y7268357D01*
X11642183Y7639786D02*
X11670754Y7639786D01*
X11699326Y7625500D01*
X11713611Y7611214D01*
X11727897Y7582643D01*
X11742183Y7525500D01*
X11742183Y7454071D01*
X11727897Y7396928D01*
X11713611Y7368357D01*
X11699326Y7354071D01*
X11670754Y7339786D01*
X11642183Y7339786D01*
X11613611Y7354071D01*
X11599326Y7368357D01*
X11585040Y7396928D01*
X11570754Y7454071D01*
X11570754Y7525500D01*
X11585040Y7582643D01*
X11599326Y7611214D01*
X11613611Y7625500D01*
X11642183Y7639786D01*
X11870754Y7368357D02*
X11885040Y7354071D01*
X11870754Y7339786D01*
X11856469Y7354071D01*
X11870754Y7368357D01*
X11870754Y7339786D01*
X12070754Y7639786D02*
X12099326Y7639786D01*
X12127897Y7625500D01*
X12142183Y7611214D01*
X12156469Y7582643D01*
X12170754Y7525500D01*
X12170754Y7454071D01*
X12156469Y7396928D01*
X12142183Y7368357D01*
X12127897Y7354071D01*
X12099326Y7339786D01*
X12070754Y7339786D01*
X12042183Y7354071D01*
X12027897Y7368357D01*
X12013611Y7396928D01*
X11999326Y7454071D01*
X11999326Y7525500D01*
X12013611Y7582643D01*
X12027897Y7611214D01*
X12042183Y7625500D01*
X12070754Y7639786D01*
X12270754Y7639786D02*
X12456469Y7639786D01*
X12356469Y7525500D01*
X12399326Y7525500D01*
X12427897Y7511214D01*
X12442183Y7496928D01*
X12456469Y7468357D01*
X12456469Y7396928D01*
X12442183Y7368357D01*
X12427897Y7354071D01*
X12399326Y7339786D01*
X12313611Y7339786D01*
X12285040Y7354071D01*
X12270754Y7368357D01*
X12599326Y7339786D02*
X12656469Y7339786D01*
X12685040Y7354071D01*
X12699326Y7368357D01*
X12727897Y7411214D01*
X12742183Y7468357D01*
X12742183Y7582643D01*
X12727897Y7611214D01*
X12713611Y7625500D01*
X12685040Y7639786D01*
X12627897Y7639786D01*
X12599326Y7625500D01*
X12585040Y7611214D01*
X12570754Y7582643D01*
X12570754Y7511214D01*
X12585040Y7482643D01*
X12599326Y7468357D01*
X12627897Y7454071D01*
X12685040Y7454071D01*
X12713611Y7468357D01*
X12727897Y7482643D01*
X12742183Y7511214D01*
X12856469Y7639786D02*
X12856469Y7582643D01*
X12970754Y7639786D02*
X12970754Y7582643D01*
X13413611Y7225500D02*
X13399326Y7239786D01*
X13370754Y7282643D01*
X13356469Y7311214D01*
X13342183Y7354071D01*
X13327897Y7425500D01*
X13327897Y7482643D01*
X13342183Y7554071D01*
X13356469Y7596928D01*
X13370754Y7625500D01*
X13399326Y7668357D01*
X13413611Y7682643D01*
X13513611Y7611214D02*
X13527897Y7625500D01*
X13556469Y7639786D01*
X13627897Y7639786D01*
X13656469Y7625500D01*
X13670754Y7611214D01*
X13685040Y7582643D01*
X13685040Y7554071D01*
X13670754Y7511214D01*
X13499326Y7339786D01*
X13685040Y7339786D01*
X13870754Y7639786D02*
X13899326Y7639786D01*
X13927897Y7625500D01*
X13942183Y7611214D01*
X13956469Y7582643D01*
X13970754Y7525500D01*
X13970754Y7454071D01*
X13956469Y7396928D01*
X13942183Y7368357D01*
X13927897Y7354071D01*
X13899326Y7339786D01*
X13870754Y7339786D01*
X13842183Y7354071D01*
X13827897Y7368357D01*
X13813611Y7396928D01*
X13799326Y7454071D01*
X13799326Y7525500D01*
X13813611Y7582643D01*
X13827897Y7611214D01*
X13842183Y7625500D01*
X13870754Y7639786D01*
X14327897Y7339786D02*
X14327897Y7639786D01*
X14456469Y7339786D02*
X14456469Y7496928D01*
X14442183Y7525500D01*
X14413611Y7539786D01*
X14370754Y7539786D01*
X14342183Y7525500D01*
X14327897Y7511214D01*
X14642183Y7339786D02*
X14613611Y7354071D01*
X14599326Y7368357D01*
X14585040Y7396928D01*
X14585040Y7482643D01*
X14599326Y7511214D01*
X14613611Y7525500D01*
X14642183Y7539786D01*
X14685040Y7539786D01*
X14713611Y7525500D01*
X14727897Y7511214D01*
X14742183Y7482643D01*
X14742183Y7396928D01*
X14727897Y7368357D01*
X14713611Y7354071D01*
X14685040Y7339786D01*
X14642183Y7339786D01*
X14913611Y7339786D02*
X14885040Y7354071D01*
X14870754Y7382643D01*
X14870754Y7639786D01*
X15142183Y7354071D02*
X15113611Y7339786D01*
X15056469Y7339786D01*
X15027897Y7354071D01*
X15013611Y7382643D01*
X15013611Y7496928D01*
X15027897Y7525500D01*
X15056469Y7539786D01*
X15113611Y7539786D01*
X15142183Y7525500D01*
X15156469Y7496928D01*
X15156469Y7468357D01*
X15013611Y7439786D01*
X15270754Y7354071D02*
X15299326Y7339786D01*
X15356469Y7339786D01*
X15385040Y7354071D01*
X15399326Y7382643D01*
X15399326Y7396928D01*
X15385040Y7425500D01*
X15356469Y7439786D01*
X15313611Y7439786D01*
X15285040Y7454071D01*
X15270754Y7482643D01*
X15270754Y7496928D01*
X15285040Y7525500D01*
X15313611Y7539786D01*
X15356469Y7539786D01*
X15385040Y7525500D01*
X15499326Y7225500D02*
X15513611Y7239786D01*
X15542183Y7282643D01*
X15556469Y7311214D01*
X15570754Y7354071D01*
X15585040Y7425500D01*
X15585040Y7482643D01*
X15570754Y7554071D01*
X15556469Y7596928D01*
X15542183Y7625500D01*
X15513611Y7668357D01*
X15499326Y7682643D01*
X8663683Y7143000D02*
X8663683Y7016000D01*
X8600183Y7079500D02*
X8727183Y7079500D01*
X9170754Y6943786D02*
X8999326Y6943786D01*
X9085040Y6943786D02*
X9085040Y7243786D01*
X9056469Y7200928D01*
X9027897Y7172357D01*
X8999326Y7158071D01*
X9299326Y6972357D02*
X9313612Y6958071D01*
X9299326Y6943786D01*
X9285040Y6958071D01*
X9299326Y6972357D01*
X9299326Y6943786D01*
X9427897Y7215214D02*
X9442183Y7229500D01*
X9470754Y7243786D01*
X9542183Y7243786D01*
X9570754Y7229500D01*
X9585040Y7215214D01*
X9599326Y7186643D01*
X9599326Y7158071D01*
X9585040Y7115214D01*
X9413612Y6943786D01*
X9599326Y6943786D01*
X9699326Y7243786D02*
X9899326Y7243786D01*
X9770754Y6943786D01*
X10013612Y6943786D02*
X10013612Y7143786D01*
X10013612Y7115214D02*
X10027897Y7129500D01*
X10056469Y7143786D01*
X10099326Y7143786D01*
X10127897Y7129500D01*
X10142183Y7100928D01*
X10142183Y6943786D01*
X10142183Y7100928D02*
X10156469Y7129500D01*
X10185040Y7143786D01*
X10227897Y7143786D01*
X10256469Y7129500D01*
X10270754Y7100928D01*
X10270754Y6943786D01*
X10413612Y6943786D02*
X10413612Y7143786D01*
X10413612Y7115214D02*
X10427897Y7129500D01*
X10456469Y7143786D01*
X10499326Y7143786D01*
X10527897Y7129500D01*
X10542183Y7100928D01*
X10542183Y6943786D01*
X10542183Y7100928D02*
X10556469Y7129500D01*
X10585040Y7143786D01*
X10627897Y7143786D01*
X10656469Y7129500D01*
X10670754Y7100928D01*
X10670754Y6943786D01*
X11256469Y7258071D02*
X10999326Y6872357D01*
X11642183Y7243786D02*
X11670754Y7243786D01*
X11699326Y7229500D01*
X11713611Y7215214D01*
X11727897Y7186643D01*
X11742183Y7129500D01*
X11742183Y7058071D01*
X11727897Y7000928D01*
X11713611Y6972357D01*
X11699326Y6958071D01*
X11670754Y6943786D01*
X11642183Y6943786D01*
X11613611Y6958071D01*
X11599326Y6972357D01*
X11585040Y7000928D01*
X11570754Y7058071D01*
X11570754Y7129500D01*
X11585040Y7186643D01*
X11599326Y7215214D01*
X11613611Y7229500D01*
X11642183Y7243786D01*
X11870754Y6972357D02*
X11885040Y6958071D01*
X11870754Y6943786D01*
X11856469Y6958071D01*
X11870754Y6972357D01*
X11870754Y6943786D01*
X12070754Y7243786D02*
X12099326Y7243786D01*
X12127897Y7229500D01*
X12142183Y7215214D01*
X12156469Y7186643D01*
X12170754Y7129500D01*
X12170754Y7058071D01*
X12156469Y7000928D01*
X12142183Y6972357D01*
X12127897Y6958071D01*
X12099326Y6943786D01*
X12070754Y6943786D01*
X12042183Y6958071D01*
X12027897Y6972357D01*
X12013611Y7000928D01*
X11999326Y7058071D01*
X11999326Y7129500D01*
X12013611Y7186643D01*
X12027897Y7215214D01*
X12042183Y7229500D01*
X12070754Y7243786D01*
X12442183Y7243786D02*
X12299326Y7243786D01*
X12285040Y7100928D01*
X12299326Y7115214D01*
X12327897Y7129500D01*
X12399326Y7129500D01*
X12427897Y7115214D01*
X12442183Y7100928D01*
X12456469Y7072357D01*
X12456469Y7000928D01*
X12442183Y6972357D01*
X12427897Y6958071D01*
X12399326Y6943786D01*
X12327897Y6943786D01*
X12299326Y6958071D01*
X12285040Y6972357D01*
X12642183Y7243786D02*
X12670754Y7243786D01*
X12699326Y7229500D01*
X12713611Y7215214D01*
X12727897Y7186643D01*
X12742183Y7129500D01*
X12742183Y7058071D01*
X12727897Y7000928D01*
X12713611Y6972357D01*
X12699326Y6958071D01*
X12670754Y6943786D01*
X12642183Y6943786D01*
X12613611Y6958071D01*
X12599326Y6972357D01*
X12585040Y7000928D01*
X12570754Y7058071D01*
X12570754Y7129500D01*
X12585040Y7186643D01*
X12599326Y7215214D01*
X12613611Y7229500D01*
X12642183Y7243786D01*
X12856469Y7243786D02*
X12856469Y7186643D01*
X12970754Y7243786D02*
X12970754Y7186643D01*
X13413611Y6829500D02*
X13399326Y6843786D01*
X13370754Y6886643D01*
X13356469Y6915214D01*
X13342183Y6958071D01*
X13327897Y7029500D01*
X13327897Y7086643D01*
X13342183Y7158071D01*
X13356469Y7200928D01*
X13370754Y7229500D01*
X13399326Y7272357D01*
X13413611Y7286643D01*
X13685040Y6943786D02*
X13513611Y6943786D01*
X13599326Y6943786D02*
X13599326Y7243786D01*
X13570754Y7200928D01*
X13542183Y7172357D01*
X13513611Y7158071D01*
X13799326Y7215214D02*
X13813611Y7229500D01*
X13842183Y7243786D01*
X13913611Y7243786D01*
X13942183Y7229500D01*
X13956469Y7215214D01*
X13970754Y7186643D01*
X13970754Y7158071D01*
X13956469Y7115214D01*
X13785040Y6943786D01*
X13970754Y6943786D01*
X14327897Y6943786D02*
X14327897Y7243786D01*
X14456469Y6943786D02*
X14456469Y7100928D01*
X14442183Y7129500D01*
X14413611Y7143786D01*
X14370754Y7143786D01*
X14342183Y7129500D01*
X14327897Y7115214D01*
X14642183Y6943786D02*
X14613611Y6958071D01*
X14599326Y6972357D01*
X14585040Y7000928D01*
X14585040Y7086643D01*
X14599326Y7115214D01*
X14613611Y7129500D01*
X14642183Y7143786D01*
X14685040Y7143786D01*
X14713611Y7129500D01*
X14727897Y7115214D01*
X14742183Y7086643D01*
X14742183Y7000928D01*
X14727897Y6972357D01*
X14713611Y6958071D01*
X14685040Y6943786D01*
X14642183Y6943786D01*
X14913611Y6943786D02*
X14885040Y6958071D01*
X14870754Y6986643D01*
X14870754Y7243786D01*
X15142183Y6958071D02*
X15113611Y6943786D01*
X15056469Y6943786D01*
X15027897Y6958071D01*
X15013611Y6986643D01*
X15013611Y7100928D01*
X15027897Y7129500D01*
X15056469Y7143786D01*
X15113611Y7143786D01*
X15142183Y7129500D01*
X15156469Y7100928D01*
X15156469Y7072357D01*
X15013611Y7043786D01*
X15270754Y6958071D02*
X15299326Y6943786D01*
X15356469Y6943786D01*
X15385040Y6958071D01*
X15399326Y6986643D01*
X15399326Y7000928D01*
X15385040Y7029500D01*
X15356469Y7043786D01*
X15313611Y7043786D01*
X15285040Y7058071D01*
X15270754Y7086643D01*
X15270754Y7100928D01*
X15285040Y7129500D01*
X15313611Y7143786D01*
X15356469Y7143786D01*
X15385040Y7129500D01*
X15499326Y6829500D02*
X15513611Y6843786D01*
X15542183Y6886643D01*
X15556469Y6915214D01*
X15570754Y6958071D01*
X15585040Y7029500D01*
X15585040Y7086643D01*
X15570754Y7158071D01*
X15556469Y7200928D01*
X15542183Y7229500D01*
X15513611Y7272357D01*
X15499326Y7286643D01*
M02*
