G04 #@! TF.GenerationSoftware,KiCad,Pcbnew,(5.1.4)-1*
G04 #@! TF.CreationDate,2023-12-29T13:03:47-05:00*
G04 #@! TF.ProjectId,ThumbsUp,5468756d-6273-4557-902e-6b696361645f,rev?*
G04 #@! TF.SameCoordinates,Original*
G04 #@! TF.FileFunction,Copper,L1,Top*
G04 #@! TF.FilePolarity,Positive*
%FSLAX46Y46*%
G04 Gerber Fmt 4.6, Leading zero omitted, Abs format (unit mm)*
G04 Created by KiCad (PCBNEW (5.1.4)-1) date 2023-12-29 13:03:47*
%MOMM*%
%LPD*%
G04 APERTURE LIST*
%ADD10C,1.700000*%
%ADD11C,0.100000*%
%ADD12C,1.700000*%
%ADD13C,2.032000*%
%ADD14C,0.800000*%
%ADD15C,0.254000*%
G04 APERTURE END LIST*
D10*
X190350000Y-232890000D03*
D11*
G36*
X191456522Y-233359691D02*
G01*
X189880309Y-233996522D01*
X189243478Y-232420309D01*
X190819691Y-231783478D01*
X191456522Y-233359691D01*
X191456522Y-233359691D01*
G37*
D10*
X192705047Y-231938499D03*
D12*
X192705047Y-231938499D02*
X192705047Y-231938499D01*
D10*
X195060094Y-230986999D03*
D12*
X195060094Y-230986999D02*
X195060094Y-230986999D01*
D10*
X197415141Y-230035498D03*
D12*
X197415141Y-230035498D02*
X197415141Y-230035498D01*
D10*
X247624118Y-241777982D03*
D12*
X247624118Y-241777982D02*
X247624118Y-241777982D01*
D10*
X246672617Y-239422935D03*
D12*
X246672617Y-239422935D02*
X246672617Y-239422935D01*
D10*
X245721117Y-237067888D03*
D12*
X245721117Y-237067888D02*
X245721117Y-237067888D01*
D10*
X244769616Y-234712841D03*
D11*
G36*
X244299925Y-235819363D02*
G01*
X243663094Y-234243150D01*
X245239307Y-233606319D01*
X245876138Y-235182532D01*
X244299925Y-235819363D01*
X244299925Y-235819363D01*
G37*
D10*
X183300721Y-196237898D03*
D12*
X183300721Y-196237898D02*
X183300721Y-196237898D01*
D10*
X180945674Y-197189399D03*
D12*
X180945674Y-197189399D02*
X180945674Y-197189399D01*
D10*
X178590627Y-198140899D03*
D12*
X178590627Y-198140899D02*
X178590627Y-198140899D01*
D10*
X176235580Y-199092400D03*
D11*
G36*
X177342102Y-199562091D02*
G01*
X175765889Y-200198922D01*
X175129058Y-198622709D01*
X176705271Y-197985878D01*
X177342102Y-199562091D01*
X177342102Y-199562091D01*
G37*
D10*
X190915141Y-213535498D03*
D12*
X190915141Y-213535498D02*
X190915141Y-213535498D01*
D10*
X188560094Y-214486999D03*
D12*
X188560094Y-214486999D02*
X188560094Y-214486999D01*
D10*
X186205047Y-215438499D03*
D12*
X186205047Y-215438499D02*
X186205047Y-215438499D01*
D10*
X183850000Y-216390000D03*
D11*
G36*
X184956522Y-216859691D02*
G01*
X183380309Y-217496522D01*
X182743478Y-215920309D01*
X184319691Y-215283478D01*
X184956522Y-216859691D01*
X184956522Y-216859691D01*
G37*
D10*
X103020102Y-228685498D03*
D12*
X103020102Y-228685498D02*
X103020102Y-228685498D01*
D10*
X105375149Y-229636999D03*
D12*
X105375149Y-229636999D02*
X105375149Y-229636999D01*
D10*
X107730196Y-230588499D03*
D12*
X107730196Y-230588499D02*
X107730196Y-230588499D01*
D10*
X110085243Y-231540000D03*
D11*
G36*
X109615552Y-230433478D02*
G01*
X111191765Y-231070309D01*
X110554934Y-232646522D01*
X108978721Y-232009691D01*
X109615552Y-230433478D01*
X109615552Y-230433478D01*
G37*
D10*
X116900000Y-215540000D03*
D11*
G36*
X116430309Y-214433478D02*
G01*
X118006522Y-215070309D01*
X117369691Y-216646522D01*
X115793478Y-216009691D01*
X116430309Y-214433478D01*
X116430309Y-214433478D01*
G37*
D10*
X114544953Y-214588499D03*
D12*
X114544953Y-214588499D02*
X114544953Y-214588499D01*
D10*
X112189906Y-213636999D03*
D12*
X112189906Y-213636999D02*
X112189906Y-213636999D01*
D10*
X109834859Y-212685498D03*
D12*
X109834859Y-212685498D02*
X109834859Y-212685498D01*
D10*
X116392437Y-196379332D03*
D12*
X116392437Y-196379332D02*
X116392437Y-196379332D01*
D10*
X118747484Y-197330833D03*
D12*
X118747484Y-197330833D02*
X118747484Y-197330833D01*
D10*
X121102531Y-198282333D03*
D12*
X121102531Y-198282333D02*
X121102531Y-198282333D01*
D10*
X123457578Y-199233834D03*
D11*
G36*
X122987887Y-198127312D02*
G01*
X124564100Y-198764143D01*
X123927269Y-200340356D01*
X122351056Y-199703525D01*
X122987887Y-198127312D01*
X122987887Y-198127312D01*
G37*
D10*
X52781938Y-241970168D03*
D12*
X52781938Y-241970168D02*
X52781938Y-241970168D01*
D10*
X53733439Y-239615121D03*
D12*
X53733439Y-239615121D02*
X53733439Y-239615121D01*
D10*
X54684939Y-237260074D03*
D12*
X54684939Y-237260074D02*
X54684939Y-237260074D01*
D10*
X55636440Y-234905027D03*
D11*
G36*
X54529918Y-235374718D02*
G01*
X55166749Y-233798505D01*
X56742962Y-234435336D01*
X56106131Y-236011549D01*
X54529918Y-235374718D01*
X54529918Y-235374718D01*
G37*
D13*
X262077352Y-202805909D03*
X267499945Y-202879962D03*
X255521736Y-186580192D03*
X260944329Y-186654245D03*
X248966121Y-170354474D03*
X254388714Y-170428527D03*
X246422877Y-213444867D03*
X251845470Y-213518920D03*
X239867262Y-197219149D03*
X245289855Y-197293202D03*
X233311646Y-180993432D03*
X238734239Y-181067485D03*
X227396943Y-215739169D03*
X232819536Y-215813222D03*
X220841327Y-199513452D03*
X226263920Y-199587505D03*
X214285712Y-183287735D03*
X219708305Y-183361788D03*
X208371008Y-218033472D03*
X213793601Y-218107525D03*
X201815393Y-201807755D03*
X207237986Y-201881808D03*
X195259778Y-185582037D03*
X200682371Y-185656090D03*
X87143606Y-228997668D03*
X83294361Y-225177549D03*
X93699221Y-212771951D03*
X89849976Y-208951832D03*
X100254837Y-196546233D03*
X96405592Y-192726114D03*
X68117672Y-226703366D03*
X64268427Y-222883247D03*
X74673287Y-210477648D03*
X70824042Y-206657529D03*
X81228902Y-194251931D03*
X77379657Y-190431812D03*
X49091737Y-224409063D03*
X45242492Y-220588944D03*
X55647353Y-208183345D03*
X51798108Y-204363226D03*
X62202968Y-191957628D03*
X58353723Y-188137509D03*
X33437262Y-213770105D03*
X29588017Y-209949986D03*
X39992878Y-197544388D03*
X36143633Y-193724269D03*
X46548493Y-181318671D03*
X42699248Y-177498552D03*
D10*
X98983952Y-273902971D03*
D11*
G36*
X99151249Y-275093354D02*
G01*
X97793569Y-274070268D01*
X98816655Y-272712588D01*
X100174335Y-273735674D01*
X99151249Y-275093354D01*
X99151249Y-275093354D01*
G37*
D10*
X101012486Y-275431581D03*
D12*
X101012486Y-275431581D02*
X101012486Y-275431581D01*
D10*
X103041020Y-276960191D03*
D12*
X103041020Y-276960191D02*
X103041020Y-276960191D01*
D10*
X105069555Y-278488801D03*
D12*
X105069555Y-278488801D02*
X105069555Y-278488801D01*
D10*
X194958136Y-278427914D03*
D11*
G36*
X196148519Y-278595211D02*
G01*
X194790839Y-279618297D01*
X193767753Y-278260617D01*
X195125433Y-277237531D01*
X196148519Y-278595211D01*
X196148519Y-278595211D01*
G37*
D10*
X196986670Y-276899304D03*
D12*
X196986670Y-276899304D02*
X196986670Y-276899304D01*
D10*
X199015204Y-275370694D03*
D12*
X199015204Y-275370694D02*
X199015204Y-275370694D01*
D10*
X201043739Y-273842084D03*
D12*
X201043739Y-273842084D02*
X201043739Y-273842084D01*
D14*
X56740000Y-230440000D03*
X62510000Y-234510000D03*
X61500000Y-235950000D03*
X79420000Y-223380000D03*
X60360000Y-221130000D03*
X44610000Y-210170000D03*
X110410000Y-192180000D03*
X92390000Y-190280000D03*
X73440000Y-188000000D03*
X57780000Y-177530000D03*
X104930000Y-209090000D03*
X85950000Y-206790000D03*
X66930000Y-204470000D03*
X51300000Y-193820002D03*
X242520000Y-229770000D03*
X267677010Y-208394279D03*
X243467000Y-231913916D03*
X240264074Y-231944074D03*
X240347159Y-234712841D03*
X189470000Y-198522990D03*
X213100000Y-198050000D03*
X226460000Y-196992990D03*
X249785000Y-188785000D03*
X196200000Y-214930000D03*
X219532435Y-213069642D03*
X239439827Y-211529747D03*
X254439328Y-201419328D03*
X201375000Y-227165000D03*
X220495000Y-224995000D03*
X239635000Y-222745000D03*
X259205933Y-218475933D03*
D15*
X53930000Y-227600000D02*
X52850000Y-226520000D01*
X53930000Y-227630000D02*
X53930000Y-227600000D01*
X56740000Y-230440000D02*
X53930000Y-227630000D01*
X48080000Y-226520000D02*
X35330105Y-213770105D01*
X34874102Y-213770105D02*
X33437262Y-213770105D01*
X35330105Y-213770105D02*
X34874102Y-213770105D01*
X52850000Y-226520000D02*
X48080000Y-226520000D01*
X54684939Y-237260074D02*
X54685013Y-237260000D01*
X62510000Y-236095685D02*
X62510000Y-235075685D01*
X62510000Y-235075685D02*
X62510000Y-234510000D01*
X61345611Y-237260074D02*
X62510000Y-236095685D01*
X54684939Y-237260074D02*
X61345611Y-237260074D01*
X60455027Y-234905027D02*
X55636440Y-234905027D01*
X61500000Y-235950000D02*
X60455027Y-234905027D01*
X83294361Y-226614389D02*
X83294361Y-225177549D01*
X86650000Y-231810000D02*
X83294361Y-228454361D01*
X99895600Y-231810000D02*
X86650000Y-231810000D01*
X103020102Y-228685498D02*
X99895600Y-231810000D01*
X83294361Y-228454361D02*
X83294361Y-226614389D01*
X64268427Y-224320087D02*
X64268427Y-222883247D01*
X64268427Y-230928427D02*
X64268427Y-224320087D01*
X65604010Y-232264010D02*
X64268427Y-230928427D01*
X105375149Y-229636999D02*
X102748138Y-232264010D01*
X102748138Y-232264010D02*
X79484010Y-232264010D01*
X79484010Y-232264010D02*
X65604010Y-232264010D01*
X79484010Y-232264010D02*
X79420000Y-232200000D01*
X79420000Y-232200000D02*
X79420000Y-223945685D01*
X79420000Y-223945685D02*
X79420000Y-223380000D01*
X46733547Y-222079999D02*
X46258491Y-221604943D01*
X46258491Y-221604943D02*
X45242492Y-220588944D01*
X105600675Y-232718020D02*
X65280088Y-232718020D01*
X54642067Y-222079999D02*
X46733547Y-222079999D01*
X107730196Y-230588499D02*
X105600675Y-232718020D01*
X65280088Y-232718020D02*
X60246034Y-227683966D01*
X60246034Y-227683966D02*
X54642067Y-222079999D01*
X60381034Y-227818966D02*
X60246034Y-227683966D01*
X60360000Y-221130000D02*
X60360000Y-227797932D01*
X60360000Y-227797932D02*
X60381034Y-227818966D01*
X32152054Y-209949986D02*
X31024857Y-209949986D01*
X54454010Y-222534010D02*
X44736078Y-222534010D01*
X65092031Y-233172031D02*
X54454010Y-222534010D01*
X108453212Y-233172031D02*
X65092031Y-233172031D01*
X110085243Y-231540000D02*
X108453212Y-233172031D01*
X31024857Y-209949986D02*
X29588017Y-209949986D01*
X41276034Y-213503966D02*
X41276034Y-219073966D01*
X44610000Y-210170000D02*
X41276034Y-213503966D01*
X44736078Y-222534010D02*
X41276034Y-219073966D01*
X41276034Y-219073966D02*
X32152054Y-209949986D01*
X97419478Y-193740000D02*
X96405592Y-192726114D01*
X101613873Y-193740000D02*
X97419478Y-193740000D01*
X105023873Y-197150000D02*
X101613873Y-193740000D01*
X116392437Y-196379332D02*
X115621769Y-197150000D01*
X110410000Y-197020000D02*
X110540000Y-197150000D01*
X110410000Y-192180000D02*
X110410000Y-197020000D01*
X115621769Y-197150000D02*
X110540000Y-197150000D01*
X110540000Y-197150000D02*
X105023873Y-197150000D01*
X78816497Y-190431812D02*
X77379657Y-190431812D01*
X118747484Y-197330833D02*
X117897485Y-198180832D01*
X81735948Y-190431812D02*
X78816497Y-190431812D01*
X85504136Y-194200000D02*
X81735948Y-190431812D01*
X105412637Y-198180832D02*
X101431805Y-194200000D01*
X117897485Y-198180832D02*
X105412637Y-198180832D01*
X92390000Y-194190000D02*
X92400000Y-194200000D01*
X92390000Y-190280000D02*
X92390000Y-194190000D01*
X101431805Y-194200000D02*
X92400000Y-194200000D01*
X92400000Y-194200000D02*
X85504136Y-194200000D01*
X82896079Y-192234011D02*
X78481942Y-192234010D01*
X78481942Y-192234010D02*
X78467932Y-192220000D01*
X85316078Y-194654010D02*
X82896079Y-192234011D01*
X121102531Y-198282333D02*
X120252532Y-199132332D01*
X105722069Y-199132332D02*
X101243748Y-194654011D01*
X101243748Y-194654011D02*
X85316078Y-194654010D01*
X66580000Y-192220000D02*
X62497509Y-188137509D01*
X62497509Y-188137509D02*
X59790563Y-188137509D01*
X59790563Y-188137509D02*
X58353723Y-188137509D01*
X120252532Y-199132332D02*
X105722069Y-199132332D01*
X78467932Y-192220000D02*
X73540000Y-192220000D01*
X73540000Y-192220000D02*
X66580000Y-192220000D01*
X73540000Y-188100000D02*
X73540000Y-192220000D01*
X73440000Y-188000000D02*
X73540000Y-188100000D01*
X78279875Y-192674011D02*
X66391942Y-192674010D01*
X66391942Y-192674010D02*
X63521943Y-189804011D01*
X63521943Y-189804011D02*
X57164011Y-189804011D01*
X85128020Y-195108020D02*
X82708021Y-192688021D01*
X44136088Y-177498552D02*
X42699248Y-177498552D01*
X44858552Y-177498552D02*
X44136088Y-177498552D01*
X78293884Y-192688020D02*
X78279875Y-192674011D01*
X101055690Y-195108021D02*
X85128020Y-195108020D01*
X105905160Y-199957491D02*
X101055690Y-195108021D01*
X82708021Y-192688021D02*
X78293884Y-192688020D01*
X122733921Y-199957491D02*
X105905160Y-199957491D01*
X123457578Y-199233834D02*
X122733921Y-199957491D01*
X57164011Y-189804011D02*
X54475000Y-187115000D01*
X54475000Y-187115000D02*
X44858552Y-177498552D01*
X54440000Y-187080000D02*
X54475000Y-187115000D01*
X57780000Y-177530000D02*
X54440000Y-180870000D01*
X54440000Y-180870000D02*
X54440000Y-187080000D01*
X90865975Y-209967831D02*
X89849976Y-208951832D01*
X97497831Y-209967831D02*
X90865975Y-209967831D01*
X100950000Y-213420000D02*
X97497831Y-209967831D01*
X109834859Y-212685498D02*
X109100357Y-213420000D01*
X104930000Y-209655685D02*
X104930000Y-213420000D01*
X104930000Y-209090000D02*
X104930000Y-209655685D01*
X109100357Y-213420000D02*
X104930000Y-213420000D01*
X104930000Y-213420000D02*
X100950000Y-213420000D01*
X78525989Y-210475989D02*
X74707529Y-206657529D01*
X111339907Y-214486998D02*
X101329066Y-214486998D01*
X101329066Y-214486998D02*
X97318057Y-210475989D01*
X72260882Y-206657529D02*
X70824042Y-206657529D01*
X74707529Y-206657529D02*
X72260882Y-206657529D01*
X112189906Y-213636999D02*
X111339907Y-214486998D01*
X85950000Y-210461978D02*
X85964011Y-210475989D01*
X85950000Y-206790000D02*
X85950000Y-210461978D01*
X97318057Y-210475989D02*
X85964011Y-210475989D01*
X85964011Y-210475989D02*
X78525989Y-210475989D01*
X53234948Y-204363226D02*
X51798108Y-204363226D01*
X55813226Y-204363226D02*
X53234948Y-204363226D01*
X59770000Y-208320000D02*
X55813226Y-204363226D01*
X114481501Y-214588499D02*
X113550000Y-215520000D01*
X114544953Y-214588499D02*
X114481501Y-214588499D01*
X113550000Y-215520000D02*
X101720000Y-215520000D01*
X101720000Y-215520000D02*
X97130000Y-210930000D01*
X97130000Y-210930000D02*
X78320000Y-210930000D01*
X78320000Y-210930000D02*
X75710000Y-208320000D01*
X75710000Y-208320000D02*
X67100000Y-208320000D01*
X67100000Y-208320000D02*
X59770000Y-208320000D01*
X66930000Y-208290000D02*
X66900000Y-208320000D01*
X66930000Y-204470000D02*
X66930000Y-208290000D01*
X37580473Y-193724269D02*
X36143633Y-193724269D01*
X38744269Y-193724269D02*
X37580473Y-193724269D01*
X57030000Y-206250000D02*
X51270000Y-206250000D01*
X75514010Y-208774010D02*
X59554010Y-208774010D01*
X59554010Y-208774010D02*
X57030000Y-206250000D01*
X116900000Y-215810000D02*
X116240000Y-216470000D01*
X116900000Y-215540000D02*
X116900000Y-215810000D01*
X116240000Y-216470000D02*
X101990000Y-216470000D01*
X101990000Y-216470000D02*
X96904010Y-211384010D01*
X96904010Y-211384010D02*
X78124010Y-211384010D01*
X78124010Y-211384010D02*
X75514010Y-208774010D01*
X51270000Y-206250000D02*
X46435000Y-201415000D01*
X46435000Y-201415000D02*
X38744269Y-193724269D01*
X51289998Y-193820002D02*
X51300000Y-193820002D01*
X48200000Y-196910000D02*
X51289998Y-193820002D01*
X46435000Y-201415000D02*
X48200000Y-203180000D01*
X48200000Y-203180000D02*
X48200000Y-196910000D01*
X267677010Y-208959964D02*
X267677010Y-208394279D01*
X267677010Y-209472990D02*
X267677010Y-208959964D01*
X263700000Y-213450000D02*
X267677010Y-209472990D01*
X263700000Y-215010000D02*
X263700000Y-213450000D01*
X256800000Y-221910000D02*
X263700000Y-215010000D01*
X242520000Y-229770000D02*
X243830000Y-228460000D01*
X243830000Y-228460000D02*
X245050000Y-228460000D01*
X245050000Y-228460000D02*
X248080000Y-225430000D01*
X248080000Y-225430000D02*
X248080000Y-223710000D01*
X248080000Y-223710000D02*
X249880000Y-221910000D01*
X249880000Y-221910000D02*
X256800000Y-221910000D01*
X240294232Y-231913916D02*
X240264074Y-231944074D01*
X243467000Y-231913916D02*
X240294232Y-231913916D01*
X244769616Y-234712841D02*
X240347159Y-234712841D01*
X187184908Y-196237898D02*
X189070001Y-198122991D01*
X189070001Y-198122991D02*
X189470000Y-198522990D01*
X183300721Y-196237898D02*
X187184908Y-196237898D01*
X189717010Y-198770000D02*
X189470000Y-198522990D01*
X201400000Y-198770000D02*
X189717010Y-198770000D01*
X205540000Y-194630000D02*
X201400000Y-198770000D01*
X205540000Y-189076879D02*
X205540000Y-194630000D01*
X200682371Y-185656090D02*
X202119211Y-185656090D01*
X202119211Y-185656090D02*
X205540000Y-189076879D01*
X180945674Y-197335674D02*
X180945674Y-197189399D01*
X182860000Y-199250000D02*
X180945674Y-197335674D01*
X211900000Y-199250000D02*
X182860000Y-199250000D01*
X221145145Y-183361788D02*
X224740000Y-186956643D01*
X224740000Y-186956643D02*
X224740000Y-191750000D01*
X224740000Y-191750000D02*
X219870000Y-196620000D01*
X219870000Y-196620000D02*
X214530000Y-196620000D01*
X219708305Y-183361788D02*
X221145145Y-183361788D01*
X214530000Y-196620000D02*
X213100000Y-198050000D01*
X213100000Y-198050000D02*
X211900000Y-199250000D01*
X226472990Y-196980000D02*
X226460000Y-196992990D01*
X231150000Y-196980000D02*
X226472990Y-196980000D01*
X240171079Y-181067485D02*
X242550000Y-183446406D01*
X238734239Y-181067485D02*
X240171079Y-181067485D01*
X242550000Y-183446406D02*
X242550000Y-190310000D01*
X242550000Y-190310000D02*
X238430000Y-194430000D01*
X238430000Y-194430000D02*
X233700000Y-194430000D01*
X233700000Y-194430000D02*
X231150000Y-196980000D01*
X226340000Y-197112990D02*
X226460000Y-196992990D01*
X215997010Y-197112990D02*
X226340000Y-197112990D01*
X213405990Y-199704010D02*
X215997010Y-197112990D01*
X178590627Y-198140899D02*
X180153738Y-199704010D01*
X180153738Y-199704010D02*
X213405990Y-199704010D01*
X176959237Y-199816057D02*
X176235580Y-199092400D01*
X177301200Y-200158020D02*
X176959237Y-199816057D01*
X187340000Y-200200000D02*
X187298020Y-200158020D01*
X213552066Y-200200000D02*
X187340000Y-200200000D01*
X187298020Y-200158020D02*
X177301200Y-200158020D01*
X216032066Y-197720000D02*
X213552066Y-200200000D01*
X231052068Y-197720000D02*
X216032066Y-197720000D01*
X243685990Y-194884010D02*
X233888058Y-194884010D01*
X233888058Y-194884010D02*
X231052068Y-197720000D01*
X249785000Y-188785000D02*
X243685990Y-194884010D01*
X250900000Y-187670000D02*
X249785000Y-188785000D01*
X250900000Y-180170000D02*
X250900000Y-187670000D01*
X254388714Y-170428527D02*
X254388714Y-176681286D01*
X254388714Y-176681286D02*
X250900000Y-180170000D01*
X208674826Y-201881808D02*
X211200000Y-204406982D01*
X207237986Y-201881808D02*
X208674826Y-201881808D01*
X211200000Y-204406982D02*
X211200000Y-211370000D01*
X211200000Y-211370000D02*
X207640000Y-214930000D01*
X191765140Y-214385497D02*
X190915141Y-213535498D01*
X192309643Y-214930000D02*
X191765140Y-214385497D01*
X207640000Y-214930000D02*
X196200000Y-214930000D01*
X196200000Y-214930000D02*
X192309643Y-214930000D01*
X189410093Y-215336998D02*
X188560094Y-214486999D01*
X189730096Y-215657001D02*
X189410093Y-215336998D01*
X217082999Y-215657001D02*
X189730096Y-215657001D01*
X227700760Y-199587505D02*
X230790000Y-202676745D01*
X226263920Y-199587505D02*
X227700760Y-199587505D01*
X230790000Y-202676745D02*
X230790000Y-208360000D01*
X230790000Y-208360000D02*
X226010000Y-213140000D01*
X226010000Y-213140000D02*
X219600000Y-213140000D01*
X219600000Y-213140000D02*
X217082999Y-215657001D01*
X245289855Y-197293202D02*
X246726695Y-197293202D01*
X243686843Y-211529747D02*
X240005512Y-211529747D01*
X188128629Y-216160000D02*
X217470000Y-216160000D01*
X187407128Y-215438499D02*
X188128629Y-216160000D01*
X220035990Y-213594010D02*
X237375564Y-213594010D01*
X248354853Y-198921360D02*
X248354853Y-206861737D01*
X248354853Y-206861737D02*
X243686843Y-211529747D01*
X186205047Y-215438499D02*
X187407128Y-215438499D01*
X217470000Y-216160000D02*
X220035990Y-213594010D01*
X237375564Y-213594010D02*
X239039828Y-211929746D01*
X240005512Y-211529747D02*
X239439827Y-211529747D01*
X239039828Y-211929746D02*
X239439827Y-211529747D01*
X246726695Y-197293202D02*
X248354853Y-198921360D01*
X184450000Y-216990000D02*
X183850000Y-216390000D01*
X217581595Y-216690471D02*
X201719529Y-216690471D01*
X220052066Y-214220000D02*
X217581595Y-216690471D01*
X201420000Y-216990000D02*
X184450000Y-216990000D01*
X201719529Y-216690471D02*
X201420000Y-216990000D01*
X237760000Y-214220000D02*
X220052066Y-214220000D01*
X260944329Y-192975671D02*
X257000000Y-196920000D01*
X257000000Y-196920000D02*
X257000000Y-198858656D01*
X260944329Y-186654245D02*
X260944329Y-192975671D01*
X243728656Y-212130000D02*
X239850000Y-212130000D01*
X239850000Y-212130000D02*
X237760000Y-214220000D01*
X257000000Y-198858656D02*
X254439328Y-201419328D01*
X254439328Y-201419328D02*
X243728656Y-212130000D01*
X198617222Y-230035498D02*
X197415141Y-230035498D01*
X198617222Y-229922778D02*
X198617222Y-230035498D01*
X213793601Y-218107525D02*
X210432475Y-218107525D01*
X210432475Y-218107525D02*
X201375000Y-227165000D01*
X201375000Y-227165000D02*
X198617222Y-229922778D01*
X195910093Y-231836998D02*
X195060094Y-230986999D01*
X213653002Y-231836998D02*
X195910093Y-231836998D01*
X232819536Y-215813222D02*
X229676778Y-215813222D01*
X229676778Y-215813222D02*
X220495000Y-224995000D01*
X220495000Y-224995000D02*
X213653002Y-231836998D01*
X193555046Y-232788498D02*
X192705047Y-231938499D01*
X229591502Y-232788498D02*
X193555046Y-232788498D01*
X251845470Y-213518920D02*
X248861080Y-213518920D01*
X248861080Y-213518920D02*
X239635000Y-222745000D01*
X239635000Y-222745000D02*
X229591502Y-232788498D01*
X263245989Y-213261943D02*
X263245989Y-214434011D01*
X237566343Y-233613657D02*
X191073657Y-233613657D01*
X247610000Y-225257932D02*
X244911942Y-227955990D01*
X249590000Y-221370000D02*
X247610000Y-223350000D01*
X243224010Y-227955990D02*
X237566343Y-233613657D01*
X247610000Y-223350000D02*
X247610000Y-225257932D01*
X244911942Y-227955990D02*
X243224010Y-227955990D01*
X266483946Y-210023986D02*
X263245989Y-213261943D01*
X266483946Y-203895961D02*
X266483946Y-210023986D01*
X267499945Y-202879962D02*
X266483946Y-203895961D01*
X263245989Y-214434011D02*
X256310000Y-221370000D01*
X191073657Y-233613657D02*
X190350000Y-232890000D01*
X256310000Y-221370000D02*
X249590000Y-221370000D01*
M02*
