%FSLAX45Y45*%
G04 Gerber Fmt 4.5, Leading zero omitted, Abs format (unit mm)*
G04 Created by KiCad (PCBNEW (5.1.4)-1) date 2023-12-29 13:03:58*
%MOMM*%
%LPD*%
G04 APERTURE LIST*
%ADD10C,0.050000*%
%ADD11C,0.200000*%
%ADD12C,0.300000*%
G04 APERTURE END LIST*
D10*
X5094537Y-24144385D02*
X5360507Y-23486085D01*
X24889689Y-24145789D02*
X24623718Y-23487488D01*
X18318013Y-19359028D02*
X15490102Y-20501579D01*
X11666213Y-19357625D02*
X14494123Y-20500175D01*
X11450000Y-28334000D02*
X10562695Y-28068535D01*
X18520000Y-28334000D02*
X19421531Y-28069938D01*
X11450000Y-28334000D02*
X18520000Y-28334000D01*
X15490102Y-20501579D02*
X15480000Y-20504000D01*
X14494123Y-20500175D02*
X15480000Y-20504000D01*
X26176434Y-21964966D02*
X26157890Y-21972458D01*
X3807791Y-21963563D02*
X3826335Y-21971055D01*
X2436679Y-21086037D02*
X2611724Y-21480320D01*
X4238537Y-16626283D02*
X2436679Y-21086037D01*
X27547546Y-21087441D02*
X27372501Y-21481724D01*
X25745688Y-16627686D02*
X27547546Y-21087441D01*
X11288494Y-18503969D02*
X9754005Y-17883995D01*
X4653330Y-16427168D02*
X7750124Y-17678354D01*
X4037111Y-22503806D02*
X3826335Y-21971055D01*
X4037111Y-22503806D02*
X5145096Y-22951461D01*
X3807791Y-21963563D02*
X2611724Y-21480320D01*
X6032399Y-24652730D02*
X5179390Y-24308092D01*
X9117111Y-18138977D02*
X7860776Y-17631385D01*
X10562695Y-28068535D02*
X6050942Y-24660222D01*
X5094537Y-24144385D02*
X5179390Y-24308092D01*
X11288494Y-18503969D02*
X11666213Y-19357625D01*
X5145096Y-22951461D02*
X5360507Y-23486085D01*
X9117111Y-18138977D02*
X9754005Y-17883995D01*
X4653330Y-16427168D02*
X4238537Y-16626283D01*
X7860776Y-17631385D02*
X7750124Y-17678354D01*
X6032399Y-24652730D02*
X6050942Y-24660222D01*
X23951827Y-24654134D02*
X23933283Y-24661626D01*
X24839130Y-22952864D02*
X24623718Y-23487488D01*
X25330895Y-16428572D02*
X25745688Y-16627686D01*
X22123449Y-17632789D02*
X22234101Y-17679758D01*
X20867115Y-18140381D02*
X20230221Y-17885399D01*
X23951827Y-24654134D02*
X24804836Y-24309496D01*
X19421531Y-28069938D02*
X23933283Y-24661626D01*
X24889689Y-24145789D02*
X24804836Y-24309496D01*
X25330895Y-16428572D02*
X22234101Y-17679758D01*
X26176434Y-21964966D02*
X27372501Y-21481724D01*
X25947114Y-22505209D02*
X26157890Y-21972458D01*
X25947114Y-22505209D02*
X24839130Y-22952864D01*
X18695732Y-18505373D02*
X18318013Y-19359028D01*
X20867115Y-18140381D02*
X22123449Y-17632789D01*
X18695732Y-18505373D02*
X20230221Y-17885399D01*
D11*
X4441000Y-20997000D02*
X4481000Y-21037000D01*
X4481000Y-20997000D02*
X4441000Y-21037000D01*
X5110000Y-19362000D02*
X5150000Y-19402000D01*
X5150000Y-19362000D02*
X5110000Y-19402000D01*
X5654000Y-23024000D02*
X5694000Y-23064000D01*
X5694000Y-23024000D02*
X5654000Y-23064000D01*
X5758000Y-17733000D02*
X5798000Y-17773000D01*
X5798000Y-17733000D02*
X5758000Y-17773000D01*
X6016000Y-22093000D02*
X6056000Y-22133000D01*
X6056000Y-22093000D02*
X6016000Y-22133000D01*
X6130000Y-23575000D02*
X6170000Y-23615000D01*
X6170000Y-23575000D02*
X6130000Y-23615000D01*
X6231000Y-23431000D02*
X6271000Y-23471000D01*
X6271000Y-23431000D02*
X6231000Y-23471000D01*
X6673000Y-20427000D02*
X6713000Y-20467000D01*
X6713000Y-20427000D02*
X6673000Y-20467000D01*
X7324000Y-18780000D02*
X7364000Y-18820000D01*
X7364000Y-18780000D02*
X7324000Y-18820000D01*
X7922000Y-22318000D02*
X7962000Y-22358000D01*
X7962000Y-22318000D02*
X7922000Y-22358000D01*
X8575000Y-20659000D02*
X8615000Y-20699000D01*
X8615000Y-20659000D02*
X8575000Y-20699000D01*
X9219000Y-19008000D02*
X9259000Y-19048000D01*
X9259000Y-19008000D02*
X9219000Y-19048000D01*
X10473000Y-20889000D02*
X10513000Y-20929000D01*
X10513000Y-20889000D02*
X10473000Y-20929000D01*
X11021000Y-19198000D02*
X11061000Y-19238000D01*
X11061000Y-19198000D02*
X11021000Y-19238000D01*
X18927000Y-19832299D02*
X18967000Y-19872299D01*
X18967000Y-19832299D02*
X18927000Y-19872299D01*
X19600000Y-21473000D02*
X19640000Y-21513000D01*
X19640000Y-21473000D02*
X19600000Y-21513000D01*
X20117500Y-22696500D02*
X20157500Y-22736500D01*
X20157500Y-22696500D02*
X20117500Y-22736500D01*
X21290000Y-19785000D02*
X21330000Y-19825000D01*
X21330000Y-19785000D02*
X21290000Y-19825000D01*
X21933244Y-21286964D02*
X21973244Y-21326964D01*
X21973244Y-21286964D02*
X21933244Y-21326964D01*
X22029500Y-22479500D02*
X22069500Y-22519500D01*
X22069500Y-22479500D02*
X22029500Y-22519500D01*
X22626000Y-19679299D02*
X22666000Y-19719299D01*
X22666000Y-19679299D02*
X22626000Y-19719299D01*
X23923983Y-21132975D02*
X23963983Y-21172975D01*
X23963983Y-21132975D02*
X23923983Y-21172975D01*
X23943500Y-22254500D02*
X23983500Y-22294500D01*
X23983500Y-22254500D02*
X23943500Y-22294500D01*
X24006407Y-23174407D02*
X24046407Y-23214407D01*
X24046407Y-23174407D02*
X24006407Y-23214407D01*
X24014716Y-23451284D02*
X24054716Y-23491284D01*
X24054716Y-23451284D02*
X24014716Y-23491284D01*
X24232000Y-22957000D02*
X24272000Y-22997000D01*
X24272000Y-22957000D02*
X24232000Y-22997000D01*
X24326700Y-23171392D02*
X24366700Y-23211392D01*
X24366700Y-23171392D02*
X24326700Y-23211392D01*
X24958500Y-18858500D02*
X24998500Y-18898500D01*
X24998500Y-18858500D02*
X24958500Y-18898500D01*
X25423933Y-20121933D02*
X25463933Y-20161933D01*
X25463933Y-20121933D02*
X25423933Y-20161933D01*
X25900593Y-21827593D02*
X25940593Y-21867593D01*
X25940593Y-21827593D02*
X25900593Y-21867593D01*
X26747701Y-20819428D02*
X26787701Y-20859428D01*
X26787701Y-20819428D02*
X26747701Y-20859428D01*
X10352010Y-22868550D02*
G75*
G03X10352010Y-22868550I-50000J0D01*
G01*
X10587515Y-22963700D02*
G75*
G03X10587515Y-22963700I-50000J0D01*
G01*
X10823020Y-23058850D02*
G75*
G03X10823020Y-23058850I-50000J0D01*
G01*
X11058524Y-23154000D02*
G75*
G03X11058524Y-23154000I-50000J0D01*
G01*
X19085000Y-23289000D02*
G75*
G03X19085000Y-23289000I-50000J0D01*
G01*
X19320505Y-23193850D02*
G75*
G03X19320505Y-23193850I-50000J0D01*
G01*
X19556009Y-23098700D02*
G75*
G03X19556009Y-23098700I-50000J0D01*
G01*
X19791514Y-23003550D02*
G75*
G03X19791514Y-23003550I-50000J0D01*
G01*
X24526962Y-23471284D02*
G75*
G03X24526962Y-23471284I-50000J0D01*
G01*
X24622112Y-23706789D02*
G75*
G03X24622112Y-23706789I-50000J0D01*
G01*
X24717262Y-23942293D02*
G75*
G03X24717262Y-23942293I-50000J0D01*
G01*
X24812412Y-24177798D02*
G75*
G03X24812412Y-24177798I-50000J0D01*
G01*
X5328194Y-24197017D02*
G75*
G03X5328194Y-24197017I-50000J0D01*
G01*
X5423344Y-23961512D02*
G75*
G03X5423344Y-23961512I-50000J0D01*
G01*
X5518494Y-23726007D02*
G75*
G03X5518494Y-23726007I-50000J0D01*
G01*
X5613644Y-23490503D02*
G75*
G03X5613644Y-23490503I-50000J0D01*
G01*
X18435000Y-21639000D02*
G75*
G03X18435000Y-21639000I-50000J0D01*
G01*
X18670505Y-21543850D02*
G75*
G03X18670505Y-21543850I-50000J0D01*
G01*
X18906009Y-21448700D02*
G75*
G03X18906009Y-21448700I-50000J0D01*
G01*
X19141514Y-21353550D02*
G75*
G03X19141514Y-21353550I-50000J0D01*
G01*
X11033486Y-21268550D02*
G75*
G03X11033486Y-21268550I-50000J0D01*
G01*
X11268991Y-21363700D02*
G75*
G03X11268991Y-21363700I-50000J0D01*
G01*
X11504495Y-21458850D02*
G75*
G03X11504495Y-21458850I-50000J0D01*
G01*
X11740000Y-21554000D02*
G75*
G03X11740000Y-21554000I-50000J0D01*
G01*
X19545814Y-27842791D02*
G75*
G03X19545814Y-27842791I-50000J0D01*
G01*
X19748667Y-27689930D02*
G75*
G03X19748667Y-27689930I-50000J0D01*
G01*
X19951520Y-27537069D02*
G75*
G03X19951520Y-27537069I-50000J0D01*
G01*
X20154374Y-27384208D02*
G75*
G03X20154374Y-27384208I-50000J0D01*
G01*
X9948395Y-27390297D02*
G75*
G03X9948395Y-27390297I-50000J0D01*
G01*
X10151249Y-27543158D02*
G75*
G03X10151249Y-27543158I-50000J0D01*
G01*
X10354102Y-27696019D02*
G75*
G03X10354102Y-27696019I-50000J0D01*
G01*
X10556956Y-27848880D02*
G75*
G03X10556956Y-27848880I-50000J0D01*
G01*
X17673558Y-19909240D02*
G75*
G03X17673558Y-19909240I-50000J0D01*
G01*
X17909063Y-19814090D02*
G75*
G03X17909063Y-19814090I-50000J0D01*
G01*
X18144567Y-19718940D02*
G75*
G03X18144567Y-19718940I-50000J0D01*
G01*
X18380072Y-19623790D02*
G75*
G03X18380072Y-19623790I-50000J0D01*
G01*
X11689244Y-19637933D02*
G75*
G03X11689244Y-19637933I-50000J0D01*
G01*
X11924748Y-19733083D02*
G75*
G03X11924748Y-19733083I-50000J0D01*
G01*
X12160253Y-19828233D02*
G75*
G03X12160253Y-19828233I-50000J0D01*
G01*
X12395758Y-19923383D02*
G75*
G03X12395758Y-19923383I-50000J0D01*
G01*
X22084133Y-19887845D02*
X22084133Y-20014845D01*
X22020633Y-19951345D02*
X22147633Y-19951345D01*
X22626392Y-19895251D02*
X22626392Y-20022251D01*
X22562892Y-19958751D02*
X22689892Y-19958751D01*
X22739694Y-21510417D02*
X22739694Y-21637417D01*
X22676194Y-21573917D02*
X22803194Y-21573917D01*
X23281954Y-21517822D02*
X23281954Y-21644822D01*
X23218454Y-21581322D02*
X23345454Y-21581322D01*
X20181539Y-20117276D02*
X20181539Y-20244276D01*
X20118039Y-20180776D02*
X20245039Y-20180776D01*
X20723799Y-20124681D02*
X20723799Y-20251681D01*
X20660299Y-20188181D02*
X20787299Y-20188181D01*
X21428571Y-18265274D02*
X21428571Y-18392274D01*
X21365071Y-18328774D02*
X21492071Y-18328774D01*
X21970831Y-18272679D02*
X21970831Y-18399679D01*
X21907331Y-18336179D02*
X22034331Y-18336179D01*
X20837101Y-21739847D02*
X20837101Y-21866847D01*
X20773601Y-21803347D02*
X20900601Y-21803347D01*
X21379360Y-21747253D02*
X21379360Y-21874253D01*
X21315860Y-21810753D02*
X21442860Y-21810753D01*
X6426843Y-22224825D02*
X6426843Y-22351825D01*
X6363343Y-22288325D02*
X6490343Y-22288325D01*
X6811767Y-22606837D02*
X6811767Y-22733837D01*
X6748267Y-22670337D02*
X6875267Y-22670337D01*
X5835372Y-18750251D02*
X5835372Y-18877251D01*
X5771872Y-18813751D02*
X5898872Y-18813751D01*
X6220297Y-19132263D02*
X6220297Y-19259263D01*
X6156797Y-19195763D02*
X6283797Y-19195763D01*
X26207735Y-20217091D02*
X26207735Y-20344091D01*
X26144235Y-20280591D02*
X26271235Y-20280591D01*
X26749994Y-20224496D02*
X26749994Y-20351496D01*
X26686494Y-20287996D02*
X26813494Y-20287996D01*
X7737966Y-18979681D02*
X7737966Y-19106681D01*
X7674466Y-19043181D02*
X7801466Y-19043181D01*
X8122890Y-19361693D02*
X8122890Y-19488693D01*
X8059390Y-19425193D02*
X8186390Y-19425193D01*
X8329436Y-22454255D02*
X8329436Y-22581255D01*
X8265936Y-22517755D02*
X8392936Y-22517755D01*
X8714361Y-22836267D02*
X8714361Y-22963267D01*
X8650861Y-22899767D02*
X8777861Y-22899767D01*
X9640559Y-19209111D02*
X9640559Y-19336111D01*
X9577059Y-19272611D02*
X9704059Y-19272611D01*
X10025484Y-19591123D02*
X10025484Y-19718123D01*
X9961984Y-19654623D02*
X10088984Y-19654623D01*
X7082404Y-20602253D02*
X7082404Y-20729253D01*
X7018904Y-20665753D02*
X7145904Y-20665753D01*
X7467329Y-20984265D02*
X7467329Y-21111265D01*
X7403829Y-21047765D02*
X7530829Y-21047765D01*
X23986726Y-19658415D02*
X23986726Y-19785415D01*
X23923226Y-19721915D02*
X24050226Y-19721915D01*
X24528985Y-19665820D02*
X24528985Y-19792820D01*
X24465485Y-19729320D02*
X24592485Y-19729320D01*
X19525978Y-18494704D02*
X19525978Y-18621704D01*
X19462478Y-18558204D02*
X19589478Y-18558204D01*
X20068237Y-18502109D02*
X20068237Y-18629109D01*
X20004737Y-18565609D02*
X20131737Y-18565609D01*
X4269925Y-17686355D02*
X4269925Y-17813355D01*
X4206425Y-17749855D02*
X4333425Y-17749855D01*
X4654849Y-18068367D02*
X4654849Y-18195367D01*
X4591349Y-18131867D02*
X4718349Y-18131867D01*
X3614363Y-19308927D02*
X3614363Y-19435927D01*
X3550863Y-19372427D02*
X3677863Y-19372427D01*
X3999288Y-19690939D02*
X3999288Y-19817939D01*
X3935788Y-19754439D02*
X4062788Y-19754439D01*
X25552174Y-18594519D02*
X25552174Y-18721519D01*
X25488674Y-18658019D02*
X25615674Y-18658019D01*
X26094433Y-18601925D02*
X26094433Y-18728925D01*
X26030933Y-18665425D02*
X26157933Y-18665425D01*
X23331165Y-18035843D02*
X23331165Y-18162843D01*
X23267665Y-18099343D02*
X23394665Y-18099343D01*
X23873424Y-18043249D02*
X23873424Y-18170249D01*
X23809924Y-18106749D02*
X23936924Y-18106749D01*
X24642288Y-21280987D02*
X24642288Y-21407987D01*
X24578788Y-21344487D02*
X24705788Y-21344487D01*
X25184547Y-21288392D02*
X25184547Y-21415392D01*
X25121047Y-21351892D02*
X25248047Y-21351892D01*
X5179811Y-20372823D02*
X5179811Y-20499823D01*
X5116311Y-20436323D02*
X5243311Y-20436323D01*
X5564735Y-20754835D02*
X5564735Y-20881835D01*
X5501235Y-20818335D02*
X5628235Y-20818335D01*
X4524249Y-21995394D02*
X4524249Y-22122394D01*
X4460749Y-22058894D02*
X4587749Y-22058894D01*
X4909174Y-22377406D02*
X4909174Y-22504406D01*
X4845674Y-22440906D02*
X4972674Y-22440906D01*
X24896612Y-16971947D02*
X24896612Y-17098947D01*
X24833112Y-17035447D02*
X24960112Y-17035447D01*
X25438871Y-16979353D02*
X25438871Y-17106353D01*
X25375371Y-17042853D02*
X25502371Y-17042853D01*
X8984998Y-20831683D02*
X8984998Y-20958683D01*
X8921498Y-20895183D02*
X9048498Y-20895183D01*
X9369922Y-21213695D02*
X9369922Y-21340695D01*
X9306422Y-21277195D02*
X9433422Y-21277195D01*
X2958802Y-20931499D02*
X2958802Y-21058499D01*
X2895302Y-20994999D02*
X3022302Y-20994999D01*
X3343726Y-21313511D02*
X3343726Y-21440511D01*
X3280226Y-21377011D02*
X3407226Y-21377011D01*
D12*
X2720608Y-28802214D02*
X2720608Y-28502214D01*
X2792036Y-28502214D01*
X2834893Y-28516500D01*
X2863465Y-28545071D01*
X2877750Y-28573643D01*
X2892036Y-28630786D01*
X2892036Y-28673643D01*
X2877750Y-28730786D01*
X2863465Y-28759357D01*
X2834893Y-28787929D01*
X2792036Y-28802214D01*
X2720608Y-28802214D01*
X3020607Y-28802214D02*
X3020607Y-28602214D01*
X3020607Y-28659357D02*
X3034893Y-28630786D01*
X3049179Y-28616500D01*
X3077750Y-28602214D01*
X3106322Y-28602214D01*
X3206322Y-28802214D02*
X3206322Y-28602214D01*
X3206322Y-28502214D02*
X3192036Y-28516500D01*
X3206322Y-28530786D01*
X3220607Y-28516500D01*
X3206322Y-28502214D01*
X3206322Y-28530786D01*
X3392036Y-28802214D02*
X3363465Y-28787929D01*
X3349179Y-28759357D01*
X3349179Y-28502214D01*
X3549179Y-28802214D02*
X3520607Y-28787929D01*
X3506322Y-28759357D01*
X3506322Y-28502214D01*
X3892036Y-28802214D02*
X3892036Y-28502214D01*
X3992036Y-28716500D01*
X4092036Y-28502214D01*
X4092036Y-28802214D01*
X4363465Y-28802214D02*
X4363465Y-28645071D01*
X4349179Y-28616500D01*
X4320608Y-28602214D01*
X4263465Y-28602214D01*
X4234893Y-28616500D01*
X4363465Y-28787929D02*
X4334893Y-28802214D01*
X4263465Y-28802214D01*
X4234893Y-28787929D01*
X4220608Y-28759357D01*
X4220608Y-28730786D01*
X4234893Y-28702214D01*
X4263465Y-28687929D01*
X4334893Y-28687929D01*
X4363465Y-28673643D01*
X4506322Y-28602214D02*
X4506322Y-28902214D01*
X4506322Y-28616500D02*
X4534893Y-28602214D01*
X4592036Y-28602214D01*
X4620608Y-28616500D01*
X4634893Y-28630786D01*
X4649179Y-28659357D01*
X4649179Y-28745071D01*
X4634893Y-28773643D01*
X4620608Y-28787929D01*
X4592036Y-28802214D01*
X4534893Y-28802214D01*
X4506322Y-28787929D01*
X4777750Y-28773643D02*
X4792036Y-28787929D01*
X4777750Y-28802214D01*
X4763465Y-28787929D01*
X4777750Y-28773643D01*
X4777750Y-28802214D01*
X4777750Y-28616500D02*
X4792036Y-28630786D01*
X4777750Y-28645071D01*
X4763465Y-28630786D01*
X4777750Y-28616500D01*
X4777750Y-28645071D01*
X2394179Y-29276500D02*
X2434179Y-29316500D01*
X2434179Y-29276500D02*
X2394179Y-29316500D01*
X2777750Y-29132214D02*
X2806322Y-29132214D01*
X2834893Y-29146500D01*
X2849179Y-29160786D01*
X2863465Y-29189357D01*
X2877750Y-29246500D01*
X2877750Y-29317929D01*
X2863465Y-29375071D01*
X2849179Y-29403643D01*
X2834893Y-29417929D01*
X2806322Y-29432214D01*
X2777750Y-29432214D01*
X2749179Y-29417929D01*
X2734893Y-29403643D01*
X2720608Y-29375071D01*
X2706322Y-29317929D01*
X2706322Y-29246500D01*
X2720608Y-29189357D01*
X2734893Y-29160786D01*
X2749179Y-29146500D01*
X2777750Y-29132214D01*
X3006322Y-29403643D02*
X3020607Y-29417929D01*
X3006322Y-29432214D01*
X2992036Y-29417929D01*
X3006322Y-29403643D01*
X3006322Y-29432214D01*
X3277750Y-29232214D02*
X3277750Y-29432214D01*
X3206322Y-29117929D02*
X3134893Y-29332214D01*
X3320607Y-29332214D01*
X3492036Y-29132214D02*
X3520607Y-29132214D01*
X3549179Y-29146500D01*
X3563465Y-29160786D01*
X3577750Y-29189357D01*
X3592036Y-29246500D01*
X3592036Y-29317929D01*
X3577750Y-29375071D01*
X3563465Y-29403643D01*
X3549179Y-29417929D01*
X3520607Y-29432214D01*
X3492036Y-29432214D01*
X3463465Y-29417929D01*
X3449179Y-29403643D01*
X3434893Y-29375071D01*
X3420607Y-29317929D01*
X3420607Y-29246500D01*
X3434893Y-29189357D01*
X3449179Y-29160786D01*
X3463465Y-29146500D01*
X3492036Y-29132214D01*
X3720607Y-29432214D02*
X3720607Y-29232214D01*
X3720607Y-29260786D02*
X3734893Y-29246500D01*
X3763465Y-29232214D01*
X3806322Y-29232214D01*
X3834893Y-29246500D01*
X3849179Y-29275071D01*
X3849179Y-29432214D01*
X3849179Y-29275071D02*
X3863465Y-29246500D01*
X3892036Y-29232214D01*
X3934893Y-29232214D01*
X3963465Y-29246500D01*
X3977750Y-29275071D01*
X3977750Y-29432214D01*
X4120607Y-29432214D02*
X4120607Y-29232214D01*
X4120607Y-29260786D02*
X4134893Y-29246500D01*
X4163465Y-29232214D01*
X4206322Y-29232214D01*
X4234893Y-29246500D01*
X4249179Y-29275071D01*
X4249179Y-29432214D01*
X4249179Y-29275071D02*
X4263465Y-29246500D01*
X4292036Y-29232214D01*
X4334893Y-29232214D01*
X4363465Y-29246500D01*
X4377750Y-29275071D01*
X4377750Y-29432214D01*
X4963465Y-29117929D02*
X4706322Y-29503643D01*
X5349179Y-29132214D02*
X5377750Y-29132214D01*
X5406322Y-29146500D01*
X5420608Y-29160786D01*
X5434893Y-29189357D01*
X5449179Y-29246500D01*
X5449179Y-29317929D01*
X5434893Y-29375071D01*
X5420608Y-29403643D01*
X5406322Y-29417929D01*
X5377750Y-29432214D01*
X5349179Y-29432214D01*
X5320608Y-29417929D01*
X5306322Y-29403643D01*
X5292036Y-29375071D01*
X5277750Y-29317929D01*
X5277750Y-29246500D01*
X5292036Y-29189357D01*
X5306322Y-29160786D01*
X5320608Y-29146500D01*
X5349179Y-29132214D01*
X5577750Y-29403643D02*
X5592036Y-29417929D01*
X5577750Y-29432214D01*
X5563465Y-29417929D01*
X5577750Y-29403643D01*
X5577750Y-29432214D01*
X5777750Y-29132214D02*
X5806322Y-29132214D01*
X5834893Y-29146500D01*
X5849179Y-29160786D01*
X5863465Y-29189357D01*
X5877750Y-29246500D01*
X5877750Y-29317929D01*
X5863465Y-29375071D01*
X5849179Y-29403643D01*
X5834893Y-29417929D01*
X5806322Y-29432214D01*
X5777750Y-29432214D01*
X5749179Y-29417929D01*
X5734893Y-29403643D01*
X5720607Y-29375071D01*
X5706322Y-29317929D01*
X5706322Y-29246500D01*
X5720607Y-29189357D01*
X5734893Y-29160786D01*
X5749179Y-29146500D01*
X5777750Y-29132214D01*
X6163465Y-29432214D02*
X5992036Y-29432214D01*
X6077750Y-29432214D02*
X6077750Y-29132214D01*
X6049179Y-29175071D01*
X6020607Y-29203643D01*
X5992036Y-29217929D01*
X6420607Y-29132214D02*
X6363465Y-29132214D01*
X6334893Y-29146500D01*
X6320607Y-29160786D01*
X6292036Y-29203643D01*
X6277750Y-29260786D01*
X6277750Y-29375071D01*
X6292036Y-29403643D01*
X6306322Y-29417929D01*
X6334893Y-29432214D01*
X6392036Y-29432214D01*
X6420607Y-29417929D01*
X6434893Y-29403643D01*
X6449179Y-29375071D01*
X6449179Y-29303643D01*
X6434893Y-29275071D01*
X6420607Y-29260786D01*
X6392036Y-29246500D01*
X6334893Y-29246500D01*
X6306322Y-29260786D01*
X6292036Y-29275071D01*
X6277750Y-29303643D01*
X6563465Y-29132214D02*
X6563465Y-29189357D01*
X6677750Y-29132214D02*
X6677750Y-29189357D01*
X7120607Y-29546500D02*
X7106322Y-29532214D01*
X7077750Y-29489357D01*
X7063465Y-29460786D01*
X7049179Y-29417929D01*
X7034893Y-29346500D01*
X7034893Y-29289357D01*
X7049179Y-29217929D01*
X7063465Y-29175071D01*
X7077750Y-29146500D01*
X7106322Y-29103643D01*
X7120607Y-29089357D01*
X7206322Y-29132214D02*
X7392036Y-29132214D01*
X7292036Y-29246500D01*
X7334893Y-29246500D01*
X7363465Y-29260786D01*
X7377750Y-29275071D01*
X7392036Y-29303643D01*
X7392036Y-29375071D01*
X7377750Y-29403643D01*
X7363465Y-29417929D01*
X7334893Y-29432214D01*
X7249179Y-29432214D01*
X7220607Y-29417929D01*
X7206322Y-29403643D01*
X7677750Y-29432214D02*
X7506322Y-29432214D01*
X7592036Y-29432214D02*
X7592036Y-29132214D01*
X7563465Y-29175071D01*
X7534893Y-29203643D01*
X7506322Y-29217929D01*
X8034893Y-29432214D02*
X8034893Y-29132214D01*
X8163465Y-29432214D02*
X8163465Y-29275071D01*
X8149179Y-29246500D01*
X8120607Y-29232214D01*
X8077750Y-29232214D01*
X8049179Y-29246500D01*
X8034893Y-29260786D01*
X8349179Y-29432214D02*
X8320607Y-29417929D01*
X8306322Y-29403643D01*
X8292036Y-29375071D01*
X8292036Y-29289357D01*
X8306322Y-29260786D01*
X8320607Y-29246500D01*
X8349179Y-29232214D01*
X8392036Y-29232214D01*
X8420608Y-29246500D01*
X8434893Y-29260786D01*
X8449179Y-29289357D01*
X8449179Y-29375071D01*
X8434893Y-29403643D01*
X8420608Y-29417929D01*
X8392036Y-29432214D01*
X8349179Y-29432214D01*
X8620608Y-29432214D02*
X8592036Y-29417929D01*
X8577750Y-29389357D01*
X8577750Y-29132214D01*
X8849179Y-29417929D02*
X8820608Y-29432214D01*
X8763465Y-29432214D01*
X8734893Y-29417929D01*
X8720608Y-29389357D01*
X8720608Y-29275071D01*
X8734893Y-29246500D01*
X8763465Y-29232214D01*
X8820608Y-29232214D01*
X8849179Y-29246500D01*
X8863465Y-29275071D01*
X8863465Y-29303643D01*
X8720608Y-29332214D01*
X8977750Y-29417929D02*
X9006322Y-29432214D01*
X9063465Y-29432214D01*
X9092036Y-29417929D01*
X9106322Y-29389357D01*
X9106322Y-29375071D01*
X9092036Y-29346500D01*
X9063465Y-29332214D01*
X9020608Y-29332214D01*
X8992036Y-29317929D01*
X8977750Y-29289357D01*
X8977750Y-29275071D01*
X8992036Y-29246500D01*
X9020608Y-29232214D01*
X9063465Y-29232214D01*
X9092036Y-29246500D01*
X9206322Y-29546500D02*
X9220608Y-29532214D01*
X9249179Y-29489357D01*
X9263465Y-29460786D01*
X9277750Y-29417929D01*
X9292036Y-29346500D01*
X9292036Y-29289357D01*
X9277750Y-29217929D01*
X9263465Y-29175071D01*
X9249179Y-29146500D01*
X9220608Y-29103643D01*
X9206322Y-29089357D01*
X2434179Y-29692500D02*
G75*
G03X2434179Y-29692500I-50000J0D01*
G01*
X2877750Y-29828214D02*
X2706322Y-29828214D01*
X2792036Y-29828214D02*
X2792036Y-29528214D01*
X2763465Y-29571071D01*
X2734893Y-29599643D01*
X2706322Y-29613929D01*
X3006322Y-29799643D02*
X3020607Y-29813929D01*
X3006322Y-29828214D01*
X2992036Y-29813929D01*
X3006322Y-29799643D01*
X3006322Y-29828214D01*
X3206322Y-29528214D02*
X3234893Y-29528214D01*
X3263465Y-29542500D01*
X3277750Y-29556786D01*
X3292036Y-29585357D01*
X3306322Y-29642500D01*
X3306322Y-29713929D01*
X3292036Y-29771071D01*
X3277750Y-29799643D01*
X3263465Y-29813929D01*
X3234893Y-29828214D01*
X3206322Y-29828214D01*
X3177750Y-29813929D01*
X3163465Y-29799643D01*
X3149179Y-29771071D01*
X3134893Y-29713929D01*
X3134893Y-29642500D01*
X3149179Y-29585357D01*
X3163465Y-29556786D01*
X3177750Y-29542500D01*
X3206322Y-29528214D01*
X3492036Y-29528214D02*
X3520607Y-29528214D01*
X3549179Y-29542500D01*
X3563465Y-29556786D01*
X3577750Y-29585357D01*
X3592036Y-29642500D01*
X3592036Y-29713929D01*
X3577750Y-29771071D01*
X3563465Y-29799643D01*
X3549179Y-29813929D01*
X3520607Y-29828214D01*
X3492036Y-29828214D01*
X3463465Y-29813929D01*
X3449179Y-29799643D01*
X3434893Y-29771071D01*
X3420607Y-29713929D01*
X3420607Y-29642500D01*
X3434893Y-29585357D01*
X3449179Y-29556786D01*
X3463465Y-29542500D01*
X3492036Y-29528214D01*
X3720607Y-29828214D02*
X3720607Y-29628214D01*
X3720607Y-29656786D02*
X3734893Y-29642500D01*
X3763465Y-29628214D01*
X3806322Y-29628214D01*
X3834893Y-29642500D01*
X3849179Y-29671071D01*
X3849179Y-29828214D01*
X3849179Y-29671071D02*
X3863465Y-29642500D01*
X3892036Y-29628214D01*
X3934893Y-29628214D01*
X3963465Y-29642500D01*
X3977750Y-29671071D01*
X3977750Y-29828214D01*
X4120607Y-29828214D02*
X4120607Y-29628214D01*
X4120607Y-29656786D02*
X4134893Y-29642500D01*
X4163465Y-29628214D01*
X4206322Y-29628214D01*
X4234893Y-29642500D01*
X4249179Y-29671071D01*
X4249179Y-29828214D01*
X4249179Y-29671071D02*
X4263465Y-29642500D01*
X4292036Y-29628214D01*
X4334893Y-29628214D01*
X4363465Y-29642500D01*
X4377750Y-29671071D01*
X4377750Y-29828214D01*
X4963465Y-29513929D02*
X4706322Y-29899643D01*
X5349179Y-29528214D02*
X5377750Y-29528214D01*
X5406322Y-29542500D01*
X5420608Y-29556786D01*
X5434893Y-29585357D01*
X5449179Y-29642500D01*
X5449179Y-29713929D01*
X5434893Y-29771071D01*
X5420608Y-29799643D01*
X5406322Y-29813929D01*
X5377750Y-29828214D01*
X5349179Y-29828214D01*
X5320608Y-29813929D01*
X5306322Y-29799643D01*
X5292036Y-29771071D01*
X5277750Y-29713929D01*
X5277750Y-29642500D01*
X5292036Y-29585357D01*
X5306322Y-29556786D01*
X5320608Y-29542500D01*
X5349179Y-29528214D01*
X5577750Y-29799643D02*
X5592036Y-29813929D01*
X5577750Y-29828214D01*
X5563465Y-29813929D01*
X5577750Y-29799643D01*
X5577750Y-29828214D01*
X5777750Y-29528214D02*
X5806322Y-29528214D01*
X5834893Y-29542500D01*
X5849179Y-29556786D01*
X5863465Y-29585357D01*
X5877750Y-29642500D01*
X5877750Y-29713929D01*
X5863465Y-29771071D01*
X5849179Y-29799643D01*
X5834893Y-29813929D01*
X5806322Y-29828214D01*
X5777750Y-29828214D01*
X5749179Y-29813929D01*
X5734893Y-29799643D01*
X5720607Y-29771071D01*
X5706322Y-29713929D01*
X5706322Y-29642500D01*
X5720607Y-29585357D01*
X5734893Y-29556786D01*
X5749179Y-29542500D01*
X5777750Y-29528214D01*
X5977750Y-29528214D02*
X6163465Y-29528214D01*
X6063465Y-29642500D01*
X6106322Y-29642500D01*
X6134893Y-29656786D01*
X6149179Y-29671071D01*
X6163465Y-29699643D01*
X6163465Y-29771071D01*
X6149179Y-29799643D01*
X6134893Y-29813929D01*
X6106322Y-29828214D01*
X6020607Y-29828214D01*
X5992036Y-29813929D01*
X5977750Y-29799643D01*
X6306322Y-29828214D02*
X6363465Y-29828214D01*
X6392036Y-29813929D01*
X6406322Y-29799643D01*
X6434893Y-29756786D01*
X6449179Y-29699643D01*
X6449179Y-29585357D01*
X6434893Y-29556786D01*
X6420607Y-29542500D01*
X6392036Y-29528214D01*
X6334893Y-29528214D01*
X6306322Y-29542500D01*
X6292036Y-29556786D01*
X6277750Y-29585357D01*
X6277750Y-29656786D01*
X6292036Y-29685357D01*
X6306322Y-29699643D01*
X6334893Y-29713929D01*
X6392036Y-29713929D01*
X6420607Y-29699643D01*
X6434893Y-29685357D01*
X6449179Y-29656786D01*
X6563465Y-29528214D02*
X6563465Y-29585357D01*
X6677750Y-29528214D02*
X6677750Y-29585357D01*
X7120607Y-29942500D02*
X7106322Y-29928214D01*
X7077750Y-29885357D01*
X7063465Y-29856786D01*
X7049179Y-29813929D01*
X7034893Y-29742500D01*
X7034893Y-29685357D01*
X7049179Y-29613929D01*
X7063465Y-29571071D01*
X7077750Y-29542500D01*
X7106322Y-29499643D01*
X7120607Y-29485357D01*
X7363465Y-29628214D02*
X7363465Y-29828214D01*
X7292036Y-29513929D02*
X7220607Y-29728214D01*
X7406322Y-29728214D01*
X7577750Y-29528214D02*
X7606322Y-29528214D01*
X7634893Y-29542500D01*
X7649179Y-29556786D01*
X7663465Y-29585357D01*
X7677750Y-29642500D01*
X7677750Y-29713929D01*
X7663465Y-29771071D01*
X7649179Y-29799643D01*
X7634893Y-29813929D01*
X7606322Y-29828214D01*
X7577750Y-29828214D01*
X7549179Y-29813929D01*
X7534893Y-29799643D01*
X7520607Y-29771071D01*
X7506322Y-29713929D01*
X7506322Y-29642500D01*
X7520607Y-29585357D01*
X7534893Y-29556786D01*
X7549179Y-29542500D01*
X7577750Y-29528214D01*
X8034893Y-29828214D02*
X8034893Y-29528214D01*
X8163465Y-29828214D02*
X8163465Y-29671071D01*
X8149179Y-29642500D01*
X8120607Y-29628214D01*
X8077750Y-29628214D01*
X8049179Y-29642500D01*
X8034893Y-29656786D01*
X8349179Y-29828214D02*
X8320607Y-29813929D01*
X8306322Y-29799643D01*
X8292036Y-29771071D01*
X8292036Y-29685357D01*
X8306322Y-29656786D01*
X8320607Y-29642500D01*
X8349179Y-29628214D01*
X8392036Y-29628214D01*
X8420608Y-29642500D01*
X8434893Y-29656786D01*
X8449179Y-29685357D01*
X8449179Y-29771071D01*
X8434893Y-29799643D01*
X8420608Y-29813929D01*
X8392036Y-29828214D01*
X8349179Y-29828214D01*
X8620608Y-29828214D02*
X8592036Y-29813929D01*
X8577750Y-29785357D01*
X8577750Y-29528214D01*
X8849179Y-29813929D02*
X8820608Y-29828214D01*
X8763465Y-29828214D01*
X8734893Y-29813929D01*
X8720608Y-29785357D01*
X8720608Y-29671071D01*
X8734893Y-29642500D01*
X8763465Y-29628214D01*
X8820608Y-29628214D01*
X8849179Y-29642500D01*
X8863465Y-29671071D01*
X8863465Y-29699643D01*
X8720608Y-29728214D01*
X8977750Y-29813929D02*
X9006322Y-29828214D01*
X9063465Y-29828214D01*
X9092036Y-29813929D01*
X9106322Y-29785357D01*
X9106322Y-29771071D01*
X9092036Y-29742500D01*
X9063465Y-29728214D01*
X9020608Y-29728214D01*
X8992036Y-29713929D01*
X8977750Y-29685357D01*
X8977750Y-29671071D01*
X8992036Y-29642500D01*
X9020608Y-29628214D01*
X9063465Y-29628214D01*
X9092036Y-29642500D01*
X9206322Y-29942500D02*
X9220608Y-29928214D01*
X9249179Y-29885357D01*
X9263465Y-29856786D01*
X9277750Y-29813929D01*
X9292036Y-29742500D01*
X9292036Y-29685357D01*
X9277750Y-29613929D01*
X9263465Y-29571071D01*
X9249179Y-29542500D01*
X9220608Y-29499643D01*
X9206322Y-29485357D01*
X2370679Y-30025000D02*
X2370679Y-30152000D01*
X2307179Y-30088500D02*
X2434179Y-30088500D01*
X2877750Y-30224214D02*
X2706322Y-30224214D01*
X2792036Y-30224214D02*
X2792036Y-29924214D01*
X2763465Y-29967071D01*
X2734893Y-29995643D01*
X2706322Y-30009929D01*
X3006322Y-30195643D02*
X3020607Y-30209929D01*
X3006322Y-30224214D01*
X2992036Y-30209929D01*
X3006322Y-30195643D01*
X3006322Y-30224214D01*
X3134893Y-29952786D02*
X3149179Y-29938500D01*
X3177750Y-29924214D01*
X3249179Y-29924214D01*
X3277750Y-29938500D01*
X3292036Y-29952786D01*
X3306322Y-29981357D01*
X3306322Y-30009929D01*
X3292036Y-30052786D01*
X3120607Y-30224214D01*
X3306322Y-30224214D01*
X3406322Y-29924214D02*
X3606322Y-29924214D01*
X3477750Y-30224214D01*
X3720607Y-30224214D02*
X3720607Y-30024214D01*
X3720607Y-30052786D02*
X3734893Y-30038500D01*
X3763465Y-30024214D01*
X3806322Y-30024214D01*
X3834893Y-30038500D01*
X3849179Y-30067071D01*
X3849179Y-30224214D01*
X3849179Y-30067071D02*
X3863465Y-30038500D01*
X3892036Y-30024214D01*
X3934893Y-30024214D01*
X3963465Y-30038500D01*
X3977750Y-30067071D01*
X3977750Y-30224214D01*
X4120607Y-30224214D02*
X4120607Y-30024214D01*
X4120607Y-30052786D02*
X4134893Y-30038500D01*
X4163465Y-30024214D01*
X4206322Y-30024214D01*
X4234893Y-30038500D01*
X4249179Y-30067071D01*
X4249179Y-30224214D01*
X4249179Y-30067071D02*
X4263465Y-30038500D01*
X4292036Y-30024214D01*
X4334893Y-30024214D01*
X4363465Y-30038500D01*
X4377750Y-30067071D01*
X4377750Y-30224214D01*
X4963465Y-29909929D02*
X4706322Y-30295643D01*
X5349179Y-29924214D02*
X5377750Y-29924214D01*
X5406322Y-29938500D01*
X5420608Y-29952786D01*
X5434893Y-29981357D01*
X5449179Y-30038500D01*
X5449179Y-30109929D01*
X5434893Y-30167071D01*
X5420608Y-30195643D01*
X5406322Y-30209929D01*
X5377750Y-30224214D01*
X5349179Y-30224214D01*
X5320608Y-30209929D01*
X5306322Y-30195643D01*
X5292036Y-30167071D01*
X5277750Y-30109929D01*
X5277750Y-30038500D01*
X5292036Y-29981357D01*
X5306322Y-29952786D01*
X5320608Y-29938500D01*
X5349179Y-29924214D01*
X5577750Y-30195643D02*
X5592036Y-30209929D01*
X5577750Y-30224214D01*
X5563465Y-30209929D01*
X5577750Y-30195643D01*
X5577750Y-30224214D01*
X5777750Y-29924214D02*
X5806322Y-29924214D01*
X5834893Y-29938500D01*
X5849179Y-29952786D01*
X5863465Y-29981357D01*
X5877750Y-30038500D01*
X5877750Y-30109929D01*
X5863465Y-30167071D01*
X5849179Y-30195643D01*
X5834893Y-30209929D01*
X5806322Y-30224214D01*
X5777750Y-30224214D01*
X5749179Y-30209929D01*
X5734893Y-30195643D01*
X5720607Y-30167071D01*
X5706322Y-30109929D01*
X5706322Y-30038500D01*
X5720607Y-29981357D01*
X5734893Y-29952786D01*
X5749179Y-29938500D01*
X5777750Y-29924214D01*
X6149179Y-29924214D02*
X6006322Y-29924214D01*
X5992036Y-30067071D01*
X6006322Y-30052786D01*
X6034893Y-30038500D01*
X6106322Y-30038500D01*
X6134893Y-30052786D01*
X6149179Y-30067071D01*
X6163465Y-30095643D01*
X6163465Y-30167071D01*
X6149179Y-30195643D01*
X6134893Y-30209929D01*
X6106322Y-30224214D01*
X6034893Y-30224214D01*
X6006322Y-30209929D01*
X5992036Y-30195643D01*
X6349179Y-29924214D02*
X6377750Y-29924214D01*
X6406322Y-29938500D01*
X6420607Y-29952786D01*
X6434893Y-29981357D01*
X6449179Y-30038500D01*
X6449179Y-30109929D01*
X6434893Y-30167071D01*
X6420607Y-30195643D01*
X6406322Y-30209929D01*
X6377750Y-30224214D01*
X6349179Y-30224214D01*
X6320607Y-30209929D01*
X6306322Y-30195643D01*
X6292036Y-30167071D01*
X6277750Y-30109929D01*
X6277750Y-30038500D01*
X6292036Y-29981357D01*
X6306322Y-29952786D01*
X6320607Y-29938500D01*
X6349179Y-29924214D01*
X6563465Y-29924214D02*
X6563465Y-29981357D01*
X6677750Y-29924214D02*
X6677750Y-29981357D01*
X7120607Y-30338500D02*
X7106322Y-30324214D01*
X7077750Y-30281357D01*
X7063465Y-30252786D01*
X7049179Y-30209929D01*
X7034893Y-30138500D01*
X7034893Y-30081357D01*
X7049179Y-30009929D01*
X7063465Y-29967071D01*
X7077750Y-29938500D01*
X7106322Y-29895643D01*
X7120607Y-29881357D01*
X7363465Y-30024214D02*
X7363465Y-30224214D01*
X7292036Y-29909929D02*
X7220607Y-30124214D01*
X7406322Y-30124214D01*
X7563465Y-30052786D02*
X7534893Y-30038500D01*
X7520607Y-30024214D01*
X7506322Y-29995643D01*
X7506322Y-29981357D01*
X7520607Y-29952786D01*
X7534893Y-29938500D01*
X7563465Y-29924214D01*
X7620607Y-29924214D01*
X7649179Y-29938500D01*
X7663465Y-29952786D01*
X7677750Y-29981357D01*
X7677750Y-29995643D01*
X7663465Y-30024214D01*
X7649179Y-30038500D01*
X7620607Y-30052786D01*
X7563465Y-30052786D01*
X7534893Y-30067071D01*
X7520607Y-30081357D01*
X7506322Y-30109929D01*
X7506322Y-30167071D01*
X7520607Y-30195643D01*
X7534893Y-30209929D01*
X7563465Y-30224214D01*
X7620607Y-30224214D01*
X7649179Y-30209929D01*
X7663465Y-30195643D01*
X7677750Y-30167071D01*
X7677750Y-30109929D01*
X7663465Y-30081357D01*
X7649179Y-30067071D01*
X7620607Y-30052786D01*
X8034893Y-30224214D02*
X8034893Y-29924214D01*
X8163465Y-30224214D02*
X8163465Y-30067071D01*
X8149179Y-30038500D01*
X8120607Y-30024214D01*
X8077750Y-30024214D01*
X8049179Y-30038500D01*
X8034893Y-30052786D01*
X8349179Y-30224214D02*
X8320607Y-30209929D01*
X8306322Y-30195643D01*
X8292036Y-30167071D01*
X8292036Y-30081357D01*
X8306322Y-30052786D01*
X8320607Y-30038500D01*
X8349179Y-30024214D01*
X8392036Y-30024214D01*
X8420608Y-30038500D01*
X8434893Y-30052786D01*
X8449179Y-30081357D01*
X8449179Y-30167071D01*
X8434893Y-30195643D01*
X8420608Y-30209929D01*
X8392036Y-30224214D01*
X8349179Y-30224214D01*
X8620608Y-30224214D02*
X8592036Y-30209929D01*
X8577750Y-30181357D01*
X8577750Y-29924214D01*
X8849179Y-30209929D02*
X8820608Y-30224214D01*
X8763465Y-30224214D01*
X8734893Y-30209929D01*
X8720608Y-30181357D01*
X8720608Y-30067071D01*
X8734893Y-30038500D01*
X8763465Y-30024214D01*
X8820608Y-30024214D01*
X8849179Y-30038500D01*
X8863465Y-30067071D01*
X8863465Y-30095643D01*
X8720608Y-30124214D01*
X8977750Y-30209929D02*
X9006322Y-30224214D01*
X9063465Y-30224214D01*
X9092036Y-30209929D01*
X9106322Y-30181357D01*
X9106322Y-30167071D01*
X9092036Y-30138500D01*
X9063465Y-30124214D01*
X9020608Y-30124214D01*
X8992036Y-30109929D01*
X8977750Y-30081357D01*
X8977750Y-30067071D01*
X8992036Y-30038500D01*
X9020608Y-30024214D01*
X9063465Y-30024214D01*
X9092036Y-30038500D01*
X9206322Y-30338500D02*
X9220608Y-30324214D01*
X9249179Y-30281357D01*
X9263465Y-30252786D01*
X9277750Y-30209929D01*
X9292036Y-30138500D01*
X9292036Y-30081357D01*
X9277750Y-30009929D01*
X9263465Y-29967071D01*
X9249179Y-29938500D01*
X9220608Y-29895643D01*
X9206322Y-29881357D01*
M02*
