M48
; DRILL file {KiCad (5.1.4)-1} date 12/29/2023 1:03:52 PM
; FORMAT={-:-/ absolute / metric / decimal}
; #@! TF.CreationDate,2023-12-29T13:03:52-05:00
; #@! TF.GenerationSoftware,Kicad,Pcbnew,(5.1.4)-1
; #@! TF.FileFunction,Plated,1,2,PTH
FMAT,2
METRIC
T1C0.400
T2C1.000
T3C1.270
%
G90
G05
T1
X44.61Y-210.17
X51.3Y-193.82
X56.74Y-230.44
X57.78Y-177.53
X60.36Y-221.13
X61.5Y-235.95
X62.51Y-234.51
X66.93Y-204.47
X73.44Y-188.0
X79.42Y-223.38
X85.95Y-206.79
X92.39Y-190.28
X104.93Y-209.09
X110.41Y-192.18
X189.47Y-198.523
X196.2Y-214.93
X201.375Y-227.165
X213.1Y-198.05
X219.532Y-213.07
X220.495Y-224.995
X226.46Y-196.993
X239.44Y-211.53
X239.635Y-222.745
X240.264Y-231.944
X240.347Y-234.713
X242.52Y-229.77
X243.467Y-231.914
X249.785Y-188.785
X254.439Y-201.419
X259.206Y-218.476
X267.677Y-208.394
T2
X103.02Y-228.685
X105.375Y-229.637
X107.73Y-230.588
X110.085Y-231.54
X190.35Y-232.89
X192.705Y-231.938
X195.06Y-230.987
X197.415Y-230.035
X244.77Y-234.713
X245.721Y-237.068
X246.673Y-239.423
X247.624Y-241.778
X52.782Y-241.97
X53.733Y-239.615
X54.685Y-237.26
X55.636Y-234.905
X183.85Y-216.39
X186.205Y-215.438
X188.56Y-214.487
X190.915Y-213.535
X109.835Y-212.685
X112.19Y-213.637
X114.545Y-214.588
X116.9Y-215.54
X194.958Y-278.428
X196.987Y-276.899
X199.015Y-275.371
X201.044Y-273.842
X98.984Y-273.903
X101.012Y-275.432
X103.041Y-276.96
X105.07Y-278.489
X176.236Y-199.092
X178.591Y-198.141
X180.946Y-197.189
X183.301Y-196.238
X116.392Y-196.379
X118.747Y-197.331
X121.103Y-198.282
X123.458Y-199.234
T3
X220.841Y-199.513
X226.264Y-199.588
X227.397Y-215.739
X232.82Y-215.813
X201.815Y-201.808
X207.238Y-201.882
X214.286Y-183.288
X219.708Y-183.362
X208.371Y-218.033
X213.794Y-218.108
X64.268Y-222.883
X68.118Y-226.703
X58.354Y-188.138
X62.203Y-191.958
X262.077Y-202.806
X267.5Y-202.88
X77.38Y-190.432
X81.229Y-194.252
X83.294Y-225.178
X87.144Y-228.998
X96.406Y-192.726
X100.255Y-196.546
X70.824Y-206.658
X74.673Y-210.478
X239.867Y-197.219
X245.29Y-197.293
X195.26Y-185.582
X200.682Y-185.656
X42.699Y-177.499
X46.548Y-181.319
X36.144Y-193.724
X39.993Y-197.544
X255.522Y-186.58
X260.944Y-186.654
X233.312Y-180.993
X238.734Y-181.067
X246.423Y-213.445
X251.845Y-213.519
X51.798Y-204.363
X55.647Y-208.183
X45.242Y-220.589
X49.092Y-224.409
X248.966Y-170.354
X254.389Y-170.429
X89.85Y-208.952
X93.699Y-212.772
X29.588Y-209.95
X33.437Y-213.77
T0
M30
