M48
; DRILL file {KiCad (5.1.4)-1} date 12/29/2023 1:03:52 PM
; FORMAT={-:-/ absolute / metric / decimal}
; #@! TF.CreationDate,2023-12-29T13:03:52-05:00
; #@! TF.GenerationSoftware,Kicad,Pcbnew,(5.1.4)-1
; #@! TF.FileFunction,NonPlated,1,2,NPTH
FMAT,2
METRIC
T1C1.702
T2C3.000
T3C3.429
%
G90
G05
T1
X217.952Y-207.044
X228.151Y-202.924
X224.508Y-223.27
X234.707Y-219.149
X198.926Y-209.338
X209.125Y-205.218
X211.396Y-190.818
X221.595Y-186.698
X205.482Y-225.564
X215.681Y-221.444
X65.228Y-219.173
X75.427Y-223.293
X59.314Y-184.427
X69.513Y-188.548
X259.188Y-210.337
X269.387Y-206.216
X78.34Y-186.721
X88.539Y-190.842
X84.254Y-221.467
X94.453Y-225.588
X97.366Y-189.016
X107.565Y-193.136
X71.784Y-202.947
X81.983Y-207.068
X236.978Y-204.75
X247.177Y-200.629
X192.37Y-193.113
X202.569Y-188.992
X43.659Y-173.788
X53.858Y-177.909
X37.104Y-190.014
X47.303Y-194.134
X252.632Y-194.111
X262.831Y-189.99
X230.422Y-188.524
X240.621Y-184.403
X243.534Y-220.976
X253.733Y-216.855
X52.758Y-200.653
X62.957Y-204.773
X46.202Y-216.878
X56.401Y-220.999
X246.077Y-177.885
X256.276Y-173.765
X90.81Y-205.241
X101.009Y-209.362
X30.548Y-206.239
X40.747Y-210.36
T2
X37.876Y-202.783
X41.688Y-206.696
X219.82Y-210.334
X225.28Y-210.501
X226.376Y-226.56
X231.836Y-226.726
X200.794Y-212.628
X206.254Y-212.795
X213.265Y-194.108
X218.725Y-194.275
X207.35Y-228.854
X212.81Y-229.021
X72.557Y-215.716
X76.369Y-219.629
X66.642Y-180.97
X70.454Y-184.883
X261.056Y-213.626
X266.516Y-213.793
X85.668Y-183.265
X89.48Y-187.178
X91.583Y-218.011
X95.394Y-221.923
X104.694Y-185.559
X108.506Y-189.472
X79.112Y-199.491
X82.924Y-203.403
X238.846Y-208.04
X244.306Y-208.206
X194.239Y-196.402
X199.699Y-196.569
X50.988Y-170.332
X54.799Y-174.244
X44.432Y-186.557
X48.244Y-190.47
X254.501Y-197.401
X259.961Y-197.567
X232.291Y-191.814
X237.751Y-191.981
X245.402Y-224.265
X250.862Y-224.432
X60.086Y-197.196
X63.898Y-201.109
X53.531Y-213.422
X57.343Y-217.335
X247.945Y-181.175
X253.405Y-181.342
X98.138Y-201.785
X101.95Y-205.698
T3
X95.909Y-207.302
X35.647Y-208.3
X223.052Y-204.984
X229.607Y-221.21
X204.026Y-207.278
X216.496Y-188.758
X210.581Y-223.504
X70.328Y-221.233
X64.413Y-186.487
X264.288Y-208.276
X83.439Y-188.782
X89.354Y-223.527
X102.465Y-191.076
X76.883Y-205.007
X242.077Y-202.69
X197.47Y-191.052
X48.759Y-175.848
X42.203Y-192.074
X257.732Y-192.051
X235.522Y-186.464
X248.633Y-218.915
X57.858Y-202.713
X51.302Y-218.939
X251.176Y-175.825
T0
M30
