%FSLAX45Y45*%
G04 Gerber Fmt 4.5, Leading zero omitted, Abs format (unit mm)*
G04 Created by KiCad (PCBNEW (5.1.4)-1) date 2023-12-29 13:03:58*
%MOMM*%
%LPD*%
G04 APERTURE LIST*
%ADD10C,0.050000*%
%ADD11C,0.200000*%
%ADD12C,0.300000*%
G04 APERTURE END LIST*
D10*
X5094537Y-24144385D02*
X5360507Y-23486085D01*
X24889689Y-24145789D02*
X24623718Y-23487488D01*
X18318013Y-19359028D02*
X15490102Y-20501579D01*
X11666213Y-19357625D02*
X14494123Y-20500175D01*
X11450000Y-28334000D02*
X10562695Y-28068535D01*
X18520000Y-28334000D02*
X19421531Y-28069938D01*
X11450000Y-28334000D02*
X18520000Y-28334000D01*
X15490102Y-20501579D02*
X15480000Y-20504000D01*
X14494123Y-20500175D02*
X15480000Y-20504000D01*
X26176434Y-21964966D02*
X26157890Y-21972458D01*
X3807791Y-21963563D02*
X3826335Y-21971055D01*
X2436679Y-21086037D02*
X2611724Y-21480320D01*
X4238537Y-16626283D02*
X2436679Y-21086037D01*
X27547546Y-21087441D02*
X27372501Y-21481724D01*
X25745688Y-16627686D02*
X27547546Y-21087441D01*
X11288494Y-18503969D02*
X9754005Y-17883995D01*
X4653330Y-16427168D02*
X7750124Y-17678354D01*
X4037111Y-22503806D02*
X3826335Y-21971055D01*
X4037111Y-22503806D02*
X5145096Y-22951461D01*
X3807791Y-21963563D02*
X2611724Y-21480320D01*
X6032399Y-24652730D02*
X5179390Y-24308092D01*
X9117111Y-18138977D02*
X7860776Y-17631385D01*
X10562695Y-28068535D02*
X6050942Y-24660222D01*
X5094537Y-24144385D02*
X5179390Y-24308092D01*
X11288494Y-18503969D02*
X11666213Y-19357625D01*
X5145096Y-22951461D02*
X5360507Y-23486085D01*
X9117111Y-18138977D02*
X9754005Y-17883995D01*
X4653330Y-16427168D02*
X4238537Y-16626283D01*
X7860776Y-17631385D02*
X7750124Y-17678354D01*
X6032399Y-24652730D02*
X6050942Y-24660222D01*
X23951827Y-24654134D02*
X23933283Y-24661626D01*
X24839130Y-22952864D02*
X24623718Y-23487488D01*
X25330895Y-16428572D02*
X25745688Y-16627686D01*
X22123449Y-17632789D02*
X22234101Y-17679758D01*
X20867115Y-18140381D02*
X20230221Y-17885399D01*
X23951827Y-24654134D02*
X24804836Y-24309496D01*
X19421531Y-28069938D02*
X23933283Y-24661626D01*
X24889689Y-24145789D02*
X24804836Y-24309496D01*
X25330895Y-16428572D02*
X22234101Y-17679758D01*
X26176434Y-21964966D02*
X27372501Y-21481724D01*
X25947114Y-22505209D02*
X26157890Y-21972458D01*
X25947114Y-22505209D02*
X24839130Y-22952864D01*
X18695732Y-18505373D02*
X18318013Y-19359028D01*
X20867115Y-18140381D02*
X22123449Y-17632789D01*
X18695732Y-18505373D02*
X20230221Y-17885399D01*
D11*
X21710110Y-20619327D02*
X21880290Y-20789507D01*
X21880290Y-20619327D02*
X21710110Y-20789507D01*
X22730012Y-20207260D02*
X22900192Y-20377440D01*
X22900192Y-20207260D02*
X22730012Y-20377440D01*
X22365671Y-22241899D02*
X22535851Y-22412079D01*
X22535851Y-22241899D02*
X22365671Y-22412079D01*
X23385573Y-21829832D02*
X23555753Y-22000012D01*
X23555753Y-21829832D02*
X23385573Y-22000012D01*
X19807516Y-20848758D02*
X19977696Y-21018938D01*
X19977696Y-20848758D02*
X19807516Y-21018938D01*
X20827418Y-20436690D02*
X20997598Y-20606870D01*
X20997598Y-20436690D02*
X20827418Y-20606870D01*
X21054548Y-18996756D02*
X21224728Y-19166936D01*
X21224728Y-18996756D02*
X21054548Y-19166936D01*
X22074450Y-18584688D02*
X22244630Y-18754868D01*
X22244630Y-18584688D02*
X22074450Y-18754868D01*
X20463078Y-22471329D02*
X20633258Y-22641509D01*
X20633258Y-22471329D02*
X20463078Y-22641509D01*
X21482980Y-22059262D02*
X21653160Y-22229442D01*
X21653160Y-22059262D02*
X21482980Y-22229442D01*
X6437744Y-21832175D02*
X6607924Y-22002355D01*
X6607924Y-21832175D02*
X6437744Y-22002355D01*
X7457646Y-22244242D02*
X7627826Y-22414422D01*
X7627826Y-22244242D02*
X7457646Y-22414422D01*
X5846274Y-18357601D02*
X6016454Y-18527781D01*
X6016454Y-18357601D02*
X5846274Y-18527781D01*
X6866176Y-18769668D02*
X7036356Y-18939848D01*
X7036356Y-18769668D02*
X6866176Y-18939848D01*
X25833712Y-20948573D02*
X26003892Y-21118753D01*
X26003892Y-20948573D02*
X25833712Y-21118753D01*
X26853614Y-20536506D02*
X27023794Y-20706686D01*
X27023794Y-20536506D02*
X26853614Y-20706686D01*
X7748867Y-18587031D02*
X7919047Y-18757211D01*
X7919047Y-18587031D02*
X7748867Y-18757211D01*
X8768769Y-18999098D02*
X8938949Y-19169278D01*
X8938949Y-18999098D02*
X8768769Y-19169278D01*
X8340337Y-22061605D02*
X8510517Y-22231785D01*
X8510517Y-22061605D02*
X8340337Y-22231785D01*
X9360240Y-22473672D02*
X9530420Y-22643852D01*
X9530420Y-22473672D02*
X9360240Y-22643852D01*
X9651461Y-18816461D02*
X9821641Y-18986641D01*
X9821641Y-18816461D02*
X9651461Y-18986641D01*
X10671363Y-19228528D02*
X10841543Y-19398708D01*
X10841543Y-19228528D02*
X10671363Y-19398708D01*
X7093305Y-20209603D02*
X7263485Y-20379783D01*
X7263485Y-20209603D02*
X7093305Y-20379783D01*
X8113208Y-20621670D02*
X8283388Y-20791850D01*
X8283388Y-20621670D02*
X8113208Y-20791850D01*
X23612703Y-20389897D02*
X23782883Y-20560077D01*
X23782883Y-20389897D02*
X23612703Y-20560077D01*
X24632605Y-19977830D02*
X24802785Y-20148010D01*
X24802785Y-19977830D02*
X24632605Y-20148010D01*
X19151955Y-19226186D02*
X19322135Y-19396366D01*
X19322135Y-19226186D02*
X19151955Y-19396366D01*
X20171857Y-18814119D02*
X20342037Y-18984299D01*
X20342037Y-18814119D02*
X20171857Y-18984299D01*
X4280826Y-17293705D02*
X4451006Y-17463885D01*
X4451006Y-17293705D02*
X4280826Y-17463885D01*
X5300728Y-17705772D02*
X5470908Y-17875952D01*
X5470908Y-17705772D02*
X5300728Y-17875952D01*
X3625265Y-18916277D02*
X3795445Y-19086457D01*
X3795445Y-18916277D02*
X3625265Y-19086457D01*
X4645167Y-19328344D02*
X4815347Y-19498524D01*
X4815347Y-19328344D02*
X4645167Y-19498524D01*
X25178150Y-19326001D02*
X25348330Y-19496181D01*
X25348330Y-19326001D02*
X25178150Y-19496181D01*
X26198053Y-18913934D02*
X26368233Y-19084114D01*
X26368233Y-18913934D02*
X26198053Y-19084114D01*
X22957141Y-18767325D02*
X23127321Y-18937505D01*
X23127321Y-18767325D02*
X22957141Y-18937505D01*
X23977044Y-18355258D02*
X24147224Y-18525438D01*
X24147224Y-18355258D02*
X23977044Y-18525438D01*
X24268264Y-22012469D02*
X24438444Y-22182649D01*
X24438444Y-22012469D02*
X24268264Y-22182649D01*
X25288167Y-21600402D02*
X25458347Y-21770582D01*
X25458347Y-21600402D02*
X25288167Y-21770582D01*
X5190712Y-19980172D02*
X5360892Y-20150352D01*
X5360892Y-19980172D02*
X5190712Y-20150352D01*
X6210614Y-20392240D02*
X6380794Y-20562420D01*
X6380794Y-20392240D02*
X6210614Y-20562420D01*
X4535151Y-21602744D02*
X4705331Y-21772924D01*
X4705331Y-21602744D02*
X4535151Y-21772924D01*
X5555053Y-22014811D02*
X5725233Y-22184991D01*
X5725233Y-22014811D02*
X5555053Y-22184991D01*
X24522589Y-17703430D02*
X24692769Y-17873610D01*
X24692769Y-17703430D02*
X24522589Y-17873610D01*
X25542491Y-17291362D02*
X25712671Y-17461542D01*
X25712671Y-17291362D02*
X25542491Y-17461542D01*
X8995899Y-20439033D02*
X9166079Y-20609213D01*
X9166079Y-20439033D02*
X8995899Y-20609213D01*
X10015801Y-20851100D02*
X10185981Y-21021280D01*
X10185981Y-20851100D02*
X10015801Y-21021280D01*
X2969703Y-20538848D02*
X3139883Y-20709028D01*
X3139883Y-20538848D02*
X2969703Y-20709028D01*
X3989605Y-20950916D02*
X4159785Y-21121096D01*
X4159785Y-20950916D02*
X3989605Y-21121096D01*
X3937635Y-20278298D02*
G75*
G03X3937635Y-20278298I-150000J0D01*
G01*
X4318814Y-20669581D02*
G75*
G03X4318814Y-20669581I-150000J0D01*
G01*
X22132036Y-21033381D02*
G75*
G03X22132036Y-21033381I-150000J0D01*
G01*
X22678041Y-21050058D02*
G75*
G03X22678041Y-21050058I-150000J0D01*
G01*
X22787598Y-22655953D02*
G75*
G03X22787598Y-22655953I-150000J0D01*
G01*
X23333603Y-22672630D02*
G75*
G03X23333603Y-22672630I-150000J0D01*
G01*
X20229443Y-21262811D02*
G75*
G03X20229443Y-21262811I-150000J0D01*
G01*
X20775448Y-21279488D02*
G75*
G03X20775448Y-21279488I-150000J0D01*
G01*
X21476475Y-19410809D02*
G75*
G03X21476475Y-19410809I-150000J0D01*
G01*
X22022480Y-19427486D02*
G75*
G03X22022480Y-19427486I-150000J0D01*
G01*
X20885004Y-22885383D02*
G75*
G03X20885004Y-22885383I-150000J0D01*
G01*
X21431010Y-22902060D02*
G75*
G03X21431010Y-22902060I-150000J0D01*
G01*
X7405676Y-21571624D02*
G75*
G03X7405676Y-21571624I-150000J0D01*
G01*
X7786854Y-21962908D02*
G75*
G03X7786854Y-21962908I-150000J0D01*
G01*
X6814206Y-18097050D02*
G75*
G03X6814206Y-18097050I-150000J0D01*
G01*
X7195384Y-18488334D02*
G75*
G03X7195384Y-18488334I-150000J0D01*
G01*
X26255639Y-21362627D02*
G75*
G03X26255639Y-21362627I-150000J0D01*
G01*
X26801644Y-21379304D02*
G75*
G03X26801644Y-21379304I-150000J0D01*
G01*
X8716799Y-18326480D02*
G75*
G03X8716799Y-18326480I-150000J0D01*
G01*
X9097978Y-18717764D02*
G75*
G03X9097978Y-18717764I-150000J0D01*
G01*
X9308269Y-21801054D02*
G75*
G03X9308269Y-21801054I-150000J0D01*
G01*
X9689448Y-22192338D02*
G75*
G03X9689448Y-22192338I-150000J0D01*
G01*
X10619393Y-18555910D02*
G75*
G03X10619393Y-18555910I-150000J0D01*
G01*
X11000571Y-18947194D02*
G75*
G03X11000571Y-18947194I-150000J0D01*
G01*
X8061237Y-19949052D02*
G75*
G03X8061237Y-19949052I-150000J0D01*
G01*
X8442416Y-20340336D02*
G75*
G03X8442416Y-20340336I-150000J0D01*
G01*
X24034630Y-20803951D02*
G75*
G03X24034630Y-20803951I-150000J0D01*
G01*
X24580635Y-20820628D02*
G75*
G03X24580635Y-20820628I-150000J0D01*
G01*
X19573881Y-19640239D02*
G75*
G03X19573881Y-19640239I-150000J0D01*
G01*
X20119887Y-19656917D02*
G75*
G03X20119887Y-19656917I-150000J0D01*
G01*
X5248758Y-17033154D02*
G75*
G03X5248758Y-17033154I-150000J0D01*
G01*
X5629937Y-17424438D02*
G75*
G03X5629937Y-17424438I-150000J0D01*
G01*
X4593197Y-18655726D02*
G75*
G03X4593197Y-18655726I-150000J0D01*
G01*
X4974375Y-19047010D02*
G75*
G03X4974375Y-19047010I-150000J0D01*
G01*
X25600077Y-19740055D02*
G75*
G03X25600077Y-19740055I-150000J0D01*
G01*
X26146082Y-19756732D02*
G75*
G03X26146082Y-19756732I-150000J0D01*
G01*
X23379068Y-19181379D02*
G75*
G03X23379068Y-19181379I-150000J0D01*
G01*
X23925073Y-19198056D02*
G75*
G03X23925073Y-19198056I-150000J0D01*
G01*
X24690191Y-22426522D02*
G75*
G03X24690191Y-22426522I-150000J0D01*
G01*
X25236196Y-22443200D02*
G75*
G03X25236196Y-22443200I-150000J0D01*
G01*
X6158644Y-19719622D02*
G75*
G03X6158644Y-19719622I-150000J0D01*
G01*
X6539823Y-20110905D02*
G75*
G03X6539823Y-20110905I-150000J0D01*
G01*
X5503083Y-21342193D02*
G75*
G03X5503083Y-21342193I-150000J0D01*
G01*
X5884261Y-21733477D02*
G75*
G03X5884261Y-21733477I-150000J0D01*
G01*
X24944515Y-18117483D02*
G75*
G03X24944515Y-18117483I-150000J0D01*
G01*
X25490521Y-18134160D02*
G75*
G03X25490521Y-18134160I-150000J0D01*
G01*
X9963831Y-20178482D02*
G75*
G03X9963831Y-20178482I-150000J0D01*
G01*
X10345009Y-20569766D02*
G75*
G03X10345009Y-20569766I-150000J0D01*
G01*
X9590940Y-20558707D02*
X9590940Y-20901607D01*
X9419490Y-20730157D02*
X9762390Y-20730157D01*
X3564744Y-20658522D02*
X3564744Y-21001422D01*
X3393294Y-20829972D02*
X3736194Y-20829972D01*
X22305151Y-20326934D02*
X22305151Y-20669834D01*
X22133701Y-20498384D02*
X22476601Y-20498384D01*
X22960712Y-21949505D02*
X22960712Y-22292405D01*
X22789262Y-22120955D02*
X23132162Y-22120955D01*
X20402557Y-20556364D02*
X20402557Y-20899264D01*
X20231107Y-20727814D02*
X20574007Y-20727814D01*
X21649589Y-18704362D02*
X21649589Y-19047262D01*
X21478139Y-18875812D02*
X21821039Y-18875812D01*
X21058119Y-22178936D02*
X21058119Y-22521836D01*
X20886669Y-22350386D02*
X21229569Y-22350386D01*
X7032785Y-21951848D02*
X7032785Y-22294748D01*
X6861335Y-22123298D02*
X7204235Y-22123298D01*
X6441315Y-18477274D02*
X6441315Y-18820174D01*
X6269865Y-18648724D02*
X6612765Y-18648724D01*
X26428753Y-20656179D02*
X26428753Y-20999079D01*
X26257303Y-20827629D02*
X26600203Y-20827629D01*
X8343908Y-18706705D02*
X8343908Y-19049605D01*
X8172458Y-18878155D02*
X8515358Y-18878155D01*
X8935379Y-22181278D02*
X8935379Y-22524178D01*
X8763929Y-22352728D02*
X9106829Y-22352728D01*
X10246502Y-18936135D02*
X10246502Y-19279035D01*
X10075052Y-19107585D02*
X10417952Y-19107585D01*
X7688347Y-20329276D02*
X7688347Y-20672176D01*
X7516897Y-20500726D02*
X7859797Y-20500726D01*
X24207744Y-20097503D02*
X24207744Y-20440403D01*
X24036294Y-20268953D02*
X24379194Y-20268953D01*
X19746996Y-18933792D02*
X19746996Y-19276692D01*
X19575546Y-19105242D02*
X19918446Y-19105242D01*
X4875867Y-17413379D02*
X4875867Y-17756279D01*
X4704417Y-17584829D02*
X5047317Y-17584829D01*
X4220306Y-19035950D02*
X4220306Y-19378850D01*
X4048856Y-19207400D02*
X4391756Y-19207400D01*
X25773191Y-19033608D02*
X25773191Y-19376508D01*
X25601741Y-19205058D02*
X25944641Y-19205058D01*
X23552182Y-18474932D02*
X23552182Y-18817832D01*
X23380732Y-18646382D02*
X23723632Y-18646382D01*
X24863306Y-21720075D02*
X24863306Y-22062975D01*
X24691856Y-21891525D02*
X25034756Y-21891525D01*
X5785753Y-20099846D02*
X5785753Y-20442746D01*
X5614303Y-20271296D02*
X5957203Y-20271296D01*
X5130192Y-21722418D02*
X5130192Y-22065318D01*
X4958742Y-21893868D02*
X5301642Y-21893868D01*
X25117630Y-17411036D02*
X25117630Y-17753936D01*
X24946180Y-17582486D02*
X25289080Y-17582486D01*
D12*
X2720608Y-28802214D02*
X2720608Y-28502214D01*
X2792036Y-28502214D01*
X2834893Y-28516500D01*
X2863465Y-28545071D01*
X2877750Y-28573643D01*
X2892036Y-28630786D01*
X2892036Y-28673643D01*
X2877750Y-28730786D01*
X2863465Y-28759357D01*
X2834893Y-28787929D01*
X2792036Y-28802214D01*
X2720608Y-28802214D01*
X3020607Y-28802214D02*
X3020607Y-28602214D01*
X3020607Y-28659357D02*
X3034893Y-28630786D01*
X3049179Y-28616500D01*
X3077750Y-28602214D01*
X3106322Y-28602214D01*
X3206322Y-28802214D02*
X3206322Y-28602214D01*
X3206322Y-28502214D02*
X3192036Y-28516500D01*
X3206322Y-28530786D01*
X3220607Y-28516500D01*
X3206322Y-28502214D01*
X3206322Y-28530786D01*
X3392036Y-28802214D02*
X3363465Y-28787929D01*
X3349179Y-28759357D01*
X3349179Y-28502214D01*
X3549179Y-28802214D02*
X3520607Y-28787929D01*
X3506322Y-28759357D01*
X3506322Y-28502214D01*
X3892036Y-28802214D02*
X3892036Y-28502214D01*
X3992036Y-28716500D01*
X4092036Y-28502214D01*
X4092036Y-28802214D01*
X4363465Y-28802214D02*
X4363465Y-28645071D01*
X4349179Y-28616500D01*
X4320608Y-28602214D01*
X4263465Y-28602214D01*
X4234893Y-28616500D01*
X4363465Y-28787929D02*
X4334893Y-28802214D01*
X4263465Y-28802214D01*
X4234893Y-28787929D01*
X4220608Y-28759357D01*
X4220608Y-28730786D01*
X4234893Y-28702214D01*
X4263465Y-28687929D01*
X4334893Y-28687929D01*
X4363465Y-28673643D01*
X4506322Y-28602214D02*
X4506322Y-28902214D01*
X4506322Y-28616500D02*
X4534893Y-28602214D01*
X4592036Y-28602214D01*
X4620608Y-28616500D01*
X4634893Y-28630786D01*
X4649179Y-28659357D01*
X4649179Y-28745071D01*
X4634893Y-28773643D01*
X4620608Y-28787929D01*
X4592036Y-28802214D01*
X4534893Y-28802214D01*
X4506322Y-28787929D01*
X4777750Y-28773643D02*
X4792036Y-28787929D01*
X4777750Y-28802214D01*
X4763465Y-28787929D01*
X4777750Y-28773643D01*
X4777750Y-28802214D01*
X4777750Y-28616500D02*
X4792036Y-28630786D01*
X4777750Y-28645071D01*
X4763465Y-28630786D01*
X4777750Y-28616500D01*
X4777750Y-28645071D01*
X2263999Y-29211410D02*
X2434179Y-29381590D01*
X2434179Y-29211410D02*
X2263999Y-29381590D01*
X2877750Y-29432214D02*
X2706322Y-29432214D01*
X2792036Y-29432214D02*
X2792036Y-29132214D01*
X2763465Y-29175071D01*
X2734893Y-29203643D01*
X2706322Y-29217929D01*
X3006322Y-29403643D02*
X3020607Y-29417929D01*
X3006322Y-29432214D01*
X2992036Y-29417929D01*
X3006322Y-29403643D01*
X3006322Y-29432214D01*
X3120607Y-29132214D02*
X3320607Y-29132214D01*
X3192036Y-29432214D01*
X3492036Y-29132214D02*
X3520607Y-29132214D01*
X3549179Y-29146500D01*
X3563465Y-29160786D01*
X3577750Y-29189357D01*
X3592036Y-29246500D01*
X3592036Y-29317929D01*
X3577750Y-29375071D01*
X3563465Y-29403643D01*
X3549179Y-29417929D01*
X3520607Y-29432214D01*
X3492036Y-29432214D01*
X3463465Y-29417929D01*
X3449179Y-29403643D01*
X3434893Y-29375071D01*
X3420607Y-29317929D01*
X3420607Y-29246500D01*
X3434893Y-29189357D01*
X3449179Y-29160786D01*
X3463465Y-29146500D01*
X3492036Y-29132214D01*
X3720607Y-29432214D02*
X3720607Y-29232214D01*
X3720607Y-29260786D02*
X3734893Y-29246500D01*
X3763465Y-29232214D01*
X3806322Y-29232214D01*
X3834893Y-29246500D01*
X3849179Y-29275071D01*
X3849179Y-29432214D01*
X3849179Y-29275071D02*
X3863465Y-29246500D01*
X3892036Y-29232214D01*
X3934893Y-29232214D01*
X3963465Y-29246500D01*
X3977750Y-29275071D01*
X3977750Y-29432214D01*
X4120607Y-29432214D02*
X4120607Y-29232214D01*
X4120607Y-29260786D02*
X4134893Y-29246500D01*
X4163465Y-29232214D01*
X4206322Y-29232214D01*
X4234893Y-29246500D01*
X4249179Y-29275071D01*
X4249179Y-29432214D01*
X4249179Y-29275071D02*
X4263465Y-29246500D01*
X4292036Y-29232214D01*
X4334893Y-29232214D01*
X4363465Y-29246500D01*
X4377750Y-29275071D01*
X4377750Y-29432214D01*
X4963465Y-29117929D02*
X4706322Y-29503643D01*
X5349179Y-29132214D02*
X5377750Y-29132214D01*
X5406322Y-29146500D01*
X5420608Y-29160786D01*
X5434893Y-29189357D01*
X5449179Y-29246500D01*
X5449179Y-29317929D01*
X5434893Y-29375071D01*
X5420608Y-29403643D01*
X5406322Y-29417929D01*
X5377750Y-29432214D01*
X5349179Y-29432214D01*
X5320608Y-29417929D01*
X5306322Y-29403643D01*
X5292036Y-29375071D01*
X5277750Y-29317929D01*
X5277750Y-29246500D01*
X5292036Y-29189357D01*
X5306322Y-29160786D01*
X5320608Y-29146500D01*
X5349179Y-29132214D01*
X5577750Y-29403643D02*
X5592036Y-29417929D01*
X5577750Y-29432214D01*
X5563465Y-29417929D01*
X5577750Y-29403643D01*
X5577750Y-29432214D01*
X5777750Y-29132214D02*
X5806322Y-29132214D01*
X5834893Y-29146500D01*
X5849179Y-29160786D01*
X5863465Y-29189357D01*
X5877750Y-29246500D01*
X5877750Y-29317929D01*
X5863465Y-29375071D01*
X5849179Y-29403643D01*
X5834893Y-29417929D01*
X5806322Y-29432214D01*
X5777750Y-29432214D01*
X5749179Y-29417929D01*
X5734893Y-29403643D01*
X5720607Y-29375071D01*
X5706322Y-29317929D01*
X5706322Y-29246500D01*
X5720607Y-29189357D01*
X5734893Y-29160786D01*
X5749179Y-29146500D01*
X5777750Y-29132214D01*
X6134893Y-29132214D02*
X6077750Y-29132214D01*
X6049179Y-29146500D01*
X6034893Y-29160786D01*
X6006322Y-29203643D01*
X5992036Y-29260786D01*
X5992036Y-29375071D01*
X6006322Y-29403643D01*
X6020607Y-29417929D01*
X6049179Y-29432214D01*
X6106322Y-29432214D01*
X6134893Y-29417929D01*
X6149179Y-29403643D01*
X6163465Y-29375071D01*
X6163465Y-29303643D01*
X6149179Y-29275071D01*
X6134893Y-29260786D01*
X6106322Y-29246500D01*
X6049179Y-29246500D01*
X6020607Y-29260786D01*
X6006322Y-29275071D01*
X5992036Y-29303643D01*
X6263465Y-29132214D02*
X6463465Y-29132214D01*
X6334893Y-29432214D01*
X6563465Y-29132214D02*
X6563465Y-29189357D01*
X6677750Y-29132214D02*
X6677750Y-29189357D01*
X7120607Y-29546500D02*
X7106322Y-29532214D01*
X7077750Y-29489357D01*
X7063465Y-29460786D01*
X7049179Y-29417929D01*
X7034893Y-29346500D01*
X7034893Y-29289357D01*
X7049179Y-29217929D01*
X7063465Y-29175071D01*
X7077750Y-29146500D01*
X7106322Y-29103643D01*
X7120607Y-29089357D01*
X7363465Y-29232214D02*
X7363465Y-29432214D01*
X7292036Y-29117929D02*
X7220607Y-29332214D01*
X7406322Y-29332214D01*
X7563465Y-29260786D02*
X7534893Y-29246500D01*
X7520607Y-29232214D01*
X7506322Y-29203643D01*
X7506322Y-29189357D01*
X7520607Y-29160786D01*
X7534893Y-29146500D01*
X7563465Y-29132214D01*
X7620607Y-29132214D01*
X7649179Y-29146500D01*
X7663465Y-29160786D01*
X7677750Y-29189357D01*
X7677750Y-29203643D01*
X7663465Y-29232214D01*
X7649179Y-29246500D01*
X7620607Y-29260786D01*
X7563465Y-29260786D01*
X7534893Y-29275071D01*
X7520607Y-29289357D01*
X7506322Y-29317929D01*
X7506322Y-29375071D01*
X7520607Y-29403643D01*
X7534893Y-29417929D01*
X7563465Y-29432214D01*
X7620607Y-29432214D01*
X7649179Y-29417929D01*
X7663465Y-29403643D01*
X7677750Y-29375071D01*
X7677750Y-29317929D01*
X7663465Y-29289357D01*
X7649179Y-29275071D01*
X7620607Y-29260786D01*
X8034893Y-29432214D02*
X8034893Y-29132214D01*
X8163465Y-29432214D02*
X8163465Y-29275071D01*
X8149179Y-29246500D01*
X8120607Y-29232214D01*
X8077750Y-29232214D01*
X8049179Y-29246500D01*
X8034893Y-29260786D01*
X8349179Y-29432214D02*
X8320607Y-29417929D01*
X8306322Y-29403643D01*
X8292036Y-29375071D01*
X8292036Y-29289357D01*
X8306322Y-29260786D01*
X8320607Y-29246500D01*
X8349179Y-29232214D01*
X8392036Y-29232214D01*
X8420608Y-29246500D01*
X8434893Y-29260786D01*
X8449179Y-29289357D01*
X8449179Y-29375071D01*
X8434893Y-29403643D01*
X8420608Y-29417929D01*
X8392036Y-29432214D01*
X8349179Y-29432214D01*
X8620608Y-29432214D02*
X8592036Y-29417929D01*
X8577750Y-29389357D01*
X8577750Y-29132214D01*
X8849179Y-29417929D02*
X8820608Y-29432214D01*
X8763465Y-29432214D01*
X8734893Y-29417929D01*
X8720608Y-29389357D01*
X8720608Y-29275071D01*
X8734893Y-29246500D01*
X8763465Y-29232214D01*
X8820608Y-29232214D01*
X8849179Y-29246500D01*
X8863465Y-29275071D01*
X8863465Y-29303643D01*
X8720608Y-29332214D01*
X8977750Y-29417929D02*
X9006322Y-29432214D01*
X9063465Y-29432214D01*
X9092036Y-29417929D01*
X9106322Y-29389357D01*
X9106322Y-29375071D01*
X9092036Y-29346500D01*
X9063465Y-29332214D01*
X9020608Y-29332214D01*
X8992036Y-29317929D01*
X8977750Y-29289357D01*
X8977750Y-29275071D01*
X8992036Y-29246500D01*
X9020608Y-29232214D01*
X9063465Y-29232214D01*
X9092036Y-29246500D01*
X9206322Y-29546500D02*
X9220608Y-29532214D01*
X9249179Y-29489357D01*
X9263465Y-29460786D01*
X9277750Y-29417929D01*
X9292036Y-29346500D01*
X9292036Y-29289357D01*
X9277750Y-29217929D01*
X9263465Y-29175071D01*
X9249179Y-29146500D01*
X9220608Y-29103643D01*
X9206322Y-29089357D01*
X9749179Y-29546500D02*
X9734893Y-29532214D01*
X9706322Y-29489357D01*
X9692036Y-29460786D01*
X9677750Y-29417929D01*
X9663465Y-29346500D01*
X9663465Y-29289357D01*
X9677750Y-29217929D01*
X9692036Y-29175071D01*
X9706322Y-29146500D01*
X9734893Y-29103643D01*
X9749179Y-29089357D01*
X9863465Y-29232214D02*
X9863465Y-29432214D01*
X9863465Y-29260786D02*
X9877750Y-29246500D01*
X9906322Y-29232214D01*
X9949179Y-29232214D01*
X9977750Y-29246500D01*
X9992036Y-29275071D01*
X9992036Y-29432214D01*
X10177750Y-29432214D02*
X10149179Y-29417929D01*
X10134893Y-29403643D01*
X10120608Y-29375071D01*
X10120608Y-29289357D01*
X10134893Y-29260786D01*
X10149179Y-29246500D01*
X10177750Y-29232214D01*
X10220608Y-29232214D01*
X10249179Y-29246500D01*
X10263465Y-29260786D01*
X10277750Y-29289357D01*
X10277750Y-29375071D01*
X10263465Y-29403643D01*
X10249179Y-29417929D01*
X10220608Y-29432214D01*
X10177750Y-29432214D01*
X10363465Y-29232214D02*
X10477750Y-29232214D01*
X10406322Y-29132214D02*
X10406322Y-29389357D01*
X10420608Y-29417929D01*
X10449179Y-29432214D01*
X10477750Y-29432214D01*
X10806322Y-29232214D02*
X10806322Y-29532214D01*
X10806322Y-29246500D02*
X10834893Y-29232214D01*
X10892036Y-29232214D01*
X10920608Y-29246500D01*
X10934893Y-29260786D01*
X10949179Y-29289357D01*
X10949179Y-29375071D01*
X10934893Y-29403643D01*
X10920608Y-29417929D01*
X10892036Y-29432214D01*
X10834893Y-29432214D01*
X10806322Y-29417929D01*
X11120608Y-29432214D02*
X11092036Y-29417929D01*
X11077750Y-29389357D01*
X11077750Y-29132214D01*
X11363465Y-29432214D02*
X11363465Y-29275071D01*
X11349179Y-29246500D01*
X11320607Y-29232214D01*
X11263465Y-29232214D01*
X11234893Y-29246500D01*
X11363465Y-29417929D02*
X11334893Y-29432214D01*
X11263465Y-29432214D01*
X11234893Y-29417929D01*
X11220607Y-29389357D01*
X11220607Y-29360786D01*
X11234893Y-29332214D01*
X11263465Y-29317929D01*
X11334893Y-29317929D01*
X11363465Y-29303643D01*
X11463465Y-29232214D02*
X11577750Y-29232214D01*
X11506322Y-29132214D02*
X11506322Y-29389357D01*
X11520607Y-29417929D01*
X11549179Y-29432214D01*
X11577750Y-29432214D01*
X11792036Y-29417929D02*
X11763465Y-29432214D01*
X11706322Y-29432214D01*
X11677750Y-29417929D01*
X11663465Y-29389357D01*
X11663465Y-29275071D01*
X11677750Y-29246500D01*
X11706322Y-29232214D01*
X11763465Y-29232214D01*
X11792036Y-29246500D01*
X11806322Y-29275071D01*
X11806322Y-29303643D01*
X11663465Y-29332214D01*
X12063465Y-29432214D02*
X12063465Y-29132214D01*
X12063465Y-29417929D02*
X12034893Y-29432214D01*
X11977750Y-29432214D01*
X11949179Y-29417929D01*
X11934893Y-29403643D01*
X11920607Y-29375071D01*
X11920607Y-29289357D01*
X11934893Y-29260786D01*
X11949179Y-29246500D01*
X11977750Y-29232214D01*
X12034893Y-29232214D01*
X12063465Y-29246500D01*
X12177750Y-29546500D02*
X12192036Y-29532214D01*
X12220607Y-29489357D01*
X12234893Y-29460786D01*
X12249179Y-29417929D01*
X12263465Y-29346500D01*
X12263465Y-29289357D01*
X12249179Y-29217929D01*
X12234893Y-29175071D01*
X12220607Y-29146500D01*
X12192036Y-29103643D01*
X12177750Y-29089357D01*
X2434179Y-29692500D02*
G75*
G03X2434179Y-29692500I-150000J0D01*
G01*
X2692036Y-29528214D02*
X2877750Y-29528214D01*
X2777750Y-29642500D01*
X2820607Y-29642500D01*
X2849179Y-29656786D01*
X2863465Y-29671071D01*
X2877750Y-29699643D01*
X2877750Y-29771071D01*
X2863465Y-29799643D01*
X2849179Y-29813929D01*
X2820607Y-29828214D01*
X2734893Y-29828214D01*
X2706322Y-29813929D01*
X2692036Y-29799643D01*
X3006322Y-29799643D02*
X3020607Y-29813929D01*
X3006322Y-29828214D01*
X2992036Y-29813929D01*
X3006322Y-29799643D01*
X3006322Y-29828214D01*
X3206322Y-29528214D02*
X3234893Y-29528214D01*
X3263465Y-29542500D01*
X3277750Y-29556786D01*
X3292036Y-29585357D01*
X3306322Y-29642500D01*
X3306322Y-29713929D01*
X3292036Y-29771071D01*
X3277750Y-29799643D01*
X3263465Y-29813929D01*
X3234893Y-29828214D01*
X3206322Y-29828214D01*
X3177750Y-29813929D01*
X3163465Y-29799643D01*
X3149179Y-29771071D01*
X3134893Y-29713929D01*
X3134893Y-29642500D01*
X3149179Y-29585357D01*
X3163465Y-29556786D01*
X3177750Y-29542500D01*
X3206322Y-29528214D01*
X3492036Y-29528214D02*
X3520607Y-29528214D01*
X3549179Y-29542500D01*
X3563465Y-29556786D01*
X3577750Y-29585357D01*
X3592036Y-29642500D01*
X3592036Y-29713929D01*
X3577750Y-29771071D01*
X3563465Y-29799643D01*
X3549179Y-29813929D01*
X3520607Y-29828214D01*
X3492036Y-29828214D01*
X3463465Y-29813929D01*
X3449179Y-29799643D01*
X3434893Y-29771071D01*
X3420607Y-29713929D01*
X3420607Y-29642500D01*
X3434893Y-29585357D01*
X3449179Y-29556786D01*
X3463465Y-29542500D01*
X3492036Y-29528214D01*
X3720607Y-29828214D02*
X3720607Y-29628214D01*
X3720607Y-29656786D02*
X3734893Y-29642500D01*
X3763465Y-29628214D01*
X3806322Y-29628214D01*
X3834893Y-29642500D01*
X3849179Y-29671071D01*
X3849179Y-29828214D01*
X3849179Y-29671071D02*
X3863465Y-29642500D01*
X3892036Y-29628214D01*
X3934893Y-29628214D01*
X3963465Y-29642500D01*
X3977750Y-29671071D01*
X3977750Y-29828214D01*
X4120607Y-29828214D02*
X4120607Y-29628214D01*
X4120607Y-29656786D02*
X4134893Y-29642500D01*
X4163465Y-29628214D01*
X4206322Y-29628214D01*
X4234893Y-29642500D01*
X4249179Y-29671071D01*
X4249179Y-29828214D01*
X4249179Y-29671071D02*
X4263465Y-29642500D01*
X4292036Y-29628214D01*
X4334893Y-29628214D01*
X4363465Y-29642500D01*
X4377750Y-29671071D01*
X4377750Y-29828214D01*
X4963465Y-29513929D02*
X4706322Y-29899643D01*
X5349179Y-29528214D02*
X5377750Y-29528214D01*
X5406322Y-29542500D01*
X5420608Y-29556786D01*
X5434893Y-29585357D01*
X5449179Y-29642500D01*
X5449179Y-29713929D01*
X5434893Y-29771071D01*
X5420608Y-29799643D01*
X5406322Y-29813929D01*
X5377750Y-29828214D01*
X5349179Y-29828214D01*
X5320608Y-29813929D01*
X5306322Y-29799643D01*
X5292036Y-29771071D01*
X5277750Y-29713929D01*
X5277750Y-29642500D01*
X5292036Y-29585357D01*
X5306322Y-29556786D01*
X5320608Y-29542500D01*
X5349179Y-29528214D01*
X5577750Y-29799643D02*
X5592036Y-29813929D01*
X5577750Y-29828214D01*
X5563465Y-29813929D01*
X5577750Y-29799643D01*
X5577750Y-29828214D01*
X5877750Y-29828214D02*
X5706322Y-29828214D01*
X5792036Y-29828214D02*
X5792036Y-29528214D01*
X5763465Y-29571071D01*
X5734893Y-29599643D01*
X5706322Y-29613929D01*
X6163465Y-29828214D02*
X5992036Y-29828214D01*
X6077750Y-29828214D02*
X6077750Y-29528214D01*
X6049179Y-29571071D01*
X6020607Y-29599643D01*
X5992036Y-29613929D01*
X6334893Y-29656786D02*
X6306322Y-29642500D01*
X6292036Y-29628214D01*
X6277750Y-29599643D01*
X6277750Y-29585357D01*
X6292036Y-29556786D01*
X6306322Y-29542500D01*
X6334893Y-29528214D01*
X6392036Y-29528214D01*
X6420607Y-29542500D01*
X6434893Y-29556786D01*
X6449179Y-29585357D01*
X6449179Y-29599643D01*
X6434893Y-29628214D01*
X6420607Y-29642500D01*
X6392036Y-29656786D01*
X6334893Y-29656786D01*
X6306322Y-29671071D01*
X6292036Y-29685357D01*
X6277750Y-29713929D01*
X6277750Y-29771071D01*
X6292036Y-29799643D01*
X6306322Y-29813929D01*
X6334893Y-29828214D01*
X6392036Y-29828214D01*
X6420607Y-29813929D01*
X6434893Y-29799643D01*
X6449179Y-29771071D01*
X6449179Y-29713929D01*
X6434893Y-29685357D01*
X6420607Y-29671071D01*
X6392036Y-29656786D01*
X6563465Y-29528214D02*
X6563465Y-29585357D01*
X6677750Y-29528214D02*
X6677750Y-29585357D01*
X7120607Y-29942500D02*
X7106322Y-29928214D01*
X7077750Y-29885357D01*
X7063465Y-29856786D01*
X7049179Y-29813929D01*
X7034893Y-29742500D01*
X7034893Y-29685357D01*
X7049179Y-29613929D01*
X7063465Y-29571071D01*
X7077750Y-29542500D01*
X7106322Y-29499643D01*
X7120607Y-29485357D01*
X7363465Y-29628214D02*
X7363465Y-29828214D01*
X7292036Y-29513929D02*
X7220607Y-29728214D01*
X7406322Y-29728214D01*
X7563465Y-29656786D02*
X7534893Y-29642500D01*
X7520607Y-29628214D01*
X7506322Y-29599643D01*
X7506322Y-29585357D01*
X7520607Y-29556786D01*
X7534893Y-29542500D01*
X7563465Y-29528214D01*
X7620607Y-29528214D01*
X7649179Y-29542500D01*
X7663465Y-29556786D01*
X7677750Y-29585357D01*
X7677750Y-29599643D01*
X7663465Y-29628214D01*
X7649179Y-29642500D01*
X7620607Y-29656786D01*
X7563465Y-29656786D01*
X7534893Y-29671071D01*
X7520607Y-29685357D01*
X7506322Y-29713929D01*
X7506322Y-29771071D01*
X7520607Y-29799643D01*
X7534893Y-29813929D01*
X7563465Y-29828214D01*
X7620607Y-29828214D01*
X7649179Y-29813929D01*
X7663465Y-29799643D01*
X7677750Y-29771071D01*
X7677750Y-29713929D01*
X7663465Y-29685357D01*
X7649179Y-29671071D01*
X7620607Y-29656786D01*
X8034893Y-29828214D02*
X8034893Y-29528214D01*
X8163465Y-29828214D02*
X8163465Y-29671071D01*
X8149179Y-29642500D01*
X8120607Y-29628214D01*
X8077750Y-29628214D01*
X8049179Y-29642500D01*
X8034893Y-29656786D01*
X8349179Y-29828214D02*
X8320607Y-29813929D01*
X8306322Y-29799643D01*
X8292036Y-29771071D01*
X8292036Y-29685357D01*
X8306322Y-29656786D01*
X8320607Y-29642500D01*
X8349179Y-29628214D01*
X8392036Y-29628214D01*
X8420608Y-29642500D01*
X8434893Y-29656786D01*
X8449179Y-29685357D01*
X8449179Y-29771071D01*
X8434893Y-29799643D01*
X8420608Y-29813929D01*
X8392036Y-29828214D01*
X8349179Y-29828214D01*
X8620608Y-29828214D02*
X8592036Y-29813929D01*
X8577750Y-29785357D01*
X8577750Y-29528214D01*
X8849179Y-29813929D02*
X8820608Y-29828214D01*
X8763465Y-29828214D01*
X8734893Y-29813929D01*
X8720608Y-29785357D01*
X8720608Y-29671071D01*
X8734893Y-29642500D01*
X8763465Y-29628214D01*
X8820608Y-29628214D01*
X8849179Y-29642500D01*
X8863465Y-29671071D01*
X8863465Y-29699643D01*
X8720608Y-29728214D01*
X8977750Y-29813929D02*
X9006322Y-29828214D01*
X9063465Y-29828214D01*
X9092036Y-29813929D01*
X9106322Y-29785357D01*
X9106322Y-29771071D01*
X9092036Y-29742500D01*
X9063465Y-29728214D01*
X9020608Y-29728214D01*
X8992036Y-29713929D01*
X8977750Y-29685357D01*
X8977750Y-29671071D01*
X8992036Y-29642500D01*
X9020608Y-29628214D01*
X9063465Y-29628214D01*
X9092036Y-29642500D01*
X9206322Y-29942500D02*
X9220608Y-29928214D01*
X9249179Y-29885357D01*
X9263465Y-29856786D01*
X9277750Y-29813929D01*
X9292036Y-29742500D01*
X9292036Y-29685357D01*
X9277750Y-29613929D01*
X9263465Y-29571071D01*
X9249179Y-29542500D01*
X9220608Y-29499643D01*
X9206322Y-29485357D01*
X9749179Y-29942500D02*
X9734893Y-29928214D01*
X9706322Y-29885357D01*
X9692036Y-29856786D01*
X9677750Y-29813929D01*
X9663465Y-29742500D01*
X9663465Y-29685357D01*
X9677750Y-29613929D01*
X9692036Y-29571071D01*
X9706322Y-29542500D01*
X9734893Y-29499643D01*
X9749179Y-29485357D01*
X9863465Y-29628214D02*
X9863465Y-29828214D01*
X9863465Y-29656786D02*
X9877750Y-29642500D01*
X9906322Y-29628214D01*
X9949179Y-29628214D01*
X9977750Y-29642500D01*
X9992036Y-29671071D01*
X9992036Y-29828214D01*
X10177750Y-29828214D02*
X10149179Y-29813929D01*
X10134893Y-29799643D01*
X10120608Y-29771071D01*
X10120608Y-29685357D01*
X10134893Y-29656786D01*
X10149179Y-29642500D01*
X10177750Y-29628214D01*
X10220608Y-29628214D01*
X10249179Y-29642500D01*
X10263465Y-29656786D01*
X10277750Y-29685357D01*
X10277750Y-29771071D01*
X10263465Y-29799643D01*
X10249179Y-29813929D01*
X10220608Y-29828214D01*
X10177750Y-29828214D01*
X10363465Y-29628214D02*
X10477750Y-29628214D01*
X10406322Y-29528214D02*
X10406322Y-29785357D01*
X10420608Y-29813929D01*
X10449179Y-29828214D01*
X10477750Y-29828214D01*
X10806322Y-29628214D02*
X10806322Y-29928214D01*
X10806322Y-29642500D02*
X10834893Y-29628214D01*
X10892036Y-29628214D01*
X10920608Y-29642500D01*
X10934893Y-29656786D01*
X10949179Y-29685357D01*
X10949179Y-29771071D01*
X10934893Y-29799643D01*
X10920608Y-29813929D01*
X10892036Y-29828214D01*
X10834893Y-29828214D01*
X10806322Y-29813929D01*
X11120608Y-29828214D02*
X11092036Y-29813929D01*
X11077750Y-29785357D01*
X11077750Y-29528214D01*
X11363465Y-29828214D02*
X11363465Y-29671071D01*
X11349179Y-29642500D01*
X11320607Y-29628214D01*
X11263465Y-29628214D01*
X11234893Y-29642500D01*
X11363465Y-29813929D02*
X11334893Y-29828214D01*
X11263465Y-29828214D01*
X11234893Y-29813929D01*
X11220607Y-29785357D01*
X11220607Y-29756786D01*
X11234893Y-29728214D01*
X11263465Y-29713929D01*
X11334893Y-29713929D01*
X11363465Y-29699643D01*
X11463465Y-29628214D02*
X11577750Y-29628214D01*
X11506322Y-29528214D02*
X11506322Y-29785357D01*
X11520607Y-29813929D01*
X11549179Y-29828214D01*
X11577750Y-29828214D01*
X11792036Y-29813929D02*
X11763465Y-29828214D01*
X11706322Y-29828214D01*
X11677750Y-29813929D01*
X11663465Y-29785357D01*
X11663465Y-29671071D01*
X11677750Y-29642500D01*
X11706322Y-29628214D01*
X11763465Y-29628214D01*
X11792036Y-29642500D01*
X11806322Y-29671071D01*
X11806322Y-29699643D01*
X11663465Y-29728214D01*
X12063465Y-29828214D02*
X12063465Y-29528214D01*
X12063465Y-29813929D02*
X12034893Y-29828214D01*
X11977750Y-29828214D01*
X11949179Y-29813929D01*
X11934893Y-29799643D01*
X11920607Y-29771071D01*
X11920607Y-29685357D01*
X11934893Y-29656786D01*
X11949179Y-29642500D01*
X11977750Y-29628214D01*
X12034893Y-29628214D01*
X12063465Y-29642500D01*
X12177750Y-29942500D02*
X12192036Y-29928214D01*
X12220607Y-29885357D01*
X12234893Y-29856786D01*
X12249179Y-29813929D01*
X12263465Y-29742500D01*
X12263465Y-29685357D01*
X12249179Y-29613929D01*
X12234893Y-29571071D01*
X12220607Y-29542500D01*
X12192036Y-29499643D01*
X12177750Y-29485357D01*
X2262729Y-29951050D02*
X2262729Y-30293950D01*
X2091279Y-30122500D02*
X2434179Y-30122500D01*
X2692036Y-29958214D02*
X2877750Y-29958214D01*
X2777750Y-30072500D01*
X2820607Y-30072500D01*
X2849179Y-30086786D01*
X2863465Y-30101071D01*
X2877750Y-30129643D01*
X2877750Y-30201071D01*
X2863465Y-30229643D01*
X2849179Y-30243929D01*
X2820607Y-30258214D01*
X2734893Y-30258214D01*
X2706322Y-30243929D01*
X2692036Y-30229643D01*
X3006322Y-30229643D02*
X3020607Y-30243929D01*
X3006322Y-30258214D01*
X2992036Y-30243929D01*
X3006322Y-30229643D01*
X3006322Y-30258214D01*
X3277750Y-30058214D02*
X3277750Y-30258214D01*
X3206322Y-29943929D02*
X3134893Y-30158214D01*
X3320607Y-30158214D01*
X3406322Y-29958214D02*
X3592036Y-29958214D01*
X3492036Y-30072500D01*
X3534893Y-30072500D01*
X3563465Y-30086786D01*
X3577750Y-30101071D01*
X3592036Y-30129643D01*
X3592036Y-30201071D01*
X3577750Y-30229643D01*
X3563465Y-30243929D01*
X3534893Y-30258214D01*
X3449179Y-30258214D01*
X3420607Y-30243929D01*
X3406322Y-30229643D01*
X3720607Y-30258214D02*
X3720607Y-30058214D01*
X3720607Y-30086786D02*
X3734893Y-30072500D01*
X3763465Y-30058214D01*
X3806322Y-30058214D01*
X3834893Y-30072500D01*
X3849179Y-30101071D01*
X3849179Y-30258214D01*
X3849179Y-30101071D02*
X3863465Y-30072500D01*
X3892036Y-30058214D01*
X3934893Y-30058214D01*
X3963465Y-30072500D01*
X3977750Y-30101071D01*
X3977750Y-30258214D01*
X4120607Y-30258214D02*
X4120607Y-30058214D01*
X4120607Y-30086786D02*
X4134893Y-30072500D01*
X4163465Y-30058214D01*
X4206322Y-30058214D01*
X4234893Y-30072500D01*
X4249179Y-30101071D01*
X4249179Y-30258214D01*
X4249179Y-30101071D02*
X4263465Y-30072500D01*
X4292036Y-30058214D01*
X4334893Y-30058214D01*
X4363465Y-30072500D01*
X4377750Y-30101071D01*
X4377750Y-30258214D01*
X4963465Y-29943929D02*
X4706322Y-30329643D01*
X5349179Y-29958214D02*
X5377750Y-29958214D01*
X5406322Y-29972500D01*
X5420608Y-29986786D01*
X5434893Y-30015357D01*
X5449179Y-30072500D01*
X5449179Y-30143929D01*
X5434893Y-30201071D01*
X5420608Y-30229643D01*
X5406322Y-30243929D01*
X5377750Y-30258214D01*
X5349179Y-30258214D01*
X5320608Y-30243929D01*
X5306322Y-30229643D01*
X5292036Y-30201071D01*
X5277750Y-30143929D01*
X5277750Y-30072500D01*
X5292036Y-30015357D01*
X5306322Y-29986786D01*
X5320608Y-29972500D01*
X5349179Y-29958214D01*
X5577750Y-30229643D02*
X5592036Y-30243929D01*
X5577750Y-30258214D01*
X5563465Y-30243929D01*
X5577750Y-30229643D01*
X5577750Y-30258214D01*
X5877750Y-30258214D02*
X5706322Y-30258214D01*
X5792036Y-30258214D02*
X5792036Y-29958214D01*
X5763465Y-30001071D01*
X5734893Y-30029643D01*
X5706322Y-30043929D01*
X5977750Y-29958214D02*
X6163465Y-29958214D01*
X6063465Y-30072500D01*
X6106322Y-30072500D01*
X6134893Y-30086786D01*
X6149179Y-30101071D01*
X6163465Y-30129643D01*
X6163465Y-30201071D01*
X6149179Y-30229643D01*
X6134893Y-30243929D01*
X6106322Y-30258214D01*
X6020607Y-30258214D01*
X5992036Y-30243929D01*
X5977750Y-30229643D01*
X6434893Y-29958214D02*
X6292036Y-29958214D01*
X6277750Y-30101071D01*
X6292036Y-30086786D01*
X6320607Y-30072500D01*
X6392036Y-30072500D01*
X6420607Y-30086786D01*
X6434893Y-30101071D01*
X6449179Y-30129643D01*
X6449179Y-30201071D01*
X6434893Y-30229643D01*
X6420607Y-30243929D01*
X6392036Y-30258214D01*
X6320607Y-30258214D01*
X6292036Y-30243929D01*
X6277750Y-30229643D01*
X6563465Y-29958214D02*
X6563465Y-30015357D01*
X6677750Y-29958214D02*
X6677750Y-30015357D01*
X7120607Y-30372500D02*
X7106322Y-30358214D01*
X7077750Y-30315357D01*
X7063465Y-30286786D01*
X7049179Y-30243929D01*
X7034893Y-30172500D01*
X7034893Y-30115357D01*
X7049179Y-30043929D01*
X7063465Y-30001071D01*
X7077750Y-29972500D01*
X7106322Y-29929643D01*
X7120607Y-29915357D01*
X7220607Y-29986786D02*
X7234893Y-29972500D01*
X7263465Y-29958214D01*
X7334893Y-29958214D01*
X7363465Y-29972500D01*
X7377750Y-29986786D01*
X7392036Y-30015357D01*
X7392036Y-30043929D01*
X7377750Y-30086786D01*
X7206322Y-30258214D01*
X7392036Y-30258214D01*
X7649179Y-30058214D02*
X7649179Y-30258214D01*
X7577750Y-29943929D02*
X7506322Y-30158214D01*
X7692036Y-30158214D01*
X8034893Y-30258214D02*
X8034893Y-29958214D01*
X8163465Y-30258214D02*
X8163465Y-30101071D01*
X8149179Y-30072500D01*
X8120607Y-30058214D01*
X8077750Y-30058214D01*
X8049179Y-30072500D01*
X8034893Y-30086786D01*
X8349179Y-30258214D02*
X8320607Y-30243929D01*
X8306322Y-30229643D01*
X8292036Y-30201071D01*
X8292036Y-30115357D01*
X8306322Y-30086786D01*
X8320607Y-30072500D01*
X8349179Y-30058214D01*
X8392036Y-30058214D01*
X8420608Y-30072500D01*
X8434893Y-30086786D01*
X8449179Y-30115357D01*
X8449179Y-30201071D01*
X8434893Y-30229643D01*
X8420608Y-30243929D01*
X8392036Y-30258214D01*
X8349179Y-30258214D01*
X8620608Y-30258214D02*
X8592036Y-30243929D01*
X8577750Y-30215357D01*
X8577750Y-29958214D01*
X8849179Y-30243929D02*
X8820608Y-30258214D01*
X8763465Y-30258214D01*
X8734893Y-30243929D01*
X8720608Y-30215357D01*
X8720608Y-30101071D01*
X8734893Y-30072500D01*
X8763465Y-30058214D01*
X8820608Y-30058214D01*
X8849179Y-30072500D01*
X8863465Y-30101071D01*
X8863465Y-30129643D01*
X8720608Y-30158214D01*
X8977750Y-30243929D02*
X9006322Y-30258214D01*
X9063465Y-30258214D01*
X9092036Y-30243929D01*
X9106322Y-30215357D01*
X9106322Y-30201071D01*
X9092036Y-30172500D01*
X9063465Y-30158214D01*
X9020608Y-30158214D01*
X8992036Y-30143929D01*
X8977750Y-30115357D01*
X8977750Y-30101071D01*
X8992036Y-30072500D01*
X9020608Y-30058214D01*
X9063465Y-30058214D01*
X9092036Y-30072500D01*
X9206322Y-30372500D02*
X9220608Y-30358214D01*
X9249179Y-30315357D01*
X9263465Y-30286786D01*
X9277750Y-30243929D01*
X9292036Y-30172500D01*
X9292036Y-30115357D01*
X9277750Y-30043929D01*
X9263465Y-30001071D01*
X9249179Y-29972500D01*
X9220608Y-29929643D01*
X9206322Y-29915357D01*
X9749179Y-30372500D02*
X9734893Y-30358214D01*
X9706322Y-30315357D01*
X9692036Y-30286786D01*
X9677750Y-30243929D01*
X9663465Y-30172500D01*
X9663465Y-30115357D01*
X9677750Y-30043929D01*
X9692036Y-30001071D01*
X9706322Y-29972500D01*
X9734893Y-29929643D01*
X9749179Y-29915357D01*
X9863465Y-30058214D02*
X9863465Y-30258214D01*
X9863465Y-30086786D02*
X9877750Y-30072500D01*
X9906322Y-30058214D01*
X9949179Y-30058214D01*
X9977750Y-30072500D01*
X9992036Y-30101071D01*
X9992036Y-30258214D01*
X10177750Y-30258214D02*
X10149179Y-30243929D01*
X10134893Y-30229643D01*
X10120608Y-30201071D01*
X10120608Y-30115357D01*
X10134893Y-30086786D01*
X10149179Y-30072500D01*
X10177750Y-30058214D01*
X10220608Y-30058214D01*
X10249179Y-30072500D01*
X10263465Y-30086786D01*
X10277750Y-30115357D01*
X10277750Y-30201071D01*
X10263465Y-30229643D01*
X10249179Y-30243929D01*
X10220608Y-30258214D01*
X10177750Y-30258214D01*
X10363465Y-30058214D02*
X10477750Y-30058214D01*
X10406322Y-29958214D02*
X10406322Y-30215357D01*
X10420608Y-30243929D01*
X10449179Y-30258214D01*
X10477750Y-30258214D01*
X10806322Y-30058214D02*
X10806322Y-30358214D01*
X10806322Y-30072500D02*
X10834893Y-30058214D01*
X10892036Y-30058214D01*
X10920608Y-30072500D01*
X10934893Y-30086786D01*
X10949179Y-30115357D01*
X10949179Y-30201071D01*
X10934893Y-30229643D01*
X10920608Y-30243929D01*
X10892036Y-30258214D01*
X10834893Y-30258214D01*
X10806322Y-30243929D01*
X11120608Y-30258214D02*
X11092036Y-30243929D01*
X11077750Y-30215357D01*
X11077750Y-29958214D01*
X11363465Y-30258214D02*
X11363465Y-30101071D01*
X11349179Y-30072500D01*
X11320607Y-30058214D01*
X11263465Y-30058214D01*
X11234893Y-30072500D01*
X11363465Y-30243929D02*
X11334893Y-30258214D01*
X11263465Y-30258214D01*
X11234893Y-30243929D01*
X11220607Y-30215357D01*
X11220607Y-30186786D01*
X11234893Y-30158214D01*
X11263465Y-30143929D01*
X11334893Y-30143929D01*
X11363465Y-30129643D01*
X11463465Y-30058214D02*
X11577750Y-30058214D01*
X11506322Y-29958214D02*
X11506322Y-30215357D01*
X11520607Y-30243929D01*
X11549179Y-30258214D01*
X11577750Y-30258214D01*
X11792036Y-30243929D02*
X11763465Y-30258214D01*
X11706322Y-30258214D01*
X11677750Y-30243929D01*
X11663465Y-30215357D01*
X11663465Y-30101071D01*
X11677750Y-30072500D01*
X11706322Y-30058214D01*
X11763465Y-30058214D01*
X11792036Y-30072500D01*
X11806322Y-30101071D01*
X11806322Y-30129643D01*
X11663465Y-30158214D01*
X12063465Y-30258214D02*
X12063465Y-29958214D01*
X12063465Y-30243929D02*
X12034893Y-30258214D01*
X11977750Y-30258214D01*
X11949179Y-30243929D01*
X11934893Y-30229643D01*
X11920607Y-30201071D01*
X11920607Y-30115357D01*
X11934893Y-30086786D01*
X11949179Y-30072500D01*
X11977750Y-30058214D01*
X12034893Y-30058214D01*
X12063465Y-30072500D01*
X12177750Y-30372500D02*
X12192036Y-30358214D01*
X12220607Y-30315357D01*
X12234893Y-30286786D01*
X12249179Y-30243929D01*
X12263465Y-30172500D01*
X12263465Y-30115357D01*
X12249179Y-30043929D01*
X12234893Y-30001071D01*
X12220607Y-29972500D01*
X12192036Y-29929643D01*
X12177750Y-29915357D01*
M02*
