G04 #@! TF.GenerationSoftware,KiCad,Pcbnew,(5.1.4)-1*
G04 #@! TF.CreationDate,2023-12-29T13:03:47-05:00*
G04 #@! TF.ProjectId,ThumbsUp,5468756d-6273-4557-902e-6b696361645f,rev?*
G04 #@! TF.SameCoordinates,Original*
G04 #@! TF.FileFunction,Profile,NP*
%FSLAX46Y46*%
G04 Gerber Fmt 4.6, Leading zero omitted, Abs format (unit mm)*
G04 Created by KiCad (PCBNEW (5.1.4)-1) date 2023-12-29 13:03:47*
%MOMM*%
%LPD*%
G04 APERTURE LIST*
%ADD10C,0.050000*%
G04 APERTURE END LIST*
D10*
X50945367Y-241443852D02*
X53605074Y-234860847D01*
X248896887Y-241457887D02*
X246237180Y-234874881D01*
X183180126Y-193590284D02*
X154901019Y-205015785D01*
X116662128Y-193576250D02*
X144941235Y-205001751D01*
X114500000Y-283340000D02*
X105626946Y-280685347D01*
X185200000Y-283340000D02*
X194215308Y-280699381D01*
X114500000Y-283340000D02*
X185200000Y-283340000D01*
X154901019Y-205015785D02*
X154800000Y-205040000D01*
X144941235Y-205001751D02*
X154800000Y-205040000D01*
X261764341Y-219649663D02*
X261578904Y-219724584D01*
X38077913Y-219635628D02*
X38263350Y-219710550D01*
X24366791Y-210860371D02*
X26117241Y-214803203D01*
X42385368Y-166262828D02*
X24366791Y-210860371D01*
X275475463Y-210874406D02*
X273725012Y-214817238D01*
X257456885Y-166276862D02*
X275475463Y-210874406D01*
X112884939Y-185039691D02*
X97540046Y-178839951D01*
X46533301Y-164271683D02*
X77501241Y-176783543D01*
X40371109Y-225038059D02*
X38263350Y-219710550D01*
X40371109Y-225038059D02*
X51450956Y-229514607D01*
X38077913Y-219635628D02*
X26117241Y-214803203D01*
X60323988Y-246527303D02*
X51793897Y-243080922D01*
X91171105Y-181389772D02*
X78607763Y-176313853D01*
X105626946Y-280685347D02*
X60509425Y-246602224D01*
X50945367Y-241443852D02*
X51793897Y-243080922D01*
X112884939Y-185039691D02*
X116662128Y-193576250D01*
X51450956Y-229514607D02*
X53605074Y-234860847D01*
X91171105Y-181389772D02*
X97540046Y-178839951D01*
X46533301Y-164271683D02*
X42385368Y-166262828D01*
X78607763Y-176313853D02*
X77501241Y-176783543D01*
X60323988Y-246527303D02*
X60509425Y-246602224D01*
X239518266Y-246541337D02*
X239332829Y-246616259D01*
X248391298Y-229528642D02*
X246237180Y-234874881D01*
X253308953Y-164285718D02*
X257456885Y-166276862D01*
X221234490Y-176327887D02*
X222341012Y-176797578D01*
X208671149Y-181403807D02*
X202302208Y-178853986D01*
X239518266Y-246541337D02*
X248048357Y-243094957D01*
X194215308Y-280699381D02*
X239332829Y-246616259D01*
X248896887Y-241457887D02*
X248048357Y-243094957D01*
X253308953Y-164285718D02*
X222341012Y-176797578D01*
X261764341Y-219649663D02*
X273725012Y-214817238D01*
X259471145Y-225052093D02*
X261578904Y-219724584D01*
X259471145Y-225052093D02*
X248391298Y-229528642D01*
X186957315Y-185053725D02*
X183180126Y-193590284D01*
X208671149Y-181403807D02*
X221234490Y-176327887D01*
X186957315Y-185053725D02*
X202302208Y-178853986D01*
M02*
