G04 #@! TF.GenerationSoftware,KiCad,Pcbnew,(5.1.4)-1*
G04 #@! TF.CreationDate,2023-12-29T15:47:13-05:00*
G04 #@! TF.ProjectId,ThumbsUp,5468756d-6273-4557-902e-6b696361645f,rev?*
G04 #@! TF.SameCoordinates,Original*
G04 #@! TF.FileFunction,Profile,NP*
%FSLAX46Y46*%
G04 Gerber Fmt 4.6, Leading zero omitted, Abs format (unit mm)*
G04 Created by KiCad (PCBNEW (5.1.4)-1) date 2023-12-29 15:47:13*
%MOMM*%
%LPD*%
G04 APERTURE LIST*
%ADD10C,0.050000*%
G04 APERTURE END LIST*
D10*
X146600000Y-67640000D02*
X147394000Y-71758000D01*
X156458765Y-67678249D02*
X155776000Y-71758000D01*
X155776000Y-71758000D02*
X158316000Y-77854000D01*
X145108000Y-77854000D02*
X147394000Y-71758000D01*
X158316000Y-84458000D02*
X158316000Y-77854000D01*
X145108000Y-84458000D02*
X145108000Y-77854000D01*
X158316000Y-84458000D02*
X145108000Y-84458000D01*
X186858765Y-145978249D02*
X195874073Y-143337630D01*
X184838891Y-56228533D02*
X156559784Y-67654034D01*
X116158765Y-145978249D02*
X186858765Y-145978249D01*
X156559784Y-67654034D02*
X156458765Y-67678249D01*
X118320893Y-56214499D02*
X118135456Y-56139577D01*
X116158765Y-145978249D02*
X107285711Y-143323596D01*
X185024328Y-56153612D02*
X184838891Y-56228533D01*
X118320893Y-56214499D02*
X146600000Y-67640000D01*
X227837043Y-96449908D02*
X240632180Y-91280337D01*
X209552856Y-98444525D02*
X221272833Y-93817200D01*
X209552856Y-98444525D02*
X203899899Y-96198622D01*
X241177031Y-109179586D02*
X249707122Y-105733206D01*
X195874073Y-143337630D02*
X240991594Y-109254508D01*
X185024328Y-56153612D02*
X188353725Y-57720492D01*
X250555652Y-104096136D02*
X249707122Y-105733206D01*
X246772125Y-94731579D02*
X240632180Y-91280337D01*
X107285711Y-143323596D02*
X62168190Y-109240473D01*
X246772125Y-94731579D02*
X250555652Y-104096136D01*
X61982753Y-109165552D02*
X62168190Y-109240473D01*
X56387659Y-94717544D02*
X52604132Y-104082101D01*
X81886951Y-93803166D02*
X75322741Y-96435873D01*
X221272833Y-93817200D02*
X227837043Y-96449908D01*
X56387659Y-94717544D02*
X62527604Y-91266302D01*
X75322741Y-96435873D02*
X62527604Y-91266302D01*
X188353725Y-57720492D02*
X203899899Y-96198622D01*
X241177031Y-109179586D02*
X240991594Y-109254508D01*
X93606928Y-98430491D02*
X99259885Y-96184587D01*
X114806059Y-57706457D02*
X99259885Y-96184587D01*
X93606928Y-98430491D02*
X81886951Y-93803166D01*
X52604132Y-104082101D02*
X53452662Y-105719171D01*
X118135456Y-56139577D02*
X114806059Y-57706457D01*
X61982753Y-109165552D02*
X53452662Y-105719171D01*
M02*
