G04 #@! TF.GenerationSoftware,KiCad,Pcbnew,(5.1.4)-1*
G04 #@! TF.CreationDate,2023-12-29T15:47:13-05:00*
G04 #@! TF.ProjectId,ThumbsUp,5468756d-6273-4557-902e-6b696361645f,rev?*
G04 #@! TF.SameCoordinates,Original*
G04 #@! TF.FileFunction,Copper,L2,Bot*
G04 #@! TF.FilePolarity,Positive*
%FSLAX46Y46*%
G04 Gerber Fmt 4.6, Leading zero omitted, Abs format (unit mm)*
G04 Created by KiCad (PCBNEW (5.1.4)-1) date 2023-12-29 15:47:13*
%MOMM*%
%LPD*%
G04 APERTURE LIST*
%ADD10R,1.200000X0.900000*%
%ADD11O,1.700000X1.700000*%
%ADD12R,1.700000X1.700000*%
%ADD13C,1.500000*%
%ADD14C,1.200000*%
%ADD15C,1.300000*%
%ADD16C,1.600000*%
%ADD17R,1.600000X1.600000*%
%ADD18C,0.100000*%
%ADD19C,0.975000*%
%ADD20R,1.800000X1.100000*%
%ADD21C,1.700000*%
%ADD22C,1.700000*%
%ADD23C,2.600000*%
%ADD24C,2.032000*%
%ADD25R,0.900000X1.200000*%
%ADD26C,0.800000*%
%ADD27C,0.508000*%
%ADD28C,0.250000*%
%ADD29C,0.254000*%
G04 APERTURE END LIST*
D10*
X110310000Y-131300000D03*
X110310000Y-128000000D03*
X112710000Y-131300000D03*
X112710000Y-128000000D03*
D11*
X150710000Y-119920000D03*
D12*
X153250000Y-119920000D03*
D13*
X126590000Y-142790000D03*
X134590000Y-142790000D03*
D14*
X128590000Y-142790000D03*
D15*
X130590000Y-142790000D03*
X132590000Y-142790000D03*
D16*
X159332000Y-87252000D03*
X159332000Y-89792000D03*
X159332000Y-92332000D03*
X159332000Y-94872000D03*
X159332000Y-97412000D03*
X159332000Y-99952000D03*
X159332000Y-102492000D03*
X159332000Y-105032000D03*
X159332000Y-107572000D03*
X159332000Y-110112000D03*
X159332000Y-112652000D03*
X159332000Y-115192000D03*
X144092000Y-115192000D03*
X144092000Y-112652000D03*
X144092000Y-110112000D03*
X144092000Y-107572000D03*
X144092000Y-105032000D03*
X144092000Y-102492000D03*
X144092000Y-99952000D03*
X144092000Y-97412000D03*
X144092000Y-94872000D03*
X144092000Y-92332000D03*
X144092000Y-89792000D03*
D17*
X144092000Y-87252000D03*
D18*
G36*
X180270642Y-139893174D02*
G01*
X180294303Y-139896684D01*
X180317507Y-139902496D01*
X180340029Y-139910554D01*
X180361653Y-139920782D01*
X180382170Y-139933079D01*
X180401383Y-139947329D01*
X180419107Y-139963393D01*
X180435171Y-139981117D01*
X180449421Y-140000330D01*
X180461718Y-140020847D01*
X180471946Y-140042471D01*
X180480004Y-140064993D01*
X180485816Y-140088197D01*
X180489326Y-140111858D01*
X180490500Y-140135750D01*
X180490500Y-141048250D01*
X180489326Y-141072142D01*
X180485816Y-141095803D01*
X180480004Y-141119007D01*
X180471946Y-141141529D01*
X180461718Y-141163153D01*
X180449421Y-141183670D01*
X180435171Y-141202883D01*
X180419107Y-141220607D01*
X180401383Y-141236671D01*
X180382170Y-141250921D01*
X180361653Y-141263218D01*
X180340029Y-141273446D01*
X180317507Y-141281504D01*
X180294303Y-141287316D01*
X180270642Y-141290826D01*
X180246750Y-141292000D01*
X179759250Y-141292000D01*
X179735358Y-141290826D01*
X179711697Y-141287316D01*
X179688493Y-141281504D01*
X179665971Y-141273446D01*
X179644347Y-141263218D01*
X179623830Y-141250921D01*
X179604617Y-141236671D01*
X179586893Y-141220607D01*
X179570829Y-141202883D01*
X179556579Y-141183670D01*
X179544282Y-141163153D01*
X179534054Y-141141529D01*
X179525996Y-141119007D01*
X179520184Y-141095803D01*
X179516674Y-141072142D01*
X179515500Y-141048250D01*
X179515500Y-140135750D01*
X179516674Y-140111858D01*
X179520184Y-140088197D01*
X179525996Y-140064993D01*
X179534054Y-140042471D01*
X179544282Y-140020847D01*
X179556579Y-140000330D01*
X179570829Y-139981117D01*
X179586893Y-139963393D01*
X179604617Y-139947329D01*
X179623830Y-139933079D01*
X179644347Y-139920782D01*
X179665971Y-139910554D01*
X179688493Y-139902496D01*
X179711697Y-139896684D01*
X179735358Y-139893174D01*
X179759250Y-139892000D01*
X180246750Y-139892000D01*
X180270642Y-139893174D01*
X180270642Y-139893174D01*
G37*
D19*
X180003000Y-140592000D03*
D18*
G36*
X178395642Y-139893174D02*
G01*
X178419303Y-139896684D01*
X178442507Y-139902496D01*
X178465029Y-139910554D01*
X178486653Y-139920782D01*
X178507170Y-139933079D01*
X178526383Y-139947329D01*
X178544107Y-139963393D01*
X178560171Y-139981117D01*
X178574421Y-140000330D01*
X178586718Y-140020847D01*
X178596946Y-140042471D01*
X178605004Y-140064993D01*
X178610816Y-140088197D01*
X178614326Y-140111858D01*
X178615500Y-140135750D01*
X178615500Y-141048250D01*
X178614326Y-141072142D01*
X178610816Y-141095803D01*
X178605004Y-141119007D01*
X178596946Y-141141529D01*
X178586718Y-141163153D01*
X178574421Y-141183670D01*
X178560171Y-141202883D01*
X178544107Y-141220607D01*
X178526383Y-141236671D01*
X178507170Y-141250921D01*
X178486653Y-141263218D01*
X178465029Y-141273446D01*
X178442507Y-141281504D01*
X178419303Y-141287316D01*
X178395642Y-141290826D01*
X178371750Y-141292000D01*
X177884250Y-141292000D01*
X177860358Y-141290826D01*
X177836697Y-141287316D01*
X177813493Y-141281504D01*
X177790971Y-141273446D01*
X177769347Y-141263218D01*
X177748830Y-141250921D01*
X177729617Y-141236671D01*
X177711893Y-141220607D01*
X177695829Y-141202883D01*
X177681579Y-141183670D01*
X177669282Y-141163153D01*
X177659054Y-141141529D01*
X177650996Y-141119007D01*
X177645184Y-141095803D01*
X177641674Y-141072142D01*
X177640500Y-141048250D01*
X177640500Y-140135750D01*
X177641674Y-140111858D01*
X177645184Y-140088197D01*
X177650996Y-140064993D01*
X177659054Y-140042471D01*
X177669282Y-140020847D01*
X177681579Y-140000330D01*
X177695829Y-139981117D01*
X177711893Y-139963393D01*
X177729617Y-139947329D01*
X177748830Y-139933079D01*
X177769347Y-139920782D01*
X177790971Y-139910554D01*
X177813493Y-139902496D01*
X177836697Y-139896684D01*
X177860358Y-139893174D01*
X177884250Y-139892000D01*
X178371750Y-139892000D01*
X178395642Y-139893174D01*
X178395642Y-139893174D01*
G37*
D19*
X178128000Y-140592000D03*
D18*
G36*
X178395642Y-141925174D02*
G01*
X178419303Y-141928684D01*
X178442507Y-141934496D01*
X178465029Y-141942554D01*
X178486653Y-141952782D01*
X178507170Y-141965079D01*
X178526383Y-141979329D01*
X178544107Y-141995393D01*
X178560171Y-142013117D01*
X178574421Y-142032330D01*
X178586718Y-142052847D01*
X178596946Y-142074471D01*
X178605004Y-142096993D01*
X178610816Y-142120197D01*
X178614326Y-142143858D01*
X178615500Y-142167750D01*
X178615500Y-143080250D01*
X178614326Y-143104142D01*
X178610816Y-143127803D01*
X178605004Y-143151007D01*
X178596946Y-143173529D01*
X178586718Y-143195153D01*
X178574421Y-143215670D01*
X178560171Y-143234883D01*
X178544107Y-143252607D01*
X178526383Y-143268671D01*
X178507170Y-143282921D01*
X178486653Y-143295218D01*
X178465029Y-143305446D01*
X178442507Y-143313504D01*
X178419303Y-143319316D01*
X178395642Y-143322826D01*
X178371750Y-143324000D01*
X177884250Y-143324000D01*
X177860358Y-143322826D01*
X177836697Y-143319316D01*
X177813493Y-143313504D01*
X177790971Y-143305446D01*
X177769347Y-143295218D01*
X177748830Y-143282921D01*
X177729617Y-143268671D01*
X177711893Y-143252607D01*
X177695829Y-143234883D01*
X177681579Y-143215670D01*
X177669282Y-143195153D01*
X177659054Y-143173529D01*
X177650996Y-143151007D01*
X177645184Y-143127803D01*
X177641674Y-143104142D01*
X177640500Y-143080250D01*
X177640500Y-142167750D01*
X177641674Y-142143858D01*
X177645184Y-142120197D01*
X177650996Y-142096993D01*
X177659054Y-142074471D01*
X177669282Y-142052847D01*
X177681579Y-142032330D01*
X177695829Y-142013117D01*
X177711893Y-141995393D01*
X177729617Y-141979329D01*
X177748830Y-141965079D01*
X177769347Y-141952782D01*
X177790971Y-141942554D01*
X177813493Y-141934496D01*
X177836697Y-141928684D01*
X177860358Y-141925174D01*
X177884250Y-141924000D01*
X178371750Y-141924000D01*
X178395642Y-141925174D01*
X178395642Y-141925174D01*
G37*
D19*
X178128000Y-142624000D03*
D18*
G36*
X180270642Y-141925174D02*
G01*
X180294303Y-141928684D01*
X180317507Y-141934496D01*
X180340029Y-141942554D01*
X180361653Y-141952782D01*
X180382170Y-141965079D01*
X180401383Y-141979329D01*
X180419107Y-141995393D01*
X180435171Y-142013117D01*
X180449421Y-142032330D01*
X180461718Y-142052847D01*
X180471946Y-142074471D01*
X180480004Y-142096993D01*
X180485816Y-142120197D01*
X180489326Y-142143858D01*
X180490500Y-142167750D01*
X180490500Y-143080250D01*
X180489326Y-143104142D01*
X180485816Y-143127803D01*
X180480004Y-143151007D01*
X180471946Y-143173529D01*
X180461718Y-143195153D01*
X180449421Y-143215670D01*
X180435171Y-143234883D01*
X180419107Y-143252607D01*
X180401383Y-143268671D01*
X180382170Y-143282921D01*
X180361653Y-143295218D01*
X180340029Y-143305446D01*
X180317507Y-143313504D01*
X180294303Y-143319316D01*
X180270642Y-143322826D01*
X180246750Y-143324000D01*
X179759250Y-143324000D01*
X179735358Y-143322826D01*
X179711697Y-143319316D01*
X179688493Y-143313504D01*
X179665971Y-143305446D01*
X179644347Y-143295218D01*
X179623830Y-143282921D01*
X179604617Y-143268671D01*
X179586893Y-143252607D01*
X179570829Y-143234883D01*
X179556579Y-143215670D01*
X179544282Y-143195153D01*
X179534054Y-143173529D01*
X179525996Y-143151007D01*
X179520184Y-143127803D01*
X179516674Y-143104142D01*
X179515500Y-143080250D01*
X179515500Y-142167750D01*
X179516674Y-142143858D01*
X179520184Y-142120197D01*
X179525996Y-142096993D01*
X179534054Y-142074471D01*
X179544282Y-142052847D01*
X179556579Y-142032330D01*
X179570829Y-142013117D01*
X179586893Y-141995393D01*
X179604617Y-141979329D01*
X179623830Y-141965079D01*
X179644347Y-141952782D01*
X179665971Y-141942554D01*
X179688493Y-141934496D01*
X179711697Y-141928684D01*
X179735358Y-141925174D01*
X179759250Y-141924000D01*
X180246750Y-141924000D01*
X180270642Y-141925174D01*
X180270642Y-141925174D01*
G37*
D19*
X180003000Y-142624000D03*
D20*
X162582000Y-140012000D03*
X168782000Y-143712000D03*
X162582000Y-143712000D03*
X168782000Y-140012000D03*
D21*
X199065141Y-92685498D03*
D22*
X199065141Y-92685498D02*
X199065141Y-92685498D01*
D21*
X196710094Y-93636999D03*
D22*
X196710094Y-93636999D02*
X196710094Y-93636999D01*
D21*
X194355047Y-94588499D03*
D22*
X194355047Y-94588499D02*
X194355047Y-94588499D01*
D21*
X192000000Y-95540000D03*
D18*
G36*
X193106522Y-96009691D02*
G01*
X191530309Y-96646522D01*
X190893478Y-95070309D01*
X192469691Y-94433478D01*
X193106522Y-96009691D01*
X193106522Y-96009691D01*
G37*
D21*
X246428381Y-97351090D03*
D18*
G36*
X245958690Y-98457612D02*
G01*
X245321859Y-96881399D01*
X246898072Y-96244568D01*
X247534903Y-97820781D01*
X245958690Y-98457612D01*
X245958690Y-98457612D01*
G37*
D21*
X247379882Y-99706137D03*
D22*
X247379882Y-99706137D02*
X247379882Y-99706137D01*
D21*
X248331382Y-102061184D03*
D22*
X248331382Y-102061184D02*
X248331382Y-102061184D01*
D21*
X249282883Y-104416231D03*
D22*
X249282883Y-104416231D02*
X249282883Y-104416231D01*
D21*
X177894345Y-61730649D03*
D18*
G36*
X179000867Y-62200340D02*
G01*
X177424654Y-62837171D01*
X176787823Y-61260958D01*
X178364036Y-60624127D01*
X179000867Y-62200340D01*
X179000867Y-62200340D01*
G37*
D21*
X180249392Y-60779148D03*
D22*
X180249392Y-60779148D02*
X180249392Y-60779148D01*
D21*
X182604439Y-59827648D03*
D22*
X182604439Y-59827648D02*
X182604439Y-59827648D01*
D21*
X184959486Y-58876147D03*
D22*
X184959486Y-58876147D02*
X184959486Y-58876147D01*
D21*
X185500000Y-79040000D03*
D18*
G36*
X186606522Y-79509691D02*
G01*
X185030309Y-80146522D01*
X184393478Y-78570309D01*
X185969691Y-77933478D01*
X186606522Y-79509691D01*
X186606522Y-79509691D01*
G37*
D21*
X187855047Y-78088499D03*
D22*
X187855047Y-78088499D02*
X187855047Y-78088499D01*
D21*
X190210094Y-77136999D03*
D22*
X190210094Y-77136999D02*
X190210094Y-77136999D01*
D21*
X192565141Y-76185498D03*
D22*
X192565141Y-76185498D02*
X192565141Y-76185498D01*
D21*
X187293643Y-143302834D03*
D22*
X187293643Y-143302834D02*
X187293643Y-143302834D01*
D21*
X185765033Y-141274299D03*
D22*
X185765033Y-141274299D02*
X185765033Y-141274299D01*
D21*
X184236423Y-139245765D03*
D22*
X184236423Y-139245765D02*
X184236423Y-139245765D01*
D21*
X182707813Y-137217231D03*
D18*
G36*
X182540516Y-138407614D02*
G01*
X181517430Y-137049934D01*
X182875110Y-136026848D01*
X183898196Y-137384528D01*
X182540516Y-138407614D01*
X182540516Y-138407614D01*
G37*
D23*
X243086938Y-104363428D03*
D18*
G36*
X243805288Y-102671100D02*
G01*
X244779266Y-105081778D01*
X242368588Y-106055756D01*
X241394610Y-103645078D01*
X243805288Y-102671100D01*
X243805288Y-102671100D01*
G37*
D24*
X241033916Y-94677189D03*
X235611323Y-94603136D03*
D23*
X231553830Y-106650330D03*
D18*
G36*
X232272180Y-104958002D02*
G01*
X233246158Y-107368680D01*
X230835480Y-108342658D01*
X229861502Y-105931980D01*
X232272180Y-104958002D01*
X232272180Y-104958002D01*
G37*
D23*
X190612716Y-73255455D03*
D18*
G36*
X191331066Y-71563127D02*
G01*
X192305044Y-73973805D01*
X189894366Y-74947783D01*
X188920388Y-72537105D01*
X191331066Y-71563127D01*
X191331066Y-71563127D01*
G37*
D24*
X188559694Y-63569216D03*
X183137101Y-63495163D03*
D23*
X179079608Y-75542357D03*
D18*
G36*
X179797958Y-73850029D02*
G01*
X180771936Y-76260707D01*
X178361258Y-77234685D01*
X177387280Y-74824007D01*
X179797958Y-73850029D01*
X179797958Y-73850029D01*
G37*
D23*
X197168331Y-89481172D03*
D18*
G36*
X197886681Y-87788844D02*
G01*
X198860659Y-90199522D01*
X196449981Y-91173500D01*
X195476003Y-88762822D01*
X197886681Y-87788844D01*
X197886681Y-87788844D01*
G37*
D24*
X195115309Y-79794933D03*
X189692716Y-79720880D03*
D23*
X185635223Y-91768074D03*
D18*
G36*
X186353573Y-90075746D02*
G01*
X187327551Y-92486424D01*
X184916873Y-93460402D01*
X183942895Y-91049724D01*
X186353573Y-90075746D01*
X186353573Y-90075746D01*
G37*
D23*
X203723946Y-105706890D03*
D18*
G36*
X204442296Y-104014562D02*
G01*
X205416274Y-106425240D01*
X203005596Y-107399218D01*
X202031618Y-104988540D01*
X204442296Y-104014562D01*
X204442296Y-104014562D01*
G37*
D24*
X201670924Y-96020651D03*
X196248331Y-95946598D03*
D23*
X192190838Y-107993792D03*
D18*
G36*
X192909188Y-106301464D02*
G01*
X193883166Y-108712142D01*
X191472488Y-109686120D01*
X190498510Y-107275442D01*
X192909188Y-106301464D01*
X192909188Y-106301464D01*
G37*
D23*
X224061004Y-106657731D03*
D18*
G36*
X224779354Y-104965403D02*
G01*
X225753332Y-107376081D01*
X223342654Y-108350059D01*
X222368676Y-105939381D01*
X224779354Y-104965403D01*
X224779354Y-104965403D01*
G37*
D24*
X222007982Y-96971492D03*
X216585389Y-96897439D03*
D23*
X212527896Y-108944633D03*
D18*
G36*
X213246246Y-107252305D02*
G01*
X214220224Y-109662983D01*
X211809546Y-110636961D01*
X210835568Y-108226283D01*
X213246246Y-107252305D01*
X213246246Y-107252305D01*
G37*
D21*
X210415141Y-130637906D03*
D22*
X210415141Y-130637906D02*
X210415141Y-130637906D01*
D21*
X212443676Y-129109296D03*
D22*
X212443676Y-129109296D02*
X212443676Y-129109296D01*
D21*
X214472210Y-127580686D03*
D22*
X214472210Y-127580686D02*
X214472210Y-127580686D01*
D21*
X216500744Y-126052076D03*
D18*
G36*
X215310361Y-125884779D02*
G01*
X216668041Y-124861693D01*
X217691127Y-126219373D01*
X216333447Y-127242459D01*
X215310361Y-125884779D01*
X215310361Y-125884779D01*
G37*
D21*
X92892618Y-130791511D03*
D22*
X92892618Y-130791511D02*
X92892618Y-130791511D01*
D21*
X90864083Y-129262901D03*
D22*
X90864083Y-129262901D02*
X90864083Y-129262901D01*
D21*
X88835549Y-127734291D03*
D22*
X88835549Y-127734291D02*
X88835549Y-127734291D01*
D21*
X86807015Y-126205681D03*
D18*
G36*
X86974312Y-127396064D02*
G01*
X85616632Y-126372978D01*
X86639718Y-125015298D01*
X87997398Y-126038384D01*
X86974312Y-127396064D01*
X86974312Y-127396064D01*
G37*
D21*
X57295205Y-97543276D03*
D18*
G36*
X56188683Y-98012967D02*
G01*
X56825514Y-96436754D01*
X58401727Y-97073585D01*
X57764896Y-98649798D01*
X56188683Y-98012967D01*
X56188683Y-98012967D01*
G37*
D21*
X56343704Y-99898323D03*
D22*
X56343704Y-99898323D02*
X56343704Y-99898323D01*
D21*
X55392204Y-102253370D03*
D22*
X55392204Y-102253370D02*
X55392204Y-102253370D01*
D21*
X54440703Y-104608417D03*
D22*
X54440703Y-104608417D02*
X54440703Y-104608417D01*
D21*
X125097799Y-61864591D03*
D18*
G36*
X124628108Y-60758069D02*
G01*
X126204321Y-61394900D01*
X125567490Y-62971113D01*
X123991277Y-62334282D01*
X124628108Y-60758069D01*
X124628108Y-60758069D01*
G37*
D21*
X122742752Y-60913090D03*
D22*
X122742752Y-60913090D02*
X122742752Y-60913090D01*
D21*
X120387705Y-59961590D03*
D22*
X120387705Y-59961590D02*
X120387705Y-59961590D01*
D21*
X118032658Y-59010089D03*
D22*
X118032658Y-59010089D02*
X118032658Y-59010089D01*
D21*
X118558765Y-78178249D03*
D18*
G36*
X118089074Y-77071727D02*
G01*
X119665287Y-77708558D01*
X119028456Y-79284771D01*
X117452243Y-78647940D01*
X118089074Y-77071727D01*
X118089074Y-77071727D01*
G37*
D21*
X116203718Y-77226748D03*
D22*
X116203718Y-77226748D02*
X116203718Y-77226748D01*
D21*
X113848671Y-76275248D03*
D22*
X113848671Y-76275248D02*
X113848671Y-76275248D01*
D21*
X111493624Y-75323747D03*
D22*
X111493624Y-75323747D02*
X111493624Y-75323747D01*
D21*
X104678867Y-91323747D03*
D22*
X104678867Y-91323747D02*
X104678867Y-91323747D01*
D21*
X107033914Y-92275248D03*
D22*
X107033914Y-92275248D02*
X107033914Y-92275248D01*
D21*
X109388961Y-93226748D03*
D22*
X109388961Y-93226748D02*
X109388961Y-93226748D01*
D21*
X111744008Y-94178249D03*
D18*
G36*
X111274317Y-93071727D02*
G01*
X112850530Y-93708558D01*
X112213699Y-95284771D01*
X110637486Y-94647940D01*
X111274317Y-93071727D01*
X111274317Y-93071727D01*
G37*
D23*
X117097605Y-62245393D03*
D18*
G36*
X115405277Y-62963743D02*
G01*
X116379255Y-60553065D01*
X118789933Y-61527043D01*
X117815955Y-63937721D01*
X115405277Y-62963743D01*
X115405277Y-62963743D01*
G37*
D24*
X111845799Y-70639240D03*
X115695044Y-74459359D03*
D23*
X126982444Y-68611904D03*
D18*
G36*
X125290116Y-69330254D02*
G01*
X126264094Y-66919576D01*
X128674772Y-67893554D01*
X127700794Y-70304232D01*
X125290116Y-69330254D01*
X125290116Y-69330254D01*
G37*
D23*
X178891610Y-93629843D03*
D18*
G36*
X179609960Y-91937515D02*
G01*
X180583938Y-94348193D01*
X178173260Y-95322171D01*
X177199282Y-92911493D01*
X179609960Y-91937515D01*
X179609960Y-91937515D01*
G37*
D24*
X176838588Y-83943604D03*
X171415995Y-83869551D03*
D23*
X167358502Y-95916745D03*
D18*
G36*
X168076852Y-94224417D02*
G01*
X169050830Y-96635095D01*
X166640152Y-97609073D01*
X165666174Y-95198395D01*
X168076852Y-94224417D01*
X168076852Y-94224417D01*
G37*
D23*
X64623382Y-93353366D03*
D18*
G36*
X62931054Y-94071716D02*
G01*
X63905032Y-91661038D01*
X66315710Y-92635016D01*
X65341732Y-95045694D01*
X62931054Y-94071716D01*
X62931054Y-94071716D01*
G37*
D24*
X59371576Y-101747213D03*
X63220821Y-105567332D03*
D23*
X74508221Y-99719877D03*
D18*
G36*
X72815893Y-100438227D02*
G01*
X73789871Y-98027549D01*
X76200549Y-99001527D01*
X75226571Y-101412205D01*
X72815893Y-100438227D01*
X72815893Y-100438227D01*
G37*
D23*
X83649316Y-95647669D03*
D18*
G36*
X81956988Y-96366019D02*
G01*
X82930966Y-93955341D01*
X85341644Y-94929319D01*
X84367666Y-97339997D01*
X81956988Y-96366019D01*
X81956988Y-96366019D01*
G37*
D24*
X78397510Y-104041516D03*
X82246755Y-107861635D03*
D23*
X93534155Y-102014180D03*
D18*
G36*
X91841827Y-102732530D02*
G01*
X92815805Y-100321852D01*
X95226483Y-101295830D01*
X94252505Y-103706508D01*
X91841827Y-102732530D01*
X91841827Y-102732530D01*
G37*
D23*
X103986374Y-94696828D03*
D18*
G36*
X102294046Y-95415178D02*
G01*
X103268024Y-93004500D01*
X105678702Y-93978478D01*
X104704724Y-96389156D01*
X102294046Y-95415178D01*
X102294046Y-95415178D01*
G37*
D24*
X98734568Y-103090675D03*
X102583813Y-106910794D03*
D23*
X113871213Y-101063339D03*
D18*
G36*
X112178885Y-101781689D02*
G01*
X113152863Y-99371011D01*
X115563541Y-100344989D01*
X114589563Y-102755667D01*
X112178885Y-101781689D01*
X112178885Y-101781689D01*
G37*
D23*
X185447225Y-109855560D03*
D18*
G36*
X186165575Y-108163232D02*
G01*
X187139553Y-110573910D01*
X184728875Y-111547888D01*
X183754897Y-109137210D01*
X186165575Y-108163232D01*
X186165575Y-108163232D01*
G37*
D24*
X183394203Y-100169321D03*
X177971610Y-100095268D03*
D23*
X173914117Y-112142462D03*
D18*
G36*
X174632467Y-110450134D02*
G01*
X175606445Y-112860812D01*
X173195767Y-113834790D01*
X172221789Y-111424112D01*
X174632467Y-110450134D01*
X174632467Y-110450134D01*
G37*
D23*
X135374326Y-66394063D03*
D18*
G36*
X133681998Y-67112413D02*
G01*
X134655976Y-64701735D01*
X137066654Y-65675713D01*
X136092676Y-68086391D01*
X133681998Y-67112413D01*
X133681998Y-67112413D01*
G37*
D24*
X130122520Y-74787910D03*
X133971765Y-78608029D03*
D23*
X145259165Y-72760574D03*
D18*
G36*
X143566837Y-73478924D02*
G01*
X144540815Y-71068246D01*
X146951493Y-72042224D01*
X145977515Y-74452902D01*
X143566837Y-73478924D01*
X143566837Y-73478924D01*
G37*
D23*
X122263095Y-98845498D03*
D18*
G36*
X120570767Y-99563848D02*
G01*
X121544745Y-97153170D01*
X123955423Y-98127148D01*
X122981445Y-100537826D01*
X120570767Y-99563848D01*
X120570767Y-99563848D01*
G37*
D24*
X117011289Y-107239345D03*
X120860534Y-111059464D03*
D23*
X132147934Y-105212009D03*
D18*
G36*
X130455606Y-105930359D02*
G01*
X131429584Y-103519681D01*
X133840262Y-104493659D01*
X132866284Y-106904337D01*
X130455606Y-105930359D01*
X130455606Y-105930359D01*
G37*
D23*
X128818710Y-82619781D03*
D18*
G36*
X127126382Y-83338131D02*
G01*
X128100360Y-80927453D01*
X130511038Y-81901431D01*
X129537060Y-84312109D01*
X127126382Y-83338131D01*
X127126382Y-83338131D01*
G37*
D24*
X123566904Y-91013628D03*
X127416149Y-94833747D03*
D23*
X138703549Y-88986292D03*
D18*
G36*
X137011221Y-89704642D02*
G01*
X137985199Y-87293964D01*
X140395877Y-88267942D01*
X139421899Y-90678620D01*
X137011221Y-89704642D01*
X137011221Y-89704642D01*
G37*
D23*
X172335995Y-77404125D03*
D18*
G36*
X173054345Y-75711797D02*
G01*
X174028323Y-78122475D01*
X171617645Y-79096453D01*
X170643667Y-76685775D01*
X173054345Y-75711797D01*
X173054345Y-75711797D01*
G37*
D24*
X170282973Y-67717886D03*
X164860380Y-67643833D03*
D23*
X160802887Y-79691027D03*
D18*
G36*
X161521237Y-77998699D02*
G01*
X162495215Y-80409377D01*
X160084537Y-81383355D01*
X159110559Y-78972677D01*
X161521237Y-77998699D01*
X161521237Y-77998699D01*
G37*
D23*
X110541989Y-78471110D03*
D18*
G36*
X108849661Y-79189460D02*
G01*
X109823639Y-76778782D01*
X112234317Y-77752760D01*
X111260339Y-80163438D01*
X108849661Y-79189460D01*
X108849661Y-79189460D01*
G37*
D24*
X105290183Y-86864957D03*
X109139428Y-90685076D03*
D23*
X120426828Y-84837621D03*
D18*
G36*
X118734500Y-85555971D02*
G01*
X119708478Y-83145293D01*
X122119156Y-84119271D01*
X121145178Y-86529949D01*
X118734500Y-85555971D01*
X118734500Y-85555971D01*
G37*
D21*
X106728320Y-141127050D03*
D22*
X106728320Y-141127050D02*
X106728320Y-141127050D01*
D21*
X104699785Y-139598440D03*
D22*
X104699785Y-139598440D02*
X104699785Y-139598440D01*
D21*
X102671251Y-138069830D03*
D22*
X102671251Y-138069830D02*
X102671251Y-138069830D01*
D21*
X100642717Y-136541220D03*
D18*
G36*
X100810014Y-137731603D02*
G01*
X99452334Y-136708517D01*
X100475420Y-135350837D01*
X101833100Y-136373923D01*
X100810014Y-137731603D01*
X100810014Y-137731603D01*
G37*
D12*
X151558765Y-87678249D03*
D11*
X151558765Y-90218249D03*
X151558765Y-92758249D03*
X151558765Y-95298249D03*
D21*
X196616901Y-141066163D03*
D18*
G36*
X197807284Y-141233460D02*
G01*
X196449604Y-142256546D01*
X195426518Y-140898866D01*
X196784198Y-139875780D01*
X197807284Y-141233460D01*
X197807284Y-141233460D01*
G37*
D21*
X198645435Y-139537553D03*
D22*
X198645435Y-139537553D02*
X198645435Y-139537553D01*
D21*
X200673969Y-138008943D03*
D22*
X200673969Y-138008943D02*
X200673969Y-138008943D01*
D21*
X202702504Y-136480333D03*
D22*
X202702504Y-136480333D02*
X202702504Y-136480333D01*
D21*
X115734284Y-143501436D03*
D22*
X115734284Y-143501436D02*
X115734284Y-143501436D01*
D21*
X117262894Y-141472901D03*
D22*
X117262894Y-141472901D02*
X117262894Y-141472901D01*
D21*
X118791504Y-139444367D03*
D22*
X118791504Y-139444367D02*
X118791504Y-139444367D01*
D21*
X120320114Y-137415833D03*
D18*
G36*
X119129731Y-137583130D02*
G01*
X120152817Y-136225450D01*
X121510497Y-137248536D01*
X120487411Y-138606216D01*
X119129731Y-137583130D01*
X119129731Y-137583130D01*
G37*
D10*
X199368750Y-121352500D03*
X199368750Y-124652500D03*
X196987500Y-121352500D03*
X196987500Y-124652500D03*
X185081250Y-121352500D03*
X185081250Y-124652500D03*
X187462500Y-121352500D03*
X187462500Y-124652500D03*
X189843750Y-121352500D03*
X189843750Y-124652500D03*
X192225000Y-121352500D03*
X192225000Y-124652500D03*
D25*
X165546250Y-126369000D03*
X162246250Y-126369000D03*
X165546250Y-128750250D03*
X162246250Y-128750250D03*
X165546250Y-131131500D03*
X162246250Y-131131500D03*
X165546250Y-133512750D03*
X162246250Y-133512750D03*
X157380000Y-126367750D03*
X154080000Y-126367750D03*
X157380000Y-128749000D03*
X154080000Y-128749000D03*
X157380000Y-131130250D03*
X154080000Y-131130250D03*
X157380000Y-133511500D03*
X154080000Y-133511500D03*
D10*
X204131250Y-121352500D03*
X204131250Y-124652500D03*
X201750000Y-121352500D03*
X201750000Y-124652500D03*
X194606250Y-121352500D03*
X194606250Y-124652500D03*
D25*
X165546250Y-135894000D03*
X162246250Y-135894000D03*
X157380000Y-135892750D03*
X154080000Y-135892750D03*
D10*
X182700000Y-121352500D03*
X182700000Y-124652500D03*
D25*
X165546250Y-123987750D03*
X162246250Y-123987750D03*
X157380000Y-123986500D03*
X154080000Y-123986500D03*
D10*
X123168750Y-121352500D03*
X123168750Y-124652500D03*
D25*
X138185500Y-123961750D03*
X141485500Y-123961750D03*
X145766500Y-124006500D03*
X149066500Y-124006500D03*
D10*
X101737500Y-121352500D03*
X101737500Y-124652500D03*
X104118750Y-121352500D03*
X104118750Y-124652500D03*
X111262500Y-121352500D03*
X111262500Y-124652500D03*
D25*
X138185500Y-135868000D03*
X141485500Y-135868000D03*
X145766500Y-135912750D03*
X149066500Y-135912750D03*
D10*
X106500000Y-121352500D03*
X106500000Y-124652500D03*
X108881250Y-121352500D03*
X108881250Y-124652500D03*
X120787500Y-121352500D03*
X120787500Y-124652500D03*
X118406250Y-121352500D03*
X118406250Y-124652500D03*
X116025000Y-121352500D03*
X116025000Y-124652500D03*
X113643750Y-121352500D03*
X113643750Y-124652500D03*
D25*
X138185500Y-126343000D03*
X141485500Y-126343000D03*
X138185500Y-128724250D03*
X141485500Y-128724250D03*
X138185500Y-131105500D03*
X141485500Y-131105500D03*
X138185500Y-133486750D03*
X141485500Y-133486750D03*
X145766500Y-126387750D03*
X149066500Y-126387750D03*
X145766500Y-128769000D03*
X149066500Y-128769000D03*
X145766500Y-131150250D03*
X149066500Y-131150250D03*
X145766500Y-133531500D03*
X149066500Y-133531500D03*
D26*
X144972750Y-133531500D03*
X154125000Y-122431000D03*
X144972750Y-131150250D03*
X144972750Y-128769000D03*
X144972750Y-126387750D03*
X136660500Y-133486750D03*
X147880000Y-122360000D03*
X136660500Y-131105500D03*
X136660500Y-128724250D03*
X136660500Y-126343000D03*
X113643750Y-119827500D03*
X122883000Y-126368000D03*
X150140000Y-138990000D03*
X116025000Y-119827500D03*
X118406250Y-119827500D03*
X120787500Y-119827500D03*
X93800000Y-104746250D03*
X108881250Y-119827500D03*
X108913004Y-126241000D03*
X148860000Y-139800000D03*
X74450000Y-102890000D03*
X106500000Y-119827500D03*
X144972750Y-135912750D03*
X136660500Y-135868000D03*
X111262500Y-119827500D03*
X144600000Y-123796250D03*
X136662500Y-123796250D03*
X123168750Y-119827500D03*
X158887500Y-123796250D03*
X166952000Y-124113750D03*
X182700000Y-119033750D03*
X158842500Y-135892750D03*
X167133750Y-135894000D03*
X194606250Y-119033750D03*
X158842500Y-133511500D03*
X158842500Y-131130250D03*
X158842500Y-128749000D03*
X158842500Y-126367750D03*
X167017966Y-133396965D03*
X167133750Y-131131500D03*
X167133750Y-128750250D03*
X167133750Y-126369000D03*
X192183098Y-118991848D03*
X189843750Y-119033750D03*
X189843750Y-119033750D03*
X187462500Y-119033750D03*
X185081250Y-119033750D03*
X121160000Y-129330000D03*
X62800000Y-95240000D03*
X122427451Y-129657011D03*
X122780813Y-131111022D03*
X121310000Y-131100000D03*
X104118750Y-116652500D03*
X104118750Y-126177500D03*
X120470000Y-102619000D03*
X203723946Y-102913946D03*
X205718750Y-125941515D03*
X185050002Y-107490000D03*
X206512500Y-108715000D03*
X206512500Y-115858750D03*
X181238135Y-127808953D03*
X180241773Y-127894314D03*
X178763000Y-127860299D03*
X133680000Y-138220000D03*
X177654566Y-127829862D03*
X170762000Y-140591966D03*
D27*
X163830000Y-145000000D02*
X162520000Y-143690000D01*
X184394396Y-145000000D02*
X163830000Y-145000000D01*
X187293643Y-143302834D02*
X186091562Y-143302834D01*
X186091562Y-143302834D02*
X184394396Y-145000000D01*
X131239999Y-143439999D02*
X130590000Y-142790000D01*
X132820000Y-145020000D02*
X131239999Y-143439999D01*
X162620000Y-143810000D02*
X161410000Y-145020000D01*
X161410000Y-145020000D02*
X132820000Y-145020000D01*
D28*
X145766500Y-133531500D02*
X144972750Y-133531500D01*
X149066500Y-124006500D02*
X149066500Y-135912750D01*
X154080000Y-123986500D02*
X154080000Y-135892750D01*
X148941500Y-123881500D02*
X149066500Y-124006500D01*
D29*
X149086500Y-135892750D02*
X149066500Y-135912750D01*
X154080000Y-135892750D02*
X149086500Y-135892750D01*
X154080000Y-123132500D02*
X154125000Y-123087500D01*
X154080000Y-123986500D02*
X154080000Y-123132500D01*
X154125000Y-123087500D02*
X154125000Y-122431000D01*
D28*
X145766500Y-131150250D02*
X144972750Y-131150250D01*
X145766500Y-128769000D02*
X144972750Y-128769000D01*
X145766500Y-126387750D02*
X144972750Y-126387750D01*
X138185500Y-133486750D02*
X136660500Y-133486750D01*
X141485500Y-123961750D02*
X141485500Y-135868000D01*
X162246250Y-123987750D02*
X162246250Y-135894000D01*
D29*
X162246250Y-133512750D02*
X161542250Y-133512750D01*
X141485500Y-136747250D02*
X141485500Y-135868000D01*
X142060000Y-137321750D02*
X141485500Y-136747250D01*
X161672500Y-137321750D02*
X142060000Y-137321750D01*
X162246250Y-135894000D02*
X162246250Y-136748000D01*
X162246250Y-136748000D02*
X161672500Y-137321750D01*
X147480001Y-121960001D02*
X147880000Y-122360000D01*
X144331249Y-121820001D02*
X147340001Y-121820001D01*
X147340001Y-121820001D02*
X147480001Y-121960001D01*
X141485500Y-123961750D02*
X142189500Y-123961750D01*
X142189500Y-123961750D02*
X144331249Y-121820001D01*
D28*
X138185500Y-131105500D02*
X136660500Y-131105500D01*
X138185500Y-128724250D02*
X136660500Y-128724250D01*
X138185500Y-126343000D02*
X137485500Y-126343000D01*
X137485500Y-126343000D02*
X136660500Y-126343000D01*
X113643750Y-119827500D02*
X113643750Y-121352500D01*
X194606250Y-124652500D02*
X182700000Y-124652500D01*
X111262500Y-124652500D02*
X123168750Y-124652500D01*
D29*
X123168750Y-124652500D02*
X123168750Y-126082250D01*
X123168750Y-126082250D02*
X122883000Y-126368000D01*
X150539999Y-138590001D02*
X150140000Y-138990000D01*
X150640000Y-138490000D02*
X150539999Y-138590001D01*
X171633050Y-138490000D02*
X150640000Y-138490000D01*
X182700000Y-124652500D02*
X182700000Y-127423050D01*
X182700000Y-127423050D02*
X171633050Y-138490000D01*
D28*
X116025000Y-119827500D02*
X116025000Y-121352500D01*
X118406250Y-119827500D02*
X118406250Y-121352500D01*
X120787500Y-119827500D02*
X120787500Y-121352500D01*
X93800000Y-103952500D02*
X93534155Y-103686655D01*
X93800000Y-104746250D02*
X93800000Y-103952500D01*
X93534155Y-102014180D02*
X93534155Y-103686655D01*
X79895994Y-105540000D02*
X78397510Y-104041516D01*
X84550000Y-105540000D02*
X79895994Y-105540000D01*
X86500000Y-107490000D02*
X84550000Y-105540000D01*
X93800000Y-104746250D02*
X91056250Y-107490000D01*
X91056250Y-107490000D02*
X86500000Y-107490000D01*
X108881250Y-119827500D02*
X108881250Y-121352500D01*
X204131250Y-124652500D02*
X196987500Y-124652500D01*
X108881250Y-124652500D02*
X101737500Y-124652500D01*
X108881250Y-124652500D02*
X108881250Y-126209246D01*
X108881250Y-126209246D02*
X108913004Y-126241000D01*
D29*
X112710000Y-128000000D02*
X110310000Y-128000000D01*
X108913004Y-126603004D02*
X110310000Y-128000000D01*
X108913004Y-126241000D02*
X108913004Y-126603004D01*
X151481953Y-138944011D02*
X150625964Y-139800000D01*
X192386000Y-128400000D02*
X182700000Y-128400000D01*
X172155989Y-138944011D02*
X151481953Y-138944011D01*
X150625964Y-139800000D02*
X149425685Y-139800000D01*
X182700000Y-128400000D02*
X172155989Y-138944011D01*
X196133500Y-124652500D02*
X192386000Y-128400000D01*
X149425685Y-139800000D02*
X148860000Y-139800000D01*
X196987500Y-124652500D02*
X196133500Y-124652500D01*
D28*
X74508221Y-101221972D02*
X74450000Y-101280193D01*
X74508221Y-99719877D02*
X74508221Y-101221972D01*
X74450000Y-101280193D02*
X74450000Y-102890000D01*
X74450000Y-102890000D02*
X71900000Y-105440000D01*
X71900000Y-105440000D02*
X67900000Y-105440000D01*
X67900000Y-105440000D02*
X65850000Y-103390000D01*
X61014363Y-103390000D02*
X59371576Y-101747213D01*
X65850000Y-103390000D02*
X61014363Y-103390000D01*
X106500000Y-119827500D02*
X106500000Y-121352500D01*
X126982444Y-68611904D02*
X126982444Y-71607556D01*
X126982444Y-71607556D02*
X124350000Y-74240000D01*
X124350000Y-74240000D02*
X120000000Y-74240000D01*
X120000000Y-74240000D02*
X117800000Y-72040000D01*
X113246559Y-72040000D02*
X111845799Y-70639240D01*
X117800000Y-72040000D02*
X113246559Y-72040000D01*
X145766500Y-135912750D02*
X144972750Y-135912750D01*
X120426828Y-86339716D02*
X120400000Y-86366544D01*
X120426828Y-84837621D02*
X120426828Y-86339716D01*
X120400000Y-86366544D02*
X120400000Y-87690000D01*
X120400000Y-87690000D02*
X118300000Y-89790000D01*
X118300000Y-89790000D02*
X113950000Y-89790000D01*
X113950000Y-89790000D02*
X112550000Y-88390000D01*
X106815226Y-88390000D02*
X105290183Y-86864957D01*
X112550000Y-88390000D02*
X106815226Y-88390000D01*
X138185500Y-135868000D02*
X136660500Y-135868000D01*
X105650000Y-104540000D02*
X100183893Y-104540000D01*
X109796647Y-106640000D02*
X107750000Y-106640000D01*
X100183893Y-104540000D02*
X99750567Y-104106674D01*
X113871213Y-102565434D02*
X109796647Y-106640000D01*
X99750567Y-104106674D02*
X98734568Y-103090675D01*
X107750000Y-106640000D02*
X105650000Y-104540000D01*
X113871213Y-101063339D02*
X113871213Y-102565434D01*
X111262500Y-119827500D02*
X111262500Y-121352500D01*
X104118750Y-119827500D02*
X104118750Y-121352500D01*
X88835549Y-127734291D02*
X96742340Y-119827500D01*
X96742340Y-119827500D02*
X104118750Y-119827500D01*
X90864083Y-128838417D02*
X90864083Y-129262901D01*
X98774484Y-121352500D02*
X101737500Y-121352500D01*
X90864083Y-129262901D02*
X98774484Y-121352500D01*
D29*
X145766500Y-124006500D02*
X144810250Y-124006500D01*
X144810250Y-124006500D02*
X144600000Y-123796250D01*
D28*
X145259165Y-72760574D02*
X145259165Y-74262669D01*
X145259165Y-74262669D02*
X141970000Y-77551834D01*
X131624610Y-76290000D02*
X130122520Y-74787910D01*
X136550000Y-76290000D02*
X131624610Y-76290000D01*
X138700000Y-78440000D02*
X136550000Y-76290000D01*
X141970000Y-77550000D02*
X141080000Y-78440000D01*
X141080000Y-78440000D02*
X138700000Y-78440000D01*
X138703549Y-88986292D02*
X138703549Y-92336451D01*
X138703549Y-92336451D02*
X136400000Y-94640000D01*
X136400000Y-94640000D02*
X131200000Y-94640000D01*
X131200000Y-94640000D02*
X128650000Y-92090000D01*
X124643276Y-92090000D02*
X123566904Y-91013628D01*
X128650000Y-92090000D02*
X124643276Y-92090000D01*
D29*
X138185500Y-123961750D02*
X136828000Y-123961750D01*
X136828000Y-123961750D02*
X136662500Y-123796250D01*
D28*
X118511944Y-108740000D02*
X117011289Y-107239345D01*
X122950000Y-108740000D02*
X118511944Y-108740000D01*
X125150000Y-110940000D02*
X122950000Y-108740000D01*
X129400000Y-110940000D02*
X125150000Y-110940000D01*
X132147934Y-105212009D02*
X132147934Y-108192066D01*
X132147934Y-108192066D02*
X129400000Y-110940000D01*
X123168750Y-119827500D02*
X123168750Y-121352500D01*
X159733553Y-78621693D02*
X159733553Y-73656447D01*
X160802887Y-79691027D02*
X159733553Y-78621693D01*
X159733553Y-73656447D02*
X163100000Y-70290000D01*
X167710859Y-70290000D02*
X170282973Y-67717886D01*
X163100000Y-70290000D02*
X167710859Y-70290000D01*
X160600000Y-79893914D02*
X160802887Y-79691027D01*
D29*
X158084000Y-123986500D02*
X158274250Y-123796250D01*
X157380000Y-123986500D02*
X158084000Y-123986500D01*
X158274250Y-123796250D02*
X158887500Y-123796250D01*
D28*
X166289168Y-94847411D02*
X166289168Y-88550832D01*
X167358502Y-95916745D02*
X166289168Y-94847411D01*
X166289168Y-88550832D02*
X168500000Y-86340000D01*
X168500000Y-86340000D02*
X172800000Y-86340000D01*
X175196396Y-83943604D02*
X176838588Y-83943604D01*
X172800000Y-86340000D02*
X175196396Y-83943604D01*
D29*
X165546250Y-123987750D02*
X166826000Y-123987750D01*
X166826000Y-123987750D02*
X166952000Y-124113750D01*
D28*
X174102462Y-112142462D02*
X174400000Y-112440000D01*
X173914117Y-112142462D02*
X174102462Y-112142462D01*
X174450000Y-112440000D02*
X173600000Y-113290000D01*
X174400000Y-112440000D02*
X174450000Y-112440000D01*
X173600000Y-113290000D02*
X173600000Y-113490000D01*
X182700000Y-119033750D02*
X182700000Y-121352500D01*
D29*
X180805405Y-119033750D02*
X173914117Y-112142462D01*
X182700000Y-119033750D02*
X180805405Y-119033750D01*
D28*
X186238910Y-65890000D02*
X188559694Y-63569216D01*
X178300000Y-65890000D02*
X186238910Y-65890000D01*
X176250000Y-67940000D02*
X178300000Y-65890000D01*
X179079608Y-75542357D02*
X176250000Y-72712749D01*
X176250000Y-72712749D02*
X176250000Y-67940000D01*
X157380000Y-135892750D02*
X158842500Y-135892750D01*
X192620242Y-82290000D02*
X195115309Y-79794933D01*
X185050000Y-82290000D02*
X192620242Y-82290000D01*
X183000000Y-84340000D02*
X185050000Y-82290000D01*
X185635223Y-91768074D02*
X183000000Y-89132851D01*
X183000000Y-89132851D02*
X183000000Y-84340000D01*
X165546250Y-135894000D02*
X167133750Y-135894000D01*
X199151575Y-98540000D02*
X201670924Y-96020651D01*
X195250000Y-98540000D02*
X199151575Y-98540000D01*
X191250000Y-102540000D02*
X195250000Y-98540000D01*
X192190838Y-107993792D02*
X191250000Y-107052954D01*
X191250000Y-107052954D02*
X191250000Y-102540000D01*
X194606250Y-121352500D02*
X194606250Y-119033750D01*
X213622211Y-126730687D02*
X214472210Y-127580686D01*
X206719024Y-119827500D02*
X213622211Y-126730687D01*
X202540625Y-119827500D02*
X206719024Y-119827500D01*
X201750000Y-121352500D02*
X201750000Y-120618125D01*
X201750000Y-120618125D02*
X202540625Y-119827500D01*
X212038046Y-129109296D02*
X212443676Y-129109296D01*
X204281250Y-121352500D02*
X212038046Y-129109296D01*
X204131250Y-121352500D02*
X204281250Y-121352500D01*
X157380000Y-133511500D02*
X158842500Y-133511500D01*
X157380000Y-131130250D02*
X158842500Y-131130250D01*
X157380000Y-128749000D02*
X158842500Y-128749000D01*
X157380000Y-126367750D02*
X158842500Y-126367750D01*
X166902181Y-133512750D02*
X167017966Y-133396965D01*
X165546250Y-133512750D02*
X166902181Y-133512750D01*
X165546250Y-131131500D02*
X167133750Y-131131500D01*
X165546250Y-128750250D02*
X167133750Y-128750250D01*
X165546250Y-126369000D02*
X167133750Y-126369000D01*
X192183098Y-121310598D02*
X192225000Y-121352500D01*
X192183098Y-118991848D02*
X192183098Y-121310598D01*
X189843750Y-119033750D02*
X189843750Y-121352500D01*
X187462500Y-119033750D02*
X187462500Y-121352500D01*
X185081250Y-121352500D02*
X185081250Y-119033750D01*
X220818508Y-96971492D02*
X222007982Y-96971492D01*
X218300000Y-99490000D02*
X220818508Y-96971492D01*
X214850000Y-99490000D02*
X218300000Y-99490000D01*
X211150000Y-103190000D02*
X214850000Y-99490000D01*
X212527896Y-108944633D02*
X211150000Y-107566737D01*
X211150000Y-107566737D02*
X211150000Y-103190000D01*
X211025801Y-108944633D02*
X212527896Y-108944633D01*
X208695367Y-108944633D02*
X211025801Y-108944633D01*
X196987500Y-120652500D02*
X208695367Y-108944633D01*
X196987500Y-121352500D02*
X196987500Y-120652500D01*
X230150000Y-105246500D02*
X231553830Y-106650330D01*
X230150000Y-98990000D02*
X230150000Y-105246500D01*
X231105980Y-98034020D02*
X230150000Y-98990000D01*
X236205980Y-98034020D02*
X231105980Y-98034020D01*
X241033916Y-94677189D02*
X239562811Y-94677189D01*
X239562811Y-94677189D02*
X236205980Y-98034020D01*
X230484496Y-107719664D02*
X231553830Y-106650330D01*
X224726660Y-113477500D02*
X230484496Y-107719664D01*
X206543750Y-113477500D02*
X224726660Y-113477500D01*
X199368750Y-121352500D02*
X199368750Y-120652500D01*
X199368750Y-120652500D02*
X206543750Y-113477500D01*
X68850000Y-97290000D02*
X70050000Y-96090000D01*
X58018862Y-96819619D02*
X58970381Y-96819619D01*
X74100000Y-97240000D02*
X80934315Y-97240000D01*
X57295205Y-97543276D02*
X58018862Y-96819619D01*
X58970381Y-96819619D02*
X59650000Y-96140000D01*
X72950000Y-96090000D02*
X74100000Y-97240000D01*
X70050000Y-96090000D02*
X72950000Y-96090000D01*
X59650000Y-96140000D02*
X61100000Y-96140000D01*
X61100000Y-96140000D02*
X62250000Y-97290000D01*
X62250000Y-97290000D02*
X68850000Y-97290000D01*
X80708003Y-97240000D02*
X80934315Y-97240000D01*
X76337500Y-101610503D02*
X80708003Y-97240000D01*
X76337500Y-106333750D02*
X76337500Y-101610503D01*
X76849386Y-106845636D02*
X76337500Y-106333750D01*
X82246755Y-107861635D02*
X81230756Y-106845636D01*
X81230756Y-106845636D02*
X76849386Y-106845636D01*
X83649316Y-95846934D02*
X83649316Y-95647669D01*
X83481250Y-96015000D02*
X83649316Y-95846934D01*
X80934315Y-97240000D02*
X82159315Y-96015000D01*
X82159315Y-96015000D02*
X83481250Y-96015000D01*
D29*
X126219999Y-128930001D02*
X121559999Y-128930001D01*
X144092000Y-112652000D02*
X142498000Y-112652000D01*
X142498000Y-112652000D02*
X126219999Y-128930001D01*
X121559999Y-128930001D02*
X121160000Y-129330000D01*
D28*
X64623382Y-93416618D02*
X64623382Y-93353366D01*
X62800000Y-95240000D02*
X64623382Y-93416618D01*
D29*
X126135057Y-129657011D02*
X122993136Y-129657011D01*
X144092000Y-115192000D02*
X140600068Y-115192000D01*
X122993136Y-129657011D02*
X122427451Y-129657011D01*
X140600068Y-115192000D02*
X126135057Y-129657011D01*
X139516204Y-117560000D02*
X125965182Y-131111022D01*
X159332000Y-115192000D02*
X156964000Y-117560000D01*
X125965182Y-131111022D02*
X123346498Y-131111022D01*
X123346498Y-131111022D02*
X122780813Y-131111022D01*
X156964000Y-117560000D02*
X139516204Y-117560000D01*
X122780813Y-134955134D02*
X120320114Y-137415833D01*
X122780813Y-131111022D02*
X122780813Y-134955134D01*
X139328147Y-117105989D02*
X126050124Y-130384012D01*
X126050124Y-130384012D02*
X122025988Y-130384012D01*
X122025988Y-130384012D02*
X121709999Y-130700001D01*
X121709999Y-130700001D02*
X121310000Y-131100000D01*
X159332000Y-112652000D02*
X154878011Y-117105989D01*
X154878011Y-117105989D02*
X139328147Y-117105989D01*
D28*
X127544897Y-83893594D02*
X128818710Y-82619781D01*
X127544897Y-85034897D02*
X127544897Y-83893594D01*
X134304992Y-67463397D02*
X134176603Y-67463397D01*
X135374326Y-66394063D02*
X134304992Y-67463397D01*
X134176603Y-67463397D02*
X133100000Y-68540000D01*
X104118750Y-116652500D02*
X109711786Y-111059464D01*
X127544897Y-83701353D02*
X127544897Y-85034897D01*
X133971765Y-78608029D02*
X132638221Y-78608029D01*
X132638221Y-78608029D02*
X127544897Y-83701353D01*
X125979309Y-94833747D02*
X127416149Y-94833747D01*
X123574997Y-94833747D02*
X125979309Y-94833747D01*
X121581250Y-92840000D02*
X123574997Y-94833747D01*
X121581250Y-87283750D02*
X121581250Y-92840000D01*
X127544897Y-85034897D02*
X123830103Y-85034897D01*
X123830103Y-85034897D02*
X121581250Y-87283750D01*
X132534315Y-68540000D02*
X133100000Y-68540000D01*
X130800000Y-68540000D02*
X132534315Y-68540000D01*
X127931250Y-71408750D02*
X130800000Y-68540000D01*
X127931250Y-75377500D02*
X127931250Y-71408750D01*
X133971765Y-78608029D02*
X131161779Y-78608029D01*
X131161779Y-78608029D02*
X127931250Y-75377500D01*
X109711786Y-111059464D02*
X112019464Y-111059464D01*
X112019464Y-111059464D02*
X120860534Y-111059464D01*
X112056250Y-111022678D02*
X112019464Y-111059464D01*
X117436355Y-100953645D02*
X112056250Y-106333750D01*
X112056250Y-106333750D02*
X112056250Y-111022678D01*
X122263095Y-98845498D02*
X120154948Y-100953645D01*
X120154948Y-100953645D02*
X117436355Y-100953645D01*
X123574997Y-97533596D02*
X122263095Y-98845498D01*
X123574997Y-94833747D02*
X123574997Y-97533596D01*
X97506629Y-126177500D02*
X92892618Y-130791511D01*
X104118750Y-126177500D02*
X97506629Y-126177500D01*
D29*
X128432148Y-95849746D02*
X127416149Y-94833747D01*
X139354403Y-106772001D02*
X128432148Y-95849746D01*
X143292001Y-106772001D02*
X139354403Y-106772001D01*
X144092000Y-107572000D02*
X143292001Y-106772001D01*
D28*
X110541989Y-78898011D02*
X110541989Y-78471110D01*
X103986374Y-94756458D02*
X103986374Y-94696828D01*
X109139428Y-90685076D02*
X108123429Y-89669077D01*
X108123429Y-89669077D02*
X103957729Y-89669077D01*
X102583813Y-110428883D02*
X86807015Y-126205681D01*
X102583813Y-106910794D02*
X102583813Y-110428883D01*
X110541989Y-79973205D02*
X110541989Y-78471110D01*
X110541989Y-81525404D02*
X110541989Y-79973205D01*
X103325000Y-89036348D02*
X103325000Y-87057413D01*
X103957729Y-89669077D02*
X103325000Y-89036348D01*
X103325000Y-87057413D02*
X104179665Y-84942044D01*
X104179665Y-84942044D02*
X104219209Y-84902500D01*
X104219209Y-84902500D02*
X107164893Y-84902500D01*
X107164893Y-84902500D02*
X110541989Y-81525404D01*
X109472655Y-77401776D02*
X110541989Y-78471110D01*
X109472655Y-74786095D02*
X109472655Y-77401776D01*
X110815390Y-73443360D02*
X109472655Y-74786095D01*
X115695044Y-74459359D02*
X114679045Y-73443360D01*
X114679045Y-73443360D02*
X110815390Y-73443360D01*
D29*
X120930828Y-102158172D02*
X120470000Y-102619000D01*
X141211347Y-107231347D02*
X139052347Y-107231347D01*
X144092000Y-110112000D02*
X141211347Y-107231347D01*
X139052347Y-107231347D02*
X133932000Y-102111000D01*
X133932000Y-102111000D02*
X132014411Y-102111000D01*
X132014411Y-102111000D02*
X131967239Y-102158172D01*
X131967239Y-102158172D02*
X120930828Y-102158172D01*
D28*
X103710000Y-94360000D02*
X102711250Y-95358750D01*
X102600000Y-93250000D02*
X103710000Y-94360000D01*
X103957729Y-89669077D02*
X102600000Y-91026806D01*
X102600000Y-91026806D02*
X102600000Y-93250000D01*
X103986374Y-94696828D02*
X103283202Y-95400000D01*
X101146973Y-106910794D02*
X102583813Y-106910794D01*
X99854775Y-106910794D02*
X101146973Y-106910794D01*
X97060000Y-104116019D02*
X99854775Y-106910794D01*
X97060000Y-100040000D02*
X97060000Y-104116019D01*
X103880000Y-94780000D02*
X102320000Y-94780000D01*
X102320000Y-94780000D02*
X97060000Y-100040000D01*
X117097605Y-63747488D02*
X117097605Y-62245393D01*
X117097605Y-65573645D02*
X117097605Y-63747488D01*
X111472500Y-69027500D02*
X113643750Y-69027500D01*
X110815390Y-71865390D02*
X110430000Y-71480000D01*
X113643750Y-69027500D02*
X117097605Y-65573645D01*
X110815390Y-73443360D02*
X110815390Y-71865390D01*
X110430000Y-71480000D02*
X110430000Y-69970000D01*
X110430000Y-69970000D02*
X111340000Y-69060000D01*
X111340000Y-69060000D02*
X111440000Y-69060000D01*
X111440000Y-69060000D02*
X111472500Y-69027500D01*
X198237665Y-88411838D02*
X198237665Y-87227665D01*
X197168331Y-89481172D02*
X198237665Y-88411838D01*
X198237665Y-87227665D02*
X197200000Y-86190000D01*
X203723946Y-105706890D02*
X203723946Y-102913946D01*
X199368750Y-88358750D02*
X197200000Y-86190000D01*
X199368750Y-89665000D02*
X199368750Y-88358750D01*
X200956250Y-91252500D02*
X199368750Y-89665000D01*
X200956250Y-94427500D02*
X200956250Y-91252500D01*
X196248331Y-95946598D02*
X199437152Y-95946598D01*
X199437152Y-95946598D02*
X200956250Y-94427500D01*
X202062455Y-94427500D02*
X200956250Y-94427500D01*
X203311447Y-95676492D02*
X202062455Y-94427500D01*
X203311447Y-96782697D02*
X203311447Y-95676492D01*
X205718750Y-99190000D02*
X203311447Y-96782697D01*
X203723946Y-102913946D02*
X205718750Y-100919142D01*
X205718750Y-100919142D02*
X205718750Y-99190000D01*
X196987500Y-80933750D02*
X195400000Y-82521250D01*
X191850370Y-79720880D02*
X193812500Y-77758750D01*
X193812500Y-77758750D02*
X195628779Y-77758750D01*
X195628779Y-77758750D02*
X196372823Y-78502794D01*
X195400000Y-82521250D02*
X195400000Y-84390000D01*
X189692716Y-79720880D02*
X191850370Y-79720880D01*
X196372823Y-78502794D02*
X196987500Y-80024174D01*
X195400000Y-84390000D02*
X197200000Y-86190000D01*
X196987500Y-80024174D02*
X196987500Y-80933750D01*
X192114811Y-73255455D02*
X190612716Y-73255455D01*
X194606250Y-75746894D02*
X192114811Y-73255455D01*
X193812500Y-77758750D02*
X194606250Y-76965000D01*
X194606250Y-76965000D02*
X194606250Y-75746894D01*
X184153100Y-62479164D02*
X183137101Y-63495163D01*
X185542264Y-61090000D02*
X184153100Y-62479164D01*
X188256250Y-70898989D02*
X188256250Y-66648671D01*
X190612716Y-73255455D02*
X188256250Y-70898989D01*
X188256250Y-66648671D02*
X190626004Y-64278918D01*
X190626004Y-64278918D02*
X189532568Y-61572568D01*
X189532568Y-61572568D02*
X189050000Y-61090000D01*
X189050000Y-61090000D02*
X185542264Y-61090000D01*
X206118749Y-126341514D02*
X210415141Y-130637906D01*
X205718750Y-125941515D02*
X206118749Y-126341514D01*
D29*
X196248331Y-95946598D02*
X189867513Y-102327416D01*
X164247416Y-102327416D02*
X176566416Y-102327416D01*
X159332000Y-97412000D02*
X164247416Y-102327416D01*
X189867513Y-102327416D02*
X176566416Y-102327416D01*
X176566416Y-102327416D02*
X176381530Y-102327416D01*
D28*
X172431994Y-77308126D02*
X172335995Y-77404125D01*
X178891610Y-92127748D02*
X178950000Y-92069358D01*
X178891610Y-93629843D02*
X178891610Y-92127748D01*
X178950000Y-92069358D02*
X178950000Y-90715218D01*
X178950000Y-90715218D02*
X178987609Y-90677609D01*
X185447225Y-109855560D02*
X185447225Y-107887223D01*
X185447225Y-107887223D02*
X185050002Y-107490000D01*
X185450001Y-107889999D02*
X185050002Y-107490000D01*
X188484896Y-110924894D02*
X185450001Y-107889999D01*
X204302606Y-110924894D02*
X188484896Y-110924894D01*
X206512500Y-108715000D02*
X204302606Y-110924894D01*
X178066083Y-81727500D02*
X173558046Y-81727500D01*
X181112500Y-84773917D02*
X178066083Y-81727500D01*
X178987609Y-90677609D02*
X181112500Y-88552718D01*
X181112500Y-88552718D02*
X181112500Y-84773917D01*
X172431994Y-82853552D02*
X171415995Y-83869551D01*
X173366523Y-79936748D02*
X173366523Y-81919023D01*
X172335995Y-78906220D02*
X173366523Y-79936748D01*
X172335995Y-77404125D02*
X172335995Y-78906220D01*
X173558046Y-81727500D02*
X173366523Y-81919023D01*
X173366523Y-81919023D02*
X172431994Y-82853552D01*
X173968750Y-75771370D02*
X172335995Y-77404125D01*
X173968750Y-68233750D02*
X173968750Y-75771370D01*
X170793750Y-65058750D02*
X173968750Y-68233750D01*
X164860380Y-67643833D02*
X167445463Y-65058750D01*
X167445463Y-65058750D02*
X170793750Y-65058750D01*
X178891610Y-99175268D02*
X177971610Y-100095268D01*
X178891610Y-93629843D02*
X178891610Y-99175268D01*
X216500744Y-125846994D02*
X216500744Y-126052076D01*
X206512500Y-115858750D02*
X216500744Y-125846994D01*
D29*
X164682268Y-100095268D02*
X177971610Y-100095268D01*
X161320000Y-96733000D02*
X164682268Y-100095268D01*
X159332000Y-110112000D02*
X155900000Y-106680000D01*
X155900000Y-87850000D02*
X158220000Y-85530000D01*
X158220000Y-85530000D02*
X160300000Y-85530000D01*
X155900000Y-106680000D02*
X155900000Y-87850000D01*
X160300000Y-85530000D02*
X161320000Y-86550000D01*
X161320000Y-86550000D02*
X161320000Y-96733000D01*
D28*
X224061004Y-106657731D02*
X224061004Y-104301004D01*
X245704724Y-96627433D02*
X246428381Y-97351090D01*
X242067291Y-92990000D02*
X245704724Y-96627433D01*
X240250000Y-92990000D02*
X242067291Y-92990000D01*
X235655990Y-97584010D02*
X240250000Y-92990000D01*
X230777998Y-97584010D02*
X235655990Y-97584010D01*
X224061004Y-104301004D02*
X228161004Y-100201004D01*
X228161004Y-100201004D02*
X230777998Y-97584010D01*
X223181250Y-95221250D02*
X228161004Y-100201004D01*
X221322390Y-95221250D02*
X223181250Y-95221250D01*
X220528640Y-96015000D02*
X221322390Y-95221250D01*
X216585389Y-96897439D02*
X217467828Y-96015000D01*
X217467828Y-96015000D02*
X220528640Y-96015000D01*
D29*
X166028033Y-112598851D02*
X180838136Y-127408954D01*
X180838136Y-127408954D02*
X181238135Y-127808953D01*
X166028033Y-106648033D02*
X166028033Y-112598851D01*
X159332000Y-99952000D02*
X166028033Y-106648033D01*
D28*
X242950000Y-104226490D02*
X243086938Y-104363428D01*
X242950000Y-101390000D02*
X242950000Y-104226490D01*
X245696019Y-101390000D02*
X247379882Y-99706137D01*
X242950000Y-101390000D02*
X245696019Y-101390000D01*
D29*
X180241773Y-127786811D02*
X180241773Y-127894314D01*
X179841774Y-127494315D02*
X180241773Y-127894314D01*
X159332000Y-102492000D02*
X165574022Y-108734022D01*
X165574022Y-113226563D02*
X179841774Y-127494315D01*
X165574022Y-108734022D02*
X165574022Y-113226563D01*
X165120011Y-110820011D02*
X165120011Y-114217310D01*
X178363001Y-127460300D02*
X178763000Y-127860299D01*
X159332000Y-105032000D02*
X165120011Y-110820011D01*
X165120011Y-114217310D02*
X178363001Y-127460300D01*
X178763000Y-127860299D02*
X178763000Y-130227000D01*
X170954010Y-138035990D02*
X133794010Y-138035990D01*
X178763000Y-130227000D02*
X170954010Y-138035990D01*
X133794010Y-138035990D02*
X133680000Y-138150000D01*
X133680000Y-138150000D02*
X133680000Y-138220000D01*
X177254567Y-127429863D02*
X177654566Y-127829862D01*
X164666000Y-112906000D02*
X164666000Y-114841296D01*
X159332000Y-107572000D02*
X164666000Y-112906000D01*
X164666000Y-114841296D02*
X177254567Y-127429863D01*
X181352701Y-141274299D02*
X180003000Y-142624000D01*
X185765033Y-141274299D02*
X181352701Y-141274299D01*
X181349235Y-139245765D02*
X180003000Y-140592000D01*
X184236423Y-139245765D02*
X181349235Y-139245765D01*
D27*
X178128000Y-140592000D02*
X178128000Y-142624000D01*
X178128000Y-139322000D02*
X178128000Y-140592000D01*
X182707813Y-137217231D02*
X180232769Y-137217231D01*
X180232769Y-137217231D02*
X178128000Y-139322000D01*
D29*
X168782000Y-140012000D02*
X170182034Y-140012000D01*
X170182034Y-140012000D02*
X170362001Y-140191967D01*
X170362001Y-140191967D02*
X170762000Y-140591966D01*
D27*
X132590000Y-141870762D02*
X132590000Y-142790000D01*
X132590000Y-126604828D02*
X132590000Y-141870762D01*
X139274828Y-119920000D02*
X132590000Y-126604828D01*
X150710000Y-119920000D02*
X139274828Y-119920000D01*
D29*
X117941505Y-138594368D02*
X115804368Y-138594368D01*
X118791504Y-139444367D02*
X117941505Y-138594368D01*
X112710000Y-135500000D02*
X112710000Y-131300000D01*
X115804368Y-138594368D02*
X112710000Y-135500000D01*
X110310000Y-134520007D02*
X110310000Y-131300000D01*
X117262894Y-141472901D02*
X110310000Y-134520007D01*
M02*
