G04 #@! TF.GenerationSoftware,KiCad,Pcbnew,(5.1.4)-1*
G04 #@! TF.CreationDate,2023-12-29T15:47:13-05:00*
G04 #@! TF.ProjectId,ThumbsUp,5468756d-6273-4557-902e-6b696361645f,rev?*
G04 #@! TF.SameCoordinates,Original*
G04 #@! TF.FileFunction,Paste,Bot*
G04 #@! TF.FilePolarity,Positive*
%FSLAX46Y46*%
G04 Gerber Fmt 4.6, Leading zero omitted, Abs format (unit mm)*
G04 Created by KiCad (PCBNEW (5.1.4)-1) date 2023-12-29 15:47:13*
%MOMM*%
%LPD*%
G04 APERTURE LIST*
%ADD10R,1.200000X0.900000*%
%ADD11C,0.100000*%
%ADD12C,0.975000*%
%ADD13R,1.800000X1.100000*%
%ADD14C,2.600000*%
%ADD15R,0.900000X1.200000*%
G04 APERTURE END LIST*
D10*
X110310000Y-131300000D03*
X110310000Y-128000000D03*
X112710000Y-131300000D03*
X112710000Y-128000000D03*
D11*
G36*
X180270642Y-139893174D02*
G01*
X180294303Y-139896684D01*
X180317507Y-139902496D01*
X180340029Y-139910554D01*
X180361653Y-139920782D01*
X180382170Y-139933079D01*
X180401383Y-139947329D01*
X180419107Y-139963393D01*
X180435171Y-139981117D01*
X180449421Y-140000330D01*
X180461718Y-140020847D01*
X180471946Y-140042471D01*
X180480004Y-140064993D01*
X180485816Y-140088197D01*
X180489326Y-140111858D01*
X180490500Y-140135750D01*
X180490500Y-141048250D01*
X180489326Y-141072142D01*
X180485816Y-141095803D01*
X180480004Y-141119007D01*
X180471946Y-141141529D01*
X180461718Y-141163153D01*
X180449421Y-141183670D01*
X180435171Y-141202883D01*
X180419107Y-141220607D01*
X180401383Y-141236671D01*
X180382170Y-141250921D01*
X180361653Y-141263218D01*
X180340029Y-141273446D01*
X180317507Y-141281504D01*
X180294303Y-141287316D01*
X180270642Y-141290826D01*
X180246750Y-141292000D01*
X179759250Y-141292000D01*
X179735358Y-141290826D01*
X179711697Y-141287316D01*
X179688493Y-141281504D01*
X179665971Y-141273446D01*
X179644347Y-141263218D01*
X179623830Y-141250921D01*
X179604617Y-141236671D01*
X179586893Y-141220607D01*
X179570829Y-141202883D01*
X179556579Y-141183670D01*
X179544282Y-141163153D01*
X179534054Y-141141529D01*
X179525996Y-141119007D01*
X179520184Y-141095803D01*
X179516674Y-141072142D01*
X179515500Y-141048250D01*
X179515500Y-140135750D01*
X179516674Y-140111858D01*
X179520184Y-140088197D01*
X179525996Y-140064993D01*
X179534054Y-140042471D01*
X179544282Y-140020847D01*
X179556579Y-140000330D01*
X179570829Y-139981117D01*
X179586893Y-139963393D01*
X179604617Y-139947329D01*
X179623830Y-139933079D01*
X179644347Y-139920782D01*
X179665971Y-139910554D01*
X179688493Y-139902496D01*
X179711697Y-139896684D01*
X179735358Y-139893174D01*
X179759250Y-139892000D01*
X180246750Y-139892000D01*
X180270642Y-139893174D01*
X180270642Y-139893174D01*
G37*
D12*
X180003000Y-140592000D03*
D11*
G36*
X178395642Y-139893174D02*
G01*
X178419303Y-139896684D01*
X178442507Y-139902496D01*
X178465029Y-139910554D01*
X178486653Y-139920782D01*
X178507170Y-139933079D01*
X178526383Y-139947329D01*
X178544107Y-139963393D01*
X178560171Y-139981117D01*
X178574421Y-140000330D01*
X178586718Y-140020847D01*
X178596946Y-140042471D01*
X178605004Y-140064993D01*
X178610816Y-140088197D01*
X178614326Y-140111858D01*
X178615500Y-140135750D01*
X178615500Y-141048250D01*
X178614326Y-141072142D01*
X178610816Y-141095803D01*
X178605004Y-141119007D01*
X178596946Y-141141529D01*
X178586718Y-141163153D01*
X178574421Y-141183670D01*
X178560171Y-141202883D01*
X178544107Y-141220607D01*
X178526383Y-141236671D01*
X178507170Y-141250921D01*
X178486653Y-141263218D01*
X178465029Y-141273446D01*
X178442507Y-141281504D01*
X178419303Y-141287316D01*
X178395642Y-141290826D01*
X178371750Y-141292000D01*
X177884250Y-141292000D01*
X177860358Y-141290826D01*
X177836697Y-141287316D01*
X177813493Y-141281504D01*
X177790971Y-141273446D01*
X177769347Y-141263218D01*
X177748830Y-141250921D01*
X177729617Y-141236671D01*
X177711893Y-141220607D01*
X177695829Y-141202883D01*
X177681579Y-141183670D01*
X177669282Y-141163153D01*
X177659054Y-141141529D01*
X177650996Y-141119007D01*
X177645184Y-141095803D01*
X177641674Y-141072142D01*
X177640500Y-141048250D01*
X177640500Y-140135750D01*
X177641674Y-140111858D01*
X177645184Y-140088197D01*
X177650996Y-140064993D01*
X177659054Y-140042471D01*
X177669282Y-140020847D01*
X177681579Y-140000330D01*
X177695829Y-139981117D01*
X177711893Y-139963393D01*
X177729617Y-139947329D01*
X177748830Y-139933079D01*
X177769347Y-139920782D01*
X177790971Y-139910554D01*
X177813493Y-139902496D01*
X177836697Y-139896684D01*
X177860358Y-139893174D01*
X177884250Y-139892000D01*
X178371750Y-139892000D01*
X178395642Y-139893174D01*
X178395642Y-139893174D01*
G37*
D12*
X178128000Y-140592000D03*
D11*
G36*
X178395642Y-141925174D02*
G01*
X178419303Y-141928684D01*
X178442507Y-141934496D01*
X178465029Y-141942554D01*
X178486653Y-141952782D01*
X178507170Y-141965079D01*
X178526383Y-141979329D01*
X178544107Y-141995393D01*
X178560171Y-142013117D01*
X178574421Y-142032330D01*
X178586718Y-142052847D01*
X178596946Y-142074471D01*
X178605004Y-142096993D01*
X178610816Y-142120197D01*
X178614326Y-142143858D01*
X178615500Y-142167750D01*
X178615500Y-143080250D01*
X178614326Y-143104142D01*
X178610816Y-143127803D01*
X178605004Y-143151007D01*
X178596946Y-143173529D01*
X178586718Y-143195153D01*
X178574421Y-143215670D01*
X178560171Y-143234883D01*
X178544107Y-143252607D01*
X178526383Y-143268671D01*
X178507170Y-143282921D01*
X178486653Y-143295218D01*
X178465029Y-143305446D01*
X178442507Y-143313504D01*
X178419303Y-143319316D01*
X178395642Y-143322826D01*
X178371750Y-143324000D01*
X177884250Y-143324000D01*
X177860358Y-143322826D01*
X177836697Y-143319316D01*
X177813493Y-143313504D01*
X177790971Y-143305446D01*
X177769347Y-143295218D01*
X177748830Y-143282921D01*
X177729617Y-143268671D01*
X177711893Y-143252607D01*
X177695829Y-143234883D01*
X177681579Y-143215670D01*
X177669282Y-143195153D01*
X177659054Y-143173529D01*
X177650996Y-143151007D01*
X177645184Y-143127803D01*
X177641674Y-143104142D01*
X177640500Y-143080250D01*
X177640500Y-142167750D01*
X177641674Y-142143858D01*
X177645184Y-142120197D01*
X177650996Y-142096993D01*
X177659054Y-142074471D01*
X177669282Y-142052847D01*
X177681579Y-142032330D01*
X177695829Y-142013117D01*
X177711893Y-141995393D01*
X177729617Y-141979329D01*
X177748830Y-141965079D01*
X177769347Y-141952782D01*
X177790971Y-141942554D01*
X177813493Y-141934496D01*
X177836697Y-141928684D01*
X177860358Y-141925174D01*
X177884250Y-141924000D01*
X178371750Y-141924000D01*
X178395642Y-141925174D01*
X178395642Y-141925174D01*
G37*
D12*
X178128000Y-142624000D03*
D11*
G36*
X180270642Y-141925174D02*
G01*
X180294303Y-141928684D01*
X180317507Y-141934496D01*
X180340029Y-141942554D01*
X180361653Y-141952782D01*
X180382170Y-141965079D01*
X180401383Y-141979329D01*
X180419107Y-141995393D01*
X180435171Y-142013117D01*
X180449421Y-142032330D01*
X180461718Y-142052847D01*
X180471946Y-142074471D01*
X180480004Y-142096993D01*
X180485816Y-142120197D01*
X180489326Y-142143858D01*
X180490500Y-142167750D01*
X180490500Y-143080250D01*
X180489326Y-143104142D01*
X180485816Y-143127803D01*
X180480004Y-143151007D01*
X180471946Y-143173529D01*
X180461718Y-143195153D01*
X180449421Y-143215670D01*
X180435171Y-143234883D01*
X180419107Y-143252607D01*
X180401383Y-143268671D01*
X180382170Y-143282921D01*
X180361653Y-143295218D01*
X180340029Y-143305446D01*
X180317507Y-143313504D01*
X180294303Y-143319316D01*
X180270642Y-143322826D01*
X180246750Y-143324000D01*
X179759250Y-143324000D01*
X179735358Y-143322826D01*
X179711697Y-143319316D01*
X179688493Y-143313504D01*
X179665971Y-143305446D01*
X179644347Y-143295218D01*
X179623830Y-143282921D01*
X179604617Y-143268671D01*
X179586893Y-143252607D01*
X179570829Y-143234883D01*
X179556579Y-143215670D01*
X179544282Y-143195153D01*
X179534054Y-143173529D01*
X179525996Y-143151007D01*
X179520184Y-143127803D01*
X179516674Y-143104142D01*
X179515500Y-143080250D01*
X179515500Y-142167750D01*
X179516674Y-142143858D01*
X179520184Y-142120197D01*
X179525996Y-142096993D01*
X179534054Y-142074471D01*
X179544282Y-142052847D01*
X179556579Y-142032330D01*
X179570829Y-142013117D01*
X179586893Y-141995393D01*
X179604617Y-141979329D01*
X179623830Y-141965079D01*
X179644347Y-141952782D01*
X179665971Y-141942554D01*
X179688493Y-141934496D01*
X179711697Y-141928684D01*
X179735358Y-141925174D01*
X179759250Y-141924000D01*
X180246750Y-141924000D01*
X180270642Y-141925174D01*
X180270642Y-141925174D01*
G37*
D12*
X180003000Y-142624000D03*
D13*
X162582000Y-140012000D03*
X168782000Y-143712000D03*
X162582000Y-143712000D03*
X168782000Y-140012000D03*
D14*
X243086938Y-104363428D03*
D11*
G36*
X243805288Y-102671100D02*
G01*
X244779266Y-105081778D01*
X242368588Y-106055756D01*
X241394610Y-103645078D01*
X243805288Y-102671100D01*
X243805288Y-102671100D01*
G37*
D14*
X231553830Y-106650330D03*
D11*
G36*
X232272180Y-104958002D02*
G01*
X233246158Y-107368680D01*
X230835480Y-108342658D01*
X229861502Y-105931980D01*
X232272180Y-104958002D01*
X232272180Y-104958002D01*
G37*
D14*
X190612716Y-73255455D03*
D11*
G36*
X191331066Y-71563127D02*
G01*
X192305044Y-73973805D01*
X189894366Y-74947783D01*
X188920388Y-72537105D01*
X191331066Y-71563127D01*
X191331066Y-71563127D01*
G37*
D14*
X179079608Y-75542357D03*
D11*
G36*
X179797958Y-73850029D02*
G01*
X180771936Y-76260707D01*
X178361258Y-77234685D01*
X177387280Y-74824007D01*
X179797958Y-73850029D01*
X179797958Y-73850029D01*
G37*
D14*
X197168331Y-89481172D03*
D11*
G36*
X197886681Y-87788844D02*
G01*
X198860659Y-90199522D01*
X196449981Y-91173500D01*
X195476003Y-88762822D01*
X197886681Y-87788844D01*
X197886681Y-87788844D01*
G37*
D14*
X185635223Y-91768074D03*
D11*
G36*
X186353573Y-90075746D02*
G01*
X187327551Y-92486424D01*
X184916873Y-93460402D01*
X183942895Y-91049724D01*
X186353573Y-90075746D01*
X186353573Y-90075746D01*
G37*
D14*
X203723946Y-105706890D03*
D11*
G36*
X204442296Y-104014562D02*
G01*
X205416274Y-106425240D01*
X203005596Y-107399218D01*
X202031618Y-104988540D01*
X204442296Y-104014562D01*
X204442296Y-104014562D01*
G37*
D14*
X192190838Y-107993792D03*
D11*
G36*
X192909188Y-106301464D02*
G01*
X193883166Y-108712142D01*
X191472488Y-109686120D01*
X190498510Y-107275442D01*
X192909188Y-106301464D01*
X192909188Y-106301464D01*
G37*
D14*
X224061004Y-106657731D03*
D11*
G36*
X224779354Y-104965403D02*
G01*
X225753332Y-107376081D01*
X223342654Y-108350059D01*
X222368676Y-105939381D01*
X224779354Y-104965403D01*
X224779354Y-104965403D01*
G37*
D14*
X212527896Y-108944633D03*
D11*
G36*
X213246246Y-107252305D02*
G01*
X214220224Y-109662983D01*
X211809546Y-110636961D01*
X210835568Y-108226283D01*
X213246246Y-107252305D01*
X213246246Y-107252305D01*
G37*
D14*
X117097605Y-62245393D03*
D11*
G36*
X115405277Y-62963743D02*
G01*
X116379255Y-60553065D01*
X118789933Y-61527043D01*
X117815955Y-63937721D01*
X115405277Y-62963743D01*
X115405277Y-62963743D01*
G37*
D14*
X126982444Y-68611904D03*
D11*
G36*
X125290116Y-69330254D02*
G01*
X126264094Y-66919576D01*
X128674772Y-67893554D01*
X127700794Y-70304232D01*
X125290116Y-69330254D01*
X125290116Y-69330254D01*
G37*
D14*
X178891610Y-93629843D03*
D11*
G36*
X179609960Y-91937515D02*
G01*
X180583938Y-94348193D01*
X178173260Y-95322171D01*
X177199282Y-92911493D01*
X179609960Y-91937515D01*
X179609960Y-91937515D01*
G37*
D14*
X167358502Y-95916745D03*
D11*
G36*
X168076852Y-94224417D02*
G01*
X169050830Y-96635095D01*
X166640152Y-97609073D01*
X165666174Y-95198395D01*
X168076852Y-94224417D01*
X168076852Y-94224417D01*
G37*
D14*
X64623382Y-93353366D03*
D11*
G36*
X62931054Y-94071716D02*
G01*
X63905032Y-91661038D01*
X66315710Y-92635016D01*
X65341732Y-95045694D01*
X62931054Y-94071716D01*
X62931054Y-94071716D01*
G37*
D14*
X74508221Y-99719877D03*
D11*
G36*
X72815893Y-100438227D02*
G01*
X73789871Y-98027549D01*
X76200549Y-99001527D01*
X75226571Y-101412205D01*
X72815893Y-100438227D01*
X72815893Y-100438227D01*
G37*
D14*
X83649316Y-95647669D03*
D11*
G36*
X81956988Y-96366019D02*
G01*
X82930966Y-93955341D01*
X85341644Y-94929319D01*
X84367666Y-97339997D01*
X81956988Y-96366019D01*
X81956988Y-96366019D01*
G37*
D14*
X93534155Y-102014180D03*
D11*
G36*
X91841827Y-102732530D02*
G01*
X92815805Y-100321852D01*
X95226483Y-101295830D01*
X94252505Y-103706508D01*
X91841827Y-102732530D01*
X91841827Y-102732530D01*
G37*
D14*
X103986374Y-94696828D03*
D11*
G36*
X102294046Y-95415178D02*
G01*
X103268024Y-93004500D01*
X105678702Y-93978478D01*
X104704724Y-96389156D01*
X102294046Y-95415178D01*
X102294046Y-95415178D01*
G37*
D14*
X113871213Y-101063339D03*
D11*
G36*
X112178885Y-101781689D02*
G01*
X113152863Y-99371011D01*
X115563541Y-100344989D01*
X114589563Y-102755667D01*
X112178885Y-101781689D01*
X112178885Y-101781689D01*
G37*
D14*
X185447225Y-109855560D03*
D11*
G36*
X186165575Y-108163232D02*
G01*
X187139553Y-110573910D01*
X184728875Y-111547888D01*
X183754897Y-109137210D01*
X186165575Y-108163232D01*
X186165575Y-108163232D01*
G37*
D14*
X173914117Y-112142462D03*
D11*
G36*
X174632467Y-110450134D02*
G01*
X175606445Y-112860812D01*
X173195767Y-113834790D01*
X172221789Y-111424112D01*
X174632467Y-110450134D01*
X174632467Y-110450134D01*
G37*
D14*
X135374326Y-66394063D03*
D11*
G36*
X133681998Y-67112413D02*
G01*
X134655976Y-64701735D01*
X137066654Y-65675713D01*
X136092676Y-68086391D01*
X133681998Y-67112413D01*
X133681998Y-67112413D01*
G37*
D14*
X145259165Y-72760574D03*
D11*
G36*
X143566837Y-73478924D02*
G01*
X144540815Y-71068246D01*
X146951493Y-72042224D01*
X145977515Y-74452902D01*
X143566837Y-73478924D01*
X143566837Y-73478924D01*
G37*
D14*
X122263095Y-98845498D03*
D11*
G36*
X120570767Y-99563848D02*
G01*
X121544745Y-97153170D01*
X123955423Y-98127148D01*
X122981445Y-100537826D01*
X120570767Y-99563848D01*
X120570767Y-99563848D01*
G37*
D14*
X132147934Y-105212009D03*
D11*
G36*
X130455606Y-105930359D02*
G01*
X131429584Y-103519681D01*
X133840262Y-104493659D01*
X132866284Y-106904337D01*
X130455606Y-105930359D01*
X130455606Y-105930359D01*
G37*
D14*
X128818710Y-82619781D03*
D11*
G36*
X127126382Y-83338131D02*
G01*
X128100360Y-80927453D01*
X130511038Y-81901431D01*
X129537060Y-84312109D01*
X127126382Y-83338131D01*
X127126382Y-83338131D01*
G37*
D14*
X138703549Y-88986292D03*
D11*
G36*
X137011221Y-89704642D02*
G01*
X137985199Y-87293964D01*
X140395877Y-88267942D01*
X139421899Y-90678620D01*
X137011221Y-89704642D01*
X137011221Y-89704642D01*
G37*
D14*
X172335995Y-77404125D03*
D11*
G36*
X173054345Y-75711797D02*
G01*
X174028323Y-78122475D01*
X171617645Y-79096453D01*
X170643667Y-76685775D01*
X173054345Y-75711797D01*
X173054345Y-75711797D01*
G37*
D14*
X160802887Y-79691027D03*
D11*
G36*
X161521237Y-77998699D02*
G01*
X162495215Y-80409377D01*
X160084537Y-81383355D01*
X159110559Y-78972677D01*
X161521237Y-77998699D01*
X161521237Y-77998699D01*
G37*
D14*
X110541989Y-78471110D03*
D11*
G36*
X108849661Y-79189460D02*
G01*
X109823639Y-76778782D01*
X112234317Y-77752760D01*
X111260339Y-80163438D01*
X108849661Y-79189460D01*
X108849661Y-79189460D01*
G37*
D14*
X120426828Y-84837621D03*
D11*
G36*
X118734500Y-85555971D02*
G01*
X119708478Y-83145293D01*
X122119156Y-84119271D01*
X121145178Y-86529949D01*
X118734500Y-85555971D01*
X118734500Y-85555971D01*
G37*
D10*
X199368750Y-121352500D03*
X199368750Y-124652500D03*
X196987500Y-121352500D03*
X196987500Y-124652500D03*
X185081250Y-121352500D03*
X185081250Y-124652500D03*
X187462500Y-121352500D03*
X187462500Y-124652500D03*
X189843750Y-121352500D03*
X189843750Y-124652500D03*
X192225000Y-121352500D03*
X192225000Y-124652500D03*
D15*
X165546250Y-126369000D03*
X162246250Y-126369000D03*
X165546250Y-128750250D03*
X162246250Y-128750250D03*
X165546250Y-131131500D03*
X162246250Y-131131500D03*
X165546250Y-133512750D03*
X162246250Y-133512750D03*
X157380000Y-126367750D03*
X154080000Y-126367750D03*
X157380000Y-128749000D03*
X154080000Y-128749000D03*
X157380000Y-131130250D03*
X154080000Y-131130250D03*
X157380000Y-133511500D03*
X154080000Y-133511500D03*
D10*
X204131250Y-121352500D03*
X204131250Y-124652500D03*
X201750000Y-121352500D03*
X201750000Y-124652500D03*
X194606250Y-121352500D03*
X194606250Y-124652500D03*
D15*
X165546250Y-135894000D03*
X162246250Y-135894000D03*
X157380000Y-135892750D03*
X154080000Y-135892750D03*
D10*
X182700000Y-121352500D03*
X182700000Y-124652500D03*
D15*
X165546250Y-123987750D03*
X162246250Y-123987750D03*
X157380000Y-123986500D03*
X154080000Y-123986500D03*
D10*
X123168750Y-121352500D03*
X123168750Y-124652500D03*
D15*
X138185500Y-123961750D03*
X141485500Y-123961750D03*
X145766500Y-124006500D03*
X149066500Y-124006500D03*
D10*
X101737500Y-121352500D03*
X101737500Y-124652500D03*
X104118750Y-121352500D03*
X104118750Y-124652500D03*
X111262500Y-121352500D03*
X111262500Y-124652500D03*
D15*
X138185500Y-135868000D03*
X141485500Y-135868000D03*
X145766500Y-135912750D03*
X149066500Y-135912750D03*
D10*
X106500000Y-121352500D03*
X106500000Y-124652500D03*
X108881250Y-121352500D03*
X108881250Y-124652500D03*
X120787500Y-121352500D03*
X120787500Y-124652500D03*
X118406250Y-121352500D03*
X118406250Y-124652500D03*
X116025000Y-121352500D03*
X116025000Y-124652500D03*
X113643750Y-121352500D03*
X113643750Y-124652500D03*
D15*
X138185500Y-126343000D03*
X141485500Y-126343000D03*
X138185500Y-128724250D03*
X141485500Y-128724250D03*
X138185500Y-131105500D03*
X141485500Y-131105500D03*
X138185500Y-133486750D03*
X141485500Y-133486750D03*
X145766500Y-126387750D03*
X149066500Y-126387750D03*
X145766500Y-128769000D03*
X149066500Y-128769000D03*
X145766500Y-131150250D03*
X149066500Y-131150250D03*
X145766500Y-133531500D03*
X149066500Y-133531500D03*
M02*
