G04 #@! TF.GenerationSoftware,KiCad,Pcbnew,(5.1.4)-1*
G04 #@! TF.CreationDate,2023-12-29T15:47:13-05:00*
G04 #@! TF.ProjectId,ThumbsUp,5468756d-6273-4557-902e-6b696361645f,rev?*
G04 #@! TF.SameCoordinates,Original*
G04 #@! TF.FileFunction,Legend,Bot*
G04 #@! TF.FilePolarity,Positive*
%FSLAX46Y46*%
G04 Gerber Fmt 4.6, Leading zero omitted, Abs format (unit mm)*
G04 Created by KiCad (PCBNEW (5.1.4)-1) date 2023-12-29 15:47:13*
%MOMM*%
%LPD*%
G04 APERTURE LIST*
%ADD10C,0.150000*%
%ADD11C,0.120000*%
%ADD12C,0.254000*%
G04 APERTURE END LIST*
D10*
X115723714Y-128997952D02*
X114295142Y-128997952D01*
X114723714Y-130474142D02*
X115009428Y-129712238D01*
X115295142Y-130474142D01*
X159111428Y-118118571D02*
X158968571Y-118166190D01*
X158920952Y-118213809D01*
X158873333Y-118309047D01*
X158873333Y-118451904D01*
X158920952Y-118547142D01*
X158968571Y-118594761D01*
X159063809Y-118642380D01*
X159444761Y-118642380D01*
X159444761Y-117642380D01*
X159111428Y-117642380D01*
X159016190Y-117690000D01*
X158968571Y-117737619D01*
X158920952Y-117832857D01*
X158920952Y-117928095D01*
X158968571Y-118023333D01*
X159016190Y-118070952D01*
X159111428Y-118118571D01*
X159444761Y-118118571D01*
X158016190Y-118642380D02*
X158016190Y-118118571D01*
X158063809Y-118023333D01*
X158159047Y-117975714D01*
X158349523Y-117975714D01*
X158444761Y-118023333D01*
X158016190Y-118594761D02*
X158111428Y-118642380D01*
X158349523Y-118642380D01*
X158444761Y-118594761D01*
X158492380Y-118499523D01*
X158492380Y-118404285D01*
X158444761Y-118309047D01*
X158349523Y-118261428D01*
X158111428Y-118261428D01*
X158016190Y-118213809D01*
X157682857Y-117975714D02*
X157301904Y-117975714D01*
X157540000Y-117642380D02*
X157540000Y-118499523D01*
X157492380Y-118594761D01*
X157397142Y-118642380D01*
X157301904Y-118642380D01*
X157111428Y-117975714D02*
X156730476Y-117975714D01*
X156968571Y-117642380D02*
X156968571Y-118499523D01*
X156920952Y-118594761D01*
X156825714Y-118642380D01*
X156730476Y-118642380D01*
X156016190Y-118594761D02*
X156111428Y-118642380D01*
X156301904Y-118642380D01*
X156397142Y-118594761D01*
X156444761Y-118499523D01*
X156444761Y-118118571D01*
X156397142Y-118023333D01*
X156301904Y-117975714D01*
X156111428Y-117975714D01*
X156016190Y-118023333D01*
X155968571Y-118118571D01*
X155968571Y-118213809D01*
X156444761Y-118309047D01*
X155540000Y-118642380D02*
X155540000Y-117975714D01*
X155540000Y-118166190D02*
X155492380Y-118070952D01*
X155444761Y-118023333D01*
X155349523Y-117975714D01*
X155254285Y-117975714D01*
X155016190Y-117975714D02*
X154778095Y-118642380D01*
X154540000Y-117975714D02*
X154778095Y-118642380D01*
X154873333Y-118880476D01*
X154920952Y-118928095D01*
X155016190Y-118975714D01*
X158873333Y-119911428D02*
X158111428Y-119911428D01*
X158492380Y-120292380D02*
X158492380Y-119530476D01*
X157063809Y-120292380D02*
X157397142Y-119816190D01*
X157635238Y-120292380D02*
X157635238Y-119292380D01*
X157254285Y-119292380D01*
X157159047Y-119340000D01*
X157111428Y-119387619D01*
X157063809Y-119482857D01*
X157063809Y-119625714D01*
X157111428Y-119720952D01*
X157159047Y-119768571D01*
X157254285Y-119816190D01*
X157635238Y-119816190D01*
X156635238Y-119768571D02*
X156301904Y-119768571D01*
X156159047Y-120292380D02*
X156635238Y-120292380D01*
X156635238Y-119292380D01*
X156159047Y-119292380D01*
X155730476Y-120292380D02*
X155730476Y-119292380D01*
X155492380Y-119292380D01*
X155349523Y-119340000D01*
X155254285Y-119435238D01*
X155206666Y-119530476D01*
X155159047Y-119720952D01*
X155159047Y-119863809D01*
X155206666Y-120054285D01*
X155254285Y-120149523D01*
X155349523Y-120244761D01*
X155492380Y-120292380D01*
X155730476Y-120292380D01*
X158730476Y-121942380D02*
X158730476Y-120942380D01*
X158730476Y-121418571D02*
X158159047Y-121418571D01*
X158159047Y-121942380D02*
X158159047Y-120942380D01*
X157682857Y-121418571D02*
X157349523Y-121418571D01*
X157206666Y-121942380D02*
X157682857Y-121942380D01*
X157682857Y-120942380D01*
X157206666Y-120942380D01*
X156206666Y-121942380D02*
X156540000Y-121466190D01*
X156778095Y-121942380D02*
X156778095Y-120942380D01*
X156397142Y-120942380D01*
X156301904Y-120990000D01*
X156254285Y-121037619D01*
X156206666Y-121132857D01*
X156206666Y-121275714D01*
X156254285Y-121370952D01*
X156301904Y-121418571D01*
X156397142Y-121466190D01*
X156778095Y-121466190D01*
X155778095Y-121418571D02*
X155444761Y-121418571D01*
X155301904Y-121942380D02*
X155778095Y-121942380D01*
X155778095Y-120942380D01*
X155301904Y-120942380D01*
X160202380Y-142492380D02*
X160535714Y-142016190D01*
X160773809Y-142492380D02*
X160773809Y-141492380D01*
X160392857Y-141492380D01*
X160297619Y-141540000D01*
X160250000Y-141587619D01*
X160202380Y-141682857D01*
X160202380Y-141825714D01*
X160250000Y-141920952D01*
X160297619Y-141968571D01*
X160392857Y-142016190D01*
X160773809Y-142016190D01*
X159773809Y-141968571D02*
X159440476Y-141968571D01*
X159297619Y-142492380D02*
X159773809Y-142492380D01*
X159773809Y-141492380D01*
X159297619Y-141492380D01*
X158916666Y-142444761D02*
X158773809Y-142492380D01*
X158535714Y-142492380D01*
X158440476Y-142444761D01*
X158392857Y-142397142D01*
X158345238Y-142301904D01*
X158345238Y-142206666D01*
X158392857Y-142111428D01*
X158440476Y-142063809D01*
X158535714Y-142016190D01*
X158726190Y-141968571D01*
X158821428Y-141920952D01*
X158869047Y-141873333D01*
X158916666Y-141778095D01*
X158916666Y-141682857D01*
X158869047Y-141587619D01*
X158821428Y-141540000D01*
X158726190Y-141492380D01*
X158488095Y-141492380D01*
X158345238Y-141540000D01*
X157916666Y-141968571D02*
X157583333Y-141968571D01*
X157440476Y-142492380D02*
X157916666Y-142492380D01*
X157916666Y-141492380D01*
X157440476Y-141492380D01*
X157154761Y-141492380D02*
X156583333Y-141492380D01*
X156869047Y-142492380D02*
X156869047Y-141492380D01*
X147632047Y-138964714D02*
X147632047Y-137536142D01*
X146155857Y-137964714D02*
X146917761Y-138250428D01*
X146155857Y-138536142D01*
X140393047Y-138710714D02*
X140393047Y-137282142D01*
X138916857Y-137710714D02*
X139678761Y-137996428D01*
X138916857Y-138282142D01*
X155210952Y-138714285D02*
X155210952Y-140142857D01*
X156687142Y-139714285D02*
X155925238Y-139428571D01*
X156687142Y-139142857D01*
X163030952Y-120756285D02*
X163030952Y-122184857D01*
X164507142Y-121756285D02*
X163745238Y-121470571D01*
X164507142Y-121184857D01*
X98856285Y-123812047D02*
X100284857Y-123812047D01*
X99856285Y-122335857D02*
X99570571Y-123097761D01*
X99284857Y-122335857D01*
X179628285Y-123431047D02*
X181056857Y-123431047D01*
X180628285Y-121954857D02*
X180342571Y-122716761D01*
X180056857Y-121954857D01*
X147338380Y-90253952D02*
X146338380Y-90253952D01*
X146338380Y-90634904D01*
X146386000Y-90730142D01*
X146433619Y-90777761D01*
X146528857Y-90825380D01*
X146671714Y-90825380D01*
X146766952Y-90777761D01*
X146814571Y-90730142D01*
X146862190Y-90634904D01*
X146862190Y-90253952D01*
X147338380Y-91396809D02*
X147290761Y-91301571D01*
X147195523Y-91253952D01*
X146338380Y-91253952D01*
X147338380Y-92206333D02*
X146814571Y-92206333D01*
X146719333Y-92158714D01*
X146671714Y-92063476D01*
X146671714Y-91873000D01*
X146719333Y-91777761D01*
X147290761Y-92206333D02*
X147338380Y-92111095D01*
X147338380Y-91873000D01*
X147290761Y-91777761D01*
X147195523Y-91730142D01*
X147100285Y-91730142D01*
X147005047Y-91777761D01*
X146957428Y-91873000D01*
X146957428Y-92111095D01*
X146909809Y-92206333D01*
X147290761Y-93111095D02*
X147338380Y-93015857D01*
X147338380Y-92825380D01*
X147290761Y-92730142D01*
X147243142Y-92682523D01*
X147147904Y-92634904D01*
X146862190Y-92634904D01*
X146766952Y-92682523D01*
X146719333Y-92730142D01*
X146671714Y-92825380D01*
X146671714Y-93015857D01*
X146719333Y-93111095D01*
X147290761Y-93920619D02*
X147338380Y-93825380D01*
X147338380Y-93634904D01*
X147290761Y-93539666D01*
X147195523Y-93492047D01*
X146814571Y-93492047D01*
X146719333Y-93539666D01*
X146671714Y-93634904D01*
X146671714Y-93825380D01*
X146719333Y-93920619D01*
X146814571Y-93968238D01*
X146909809Y-93968238D01*
X147005047Y-93492047D01*
X147338380Y-95158714D02*
X146338380Y-95158714D01*
X146338380Y-95539666D01*
X146386000Y-95634904D01*
X146433619Y-95682523D01*
X146528857Y-95730142D01*
X146671714Y-95730142D01*
X146766952Y-95682523D01*
X146814571Y-95634904D01*
X146862190Y-95539666D01*
X146862190Y-95158714D01*
X147338380Y-96158714D02*
X146671714Y-96158714D01*
X146862190Y-96158714D02*
X146766952Y-96206333D01*
X146719333Y-96253952D01*
X146671714Y-96349190D01*
X146671714Y-96444428D01*
X147338380Y-96920619D02*
X147290761Y-96825380D01*
X147243142Y-96777761D01*
X147147904Y-96730142D01*
X146862190Y-96730142D01*
X146766952Y-96777761D01*
X146719333Y-96825380D01*
X146671714Y-96920619D01*
X146671714Y-97063476D01*
X146719333Y-97158714D01*
X146766952Y-97206333D01*
X146862190Y-97253952D01*
X147147904Y-97253952D01*
X147243142Y-97206333D01*
X147290761Y-97158714D01*
X147338380Y-97063476D01*
X147338380Y-96920619D01*
X147338380Y-97682523D02*
X146338380Y-97682523D01*
X147052666Y-98015857D01*
X146338380Y-98349190D01*
X147338380Y-98349190D01*
X147338380Y-98825380D02*
X146671714Y-98825380D01*
X146338380Y-98825380D02*
X146386000Y-98777761D01*
X146433619Y-98825380D01*
X146386000Y-98873000D01*
X146338380Y-98825380D01*
X146433619Y-98825380D01*
X147290761Y-99730142D02*
X147338380Y-99634904D01*
X147338380Y-99444428D01*
X147290761Y-99349190D01*
X147243142Y-99301571D01*
X147147904Y-99253952D01*
X146862190Y-99253952D01*
X146766952Y-99301571D01*
X146719333Y-99349190D01*
X146671714Y-99444428D01*
X146671714Y-99634904D01*
X146719333Y-99730142D01*
X147338380Y-100158714D02*
X146671714Y-100158714D01*
X146862190Y-100158714D02*
X146766952Y-100206333D01*
X146719333Y-100253952D01*
X146671714Y-100349190D01*
X146671714Y-100444428D01*
X147338380Y-100920619D02*
X147290761Y-100825380D01*
X147243142Y-100777761D01*
X147147904Y-100730142D01*
X146862190Y-100730142D01*
X146766952Y-100777761D01*
X146719333Y-100825380D01*
X146671714Y-100920619D01*
X146671714Y-101063476D01*
X146719333Y-101158714D01*
X146766952Y-101206333D01*
X146862190Y-101253952D01*
X147147904Y-101253952D01*
X147243142Y-101206333D01*
X147290761Y-101158714D01*
X147338380Y-101063476D01*
X147338380Y-100920619D01*
X146671714Y-102301571D02*
X146671714Y-102682523D01*
X147338380Y-102444428D02*
X146481238Y-102444428D01*
X146386000Y-102492047D01*
X146338380Y-102587285D01*
X146338380Y-102682523D01*
X147338380Y-103444428D02*
X146814571Y-103444428D01*
X146719333Y-103396809D01*
X146671714Y-103301571D01*
X146671714Y-103111095D01*
X146719333Y-103015857D01*
X147290761Y-103444428D02*
X147338380Y-103349190D01*
X147338380Y-103111095D01*
X147290761Y-103015857D01*
X147195523Y-102968238D01*
X147100285Y-102968238D01*
X147005047Y-103015857D01*
X146957428Y-103111095D01*
X146957428Y-103349190D01*
X146909809Y-103444428D01*
X147290761Y-104349190D02*
X147338380Y-104253952D01*
X147338380Y-104063476D01*
X147290761Y-103968238D01*
X147243142Y-103920619D01*
X147147904Y-103873000D01*
X146862190Y-103873000D01*
X146766952Y-103920619D01*
X146719333Y-103968238D01*
X146671714Y-104063476D01*
X146671714Y-104253952D01*
X146719333Y-104349190D01*
X147290761Y-105158714D02*
X147338380Y-105063476D01*
X147338380Y-104873000D01*
X147290761Y-104777761D01*
X147195523Y-104730142D01*
X146814571Y-104730142D01*
X146719333Y-104777761D01*
X146671714Y-104873000D01*
X146671714Y-105063476D01*
X146719333Y-105158714D01*
X146814571Y-105206333D01*
X146909809Y-105206333D01*
X147005047Y-104730142D01*
X146671714Y-106253952D02*
X146671714Y-106634904D01*
X146338380Y-106396809D02*
X147195523Y-106396809D01*
X147290761Y-106444428D01*
X147338380Y-106539666D01*
X147338380Y-106634904D01*
X147338380Y-107111095D02*
X147290761Y-107015857D01*
X147243142Y-106968238D01*
X147147904Y-106920619D01*
X146862190Y-106920619D01*
X146766952Y-106968238D01*
X146719333Y-107015857D01*
X146671714Y-107111095D01*
X146671714Y-107253952D01*
X146719333Y-107349190D01*
X146766952Y-107396809D01*
X146862190Y-107444428D01*
X147147904Y-107444428D01*
X147243142Y-107396809D01*
X147290761Y-107349190D01*
X147338380Y-107253952D01*
X147338380Y-107111095D01*
X146671714Y-108492047D02*
X146671714Y-108873000D01*
X146338380Y-108634904D02*
X147195523Y-108634904D01*
X147290761Y-108682523D01*
X147338380Y-108777761D01*
X147338380Y-108873000D01*
X147338380Y-109206333D02*
X146338380Y-109206333D01*
X147338380Y-109634904D02*
X146814571Y-109634904D01*
X146719333Y-109587285D01*
X146671714Y-109492047D01*
X146671714Y-109349190D01*
X146719333Y-109253952D01*
X146766952Y-109206333D01*
X147290761Y-110492047D02*
X147338380Y-110396809D01*
X147338380Y-110206333D01*
X147290761Y-110111095D01*
X147195523Y-110063476D01*
X146814571Y-110063476D01*
X146719333Y-110111095D01*
X146671714Y-110206333D01*
X146671714Y-110396809D01*
X146719333Y-110492047D01*
X146814571Y-110539666D01*
X146909809Y-110539666D01*
X147005047Y-110063476D01*
X146671714Y-111730142D02*
X147671714Y-111730142D01*
X146719333Y-111730142D02*
X146671714Y-111825380D01*
X146671714Y-112015857D01*
X146719333Y-112111095D01*
X146766952Y-112158714D01*
X146862190Y-112206333D01*
X147147904Y-112206333D01*
X147243142Y-112158714D01*
X147290761Y-112111095D01*
X147338380Y-112015857D01*
X147338380Y-111825380D01*
X147290761Y-111730142D01*
X147338380Y-112777761D02*
X147290761Y-112682523D01*
X147195523Y-112634904D01*
X146338380Y-112634904D01*
X147338380Y-113587285D02*
X146814571Y-113587285D01*
X146719333Y-113539666D01*
X146671714Y-113444428D01*
X146671714Y-113253952D01*
X146719333Y-113158714D01*
X147290761Y-113587285D02*
X147338380Y-113492047D01*
X147338380Y-113253952D01*
X147290761Y-113158714D01*
X147195523Y-113111095D01*
X147100285Y-113111095D01*
X147005047Y-113158714D01*
X146957428Y-113253952D01*
X146957428Y-113492047D01*
X146909809Y-113587285D01*
X146671714Y-113920619D02*
X146671714Y-114301571D01*
X146338380Y-114063476D02*
X147195523Y-114063476D01*
X147290761Y-114111095D01*
X147338380Y-114206333D01*
X147338380Y-114301571D01*
X147290761Y-115015857D02*
X147338380Y-114920619D01*
X147338380Y-114730142D01*
X147290761Y-114634904D01*
X147195523Y-114587285D01*
X146814571Y-114587285D01*
X146719333Y-114634904D01*
X146671714Y-114730142D01*
X146671714Y-114920619D01*
X146719333Y-115015857D01*
X146814571Y-115063476D01*
X146909809Y-115063476D01*
X147005047Y-114587285D01*
X147243142Y-115492047D02*
X147290761Y-115539666D01*
X147338380Y-115492047D01*
X147290761Y-115444428D01*
X147243142Y-115492047D01*
X147338380Y-115492047D01*
X134834738Y-114026619D02*
X134929976Y-113979000D01*
X135025214Y-113883761D01*
X135168071Y-113740904D01*
X135263309Y-113693285D01*
X135358547Y-113693285D01*
X135310928Y-113931380D02*
X135406166Y-113883761D01*
X135501404Y-113788523D01*
X135549023Y-113598047D01*
X135549023Y-113264714D01*
X135501404Y-113074238D01*
X135406166Y-112979000D01*
X135310928Y-112931380D01*
X135120452Y-112931380D01*
X135025214Y-112979000D01*
X134929976Y-113074238D01*
X134882357Y-113264714D01*
X134882357Y-113598047D01*
X134929976Y-113788523D01*
X135025214Y-113883761D01*
X135120452Y-113931380D01*
X135310928Y-113931380D01*
X134453785Y-113931380D02*
X134453785Y-112931380D01*
X134120452Y-113645666D01*
X133787119Y-112931380D01*
X133787119Y-113931380D01*
X133310928Y-113931380D02*
X133310928Y-112931380D01*
X132739500Y-113931380D02*
X133168071Y-113359952D01*
X132739500Y-112931380D02*
X133310928Y-113502809D01*
X132310928Y-113836142D02*
X132263309Y-113883761D01*
X132310928Y-113931380D01*
X132358547Y-113883761D01*
X132310928Y-113836142D01*
X132310928Y-113931380D01*
X132310928Y-113312333D02*
X132263309Y-113359952D01*
X132310928Y-113407571D01*
X132358547Y-113359952D01*
X132310928Y-113312333D01*
X132310928Y-113407571D01*
X135549023Y-114914714D02*
X134834738Y-114914714D01*
X135263309Y-114486142D02*
X135549023Y-115771857D01*
X134929976Y-115343285D02*
X135644261Y-115343285D01*
X135215690Y-115771857D02*
X134929976Y-114486142D01*
X134072833Y-115581380D02*
X134072833Y-114581380D01*
X134072833Y-115533761D02*
X134168071Y-115581380D01*
X134358547Y-115581380D01*
X134453785Y-115533761D01*
X134501404Y-115486142D01*
X134549023Y-115390904D01*
X134549023Y-115105190D01*
X134501404Y-115009952D01*
X134453785Y-114962333D01*
X134358547Y-114914714D01*
X134168071Y-114914714D01*
X134072833Y-114962333D01*
X133215690Y-115533761D02*
X133310928Y-115581380D01*
X133501404Y-115581380D01*
X133596642Y-115533761D01*
X133644261Y-115438523D01*
X133644261Y-115057571D01*
X133596642Y-114962333D01*
X133501404Y-114914714D01*
X133310928Y-114914714D01*
X133215690Y-114962333D01*
X133168071Y-115057571D01*
X133168071Y-115152809D01*
X133644261Y-115248047D01*
X132882357Y-114914714D02*
X132501404Y-114914714D01*
X132739500Y-115581380D02*
X132739500Y-114724238D01*
X132691880Y-114629000D01*
X132596642Y-114581380D01*
X132501404Y-114581380D01*
X132168071Y-115581380D02*
X132168071Y-114914714D01*
X132168071Y-114581380D02*
X132215690Y-114629000D01*
X132168071Y-114676619D01*
X132120452Y-114629000D01*
X132168071Y-114581380D01*
X132168071Y-114676619D01*
X131691880Y-114914714D02*
X131691880Y-115581380D01*
X131691880Y-115009952D02*
X131644261Y-114962333D01*
X131549023Y-114914714D01*
X131406166Y-114914714D01*
X131310928Y-114962333D01*
X131263309Y-115057571D01*
X131263309Y-115581380D01*
X130406166Y-115533761D02*
X130501404Y-115581380D01*
X130691880Y-115581380D01*
X130787119Y-115533761D01*
X130834738Y-115438523D01*
X130834738Y-115057571D01*
X130787119Y-114962333D01*
X130691880Y-114914714D01*
X130501404Y-114914714D01*
X130406166Y-114962333D01*
X130358547Y-115057571D01*
X130358547Y-115152809D01*
X130834738Y-115248047D01*
X129168071Y-115581380D02*
X129168071Y-114581380D01*
X128834738Y-115295666D01*
X128501404Y-114581380D01*
X128501404Y-115581380D01*
X128072833Y-115295666D02*
X127596642Y-115295666D01*
X128168071Y-115581380D02*
X127834738Y-114581380D01*
X127501404Y-115581380D01*
X127310928Y-114581380D02*
X126739500Y-114581380D01*
X127025214Y-115581380D02*
X127025214Y-114581380D01*
X125834738Y-115581380D02*
X126168071Y-115105190D01*
X126406166Y-115581380D02*
X126406166Y-114581380D01*
X126025214Y-114581380D01*
X125929976Y-114629000D01*
X125882357Y-114676619D01*
X125834738Y-114771857D01*
X125834738Y-114914714D01*
X125882357Y-115009952D01*
X125929976Y-115057571D01*
X126025214Y-115105190D01*
X126406166Y-115105190D01*
X125406166Y-115581380D02*
X125406166Y-114581380D01*
X125025214Y-114581380D02*
X124358547Y-115581380D01*
X124358547Y-114581380D02*
X125025214Y-115581380D01*
X124215690Y-115676619D02*
X123453785Y-115676619D01*
X122644261Y-115581380D02*
X122977595Y-115105190D01*
X123215690Y-115581380D02*
X123215690Y-114581380D01*
X122834738Y-114581380D01*
X122739500Y-114629000D01*
X122691880Y-114676619D01*
X122644261Y-114771857D01*
X122644261Y-114914714D01*
X122691880Y-115009952D01*
X122739500Y-115057571D01*
X122834738Y-115105190D01*
X123215690Y-115105190D01*
X122025214Y-114581380D02*
X121834738Y-114581380D01*
X121739500Y-114629000D01*
X121644261Y-114724238D01*
X121596642Y-114914714D01*
X121596642Y-115248047D01*
X121644261Y-115438523D01*
X121739500Y-115533761D01*
X121834738Y-115581380D01*
X122025214Y-115581380D01*
X122120452Y-115533761D01*
X122215690Y-115438523D01*
X122263309Y-115248047D01*
X122263309Y-114914714D01*
X122215690Y-114724238D01*
X122120452Y-114629000D01*
X122025214Y-114581380D01*
X121263309Y-114581380D02*
X121025214Y-115581380D01*
X120834738Y-114867095D01*
X120644261Y-115581380D01*
X120406166Y-114581380D01*
X120263309Y-115676619D02*
X119501404Y-115676619D01*
X119263309Y-115581380D02*
X119263309Y-114581380D01*
X118882357Y-114581380D01*
X118787119Y-114629000D01*
X118739500Y-114676619D01*
X118691880Y-114771857D01*
X118691880Y-114914714D01*
X118739500Y-115009952D01*
X118787119Y-115057571D01*
X118882357Y-115105190D01*
X119263309Y-115105190D01*
X118263309Y-115581380D02*
X118263309Y-114581380D01*
X117787119Y-115581380D02*
X117787119Y-114581380D01*
X117215690Y-115581380D01*
X117215690Y-114581380D01*
X116787119Y-115533761D02*
X116644261Y-115581380D01*
X116406166Y-115581380D01*
X116310928Y-115533761D01*
X116263309Y-115486142D01*
X116215690Y-115390904D01*
X116215690Y-115295666D01*
X116263309Y-115200428D01*
X116310928Y-115152809D01*
X116406166Y-115105190D01*
X116596642Y-115057571D01*
X116691880Y-115009952D01*
X116739500Y-114962333D01*
X116787119Y-114867095D01*
X116787119Y-114771857D01*
X116739500Y-114676619D01*
X116691880Y-114629000D01*
X116596642Y-114581380D01*
X116358547Y-114581380D01*
X116215690Y-114629000D01*
X114739500Y-115962333D02*
X114787119Y-115962333D01*
X114882357Y-115914714D01*
X114929976Y-115819476D01*
X114929976Y-115343285D01*
X114977595Y-115248047D01*
X115072833Y-115200428D01*
X114977595Y-115152809D01*
X114929976Y-115057571D01*
X114929976Y-114581380D01*
X114882357Y-114486142D01*
X114787119Y-114438523D01*
X114739500Y-114438523D01*
X114358547Y-115581380D02*
X114358547Y-114581380D01*
X114120452Y-114581380D01*
X113977595Y-114629000D01*
X113882357Y-114724238D01*
X113834738Y-114819476D01*
X113787119Y-115009952D01*
X113787119Y-115152809D01*
X113834738Y-115343285D01*
X113882357Y-115438523D01*
X113977595Y-115533761D01*
X114120452Y-115581380D01*
X114358547Y-115581380D01*
X113453785Y-114581380D02*
X112834738Y-114581380D01*
X113168071Y-114962333D01*
X113025214Y-114962333D01*
X112929976Y-115009952D01*
X112882357Y-115057571D01*
X112834738Y-115152809D01*
X112834738Y-115390904D01*
X112882357Y-115486142D01*
X112929976Y-115533761D01*
X113025214Y-115581380D01*
X113310928Y-115581380D01*
X113406166Y-115533761D01*
X113453785Y-115486142D01*
X112358547Y-115533761D02*
X112358547Y-115581380D01*
X112406166Y-115676619D01*
X112453785Y-115724238D01*
X111168071Y-115581380D02*
X111168071Y-114581380D01*
X110929976Y-114581380D01*
X110787119Y-114629000D01*
X110691880Y-114724238D01*
X110644261Y-114819476D01*
X110596642Y-115009952D01*
X110596642Y-115152809D01*
X110644261Y-115343285D01*
X110691880Y-115438523D01*
X110787119Y-115533761D01*
X110929976Y-115581380D01*
X111168071Y-115581380D01*
X110215690Y-114676619D02*
X110168071Y-114629000D01*
X110072833Y-114581380D01*
X109834738Y-114581380D01*
X109739500Y-114629000D01*
X109691880Y-114676619D01*
X109644261Y-114771857D01*
X109644261Y-114867095D01*
X109691880Y-115009952D01*
X110263309Y-115581380D01*
X109644261Y-115581380D01*
X109168071Y-115533761D02*
X109168071Y-115581380D01*
X109215690Y-115676619D01*
X109263309Y-115724238D01*
X107977595Y-115581380D02*
X107977595Y-114581380D01*
X107739500Y-114581380D01*
X107596642Y-114629000D01*
X107501404Y-114724238D01*
X107453785Y-114819476D01*
X107406166Y-115009952D01*
X107406166Y-115152809D01*
X107453785Y-115343285D01*
X107501404Y-115438523D01*
X107596642Y-115533761D01*
X107739500Y-115581380D01*
X107977595Y-115581380D01*
X106549023Y-114914714D02*
X106549023Y-115581380D01*
X106787119Y-114533761D02*
X107025214Y-115248047D01*
X106406166Y-115248047D01*
X105977595Y-115533761D02*
X105977595Y-115581380D01*
X106025214Y-115676619D01*
X106072833Y-115724238D01*
X104215690Y-115486142D02*
X104263309Y-115533761D01*
X104406166Y-115581380D01*
X104501404Y-115581380D01*
X104644261Y-115533761D01*
X104739500Y-115438523D01*
X104787119Y-115343285D01*
X104834738Y-115152809D01*
X104834738Y-115009952D01*
X104787119Y-114819476D01*
X104739500Y-114724238D01*
X104644261Y-114629000D01*
X104501404Y-114581380D01*
X104406166Y-114581380D01*
X104263309Y-114629000D01*
X104215690Y-114676619D01*
X103358547Y-114581380D02*
X103549023Y-114581380D01*
X103644261Y-114629000D01*
X103691880Y-114676619D01*
X103787119Y-114819476D01*
X103834738Y-115009952D01*
X103834738Y-115390904D01*
X103787119Y-115486142D01*
X103739500Y-115533761D01*
X103644261Y-115581380D01*
X103453785Y-115581380D01*
X103358547Y-115533761D01*
X103310928Y-115486142D01*
X103263309Y-115390904D01*
X103263309Y-115152809D01*
X103310928Y-115057571D01*
X103358547Y-115009952D01*
X103453785Y-114962333D01*
X103644261Y-114962333D01*
X103739500Y-115009952D01*
X103787119Y-115057571D01*
X103834738Y-115152809D01*
X102929976Y-115962333D02*
X102882357Y-115962333D01*
X102787119Y-115914714D01*
X102739500Y-115819476D01*
X102739500Y-115343285D01*
X102691880Y-115248047D01*
X102596642Y-115200428D01*
X102691880Y-115152809D01*
X102739500Y-115057571D01*
X102739500Y-114581380D01*
X102787119Y-114486142D01*
X102882357Y-114438523D01*
X102929976Y-114438523D01*
X135549023Y-116564714D02*
X134834738Y-116564714D01*
X135263309Y-116136142D02*
X135549023Y-117421857D01*
X134929976Y-116993285D02*
X135644261Y-116993285D01*
X135215690Y-117421857D02*
X134929976Y-116136142D01*
X134072833Y-117231380D02*
X134072833Y-116231380D01*
X134072833Y-117183761D02*
X134168071Y-117231380D01*
X134358547Y-117231380D01*
X134453785Y-117183761D01*
X134501404Y-117136142D01*
X134549023Y-117040904D01*
X134549023Y-116755190D01*
X134501404Y-116659952D01*
X134453785Y-116612333D01*
X134358547Y-116564714D01*
X134168071Y-116564714D01*
X134072833Y-116612333D01*
X133215690Y-117183761D02*
X133310928Y-117231380D01*
X133501404Y-117231380D01*
X133596642Y-117183761D01*
X133644261Y-117088523D01*
X133644261Y-116707571D01*
X133596642Y-116612333D01*
X133501404Y-116564714D01*
X133310928Y-116564714D01*
X133215690Y-116612333D01*
X133168071Y-116707571D01*
X133168071Y-116802809D01*
X133644261Y-116898047D01*
X132882357Y-116564714D02*
X132501404Y-116564714D01*
X132739500Y-117231380D02*
X132739500Y-116374238D01*
X132691880Y-116279000D01*
X132596642Y-116231380D01*
X132501404Y-116231380D01*
X132168071Y-117231380D02*
X132168071Y-116564714D01*
X132168071Y-116231380D02*
X132215690Y-116279000D01*
X132168071Y-116326619D01*
X132120452Y-116279000D01*
X132168071Y-116231380D01*
X132168071Y-116326619D01*
X131691880Y-116564714D02*
X131691880Y-117231380D01*
X131691880Y-116659952D02*
X131644261Y-116612333D01*
X131549023Y-116564714D01*
X131406166Y-116564714D01*
X131310928Y-116612333D01*
X131263309Y-116707571D01*
X131263309Y-117231380D01*
X130406166Y-117183761D02*
X130501404Y-117231380D01*
X130691880Y-117231380D01*
X130787119Y-117183761D01*
X130834738Y-117088523D01*
X130834738Y-116707571D01*
X130787119Y-116612333D01*
X130691880Y-116564714D01*
X130501404Y-116564714D01*
X130406166Y-116612333D01*
X130358547Y-116707571D01*
X130358547Y-116802809D01*
X130834738Y-116898047D01*
X129168071Y-117231380D02*
X129168071Y-116231380D01*
X128834738Y-116945666D01*
X128501404Y-116231380D01*
X128501404Y-117231380D01*
X128072833Y-116945666D02*
X127596642Y-116945666D01*
X128168071Y-117231380D02*
X127834738Y-116231380D01*
X127501404Y-117231380D01*
X127310928Y-116231380D02*
X126739500Y-116231380D01*
X127025214Y-117231380D02*
X127025214Y-116231380D01*
X125834738Y-117231380D02*
X126168071Y-116755190D01*
X126406166Y-117231380D02*
X126406166Y-116231380D01*
X126025214Y-116231380D01*
X125929976Y-116279000D01*
X125882357Y-116326619D01*
X125834738Y-116421857D01*
X125834738Y-116564714D01*
X125882357Y-116659952D01*
X125929976Y-116707571D01*
X126025214Y-116755190D01*
X126406166Y-116755190D01*
X125406166Y-117231380D02*
X125406166Y-116231380D01*
X125025214Y-116231380D02*
X124358547Y-117231380D01*
X124358547Y-116231380D02*
X125025214Y-117231380D01*
X124215690Y-117326619D02*
X123453785Y-117326619D01*
X122644261Y-117136142D02*
X122691880Y-117183761D01*
X122834738Y-117231380D01*
X122929976Y-117231380D01*
X123072833Y-117183761D01*
X123168071Y-117088523D01*
X123215690Y-116993285D01*
X123263309Y-116802809D01*
X123263309Y-116659952D01*
X123215690Y-116469476D01*
X123168071Y-116374238D01*
X123072833Y-116279000D01*
X122929976Y-116231380D01*
X122834738Y-116231380D01*
X122691880Y-116279000D01*
X122644261Y-116326619D01*
X122025214Y-116231380D02*
X121834738Y-116231380D01*
X121739500Y-116279000D01*
X121644261Y-116374238D01*
X121596642Y-116564714D01*
X121596642Y-116898047D01*
X121644261Y-117088523D01*
X121739500Y-117183761D01*
X121834738Y-117231380D01*
X122025214Y-117231380D01*
X122120452Y-117183761D01*
X122215690Y-117088523D01*
X122263309Y-116898047D01*
X122263309Y-116564714D01*
X122215690Y-116374238D01*
X122120452Y-116279000D01*
X122025214Y-116231380D01*
X120691880Y-117231380D02*
X121168071Y-117231380D01*
X121168071Y-116231380D01*
X120596642Y-117326619D02*
X119834738Y-117326619D01*
X119596642Y-117231380D02*
X119596642Y-116231380D01*
X119215690Y-116231380D01*
X119120452Y-116279000D01*
X119072833Y-116326619D01*
X119025214Y-116421857D01*
X119025214Y-116564714D01*
X119072833Y-116659952D01*
X119120452Y-116707571D01*
X119215690Y-116755190D01*
X119596642Y-116755190D01*
X118596642Y-117231380D02*
X118596642Y-116231380D01*
X118120452Y-117231380D02*
X118120452Y-116231380D01*
X117549023Y-117231380D01*
X117549023Y-116231380D01*
X117120452Y-117183761D02*
X116977595Y-117231380D01*
X116739500Y-117231380D01*
X116644261Y-117183761D01*
X116596642Y-117136142D01*
X116549023Y-117040904D01*
X116549023Y-116945666D01*
X116596642Y-116850428D01*
X116644261Y-116802809D01*
X116739500Y-116755190D01*
X116929976Y-116707571D01*
X117025214Y-116659952D01*
X117072833Y-116612333D01*
X117120452Y-116517095D01*
X117120452Y-116421857D01*
X117072833Y-116326619D01*
X117025214Y-116279000D01*
X116929976Y-116231380D01*
X116691880Y-116231380D01*
X116549023Y-116279000D01*
X115072833Y-117612333D02*
X115120452Y-117612333D01*
X115215690Y-117564714D01*
X115263309Y-117469476D01*
X115263309Y-116993285D01*
X115310928Y-116898047D01*
X115406166Y-116850428D01*
X115310928Y-116802809D01*
X115263309Y-116707571D01*
X115263309Y-116231380D01*
X115215690Y-116136142D01*
X115120452Y-116088523D01*
X115072833Y-116088523D01*
X114358547Y-116707571D02*
X114215690Y-116755190D01*
X114168071Y-116802809D01*
X114120452Y-116898047D01*
X114120452Y-117040904D01*
X114168071Y-117136142D01*
X114215690Y-117183761D01*
X114310928Y-117231380D01*
X114691880Y-117231380D01*
X114691880Y-116231380D01*
X114358547Y-116231380D01*
X114263309Y-116279000D01*
X114215690Y-116326619D01*
X114168071Y-116421857D01*
X114168071Y-116517095D01*
X114215690Y-116612333D01*
X114263309Y-116659952D01*
X114358547Y-116707571D01*
X114691880Y-116707571D01*
X113739500Y-116326619D02*
X113691880Y-116279000D01*
X113596642Y-116231380D01*
X113358547Y-116231380D01*
X113263309Y-116279000D01*
X113215690Y-116326619D01*
X113168071Y-116421857D01*
X113168071Y-116517095D01*
X113215690Y-116659952D01*
X113787119Y-117231380D01*
X113168071Y-117231380D01*
X112691880Y-117183761D02*
X112691880Y-117231380D01*
X112739500Y-117326619D01*
X112787119Y-117374238D01*
X111168071Y-116707571D02*
X111025214Y-116755190D01*
X110977595Y-116802809D01*
X110929976Y-116898047D01*
X110929976Y-117040904D01*
X110977595Y-117136142D01*
X111025214Y-117183761D01*
X111120452Y-117231380D01*
X111501404Y-117231380D01*
X111501404Y-116231380D01*
X111168071Y-116231380D01*
X111072833Y-116279000D01*
X111025214Y-116326619D01*
X110977595Y-116421857D01*
X110977595Y-116517095D01*
X111025214Y-116612333D01*
X111072833Y-116659952D01*
X111168071Y-116707571D01*
X111501404Y-116707571D01*
X110072833Y-116231380D02*
X110263309Y-116231380D01*
X110358547Y-116279000D01*
X110406166Y-116326619D01*
X110501404Y-116469476D01*
X110549023Y-116659952D01*
X110549023Y-117040904D01*
X110501404Y-117136142D01*
X110453785Y-117183761D01*
X110358547Y-117231380D01*
X110168071Y-117231380D01*
X110072833Y-117183761D01*
X110025214Y-117136142D01*
X109977595Y-117040904D01*
X109977595Y-116802809D01*
X110025214Y-116707571D01*
X110072833Y-116659952D01*
X110168071Y-116612333D01*
X110358547Y-116612333D01*
X110453785Y-116659952D01*
X110501404Y-116707571D01*
X110549023Y-116802809D01*
X109501404Y-117183761D02*
X109501404Y-117231380D01*
X109549023Y-117326619D01*
X109596642Y-117374238D01*
X107977595Y-116707571D02*
X107834738Y-116755190D01*
X107787119Y-116802809D01*
X107739500Y-116898047D01*
X107739500Y-117040904D01*
X107787119Y-117136142D01*
X107834738Y-117183761D01*
X107929976Y-117231380D01*
X108310928Y-117231380D01*
X108310928Y-116231380D01*
X107977595Y-116231380D01*
X107882357Y-116279000D01*
X107834738Y-116326619D01*
X107787119Y-116421857D01*
X107787119Y-116517095D01*
X107834738Y-116612333D01*
X107882357Y-116659952D01*
X107977595Y-116707571D01*
X108310928Y-116707571D01*
X106834738Y-116231380D02*
X107310928Y-116231380D01*
X107358547Y-116707571D01*
X107310928Y-116659952D01*
X107215690Y-116612333D01*
X106977595Y-116612333D01*
X106882357Y-116659952D01*
X106834738Y-116707571D01*
X106787119Y-116802809D01*
X106787119Y-117040904D01*
X106834738Y-117136142D01*
X106882357Y-117183761D01*
X106977595Y-117231380D01*
X107215690Y-117231380D01*
X107310928Y-117183761D01*
X107358547Y-117136142D01*
X106310928Y-117183761D02*
X106310928Y-117231380D01*
X106358547Y-117326619D01*
X106406166Y-117374238D01*
X104787119Y-116707571D02*
X104644261Y-116755190D01*
X104596642Y-116802809D01*
X104549023Y-116898047D01*
X104549023Y-117040904D01*
X104596642Y-117136142D01*
X104644261Y-117183761D01*
X104739500Y-117231380D01*
X105120452Y-117231380D01*
X105120452Y-116231380D01*
X104787119Y-116231380D01*
X104691880Y-116279000D01*
X104644261Y-116326619D01*
X104596642Y-116421857D01*
X104596642Y-116517095D01*
X104644261Y-116612333D01*
X104691880Y-116659952D01*
X104787119Y-116707571D01*
X105120452Y-116707571D01*
X103691880Y-116564714D02*
X103691880Y-117231380D01*
X103929976Y-116183761D02*
X104168071Y-116898047D01*
X103549023Y-116898047D01*
X103120452Y-117183761D02*
X103120452Y-117231380D01*
X103168071Y-117326619D01*
X103215690Y-117374238D01*
X101929976Y-116707571D02*
X101596642Y-116707571D01*
X101453785Y-117231380D02*
X101929976Y-117231380D01*
X101929976Y-116231380D01*
X101453785Y-116231380D01*
X100596642Y-116231380D02*
X100787119Y-116231380D01*
X100882357Y-116279000D01*
X100929976Y-116326619D01*
X101025214Y-116469476D01*
X101072833Y-116659952D01*
X101072833Y-117040904D01*
X101025214Y-117136142D01*
X100977595Y-117183761D01*
X100882357Y-117231380D01*
X100691880Y-117231380D01*
X100596642Y-117183761D01*
X100549023Y-117136142D01*
X100501404Y-117040904D01*
X100501404Y-116802809D01*
X100549023Y-116707571D01*
X100596642Y-116659952D01*
X100691880Y-116612333D01*
X100882357Y-116612333D01*
X100977595Y-116659952D01*
X101025214Y-116707571D01*
X101072833Y-116802809D01*
X100025214Y-117183761D02*
X100025214Y-117231380D01*
X100072833Y-117326619D01*
X100120452Y-117374238D01*
X98834738Y-117231380D02*
X98834738Y-116231380D01*
X98596642Y-116231380D01*
X98453785Y-116279000D01*
X98358547Y-116374238D01*
X98310928Y-116469476D01*
X98263309Y-116659952D01*
X98263309Y-116802809D01*
X98310928Y-116993285D01*
X98358547Y-117088523D01*
X98453785Y-117183761D01*
X98596642Y-117231380D01*
X98834738Y-117231380D01*
X97929976Y-116231380D02*
X97263309Y-116231380D01*
X97691880Y-117231380D01*
X96834738Y-117183761D02*
X96834738Y-117231380D01*
X96882357Y-117326619D01*
X96929976Y-117374238D01*
X95310928Y-116707571D02*
X95168071Y-116755190D01*
X95120452Y-116802809D01*
X95072833Y-116898047D01*
X95072833Y-117040904D01*
X95120452Y-117136142D01*
X95168071Y-117183761D01*
X95263309Y-117231380D01*
X95644261Y-117231380D01*
X95644261Y-116231380D01*
X95310928Y-116231380D01*
X95215690Y-116279000D01*
X95168071Y-116326619D01*
X95120452Y-116421857D01*
X95120452Y-116517095D01*
X95168071Y-116612333D01*
X95215690Y-116659952D01*
X95310928Y-116707571D01*
X95644261Y-116707571D01*
X94739500Y-116231380D02*
X94120452Y-116231380D01*
X94453785Y-116612333D01*
X94310928Y-116612333D01*
X94215690Y-116659952D01*
X94168071Y-116707571D01*
X94120452Y-116802809D01*
X94120452Y-117040904D01*
X94168071Y-117136142D01*
X94215690Y-117183761D01*
X94310928Y-117231380D01*
X94596642Y-117231380D01*
X94691880Y-117183761D01*
X94739500Y-117136142D01*
X93644261Y-117183761D02*
X93644261Y-117231380D01*
X93691880Y-117326619D01*
X93739500Y-117374238D01*
X92120452Y-116707571D02*
X92453785Y-116707571D01*
X92453785Y-117231380D02*
X92453785Y-116231380D01*
X91977595Y-116231380D01*
X91168071Y-116564714D02*
X91168071Y-117231380D01*
X91406166Y-116183761D02*
X91644261Y-116898047D01*
X91025214Y-116898047D01*
X90596642Y-117183761D02*
X90596642Y-117231380D01*
X90644261Y-117326619D01*
X90691880Y-117374238D01*
X89072833Y-116707571D02*
X89406166Y-116707571D01*
X89406166Y-117231380D02*
X89406166Y-116231380D01*
X88929976Y-116231380D01*
X88072833Y-116231380D02*
X88549023Y-116231380D01*
X88596642Y-116707571D01*
X88549023Y-116659952D01*
X88453785Y-116612333D01*
X88215690Y-116612333D01*
X88120452Y-116659952D01*
X88072833Y-116707571D01*
X88025214Y-116802809D01*
X88025214Y-117040904D01*
X88072833Y-117136142D01*
X88120452Y-117183761D01*
X88215690Y-117231380D01*
X88453785Y-117231380D01*
X88549023Y-117183761D01*
X88596642Y-117136142D01*
X87549023Y-117183761D02*
X87549023Y-117231380D01*
X87596642Y-117326619D01*
X87644261Y-117374238D01*
X86025214Y-116707571D02*
X86358547Y-116707571D01*
X86358547Y-117231380D02*
X86358547Y-116231380D01*
X85882357Y-116231380D01*
X85072833Y-116231380D02*
X85263309Y-116231380D01*
X85358547Y-116279000D01*
X85406166Y-116326619D01*
X85501404Y-116469476D01*
X85549023Y-116659952D01*
X85549023Y-117040904D01*
X85501404Y-117136142D01*
X85453785Y-117183761D01*
X85358547Y-117231380D01*
X85168071Y-117231380D01*
X85072833Y-117183761D01*
X85025214Y-117136142D01*
X84977595Y-117040904D01*
X84977595Y-116802809D01*
X85025214Y-116707571D01*
X85072833Y-116659952D01*
X85168071Y-116612333D01*
X85358547Y-116612333D01*
X85453785Y-116659952D01*
X85501404Y-116707571D01*
X85549023Y-116802809D01*
X84501404Y-117183761D02*
X84501404Y-117231380D01*
X84549023Y-117326619D01*
X84596642Y-117374238D01*
X82977595Y-116707571D02*
X83310928Y-116707571D01*
X83310928Y-117231380D02*
X83310928Y-116231380D01*
X82834738Y-116231380D01*
X82549023Y-116231380D02*
X81882357Y-116231380D01*
X82310928Y-117231380D01*
X81453785Y-117183761D02*
X81453785Y-117231380D01*
X81501404Y-117326619D01*
X81549023Y-117374238D01*
X79929976Y-116707571D02*
X79787119Y-116755190D01*
X79739500Y-116802809D01*
X79691880Y-116898047D01*
X79691880Y-117040904D01*
X79739500Y-117136142D01*
X79787119Y-117183761D01*
X79882357Y-117231380D01*
X80263309Y-117231380D01*
X80263309Y-116231380D01*
X79929976Y-116231380D01*
X79834738Y-116279000D01*
X79787119Y-116326619D01*
X79739500Y-116421857D01*
X79739500Y-116517095D01*
X79787119Y-116612333D01*
X79834738Y-116659952D01*
X79929976Y-116707571D01*
X80263309Y-116707571D01*
X78739500Y-117231380D02*
X79310928Y-117231380D01*
X79025214Y-117231380D02*
X79025214Y-116231380D01*
X79120452Y-116374238D01*
X79215690Y-116469476D01*
X79310928Y-116517095D01*
X78406166Y-117612333D02*
X78358547Y-117612333D01*
X78263309Y-117564714D01*
X78215690Y-117469476D01*
X78215690Y-116993285D01*
X78168071Y-116898047D01*
X78072833Y-116850428D01*
X78168071Y-116802809D01*
X78215690Y-116707571D01*
X78215690Y-116231380D01*
X78263309Y-116136142D01*
X78358547Y-116088523D01*
X78406166Y-116088523D01*
X135549023Y-118214714D02*
X134834738Y-118214714D01*
X135263309Y-117786142D02*
X135549023Y-119071857D01*
X134929976Y-118643285D02*
X135644261Y-118643285D01*
X135215690Y-119071857D02*
X134929976Y-117786142D01*
X134072833Y-118881380D02*
X134072833Y-117881380D01*
X134072833Y-118833761D02*
X134168071Y-118881380D01*
X134358547Y-118881380D01*
X134453785Y-118833761D01*
X134501404Y-118786142D01*
X134549023Y-118690904D01*
X134549023Y-118405190D01*
X134501404Y-118309952D01*
X134453785Y-118262333D01*
X134358547Y-118214714D01*
X134168071Y-118214714D01*
X134072833Y-118262333D01*
X133215690Y-118833761D02*
X133310928Y-118881380D01*
X133501404Y-118881380D01*
X133596642Y-118833761D01*
X133644261Y-118738523D01*
X133644261Y-118357571D01*
X133596642Y-118262333D01*
X133501404Y-118214714D01*
X133310928Y-118214714D01*
X133215690Y-118262333D01*
X133168071Y-118357571D01*
X133168071Y-118452809D01*
X133644261Y-118548047D01*
X132882357Y-118214714D02*
X132501404Y-118214714D01*
X132739500Y-118881380D02*
X132739500Y-118024238D01*
X132691880Y-117929000D01*
X132596642Y-117881380D01*
X132501404Y-117881380D01*
X132168071Y-118881380D02*
X132168071Y-118214714D01*
X132168071Y-117881380D02*
X132215690Y-117929000D01*
X132168071Y-117976619D01*
X132120452Y-117929000D01*
X132168071Y-117881380D01*
X132168071Y-117976619D01*
X131691880Y-118214714D02*
X131691880Y-118881380D01*
X131691880Y-118309952D02*
X131644261Y-118262333D01*
X131549023Y-118214714D01*
X131406166Y-118214714D01*
X131310928Y-118262333D01*
X131263309Y-118357571D01*
X131263309Y-118881380D01*
X130406166Y-118833761D02*
X130501404Y-118881380D01*
X130691880Y-118881380D01*
X130787119Y-118833761D01*
X130834738Y-118738523D01*
X130834738Y-118357571D01*
X130787119Y-118262333D01*
X130691880Y-118214714D01*
X130501404Y-118214714D01*
X130406166Y-118262333D01*
X130358547Y-118357571D01*
X130358547Y-118452809D01*
X130834738Y-118548047D01*
X129168071Y-118881380D02*
X129168071Y-117881380D01*
X128929976Y-117881380D01*
X128787119Y-117929000D01*
X128691880Y-118024238D01*
X128644261Y-118119476D01*
X128596642Y-118309952D01*
X128596642Y-118452809D01*
X128644261Y-118643285D01*
X128691880Y-118738523D01*
X128787119Y-118833761D01*
X128929976Y-118881380D01*
X129168071Y-118881380D01*
X128168071Y-118881380D02*
X128168071Y-117881380D01*
X127501404Y-117881380D02*
X127310928Y-117881380D01*
X127215690Y-117929000D01*
X127120452Y-118024238D01*
X127072833Y-118214714D01*
X127072833Y-118548047D01*
X127120452Y-118738523D01*
X127215690Y-118833761D01*
X127310928Y-118881380D01*
X127501404Y-118881380D01*
X127596642Y-118833761D01*
X127691880Y-118738523D01*
X127739500Y-118548047D01*
X127739500Y-118214714D01*
X127691880Y-118024238D01*
X127596642Y-117929000D01*
X127501404Y-117881380D01*
X126644261Y-118881380D02*
X126644261Y-117881380D01*
X126406166Y-117881380D01*
X126263309Y-117929000D01*
X126168071Y-118024238D01*
X126120452Y-118119476D01*
X126072833Y-118309952D01*
X126072833Y-118452809D01*
X126120452Y-118643285D01*
X126168071Y-118738523D01*
X126263309Y-118833761D01*
X126406166Y-118881380D01*
X126644261Y-118881380D01*
X125644261Y-118357571D02*
X125310928Y-118357571D01*
X125168071Y-118881380D02*
X125644261Y-118881380D01*
X125644261Y-117881380D01*
X125168071Y-117881380D01*
X124977595Y-118976619D02*
X124215690Y-118976619D01*
X123977595Y-118881380D02*
X123977595Y-117881380D01*
X123739500Y-117881380D01*
X123596642Y-117929000D01*
X123501404Y-118024238D01*
X123453785Y-118119476D01*
X123406166Y-118309952D01*
X123406166Y-118452809D01*
X123453785Y-118643285D01*
X123501404Y-118738523D01*
X123596642Y-118833761D01*
X123739500Y-118881380D01*
X123977595Y-118881380D01*
X122977595Y-118881380D02*
X122977595Y-117881380D01*
X121929976Y-118881380D02*
X122263309Y-118405190D01*
X122501404Y-118881380D02*
X122501404Y-117881380D01*
X122120452Y-117881380D01*
X122025214Y-117929000D01*
X121977595Y-117976619D01*
X121929976Y-118071857D01*
X121929976Y-118214714D01*
X121977595Y-118309952D01*
X122025214Y-118357571D01*
X122120452Y-118405190D01*
X122501404Y-118405190D01*
X121501404Y-118357571D02*
X121168071Y-118357571D01*
X121025214Y-118881380D02*
X121501404Y-118881380D01*
X121501404Y-117881380D01*
X121025214Y-117881380D01*
X120025214Y-118786142D02*
X120072833Y-118833761D01*
X120215690Y-118881380D01*
X120310928Y-118881380D01*
X120453785Y-118833761D01*
X120549023Y-118738523D01*
X120596642Y-118643285D01*
X120644261Y-118452809D01*
X120644261Y-118309952D01*
X120596642Y-118119476D01*
X120549023Y-118024238D01*
X120453785Y-117929000D01*
X120310928Y-117881380D01*
X120215690Y-117881380D01*
X120072833Y-117929000D01*
X120025214Y-117976619D01*
X119739500Y-117881380D02*
X119168071Y-117881380D01*
X119453785Y-118881380D02*
X119453785Y-117881380D01*
X118834738Y-118881380D02*
X118834738Y-117881380D01*
X118168071Y-117881380D02*
X117977595Y-117881380D01*
X117882357Y-117929000D01*
X117787119Y-118024238D01*
X117739500Y-118214714D01*
X117739500Y-118548047D01*
X117787119Y-118738523D01*
X117882357Y-118833761D01*
X117977595Y-118881380D01*
X118168071Y-118881380D01*
X118263309Y-118833761D01*
X118358547Y-118738523D01*
X118406166Y-118548047D01*
X118406166Y-118214714D01*
X118358547Y-118024238D01*
X118263309Y-117929000D01*
X118168071Y-117881380D01*
X117310928Y-118881380D02*
X117310928Y-117881380D01*
X116739500Y-118881380D01*
X116739500Y-117881380D01*
X114929976Y-118786142D02*
X114977595Y-118833761D01*
X115120452Y-118881380D01*
X115215690Y-118881380D01*
X115358547Y-118833761D01*
X115453785Y-118738523D01*
X115501404Y-118643285D01*
X115549023Y-118452809D01*
X115549023Y-118309952D01*
X115501404Y-118119476D01*
X115453785Y-118024238D01*
X115358547Y-117929000D01*
X115215690Y-117881380D01*
X115120452Y-117881380D01*
X114977595Y-117929000D01*
X114929976Y-117976619D01*
X114310928Y-117881380D02*
X114120452Y-117881380D01*
X114025214Y-117929000D01*
X113929976Y-118024238D01*
X113882357Y-118214714D01*
X113882357Y-118548047D01*
X113929976Y-118738523D01*
X114025214Y-118833761D01*
X114120452Y-118881380D01*
X114310928Y-118881380D01*
X114406166Y-118833761D01*
X114501404Y-118738523D01*
X114549023Y-118548047D01*
X114549023Y-118214714D01*
X114501404Y-118024238D01*
X114406166Y-117929000D01*
X114310928Y-117881380D01*
X112977595Y-118881380D02*
X113453785Y-118881380D01*
X113453785Y-117881380D01*
X112691880Y-117976619D02*
X112644261Y-117929000D01*
X112549023Y-117881380D01*
X112310928Y-117881380D01*
X112215690Y-117929000D01*
X112168071Y-117976619D01*
X112120452Y-118071857D01*
X112120452Y-118167095D01*
X112168071Y-118309952D01*
X112739500Y-118881380D01*
X112120452Y-118881380D01*
X111120452Y-118881380D02*
X111453785Y-118405190D01*
X111691880Y-118881380D02*
X111691880Y-117881380D01*
X111310928Y-117881380D01*
X111215690Y-117929000D01*
X111168071Y-117976619D01*
X111120452Y-118071857D01*
X111120452Y-118214714D01*
X111168071Y-118309952D01*
X111215690Y-118357571D01*
X111310928Y-118405190D01*
X111691880Y-118405190D01*
X110501404Y-117881380D02*
X110310928Y-117881380D01*
X110215690Y-117929000D01*
X110120452Y-118024238D01*
X110072833Y-118214714D01*
X110072833Y-118548047D01*
X110120452Y-118738523D01*
X110215690Y-118833761D01*
X110310928Y-118881380D01*
X110501404Y-118881380D01*
X110596642Y-118833761D01*
X110691880Y-118738523D01*
X110739500Y-118548047D01*
X110739500Y-118214714D01*
X110691880Y-118024238D01*
X110596642Y-117929000D01*
X110501404Y-117881380D01*
X109739500Y-117881380D02*
X109501404Y-118881380D01*
X109310928Y-118167095D01*
X109120452Y-118881380D01*
X108882357Y-117881380D01*
X201360476Y-128117380D02*
X200789047Y-128117380D01*
X201074761Y-129117380D02*
X201074761Y-128117380D01*
X200455714Y-129117380D02*
X200455714Y-128117380D01*
X200027142Y-129117380D02*
X200027142Y-128593571D01*
X200074761Y-128498333D01*
X200170000Y-128450714D01*
X200312857Y-128450714D01*
X200408095Y-128498333D01*
X200455714Y-128545952D01*
X199122380Y-128450714D02*
X199122380Y-129117380D01*
X199550952Y-128450714D02*
X199550952Y-128974523D01*
X199503333Y-129069761D01*
X199408095Y-129117380D01*
X199265238Y-129117380D01*
X199170000Y-129069761D01*
X199122380Y-129022142D01*
X198646190Y-129117380D02*
X198646190Y-128450714D01*
X198646190Y-128545952D02*
X198598571Y-128498333D01*
X198503333Y-128450714D01*
X198360476Y-128450714D01*
X198265238Y-128498333D01*
X198217619Y-128593571D01*
X198217619Y-129117380D01*
X198217619Y-128593571D02*
X198170000Y-128498333D01*
X198074761Y-128450714D01*
X197931904Y-128450714D01*
X197836666Y-128498333D01*
X197789047Y-128593571D01*
X197789047Y-129117380D01*
X197312857Y-129117380D02*
X197312857Y-128117380D01*
X197312857Y-128498333D02*
X197217619Y-128450714D01*
X197027142Y-128450714D01*
X196931904Y-128498333D01*
X196884285Y-128545952D01*
X196836666Y-128641190D01*
X196836666Y-128926904D01*
X196884285Y-129022142D01*
X196931904Y-129069761D01*
X197027142Y-129117380D01*
X197217619Y-129117380D01*
X197312857Y-129069761D01*
X196455714Y-129069761D02*
X196360476Y-129117380D01*
X196170000Y-129117380D01*
X196074761Y-129069761D01*
X196027142Y-128974523D01*
X196027142Y-128926904D01*
X196074761Y-128831666D01*
X196170000Y-128784047D01*
X196312857Y-128784047D01*
X196408095Y-128736428D01*
X196455714Y-128641190D01*
X196455714Y-128593571D01*
X196408095Y-128498333D01*
X196312857Y-128450714D01*
X196170000Y-128450714D01*
X196074761Y-128498333D01*
X194836666Y-128117380D02*
X194836666Y-128926904D01*
X194789047Y-129022142D01*
X194741428Y-129069761D01*
X194646190Y-129117380D01*
X194455714Y-129117380D01*
X194360476Y-129069761D01*
X194312857Y-129022142D01*
X194265238Y-128926904D01*
X194265238Y-128117380D01*
X193789047Y-128450714D02*
X193789047Y-129450714D01*
X193789047Y-128498333D02*
X193693809Y-128450714D01*
X193503333Y-128450714D01*
X193408095Y-128498333D01*
X193360476Y-128545952D01*
X193312857Y-128641190D01*
X193312857Y-128926904D01*
X193360476Y-129022142D01*
X193408095Y-129069761D01*
X193503333Y-129117380D01*
X193693809Y-129117380D01*
X193789047Y-129069761D01*
X192884285Y-129022142D02*
X192836666Y-129069761D01*
X192884285Y-129117380D01*
X192931904Y-129069761D01*
X192884285Y-129022142D01*
X192884285Y-129117380D01*
X192884285Y-128736428D02*
X192931904Y-128165000D01*
X192884285Y-128117380D01*
X192836666Y-128165000D01*
X192884285Y-128736428D01*
X192884285Y-128117380D01*
X191646190Y-129117380D02*
X191646190Y-128117380D01*
X191646190Y-128498333D02*
X191550952Y-128450714D01*
X191360476Y-128450714D01*
X191265238Y-128498333D01*
X191217619Y-128545952D01*
X191170000Y-128641190D01*
X191170000Y-128926904D01*
X191217619Y-129022142D01*
X191265238Y-129069761D01*
X191360476Y-129117380D01*
X191550952Y-129117380D01*
X191646190Y-129069761D01*
X190836666Y-128450714D02*
X190598571Y-129117380D01*
X190360476Y-128450714D02*
X190598571Y-129117380D01*
X190693809Y-129355476D01*
X190741428Y-129403095D01*
X190836666Y-129450714D01*
X189265238Y-129069761D02*
X189122380Y-129117380D01*
X188884285Y-129117380D01*
X188789047Y-129069761D01*
X188741428Y-129022142D01*
X188693809Y-128926904D01*
X188693809Y-128831666D01*
X188741428Y-128736428D01*
X188789047Y-128688809D01*
X188884285Y-128641190D01*
X189074761Y-128593571D01*
X189170000Y-128545952D01*
X189217619Y-128498333D01*
X189265238Y-128403095D01*
X189265238Y-128307857D01*
X189217619Y-128212619D01*
X189170000Y-128165000D01*
X189074761Y-128117380D01*
X188836666Y-128117380D01*
X188693809Y-128165000D01*
X187836666Y-129117380D02*
X187836666Y-128593571D01*
X187884285Y-128498333D01*
X187979523Y-128450714D01*
X188170000Y-128450714D01*
X188265238Y-128498333D01*
X187836666Y-129069761D02*
X187931904Y-129117380D01*
X188170000Y-129117380D01*
X188265238Y-129069761D01*
X188312857Y-128974523D01*
X188312857Y-128879285D01*
X188265238Y-128784047D01*
X188170000Y-128736428D01*
X187931904Y-128736428D01*
X187836666Y-128688809D01*
X187408095Y-129069761D02*
X187312857Y-129117380D01*
X187122380Y-129117380D01*
X187027142Y-129069761D01*
X186979523Y-128974523D01*
X186979523Y-128926904D01*
X187027142Y-128831666D01*
X187122380Y-128784047D01*
X187265238Y-128784047D01*
X187360476Y-128736428D01*
X187408095Y-128641190D01*
X187408095Y-128593571D01*
X187360476Y-128498333D01*
X187265238Y-128450714D01*
X187122380Y-128450714D01*
X187027142Y-128498333D01*
X186550952Y-129117380D02*
X186550952Y-128117380D01*
X186122380Y-129117380D02*
X186122380Y-128593571D01*
X186170000Y-128498333D01*
X186265238Y-128450714D01*
X186408095Y-128450714D01*
X186503333Y-128498333D01*
X186550952Y-128545952D01*
X185217619Y-129117380D02*
X185217619Y-128593571D01*
X185265238Y-128498333D01*
X185360476Y-128450714D01*
X185550952Y-128450714D01*
X185646190Y-128498333D01*
X185217619Y-129069761D02*
X185312857Y-129117380D01*
X185550952Y-129117380D01*
X185646190Y-129069761D01*
X185693809Y-128974523D01*
X185693809Y-128879285D01*
X185646190Y-128784047D01*
X185550952Y-128736428D01*
X185312857Y-128736428D01*
X185217619Y-128688809D01*
X183979523Y-129117380D02*
X183979523Y-128117380D01*
X183408095Y-129117380D02*
X183836666Y-128545952D01*
X183408095Y-128117380D02*
X183979523Y-128688809D01*
X182550952Y-129117380D02*
X182550952Y-128593571D01*
X182598571Y-128498333D01*
X182693809Y-128450714D01*
X182884285Y-128450714D01*
X182979523Y-128498333D01*
X182550952Y-129069761D02*
X182646190Y-129117380D01*
X182884285Y-129117380D01*
X182979523Y-129069761D01*
X183027142Y-128974523D01*
X183027142Y-128879285D01*
X182979523Y-128784047D01*
X182884285Y-128736428D01*
X182646190Y-128736428D01*
X182550952Y-128688809D01*
X182074761Y-129117380D02*
X182074761Y-128450714D01*
X182074761Y-128641190D02*
X182027142Y-128545952D01*
X181979523Y-128498333D01*
X181884285Y-128450714D01*
X181789047Y-128450714D01*
X181455714Y-129117380D02*
X181455714Y-128450714D01*
X181455714Y-128545952D02*
X181408095Y-128498333D01*
X181312857Y-128450714D01*
X181170000Y-128450714D01*
X181074761Y-128498333D01*
X181027142Y-128593571D01*
X181027142Y-129117380D01*
X181027142Y-128593571D02*
X180979523Y-128498333D01*
X180884285Y-128450714D01*
X180741428Y-128450714D01*
X180646190Y-128498333D01*
X180598571Y-128593571D01*
X180598571Y-129117380D01*
X179693809Y-129117380D02*
X179693809Y-128593571D01*
X179741428Y-128498333D01*
X179836666Y-128450714D01*
X180027142Y-128450714D01*
X180122380Y-128498333D01*
X179693809Y-129069761D02*
X179789047Y-129117380D01*
X180027142Y-129117380D01*
X180122380Y-129069761D01*
X180170000Y-128974523D01*
X180170000Y-128879285D01*
X180122380Y-128784047D01*
X180027142Y-128736428D01*
X179789047Y-128736428D01*
X179693809Y-128688809D01*
X179217619Y-128450714D02*
X179217619Y-129117380D01*
X179217619Y-128545952D02*
X179170000Y-128498333D01*
X179074761Y-128450714D01*
X178931904Y-128450714D01*
X178836666Y-128498333D01*
X178789047Y-128593571D01*
X178789047Y-129117380D01*
X178170000Y-129117380D02*
X178265238Y-129069761D01*
X178312857Y-129022142D01*
X178360476Y-128926904D01*
X178360476Y-128641190D01*
X178312857Y-128545952D01*
X178265238Y-128498333D01*
X178170000Y-128450714D01*
X178027142Y-128450714D01*
X177931904Y-128498333D01*
X177884285Y-128545952D01*
X177836666Y-128641190D01*
X177836666Y-128926904D01*
X177884285Y-129022142D01*
X177931904Y-129069761D01*
X178027142Y-129117380D01*
X178170000Y-129117380D01*
X177503333Y-128450714D02*
X177265238Y-129117380D01*
X177027142Y-128450714D01*
X196431904Y-130767380D02*
X196431904Y-129767380D01*
X196193809Y-129767380D01*
X196050952Y-129815000D01*
X195955714Y-129910238D01*
X195908095Y-130005476D01*
X195860476Y-130195952D01*
X195860476Y-130338809D01*
X195908095Y-130529285D01*
X195955714Y-130624523D01*
X196050952Y-130719761D01*
X196193809Y-130767380D01*
X196431904Y-130767380D01*
X195050952Y-130719761D02*
X195146190Y-130767380D01*
X195336666Y-130767380D01*
X195431904Y-130719761D01*
X195479523Y-130624523D01*
X195479523Y-130243571D01*
X195431904Y-130148333D01*
X195336666Y-130100714D01*
X195146190Y-130100714D01*
X195050952Y-130148333D01*
X195003333Y-130243571D01*
X195003333Y-130338809D01*
X195479523Y-130434047D01*
X194146190Y-130719761D02*
X194241428Y-130767380D01*
X194431904Y-130767380D01*
X194527142Y-130719761D01*
X194574761Y-130672142D01*
X194622380Y-130576904D01*
X194622380Y-130291190D01*
X194574761Y-130195952D01*
X194527142Y-130148333D01*
X194431904Y-130100714D01*
X194241428Y-130100714D01*
X194146190Y-130148333D01*
X193336666Y-130719761D02*
X193431904Y-130767380D01*
X193622380Y-130767380D01*
X193717619Y-130719761D01*
X193765238Y-130624523D01*
X193765238Y-130243571D01*
X193717619Y-130148333D01*
X193622380Y-130100714D01*
X193431904Y-130100714D01*
X193336666Y-130148333D01*
X193289047Y-130243571D01*
X193289047Y-130338809D01*
X193765238Y-130434047D01*
X192860476Y-130767380D02*
X192860476Y-130100714D01*
X192860476Y-130195952D02*
X192812857Y-130148333D01*
X192717619Y-130100714D01*
X192574761Y-130100714D01*
X192479523Y-130148333D01*
X192431904Y-130243571D01*
X192431904Y-130767380D01*
X192431904Y-130243571D02*
X192384285Y-130148333D01*
X192289047Y-130100714D01*
X192146190Y-130100714D01*
X192050952Y-130148333D01*
X192003333Y-130243571D01*
X192003333Y-130767380D01*
X191527142Y-130767380D02*
X191527142Y-129767380D01*
X191527142Y-130148333D02*
X191431904Y-130100714D01*
X191241428Y-130100714D01*
X191146190Y-130148333D01*
X191098571Y-130195952D01*
X191050952Y-130291190D01*
X191050952Y-130576904D01*
X191098571Y-130672142D01*
X191146190Y-130719761D01*
X191241428Y-130767380D01*
X191431904Y-130767380D01*
X191527142Y-130719761D01*
X190241428Y-130719761D02*
X190336666Y-130767380D01*
X190527142Y-130767380D01*
X190622380Y-130719761D01*
X190670000Y-130624523D01*
X190670000Y-130243571D01*
X190622380Y-130148333D01*
X190527142Y-130100714D01*
X190336666Y-130100714D01*
X190241428Y-130148333D01*
X190193809Y-130243571D01*
X190193809Y-130338809D01*
X190670000Y-130434047D01*
X189765238Y-130767380D02*
X189765238Y-130100714D01*
X189765238Y-130291190D02*
X189717619Y-130195952D01*
X189670000Y-130148333D01*
X189574761Y-130100714D01*
X189479523Y-130100714D01*
X187860476Y-130767380D02*
X188431904Y-130767380D01*
X188146190Y-130767380D02*
X188146190Y-129767380D01*
X188241428Y-129910238D01*
X188336666Y-130005476D01*
X188431904Y-130053095D01*
X186955714Y-129767380D02*
X187431904Y-129767380D01*
X187479523Y-130243571D01*
X187431904Y-130195952D01*
X187336666Y-130148333D01*
X187098571Y-130148333D01*
X187003333Y-130195952D01*
X186955714Y-130243571D01*
X186908095Y-130338809D01*
X186908095Y-130576904D01*
X186955714Y-130672142D01*
X187003333Y-130719761D01*
X187098571Y-130767380D01*
X187336666Y-130767380D01*
X187431904Y-130719761D01*
X187479523Y-130672142D01*
X186431904Y-130719761D02*
X186431904Y-130767380D01*
X186479523Y-130862619D01*
X186527142Y-130910238D01*
X185289047Y-129862619D02*
X185241428Y-129815000D01*
X185146190Y-129767380D01*
X184908095Y-129767380D01*
X184812857Y-129815000D01*
X184765238Y-129862619D01*
X184717619Y-129957857D01*
X184717619Y-130053095D01*
X184765238Y-130195952D01*
X185336666Y-130767380D01*
X184717619Y-130767380D01*
X184098571Y-129767380D02*
X184003333Y-129767380D01*
X183908095Y-129815000D01*
X183860476Y-129862619D01*
X183812857Y-129957857D01*
X183765238Y-130148333D01*
X183765238Y-130386428D01*
X183812857Y-130576904D01*
X183860476Y-130672142D01*
X183908095Y-130719761D01*
X184003333Y-130767380D01*
X184098571Y-130767380D01*
X184193809Y-130719761D01*
X184241428Y-130672142D01*
X184289047Y-130576904D01*
X184336666Y-130386428D01*
X184336666Y-130148333D01*
X184289047Y-129957857D01*
X184241428Y-129862619D01*
X184193809Y-129815000D01*
X184098571Y-129767380D01*
X183384285Y-129862619D02*
X183336666Y-129815000D01*
X183241428Y-129767380D01*
X183003333Y-129767380D01*
X182908095Y-129815000D01*
X182860476Y-129862619D01*
X182812857Y-129957857D01*
X182812857Y-130053095D01*
X182860476Y-130195952D01*
X183431904Y-130767380D01*
X182812857Y-130767380D01*
X182479523Y-129767380D02*
X181860476Y-129767380D01*
X182193809Y-130148333D01*
X182050952Y-130148333D01*
X181955714Y-130195952D01*
X181908095Y-130243571D01*
X181860476Y-130338809D01*
X181860476Y-130576904D01*
X181908095Y-130672142D01*
X181955714Y-130719761D01*
X182050952Y-130767380D01*
X182336666Y-130767380D01*
X182431904Y-130719761D01*
X182479523Y-130672142D01*
X200503333Y-132417380D02*
X200503333Y-131417380D01*
X200074761Y-132417380D02*
X200074761Y-131893571D01*
X200122380Y-131798333D01*
X200217619Y-131750714D01*
X200360476Y-131750714D01*
X200455714Y-131798333D01*
X200503333Y-131845952D01*
X199741428Y-131750714D02*
X199360476Y-131750714D01*
X199598571Y-131417380D02*
X199598571Y-132274523D01*
X199550952Y-132369761D01*
X199455714Y-132417380D01*
X199360476Y-132417380D01*
X199170000Y-131750714D02*
X198789047Y-131750714D01*
X199027142Y-131417380D02*
X199027142Y-132274523D01*
X198979523Y-132369761D01*
X198884285Y-132417380D01*
X198789047Y-132417380D01*
X198455714Y-131750714D02*
X198455714Y-132750714D01*
X198455714Y-131798333D02*
X198360476Y-131750714D01*
X198170000Y-131750714D01*
X198074761Y-131798333D01*
X198027142Y-131845952D01*
X197979523Y-131941190D01*
X197979523Y-132226904D01*
X198027142Y-132322142D01*
X198074761Y-132369761D01*
X198170000Y-132417380D01*
X198360476Y-132417380D01*
X198455714Y-132369761D01*
X197598571Y-132369761D02*
X197503333Y-132417380D01*
X197312857Y-132417380D01*
X197217619Y-132369761D01*
X197170000Y-132274523D01*
X197170000Y-132226904D01*
X197217619Y-132131666D01*
X197312857Y-132084047D01*
X197455714Y-132084047D01*
X197550952Y-132036428D01*
X197598571Y-131941190D01*
X197598571Y-131893571D01*
X197550952Y-131798333D01*
X197455714Y-131750714D01*
X197312857Y-131750714D01*
X197217619Y-131798333D01*
X196741428Y-132322142D02*
X196693809Y-132369761D01*
X196741428Y-132417380D01*
X196789047Y-132369761D01*
X196741428Y-132322142D01*
X196741428Y-132417380D01*
X196741428Y-131798333D02*
X196693809Y-131845952D01*
X196741428Y-131893571D01*
X196789047Y-131845952D01*
X196741428Y-131798333D01*
X196741428Y-131893571D01*
X195550952Y-131369761D02*
X196408095Y-132655476D01*
X194503333Y-131369761D02*
X195360476Y-132655476D01*
X193741428Y-131750714D02*
X193741428Y-132560238D01*
X193789047Y-132655476D01*
X193836666Y-132703095D01*
X193931904Y-132750714D01*
X194074761Y-132750714D01*
X194170000Y-132703095D01*
X193741428Y-132369761D02*
X193836666Y-132417380D01*
X194027142Y-132417380D01*
X194122380Y-132369761D01*
X194170000Y-132322142D01*
X194217619Y-132226904D01*
X194217619Y-131941190D01*
X194170000Y-131845952D01*
X194122380Y-131798333D01*
X194027142Y-131750714D01*
X193836666Y-131750714D01*
X193741428Y-131798333D01*
X193265238Y-132417380D02*
X193265238Y-131750714D01*
X193265238Y-131417380D02*
X193312857Y-131465000D01*
X193265238Y-131512619D01*
X193217619Y-131465000D01*
X193265238Y-131417380D01*
X193265238Y-131512619D01*
X192931904Y-131750714D02*
X192550952Y-131750714D01*
X192789047Y-131417380D02*
X192789047Y-132274523D01*
X192741428Y-132369761D01*
X192646190Y-132417380D01*
X192550952Y-132417380D01*
X192217619Y-132417380D02*
X192217619Y-131417380D01*
X191789047Y-132417380D02*
X191789047Y-131893571D01*
X191836666Y-131798333D01*
X191931904Y-131750714D01*
X192074761Y-131750714D01*
X192170000Y-131798333D01*
X192217619Y-131845952D01*
X190884285Y-131750714D02*
X190884285Y-132417380D01*
X191312857Y-131750714D02*
X191312857Y-132274523D01*
X191265238Y-132369761D01*
X191170000Y-132417380D01*
X191027142Y-132417380D01*
X190931904Y-132369761D01*
X190884285Y-132322142D01*
X190408095Y-132417380D02*
X190408095Y-131417380D01*
X190408095Y-131798333D02*
X190312857Y-131750714D01*
X190122380Y-131750714D01*
X190027142Y-131798333D01*
X189979523Y-131845952D01*
X189931904Y-131941190D01*
X189931904Y-132226904D01*
X189979523Y-132322142D01*
X190027142Y-132369761D01*
X190122380Y-132417380D01*
X190312857Y-132417380D01*
X190408095Y-132369761D01*
X189503333Y-132322142D02*
X189455714Y-132369761D01*
X189503333Y-132417380D01*
X189550952Y-132369761D01*
X189503333Y-132322142D01*
X189503333Y-132417380D01*
X188598571Y-132369761D02*
X188693809Y-132417380D01*
X188884285Y-132417380D01*
X188979523Y-132369761D01*
X189027142Y-132322142D01*
X189074761Y-132226904D01*
X189074761Y-131941190D01*
X189027142Y-131845952D01*
X188979523Y-131798333D01*
X188884285Y-131750714D01*
X188693809Y-131750714D01*
X188598571Y-131798333D01*
X188027142Y-132417380D02*
X188122380Y-132369761D01*
X188170000Y-132322142D01*
X188217619Y-132226904D01*
X188217619Y-131941190D01*
X188170000Y-131845952D01*
X188122380Y-131798333D01*
X188027142Y-131750714D01*
X187884285Y-131750714D01*
X187789047Y-131798333D01*
X187741428Y-131845952D01*
X187693809Y-131941190D01*
X187693809Y-132226904D01*
X187741428Y-132322142D01*
X187789047Y-132369761D01*
X187884285Y-132417380D01*
X188027142Y-132417380D01*
X187265238Y-132417380D02*
X187265238Y-131750714D01*
X187265238Y-131845952D02*
X187217619Y-131798333D01*
X187122380Y-131750714D01*
X186979523Y-131750714D01*
X186884285Y-131798333D01*
X186836666Y-131893571D01*
X186836666Y-132417380D01*
X186836666Y-131893571D02*
X186789047Y-131798333D01*
X186693809Y-131750714D01*
X186550952Y-131750714D01*
X186455714Y-131798333D01*
X186408095Y-131893571D01*
X186408095Y-132417380D01*
X185217619Y-131369761D02*
X186074761Y-132655476D01*
X184455714Y-132417380D02*
X184455714Y-131893571D01*
X184503333Y-131798333D01*
X184598571Y-131750714D01*
X184789047Y-131750714D01*
X184884285Y-131798333D01*
X184455714Y-132369761D02*
X184550952Y-132417380D01*
X184789047Y-132417380D01*
X184884285Y-132369761D01*
X184931904Y-132274523D01*
X184931904Y-132179285D01*
X184884285Y-132084047D01*
X184789047Y-132036428D01*
X184550952Y-132036428D01*
X184455714Y-131988809D01*
X183979523Y-132417380D02*
X183979523Y-131417380D01*
X183884285Y-132036428D02*
X183598571Y-132417380D01*
X183598571Y-131750714D02*
X183979523Y-132131666D01*
X182741428Y-131417380D02*
X182931904Y-131417380D01*
X183027142Y-131465000D01*
X183074761Y-131512619D01*
X183170000Y-131655476D01*
X183217619Y-131845952D01*
X183217619Y-132226904D01*
X183170000Y-132322142D01*
X183122380Y-132369761D01*
X183027142Y-132417380D01*
X182836666Y-132417380D01*
X182741428Y-132369761D01*
X182693809Y-132322142D01*
X182646190Y-132226904D01*
X182646190Y-131988809D01*
X182693809Y-131893571D01*
X182741428Y-131845952D01*
X182836666Y-131798333D01*
X183027142Y-131798333D01*
X183122380Y-131845952D01*
X183170000Y-131893571D01*
X183217619Y-131988809D01*
X181789047Y-131417380D02*
X181979523Y-131417380D01*
X182074761Y-131465000D01*
X182122380Y-131512619D01*
X182217619Y-131655476D01*
X182265238Y-131845952D01*
X182265238Y-132226904D01*
X182217619Y-132322142D01*
X182170000Y-132369761D01*
X182074761Y-132417380D01*
X181884285Y-132417380D01*
X181789047Y-132369761D01*
X181741428Y-132322142D01*
X181693809Y-132226904D01*
X181693809Y-131988809D01*
X181741428Y-131893571D01*
X181789047Y-131845952D01*
X181884285Y-131798333D01*
X182074761Y-131798333D01*
X182170000Y-131845952D01*
X182217619Y-131893571D01*
X182265238Y-131988809D01*
X180836666Y-131417380D02*
X181027142Y-131417380D01*
X181122380Y-131465000D01*
X181170000Y-131512619D01*
X181265238Y-131655476D01*
X181312857Y-131845952D01*
X181312857Y-132226904D01*
X181265238Y-132322142D01*
X181217619Y-132369761D01*
X181122380Y-132417380D01*
X180931904Y-132417380D01*
X180836666Y-132369761D01*
X180789047Y-132322142D01*
X180741428Y-132226904D01*
X180741428Y-131988809D01*
X180789047Y-131893571D01*
X180836666Y-131845952D01*
X180931904Y-131798333D01*
X181122380Y-131798333D01*
X181217619Y-131845952D01*
X181265238Y-131893571D01*
X181312857Y-131988809D01*
X179884285Y-131417380D02*
X180074761Y-131417380D01*
X180170000Y-131465000D01*
X180217619Y-131512619D01*
X180312857Y-131655476D01*
X180360476Y-131845952D01*
X180360476Y-132226904D01*
X180312857Y-132322142D01*
X180265238Y-132369761D01*
X180170000Y-132417380D01*
X179979523Y-132417380D01*
X179884285Y-132369761D01*
X179836666Y-132322142D01*
X179789047Y-132226904D01*
X179789047Y-131988809D01*
X179836666Y-131893571D01*
X179884285Y-131845952D01*
X179979523Y-131798333D01*
X180170000Y-131798333D01*
X180265238Y-131845952D01*
X180312857Y-131893571D01*
X180360476Y-131988809D01*
X178931904Y-131417380D02*
X179122380Y-131417380D01*
X179217619Y-131465000D01*
X179265238Y-131512619D01*
X179360476Y-131655476D01*
X179408095Y-131845952D01*
X179408095Y-132226904D01*
X179360476Y-132322142D01*
X179312857Y-132369761D01*
X179217619Y-132417380D01*
X179027142Y-132417380D01*
X178931904Y-132369761D01*
X178884285Y-132322142D01*
X178836666Y-132226904D01*
X178836666Y-131988809D01*
X178884285Y-131893571D01*
X178931904Y-131845952D01*
X179027142Y-131798333D01*
X179217619Y-131798333D01*
X179312857Y-131845952D01*
X179360476Y-131893571D01*
X179408095Y-131988809D01*
X177693809Y-131369761D02*
X178550952Y-132655476D01*
X196384285Y-133067380D02*
X195812857Y-133067380D01*
X196098571Y-134067380D02*
X196098571Y-133067380D01*
X195479523Y-134067380D02*
X195479523Y-133067380D01*
X195050952Y-134067380D02*
X195050952Y-133543571D01*
X195098571Y-133448333D01*
X195193809Y-133400714D01*
X195336666Y-133400714D01*
X195431904Y-133448333D01*
X195479523Y-133495952D01*
X194146190Y-133400714D02*
X194146190Y-134067380D01*
X194574761Y-133400714D02*
X194574761Y-133924523D01*
X194527142Y-134019761D01*
X194431904Y-134067380D01*
X194289047Y-134067380D01*
X194193809Y-134019761D01*
X194146190Y-133972142D01*
X193670000Y-134067380D02*
X193670000Y-133400714D01*
X193670000Y-133495952D02*
X193622380Y-133448333D01*
X193527142Y-133400714D01*
X193384285Y-133400714D01*
X193289047Y-133448333D01*
X193241428Y-133543571D01*
X193241428Y-134067380D01*
X193241428Y-133543571D02*
X193193809Y-133448333D01*
X193098571Y-133400714D01*
X192955714Y-133400714D01*
X192860476Y-133448333D01*
X192812857Y-133543571D01*
X192812857Y-134067380D01*
X192336666Y-134067380D02*
X192336666Y-133067380D01*
X192336666Y-133448333D02*
X192241428Y-133400714D01*
X192050952Y-133400714D01*
X191955714Y-133448333D01*
X191908095Y-133495952D01*
X191860476Y-133591190D01*
X191860476Y-133876904D01*
X191908095Y-133972142D01*
X191955714Y-134019761D01*
X192050952Y-134067380D01*
X192241428Y-134067380D01*
X192336666Y-134019761D01*
X191479523Y-134019761D02*
X191384285Y-134067380D01*
X191193809Y-134067380D01*
X191098571Y-134019761D01*
X191050952Y-133924523D01*
X191050952Y-133876904D01*
X191098571Y-133781666D01*
X191193809Y-133734047D01*
X191336666Y-133734047D01*
X191431904Y-133686428D01*
X191479523Y-133591190D01*
X191479523Y-133543571D01*
X191431904Y-133448333D01*
X191336666Y-133400714D01*
X191193809Y-133400714D01*
X191098571Y-133448333D01*
X190622380Y-133067380D02*
X190622380Y-133876904D01*
X190574761Y-133972142D01*
X190527142Y-134019761D01*
X190431904Y-134067380D01*
X190241428Y-134067380D01*
X190146190Y-134019761D01*
X190098571Y-133972142D01*
X190050952Y-133876904D01*
X190050952Y-133067380D01*
X189574761Y-133400714D02*
X189574761Y-134400714D01*
X189574761Y-133448333D02*
X189479523Y-133400714D01*
X189289047Y-133400714D01*
X189193809Y-133448333D01*
X189146190Y-133495952D01*
X189098571Y-133591190D01*
X189098571Y-133876904D01*
X189146190Y-133972142D01*
X189193809Y-134019761D01*
X189289047Y-134067380D01*
X189479523Y-134067380D01*
X189574761Y-134019761D01*
X188670000Y-133067380D02*
X188670000Y-133876904D01*
X188622380Y-133972142D01*
X188574761Y-134019761D01*
X188479523Y-134067380D01*
X188289047Y-134067380D01*
X188193809Y-134019761D01*
X188146190Y-133972142D01*
X188098571Y-133876904D01*
X188098571Y-133067380D01*
X187622380Y-133400714D02*
X187622380Y-134067380D01*
X187622380Y-133495952D02*
X187574761Y-133448333D01*
X187479523Y-133400714D01*
X187336666Y-133400714D01*
X187241428Y-133448333D01*
X187193809Y-133543571D01*
X187193809Y-134067380D01*
X186765238Y-134019761D02*
X186670000Y-134067380D01*
X186479523Y-134067380D01*
X186384285Y-134019761D01*
X186336666Y-133924523D01*
X186336666Y-133876904D01*
X186384285Y-133781666D01*
X186479523Y-133734047D01*
X186622380Y-133734047D01*
X186717619Y-133686428D01*
X186765238Y-133591190D01*
X186765238Y-133543571D01*
X186717619Y-133448333D01*
X186622380Y-133400714D01*
X186479523Y-133400714D01*
X186384285Y-133448333D01*
X185908095Y-133400714D02*
X185908095Y-134400714D01*
X185908095Y-133448333D02*
X185812857Y-133400714D01*
X185622380Y-133400714D01*
X185527142Y-133448333D01*
X185479523Y-133495952D01*
X185431904Y-133591190D01*
X185431904Y-133876904D01*
X185479523Y-133972142D01*
X185527142Y-134019761D01*
X185622380Y-134067380D01*
X185812857Y-134067380D01*
X185908095Y-134019761D01*
X184860476Y-134067380D02*
X184955714Y-134019761D01*
X185003333Y-133924523D01*
X185003333Y-133067380D01*
X184479523Y-134067380D02*
X184479523Y-133400714D01*
X184479523Y-133067380D02*
X184527142Y-133115000D01*
X184479523Y-133162619D01*
X184431904Y-133115000D01*
X184479523Y-133067380D01*
X184479523Y-133162619D01*
X184146190Y-133400714D02*
X183765238Y-133400714D01*
X184003333Y-133067380D02*
X184003333Y-133924523D01*
X183955714Y-134019761D01*
X183860476Y-134067380D01*
X183765238Y-134067380D01*
X183574761Y-133067380D02*
X183241428Y-134067380D01*
X182908095Y-133067380D01*
X182527142Y-134067380D02*
X182336666Y-134067380D01*
X182241428Y-134019761D01*
X182193809Y-133972142D01*
X182098571Y-133829285D01*
X182050952Y-133638809D01*
X182050952Y-133257857D01*
X182098571Y-133162619D01*
X182146190Y-133115000D01*
X182241428Y-133067380D01*
X182431904Y-133067380D01*
X182527142Y-133115000D01*
X182574761Y-133162619D01*
X182622380Y-133257857D01*
X182622380Y-133495952D01*
X182574761Y-133591190D01*
X182527142Y-133638809D01*
X182431904Y-133686428D01*
X182241428Y-133686428D01*
X182146190Y-133638809D01*
X182098571Y-133591190D01*
X182050952Y-133495952D01*
D11*
X109310000Y-127400000D02*
X109310000Y-131300000D01*
X111310000Y-127400000D02*
X111310000Y-131300000D01*
X109310000Y-127400000D02*
X111310000Y-127400000D01*
X111710000Y-127400000D02*
X111710000Y-131300000D01*
X113710000Y-127400000D02*
X113710000Y-131300000D01*
X111710000Y-127400000D02*
X113710000Y-127400000D01*
X154580000Y-121250000D02*
X154580000Y-119920000D01*
X153250000Y-121250000D02*
X154580000Y-121250000D01*
X151980000Y-121250000D02*
X151980000Y-118590000D01*
X151980000Y-118590000D02*
X149380000Y-118590000D01*
X151980000Y-121250000D02*
X149380000Y-121250000D01*
X149380000Y-121250000D02*
X149380000Y-118590000D01*
D10*
X160602000Y-85982000D02*
X160602000Y-116462000D01*
X155522000Y-85982000D02*
X160602000Y-85982000D01*
X155522000Y-83442000D02*
X155522000Y-85982000D01*
X147902000Y-83442000D02*
X155522000Y-83442000D01*
X147902000Y-85982000D02*
X147902000Y-83442000D01*
X142822000Y-85982000D02*
X147902000Y-85982000D01*
X142822000Y-116462000D02*
X142822000Y-85982000D01*
X160602000Y-116462000D02*
X142822000Y-116462000D01*
D11*
X178806922Y-139882000D02*
X179324078Y-139882000D01*
X178806922Y-141302000D02*
X179324078Y-141302000D01*
X179324078Y-143334000D02*
X178806922Y-143334000D01*
X179324078Y-141914000D02*
X178806922Y-141914000D01*
D10*
X163082000Y-144462000D02*
X168282000Y-144462000D01*
X168282000Y-144462000D02*
X168282000Y-139262000D01*
X168282000Y-139262000D02*
X163082000Y-139262000D01*
X163082000Y-139262000D02*
X163082000Y-144462000D01*
X166682000Y-141862000D02*
G75*
G03X166682000Y-141862000I-1000000J0D01*
G01*
X236327677Y-103049842D02*
X236065452Y-102400813D01*
X236065452Y-102400813D02*
X231893125Y-104086543D01*
X238280363Y-103878708D02*
G75*
G02X236327677Y-103049842I-561910J1390776D01*
G01*
X239502500Y-108238338D02*
X238851605Y-107962050D01*
X238476998Y-107034866D02*
X238851605Y-107962050D01*
X233653776Y-108444307D02*
X237826103Y-106758577D01*
X241249217Y-103218480D02*
X240598322Y-102942191D01*
X233429012Y-107887997D02*
X233653776Y-108444307D01*
X240598322Y-102942191D02*
X238280363Y-103878708D01*
X242560340Y-106463623D02*
X242284052Y-107114519D01*
X242284052Y-107114519D02*
X239502500Y-108238338D01*
X237826104Y-106758578D02*
G75*
G02X238476998Y-107034866I187303J-463591D01*
G01*
X231893125Y-104086543D02*
X232080428Y-104550135D01*
X183853455Y-71941869D02*
X183591230Y-71292840D01*
X183591230Y-71292840D02*
X179418903Y-72978570D01*
X185806141Y-72770735D02*
G75*
G02X183853455Y-71941869I-561910J1390776D01*
G01*
X187028278Y-77130365D02*
X186377383Y-76854077D01*
X186002776Y-75926893D02*
X186377383Y-76854077D01*
X181179554Y-77336334D02*
X185351881Y-75650604D01*
X188774995Y-72110507D02*
X188124100Y-71834218D01*
X180954790Y-76780024D02*
X181179554Y-77336334D01*
X188124100Y-71834218D02*
X185806141Y-72770735D01*
X190086118Y-75355650D02*
X189809830Y-76006546D01*
X189809830Y-76006546D02*
X187028278Y-77130365D01*
X185351882Y-75650605D02*
G75*
G02X186002776Y-75926893I187303J-463591D01*
G01*
X179418903Y-72978570D02*
X179606206Y-73442162D01*
X190409070Y-88167586D02*
X190146845Y-87518557D01*
X190146845Y-87518557D02*
X185974518Y-89204287D01*
X192361756Y-88996452D02*
G75*
G02X190409070Y-88167586I-561910J1390776D01*
G01*
X193583893Y-93356082D02*
X192932998Y-93079794D01*
X192558391Y-92152610D02*
X192932998Y-93079794D01*
X187735169Y-93562051D02*
X191907496Y-91876321D01*
X195330610Y-88336224D02*
X194679715Y-88059935D01*
X187510405Y-93005741D02*
X187735169Y-93562051D01*
X194679715Y-88059935D02*
X192361756Y-88996452D01*
X196641733Y-91581367D02*
X196365445Y-92232263D01*
X196365445Y-92232263D02*
X193583893Y-93356082D01*
X191907497Y-91876322D02*
G75*
G02X192558391Y-92152610I187303J-463591D01*
G01*
X185974518Y-89204287D02*
X186161821Y-89667879D01*
X196964685Y-104393304D02*
X196702460Y-103744275D01*
X196702460Y-103744275D02*
X192530133Y-105430005D01*
X198917371Y-105222170D02*
G75*
G02X196964685Y-104393304I-561910J1390776D01*
G01*
X200139508Y-109581800D02*
X199488613Y-109305512D01*
X199114006Y-108378328D02*
X199488613Y-109305512D01*
X194290784Y-109787769D02*
X198463111Y-108102039D01*
X201886225Y-104561942D02*
X201235330Y-104285653D01*
X194066020Y-109231459D02*
X194290784Y-109787769D01*
X201235330Y-104285653D02*
X198917371Y-105222170D01*
X203197348Y-107807085D02*
X202921060Y-108457981D01*
X202921060Y-108457981D02*
X200139508Y-109581800D01*
X198463112Y-108102040D02*
G75*
G02X199114006Y-108378328I187303J-463591D01*
G01*
X192530133Y-105430005D02*
X192717436Y-105893597D01*
X217301743Y-105344145D02*
X217039518Y-104695116D01*
X217039518Y-104695116D02*
X212867191Y-106380846D01*
X219254429Y-106173011D02*
G75*
G02X217301743Y-105344145I-561910J1390776D01*
G01*
X220476566Y-110532641D02*
X219825671Y-110256353D01*
X219451064Y-109329169D02*
X219825671Y-110256353D01*
X214627842Y-110738610D02*
X218800169Y-109052880D01*
X222223283Y-105512783D02*
X221572388Y-105236494D01*
X214403078Y-110182300D02*
X214627842Y-110738610D01*
X221572388Y-105236494D02*
X219254429Y-106173011D01*
X223534406Y-108757926D02*
X223258118Y-109408822D01*
X223258118Y-109408822D02*
X220476566Y-110532641D01*
X218800170Y-109052881D02*
G75*
G02X219451064Y-109329169I187303J-463591D01*
G01*
X212867191Y-106380846D02*
X213054494Y-106844438D01*
X121047317Y-67885686D02*
X120785093Y-68534715D01*
X120785093Y-68534715D02*
X124957420Y-70220444D01*
X120218451Y-65933000D02*
G75*
G02X121047317Y-67885686I-561910J-1390776D01*
G01*
X122367773Y-61947976D02*
X122644061Y-62598872D01*
X122269455Y-63526055D02*
X122644061Y-62598872D01*
X126718071Y-65862680D02*
X122545744Y-64176951D01*
X117624203Y-64345589D02*
X117900492Y-64996484D01*
X126493307Y-66418991D02*
X126718071Y-65862680D01*
X117900492Y-64996484D02*
X120218451Y-65933000D01*
X118935326Y-61100445D02*
X119586221Y-60824157D01*
X119586221Y-60824157D02*
X122367773Y-61947976D01*
X122545743Y-64176951D02*
G75*
G02X122269455Y-63526055I187304J463592D01*
G01*
X124957420Y-70220444D02*
X125144723Y-69756852D01*
X172132349Y-92316257D02*
X171870124Y-91667228D01*
X171870124Y-91667228D02*
X167697797Y-93352958D01*
X174085035Y-93145123D02*
G75*
G02X172132349Y-92316257I-561910J1390776D01*
G01*
X175307172Y-97504753D02*
X174656277Y-97228465D01*
X174281670Y-96301281D02*
X174656277Y-97228465D01*
X169458448Y-97710722D02*
X173630775Y-96024992D01*
X177053889Y-92484895D02*
X176402994Y-92208606D01*
X169233684Y-97154412D02*
X169458448Y-97710722D01*
X176402994Y-92208606D02*
X174085035Y-93145123D01*
X178365012Y-95730038D02*
X178088724Y-96380934D01*
X178088724Y-96380934D02*
X175307172Y-97504753D01*
X173630776Y-96024993D02*
G75*
G02X174281670Y-96301281I187303J-463591D01*
G01*
X167697797Y-93352958D02*
X167885100Y-93816550D01*
X68573094Y-98993659D02*
X68310870Y-99642688D01*
X68310870Y-99642688D02*
X72483197Y-101328417D01*
X67744228Y-97040973D02*
G75*
G02X68573094Y-98993659I-561910J-1390776D01*
G01*
X69893550Y-93055949D02*
X70169838Y-93706845D01*
X69795232Y-94634028D02*
X70169838Y-93706845D01*
X74243848Y-96970653D02*
X70071521Y-95284924D01*
X65149980Y-95453562D02*
X65426269Y-96104457D01*
X74019084Y-97526964D02*
X74243848Y-96970653D01*
X65426269Y-96104457D02*
X67744228Y-97040973D01*
X66461103Y-92208418D02*
X67111998Y-91932130D01*
X67111998Y-91932130D02*
X69893550Y-93055949D01*
X70071520Y-95284924D02*
G75*
G02X69795232Y-94634028I187304J463592D01*
G01*
X72483197Y-101328417D02*
X72670500Y-100864825D01*
X87599028Y-101287962D02*
X87336804Y-101936991D01*
X87336804Y-101936991D02*
X91509131Y-103622720D01*
X86770162Y-99335276D02*
G75*
G02X87599028Y-101287962I-561910J-1390776D01*
G01*
X88919484Y-95350252D02*
X89195772Y-96001148D01*
X88821166Y-96928331D02*
X89195772Y-96001148D01*
X93269782Y-99264956D02*
X89097455Y-97579227D01*
X84175914Y-97747865D02*
X84452203Y-98398760D01*
X93045018Y-99821267D02*
X93269782Y-99264956D01*
X84452203Y-98398760D02*
X86770162Y-99335276D01*
X85487037Y-94502721D02*
X86137932Y-94226433D01*
X86137932Y-94226433D02*
X88919484Y-95350252D01*
X89097454Y-97579227D02*
G75*
G02X88821166Y-96928331I187304J463592D01*
G01*
X91509131Y-103622720D02*
X91696434Y-103159128D01*
X107936086Y-100337121D02*
X107673862Y-100986150D01*
X107673862Y-100986150D02*
X111846189Y-102671879D01*
X107107220Y-98384435D02*
G75*
G02X107936086Y-100337121I-561910J-1390776D01*
G01*
X109256542Y-94399411D02*
X109532830Y-95050307D01*
X109158224Y-95977490D02*
X109532830Y-95050307D01*
X113606840Y-98314115D02*
X109434513Y-96628386D01*
X104512972Y-96797024D02*
X104789261Y-97447919D01*
X113382076Y-98870426D02*
X113606840Y-98314115D01*
X104789261Y-97447919D02*
X107107220Y-98384435D01*
X105824095Y-93551880D02*
X106474990Y-93275592D01*
X106474990Y-93275592D02*
X109256542Y-94399411D01*
X109434512Y-96628386D02*
G75*
G02X109158224Y-95977490I187304J463592D01*
G01*
X111846189Y-102671879D02*
X112033492Y-102208287D01*
X178687964Y-108541974D02*
X178425739Y-107892945D01*
X178425739Y-107892945D02*
X174253412Y-109578675D01*
X180640650Y-109370840D02*
G75*
G02X178687964Y-108541974I-561910J1390776D01*
G01*
X181862787Y-113730470D02*
X181211892Y-113454182D01*
X180837285Y-112526998D02*
X181211892Y-113454182D01*
X176014063Y-113936439D02*
X180186390Y-112250709D01*
X183609504Y-108710612D02*
X182958609Y-108434323D01*
X175789299Y-113380129D02*
X176014063Y-113936439D01*
X182958609Y-108434323D02*
X180640650Y-109370840D01*
X184920627Y-111955755D02*
X184644339Y-112606651D01*
X184644339Y-112606651D02*
X181862787Y-113730470D01*
X180186391Y-112250710D02*
G75*
G02X180837285Y-112526998I187303J-463591D01*
G01*
X174253412Y-109578675D02*
X174440715Y-110042267D01*
X139324038Y-72034356D02*
X139061814Y-72683385D01*
X139061814Y-72683385D02*
X143234141Y-74369114D01*
X138495172Y-70081670D02*
G75*
G02X139324038Y-72034356I-561910J-1390776D01*
G01*
X140644494Y-66096646D02*
X140920782Y-66747542D01*
X140546176Y-67674725D02*
X140920782Y-66747542D01*
X144994792Y-70011350D02*
X140822465Y-68325621D01*
X135900924Y-68494259D02*
X136177213Y-69145154D01*
X144770028Y-70567661D02*
X144994792Y-70011350D01*
X136177213Y-69145154D02*
X138495172Y-70081670D01*
X137212047Y-65249115D02*
X137862942Y-64972827D01*
X137862942Y-64972827D02*
X140644494Y-66096646D01*
X140822464Y-68325621D02*
G75*
G02X140546176Y-67674725I187304J463592D01*
G01*
X143234141Y-74369114D02*
X143421444Y-73905522D01*
X126212807Y-104485791D02*
X125950583Y-105134820D01*
X125950583Y-105134820D02*
X130122910Y-106820549D01*
X125383941Y-102533105D02*
G75*
G02X126212807Y-104485791I-561910J-1390776D01*
G01*
X127533263Y-98548081D02*
X127809551Y-99198977D01*
X127434945Y-100126160D02*
X127809551Y-99198977D01*
X131883561Y-102462785D02*
X127711234Y-100777056D01*
X122789693Y-100945694D02*
X123065982Y-101596589D01*
X131658797Y-103019096D02*
X131883561Y-102462785D01*
X123065982Y-101596589D02*
X125383941Y-102533105D01*
X124100816Y-97700550D02*
X124751711Y-97424262D01*
X124751711Y-97424262D02*
X127533263Y-98548081D01*
X127711233Y-100777056D02*
G75*
G02X127434945Y-100126160I187304J463592D01*
G01*
X130122910Y-106820549D02*
X130310213Y-106356957D01*
X132768422Y-88260074D02*
X132506198Y-88909103D01*
X132506198Y-88909103D02*
X136678525Y-90594832D01*
X131939556Y-86307388D02*
G75*
G02X132768422Y-88260074I-561910J-1390776D01*
G01*
X134088878Y-82322364D02*
X134365166Y-82973260D01*
X133990560Y-83900443D02*
X134365166Y-82973260D01*
X138439176Y-86237068D02*
X134266849Y-84551339D01*
X129345308Y-84719977D02*
X129621597Y-85370872D01*
X138214412Y-86793379D02*
X138439176Y-86237068D01*
X129621597Y-85370872D02*
X131939556Y-86307388D01*
X130656431Y-81474833D02*
X131307326Y-81198545D01*
X131307326Y-81198545D02*
X134088878Y-82322364D01*
X134266848Y-84551339D02*
G75*
G02X133990560Y-83900443I187304J463592D01*
G01*
X136678525Y-90594832D02*
X136865828Y-90131240D01*
X165576734Y-76090539D02*
X165314509Y-75441510D01*
X165314509Y-75441510D02*
X161142182Y-77127240D01*
X167529420Y-76919405D02*
G75*
G02X165576734Y-76090539I-561910J1390776D01*
G01*
X168751557Y-81279035D02*
X168100662Y-81002747D01*
X167726055Y-80075563D02*
X168100662Y-81002747D01*
X162902833Y-81485004D02*
X167075160Y-79799274D01*
X170498274Y-76259177D02*
X169847379Y-75982888D01*
X162678069Y-80928694D02*
X162902833Y-81485004D01*
X169847379Y-75982888D02*
X167529420Y-76919405D01*
X171809397Y-79504320D02*
X171533109Y-80155216D01*
X171533109Y-80155216D02*
X168751557Y-81279035D01*
X167075161Y-79799275D02*
G75*
G02X167726055Y-80075563I187303J-463591D01*
G01*
X161142182Y-77127240D02*
X161329485Y-77590832D01*
X114491701Y-84111403D02*
X114229477Y-84760432D01*
X114229477Y-84760432D02*
X118401804Y-86446161D01*
X113662835Y-82158717D02*
G75*
G02X114491701Y-84111403I-561910J-1390776D01*
G01*
X115812157Y-78173693D02*
X116088445Y-78824589D01*
X115713839Y-79751772D02*
X116088445Y-78824589D01*
X120162455Y-82088397D02*
X115990128Y-80402668D01*
X111068587Y-80571306D02*
X111344876Y-81222201D01*
X119937691Y-82644708D02*
X120162455Y-82088397D01*
X111344876Y-81222201D02*
X113662835Y-82158717D01*
X112379710Y-77326162D02*
X113030605Y-77049874D01*
X113030605Y-77049874D02*
X115812157Y-78173693D01*
X115990127Y-80402668D02*
G75*
G02X115713839Y-79751772I187304J463592D01*
G01*
X118401804Y-86446161D02*
X118589107Y-85982569D01*
D11*
X200368750Y-125252500D02*
X200368750Y-121352500D01*
X198368750Y-125252500D02*
X198368750Y-121352500D01*
X200368750Y-125252500D02*
X198368750Y-125252500D01*
X197987500Y-125252500D02*
X197987500Y-121352500D01*
X195987500Y-125252500D02*
X195987500Y-121352500D01*
X197987500Y-125252500D02*
X195987500Y-125252500D01*
X186081250Y-125252500D02*
X186081250Y-121352500D01*
X184081250Y-125252500D02*
X184081250Y-121352500D01*
X186081250Y-125252500D02*
X184081250Y-125252500D01*
X188462500Y-125252500D02*
X188462500Y-121352500D01*
X186462500Y-125252500D02*
X186462500Y-121352500D01*
X188462500Y-125252500D02*
X186462500Y-125252500D01*
X190843750Y-125252500D02*
X190843750Y-121352500D01*
X188843750Y-125252500D02*
X188843750Y-121352500D01*
X190843750Y-125252500D02*
X188843750Y-125252500D01*
X193225000Y-125252500D02*
X193225000Y-121352500D01*
X191225000Y-125252500D02*
X191225000Y-121352500D01*
X193225000Y-125252500D02*
X191225000Y-125252500D01*
X161646250Y-127369000D02*
X165546250Y-127369000D01*
X161646250Y-125369000D02*
X165546250Y-125369000D01*
X161646250Y-127369000D02*
X161646250Y-125369000D01*
X161646250Y-129750250D02*
X165546250Y-129750250D01*
X161646250Y-127750250D02*
X165546250Y-127750250D01*
X161646250Y-129750250D02*
X161646250Y-127750250D01*
X161646250Y-132131500D02*
X165546250Y-132131500D01*
X161646250Y-130131500D02*
X165546250Y-130131500D01*
X161646250Y-132131500D02*
X161646250Y-130131500D01*
X161646250Y-134512750D02*
X165546250Y-134512750D01*
X161646250Y-132512750D02*
X165546250Y-132512750D01*
X161646250Y-134512750D02*
X161646250Y-132512750D01*
X153480000Y-127367750D02*
X157380000Y-127367750D01*
X153480000Y-125367750D02*
X157380000Y-125367750D01*
X153480000Y-127367750D02*
X153480000Y-125367750D01*
X153480000Y-129749000D02*
X157380000Y-129749000D01*
X153480000Y-127749000D02*
X157380000Y-127749000D01*
X153480000Y-129749000D02*
X153480000Y-127749000D01*
X153480000Y-132130250D02*
X157380000Y-132130250D01*
X153480000Y-130130250D02*
X157380000Y-130130250D01*
X153480000Y-132130250D02*
X153480000Y-130130250D01*
X153480000Y-134511500D02*
X157380000Y-134511500D01*
X153480000Y-132511500D02*
X157380000Y-132511500D01*
X153480000Y-134511500D02*
X153480000Y-132511500D01*
X205131250Y-125252500D02*
X205131250Y-121352500D01*
X203131250Y-125252500D02*
X203131250Y-121352500D01*
X205131250Y-125252500D02*
X203131250Y-125252500D01*
X202750000Y-125252500D02*
X202750000Y-121352500D01*
X200750000Y-125252500D02*
X200750000Y-121352500D01*
X202750000Y-125252500D02*
X200750000Y-125252500D01*
X195606250Y-125252500D02*
X195606250Y-121352500D01*
X193606250Y-125252500D02*
X193606250Y-121352500D01*
X195606250Y-125252500D02*
X193606250Y-125252500D01*
X161646250Y-136894000D02*
X165546250Y-136894000D01*
X161646250Y-134894000D02*
X165546250Y-134894000D01*
X161646250Y-136894000D02*
X161646250Y-134894000D01*
X153480000Y-136892750D02*
X157380000Y-136892750D01*
X153480000Y-134892750D02*
X157380000Y-134892750D01*
X153480000Y-136892750D02*
X153480000Y-134892750D01*
X183700000Y-125252500D02*
X183700000Y-121352500D01*
X181700000Y-125252500D02*
X181700000Y-121352500D01*
X183700000Y-125252500D02*
X181700000Y-125252500D01*
X161646250Y-124987750D02*
X165546250Y-124987750D01*
X161646250Y-122987750D02*
X165546250Y-122987750D01*
X161646250Y-124987750D02*
X161646250Y-122987750D01*
X153480000Y-124986500D02*
X157380000Y-124986500D01*
X153480000Y-122986500D02*
X157380000Y-122986500D01*
X153480000Y-124986500D02*
X153480000Y-122986500D01*
X124168750Y-125252500D02*
X124168750Y-121352500D01*
X122168750Y-125252500D02*
X122168750Y-121352500D01*
X124168750Y-125252500D02*
X122168750Y-125252500D01*
X142085500Y-122961750D02*
X138185500Y-122961750D01*
X142085500Y-124961750D02*
X138185500Y-124961750D01*
X142085500Y-122961750D02*
X142085500Y-124961750D01*
X149666500Y-123006500D02*
X145766500Y-123006500D01*
X149666500Y-125006500D02*
X145766500Y-125006500D01*
X149666500Y-123006500D02*
X149666500Y-125006500D01*
X102737500Y-125252500D02*
X102737500Y-121352500D01*
X100737500Y-125252500D02*
X100737500Y-121352500D01*
X102737500Y-125252500D02*
X100737500Y-125252500D01*
X105118750Y-125252500D02*
X105118750Y-121352500D01*
X103118750Y-125252500D02*
X103118750Y-121352500D01*
X105118750Y-125252500D02*
X103118750Y-125252500D01*
X112262500Y-125252500D02*
X112262500Y-121352500D01*
X110262500Y-125252500D02*
X110262500Y-121352500D01*
X112262500Y-125252500D02*
X110262500Y-125252500D01*
X142085500Y-134868000D02*
X138185500Y-134868000D01*
X142085500Y-136868000D02*
X138185500Y-136868000D01*
X142085500Y-134868000D02*
X142085500Y-136868000D01*
X149666500Y-134912750D02*
X145766500Y-134912750D01*
X149666500Y-136912750D02*
X145766500Y-136912750D01*
X149666500Y-134912750D02*
X149666500Y-136912750D01*
X107500000Y-125252500D02*
X107500000Y-121352500D01*
X105500000Y-125252500D02*
X105500000Y-121352500D01*
X107500000Y-125252500D02*
X105500000Y-125252500D01*
X109881250Y-125252500D02*
X109881250Y-121352500D01*
X107881250Y-125252500D02*
X107881250Y-121352500D01*
X109881250Y-125252500D02*
X107881250Y-125252500D01*
X121787500Y-125252500D02*
X121787500Y-121352500D01*
X119787500Y-125252500D02*
X119787500Y-121352500D01*
X121787500Y-125252500D02*
X119787500Y-125252500D01*
X119406250Y-125252500D02*
X119406250Y-121352500D01*
X117406250Y-125252500D02*
X117406250Y-121352500D01*
X119406250Y-125252500D02*
X117406250Y-125252500D01*
X117025000Y-125252500D02*
X117025000Y-121352500D01*
X115025000Y-125252500D02*
X115025000Y-121352500D01*
X117025000Y-125252500D02*
X115025000Y-125252500D01*
X114643750Y-125252500D02*
X114643750Y-121352500D01*
X112643750Y-125252500D02*
X112643750Y-121352500D01*
X114643750Y-125252500D02*
X112643750Y-125252500D01*
X142085500Y-125343000D02*
X138185500Y-125343000D01*
X142085500Y-127343000D02*
X138185500Y-127343000D01*
X142085500Y-125343000D02*
X142085500Y-127343000D01*
X142085500Y-127724250D02*
X138185500Y-127724250D01*
X142085500Y-129724250D02*
X138185500Y-129724250D01*
X142085500Y-127724250D02*
X142085500Y-129724250D01*
X142085500Y-130105500D02*
X138185500Y-130105500D01*
X142085500Y-132105500D02*
X138185500Y-132105500D01*
X142085500Y-130105500D02*
X142085500Y-132105500D01*
X142085500Y-132486750D02*
X138185500Y-132486750D01*
X142085500Y-134486750D02*
X138185500Y-134486750D01*
X142085500Y-132486750D02*
X142085500Y-134486750D01*
X149666500Y-125387750D02*
X145766500Y-125387750D01*
X149666500Y-127387750D02*
X145766500Y-127387750D01*
X149666500Y-125387750D02*
X149666500Y-127387750D01*
X149666500Y-127769000D02*
X145766500Y-127769000D01*
X149666500Y-129769000D02*
X145766500Y-129769000D01*
X149666500Y-127769000D02*
X149666500Y-129769000D01*
X149666500Y-130150250D02*
X145766500Y-130150250D01*
X149666500Y-132150250D02*
X145766500Y-132150250D01*
X149666500Y-130150250D02*
X149666500Y-132150250D01*
X149666500Y-132531500D02*
X145766500Y-132531500D01*
X149666500Y-134531500D02*
X145766500Y-134531500D01*
X149666500Y-132531500D02*
X149666500Y-134531500D01*
D10*
X108762380Y-128435714D02*
X107762380Y-128435714D01*
X107762380Y-128673809D01*
X107810000Y-128816666D01*
X107905238Y-128911904D01*
X108000476Y-128959523D01*
X108190952Y-129007142D01*
X108333809Y-129007142D01*
X108524285Y-128959523D01*
X108619523Y-128911904D01*
X108714761Y-128816666D01*
X108762380Y-128673809D01*
X108762380Y-128435714D01*
X108095714Y-129864285D02*
X108762380Y-129864285D01*
X107714761Y-129626190D02*
X108429047Y-129388095D01*
X108429047Y-130007142D01*
X107762380Y-130816666D02*
X107762380Y-130626190D01*
X107810000Y-130530952D01*
X107857619Y-130483333D01*
X108000476Y-130388095D01*
X108190952Y-130340476D01*
X108571904Y-130340476D01*
X108667142Y-130388095D01*
X108714761Y-130435714D01*
X108762380Y-130530952D01*
X108762380Y-130721428D01*
X108714761Y-130816666D01*
X108667142Y-130864285D01*
X108571904Y-130911904D01*
X108333809Y-130911904D01*
X108238571Y-130864285D01*
X108190952Y-130816666D01*
X108143333Y-130721428D01*
X108143333Y-130530952D01*
X108190952Y-130435714D01*
X108238571Y-130388095D01*
X108333809Y-130340476D01*
X111162380Y-128435714D02*
X110162380Y-128435714D01*
X110162380Y-128673809D01*
X110210000Y-128816666D01*
X110305238Y-128911904D01*
X110400476Y-128959523D01*
X110590952Y-129007142D01*
X110733809Y-129007142D01*
X110924285Y-128959523D01*
X111019523Y-128911904D01*
X111114761Y-128816666D01*
X111162380Y-128673809D01*
X111162380Y-128435714D01*
X110495714Y-129864285D02*
X111162380Y-129864285D01*
X110114761Y-129626190D02*
X110829047Y-129388095D01*
X110829047Y-130007142D01*
X110162380Y-130864285D02*
X110162380Y-130388095D01*
X110638571Y-130340476D01*
X110590952Y-130388095D01*
X110543333Y-130483333D01*
X110543333Y-130721428D01*
X110590952Y-130816666D01*
X110638571Y-130864285D01*
X110733809Y-130911904D01*
X110971904Y-130911904D01*
X111067142Y-130864285D01*
X111114761Y-130816666D01*
X111162380Y-130721428D01*
X111162380Y-130483333D01*
X111114761Y-130388095D01*
X111067142Y-130340476D01*
X156097619Y-117359523D02*
X155383333Y-117359523D01*
X155240476Y-117407142D01*
X155145238Y-117502380D01*
X155097619Y-117645238D01*
X155097619Y-117740476D01*
X156097619Y-116978571D02*
X156097619Y-116359523D01*
X155716666Y-116692857D01*
X155716666Y-116550000D01*
X155669047Y-116454761D01*
X155621428Y-116407142D01*
X155526190Y-116359523D01*
X155288095Y-116359523D01*
X155192857Y-116407142D01*
X155145238Y-116454761D01*
X155097619Y-116550000D01*
X155097619Y-116835714D01*
X155145238Y-116930952D01*
X155192857Y-116978571D01*
X156002380Y-115978571D02*
X156050000Y-115930952D01*
X156097619Y-115835714D01*
X156097619Y-115597619D01*
X156050000Y-115502380D01*
X156002380Y-115454761D01*
X155907142Y-115407142D01*
X155811904Y-115407142D01*
X155669047Y-115454761D01*
X155097619Y-116026190D01*
X155097619Y-115407142D01*
D12*
X141533333Y-145194047D02*
X141351904Y-145254523D01*
X141049523Y-145254523D01*
X140928571Y-145194047D01*
X140868095Y-145133571D01*
X140807619Y-145012619D01*
X140807619Y-144891666D01*
X140868095Y-144770714D01*
X140928571Y-144710238D01*
X141049523Y-144649761D01*
X141291428Y-144589285D01*
X141412380Y-144528809D01*
X141472857Y-144468333D01*
X141533333Y-144347380D01*
X141533333Y-144226428D01*
X141472857Y-144105476D01*
X141412380Y-144045000D01*
X141291428Y-143984523D01*
X140989047Y-143984523D01*
X140807619Y-144045000D01*
X140384285Y-143984523D02*
X140081904Y-145254523D01*
X139840000Y-144347380D01*
X139598095Y-145254523D01*
X139295714Y-143984523D01*
X138872380Y-144105476D02*
X138811904Y-144045000D01*
X138690952Y-143984523D01*
X138388571Y-143984523D01*
X138267619Y-144045000D01*
X138207142Y-144105476D01*
X138146666Y-144226428D01*
X138146666Y-144347380D01*
X138207142Y-144528809D01*
X138932857Y-145254523D01*
X138146666Y-145254523D01*
D10*
X176416666Y-143072380D02*
X176750000Y-142596190D01*
X176988095Y-143072380D02*
X176988095Y-142072380D01*
X176607142Y-142072380D01*
X176511904Y-142120000D01*
X176464285Y-142167619D01*
X176416666Y-142262857D01*
X176416666Y-142405714D01*
X176464285Y-142500952D01*
X176511904Y-142548571D01*
X176607142Y-142596190D01*
X176988095Y-142596190D01*
X176035714Y-142167619D02*
X175988095Y-142120000D01*
X175892857Y-142072380D01*
X175654761Y-142072380D01*
X175559523Y-142120000D01*
X175511904Y-142167619D01*
X175464285Y-142262857D01*
X175464285Y-142358095D01*
X175511904Y-142500952D01*
X176083333Y-143072380D01*
X175464285Y-143072380D01*
X176446666Y-141132380D02*
X176780000Y-140656190D01*
X177018095Y-141132380D02*
X177018095Y-140132380D01*
X176637142Y-140132380D01*
X176541904Y-140180000D01*
X176494285Y-140227619D01*
X176446666Y-140322857D01*
X176446666Y-140465714D01*
X176494285Y-140560952D01*
X176541904Y-140608571D01*
X176637142Y-140656190D01*
X177018095Y-140656190D01*
X175494285Y-141132380D02*
X176065714Y-141132380D01*
X175780000Y-141132380D02*
X175780000Y-140132380D01*
X175875238Y-140275238D01*
X175970476Y-140370476D01*
X176065714Y-140418095D01*
X171043333Y-138574761D02*
X170900476Y-138622380D01*
X170662380Y-138622380D01*
X170567142Y-138574761D01*
X170519523Y-138527142D01*
X170471904Y-138431904D01*
X170471904Y-138336666D01*
X170519523Y-138241428D01*
X170567142Y-138193809D01*
X170662380Y-138146190D01*
X170852857Y-138098571D01*
X170948095Y-138050952D01*
X170995714Y-138003333D01*
X171043333Y-137908095D01*
X171043333Y-137812857D01*
X170995714Y-137717619D01*
X170948095Y-137670000D01*
X170852857Y-137622380D01*
X170614761Y-137622380D01*
X170471904Y-137670000D01*
X170138571Y-137622380D02*
X169900476Y-138622380D01*
X169710000Y-137908095D01*
X169519523Y-138622380D01*
X169281428Y-137622380D01*
X168376666Y-138622380D02*
X168948095Y-138622380D01*
X168662380Y-138622380D02*
X168662380Y-137622380D01*
X168757619Y-137765238D01*
X168852857Y-137860476D01*
X168948095Y-137908095D01*
X238357746Y-108563207D02*
X237983139Y-107636023D01*
X237941654Y-108423166D01*
X237365017Y-107885761D01*
X237739623Y-108812944D01*
X237011804Y-108028468D02*
X236768288Y-109205389D01*
X236393681Y-108278206D02*
X237386411Y-108955652D01*
X236128772Y-108385236D02*
X235554801Y-108617135D01*
X236006569Y-108845479D01*
X235874114Y-108898995D01*
X235803650Y-108978823D01*
X235777336Y-109040813D01*
X235768862Y-109146955D01*
X235858054Y-109367713D01*
X235937882Y-109438178D01*
X235999872Y-109464491D01*
X236106014Y-109472966D01*
X236370923Y-109365935D01*
X236441388Y-109286107D01*
X236467702Y-109224117D01*
X235185527Y-109228561D02*
X235255992Y-109148732D01*
X235282305Y-109086742D01*
X235290780Y-108980601D01*
X235272942Y-108936449D01*
X235193113Y-108865984D01*
X235131123Y-108839671D01*
X235024981Y-108831196D01*
X234848375Y-108902550D01*
X234777910Y-108982378D01*
X234751597Y-109044368D01*
X234743122Y-109150510D01*
X234760961Y-109194662D01*
X234840789Y-109265126D01*
X234902779Y-109291440D01*
X235008921Y-109299914D01*
X235185527Y-109228561D01*
X235291669Y-109237036D01*
X235353659Y-109263349D01*
X235433487Y-109333814D01*
X235504841Y-109510420D01*
X235496366Y-109616562D01*
X235470053Y-109678552D01*
X235399588Y-109758380D01*
X235222982Y-109829734D01*
X235116840Y-109821259D01*
X235054850Y-109794946D01*
X234975021Y-109724481D01*
X234903668Y-109547874D01*
X234912143Y-109441733D01*
X234938456Y-109379743D01*
X235008921Y-109299914D01*
X185883524Y-77455234D02*
X185508917Y-76528050D01*
X185467432Y-77315193D01*
X184890795Y-76777788D01*
X185265401Y-77704971D01*
X184537582Y-76920495D02*
X184294066Y-78097416D01*
X183919459Y-77170233D02*
X184912189Y-77847679D01*
X183646075Y-77383405D02*
X183584085Y-77357091D01*
X183477943Y-77348617D01*
X183257185Y-77437809D01*
X183186720Y-77517637D01*
X183160407Y-77579627D01*
X183151932Y-77685769D01*
X183187609Y-77774072D01*
X183285276Y-77888688D01*
X184029156Y-78204447D01*
X183455185Y-78436346D01*
X182771517Y-77634031D02*
X182153395Y-77883769D01*
X182925366Y-78650407D01*
X192439139Y-93680951D02*
X192064532Y-92753767D01*
X192023047Y-93540910D01*
X191446410Y-93003505D01*
X191821016Y-93930688D01*
X191093197Y-93146212D02*
X190849681Y-94323133D01*
X190475074Y-93395950D02*
X191467804Y-94073396D01*
X190201690Y-93609122D02*
X190139700Y-93582808D01*
X190033558Y-93574334D01*
X189812800Y-93663526D01*
X189742335Y-93743354D01*
X189716022Y-93805344D01*
X189707547Y-93911486D01*
X189743224Y-93999789D01*
X189840891Y-94114405D01*
X190584771Y-94430164D01*
X190010800Y-94662063D01*
X189266920Y-94346305D02*
X189337385Y-94266476D01*
X189363698Y-94204486D01*
X189372173Y-94098345D01*
X189354335Y-94054193D01*
X189274506Y-93983728D01*
X189212516Y-93957415D01*
X189106374Y-93948940D01*
X188929768Y-94020294D01*
X188859303Y-94100122D01*
X188832990Y-94162112D01*
X188824515Y-94268254D01*
X188842354Y-94312406D01*
X188922182Y-94382870D01*
X188984172Y-94409184D01*
X189090314Y-94417658D01*
X189266920Y-94346305D01*
X189373062Y-94354780D01*
X189435052Y-94381093D01*
X189514880Y-94451558D01*
X189586234Y-94628164D01*
X189577759Y-94734306D01*
X189551446Y-94796296D01*
X189480981Y-94876124D01*
X189304375Y-94947478D01*
X189198233Y-94939003D01*
X189136243Y-94912690D01*
X189056414Y-94842225D01*
X188985061Y-94665618D01*
X188993536Y-94559477D01*
X189019849Y-94497487D01*
X189090314Y-94417658D01*
X198994754Y-109906669D02*
X198620147Y-108979485D01*
X198578662Y-109766628D01*
X198002025Y-109229223D01*
X198376631Y-110156406D01*
X197648812Y-109371930D02*
X197405296Y-110548851D01*
X197030689Y-109621668D02*
X198023419Y-110299114D01*
X196757305Y-109834840D02*
X196695315Y-109808526D01*
X196589173Y-109800052D01*
X196368415Y-109889244D01*
X196297950Y-109969072D01*
X196271637Y-110031062D01*
X196263162Y-110137204D01*
X196298839Y-110225507D01*
X196396506Y-110340123D01*
X197140386Y-110655882D01*
X196566415Y-110887781D01*
X196124899Y-111066165D02*
X195948293Y-111137519D01*
X195842151Y-111129044D01*
X195780161Y-111102731D01*
X195638343Y-111005953D01*
X195522837Y-110847185D01*
X195380130Y-110493972D01*
X195388605Y-110387830D01*
X195414918Y-110325840D01*
X195485383Y-110246012D01*
X195661989Y-110174658D01*
X195768131Y-110183133D01*
X195830121Y-110209446D01*
X195909950Y-110279911D01*
X195999142Y-110500669D01*
X195990667Y-110606811D01*
X195964354Y-110668801D01*
X195893889Y-110748629D01*
X195717282Y-110819983D01*
X195611141Y-110811508D01*
X195549151Y-110785195D01*
X195469322Y-110714730D01*
X219331812Y-110857510D02*
X218957205Y-109930326D01*
X218915720Y-110717469D01*
X218339083Y-110180064D01*
X218713689Y-111107247D01*
X217985870Y-110322771D02*
X217742354Y-111499692D01*
X217367747Y-110572509D02*
X218360477Y-111249955D01*
X217102838Y-110679539D02*
X216528867Y-110911438D01*
X216980635Y-111139782D01*
X216848180Y-111193298D01*
X216777716Y-111273126D01*
X216751402Y-111335116D01*
X216742928Y-111441258D01*
X216832120Y-111662016D01*
X216911948Y-111732481D01*
X216973938Y-111758794D01*
X217080080Y-111767269D01*
X217344989Y-111660238D01*
X217415454Y-111580410D01*
X217441768Y-111518420D01*
X215859007Y-111541591D02*
X216108744Y-112159714D01*
X215937057Y-111099186D02*
X216425392Y-111672268D01*
X215851421Y-111904167D01*
X126345201Y-64668420D02*
X126719808Y-63741236D01*
X126143170Y-64278641D01*
X126101685Y-63491498D01*
X125727079Y-64418682D01*
X125748472Y-63348791D02*
X124755743Y-64026237D01*
X125130350Y-63099053D02*
X125373866Y-64275975D01*
X123916863Y-63687307D02*
X124446682Y-63901368D01*
X124181772Y-63794338D02*
X124556379Y-62867154D01*
X124591167Y-63035286D01*
X124643793Y-63159266D01*
X124714258Y-63239094D01*
X123452589Y-62421194D02*
X123894105Y-62599578D01*
X123759872Y-63058932D01*
X123733559Y-62996942D01*
X123663094Y-62917114D01*
X123442336Y-62827922D01*
X123336194Y-62836397D01*
X123274204Y-62862710D01*
X123194376Y-62933175D01*
X123105184Y-63153933D01*
X123113659Y-63260074D01*
X123139972Y-63322064D01*
X123210437Y-63401893D01*
X123431195Y-63491085D01*
X123537336Y-63482610D01*
X123599327Y-63456297D01*
X174162418Y-97829622D02*
X173787811Y-96902438D01*
X173746326Y-97689581D01*
X173169689Y-97152176D01*
X173544295Y-98079359D01*
X172816476Y-97294883D02*
X172572960Y-98471804D01*
X172198353Y-97544621D02*
X173191083Y-98222067D01*
X171924969Y-97757793D02*
X171862979Y-97731479D01*
X171756837Y-97723005D01*
X171536079Y-97812197D01*
X171465614Y-97892025D01*
X171439301Y-97954015D01*
X171430826Y-98060157D01*
X171466503Y-98148460D01*
X171564170Y-98263076D01*
X172308050Y-98578835D01*
X171734079Y-98810734D01*
X170689613Y-98513703D02*
X170939350Y-99131826D01*
X170767663Y-98071298D02*
X171255998Y-98644380D01*
X170682027Y-98876279D01*
X73870978Y-95776393D02*
X74245585Y-94849209D01*
X73668947Y-95386614D01*
X73627462Y-94599471D01*
X73252856Y-95526655D01*
X73274249Y-94456764D02*
X72281520Y-95134210D01*
X72656127Y-94207026D02*
X72899643Y-95383948D01*
X71442640Y-94795280D02*
X71972459Y-95009341D01*
X71707549Y-94902311D02*
X72082156Y-93975127D01*
X72116944Y-94143259D01*
X72169570Y-94267239D01*
X72240035Y-94347067D01*
X71243275Y-93636197D02*
X71154972Y-93600520D01*
X71048830Y-93608995D01*
X70986840Y-93635308D01*
X70907012Y-93705773D01*
X70791507Y-93864541D01*
X70702315Y-94085299D01*
X70675113Y-94279744D01*
X70683587Y-94385886D01*
X70709901Y-94447876D01*
X70780365Y-94527704D01*
X70868669Y-94563381D01*
X70974810Y-94554906D01*
X71036800Y-94528593D01*
X71116629Y-94458128D01*
X71232134Y-94299360D01*
X71321326Y-94078602D01*
X71348528Y-93884157D01*
X71340053Y-93778016D01*
X71313740Y-93716026D01*
X71243275Y-93636197D01*
X92896912Y-98070696D02*
X93271519Y-97143512D01*
X92694881Y-97680917D01*
X92653396Y-96893774D01*
X92278790Y-97820958D01*
X92300183Y-96751067D02*
X91307454Y-97428513D01*
X91682061Y-96501329D02*
X91925577Y-97678251D01*
X90468574Y-97089583D02*
X90998393Y-97303644D01*
X90733483Y-97196614D02*
X91108090Y-96269430D01*
X91142878Y-96437562D01*
X91195504Y-96561542D01*
X91265969Y-96641370D01*
X89923582Y-96150370D02*
X89673845Y-96768492D01*
X90287048Y-95886349D02*
X90240230Y-96637815D01*
X89666259Y-96405916D01*
X113233970Y-97119855D02*
X113608577Y-96192671D01*
X113031939Y-96730076D01*
X112990454Y-95942933D01*
X112615848Y-96870117D01*
X112637241Y-95800226D02*
X111644512Y-96477672D01*
X112019119Y-95550488D02*
X112262635Y-96727410D01*
X110805632Y-96138742D02*
X111335451Y-96352803D01*
X111070541Y-96245773D02*
X111445148Y-95318589D01*
X111479936Y-95486721D01*
X111532562Y-95610701D01*
X111603027Y-95690529D01*
X110871177Y-95086690D02*
X110253054Y-94836952D01*
X110275812Y-95924682D01*
X180718033Y-114055339D02*
X180343426Y-113128155D01*
X180301941Y-113915298D01*
X179725304Y-113377893D01*
X180099910Y-114305076D01*
X179372091Y-113520600D02*
X179128575Y-114697521D01*
X178753968Y-113770338D02*
X179746698Y-114447784D01*
X178480584Y-113983510D02*
X178418594Y-113957196D01*
X178312452Y-113948722D01*
X178091694Y-114037914D01*
X178021229Y-114117742D01*
X177994916Y-114179732D01*
X177986441Y-114285874D01*
X178022118Y-114374177D01*
X178119785Y-114488793D01*
X178863665Y-114804552D01*
X178289694Y-115036451D01*
X177076207Y-114448197D02*
X177517723Y-114269813D01*
X177740259Y-114693491D01*
X177678269Y-114667178D01*
X177572127Y-114658703D01*
X177351369Y-114747895D01*
X177280904Y-114827723D01*
X177254591Y-114889713D01*
X177246116Y-114995855D01*
X177335308Y-115216613D01*
X177415137Y-115287078D01*
X177477127Y-115313391D01*
X177583269Y-115321866D01*
X177804027Y-115232674D01*
X177874491Y-115152845D01*
X177900805Y-115090855D01*
X144621922Y-68817090D02*
X144996529Y-67889906D01*
X144419891Y-68427311D01*
X144378406Y-67640168D01*
X144003800Y-68567352D01*
X144025193Y-67497461D02*
X143032464Y-68174907D01*
X143407071Y-67247723D02*
X143650587Y-68424645D01*
X142193584Y-67835977D02*
X142723403Y-68050038D01*
X142458493Y-67943008D02*
X142833100Y-67015824D01*
X142867888Y-67183956D01*
X142920514Y-67307936D01*
X142990979Y-67387764D01*
X141752067Y-67657593D02*
X141575461Y-67586240D01*
X141504996Y-67506411D01*
X141478683Y-67444421D01*
X141443895Y-67276290D01*
X141471097Y-67081845D01*
X141613804Y-66728632D01*
X141693633Y-66658167D01*
X141755623Y-66631854D01*
X141861764Y-66623379D01*
X142038371Y-66694733D01*
X142108836Y-66774561D01*
X142135149Y-66836551D01*
X142143624Y-66942693D01*
X142054432Y-67163451D01*
X141974603Y-67233916D01*
X141912613Y-67260229D01*
X141806472Y-67268704D01*
X141629865Y-67197350D01*
X141559400Y-67117522D01*
X141533087Y-67055532D01*
X141524612Y-66949390D01*
X131510691Y-101268525D02*
X131885298Y-100341341D01*
X131308660Y-100878746D01*
X131267175Y-100091603D01*
X130892569Y-101018787D01*
X130913962Y-99948896D02*
X129921233Y-100626342D01*
X130295840Y-99699158D02*
X130539356Y-100876080D01*
X129951102Y-99662593D02*
X129924789Y-99600603D01*
X129854324Y-99520774D01*
X129633566Y-99431582D01*
X129527424Y-99440057D01*
X129465434Y-99466370D01*
X129385606Y-99536835D01*
X129349929Y-99625138D01*
X129340565Y-99775432D01*
X129656324Y-100519312D01*
X129082353Y-100287412D01*
X128199320Y-99930644D02*
X128729140Y-100144705D01*
X128464230Y-100037675D02*
X128838837Y-99110491D01*
X128873625Y-99278623D01*
X128926251Y-99402603D01*
X128996716Y-99482431D01*
X138066306Y-85042808D02*
X138440913Y-84115624D01*
X137864275Y-84653029D01*
X137822790Y-83865886D01*
X137448184Y-84793070D01*
X137469577Y-83723179D02*
X136476848Y-84400625D01*
X136851455Y-83473441D02*
X137094971Y-84650363D01*
X136506717Y-83436876D02*
X136480404Y-83374886D01*
X136409939Y-83295057D01*
X136189181Y-83205865D01*
X136083039Y-83214340D01*
X136021049Y-83240653D01*
X135941221Y-83311118D01*
X135905544Y-83399421D01*
X135896180Y-83549715D01*
X136211939Y-84293595D01*
X135637968Y-84061695D01*
X135438603Y-82902612D02*
X135350300Y-82866935D01*
X135244158Y-82875410D01*
X135182168Y-82901723D01*
X135102340Y-82972188D01*
X134986835Y-83130956D01*
X134897643Y-83351714D01*
X134870441Y-83546159D01*
X134878915Y-83652301D01*
X134905229Y-83714291D01*
X134975693Y-83794119D01*
X135063997Y-83829796D01*
X135170138Y-83821321D01*
X135232128Y-83795008D01*
X135311957Y-83724543D01*
X135427462Y-83565775D01*
X135516654Y-83345017D01*
X135543856Y-83150572D01*
X135535381Y-83044431D01*
X135509068Y-82982441D01*
X135438603Y-82902612D01*
X167606803Y-81603904D02*
X167232196Y-80676720D01*
X167190711Y-81463863D01*
X166614074Y-80926458D01*
X166988680Y-81853641D01*
X166260861Y-81069165D02*
X166017345Y-82246086D01*
X165642738Y-81318903D02*
X166635468Y-81996349D01*
X165369354Y-81532075D02*
X165307364Y-81505761D01*
X165201222Y-81497287D01*
X164980464Y-81586479D01*
X164909999Y-81666307D01*
X164883686Y-81728297D01*
X164875211Y-81834439D01*
X164910888Y-81922742D01*
X165008555Y-82037358D01*
X165752435Y-82353117D01*
X165178464Y-82585016D01*
X164494796Y-81782701D02*
X163920826Y-82014601D01*
X164372594Y-82242945D01*
X164240139Y-82296460D01*
X164169674Y-82376288D01*
X164143361Y-82438278D01*
X164134886Y-82544420D01*
X164224078Y-82765178D01*
X164303907Y-82835643D01*
X164365897Y-82861956D01*
X164472039Y-82870431D01*
X164736948Y-82763400D01*
X164807413Y-82683572D01*
X164833726Y-82621582D01*
X119789585Y-80894137D02*
X120164192Y-79966953D01*
X119587554Y-80504358D01*
X119546069Y-79717215D01*
X119171463Y-80644399D01*
X119192856Y-79574508D02*
X118200127Y-80251954D01*
X118574734Y-79324770D02*
X118818250Y-80501692D01*
X117361247Y-79913024D02*
X117891066Y-80127085D01*
X117626156Y-80020055D02*
X118000763Y-79092871D01*
X118035551Y-79261003D01*
X118088177Y-79384983D01*
X118158642Y-79464811D01*
X116941124Y-78664749D02*
X117117731Y-78736103D01*
X117188195Y-78815931D01*
X117214509Y-78877921D01*
X117249297Y-79046053D01*
X117222095Y-79240498D01*
X117079387Y-79593711D01*
X116999559Y-79664176D01*
X116937569Y-79690489D01*
X116831427Y-79698964D01*
X116654821Y-79627610D01*
X116584356Y-79547781D01*
X116558043Y-79485791D01*
X116549568Y-79379650D01*
X116638760Y-79158892D01*
X116718588Y-79088427D01*
X116780578Y-79062114D01*
X116886720Y-79053639D01*
X117063327Y-79124993D01*
X117133791Y-79204821D01*
X117160105Y-79266811D01*
X117168579Y-79372953D01*
X201821130Y-121788214D02*
X200821130Y-121788214D01*
X200821130Y-122026309D01*
X200868750Y-122169166D01*
X200963988Y-122264404D01*
X201059226Y-122312023D01*
X201249702Y-122359642D01*
X201392559Y-122359642D01*
X201583035Y-122312023D01*
X201678273Y-122264404D01*
X201773511Y-122169166D01*
X201821130Y-122026309D01*
X201821130Y-121788214D01*
X201154464Y-123216785D02*
X201821130Y-123216785D01*
X200773511Y-122978690D02*
X201487797Y-122740595D01*
X201487797Y-123359642D01*
X201154464Y-124169166D02*
X201821130Y-124169166D01*
X200773511Y-123931071D02*
X201487797Y-123692976D01*
X201487797Y-124312023D01*
X199439880Y-121788214D02*
X198439880Y-121788214D01*
X198439880Y-122026309D01*
X198487500Y-122169166D01*
X198582738Y-122264404D01*
X198677976Y-122312023D01*
X198868452Y-122359642D01*
X199011309Y-122359642D01*
X199201785Y-122312023D01*
X199297023Y-122264404D01*
X199392261Y-122169166D01*
X199439880Y-122026309D01*
X199439880Y-121788214D01*
X198773214Y-123216785D02*
X199439880Y-123216785D01*
X198392261Y-122978690D02*
X199106547Y-122740595D01*
X199106547Y-123359642D01*
X198439880Y-123645357D02*
X198439880Y-124264404D01*
X198820833Y-123931071D01*
X198820833Y-124073928D01*
X198868452Y-124169166D01*
X198916071Y-124216785D01*
X199011309Y-124264404D01*
X199249404Y-124264404D01*
X199344642Y-124216785D01*
X199392261Y-124169166D01*
X199439880Y-124073928D01*
X199439880Y-123788214D01*
X199392261Y-123692976D01*
X199344642Y-123645357D01*
X187533630Y-121788214D02*
X186533630Y-121788214D01*
X186533630Y-122026309D01*
X186581250Y-122169166D01*
X186676488Y-122264404D01*
X186771726Y-122312023D01*
X186962202Y-122359642D01*
X187105059Y-122359642D01*
X187295535Y-122312023D01*
X187390773Y-122264404D01*
X187486011Y-122169166D01*
X187533630Y-122026309D01*
X187533630Y-121788214D01*
X186866964Y-123216785D02*
X187533630Y-123216785D01*
X186486011Y-122978690D02*
X187200297Y-122740595D01*
X187200297Y-123359642D01*
X186628869Y-123692976D02*
X186581250Y-123740595D01*
X186533630Y-123835833D01*
X186533630Y-124073928D01*
X186581250Y-124169166D01*
X186628869Y-124216785D01*
X186724107Y-124264404D01*
X186819345Y-124264404D01*
X186962202Y-124216785D01*
X187533630Y-123645357D01*
X187533630Y-124264404D01*
X189914880Y-121788214D02*
X188914880Y-121788214D01*
X188914880Y-122026309D01*
X188962500Y-122169166D01*
X189057738Y-122264404D01*
X189152976Y-122312023D01*
X189343452Y-122359642D01*
X189486309Y-122359642D01*
X189676785Y-122312023D01*
X189772023Y-122264404D01*
X189867261Y-122169166D01*
X189914880Y-122026309D01*
X189914880Y-121788214D01*
X189248214Y-123216785D02*
X189914880Y-123216785D01*
X188867261Y-122978690D02*
X189581547Y-122740595D01*
X189581547Y-123359642D01*
X189914880Y-124264404D02*
X189914880Y-123692976D01*
X189914880Y-123978690D02*
X188914880Y-123978690D01*
X189057738Y-123883452D01*
X189152976Y-123788214D01*
X189200595Y-123692976D01*
X192296130Y-121788214D02*
X191296130Y-121788214D01*
X191296130Y-122026309D01*
X191343750Y-122169166D01*
X191438988Y-122264404D01*
X191534226Y-122312023D01*
X191724702Y-122359642D01*
X191867559Y-122359642D01*
X192058035Y-122312023D01*
X192153273Y-122264404D01*
X192248511Y-122169166D01*
X192296130Y-122026309D01*
X192296130Y-121788214D01*
X191629464Y-123216785D02*
X192296130Y-123216785D01*
X191248511Y-122978690D02*
X191962797Y-122740595D01*
X191962797Y-123359642D01*
X191296130Y-123931071D02*
X191296130Y-124026309D01*
X191343750Y-124121547D01*
X191391369Y-124169166D01*
X191486607Y-124216785D01*
X191677083Y-124264404D01*
X191915178Y-124264404D01*
X192105654Y-124216785D01*
X192200892Y-124169166D01*
X192248511Y-124121547D01*
X192296130Y-124026309D01*
X192296130Y-123931071D01*
X192248511Y-123835833D01*
X192200892Y-123788214D01*
X192105654Y-123740595D01*
X191915178Y-123692976D01*
X191677083Y-123692976D01*
X191486607Y-123740595D01*
X191391369Y-123788214D01*
X191343750Y-123835833D01*
X191296130Y-123931071D01*
X194677380Y-121788214D02*
X193677380Y-121788214D01*
X193677380Y-122026309D01*
X193725000Y-122169166D01*
X193820238Y-122264404D01*
X193915476Y-122312023D01*
X194105952Y-122359642D01*
X194248809Y-122359642D01*
X194439285Y-122312023D01*
X194534523Y-122264404D01*
X194629761Y-122169166D01*
X194677380Y-122026309D01*
X194677380Y-121788214D01*
X193677380Y-122692976D02*
X193677380Y-123312023D01*
X194058333Y-122978690D01*
X194058333Y-123121547D01*
X194105952Y-123216785D01*
X194153571Y-123264404D01*
X194248809Y-123312023D01*
X194486904Y-123312023D01*
X194582142Y-123264404D01*
X194629761Y-123216785D01*
X194677380Y-123121547D01*
X194677380Y-122835833D01*
X194629761Y-122740595D01*
X194582142Y-122692976D01*
X194677380Y-123788214D02*
X194677380Y-123978690D01*
X194629761Y-124073928D01*
X194582142Y-124121547D01*
X194439285Y-124216785D01*
X194248809Y-124264404D01*
X193867857Y-124264404D01*
X193772619Y-124216785D01*
X193725000Y-124169166D01*
X193677380Y-124073928D01*
X193677380Y-123883452D01*
X193725000Y-123788214D01*
X193772619Y-123740595D01*
X193867857Y-123692976D01*
X194105952Y-123692976D01*
X194201190Y-123740595D01*
X194248809Y-123788214D01*
X194296428Y-123883452D01*
X194296428Y-124073928D01*
X194248809Y-124169166D01*
X194201190Y-124216785D01*
X194105952Y-124264404D01*
X165110535Y-128821380D02*
X165110535Y-127821380D01*
X164872440Y-127821380D01*
X164729583Y-127869000D01*
X164634345Y-127964238D01*
X164586726Y-128059476D01*
X164539107Y-128249952D01*
X164539107Y-128392809D01*
X164586726Y-128583285D01*
X164634345Y-128678523D01*
X164729583Y-128773761D01*
X164872440Y-128821380D01*
X165110535Y-128821380D01*
X164205773Y-127821380D02*
X163586726Y-127821380D01*
X163920059Y-128202333D01*
X163777202Y-128202333D01*
X163681964Y-128249952D01*
X163634345Y-128297571D01*
X163586726Y-128392809D01*
X163586726Y-128630904D01*
X163634345Y-128726142D01*
X163681964Y-128773761D01*
X163777202Y-128821380D01*
X164062916Y-128821380D01*
X164158154Y-128773761D01*
X164205773Y-128726142D01*
X163015297Y-128249952D02*
X163110535Y-128202333D01*
X163158154Y-128154714D01*
X163205773Y-128059476D01*
X163205773Y-128011857D01*
X163158154Y-127916619D01*
X163110535Y-127869000D01*
X163015297Y-127821380D01*
X162824821Y-127821380D01*
X162729583Y-127869000D01*
X162681964Y-127916619D01*
X162634345Y-128011857D01*
X162634345Y-128059476D01*
X162681964Y-128154714D01*
X162729583Y-128202333D01*
X162824821Y-128249952D01*
X163015297Y-128249952D01*
X163110535Y-128297571D01*
X163158154Y-128345190D01*
X163205773Y-128440428D01*
X163205773Y-128630904D01*
X163158154Y-128726142D01*
X163110535Y-128773761D01*
X163015297Y-128821380D01*
X162824821Y-128821380D01*
X162729583Y-128773761D01*
X162681964Y-128726142D01*
X162634345Y-128630904D01*
X162634345Y-128440428D01*
X162681964Y-128345190D01*
X162729583Y-128297571D01*
X162824821Y-128249952D01*
X165110535Y-131202630D02*
X165110535Y-130202630D01*
X164872440Y-130202630D01*
X164729583Y-130250250D01*
X164634345Y-130345488D01*
X164586726Y-130440726D01*
X164539107Y-130631202D01*
X164539107Y-130774059D01*
X164586726Y-130964535D01*
X164634345Y-131059773D01*
X164729583Y-131155011D01*
X164872440Y-131202630D01*
X165110535Y-131202630D01*
X164205773Y-130202630D02*
X163586726Y-130202630D01*
X163920059Y-130583583D01*
X163777202Y-130583583D01*
X163681964Y-130631202D01*
X163634345Y-130678821D01*
X163586726Y-130774059D01*
X163586726Y-131012154D01*
X163634345Y-131107392D01*
X163681964Y-131155011D01*
X163777202Y-131202630D01*
X164062916Y-131202630D01*
X164158154Y-131155011D01*
X164205773Y-131107392D01*
X163253392Y-130202630D02*
X162586726Y-130202630D01*
X163015297Y-131202630D01*
X165110535Y-133583880D02*
X165110535Y-132583880D01*
X164872440Y-132583880D01*
X164729583Y-132631500D01*
X164634345Y-132726738D01*
X164586726Y-132821976D01*
X164539107Y-133012452D01*
X164539107Y-133155309D01*
X164586726Y-133345785D01*
X164634345Y-133441023D01*
X164729583Y-133536261D01*
X164872440Y-133583880D01*
X165110535Y-133583880D01*
X164205773Y-132583880D02*
X163586726Y-132583880D01*
X163920059Y-132964833D01*
X163777202Y-132964833D01*
X163681964Y-133012452D01*
X163634345Y-133060071D01*
X163586726Y-133155309D01*
X163586726Y-133393404D01*
X163634345Y-133488642D01*
X163681964Y-133536261D01*
X163777202Y-133583880D01*
X164062916Y-133583880D01*
X164158154Y-133536261D01*
X164205773Y-133488642D01*
X162729583Y-132583880D02*
X162920059Y-132583880D01*
X163015297Y-132631500D01*
X163062916Y-132679119D01*
X163158154Y-132821976D01*
X163205773Y-133012452D01*
X163205773Y-133393404D01*
X163158154Y-133488642D01*
X163110535Y-133536261D01*
X163015297Y-133583880D01*
X162824821Y-133583880D01*
X162729583Y-133536261D01*
X162681964Y-133488642D01*
X162634345Y-133393404D01*
X162634345Y-133155309D01*
X162681964Y-133060071D01*
X162729583Y-133012452D01*
X162824821Y-132964833D01*
X163015297Y-132964833D01*
X163110535Y-133012452D01*
X163158154Y-133060071D01*
X163205773Y-133155309D01*
X165110535Y-135965130D02*
X165110535Y-134965130D01*
X164872440Y-134965130D01*
X164729583Y-135012750D01*
X164634345Y-135107988D01*
X164586726Y-135203226D01*
X164539107Y-135393702D01*
X164539107Y-135536559D01*
X164586726Y-135727035D01*
X164634345Y-135822273D01*
X164729583Y-135917511D01*
X164872440Y-135965130D01*
X165110535Y-135965130D01*
X164205773Y-134965130D02*
X163586726Y-134965130D01*
X163920059Y-135346083D01*
X163777202Y-135346083D01*
X163681964Y-135393702D01*
X163634345Y-135441321D01*
X163586726Y-135536559D01*
X163586726Y-135774654D01*
X163634345Y-135869892D01*
X163681964Y-135917511D01*
X163777202Y-135965130D01*
X164062916Y-135965130D01*
X164158154Y-135917511D01*
X164205773Y-135869892D01*
X162681964Y-134965130D02*
X163158154Y-134965130D01*
X163205773Y-135441321D01*
X163158154Y-135393702D01*
X163062916Y-135346083D01*
X162824821Y-135346083D01*
X162729583Y-135393702D01*
X162681964Y-135441321D01*
X162634345Y-135536559D01*
X162634345Y-135774654D01*
X162681964Y-135869892D01*
X162729583Y-135917511D01*
X162824821Y-135965130D01*
X163062916Y-135965130D01*
X163158154Y-135917511D01*
X163205773Y-135869892D01*
X156944285Y-128820130D02*
X156944285Y-127820130D01*
X156706190Y-127820130D01*
X156563333Y-127867750D01*
X156468095Y-127962988D01*
X156420476Y-128058226D01*
X156372857Y-128248702D01*
X156372857Y-128391559D01*
X156420476Y-128582035D01*
X156468095Y-128677273D01*
X156563333Y-128772511D01*
X156706190Y-128820130D01*
X156944285Y-128820130D01*
X156039523Y-127820130D02*
X155420476Y-127820130D01*
X155753809Y-128201083D01*
X155610952Y-128201083D01*
X155515714Y-128248702D01*
X155468095Y-128296321D01*
X155420476Y-128391559D01*
X155420476Y-128629654D01*
X155468095Y-128724892D01*
X155515714Y-128772511D01*
X155610952Y-128820130D01*
X155896666Y-128820130D01*
X155991904Y-128772511D01*
X156039523Y-128724892D01*
X154563333Y-128153464D02*
X154563333Y-128820130D01*
X154801428Y-127772511D02*
X155039523Y-128486797D01*
X154420476Y-128486797D01*
X156944285Y-131201380D02*
X156944285Y-130201380D01*
X156706190Y-130201380D01*
X156563333Y-130249000D01*
X156468095Y-130344238D01*
X156420476Y-130439476D01*
X156372857Y-130629952D01*
X156372857Y-130772809D01*
X156420476Y-130963285D01*
X156468095Y-131058523D01*
X156563333Y-131153761D01*
X156706190Y-131201380D01*
X156944285Y-131201380D01*
X156039523Y-130201380D02*
X155420476Y-130201380D01*
X155753809Y-130582333D01*
X155610952Y-130582333D01*
X155515714Y-130629952D01*
X155468095Y-130677571D01*
X155420476Y-130772809D01*
X155420476Y-131010904D01*
X155468095Y-131106142D01*
X155515714Y-131153761D01*
X155610952Y-131201380D01*
X155896666Y-131201380D01*
X155991904Y-131153761D01*
X156039523Y-131106142D01*
X155087142Y-130201380D02*
X154468095Y-130201380D01*
X154801428Y-130582333D01*
X154658571Y-130582333D01*
X154563333Y-130629952D01*
X154515714Y-130677571D01*
X154468095Y-130772809D01*
X154468095Y-131010904D01*
X154515714Y-131106142D01*
X154563333Y-131153761D01*
X154658571Y-131201380D01*
X154944285Y-131201380D01*
X155039523Y-131153761D01*
X155087142Y-131106142D01*
X156944285Y-133582630D02*
X156944285Y-132582630D01*
X156706190Y-132582630D01*
X156563333Y-132630250D01*
X156468095Y-132725488D01*
X156420476Y-132820726D01*
X156372857Y-133011202D01*
X156372857Y-133154059D01*
X156420476Y-133344535D01*
X156468095Y-133439773D01*
X156563333Y-133535011D01*
X156706190Y-133582630D01*
X156944285Y-133582630D01*
X156039523Y-132582630D02*
X155420476Y-132582630D01*
X155753809Y-132963583D01*
X155610952Y-132963583D01*
X155515714Y-133011202D01*
X155468095Y-133058821D01*
X155420476Y-133154059D01*
X155420476Y-133392154D01*
X155468095Y-133487392D01*
X155515714Y-133535011D01*
X155610952Y-133582630D01*
X155896666Y-133582630D01*
X155991904Y-133535011D01*
X156039523Y-133487392D01*
X155039523Y-132677869D02*
X154991904Y-132630250D01*
X154896666Y-132582630D01*
X154658571Y-132582630D01*
X154563333Y-132630250D01*
X154515714Y-132677869D01*
X154468095Y-132773107D01*
X154468095Y-132868345D01*
X154515714Y-133011202D01*
X155087142Y-133582630D01*
X154468095Y-133582630D01*
X156944285Y-135963880D02*
X156944285Y-134963880D01*
X156706190Y-134963880D01*
X156563333Y-135011500D01*
X156468095Y-135106738D01*
X156420476Y-135201976D01*
X156372857Y-135392452D01*
X156372857Y-135535309D01*
X156420476Y-135725785D01*
X156468095Y-135821023D01*
X156563333Y-135916261D01*
X156706190Y-135963880D01*
X156944285Y-135963880D01*
X156039523Y-134963880D02*
X155420476Y-134963880D01*
X155753809Y-135344833D01*
X155610952Y-135344833D01*
X155515714Y-135392452D01*
X155468095Y-135440071D01*
X155420476Y-135535309D01*
X155420476Y-135773404D01*
X155468095Y-135868642D01*
X155515714Y-135916261D01*
X155610952Y-135963880D01*
X155896666Y-135963880D01*
X155991904Y-135916261D01*
X156039523Y-135868642D01*
X154468095Y-135963880D02*
X155039523Y-135963880D01*
X154753809Y-135963880D02*
X154753809Y-134963880D01*
X154849047Y-135106738D01*
X154944285Y-135201976D01*
X155039523Y-135249595D01*
X206583630Y-121788214D02*
X205583630Y-121788214D01*
X205583630Y-122026309D01*
X205631250Y-122169166D01*
X205726488Y-122264404D01*
X205821726Y-122312023D01*
X206012202Y-122359642D01*
X206155059Y-122359642D01*
X206345535Y-122312023D01*
X206440773Y-122264404D01*
X206536011Y-122169166D01*
X206583630Y-122026309D01*
X206583630Y-121788214D01*
X205583630Y-122692976D02*
X205583630Y-123312023D01*
X205964583Y-122978690D01*
X205964583Y-123121547D01*
X206012202Y-123216785D01*
X206059821Y-123264404D01*
X206155059Y-123312023D01*
X206393154Y-123312023D01*
X206488392Y-123264404D01*
X206536011Y-123216785D01*
X206583630Y-123121547D01*
X206583630Y-122835833D01*
X206536011Y-122740595D01*
X206488392Y-122692976D01*
X205583630Y-123931071D02*
X205583630Y-124026309D01*
X205631250Y-124121547D01*
X205678869Y-124169166D01*
X205774107Y-124216785D01*
X205964583Y-124264404D01*
X206202678Y-124264404D01*
X206393154Y-124216785D01*
X206488392Y-124169166D01*
X206536011Y-124121547D01*
X206583630Y-124026309D01*
X206583630Y-123931071D01*
X206536011Y-123835833D01*
X206488392Y-123788214D01*
X206393154Y-123740595D01*
X206202678Y-123692976D01*
X205964583Y-123692976D01*
X205774107Y-123740595D01*
X205678869Y-123788214D01*
X205631250Y-123835833D01*
X205583630Y-123931071D01*
X204202380Y-121788214D02*
X203202380Y-121788214D01*
X203202380Y-122026309D01*
X203250000Y-122169166D01*
X203345238Y-122264404D01*
X203440476Y-122312023D01*
X203630952Y-122359642D01*
X203773809Y-122359642D01*
X203964285Y-122312023D01*
X204059523Y-122264404D01*
X204154761Y-122169166D01*
X204202380Y-122026309D01*
X204202380Y-121788214D01*
X203297619Y-122740595D02*
X203250000Y-122788214D01*
X203202380Y-122883452D01*
X203202380Y-123121547D01*
X203250000Y-123216785D01*
X203297619Y-123264404D01*
X203392857Y-123312023D01*
X203488095Y-123312023D01*
X203630952Y-123264404D01*
X204202380Y-122692976D01*
X204202380Y-123312023D01*
X204202380Y-123788214D02*
X204202380Y-123978690D01*
X204154761Y-124073928D01*
X204107142Y-124121547D01*
X203964285Y-124216785D01*
X203773809Y-124264404D01*
X203392857Y-124264404D01*
X203297619Y-124216785D01*
X203250000Y-124169166D01*
X203202380Y-124073928D01*
X203202380Y-123883452D01*
X203250000Y-123788214D01*
X203297619Y-123740595D01*
X203392857Y-123692976D01*
X203630952Y-123692976D01*
X203726190Y-123740595D01*
X203773809Y-123788214D01*
X203821428Y-123883452D01*
X203821428Y-124073928D01*
X203773809Y-124169166D01*
X203726190Y-124216785D01*
X203630952Y-124264404D01*
X197058630Y-121788214D02*
X196058630Y-121788214D01*
X196058630Y-122026309D01*
X196106250Y-122169166D01*
X196201488Y-122264404D01*
X196296726Y-122312023D01*
X196487202Y-122359642D01*
X196630059Y-122359642D01*
X196820535Y-122312023D01*
X196915773Y-122264404D01*
X197011011Y-122169166D01*
X197058630Y-122026309D01*
X197058630Y-121788214D01*
X196153869Y-122740595D02*
X196106250Y-122788214D01*
X196058630Y-122883452D01*
X196058630Y-123121547D01*
X196106250Y-123216785D01*
X196153869Y-123264404D01*
X196249107Y-123312023D01*
X196344345Y-123312023D01*
X196487202Y-123264404D01*
X197058630Y-122692976D01*
X197058630Y-123312023D01*
X196487202Y-123883452D02*
X196439583Y-123788214D01*
X196391964Y-123740595D01*
X196296726Y-123692976D01*
X196249107Y-123692976D01*
X196153869Y-123740595D01*
X196106250Y-123788214D01*
X196058630Y-123883452D01*
X196058630Y-124073928D01*
X196106250Y-124169166D01*
X196153869Y-124216785D01*
X196249107Y-124264404D01*
X196296726Y-124264404D01*
X196391964Y-124216785D01*
X196439583Y-124169166D01*
X196487202Y-124073928D01*
X196487202Y-123883452D01*
X196534821Y-123788214D01*
X196582440Y-123740595D01*
X196677678Y-123692976D01*
X196868154Y-123692976D01*
X196963392Y-123740595D01*
X197011011Y-123788214D01*
X197058630Y-123883452D01*
X197058630Y-124073928D01*
X197011011Y-124169166D01*
X196963392Y-124216785D01*
X196868154Y-124264404D01*
X196677678Y-124264404D01*
X196582440Y-124216785D01*
X196534821Y-124169166D01*
X196487202Y-124073928D01*
X165110535Y-138346380D02*
X165110535Y-137346380D01*
X164872440Y-137346380D01*
X164729583Y-137394000D01*
X164634345Y-137489238D01*
X164586726Y-137584476D01*
X164539107Y-137774952D01*
X164539107Y-137917809D01*
X164586726Y-138108285D01*
X164634345Y-138203523D01*
X164729583Y-138298761D01*
X164872440Y-138346380D01*
X165110535Y-138346380D01*
X164158154Y-137441619D02*
X164110535Y-137394000D01*
X164015297Y-137346380D01*
X163777202Y-137346380D01*
X163681964Y-137394000D01*
X163634345Y-137441619D01*
X163586726Y-137536857D01*
X163586726Y-137632095D01*
X163634345Y-137774952D01*
X164205773Y-138346380D01*
X163586726Y-138346380D01*
X163253392Y-137346380D02*
X162586726Y-137346380D01*
X163015297Y-138346380D01*
X156944285Y-138345130D02*
X156944285Y-137345130D01*
X156706190Y-137345130D01*
X156563333Y-137392750D01*
X156468095Y-137487988D01*
X156420476Y-137583226D01*
X156372857Y-137773702D01*
X156372857Y-137916559D01*
X156420476Y-138107035D01*
X156468095Y-138202273D01*
X156563333Y-138297511D01*
X156706190Y-138345130D01*
X156944285Y-138345130D01*
X155991904Y-137440369D02*
X155944285Y-137392750D01*
X155849047Y-137345130D01*
X155610952Y-137345130D01*
X155515714Y-137392750D01*
X155468095Y-137440369D01*
X155420476Y-137535607D01*
X155420476Y-137630845D01*
X155468095Y-137773702D01*
X156039523Y-138345130D01*
X155420476Y-138345130D01*
X154563333Y-137345130D02*
X154753809Y-137345130D01*
X154849047Y-137392750D01*
X154896666Y-137440369D01*
X154991904Y-137583226D01*
X155039523Y-137773702D01*
X155039523Y-138154654D01*
X154991904Y-138249892D01*
X154944285Y-138297511D01*
X154849047Y-138345130D01*
X154658571Y-138345130D01*
X154563333Y-138297511D01*
X154515714Y-138249892D01*
X154468095Y-138154654D01*
X154468095Y-137916559D01*
X154515714Y-137821321D01*
X154563333Y-137773702D01*
X154658571Y-137726083D01*
X154849047Y-137726083D01*
X154944285Y-137773702D01*
X154991904Y-137821321D01*
X155039523Y-137916559D01*
X185152380Y-121788214D02*
X184152380Y-121788214D01*
X184152380Y-122026309D01*
X184200000Y-122169166D01*
X184295238Y-122264404D01*
X184390476Y-122312023D01*
X184580952Y-122359642D01*
X184723809Y-122359642D01*
X184914285Y-122312023D01*
X185009523Y-122264404D01*
X185104761Y-122169166D01*
X185152380Y-122026309D01*
X185152380Y-121788214D01*
X184247619Y-122740595D02*
X184200000Y-122788214D01*
X184152380Y-122883452D01*
X184152380Y-123121547D01*
X184200000Y-123216785D01*
X184247619Y-123264404D01*
X184342857Y-123312023D01*
X184438095Y-123312023D01*
X184580952Y-123264404D01*
X185152380Y-122692976D01*
X185152380Y-123312023D01*
X184152380Y-124216785D02*
X184152380Y-123740595D01*
X184628571Y-123692976D01*
X184580952Y-123740595D01*
X184533333Y-123835833D01*
X184533333Y-124073928D01*
X184580952Y-124169166D01*
X184628571Y-124216785D01*
X184723809Y-124264404D01*
X184961904Y-124264404D01*
X185057142Y-124216785D01*
X185104761Y-124169166D01*
X185152380Y-124073928D01*
X185152380Y-123835833D01*
X185104761Y-123740595D01*
X185057142Y-123692976D01*
X165110535Y-126440130D02*
X165110535Y-125440130D01*
X164872440Y-125440130D01*
X164729583Y-125487750D01*
X164634345Y-125582988D01*
X164586726Y-125678226D01*
X164539107Y-125868702D01*
X164539107Y-126011559D01*
X164586726Y-126202035D01*
X164634345Y-126297273D01*
X164729583Y-126392511D01*
X164872440Y-126440130D01*
X165110535Y-126440130D01*
X164158154Y-125535369D02*
X164110535Y-125487750D01*
X164015297Y-125440130D01*
X163777202Y-125440130D01*
X163681964Y-125487750D01*
X163634345Y-125535369D01*
X163586726Y-125630607D01*
X163586726Y-125725845D01*
X163634345Y-125868702D01*
X164205773Y-126440130D01*
X163586726Y-126440130D01*
X162729583Y-125773464D02*
X162729583Y-126440130D01*
X162967678Y-125392511D02*
X163205773Y-126106797D01*
X162586726Y-126106797D01*
X156944285Y-126438880D02*
X156944285Y-125438880D01*
X156706190Y-125438880D01*
X156563333Y-125486500D01*
X156468095Y-125581738D01*
X156420476Y-125676976D01*
X156372857Y-125867452D01*
X156372857Y-126010309D01*
X156420476Y-126200785D01*
X156468095Y-126296023D01*
X156563333Y-126391261D01*
X156706190Y-126438880D01*
X156944285Y-126438880D01*
X155991904Y-125534119D02*
X155944285Y-125486500D01*
X155849047Y-125438880D01*
X155610952Y-125438880D01*
X155515714Y-125486500D01*
X155468095Y-125534119D01*
X155420476Y-125629357D01*
X155420476Y-125724595D01*
X155468095Y-125867452D01*
X156039523Y-126438880D01*
X155420476Y-126438880D01*
X155087142Y-125438880D02*
X154468095Y-125438880D01*
X154801428Y-125819833D01*
X154658571Y-125819833D01*
X154563333Y-125867452D01*
X154515714Y-125915071D01*
X154468095Y-126010309D01*
X154468095Y-126248404D01*
X154515714Y-126343642D01*
X154563333Y-126391261D01*
X154658571Y-126438880D01*
X154944285Y-126438880D01*
X155039523Y-126391261D01*
X155087142Y-126343642D01*
X125621130Y-121788214D02*
X124621130Y-121788214D01*
X124621130Y-122026309D01*
X124668750Y-122169166D01*
X124763988Y-122264404D01*
X124859226Y-122312023D01*
X125049702Y-122359642D01*
X125192559Y-122359642D01*
X125383035Y-122312023D01*
X125478273Y-122264404D01*
X125573511Y-122169166D01*
X125621130Y-122026309D01*
X125621130Y-121788214D01*
X124716369Y-122740595D02*
X124668750Y-122788214D01*
X124621130Y-122883452D01*
X124621130Y-123121547D01*
X124668750Y-123216785D01*
X124716369Y-123264404D01*
X124811607Y-123312023D01*
X124906845Y-123312023D01*
X125049702Y-123264404D01*
X125621130Y-122692976D01*
X125621130Y-123312023D01*
X124716369Y-123692976D02*
X124668750Y-123740595D01*
X124621130Y-123835833D01*
X124621130Y-124073928D01*
X124668750Y-124169166D01*
X124716369Y-124216785D01*
X124811607Y-124264404D01*
X124906845Y-124264404D01*
X125049702Y-124216785D01*
X125621130Y-123645357D01*
X125621130Y-124264404D01*
X141049785Y-122414130D02*
X141049785Y-121414130D01*
X140811690Y-121414130D01*
X140668833Y-121461750D01*
X140573595Y-121556988D01*
X140525976Y-121652226D01*
X140478357Y-121842702D01*
X140478357Y-121985559D01*
X140525976Y-122176035D01*
X140573595Y-122271273D01*
X140668833Y-122366511D01*
X140811690Y-122414130D01*
X141049785Y-122414130D01*
X140097404Y-121509369D02*
X140049785Y-121461750D01*
X139954547Y-121414130D01*
X139716452Y-121414130D01*
X139621214Y-121461750D01*
X139573595Y-121509369D01*
X139525976Y-121604607D01*
X139525976Y-121699845D01*
X139573595Y-121842702D01*
X140145023Y-122414130D01*
X139525976Y-122414130D01*
X138573595Y-122414130D02*
X139145023Y-122414130D01*
X138859309Y-122414130D02*
X138859309Y-121414130D01*
X138954547Y-121556988D01*
X139049785Y-121652226D01*
X139145023Y-121699845D01*
X148630785Y-122458880D02*
X148630785Y-121458880D01*
X148392690Y-121458880D01*
X148249833Y-121506500D01*
X148154595Y-121601738D01*
X148106976Y-121696976D01*
X148059357Y-121887452D01*
X148059357Y-122030309D01*
X148106976Y-122220785D01*
X148154595Y-122316023D01*
X148249833Y-122411261D01*
X148392690Y-122458880D01*
X148630785Y-122458880D01*
X147678404Y-121554119D02*
X147630785Y-121506500D01*
X147535547Y-121458880D01*
X147297452Y-121458880D01*
X147202214Y-121506500D01*
X147154595Y-121554119D01*
X147106976Y-121649357D01*
X147106976Y-121744595D01*
X147154595Y-121887452D01*
X147726023Y-122458880D01*
X147106976Y-122458880D01*
X146487928Y-121458880D02*
X146392690Y-121458880D01*
X146297452Y-121506500D01*
X146249833Y-121554119D01*
X146202214Y-121649357D01*
X146154595Y-121839833D01*
X146154595Y-122077928D01*
X146202214Y-122268404D01*
X146249833Y-122363642D01*
X146297452Y-122411261D01*
X146392690Y-122458880D01*
X146487928Y-122458880D01*
X146583166Y-122411261D01*
X146630785Y-122363642D01*
X146678404Y-122268404D01*
X146726023Y-122077928D01*
X146726023Y-121839833D01*
X146678404Y-121649357D01*
X146630785Y-121554119D01*
X146583166Y-121506500D01*
X146487928Y-121458880D01*
X104189880Y-121788214D02*
X103189880Y-121788214D01*
X103189880Y-122026309D01*
X103237500Y-122169166D01*
X103332738Y-122264404D01*
X103427976Y-122312023D01*
X103618452Y-122359642D01*
X103761309Y-122359642D01*
X103951785Y-122312023D01*
X104047023Y-122264404D01*
X104142261Y-122169166D01*
X104189880Y-122026309D01*
X104189880Y-121788214D01*
X104189880Y-123312023D02*
X104189880Y-122740595D01*
X104189880Y-123026309D02*
X103189880Y-123026309D01*
X103332738Y-122931071D01*
X103427976Y-122835833D01*
X103475595Y-122740595D01*
X104189880Y-123788214D02*
X104189880Y-123978690D01*
X104142261Y-124073928D01*
X104094642Y-124121547D01*
X103951785Y-124216785D01*
X103761309Y-124264404D01*
X103380357Y-124264404D01*
X103285119Y-124216785D01*
X103237500Y-124169166D01*
X103189880Y-124073928D01*
X103189880Y-123883452D01*
X103237500Y-123788214D01*
X103285119Y-123740595D01*
X103380357Y-123692976D01*
X103618452Y-123692976D01*
X103713690Y-123740595D01*
X103761309Y-123788214D01*
X103808928Y-123883452D01*
X103808928Y-124073928D01*
X103761309Y-124169166D01*
X103713690Y-124216785D01*
X103618452Y-124264404D01*
X106571130Y-121788214D02*
X105571130Y-121788214D01*
X105571130Y-122026309D01*
X105618750Y-122169166D01*
X105713988Y-122264404D01*
X105809226Y-122312023D01*
X105999702Y-122359642D01*
X106142559Y-122359642D01*
X106333035Y-122312023D01*
X106428273Y-122264404D01*
X106523511Y-122169166D01*
X106571130Y-122026309D01*
X106571130Y-121788214D01*
X106571130Y-123312023D02*
X106571130Y-122740595D01*
X106571130Y-123026309D02*
X105571130Y-123026309D01*
X105713988Y-122931071D01*
X105809226Y-122835833D01*
X105856845Y-122740595D01*
X105999702Y-123883452D02*
X105952083Y-123788214D01*
X105904464Y-123740595D01*
X105809226Y-123692976D01*
X105761607Y-123692976D01*
X105666369Y-123740595D01*
X105618750Y-123788214D01*
X105571130Y-123883452D01*
X105571130Y-124073928D01*
X105618750Y-124169166D01*
X105666369Y-124216785D01*
X105761607Y-124264404D01*
X105809226Y-124264404D01*
X105904464Y-124216785D01*
X105952083Y-124169166D01*
X105999702Y-124073928D01*
X105999702Y-123883452D01*
X106047321Y-123788214D01*
X106094940Y-123740595D01*
X106190178Y-123692976D01*
X106380654Y-123692976D01*
X106475892Y-123740595D01*
X106523511Y-123788214D01*
X106571130Y-123883452D01*
X106571130Y-124073928D01*
X106523511Y-124169166D01*
X106475892Y-124216785D01*
X106380654Y-124264404D01*
X106190178Y-124264404D01*
X106094940Y-124216785D01*
X106047321Y-124169166D01*
X105999702Y-124073928D01*
X113714880Y-121788214D02*
X112714880Y-121788214D01*
X112714880Y-122026309D01*
X112762500Y-122169166D01*
X112857738Y-122264404D01*
X112952976Y-122312023D01*
X113143452Y-122359642D01*
X113286309Y-122359642D01*
X113476785Y-122312023D01*
X113572023Y-122264404D01*
X113667261Y-122169166D01*
X113714880Y-122026309D01*
X113714880Y-121788214D01*
X113714880Y-123312023D02*
X113714880Y-122740595D01*
X113714880Y-123026309D02*
X112714880Y-123026309D01*
X112857738Y-122931071D01*
X112952976Y-122835833D01*
X113000595Y-122740595D01*
X112714880Y-123645357D02*
X112714880Y-124312023D01*
X113714880Y-123883452D01*
X141049785Y-134320380D02*
X141049785Y-133320380D01*
X140811690Y-133320380D01*
X140668833Y-133368000D01*
X140573595Y-133463238D01*
X140525976Y-133558476D01*
X140478357Y-133748952D01*
X140478357Y-133891809D01*
X140525976Y-134082285D01*
X140573595Y-134177523D01*
X140668833Y-134272761D01*
X140811690Y-134320380D01*
X141049785Y-134320380D01*
X139525976Y-134320380D02*
X140097404Y-134320380D01*
X139811690Y-134320380D02*
X139811690Y-133320380D01*
X139906928Y-133463238D01*
X140002166Y-133558476D01*
X140097404Y-133606095D01*
X138668833Y-133320380D02*
X138859309Y-133320380D01*
X138954547Y-133368000D01*
X139002166Y-133415619D01*
X139097404Y-133558476D01*
X139145023Y-133748952D01*
X139145023Y-134129904D01*
X139097404Y-134225142D01*
X139049785Y-134272761D01*
X138954547Y-134320380D01*
X138764071Y-134320380D01*
X138668833Y-134272761D01*
X138621214Y-134225142D01*
X138573595Y-134129904D01*
X138573595Y-133891809D01*
X138621214Y-133796571D01*
X138668833Y-133748952D01*
X138764071Y-133701333D01*
X138954547Y-133701333D01*
X139049785Y-133748952D01*
X139097404Y-133796571D01*
X139145023Y-133891809D01*
X148630785Y-134365130D02*
X148630785Y-133365130D01*
X148392690Y-133365130D01*
X148249833Y-133412750D01*
X148154595Y-133507988D01*
X148106976Y-133603226D01*
X148059357Y-133793702D01*
X148059357Y-133936559D01*
X148106976Y-134127035D01*
X148154595Y-134222273D01*
X148249833Y-134317511D01*
X148392690Y-134365130D01*
X148630785Y-134365130D01*
X147106976Y-134365130D02*
X147678404Y-134365130D01*
X147392690Y-134365130D02*
X147392690Y-133365130D01*
X147487928Y-133507988D01*
X147583166Y-133603226D01*
X147678404Y-133650845D01*
X146202214Y-133365130D02*
X146678404Y-133365130D01*
X146726023Y-133841321D01*
X146678404Y-133793702D01*
X146583166Y-133746083D01*
X146345071Y-133746083D01*
X146249833Y-133793702D01*
X146202214Y-133841321D01*
X146154595Y-133936559D01*
X146154595Y-134174654D01*
X146202214Y-134269892D01*
X146249833Y-134317511D01*
X146345071Y-134365130D01*
X146583166Y-134365130D01*
X146678404Y-134317511D01*
X146726023Y-134269892D01*
X108952380Y-121788214D02*
X107952380Y-121788214D01*
X107952380Y-122026309D01*
X108000000Y-122169166D01*
X108095238Y-122264404D01*
X108190476Y-122312023D01*
X108380952Y-122359642D01*
X108523809Y-122359642D01*
X108714285Y-122312023D01*
X108809523Y-122264404D01*
X108904761Y-122169166D01*
X108952380Y-122026309D01*
X108952380Y-121788214D01*
X108952380Y-123312023D02*
X108952380Y-122740595D01*
X108952380Y-123026309D02*
X107952380Y-123026309D01*
X108095238Y-122931071D01*
X108190476Y-122835833D01*
X108238095Y-122740595D01*
X108285714Y-124169166D02*
X108952380Y-124169166D01*
X107904761Y-123931071D02*
X108619047Y-123692976D01*
X108619047Y-124312023D01*
X111333630Y-121788214D02*
X110333630Y-121788214D01*
X110333630Y-122026309D01*
X110381250Y-122169166D01*
X110476488Y-122264404D01*
X110571726Y-122312023D01*
X110762202Y-122359642D01*
X110905059Y-122359642D01*
X111095535Y-122312023D01*
X111190773Y-122264404D01*
X111286011Y-122169166D01*
X111333630Y-122026309D01*
X111333630Y-121788214D01*
X111333630Y-123312023D02*
X111333630Y-122740595D01*
X111333630Y-123026309D02*
X110333630Y-123026309D01*
X110476488Y-122931071D01*
X110571726Y-122835833D01*
X110619345Y-122740595D01*
X110333630Y-123645357D02*
X110333630Y-124264404D01*
X110714583Y-123931071D01*
X110714583Y-124073928D01*
X110762202Y-124169166D01*
X110809821Y-124216785D01*
X110905059Y-124264404D01*
X111143154Y-124264404D01*
X111238392Y-124216785D01*
X111286011Y-124169166D01*
X111333630Y-124073928D01*
X111333630Y-123788214D01*
X111286011Y-123692976D01*
X111238392Y-123645357D01*
X123239880Y-121788214D02*
X122239880Y-121788214D01*
X122239880Y-122026309D01*
X122287500Y-122169166D01*
X122382738Y-122264404D01*
X122477976Y-122312023D01*
X122668452Y-122359642D01*
X122811309Y-122359642D01*
X123001785Y-122312023D01*
X123097023Y-122264404D01*
X123192261Y-122169166D01*
X123239880Y-122026309D01*
X123239880Y-121788214D01*
X123239880Y-123312023D02*
X123239880Y-122740595D01*
X123239880Y-123026309D02*
X122239880Y-123026309D01*
X122382738Y-122931071D01*
X122477976Y-122835833D01*
X122525595Y-122740595D01*
X122335119Y-123692976D02*
X122287500Y-123740595D01*
X122239880Y-123835833D01*
X122239880Y-124073928D01*
X122287500Y-124169166D01*
X122335119Y-124216785D01*
X122430357Y-124264404D01*
X122525595Y-124264404D01*
X122668452Y-124216785D01*
X123239880Y-123645357D01*
X123239880Y-124264404D01*
X120858630Y-121788214D02*
X119858630Y-121788214D01*
X119858630Y-122026309D01*
X119906250Y-122169166D01*
X120001488Y-122264404D01*
X120096726Y-122312023D01*
X120287202Y-122359642D01*
X120430059Y-122359642D01*
X120620535Y-122312023D01*
X120715773Y-122264404D01*
X120811011Y-122169166D01*
X120858630Y-122026309D01*
X120858630Y-121788214D01*
X120858630Y-123312023D02*
X120858630Y-122740595D01*
X120858630Y-123026309D02*
X119858630Y-123026309D01*
X120001488Y-122931071D01*
X120096726Y-122835833D01*
X120144345Y-122740595D01*
X120858630Y-124264404D02*
X120858630Y-123692976D01*
X120858630Y-123978690D02*
X119858630Y-123978690D01*
X120001488Y-123883452D01*
X120096726Y-123788214D01*
X120144345Y-123692976D01*
X118477380Y-121788214D02*
X117477380Y-121788214D01*
X117477380Y-122026309D01*
X117525000Y-122169166D01*
X117620238Y-122264404D01*
X117715476Y-122312023D01*
X117905952Y-122359642D01*
X118048809Y-122359642D01*
X118239285Y-122312023D01*
X118334523Y-122264404D01*
X118429761Y-122169166D01*
X118477380Y-122026309D01*
X118477380Y-121788214D01*
X118477380Y-123312023D02*
X118477380Y-122740595D01*
X118477380Y-123026309D02*
X117477380Y-123026309D01*
X117620238Y-122931071D01*
X117715476Y-122835833D01*
X117763095Y-122740595D01*
X117477380Y-123931071D02*
X117477380Y-124026309D01*
X117525000Y-124121547D01*
X117572619Y-124169166D01*
X117667857Y-124216785D01*
X117858333Y-124264404D01*
X118096428Y-124264404D01*
X118286904Y-124216785D01*
X118382142Y-124169166D01*
X118429761Y-124121547D01*
X118477380Y-124026309D01*
X118477380Y-123931071D01*
X118429761Y-123835833D01*
X118382142Y-123788214D01*
X118286904Y-123740595D01*
X118096428Y-123692976D01*
X117858333Y-123692976D01*
X117667857Y-123740595D01*
X117572619Y-123788214D01*
X117525000Y-123835833D01*
X117477380Y-123931071D01*
X116096130Y-122264404D02*
X115096130Y-122264404D01*
X115096130Y-122502500D01*
X115143750Y-122645357D01*
X115238988Y-122740595D01*
X115334226Y-122788214D01*
X115524702Y-122835833D01*
X115667559Y-122835833D01*
X115858035Y-122788214D01*
X115953273Y-122740595D01*
X116048511Y-122645357D01*
X116096130Y-122502500D01*
X116096130Y-122264404D01*
X116096130Y-123312023D02*
X116096130Y-123502500D01*
X116048511Y-123597738D01*
X116000892Y-123645357D01*
X115858035Y-123740595D01*
X115667559Y-123788214D01*
X115286607Y-123788214D01*
X115191369Y-123740595D01*
X115143750Y-123692976D01*
X115096130Y-123597738D01*
X115096130Y-123407261D01*
X115143750Y-123312023D01*
X115191369Y-123264404D01*
X115286607Y-123216785D01*
X115524702Y-123216785D01*
X115619940Y-123264404D01*
X115667559Y-123312023D01*
X115715178Y-123407261D01*
X115715178Y-123597738D01*
X115667559Y-123692976D01*
X115619940Y-123740595D01*
X115524702Y-123788214D01*
X140573595Y-124795380D02*
X140573595Y-123795380D01*
X140335500Y-123795380D01*
X140192642Y-123843000D01*
X140097404Y-123938238D01*
X140049785Y-124033476D01*
X140002166Y-124223952D01*
X140002166Y-124366809D01*
X140049785Y-124557285D01*
X140097404Y-124652523D01*
X140192642Y-124747761D01*
X140335500Y-124795380D01*
X140573595Y-124795380D01*
X139430738Y-124223952D02*
X139525976Y-124176333D01*
X139573595Y-124128714D01*
X139621214Y-124033476D01*
X139621214Y-123985857D01*
X139573595Y-123890619D01*
X139525976Y-123843000D01*
X139430738Y-123795380D01*
X139240261Y-123795380D01*
X139145023Y-123843000D01*
X139097404Y-123890619D01*
X139049785Y-123985857D01*
X139049785Y-124033476D01*
X139097404Y-124128714D01*
X139145023Y-124176333D01*
X139240261Y-124223952D01*
X139430738Y-124223952D01*
X139525976Y-124271571D01*
X139573595Y-124319190D01*
X139621214Y-124414428D01*
X139621214Y-124604904D01*
X139573595Y-124700142D01*
X139525976Y-124747761D01*
X139430738Y-124795380D01*
X139240261Y-124795380D01*
X139145023Y-124747761D01*
X139097404Y-124700142D01*
X139049785Y-124604904D01*
X139049785Y-124414428D01*
X139097404Y-124319190D01*
X139145023Y-124271571D01*
X139240261Y-124223952D01*
X140573595Y-127176630D02*
X140573595Y-126176630D01*
X140335500Y-126176630D01*
X140192642Y-126224250D01*
X140097404Y-126319488D01*
X140049785Y-126414726D01*
X140002166Y-126605202D01*
X140002166Y-126748059D01*
X140049785Y-126938535D01*
X140097404Y-127033773D01*
X140192642Y-127129011D01*
X140335500Y-127176630D01*
X140573595Y-127176630D01*
X139668833Y-126176630D02*
X139002166Y-126176630D01*
X139430738Y-127176630D01*
X140573595Y-129557880D02*
X140573595Y-128557880D01*
X140335500Y-128557880D01*
X140192642Y-128605500D01*
X140097404Y-128700738D01*
X140049785Y-128795976D01*
X140002166Y-128986452D01*
X140002166Y-129129309D01*
X140049785Y-129319785D01*
X140097404Y-129415023D01*
X140192642Y-129510261D01*
X140335500Y-129557880D01*
X140573595Y-129557880D01*
X139145023Y-128557880D02*
X139335500Y-128557880D01*
X139430738Y-128605500D01*
X139478357Y-128653119D01*
X139573595Y-128795976D01*
X139621214Y-128986452D01*
X139621214Y-129367404D01*
X139573595Y-129462642D01*
X139525976Y-129510261D01*
X139430738Y-129557880D01*
X139240261Y-129557880D01*
X139145023Y-129510261D01*
X139097404Y-129462642D01*
X139049785Y-129367404D01*
X139049785Y-129129309D01*
X139097404Y-129034071D01*
X139145023Y-128986452D01*
X139240261Y-128938833D01*
X139430738Y-128938833D01*
X139525976Y-128986452D01*
X139573595Y-129034071D01*
X139621214Y-129129309D01*
X140573595Y-131939130D02*
X140573595Y-130939130D01*
X140335500Y-130939130D01*
X140192642Y-130986750D01*
X140097404Y-131081988D01*
X140049785Y-131177226D01*
X140002166Y-131367702D01*
X140002166Y-131510559D01*
X140049785Y-131701035D01*
X140097404Y-131796273D01*
X140192642Y-131891511D01*
X140335500Y-131939130D01*
X140573595Y-131939130D01*
X139097404Y-130939130D02*
X139573595Y-130939130D01*
X139621214Y-131415321D01*
X139573595Y-131367702D01*
X139478357Y-131320083D01*
X139240261Y-131320083D01*
X139145023Y-131367702D01*
X139097404Y-131415321D01*
X139049785Y-131510559D01*
X139049785Y-131748654D01*
X139097404Y-131843892D01*
X139145023Y-131891511D01*
X139240261Y-131939130D01*
X139478357Y-131939130D01*
X139573595Y-131891511D01*
X139621214Y-131843892D01*
X148154595Y-124840130D02*
X148154595Y-123840130D01*
X147916500Y-123840130D01*
X147773642Y-123887750D01*
X147678404Y-123982988D01*
X147630785Y-124078226D01*
X147583166Y-124268702D01*
X147583166Y-124411559D01*
X147630785Y-124602035D01*
X147678404Y-124697273D01*
X147773642Y-124792511D01*
X147916500Y-124840130D01*
X148154595Y-124840130D01*
X146726023Y-124173464D02*
X146726023Y-124840130D01*
X146964119Y-123792511D02*
X147202214Y-124506797D01*
X146583166Y-124506797D01*
X148154595Y-127221380D02*
X148154595Y-126221380D01*
X147916500Y-126221380D01*
X147773642Y-126269000D01*
X147678404Y-126364238D01*
X147630785Y-126459476D01*
X147583166Y-126649952D01*
X147583166Y-126792809D01*
X147630785Y-126983285D01*
X147678404Y-127078523D01*
X147773642Y-127173761D01*
X147916500Y-127221380D01*
X148154595Y-127221380D01*
X147249833Y-126221380D02*
X146630785Y-126221380D01*
X146964119Y-126602333D01*
X146821261Y-126602333D01*
X146726023Y-126649952D01*
X146678404Y-126697571D01*
X146630785Y-126792809D01*
X146630785Y-127030904D01*
X146678404Y-127126142D01*
X146726023Y-127173761D01*
X146821261Y-127221380D01*
X147106976Y-127221380D01*
X147202214Y-127173761D01*
X147249833Y-127126142D01*
X148154595Y-129602630D02*
X148154595Y-128602630D01*
X147916500Y-128602630D01*
X147773642Y-128650250D01*
X147678404Y-128745488D01*
X147630785Y-128840726D01*
X147583166Y-129031202D01*
X147583166Y-129174059D01*
X147630785Y-129364535D01*
X147678404Y-129459773D01*
X147773642Y-129555011D01*
X147916500Y-129602630D01*
X148154595Y-129602630D01*
X147202214Y-128697869D02*
X147154595Y-128650250D01*
X147059357Y-128602630D01*
X146821261Y-128602630D01*
X146726023Y-128650250D01*
X146678404Y-128697869D01*
X146630785Y-128793107D01*
X146630785Y-128888345D01*
X146678404Y-129031202D01*
X147249833Y-129602630D01*
X146630785Y-129602630D01*
X148154595Y-131983880D02*
X148154595Y-130983880D01*
X147916500Y-130983880D01*
X147773642Y-131031500D01*
X147678404Y-131126738D01*
X147630785Y-131221976D01*
X147583166Y-131412452D01*
X147583166Y-131555309D01*
X147630785Y-131745785D01*
X147678404Y-131841023D01*
X147773642Y-131936261D01*
X147916500Y-131983880D01*
X148154595Y-131983880D01*
X146630785Y-131983880D02*
X147202214Y-131983880D01*
X146916500Y-131983880D02*
X146916500Y-130983880D01*
X147011738Y-131126738D01*
X147106976Y-131221976D01*
X147202214Y-131269595D01*
M02*
