G04 #@! TF.GenerationSoftware,KiCad,Pcbnew,(5.1.4)-1*
G04 #@! TF.CreationDate,2023-12-29T15:47:13-05:00*
G04 #@! TF.ProjectId,ThumbsUp,5468756d-6273-4557-902e-6b696361645f,rev?*
G04 #@! TF.SameCoordinates,Original*
G04 #@! TF.FileFunction,Copper,L1,Top*
G04 #@! TF.FilePolarity,Positive*
%FSLAX46Y46*%
G04 Gerber Fmt 4.6, Leading zero omitted, Abs format (unit mm)*
G04 Created by KiCad (PCBNEW (5.1.4)-1) date 2023-12-29 15:47:13*
%MOMM*%
%LPD*%
G04 APERTURE LIST*
%ADD10O,1.700000X1.700000*%
%ADD11R,1.700000X1.700000*%
%ADD12C,1.500000*%
%ADD13C,1.200000*%
%ADD14C,1.300000*%
%ADD15C,1.600000*%
%ADD16R,1.600000X1.600000*%
%ADD17C,1.700000*%
%ADD18C,1.700000*%
%ADD19C,0.100000*%
%ADD20C,2.032000*%
%ADD21C,0.800000*%
%ADD22C,0.508000*%
%ADD23C,0.254000*%
%ADD24C,0.250000*%
G04 APERTURE END LIST*
D10*
X150710000Y-119920000D03*
D11*
X153250000Y-119920000D03*
D12*
X126590000Y-142790000D03*
X134590000Y-142790000D03*
D13*
X128590000Y-142790000D03*
D14*
X130590000Y-142790000D03*
X132590000Y-142790000D03*
D15*
X159332000Y-87252000D03*
X159332000Y-89792000D03*
X159332000Y-92332000D03*
X159332000Y-94872000D03*
X159332000Y-97412000D03*
X159332000Y-99952000D03*
X159332000Y-102492000D03*
X159332000Y-105032000D03*
X159332000Y-107572000D03*
X159332000Y-110112000D03*
X159332000Y-112652000D03*
X159332000Y-115192000D03*
X144092000Y-115192000D03*
X144092000Y-112652000D03*
X144092000Y-110112000D03*
X144092000Y-107572000D03*
X144092000Y-105032000D03*
X144092000Y-102492000D03*
X144092000Y-99952000D03*
X144092000Y-97412000D03*
X144092000Y-94872000D03*
X144092000Y-92332000D03*
X144092000Y-89792000D03*
D16*
X144092000Y-87252000D03*
D17*
X199065141Y-92685498D03*
D18*
X199065141Y-92685498D02*
X199065141Y-92685498D01*
D17*
X196710094Y-93636999D03*
D18*
X196710094Y-93636999D02*
X196710094Y-93636999D01*
D17*
X194355047Y-94588499D03*
D18*
X194355047Y-94588499D02*
X194355047Y-94588499D01*
D17*
X192000000Y-95540000D03*
D19*
G36*
X193106522Y-96009691D02*
G01*
X191530309Y-96646522D01*
X190893478Y-95070309D01*
X192469691Y-94433478D01*
X193106522Y-96009691D01*
X193106522Y-96009691D01*
G37*
D17*
X246428381Y-97351090D03*
D19*
G36*
X245958690Y-98457612D02*
G01*
X245321859Y-96881399D01*
X246898072Y-96244568D01*
X247534903Y-97820781D01*
X245958690Y-98457612D01*
X245958690Y-98457612D01*
G37*
D17*
X247379882Y-99706137D03*
D18*
X247379882Y-99706137D02*
X247379882Y-99706137D01*
D17*
X248331382Y-102061184D03*
D18*
X248331382Y-102061184D02*
X248331382Y-102061184D01*
D17*
X249282883Y-104416231D03*
D18*
X249282883Y-104416231D02*
X249282883Y-104416231D01*
D17*
X177894345Y-61730649D03*
D19*
G36*
X179000867Y-62200340D02*
G01*
X177424654Y-62837171D01*
X176787823Y-61260958D01*
X178364036Y-60624127D01*
X179000867Y-62200340D01*
X179000867Y-62200340D01*
G37*
D17*
X180249392Y-60779148D03*
D18*
X180249392Y-60779148D02*
X180249392Y-60779148D01*
D17*
X182604439Y-59827648D03*
D18*
X182604439Y-59827648D02*
X182604439Y-59827648D01*
D17*
X184959486Y-58876147D03*
D18*
X184959486Y-58876147D02*
X184959486Y-58876147D01*
D17*
X185500000Y-79040000D03*
D19*
G36*
X186606522Y-79509691D02*
G01*
X185030309Y-80146522D01*
X184393478Y-78570309D01*
X185969691Y-77933478D01*
X186606522Y-79509691D01*
X186606522Y-79509691D01*
G37*
D17*
X187855047Y-78088499D03*
D18*
X187855047Y-78088499D02*
X187855047Y-78088499D01*
D17*
X190210094Y-77136999D03*
D18*
X190210094Y-77136999D02*
X190210094Y-77136999D01*
D17*
X192565141Y-76185498D03*
D18*
X192565141Y-76185498D02*
X192565141Y-76185498D01*
D17*
X187293643Y-143302834D03*
D18*
X187293643Y-143302834D02*
X187293643Y-143302834D01*
D17*
X185765033Y-141274299D03*
D18*
X185765033Y-141274299D02*
X185765033Y-141274299D01*
D17*
X184236423Y-139245765D03*
D18*
X184236423Y-139245765D02*
X184236423Y-139245765D01*
D17*
X182707813Y-137217231D03*
D19*
G36*
X182540516Y-138407614D02*
G01*
X181517430Y-137049934D01*
X182875110Y-136026848D01*
X183898196Y-137384528D01*
X182540516Y-138407614D01*
X182540516Y-138407614D01*
G37*
D20*
X241033916Y-94677189D03*
X235611323Y-94603136D03*
X188559694Y-63569216D03*
X183137101Y-63495163D03*
X195115309Y-79794933D03*
X189692716Y-79720880D03*
X201670924Y-96020651D03*
X196248331Y-95946598D03*
X222007982Y-96971492D03*
X216585389Y-96897439D03*
D17*
X210415141Y-130637906D03*
D18*
X210415141Y-130637906D02*
X210415141Y-130637906D01*
D17*
X212443676Y-129109296D03*
D18*
X212443676Y-129109296D02*
X212443676Y-129109296D01*
D17*
X214472210Y-127580686D03*
D18*
X214472210Y-127580686D02*
X214472210Y-127580686D01*
D17*
X216500744Y-126052076D03*
D19*
G36*
X215310361Y-125884779D02*
G01*
X216668041Y-124861693D01*
X217691127Y-126219373D01*
X216333447Y-127242459D01*
X215310361Y-125884779D01*
X215310361Y-125884779D01*
G37*
D17*
X92892618Y-130791511D03*
D18*
X92892618Y-130791511D02*
X92892618Y-130791511D01*
D17*
X90864083Y-129262901D03*
D18*
X90864083Y-129262901D02*
X90864083Y-129262901D01*
D17*
X88835549Y-127734291D03*
D18*
X88835549Y-127734291D02*
X88835549Y-127734291D01*
D17*
X86807015Y-126205681D03*
D19*
G36*
X86974312Y-127396064D02*
G01*
X85616632Y-126372978D01*
X86639718Y-125015298D01*
X87997398Y-126038384D01*
X86974312Y-127396064D01*
X86974312Y-127396064D01*
G37*
D17*
X57295205Y-97543276D03*
D19*
G36*
X56188683Y-98012967D02*
G01*
X56825514Y-96436754D01*
X58401727Y-97073585D01*
X57764896Y-98649798D01*
X56188683Y-98012967D01*
X56188683Y-98012967D01*
G37*
D17*
X56343704Y-99898323D03*
D18*
X56343704Y-99898323D02*
X56343704Y-99898323D01*
D17*
X55392204Y-102253370D03*
D18*
X55392204Y-102253370D02*
X55392204Y-102253370D01*
D17*
X54440703Y-104608417D03*
D18*
X54440703Y-104608417D02*
X54440703Y-104608417D01*
D17*
X125097799Y-61864591D03*
D19*
G36*
X124628108Y-60758069D02*
G01*
X126204321Y-61394900D01*
X125567490Y-62971113D01*
X123991277Y-62334282D01*
X124628108Y-60758069D01*
X124628108Y-60758069D01*
G37*
D17*
X122742752Y-60913090D03*
D18*
X122742752Y-60913090D02*
X122742752Y-60913090D01*
D17*
X120387705Y-59961590D03*
D18*
X120387705Y-59961590D02*
X120387705Y-59961590D01*
D17*
X118032658Y-59010089D03*
D18*
X118032658Y-59010089D02*
X118032658Y-59010089D01*
D17*
X118558765Y-78178249D03*
D19*
G36*
X118089074Y-77071727D02*
G01*
X119665287Y-77708558D01*
X119028456Y-79284771D01*
X117452243Y-78647940D01*
X118089074Y-77071727D01*
X118089074Y-77071727D01*
G37*
D17*
X116203718Y-77226748D03*
D18*
X116203718Y-77226748D02*
X116203718Y-77226748D01*
D17*
X113848671Y-76275248D03*
D18*
X113848671Y-76275248D02*
X113848671Y-76275248D01*
D17*
X111493624Y-75323747D03*
D18*
X111493624Y-75323747D02*
X111493624Y-75323747D01*
D17*
X104678867Y-91323747D03*
D18*
X104678867Y-91323747D02*
X104678867Y-91323747D01*
D17*
X107033914Y-92275248D03*
D18*
X107033914Y-92275248D02*
X107033914Y-92275248D01*
D17*
X109388961Y-93226748D03*
D18*
X109388961Y-93226748D02*
X109388961Y-93226748D01*
D17*
X111744008Y-94178249D03*
D19*
G36*
X111274317Y-93071727D02*
G01*
X112850530Y-93708558D01*
X112213699Y-95284771D01*
X110637486Y-94647940D01*
X111274317Y-93071727D01*
X111274317Y-93071727D01*
G37*
D20*
X111845799Y-70639240D03*
X115695044Y-74459359D03*
X176838588Y-83943604D03*
X171415995Y-83869551D03*
X59371576Y-101747213D03*
X63220821Y-105567332D03*
X78397510Y-104041516D03*
X82246755Y-107861635D03*
X98734568Y-103090675D03*
X102583813Y-106910794D03*
X183394203Y-100169321D03*
X177971610Y-100095268D03*
X130122520Y-74787910D03*
X133971765Y-78608029D03*
X117011289Y-107239345D03*
X120860534Y-111059464D03*
X123566904Y-91013628D03*
X127416149Y-94833747D03*
X170282973Y-67717886D03*
X164860380Y-67643833D03*
X105290183Y-86864957D03*
X109139428Y-90685076D03*
D17*
X106728320Y-141127050D03*
D18*
X106728320Y-141127050D02*
X106728320Y-141127050D01*
D17*
X104699785Y-139598440D03*
D18*
X104699785Y-139598440D02*
X104699785Y-139598440D01*
D17*
X102671251Y-138069830D03*
D18*
X102671251Y-138069830D02*
X102671251Y-138069830D01*
D17*
X100642717Y-136541220D03*
D19*
G36*
X100810014Y-137731603D02*
G01*
X99452334Y-136708517D01*
X100475420Y-135350837D01*
X101833100Y-136373923D01*
X100810014Y-137731603D01*
X100810014Y-137731603D01*
G37*
D11*
X151558765Y-87678249D03*
D10*
X151558765Y-90218249D03*
X151558765Y-92758249D03*
X151558765Y-95298249D03*
D17*
X196616901Y-141066163D03*
D19*
G36*
X197807284Y-141233460D02*
G01*
X196449604Y-142256546D01*
X195426518Y-140898866D01*
X196784198Y-139875780D01*
X197807284Y-141233460D01*
X197807284Y-141233460D01*
G37*
D17*
X198645435Y-139537553D03*
D18*
X198645435Y-139537553D02*
X198645435Y-139537553D01*
D17*
X200673969Y-138008943D03*
D18*
X200673969Y-138008943D02*
X200673969Y-138008943D01*
D17*
X202702504Y-136480333D03*
D18*
X202702504Y-136480333D02*
X202702504Y-136480333D01*
D17*
X115734284Y-143501436D03*
D18*
X115734284Y-143501436D02*
X115734284Y-143501436D01*
D17*
X117262894Y-141472901D03*
D18*
X117262894Y-141472901D02*
X117262894Y-141472901D01*
D17*
X118791504Y-139444367D03*
D18*
X118791504Y-139444367D02*
X118791504Y-139444367D01*
D17*
X120320114Y-137415833D03*
D19*
G36*
X119129731Y-137583130D02*
G01*
X120152817Y-136225450D01*
X121510497Y-137248536D01*
X120487411Y-138606216D01*
X119129731Y-137583130D01*
X119129731Y-137583130D01*
G37*
D21*
X144972750Y-133531500D03*
X154125000Y-122431000D03*
X144972750Y-131150250D03*
X144972750Y-128769000D03*
X144972750Y-126387750D03*
X136660500Y-133486750D03*
X147880000Y-122360000D03*
X136660500Y-131105500D03*
X136660500Y-128724250D03*
X136660500Y-126343000D03*
X113643750Y-119827500D03*
X122883000Y-126368000D03*
X150140000Y-138990000D03*
X116025000Y-119827500D03*
X118406250Y-119827500D03*
X120787500Y-119827500D03*
X93800000Y-104746250D03*
X108881250Y-119827500D03*
X108913004Y-126241000D03*
X148860000Y-139800000D03*
X74450000Y-102890000D03*
X106500000Y-119827500D03*
X144972750Y-135912750D03*
X136660500Y-135868000D03*
X111262500Y-119827500D03*
X144600000Y-123796250D03*
X136662500Y-123796250D03*
X123168750Y-119827500D03*
X158887500Y-123796250D03*
X166952000Y-124113750D03*
X182700000Y-119033750D03*
X158842500Y-135892750D03*
X167133750Y-135894000D03*
X194606250Y-119033750D03*
X158842500Y-133511500D03*
X158842500Y-131130250D03*
X158842500Y-128749000D03*
X158842500Y-126367750D03*
X167017966Y-133396965D03*
X167133750Y-131131500D03*
X167133750Y-128750250D03*
X167133750Y-126369000D03*
X192183098Y-118991848D03*
X189843750Y-119033750D03*
X189843750Y-119033750D03*
X187462500Y-119033750D03*
X185081250Y-119033750D03*
X121160000Y-129330000D03*
X62800000Y-95240000D03*
X122427451Y-129657011D03*
X122780813Y-131111022D03*
X121310000Y-131100000D03*
X104118750Y-116652500D03*
X104118750Y-126177500D03*
X120470000Y-102619000D03*
X203723946Y-102913946D03*
X205718750Y-125941515D03*
X185050002Y-107490000D03*
X206512500Y-108715000D03*
X206512500Y-115858750D03*
X181238135Y-127808953D03*
X180241773Y-127894314D03*
X178763000Y-127860299D03*
X133680000Y-138220000D03*
X177654566Y-127829862D03*
X170762000Y-140591966D03*
D22*
X188542000Y-142116000D02*
X187355166Y-143302834D01*
X187355166Y-143302834D02*
X187293643Y-143302834D01*
X178636000Y-134750000D02*
X183208000Y-134750000D01*
X160153672Y-138560000D02*
X174826000Y-138560000D01*
X160983000Y-89792000D02*
X161237000Y-90046000D01*
X159332000Y-89792000D02*
X160983000Y-89792000D01*
X188542000Y-140084000D02*
X188542000Y-142116000D01*
X161237000Y-90046000D02*
X161237000Y-120182828D01*
X174826000Y-138560000D02*
X178636000Y-134750000D01*
X161237000Y-120182828D02*
X157554000Y-123865828D01*
X157554000Y-123865828D02*
X157554000Y-135960328D01*
X183208000Y-134750000D02*
X188542000Y-140084000D01*
X157554000Y-135960328D02*
X160153672Y-138560000D01*
D23*
X140155000Y-128713750D02*
X140155000Y-90908761D01*
X144972750Y-133531500D02*
X140155000Y-128713750D01*
D24*
X140155000Y-90882522D02*
X140155000Y-89284000D01*
X118032658Y-60212170D02*
X118032658Y-59010089D01*
X140128761Y-90908761D02*
X140155000Y-90882522D01*
X140155000Y-89284000D02*
X125893737Y-75022737D01*
X125893737Y-75022737D02*
X125893737Y-72123737D01*
X125893737Y-72123737D02*
X118032658Y-64262658D01*
X118032658Y-64262658D02*
X118032658Y-60212170D01*
D23*
X145146000Y-87252000D02*
X144092000Y-87252000D01*
X148080000Y-90186000D02*
X145146000Y-87252000D01*
X148080000Y-120760000D02*
X148080000Y-90186000D01*
X154125000Y-122431000D02*
X149751000Y-122431000D01*
X149751000Y-122431000D02*
X148080000Y-120760000D01*
D24*
X121237704Y-60811589D02*
X120387705Y-59961590D01*
X126343748Y-66646248D02*
X121237704Y-61540204D01*
X121237704Y-61540204D02*
X121237704Y-60811589D01*
X126343748Y-74426409D02*
X126343748Y-66646248D01*
D23*
X140609010Y-88726248D02*
X126345747Y-74462985D01*
X140609010Y-126786510D02*
X140609010Y-88726248D01*
X144972750Y-131150250D02*
X140609010Y-126786510D01*
D24*
X122742752Y-62115171D02*
X122742752Y-60913090D01*
X126793759Y-66166178D02*
X122742752Y-62115171D01*
X126793759Y-74271759D02*
X126793759Y-66166178D01*
X141044000Y-88522000D02*
X126793759Y-74271759D01*
X141044000Y-88585500D02*
X141044000Y-88522000D01*
D23*
X144572751Y-128369001D02*
X144972750Y-128769000D01*
X141063021Y-88604521D02*
X141063021Y-124859271D01*
X141044000Y-88585500D02*
X141063021Y-88604521D01*
X141063021Y-124859271D02*
X144572751Y-128369001D01*
D24*
X127243770Y-68978979D02*
X127243770Y-64010562D01*
X127243770Y-64010562D02*
X125821456Y-62588248D01*
X125821456Y-62588248D02*
X125097799Y-61864591D01*
D23*
X141517032Y-88315264D02*
X127245769Y-74044001D01*
X144972750Y-126387750D02*
X141517032Y-122932032D01*
X127245769Y-74044001D02*
X127245769Y-68978979D01*
X141517032Y-122932032D02*
X141517032Y-88315264D01*
D24*
X110643625Y-76173746D02*
X111493624Y-75323747D01*
X108087500Y-78729871D02*
X110643625Y-76173746D01*
X108087500Y-86432822D02*
X108087500Y-78729871D01*
X115706689Y-94052011D02*
X108087500Y-86432822D01*
D23*
X134005010Y-105366078D02*
X122821943Y-94183011D01*
X115840516Y-94183011D02*
X115707103Y-94049598D01*
X136660500Y-133486750D02*
X134005010Y-130831260D01*
X122821943Y-94183011D02*
X115840516Y-94183011D01*
X134005010Y-130831260D02*
X134005010Y-105366078D01*
X147610000Y-122090000D02*
X147880000Y-122360000D01*
X144092000Y-89792000D02*
X147610000Y-93310000D01*
X147610000Y-93310000D02*
X147610000Y-122090000D01*
D24*
X113158919Y-76965000D02*
X113848671Y-76275248D01*
X114755000Y-92332000D02*
X114723250Y-92332000D01*
X115898000Y-93475000D02*
X114755000Y-92332000D01*
X114723250Y-92332000D02*
X108537510Y-86146260D01*
X108537510Y-86146260D02*
X108537510Y-79689990D01*
X108537510Y-79689990D02*
X111262500Y-76965000D01*
X111262500Y-76965000D02*
X113158919Y-76965000D01*
D23*
X134459020Y-105178020D02*
X123010000Y-93729000D01*
X136660500Y-131105500D02*
X134459020Y-128904020D01*
X123010000Y-93729000D02*
X116152000Y-93729000D01*
X134459020Y-128904020D02*
X134459020Y-105178020D01*
X116152000Y-93729000D02*
X115898000Y-93475000D01*
D24*
X116203718Y-78428829D02*
X116203718Y-77226748D01*
X117384670Y-79609781D02*
X116203718Y-78428829D01*
D23*
X118168889Y-80394000D02*
X117384670Y-79609781D01*
X134913031Y-126976781D02*
X134913030Y-104989963D01*
X136660500Y-128724250D02*
X134913031Y-126976781D01*
X134913030Y-104989963D02*
X120399183Y-90476116D01*
X120399183Y-81339183D02*
X119454000Y-80394000D01*
X120399183Y-90476116D02*
X120399183Y-81339183D01*
X119454000Y-80394000D02*
X118168889Y-80394000D01*
D24*
X119575519Y-78178249D02*
X118558765Y-78178249D01*
D23*
X120978000Y-79251000D02*
X119905249Y-78178249D01*
X136660500Y-126343000D02*
X135367041Y-125049541D01*
X135367041Y-125049541D02*
X135367041Y-104816041D01*
X135367041Y-104816041D02*
X135367039Y-104816039D01*
X135367039Y-104816039D02*
X135367039Y-104801405D01*
X135367039Y-104801405D02*
X120978000Y-90412366D01*
X119905249Y-78178249D02*
X118558765Y-78178249D01*
X120978000Y-90412366D02*
X120978000Y-79251000D01*
D24*
X113643750Y-119261815D02*
X113643750Y-119827500D01*
X103668739Y-92333875D02*
X103668739Y-96280070D01*
X104678867Y-91323747D02*
X103668739Y-92333875D01*
X103668739Y-96280070D02*
X107293750Y-99905081D01*
X107293750Y-99905081D02*
X107293750Y-109508750D01*
X107293750Y-109508750D02*
X113643750Y-115858750D01*
X113643750Y-115858750D02*
X113643750Y-119261815D01*
D23*
X122883000Y-126368000D02*
X137042002Y-140527002D01*
X137042002Y-140527002D02*
X149168683Y-140527002D01*
X150140000Y-139555685D02*
X150140000Y-138990000D01*
X149168683Y-140527002D02*
X150140000Y-139555685D01*
X144891999Y-103291999D02*
X144092000Y-102492000D01*
X146185989Y-104585989D02*
X144891999Y-103291999D01*
X146185989Y-134509471D02*
X146185989Y-104585989D01*
X150140000Y-138990000D02*
X150140000Y-138463482D01*
X150140000Y-138463482D02*
X146185989Y-134509471D01*
D24*
X116025000Y-117446250D02*
X116025000Y-119261815D01*
X107033914Y-92275248D02*
X104118750Y-95190412D01*
X116025000Y-119261815D02*
X116025000Y-119827500D01*
X107743761Y-99718681D02*
X107743761Y-109165011D01*
X107743761Y-109165011D02*
X116025000Y-117446250D01*
X104118750Y-96093671D02*
X107743761Y-99718681D01*
X104118750Y-95190412D02*
X104118750Y-96093671D01*
X118406250Y-115544071D02*
X118406250Y-119261815D01*
X115220277Y-112358098D02*
X118406250Y-115544071D01*
X115220277Y-100625322D02*
X115220277Y-112358098D01*
X109388961Y-94794006D02*
X115220277Y-100625322D01*
X118406250Y-119261815D02*
X118406250Y-119827500D01*
X109388961Y-93226748D02*
X109388961Y-94794006D01*
X115670288Y-98104529D02*
X115670288Y-112171698D01*
X115670288Y-112171698D02*
X120787500Y-117288910D01*
X120787500Y-117288910D02*
X120787500Y-119261815D01*
X111744008Y-94178249D02*
X115670288Y-98104529D01*
X120787500Y-119261815D02*
X120787500Y-119827500D01*
X108881250Y-116652500D02*
X108881250Y-119827500D01*
X105706250Y-113477500D02*
X108881250Y-116652500D01*
X102531250Y-113477500D02*
X105706250Y-113477500D01*
X93800000Y-104746250D02*
X102531250Y-113477500D01*
D23*
X109513006Y-125640998D02*
X123231962Y-125640998D01*
X148294315Y-139800000D02*
X148860000Y-139800000D01*
X123231962Y-125640998D02*
X137390964Y-139800000D01*
X148460001Y-139400001D02*
X148860000Y-139800000D01*
X145731978Y-106671978D02*
X145731978Y-136671978D01*
X144092000Y-105032000D02*
X145731978Y-106671978D01*
X145731978Y-136671978D02*
X148460001Y-139400001D01*
X137390964Y-139800000D02*
X148294315Y-139800000D01*
X108913004Y-126241000D02*
X109513006Y-125640998D01*
D24*
X106500000Y-119261815D02*
X106500000Y-119827500D01*
X75102000Y-102238000D02*
X80338000Y-102238000D01*
X74450000Y-102890000D02*
X75102000Y-102238000D01*
X80338000Y-102238000D02*
X92371250Y-114271250D01*
X92371250Y-114271250D02*
X105706250Y-114271250D01*
X105706250Y-114271250D02*
X106500000Y-115065000D01*
X106500000Y-115065000D02*
X106500000Y-119261815D01*
D23*
X128752000Y-83850000D02*
X128350000Y-83850000D01*
X135043784Y-90141784D02*
X128752000Y-83850000D01*
X138980784Y-90141784D02*
X135043784Y-90141784D01*
X139647000Y-90808000D02*
X138980784Y-90141784D01*
X144972750Y-135912750D02*
X139647000Y-130587000D01*
X139647000Y-130587000D02*
X139647000Y-90808000D01*
D24*
X112861798Y-71655239D02*
X111845799Y-70639240D01*
X114202809Y-72996250D02*
X112861798Y-71655239D01*
X117416250Y-72996250D02*
X114202809Y-72996250D01*
X128350000Y-83850000D02*
X128270000Y-83850000D01*
X128270000Y-83850000D02*
X117416250Y-72996250D01*
X106727023Y-86864957D02*
X105290183Y-86864957D01*
X107883224Y-86864957D02*
X106727023Y-86864957D01*
X115653288Y-94635021D02*
X107883224Y-86864957D01*
X122634713Y-94635021D02*
X115653288Y-94635021D01*
X132454215Y-104454523D02*
X122634713Y-94635021D01*
D23*
X133551000Y-105554134D02*
X132452802Y-104455936D01*
X133551000Y-133324185D02*
X133551000Y-105554134D01*
X136660500Y-135868000D02*
X136094815Y-135868000D01*
X136094815Y-135868000D02*
X133551000Y-133324185D01*
D24*
X111262500Y-118240000D02*
X111262500Y-119827500D01*
X105706250Y-112683750D02*
X111262500Y-118240000D01*
X104912500Y-112683750D02*
X105706250Y-112683750D01*
X98734568Y-103090675D02*
X98734568Y-106505818D01*
X98734568Y-106505818D02*
X104912500Y-112683750D01*
D23*
X141971043Y-121167293D02*
X141971043Y-84619665D01*
X131559360Y-74787910D02*
X130122520Y-74787910D01*
X132139288Y-74787910D02*
X131559360Y-74787910D01*
X141971043Y-84619665D02*
X132139288Y-74787910D01*
X144600000Y-123796250D02*
X141971043Y-121167293D01*
X124582903Y-92029627D02*
X123566904Y-91013628D01*
X126044022Y-93490746D02*
X124582903Y-92029627D01*
X132677746Y-93490746D02*
X126044022Y-93490746D01*
X136662500Y-97475500D02*
X132677746Y-93490746D01*
X136662500Y-123796250D02*
X136662500Y-97475500D01*
D24*
X123168750Y-119261815D02*
X123168750Y-119827500D01*
X123168750Y-119033750D02*
X123168750Y-119261815D01*
X117011289Y-107239345D02*
X117011289Y-112876289D01*
X117011289Y-112876289D02*
X123168750Y-119033750D01*
D23*
X168846133Y-67717886D02*
X170282973Y-67717886D01*
X161872000Y-120811750D02*
X161872000Y-77981000D01*
X158887500Y-123796250D02*
X161872000Y-120811750D01*
X161872000Y-77981000D02*
X160221000Y-76330000D01*
X160221000Y-76330000D02*
X160221000Y-74552000D01*
X160221000Y-74552000D02*
X167055114Y-67717886D01*
X167055114Y-67717886D02*
X168846133Y-67717886D01*
X166952000Y-124113750D02*
X165120011Y-122281761D01*
X175127203Y-85654989D02*
X175822589Y-84959603D01*
X175822589Y-84959603D02*
X176838588Y-83943604D01*
X168153875Y-85654989D02*
X175127203Y-85654989D01*
X165120011Y-88688853D02*
X168153875Y-85654989D01*
X165120011Y-122281761D02*
X165120011Y-88688853D01*
D24*
X183394203Y-104284203D02*
X183394203Y-100169321D01*
X185000000Y-105890000D02*
X183394203Y-104284203D01*
X188034000Y-113699750D02*
X182700000Y-119033750D01*
X188034000Y-108924000D02*
X188034000Y-113699750D01*
X185000000Y-105890000D02*
X188034000Y-108924000D01*
X187122854Y-63569216D02*
X188559694Y-63569216D01*
X185964103Y-63569216D02*
X187122854Y-63569216D01*
X175318783Y-74214536D02*
X185964103Y-63569216D01*
D23*
X175318783Y-77527027D02*
X175318783Y-77488217D01*
X164666000Y-88179810D02*
X175318783Y-77527027D01*
X164666000Y-130069250D02*
X164666000Y-88179810D01*
X158842500Y-135892750D02*
X164666000Y-130069250D01*
D24*
X175318783Y-77612395D02*
X175318783Y-77488217D01*
X175318783Y-77488217D02*
X175318783Y-74214536D01*
D23*
X170508000Y-104781533D02*
X182956000Y-92333532D01*
X167133750Y-135894000D02*
X170508000Y-132519750D01*
X170508000Y-132519750D02*
X170508000Y-104781533D01*
D24*
X185875000Y-84902500D02*
X188788816Y-84902500D01*
X182954000Y-87823500D02*
X185875000Y-84902500D01*
X188788816Y-84902500D02*
X192880384Y-80810932D01*
X192880384Y-80810932D02*
X194099310Y-80810932D01*
X194099310Y-80810932D02*
X195115309Y-79794933D01*
D23*
X182955999Y-87825499D02*
X182955999Y-87824328D01*
X182956000Y-92333532D02*
X182955999Y-87825499D01*
D24*
X201670924Y-97457491D02*
X201670924Y-96020651D01*
X201670924Y-102444076D02*
X201670924Y-97457491D01*
X197781250Y-106333750D02*
X201670924Y-102444076D01*
X194606250Y-119033750D02*
X197781250Y-115858750D01*
X197781250Y-115858750D02*
X197781250Y-106333750D01*
X184959486Y-60078228D02*
X184959486Y-58876147D01*
X184959486Y-63937422D02*
X184959486Y-60078228D01*
X174868772Y-74028136D02*
X184959486Y-63937422D01*
X174868772Y-77337800D02*
X174868772Y-74028136D01*
X163993739Y-88212833D02*
X174868772Y-77337800D01*
D23*
X163995153Y-88219901D02*
X163995153Y-88214246D01*
X158842500Y-133511500D02*
X163995153Y-128358847D01*
X163995153Y-128358847D02*
X163995153Y-88219901D01*
D24*
X182700000Y-59923209D02*
X182604439Y-59827648D01*
X182700000Y-61090000D02*
X182700000Y-59923209D01*
X181112500Y-62677500D02*
X182700000Y-61090000D01*
X163543732Y-88026428D02*
X174418761Y-77151400D01*
X174418761Y-77151400D02*
X174418761Y-73841738D01*
X174418761Y-73841738D02*
X181112500Y-67147999D01*
X181112500Y-67147999D02*
X181112500Y-62677500D01*
D23*
X163523000Y-88049988D02*
X163545146Y-88027842D01*
X158842500Y-131130250D02*
X163523000Y-126449750D01*
X163523000Y-126449750D02*
X163523000Y-88049988D01*
D24*
X180249392Y-61981229D02*
X180249392Y-60779148D01*
X180249392Y-67374697D02*
X180249392Y-61981229D01*
X173968750Y-73655339D02*
X180249392Y-67374697D01*
X173968750Y-76965000D02*
X173968750Y-73655339D01*
D23*
X163091723Y-87839199D02*
X173966751Y-76964172D01*
X163015000Y-87915922D02*
X163091723Y-87839199D01*
X158842500Y-128749000D02*
X163015000Y-124576500D01*
X163015000Y-124576500D02*
X163015000Y-87915922D01*
D24*
X166825000Y-81727500D02*
X166825000Y-81664000D01*
X177894345Y-62747403D02*
X177894345Y-61730649D01*
X177894345Y-69070655D02*
X177894345Y-62747403D01*
X173556000Y-73409000D02*
X177894345Y-69070655D01*
X170381000Y-73409000D02*
X173556000Y-73409000D01*
X166825000Y-81664000D02*
X166825000Y-76965000D01*
X166825000Y-76965000D02*
X170381000Y-73409000D01*
D23*
X166825000Y-83315000D02*
X166825000Y-81664000D01*
X162380000Y-87760000D02*
X166825000Y-83315000D01*
X162380000Y-123075125D02*
X162380000Y-87760000D01*
X158842500Y-126367750D02*
X159087375Y-126367750D01*
X159087375Y-126367750D02*
X162380000Y-123075125D01*
D24*
X182503989Y-87637100D02*
X182503989Y-92020011D01*
X188602416Y-84452489D02*
X185688600Y-84452489D01*
X192565141Y-80489764D02*
X188602416Y-84452489D01*
X192565141Y-76185498D02*
X192565141Y-80489764D01*
X185688600Y-84452489D02*
X182503989Y-87637100D01*
D23*
X169873000Y-104774465D02*
X182501990Y-92145475D01*
X182501990Y-92145475D02*
X182501990Y-92020011D01*
X169873000Y-130541931D02*
X169873000Y-104774465D01*
X167017966Y-133396965D02*
X169873000Y-130541931D01*
X169238000Y-104651000D02*
X173175000Y-100714000D01*
X169238000Y-129592935D02*
X169238000Y-104651000D01*
X167133750Y-131131500D02*
X167699435Y-131131500D01*
X167699435Y-131131500D02*
X169238000Y-129592935D01*
D24*
X191971000Y-78897905D02*
X190210094Y-77136999D01*
X191971000Y-80447494D02*
X191971000Y-78897905D01*
X173238500Y-100650500D02*
X181938000Y-91951000D01*
X173175000Y-100587000D02*
X173238500Y-100650500D01*
X181938000Y-91951000D02*
X181938000Y-87566678D01*
X181938000Y-87566678D02*
X185502200Y-84002478D01*
X185502200Y-84002478D02*
X188416016Y-84002478D01*
X188416016Y-84002478D02*
X191971000Y-80447494D01*
X187855047Y-79290580D02*
X187855047Y-78088499D01*
X187855047Y-79590114D02*
X187855047Y-79290580D01*
X185908161Y-81537000D02*
X187855047Y-79590114D01*
X177855300Y-85734616D02*
X182052916Y-81537000D01*
X182052916Y-81537000D02*
X185908161Y-81537000D01*
D23*
X168476000Y-86617000D02*
X176972916Y-86617000D01*
X166028033Y-89064967D02*
X168476000Y-86617000D01*
X167133750Y-128750250D02*
X168603000Y-127281000D01*
X168603000Y-127281000D02*
X168603000Y-120526000D01*
X168603000Y-120526000D02*
X166028033Y-117951033D01*
X166028033Y-117951033D02*
X166028033Y-89064967D01*
X176972916Y-86617000D02*
X177855300Y-85734616D01*
X176731000Y-86109000D02*
X183800000Y-79040000D01*
X183800000Y-79040000D02*
X184483246Y-79040000D01*
X167968000Y-120533068D02*
X165574022Y-118139090D01*
X168341932Y-86109000D02*
X176731000Y-86109000D01*
X165574022Y-88876910D02*
X168341932Y-86109000D01*
X167968000Y-125534750D02*
X167968000Y-120533068D01*
X167133750Y-126369000D02*
X167968000Y-125534750D01*
X184483246Y-79040000D02*
X185500000Y-79040000D01*
X165574022Y-118139090D02*
X165574022Y-88876910D01*
D24*
X189843750Y-116652500D02*
X192183098Y-118991848D01*
X189843750Y-99698000D02*
X189843750Y-116652500D01*
X195511121Y-99698000D02*
X189843750Y-99698000D01*
X199065141Y-96143980D02*
X195511121Y-99698000D01*
X199065141Y-92685498D02*
X199065141Y-96143980D01*
X189443751Y-118633751D02*
X189843750Y-119033750D01*
X189393739Y-118583739D02*
X189443751Y-118633751D01*
X189657350Y-99247989D02*
X189393739Y-99511600D01*
X195211584Y-99247989D02*
X189657350Y-99247989D01*
X198575000Y-95501905D02*
X198575000Y-95884573D01*
X198575000Y-95884573D02*
X195211584Y-99247989D01*
X196710094Y-93636999D02*
X198575000Y-95501905D01*
X189393739Y-99511600D02*
X189393739Y-118583739D01*
X187862499Y-118633751D02*
X187462500Y-119033750D01*
X188934022Y-117562228D02*
X187862499Y-118633751D01*
X188934022Y-99334906D02*
X188934022Y-117562228D01*
X189470950Y-98797978D02*
X188934022Y-99334906D01*
X194355047Y-94588499D02*
X194355047Y-98797978D01*
X194355047Y-98797978D02*
X189470950Y-98797978D01*
X192000000Y-95540000D02*
X188484011Y-99055989D01*
X188484011Y-99055989D02*
X188484011Y-115630989D01*
X185481249Y-118633751D02*
X185081250Y-119033750D01*
X188484011Y-115630989D02*
X185481249Y-118633751D01*
D23*
X80740239Y-109368151D02*
X82246755Y-107861635D01*
X80740239Y-109868510D02*
X80740239Y-109368151D01*
D24*
X80740239Y-109868510D02*
X99685708Y-128813979D01*
X120643979Y-128813979D02*
X120760001Y-128930001D01*
X120760001Y-128930001D02*
X121160000Y-129330000D01*
X99685708Y-128813979D02*
X120643979Y-128813979D01*
X63220821Y-105567332D02*
X62204822Y-104551333D01*
X62204822Y-95835178D02*
X62800000Y-95240000D01*
X61941677Y-99898323D02*
X62204822Y-99635178D01*
X56343704Y-99898323D02*
X61941677Y-99898323D01*
X62204822Y-104551333D02*
X62204822Y-99635178D01*
X62204822Y-99635178D02*
X62204822Y-95835178D01*
X122427451Y-129091326D02*
X122427451Y-129657011D01*
X105006973Y-128363969D02*
X121700094Y-128363969D01*
X82210336Y-105567332D02*
X105006973Y-128363969D01*
X63220821Y-105567332D02*
X82210336Y-105567332D01*
X121700094Y-128363969D02*
X122427451Y-129091326D01*
X55392204Y-102253370D02*
X56605780Y-102253370D01*
X56605780Y-102253370D02*
X62120421Y-107768011D01*
X77359011Y-107768011D02*
X98536261Y-128945261D01*
X62120421Y-107768011D02*
X77359011Y-107768011D01*
D23*
X122380814Y-130711023D02*
X122780813Y-131111022D01*
X121011039Y-130272999D02*
X121942790Y-130272999D01*
X98534262Y-128946089D02*
X98854162Y-129265989D01*
X121942790Y-130272999D02*
X122380814Y-130711023D01*
X120004029Y-129265989D02*
X121011039Y-130272999D01*
X98854162Y-129265989D02*
X120004029Y-129265989D01*
D24*
X61934022Y-108218022D02*
X77047022Y-108218022D01*
X77047022Y-108218022D02*
X98478272Y-129649272D01*
X58324417Y-104608417D02*
X61934022Y-108218022D01*
X54440703Y-104608417D02*
X58324417Y-104608417D01*
D23*
X120744315Y-131100000D02*
X121310000Y-131100000D01*
X119364315Y-129720000D02*
X120744315Y-131100000D01*
X98547001Y-129720000D02*
X119364315Y-129720000D01*
X98476273Y-129649272D02*
X98547001Y-129720000D01*
D24*
X120860534Y-111059464D02*
X120050000Y-110248930D01*
X104118750Y-116652500D02*
X104118750Y-126177500D01*
X109139428Y-90685076D02*
X108450000Y-89995648D01*
D23*
X110155427Y-91701075D02*
X109139428Y-90685076D01*
X111305510Y-91701075D02*
X110155427Y-91701075D01*
X120070001Y-100465566D02*
X111305510Y-91701075D01*
X120070001Y-102219001D02*
X120070001Y-100465566D01*
X120470000Y-102619000D02*
X120070001Y-102219001D01*
D24*
X196756598Y-95946598D02*
X196248331Y-95946598D01*
X203723946Y-102913946D02*
X205718750Y-104908750D01*
X205718750Y-104908750D02*
X205718750Y-125941515D01*
X185050002Y-107173660D02*
X185050002Y-107490000D01*
X206512500Y-108715000D02*
X206512500Y-115858750D01*
D23*
X177971610Y-100411608D02*
X177971610Y-100095268D01*
X185050002Y-107490000D02*
X177971610Y-100411608D01*
D24*
X216657439Y-96897439D02*
X216585389Y-96897439D01*
X225372000Y-107361267D02*
X198643267Y-134090000D01*
X225372000Y-104397000D02*
X225372000Y-107361267D01*
X216585389Y-96897439D02*
X217872439Y-96897439D01*
X217872439Y-96897439D02*
X225372000Y-104397000D01*
D23*
X187245586Y-134088586D02*
X181238135Y-128081135D01*
X181238135Y-128081135D02*
X181238135Y-127808953D01*
X198641853Y-134088586D02*
X187245586Y-134088586D01*
D24*
X236627322Y-93587137D02*
X235611323Y-94603136D01*
X246177801Y-99706137D02*
X244612500Y-98140836D01*
X247379882Y-99706137D02*
X246177801Y-99706137D01*
X244612500Y-98140836D02*
X244612500Y-95221250D01*
X237149551Y-93064908D02*
X236627322Y-93587137D01*
X244612500Y-95221250D02*
X242231250Y-92840000D01*
X242231250Y-92840000D02*
X237706219Y-92840000D01*
X237706219Y-92840000D02*
X237149551Y-93064908D01*
X225822011Y-107547667D02*
X225558400Y-107811278D01*
X225558400Y-107811278D02*
X198804667Y-134565011D01*
X225822011Y-104392448D02*
X225822011Y-107547667D01*
X235611323Y-94603136D02*
X225822011Y-104392448D01*
D23*
X186911057Y-134563598D02*
X180641772Y-128294313D01*
X198803253Y-134563598D02*
X186911057Y-134563598D01*
X180641772Y-128294313D02*
X180241773Y-127894314D01*
D24*
X241008464Y-107921250D02*
X226084839Y-107921250D01*
X248331382Y-102061184D02*
X246868530Y-102061184D01*
X246868530Y-102061184D02*
X241008464Y-107921250D01*
X226084839Y-107921250D02*
X198991067Y-135015022D01*
D23*
X198977435Y-135022999D02*
X185925700Y-135022999D01*
X185925700Y-135022999D02*
X179162999Y-128260298D01*
X179162999Y-128260298D02*
X178763000Y-127860299D01*
X198985412Y-135015022D02*
X198977435Y-135022999D01*
X116936365Y-143501436D02*
X115734284Y-143501436D01*
X121078564Y-143501436D02*
X116936365Y-143501436D01*
X133680000Y-138220000D02*
X126360000Y-138220000D01*
X126360000Y-138220000D02*
X121078564Y-143501436D01*
D24*
X245149893Y-104416231D02*
X241194864Y-108371261D01*
X226271239Y-108371261D02*
X199177467Y-135465033D01*
X249282883Y-104416231D02*
X245149893Y-104416231D01*
X241194864Y-108371261D02*
X226271239Y-108371261D01*
D23*
X199177467Y-135465033D02*
X199171470Y-135471030D01*
X178054565Y-128229861D02*
X177654566Y-127829862D01*
X185355703Y-135530999D02*
X178054565Y-128229861D01*
X199298664Y-135346663D02*
X199114328Y-135530999D01*
X199114328Y-135530999D02*
X185355703Y-135530999D01*
D24*
X185765033Y-141274299D02*
X185749484Y-141258750D01*
D23*
X183647355Y-143391977D02*
X184915034Y-142124298D01*
X157178976Y-143391978D02*
X183647355Y-143391977D01*
X184915034Y-142124298D02*
X185765033Y-141274299D01*
X146640000Y-102500000D02*
X146640000Y-132853002D01*
X144092000Y-99952000D02*
X146640000Y-102500000D01*
X146640000Y-132853002D02*
X157178976Y-143391978D01*
X184160188Y-139322000D02*
X184236423Y-139245765D01*
X180544221Y-142937967D02*
X184160188Y-139322000D01*
X157367033Y-142937967D02*
X180544221Y-142937967D01*
X147120000Y-132690934D02*
X157367033Y-142937967D01*
X144092000Y-97412000D02*
X147120000Y-100440000D01*
X147120000Y-100440000D02*
X147120000Y-132690934D01*
D22*
X178890000Y-135512000D02*
X181002582Y-135512000D01*
X175133989Y-139268011D02*
X178890000Y-135512000D01*
X159860405Y-139268011D02*
X175133989Y-139268011D01*
X156845990Y-136253596D02*
X159860405Y-139268011D01*
X159332000Y-94872000D02*
X156845990Y-97358010D01*
X181002582Y-135512000D02*
X182707813Y-137217231D01*
X156845990Y-97358010D02*
X156845990Y-119785990D01*
X156845990Y-119785990D02*
X156845990Y-136253596D01*
D23*
X170196315Y-140591966D02*
X170762000Y-140591966D01*
X159332000Y-92332000D02*
X156030000Y-95634000D01*
X160093966Y-140591966D02*
X170196315Y-140591966D01*
X156030000Y-95634000D02*
X156030000Y-136528000D01*
X156030000Y-136528000D02*
X160093966Y-140591966D01*
D22*
X154900000Y-91684000D02*
X159332000Y-87252000D01*
X153250000Y-119920000D02*
X154900000Y-118270000D01*
X154900000Y-118270000D02*
X154900000Y-91684000D01*
M02*
