M48
; DRILL file {KiCad (5.1.4)-1} date 12/29/2023 3:47:16 PM
; FORMAT={-:-/ absolute / metric / decimal}
; #@! TF.CreationDate,2023-12-29T15:47:16-05:00
; #@! TF.GenerationSoftware,Kicad,Pcbnew,(5.1.4)-1
; #@! TF.FileFunction,NonPlated,1,2,NPTH
FMAT,2
METRIC
T1C1.702
T2C3.000
T3C3.429
%
G90
G05
T1
X117.971Y-103.529
X128.17Y-107.649
X79.357Y-100.331
X89.556Y-104.452
X112.806Y-66.929
X123.005Y-71.049
X99.694Y-99.38
X109.894Y-103.501
X186.803Y-87.252
X197.002Y-83.131
X131.082Y-71.077
X141.281Y-75.198
X193.359Y-103.477
X203.558Y-99.357
X106.25Y-83.154
X116.449Y-87.275
X124.527Y-87.303
X134.726Y-91.424
X232.722Y-102.134
X242.921Y-98.013
X168.527Y-91.4
X178.726Y-87.28
X175.082Y-107.626
X185.281Y-103.505
X213.696Y-104.428
X223.895Y-100.307
X60.331Y-98.037
X70.531Y-102.157
X161.971Y-75.175
X172.17Y-71.054
X180.248Y-71.026
X190.447Y-66.905
T2
X67.66Y-94.58
X71.472Y-98.493
X163.839Y-78.464
X169.299Y-78.631
X182.116Y-74.316
X187.576Y-74.482
X125.3Y-100.072
X129.111Y-103.985
X86.686Y-96.875
X90.498Y-100.787
X120.134Y-63.472
X123.946Y-67.385
X107.023Y-95.924
X110.835Y-99.837
X188.672Y-90.541
X194.132Y-90.708
X138.411Y-67.621
X142.223Y-71.534
X195.227Y-106.767
X200.687Y-106.934
X113.579Y-79.698
X117.39Y-83.611
X131.855Y-83.847
X135.667Y-87.759
X234.59Y-105.423
X240.05Y-105.59
X170.395Y-94.69
X175.855Y-94.857
X176.951Y-110.916
X182.411Y-111.082
X215.564Y-107.718
X221.024Y-107.885
T3
X218.796Y-102.368
X65.431Y-100.097
X167.071Y-73.114
X185.347Y-68.966
X123.071Y-105.589
X84.457Y-102.391
X117.905Y-68.989
X104.794Y-101.44
X191.903Y-85.191
X136.182Y-73.138
X198.459Y-101.417
X111.35Y-85.215
X129.626Y-89.363
X237.822Y-100.074
X173.626Y-89.34
X180.182Y-105.566
T0
M30
