%FSLAX45Y45*%
G04 Gerber Fmt 4.5, Leading zero omitted, Abs format (unit mm)*
G04 Created by KiCad (PCBNEW (5.1.4)-1) date 2023-12-29 15:47:18*
%MOMM*%
%LPD*%
G04 APERTURE LIST*
%ADD10C,0.050000*%
%ADD11C,0.200000*%
%ADD12C,0.300000*%
G04 APERTURE END LIST*
D10*
X14660000Y-6764000D02*
X14739400Y-7175800D01*
X15645876Y-6767825D02*
X15577600Y-7175800D01*
X15577600Y-7175800D02*
X15831600Y-7785400D01*
X14510800Y-7785400D02*
X14739400Y-7175800D01*
X15831600Y-8445800D02*
X15831600Y-7785400D01*
X14510800Y-8445800D02*
X14510800Y-7785400D01*
X15831600Y-8445800D02*
X14510800Y-8445800D01*
X18685877Y-14597825D02*
X19587407Y-14333763D01*
X18483889Y-5622853D02*
X15655978Y-6765403D01*
X11615876Y-14597825D02*
X18685877Y-14597825D01*
X15655978Y-6765403D02*
X15645876Y-6767825D01*
X11832089Y-5621450D02*
X11813546Y-5613958D01*
X11615876Y-14597825D02*
X10728571Y-14332360D01*
X18502433Y-5615361D02*
X18483889Y-5622853D01*
X11832089Y-5621450D02*
X14660000Y-6764000D01*
X22783704Y-9644991D02*
X24063218Y-9128034D01*
X20955286Y-9844453D02*
X22127283Y-9381720D01*
X20955286Y-9844453D02*
X20389990Y-9619862D01*
X24117703Y-10917959D02*
X24970712Y-10573321D01*
X19587407Y-14333763D02*
X24099159Y-10925451D01*
X18502433Y-5615361D02*
X18835373Y-5772049D01*
X25055565Y-10409614D02*
X24970712Y-10573321D01*
X24677212Y-9473158D02*
X24063218Y-9128034D01*
X10728571Y-14332360D02*
X6216819Y-10924047D01*
X24677212Y-9473158D02*
X25055565Y-10409614D01*
X6198275Y-10916555D02*
X6216819Y-10924047D01*
X5638766Y-9471754D02*
X5260413Y-10408210D01*
X8188695Y-9380317D02*
X7532274Y-9643587D01*
X22127283Y-9381720D02*
X22783704Y-9644991D01*
X5638766Y-9471754D02*
X6252760Y-9126630D01*
X7532274Y-9643587D02*
X6252760Y-9126630D01*
X18835373Y-5772049D02*
X20389990Y-9619862D01*
X24117703Y-10917959D02*
X24099159Y-10925451D01*
X9360693Y-9843049D02*
X9925989Y-9618459D01*
X11480606Y-5770646D02*
X9925989Y-9618459D01*
X9360693Y-9843049D02*
X8188695Y-9380317D01*
X5260413Y-10408210D02*
X5345266Y-10571917D01*
X11813546Y-5613958D02*
X11480606Y-5770646D01*
X6198275Y-10916555D02*
X5345266Y-10571917D01*
D11*
X6260000Y-9504000D02*
X6300000Y-9544000D01*
X6300000Y-9504000D02*
X6260000Y-9544000D01*
X7425000Y-10269000D02*
X7465000Y-10309000D01*
X7465000Y-10269000D02*
X7425000Y-10309000D01*
X9360000Y-10454625D02*
X9400000Y-10494625D01*
X9400000Y-10454625D02*
X9360000Y-10494625D01*
X10391875Y-11645250D02*
X10431875Y-11685250D01*
X10431875Y-11645250D02*
X10391875Y-11685250D01*
X10391875Y-12597750D02*
X10431875Y-12637750D01*
X10431875Y-12597750D02*
X10391875Y-12637750D01*
X10630000Y-11962750D02*
X10670000Y-12002750D01*
X10670000Y-11962750D02*
X10630000Y-12002750D01*
X10868125Y-11962750D02*
X10908125Y-12002750D01*
X10908125Y-11962750D02*
X10868125Y-12002750D01*
X10871300Y-12604100D02*
X10911300Y-12644100D01*
X10911300Y-12604100D02*
X10871300Y-12644100D01*
X11106250Y-11962750D02*
X11146250Y-12002750D01*
X11146250Y-11962750D02*
X11106250Y-12002750D01*
X11344375Y-11962750D02*
X11384375Y-12002750D01*
X11384375Y-11962750D02*
X11344375Y-12002750D01*
X11582500Y-11962750D02*
X11622500Y-12002750D01*
X11622500Y-11962750D02*
X11582500Y-12002750D01*
X11820625Y-11962750D02*
X11860625Y-12002750D01*
X11860625Y-11962750D02*
X11820625Y-12002750D01*
X12027000Y-10241900D02*
X12067000Y-10281900D01*
X12067000Y-10241900D02*
X12027000Y-10281900D01*
X12058750Y-11962750D02*
X12098750Y-12002750D01*
X12098750Y-11962750D02*
X12058750Y-12002750D01*
X12096000Y-12913000D02*
X12136000Y-12953000D01*
X12136000Y-12913000D02*
X12096000Y-12953000D01*
X12111000Y-13090000D02*
X12151000Y-13130000D01*
X12151000Y-13090000D02*
X12111000Y-13130000D01*
X12222745Y-12945701D02*
X12262745Y-12985701D01*
X12262745Y-12945701D02*
X12222745Y-12985701D01*
X12258081Y-13091102D02*
X12298081Y-13131102D01*
X12298081Y-13091102D02*
X12258081Y-13131102D01*
X12268300Y-12616800D02*
X12308300Y-12656800D01*
X12308300Y-12616800D02*
X12268300Y-12656800D01*
X12296875Y-11962750D02*
X12336875Y-12002750D01*
X12336875Y-11962750D02*
X12296875Y-12002750D01*
X13348000Y-13802000D02*
X13388000Y-13842000D01*
X13388000Y-13802000D02*
X13348000Y-13842000D01*
X13646050Y-12614300D02*
X13686050Y-12654300D01*
X13686050Y-12614300D02*
X13646050Y-12654300D01*
X13646050Y-12852425D02*
X13686050Y-12892425D01*
X13686050Y-12852425D02*
X13646050Y-12892425D01*
X13646050Y-13090550D02*
X13686050Y-13130550D01*
X13686050Y-13090550D02*
X13646050Y-13130550D01*
X13646050Y-13328675D02*
X13686050Y-13368675D01*
X13686050Y-13328675D02*
X13646050Y-13368675D01*
X13646050Y-13566800D02*
X13686050Y-13606800D01*
X13686050Y-13566800D02*
X13646050Y-13606800D01*
X13646250Y-12359625D02*
X13686250Y-12399625D01*
X13686250Y-12359625D02*
X13646250Y-12399625D01*
X14440000Y-12359625D02*
X14480000Y-12399625D01*
X14480000Y-12359625D02*
X14440000Y-12399625D01*
X14477275Y-12618775D02*
X14517275Y-12658775D01*
X14517275Y-12618775D02*
X14477275Y-12658775D01*
X14477275Y-12856900D02*
X14517275Y-12896900D01*
X14517275Y-12856900D02*
X14477275Y-12896900D01*
X14477275Y-13095025D02*
X14517275Y-13135025D01*
X14517275Y-13095025D02*
X14477275Y-13135025D01*
X14477275Y-13333150D02*
X14517275Y-13373150D01*
X14517275Y-13333150D02*
X14477275Y-13373150D01*
X14477275Y-13571275D02*
X14517275Y-13611275D01*
X14517275Y-13571275D02*
X14477275Y-13611275D01*
X14768000Y-12216000D02*
X14808000Y-12256000D01*
X14808000Y-12216000D02*
X14768000Y-12256000D01*
X14866000Y-13960000D02*
X14906000Y-14000000D01*
X14906000Y-13960000D02*
X14866000Y-14000000D01*
X14994000Y-13879000D02*
X15034000Y-13919000D01*
X15034000Y-13879000D02*
X14994000Y-13919000D01*
X15392500Y-12223100D02*
X15432500Y-12263100D01*
X15432500Y-12223100D02*
X15392500Y-12263100D01*
X15864250Y-12616775D02*
X15904250Y-12656775D01*
X15904250Y-12616775D02*
X15864250Y-12656775D01*
X15864250Y-12854900D02*
X15904250Y-12894900D01*
X15904250Y-12854900D02*
X15864250Y-12894900D01*
X15864250Y-13093025D02*
X15904250Y-13133025D01*
X15904250Y-13093025D02*
X15864250Y-13133025D01*
X15864250Y-13331150D02*
X15904250Y-13371150D01*
X15904250Y-13331150D02*
X15864250Y-13371150D01*
X15864250Y-13569275D02*
X15904250Y-13609275D01*
X15904250Y-13569275D02*
X15864250Y-13609275D01*
X15868750Y-12359625D02*
X15908750Y-12399625D01*
X15908750Y-12359625D02*
X15868750Y-12399625D01*
X16675200Y-12391375D02*
X16715200Y-12431375D01*
X16715200Y-12391375D02*
X16675200Y-12431375D01*
X16681797Y-13319696D02*
X16721797Y-13359696D01*
X16721797Y-13319696D02*
X16681797Y-13359696D01*
X16693375Y-12616900D02*
X16733375Y-12656900D01*
X16733375Y-12616900D02*
X16693375Y-12656900D01*
X16693375Y-12855025D02*
X16733375Y-12895025D01*
X16733375Y-12855025D02*
X16693375Y-12895025D01*
X16693375Y-13093150D02*
X16733375Y-13133150D01*
X16733375Y-13093150D02*
X16693375Y-13133150D01*
X16693375Y-13569400D02*
X16733375Y-13609400D01*
X16733375Y-13569400D02*
X16693375Y-13609400D01*
X17056200Y-14039197D02*
X17096200Y-14079197D01*
X17096200Y-14039197D02*
X17056200Y-14079197D01*
X17745457Y-12762986D02*
X17785457Y-12802986D01*
X17785457Y-12762986D02*
X17745457Y-12802986D01*
X17856300Y-12766030D02*
X17896300Y-12806030D01*
X17896300Y-12766030D02*
X17856300Y-12806030D01*
X18004177Y-12769431D02*
X18044177Y-12809431D01*
X18044177Y-12769431D02*
X18004177Y-12809431D01*
X18103814Y-12760895D02*
X18143814Y-12800895D01*
X18143814Y-12760895D02*
X18103814Y-12800895D01*
X18250000Y-11883375D02*
X18290000Y-11923375D01*
X18290000Y-11883375D02*
X18250000Y-11923375D01*
X18485000Y-10729000D02*
X18525000Y-10769000D01*
X18525000Y-10729000D02*
X18485000Y-10769000D01*
X18488125Y-11883375D02*
X18528125Y-11923375D01*
X18528125Y-11883375D02*
X18488125Y-11923375D01*
X18726250Y-11883375D02*
X18766250Y-11923375D01*
X18766250Y-11883375D02*
X18726250Y-11923375D01*
X18964375Y-11883375D02*
X19004375Y-11923375D01*
X19004375Y-11883375D02*
X18964375Y-11923375D01*
X18964375Y-11883375D02*
X19004375Y-11923375D01*
X19004375Y-11883375D02*
X18964375Y-11923375D01*
X19198310Y-11879185D02*
X19238310Y-11919185D01*
X19238310Y-11879185D02*
X19198310Y-11919185D01*
X19440625Y-11883375D02*
X19480625Y-11923375D01*
X19480625Y-11883375D02*
X19440625Y-11923375D01*
X20352395Y-10271395D02*
X20392395Y-10311395D01*
X20392395Y-10271395D02*
X20352395Y-10311395D01*
X20551875Y-12574151D02*
X20591875Y-12614151D01*
X20591875Y-12574151D02*
X20551875Y-12614151D01*
X20631250Y-10851500D02*
X20671250Y-10891500D01*
X20671250Y-10851500D02*
X20631250Y-10891500D01*
X20631250Y-11565875D02*
X20671250Y-11605875D01*
X20671250Y-11565875D02*
X20631250Y-11605875D01*
X12896500Y-14279000D02*
G75*
G03X12896500Y-14279000I-37500J0D01*
G01*
X13059000Y-14239000D02*
X13059000Y-14319000D01*
X13019000Y-14279000D02*
X13099000Y-14279000D01*
X13259000Y-14239000D02*
X13259000Y-14319000D01*
X13219000Y-14279000D02*
X13299000Y-14279000D01*
X8716057Y-12655924D02*
X8716057Y-12585212D01*
X8645346Y-12585212D01*
X8645346Y-12655924D01*
X8716057Y-12655924D01*
X8918911Y-12808785D02*
X8918911Y-12738073D01*
X8848199Y-12738073D01*
X8848199Y-12808785D01*
X8918911Y-12808785D01*
X9121764Y-12961646D02*
X9121764Y-12890934D01*
X9051053Y-12890934D01*
X9051053Y-12961646D01*
X9121764Y-12961646D01*
X9324618Y-13114507D02*
X9324618Y-13043795D01*
X9253906Y-13043795D01*
X9253906Y-13114507D01*
X9324618Y-13114507D01*
X10503242Y-9167730D02*
X10503242Y-9097019D01*
X10432531Y-9097019D01*
X10432531Y-9167730D01*
X10503242Y-9167730D01*
X10738747Y-9262881D02*
X10738747Y-9192169D01*
X10668036Y-9192169D01*
X10668036Y-9262881D01*
X10738747Y-9262881D01*
X10974252Y-9358031D02*
X10974252Y-9287319D01*
X10903540Y-9287319D01*
X10903540Y-9358031D01*
X10974252Y-9358031D01*
X11209756Y-9453181D02*
X11209756Y-9382469D01*
X11139045Y-9382469D01*
X11139045Y-9453181D01*
X11209756Y-9453181D01*
X15106356Y-12027356D02*
X15106356Y-11956644D01*
X15035644Y-11956644D01*
X15035644Y-12027356D01*
X15106356Y-12027356D01*
X15360356Y-12027356D02*
X15360356Y-11956644D01*
X15289644Y-11956644D01*
X15289644Y-12027356D01*
X15360356Y-12027356D01*
X11184718Y-7567730D02*
X11184718Y-7497019D01*
X11114007Y-7497019D01*
X11114007Y-7567730D01*
X11184718Y-7567730D01*
X11420223Y-7662880D02*
X11420223Y-7592169D01*
X11349511Y-7592169D01*
X11349511Y-7662880D01*
X11420223Y-7662880D01*
X11655727Y-7758030D02*
X11655727Y-7687319D01*
X11585016Y-7687319D01*
X11585016Y-7758030D01*
X11655727Y-7758030D01*
X11891232Y-7853181D02*
X11891232Y-7782469D01*
X11820521Y-7782469D01*
X11820521Y-7853181D01*
X11891232Y-7853181D01*
X19235356Y-9589356D02*
X19235356Y-9518644D01*
X19164644Y-9518644D01*
X19164644Y-9589356D01*
X19235356Y-9589356D01*
X19470860Y-9494206D02*
X19470860Y-9423494D01*
X19400149Y-9423494D01*
X19400149Y-9494206D01*
X19470860Y-9494206D01*
X19706365Y-9399056D02*
X19706365Y-9328344D01*
X19635654Y-9328344D01*
X19635654Y-9399056D01*
X19706365Y-9399056D01*
X19941870Y-9303906D02*
X19941870Y-9233194D01*
X19871158Y-9233194D01*
X19871158Y-9303906D01*
X19941870Y-9303906D01*
X18306137Y-13757079D02*
X18306137Y-13686367D01*
X18235426Y-13686367D01*
X18235426Y-13757079D01*
X18306137Y-13757079D01*
X18458998Y-13959932D02*
X18458998Y-13889221D01*
X18388287Y-13889221D01*
X18388287Y-13959932D01*
X18458998Y-13959932D01*
X18611859Y-14162786D02*
X18611859Y-14092074D01*
X18541148Y-14092074D01*
X18541148Y-14162786D01*
X18611859Y-14162786D01*
X18764720Y-14365639D02*
X18764720Y-14294928D01*
X18694009Y-14294928D01*
X18694009Y-14365639D01*
X18764720Y-14365639D01*
X21076870Y-13099146D02*
X21076870Y-13028435D01*
X21006158Y-13028435D01*
X21006158Y-13099146D01*
X21076870Y-13099146D01*
X21279723Y-12946285D02*
X21279723Y-12875574D01*
X21209012Y-12875574D01*
X21209012Y-12946285D01*
X21279723Y-12946285D01*
X21482577Y-12793424D02*
X21482577Y-12722713D01*
X21411865Y-12722713D01*
X21411865Y-12793424D01*
X21482577Y-12793424D01*
X21685430Y-12640563D02*
X21685430Y-12569852D01*
X21614719Y-12569852D01*
X21614719Y-12640563D01*
X21685430Y-12640563D01*
X19697046Y-14141972D02*
X19697046Y-14071261D01*
X19626334Y-14071261D01*
X19626334Y-14141972D01*
X19697046Y-14141972D01*
X19899899Y-13989111D02*
X19899899Y-13918400D01*
X19829188Y-13918400D01*
X19829188Y-13989111D01*
X19899899Y-13989111D01*
X20102753Y-13836250D02*
X20102753Y-13765539D01*
X20032041Y-13765539D01*
X20032041Y-13836250D01*
X20102753Y-13836250D01*
X20305606Y-13683389D02*
X20305606Y-13612678D01*
X20234895Y-13612678D01*
X20234895Y-13683389D01*
X20305606Y-13683389D01*
X12694356Y-14314356D02*
X12694356Y-14243644D01*
X12623644Y-14243644D01*
X12623644Y-14314356D01*
X12694356Y-14314356D01*
X13494356Y-14314356D02*
X13494356Y-14243644D01*
X13423644Y-14243644D01*
X13423644Y-14314356D01*
X13494356Y-14314356D01*
X24678194Y-9770465D02*
X24678194Y-9699753D01*
X24607482Y-9699753D01*
X24607482Y-9770465D01*
X24678194Y-9770465D01*
X24773344Y-10005969D02*
X24773344Y-9935258D01*
X24702632Y-9935258D01*
X24702632Y-10005969D01*
X24773344Y-10005969D01*
X24868494Y-10241474D02*
X24868494Y-10170763D01*
X24797782Y-10170763D01*
X24797782Y-10241474D01*
X24868494Y-10241474D01*
X24963644Y-10476979D02*
X24963644Y-10406267D01*
X24892933Y-10406267D01*
X24892933Y-10476979D01*
X24963644Y-10476979D01*
X17824790Y-6208421D02*
X17824790Y-6137709D01*
X17754079Y-6137709D01*
X17754079Y-6208421D01*
X17824790Y-6208421D01*
X18060295Y-6113270D02*
X18060295Y-6042559D01*
X17989584Y-6042559D01*
X17989584Y-6113270D01*
X18060295Y-6113270D01*
X18295800Y-6018120D02*
X18295800Y-5947409D01*
X18225088Y-5947409D01*
X18225088Y-6018120D01*
X18295800Y-6018120D01*
X18531304Y-5922970D02*
X18531304Y-5852259D01*
X18460593Y-5852259D01*
X18460593Y-5922970D01*
X18531304Y-5922970D01*
X10099627Y-13689478D02*
X10099627Y-13618766D01*
X10028916Y-13618766D01*
X10028916Y-13689478D01*
X10099627Y-13689478D01*
X10302481Y-13842339D02*
X10302481Y-13771627D01*
X10231769Y-13771627D01*
X10231769Y-13842339D01*
X10302481Y-13842339D01*
X10505334Y-13995200D02*
X10505334Y-13924488D01*
X10434623Y-13924488D01*
X10434623Y-13995200D01*
X10505334Y-13995200D01*
X10708188Y-14148061D02*
X10708188Y-14077349D01*
X10637476Y-14077349D01*
X10637476Y-14148061D01*
X10708188Y-14148061D01*
X11608784Y-14385499D02*
X11608784Y-14314788D01*
X11538073Y-14314788D01*
X11538073Y-14385499D01*
X11608784Y-14385499D01*
X11761645Y-14182646D02*
X11761645Y-14111934D01*
X11690934Y-14111934D01*
X11690934Y-14182646D01*
X11761645Y-14182646D01*
X11914506Y-13979792D02*
X11914506Y-13909081D01*
X11843795Y-13909081D01*
X11843795Y-13979792D01*
X11914506Y-13979792D01*
X12067367Y-13776939D02*
X12067367Y-13706228D01*
X11996656Y-13706228D01*
X11996656Y-13776939D01*
X12067367Y-13776939D01*
X5479426Y-10496197D02*
X5479426Y-10425486D01*
X5408715Y-10425486D01*
X5408715Y-10496197D01*
X5479426Y-10496197D01*
X5574576Y-10260693D02*
X5574576Y-10189981D01*
X5503865Y-10189981D01*
X5503865Y-10260693D01*
X5574576Y-10260693D01*
X5669726Y-10025188D02*
X5669726Y-9954477D01*
X5599015Y-9954477D01*
X5599015Y-10025188D01*
X5669726Y-10025188D01*
X5764876Y-9789683D02*
X5764876Y-9718972D01*
X5694165Y-9718972D01*
X5694165Y-9789683D01*
X5764876Y-9789683D01*
X11838621Y-5936365D02*
X11838621Y-5865653D01*
X11767910Y-5865653D01*
X11767910Y-5936365D01*
X11838621Y-5936365D01*
X12074126Y-6031515D02*
X12074126Y-5960803D01*
X12003415Y-5960803D01*
X12003415Y-6031515D01*
X12074126Y-6031515D01*
X12309631Y-6126665D02*
X12309631Y-6055953D01*
X12238919Y-6055953D01*
X12238919Y-6126665D01*
X12309631Y-6126665D01*
X12545136Y-6221815D02*
X12545136Y-6151103D01*
X12474424Y-6151103D01*
X12474424Y-6221815D01*
X12545136Y-6221815D01*
X18585356Y-7939356D02*
X18585356Y-7868644D01*
X18514644Y-7868644D01*
X18514644Y-7939356D01*
X18585356Y-7939356D01*
X18820860Y-7844206D02*
X18820860Y-7773494D01*
X18750149Y-7773494D01*
X18750149Y-7844206D01*
X18820860Y-7844206D01*
X19056365Y-7749056D02*
X19056365Y-7678344D01*
X18985654Y-7678344D01*
X18985654Y-7749056D01*
X19056365Y-7749056D01*
X19291870Y-7653905D02*
X19291870Y-7583194D01*
X19221158Y-7583194D01*
X19221158Y-7653905D01*
X19291870Y-7653905D01*
X15191232Y-8803181D02*
X15191232Y-8732469D01*
X15120521Y-8732469D01*
X15120521Y-8803181D01*
X15191232Y-8803181D01*
X15191232Y-9057181D02*
X15191232Y-8986469D01*
X15120521Y-8986469D01*
X15120521Y-9057181D01*
X15191232Y-9057181D01*
X15191232Y-9311181D02*
X15191232Y-9240469D01*
X15120521Y-9240469D01*
X15120521Y-9311181D01*
X15191232Y-9311181D01*
X15191232Y-9565181D02*
X15191232Y-9494469D01*
X15120521Y-9494469D01*
X15120521Y-9565181D01*
X15191232Y-9565181D01*
X11701129Y-10787435D02*
X11764629Y-10723935D01*
X11701129Y-10660435D01*
X11637629Y-10723935D01*
X11701129Y-10787435D01*
X12086053Y-11169446D02*
X12149553Y-11105946D01*
X12086053Y-11042446D01*
X12022553Y-11105946D01*
X12086053Y-11169446D01*
X7839751Y-10467652D02*
X7903251Y-10404152D01*
X7839751Y-10340652D01*
X7776251Y-10404152D01*
X7839751Y-10467652D01*
X8224675Y-10849664D02*
X8288175Y-10786164D01*
X8224675Y-10722664D01*
X8161175Y-10786164D01*
X8224675Y-10849664D01*
X11184580Y-7127424D02*
X11248080Y-7063924D01*
X11184580Y-7000424D01*
X11121080Y-7063924D01*
X11184580Y-7127424D01*
X11569504Y-7509436D02*
X11633004Y-7445936D01*
X11569504Y-7382436D01*
X11506004Y-7445936D01*
X11569504Y-7509436D01*
X9873457Y-10372568D02*
X9936957Y-10309068D01*
X9873457Y-10245568D01*
X9809957Y-10309068D01*
X9873457Y-10372568D01*
X10258381Y-10754579D02*
X10321881Y-10691079D01*
X10258381Y-10627579D01*
X10194881Y-10691079D01*
X10258381Y-10754579D01*
X18969272Y-8035588D02*
X19032772Y-7972088D01*
X18969272Y-7908588D01*
X18905772Y-7972088D01*
X18969272Y-8035588D01*
X19511531Y-8042993D02*
X19575031Y-7979493D01*
X19511531Y-7915993D01*
X19448031Y-7979493D01*
X19511531Y-8042993D01*
X13012252Y-7542291D02*
X13075752Y-7478791D01*
X13012252Y-7415291D01*
X12948752Y-7478791D01*
X13012252Y-7542291D01*
X13397176Y-7924303D02*
X13460676Y-7860803D01*
X13397176Y-7797303D01*
X13333676Y-7860803D01*
X13397176Y-7924303D01*
X19624833Y-9658160D02*
X19688333Y-9594660D01*
X19624833Y-9531160D01*
X19561333Y-9594660D01*
X19624833Y-9658160D01*
X20167092Y-9665565D02*
X20230592Y-9602065D01*
X20167092Y-9538565D01*
X20103592Y-9602065D01*
X20167092Y-9665565D01*
X10529018Y-8749996D02*
X10592518Y-8686496D01*
X10529018Y-8622996D01*
X10465518Y-8686496D01*
X10529018Y-8749996D01*
X10913943Y-9132008D02*
X10977443Y-9068508D01*
X10913943Y-9005008D01*
X10850443Y-9068508D01*
X10913943Y-9132008D01*
X12356690Y-9164863D02*
X12420190Y-9101363D01*
X12356690Y-9037863D01*
X12293190Y-9101363D01*
X12356690Y-9164863D01*
X12741615Y-9546875D02*
X12805115Y-9483375D01*
X12741615Y-9419875D01*
X12678115Y-9483375D01*
X12741615Y-9546875D01*
X23561132Y-9523814D02*
X23624632Y-9460314D01*
X23561132Y-9396814D01*
X23497632Y-9460314D01*
X23561132Y-9523814D01*
X24103392Y-9531219D02*
X24166892Y-9467719D01*
X24103392Y-9404219D01*
X24039892Y-9467719D01*
X24103392Y-9531219D01*
X17141600Y-8450455D02*
X17205100Y-8386955D01*
X17141600Y-8323455D01*
X17078100Y-8386955D01*
X17141600Y-8450455D01*
X17683859Y-8457860D02*
X17747359Y-8394360D01*
X17683859Y-8330860D01*
X17620359Y-8394360D01*
X17683859Y-8457860D01*
X17797161Y-10073027D02*
X17860661Y-10009527D01*
X17797161Y-9946027D01*
X17733661Y-10009527D01*
X17797161Y-10073027D01*
X18339420Y-10080432D02*
X18402920Y-10016932D01*
X18339420Y-9953432D01*
X18275920Y-10016932D01*
X18339420Y-10080432D01*
X21658539Y-9753244D02*
X21722039Y-9689744D01*
X21658539Y-9626244D01*
X21595039Y-9689744D01*
X21658539Y-9753244D01*
X22200798Y-9760649D02*
X22264298Y-9697149D01*
X22200798Y-9633649D01*
X22137298Y-9697149D01*
X22200798Y-9760649D01*
X5937158Y-10238221D02*
X6000658Y-10174721D01*
X5937158Y-10111221D01*
X5873658Y-10174721D01*
X5937158Y-10238221D01*
X6322082Y-10620233D02*
X6385582Y-10556733D01*
X6322082Y-10493233D01*
X6258582Y-10556733D01*
X6322082Y-10620233D01*
X16486038Y-6827883D02*
X16549538Y-6764383D01*
X16486038Y-6700883D01*
X16422538Y-6764383D01*
X16486038Y-6827883D01*
X17028297Y-6835289D02*
X17091797Y-6771789D01*
X17028297Y-6708289D01*
X16964797Y-6771789D01*
X17028297Y-6835289D01*
X18313710Y-6413016D02*
X18377210Y-6349516D01*
X18313710Y-6286016D01*
X18250210Y-6349516D01*
X18313710Y-6413016D01*
X18855969Y-6420422D02*
X18919469Y-6356922D01*
X18855969Y-6293422D01*
X18792469Y-6356922D01*
X18855969Y-6420422D01*
X14344200Y-8660200D02*
X14474200Y-8790200D01*
X14474200Y-8660200D02*
X14344200Y-8790200D01*
X14474200Y-8725200D02*
G75*
G03X14474200Y-8725200I-65000J0D01*
G01*
X14344200Y-8914200D02*
X14474200Y-9044200D01*
X14474200Y-8914200D02*
X14344200Y-9044200D01*
X14474200Y-8979200D02*
G75*
G03X14474200Y-8979200I-65000J0D01*
G01*
X14344200Y-9168200D02*
X14474200Y-9298200D01*
X14474200Y-9168200D02*
X14344200Y-9298200D01*
X14474200Y-9233200D02*
G75*
G03X14474200Y-9233200I-65000J0D01*
G01*
X14344200Y-9422200D02*
X14474200Y-9552200D01*
X14474200Y-9422200D02*
X14344200Y-9552200D01*
X14474200Y-9487200D02*
G75*
G03X14474200Y-9487200I-65000J0D01*
G01*
X14344200Y-9676200D02*
X14474200Y-9806200D01*
X14474200Y-9676200D02*
X14344200Y-9806200D01*
X14474200Y-9741200D02*
G75*
G03X14474200Y-9741200I-65000J0D01*
G01*
X14344200Y-9930200D02*
X14474200Y-10060200D01*
X14474200Y-9930200D02*
X14344200Y-10060200D01*
X14474200Y-9995200D02*
G75*
G03X14474200Y-9995200I-65000J0D01*
G01*
X14344200Y-10184200D02*
X14474200Y-10314200D01*
X14474200Y-10184200D02*
X14344200Y-10314200D01*
X14474200Y-10249200D02*
G75*
G03X14474200Y-10249200I-65000J0D01*
G01*
X14344200Y-10438200D02*
X14474200Y-10568200D01*
X14474200Y-10438200D02*
X14344200Y-10568200D01*
X14474200Y-10503200D02*
G75*
G03X14474200Y-10503200I-65000J0D01*
G01*
X14344200Y-10692200D02*
X14474200Y-10822200D01*
X14474200Y-10692200D02*
X14344200Y-10822200D01*
X14474200Y-10757200D02*
G75*
G03X14474200Y-10757200I-65000J0D01*
G01*
X14344200Y-10946200D02*
X14474200Y-11076200D01*
X14474200Y-10946200D02*
X14344200Y-11076200D01*
X14474200Y-11011200D02*
G75*
G03X14474200Y-11011200I-65000J0D01*
G01*
X14344200Y-11200200D02*
X14474200Y-11330200D01*
X14474200Y-11200200D02*
X14344200Y-11330200D01*
X14474200Y-11265200D02*
G75*
G03X14474200Y-11265200I-65000J0D01*
G01*
X14344200Y-11454200D02*
X14474200Y-11584200D01*
X14474200Y-11454200D02*
X14344200Y-11584200D01*
X14474200Y-11519200D02*
G75*
G03X14474200Y-11519200I-65000J0D01*
G01*
X15868200Y-8660200D02*
X15998200Y-8790200D01*
X15998200Y-8660200D02*
X15868200Y-8790200D01*
X15998200Y-8725200D02*
G75*
G03X15998200Y-8725200I-65000J0D01*
G01*
X15868200Y-8914200D02*
X15998200Y-9044200D01*
X15998200Y-8914200D02*
X15868200Y-9044200D01*
X15998200Y-8979200D02*
G75*
G03X15998200Y-8979200I-65000J0D01*
G01*
X15868200Y-9168200D02*
X15998200Y-9298200D01*
X15998200Y-9168200D02*
X15868200Y-9298200D01*
X15998200Y-9233200D02*
G75*
G03X15998200Y-9233200I-65000J0D01*
G01*
X15868200Y-9422200D02*
X15998200Y-9552200D01*
X15998200Y-9422200D02*
X15868200Y-9552200D01*
X15998200Y-9487200D02*
G75*
G03X15998200Y-9487200I-65000J0D01*
G01*
X15868200Y-9676200D02*
X15998200Y-9806200D01*
X15998200Y-9676200D02*
X15868200Y-9806200D01*
X15998200Y-9741200D02*
G75*
G03X15998200Y-9741200I-65000J0D01*
G01*
X15868200Y-9930200D02*
X15998200Y-10060200D01*
X15998200Y-9930200D02*
X15868200Y-10060200D01*
X15998200Y-9995200D02*
G75*
G03X15998200Y-9995200I-65000J0D01*
G01*
X15868200Y-10184200D02*
X15998200Y-10314200D01*
X15998200Y-10184200D02*
X15868200Y-10314200D01*
X15998200Y-10249200D02*
G75*
G03X15998200Y-10249200I-65000J0D01*
G01*
X15868200Y-10438200D02*
X15998200Y-10568200D01*
X15998200Y-10438200D02*
X15868200Y-10568200D01*
X15998200Y-10503200D02*
G75*
G03X15998200Y-10503200I-65000J0D01*
G01*
X15868200Y-10692200D02*
X15998200Y-10822200D01*
X15998200Y-10692200D02*
X15868200Y-10822200D01*
X15998200Y-10757200D02*
G75*
G03X15998200Y-10757200I-65000J0D01*
G01*
X15868200Y-10946200D02*
X15998200Y-11076200D01*
X15998200Y-10946200D02*
X15868200Y-11076200D01*
X15998200Y-11011200D02*
G75*
G03X15998200Y-11011200I-65000J0D01*
G01*
X15868200Y-11200200D02*
X15998200Y-11330200D01*
X15998200Y-11200200D02*
X15868200Y-11330200D01*
X15998200Y-11265200D02*
G75*
G03X15998200Y-11265200I-65000J0D01*
G01*
X15868200Y-11454200D02*
X15998200Y-11584200D01*
X15998200Y-11454200D02*
X15868200Y-11584200D01*
X15998200Y-11519200D02*
G75*
G03X15998200Y-11519200I-65000J0D01*
G01*
D12*
X5544342Y-15066039D02*
X5544342Y-14766039D01*
X5615770Y-14766039D01*
X5658627Y-14780325D01*
X5687199Y-14808896D01*
X5701484Y-14837468D01*
X5715770Y-14894611D01*
X5715770Y-14937468D01*
X5701484Y-14994611D01*
X5687199Y-15023182D01*
X5658627Y-15051753D01*
X5615770Y-15066039D01*
X5544342Y-15066039D01*
X5844342Y-15066039D02*
X5844342Y-14866039D01*
X5844342Y-14923182D02*
X5858627Y-14894611D01*
X5872913Y-14880325D01*
X5901484Y-14866039D01*
X5930056Y-14866039D01*
X6030056Y-15066039D02*
X6030056Y-14866039D01*
X6030056Y-14766039D02*
X6015770Y-14780325D01*
X6030056Y-14794611D01*
X6044342Y-14780325D01*
X6030056Y-14766039D01*
X6030056Y-14794611D01*
X6215770Y-15066039D02*
X6187199Y-15051753D01*
X6172913Y-15023182D01*
X6172913Y-14766039D01*
X6372913Y-15066039D02*
X6344342Y-15051753D01*
X6330056Y-15023182D01*
X6330056Y-14766039D01*
X6715770Y-15066039D02*
X6715770Y-14766039D01*
X6815770Y-14980325D01*
X6915770Y-14766039D01*
X6915770Y-15066039D01*
X7187199Y-15066039D02*
X7187199Y-14908896D01*
X7172913Y-14880325D01*
X7144342Y-14866039D01*
X7087199Y-14866039D01*
X7058627Y-14880325D01*
X7187199Y-15051753D02*
X7158627Y-15066039D01*
X7087199Y-15066039D01*
X7058627Y-15051753D01*
X7044342Y-15023182D01*
X7044342Y-14994611D01*
X7058627Y-14966039D01*
X7087199Y-14951753D01*
X7158627Y-14951753D01*
X7187199Y-14937468D01*
X7330056Y-14866039D02*
X7330056Y-15166039D01*
X7330056Y-14880325D02*
X7358627Y-14866039D01*
X7415770Y-14866039D01*
X7444342Y-14880325D01*
X7458627Y-14894611D01*
X7472913Y-14923182D01*
X7472913Y-15008896D01*
X7458627Y-15037468D01*
X7444342Y-15051753D01*
X7415770Y-15066039D01*
X7358627Y-15066039D01*
X7330056Y-15051753D01*
X7601484Y-15037468D02*
X7615770Y-15051753D01*
X7601484Y-15066039D01*
X7587199Y-15051753D01*
X7601484Y-15037468D01*
X7601484Y-15066039D01*
X7601484Y-14880325D02*
X7615770Y-14894611D01*
X7601484Y-14908896D01*
X7587199Y-14894611D01*
X7601484Y-14880325D01*
X7601484Y-14908896D01*
X5217913Y-15540325D02*
X5257913Y-15580325D01*
X5257913Y-15540325D02*
X5217913Y-15580325D01*
X5601484Y-15396039D02*
X5630056Y-15396039D01*
X5658627Y-15410325D01*
X5672913Y-15424611D01*
X5687199Y-15453182D01*
X5701484Y-15510325D01*
X5701484Y-15581753D01*
X5687199Y-15638896D01*
X5672913Y-15667468D01*
X5658627Y-15681753D01*
X5630056Y-15696039D01*
X5601484Y-15696039D01*
X5572913Y-15681753D01*
X5558627Y-15667468D01*
X5544342Y-15638896D01*
X5530056Y-15581753D01*
X5530056Y-15510325D01*
X5544342Y-15453182D01*
X5558627Y-15424611D01*
X5572913Y-15410325D01*
X5601484Y-15396039D01*
X5830056Y-15667468D02*
X5844342Y-15681753D01*
X5830056Y-15696039D01*
X5815770Y-15681753D01*
X5830056Y-15667468D01*
X5830056Y-15696039D01*
X6101484Y-15496039D02*
X6101484Y-15696039D01*
X6030056Y-15381753D02*
X5958627Y-15596039D01*
X6144342Y-15596039D01*
X6315770Y-15396039D02*
X6344342Y-15396039D01*
X6372913Y-15410325D01*
X6387199Y-15424611D01*
X6401484Y-15453182D01*
X6415770Y-15510325D01*
X6415770Y-15581753D01*
X6401484Y-15638896D01*
X6387199Y-15667468D01*
X6372913Y-15681753D01*
X6344342Y-15696039D01*
X6315770Y-15696039D01*
X6287199Y-15681753D01*
X6272913Y-15667468D01*
X6258627Y-15638896D01*
X6244342Y-15581753D01*
X6244342Y-15510325D01*
X6258627Y-15453182D01*
X6272913Y-15424611D01*
X6287199Y-15410325D01*
X6315770Y-15396039D01*
X6544342Y-15696039D02*
X6544342Y-15496039D01*
X6544342Y-15524611D02*
X6558627Y-15510325D01*
X6587199Y-15496039D01*
X6630056Y-15496039D01*
X6658627Y-15510325D01*
X6672913Y-15538896D01*
X6672913Y-15696039D01*
X6672913Y-15538896D02*
X6687199Y-15510325D01*
X6715770Y-15496039D01*
X6758627Y-15496039D01*
X6787199Y-15510325D01*
X6801484Y-15538896D01*
X6801484Y-15696039D01*
X6944342Y-15696039D02*
X6944342Y-15496039D01*
X6944342Y-15524611D02*
X6958627Y-15510325D01*
X6987199Y-15496039D01*
X7030056Y-15496039D01*
X7058627Y-15510325D01*
X7072913Y-15538896D01*
X7072913Y-15696039D01*
X7072913Y-15538896D02*
X7087199Y-15510325D01*
X7115770Y-15496039D01*
X7158627Y-15496039D01*
X7187199Y-15510325D01*
X7201484Y-15538896D01*
X7201484Y-15696039D01*
X7787199Y-15381753D02*
X7530056Y-15767468D01*
X8172913Y-15396039D02*
X8201484Y-15396039D01*
X8230056Y-15410325D01*
X8244342Y-15424611D01*
X8258627Y-15453182D01*
X8272913Y-15510325D01*
X8272913Y-15581753D01*
X8258627Y-15638896D01*
X8244342Y-15667468D01*
X8230056Y-15681753D01*
X8201484Y-15696039D01*
X8172913Y-15696039D01*
X8144342Y-15681753D01*
X8130056Y-15667468D01*
X8115770Y-15638896D01*
X8101484Y-15581753D01*
X8101484Y-15510325D01*
X8115770Y-15453182D01*
X8130056Y-15424611D01*
X8144342Y-15410325D01*
X8172913Y-15396039D01*
X8401485Y-15667468D02*
X8415770Y-15681753D01*
X8401485Y-15696039D01*
X8387199Y-15681753D01*
X8401485Y-15667468D01*
X8401485Y-15696039D01*
X8601485Y-15396039D02*
X8630056Y-15396039D01*
X8658627Y-15410325D01*
X8672913Y-15424611D01*
X8687199Y-15453182D01*
X8701485Y-15510325D01*
X8701485Y-15581753D01*
X8687199Y-15638896D01*
X8672913Y-15667468D01*
X8658627Y-15681753D01*
X8630056Y-15696039D01*
X8601485Y-15696039D01*
X8572913Y-15681753D01*
X8558627Y-15667468D01*
X8544342Y-15638896D01*
X8530056Y-15581753D01*
X8530056Y-15510325D01*
X8544342Y-15453182D01*
X8558627Y-15424611D01*
X8572913Y-15410325D01*
X8601485Y-15396039D01*
X8987199Y-15696039D02*
X8815770Y-15696039D01*
X8901485Y-15696039D02*
X8901485Y-15396039D01*
X8872913Y-15438896D01*
X8844342Y-15467468D01*
X8815770Y-15481753D01*
X9244342Y-15396039D02*
X9187199Y-15396039D01*
X9158627Y-15410325D01*
X9144342Y-15424611D01*
X9115770Y-15467468D01*
X9101485Y-15524611D01*
X9101485Y-15638896D01*
X9115770Y-15667468D01*
X9130056Y-15681753D01*
X9158627Y-15696039D01*
X9215770Y-15696039D01*
X9244342Y-15681753D01*
X9258627Y-15667468D01*
X9272913Y-15638896D01*
X9272913Y-15567468D01*
X9258627Y-15538896D01*
X9244342Y-15524611D01*
X9215770Y-15510325D01*
X9158627Y-15510325D01*
X9130056Y-15524611D01*
X9115770Y-15538896D01*
X9101485Y-15567468D01*
X9387199Y-15396039D02*
X9387199Y-15453182D01*
X9501485Y-15396039D02*
X9501485Y-15453182D01*
X9944342Y-15810325D02*
X9930056Y-15796039D01*
X9901485Y-15753182D01*
X9887199Y-15724611D01*
X9872913Y-15681753D01*
X9858627Y-15610325D01*
X9858627Y-15553182D01*
X9872913Y-15481753D01*
X9887199Y-15438896D01*
X9901485Y-15410325D01*
X9930056Y-15367468D01*
X9944342Y-15353182D01*
X10187199Y-15396039D02*
X10130056Y-15396039D01*
X10101485Y-15410325D01*
X10087199Y-15424611D01*
X10058627Y-15467468D01*
X10044342Y-15524611D01*
X10044342Y-15638896D01*
X10058627Y-15667468D01*
X10072913Y-15681753D01*
X10101485Y-15696039D01*
X10158627Y-15696039D01*
X10187199Y-15681753D01*
X10201485Y-15667468D01*
X10215770Y-15638896D01*
X10215770Y-15567468D01*
X10201485Y-15538896D01*
X10187199Y-15524611D01*
X10158627Y-15510325D01*
X10101485Y-15510325D01*
X10072913Y-15524611D01*
X10058627Y-15538896D01*
X10044342Y-15567468D01*
X10472913Y-15396039D02*
X10415770Y-15396039D01*
X10387199Y-15410325D01*
X10372913Y-15424611D01*
X10344342Y-15467468D01*
X10330056Y-15524611D01*
X10330056Y-15638896D01*
X10344342Y-15667468D01*
X10358627Y-15681753D01*
X10387199Y-15696039D01*
X10444342Y-15696039D01*
X10472913Y-15681753D01*
X10487199Y-15667468D01*
X10501485Y-15638896D01*
X10501485Y-15567468D01*
X10487199Y-15538896D01*
X10472913Y-15524611D01*
X10444342Y-15510325D01*
X10387199Y-15510325D01*
X10358627Y-15524611D01*
X10344342Y-15538896D01*
X10330056Y-15567468D01*
X10858627Y-15696039D02*
X10858627Y-15396039D01*
X10987199Y-15696039D02*
X10987199Y-15538896D01*
X10972913Y-15510325D01*
X10944342Y-15496039D01*
X10901485Y-15496039D01*
X10872913Y-15510325D01*
X10858627Y-15524611D01*
X11172913Y-15696039D02*
X11144342Y-15681753D01*
X11130056Y-15667468D01*
X11115770Y-15638896D01*
X11115770Y-15553182D01*
X11130056Y-15524611D01*
X11144342Y-15510325D01*
X11172913Y-15496039D01*
X11215770Y-15496039D01*
X11244342Y-15510325D01*
X11258627Y-15524611D01*
X11272913Y-15553182D01*
X11272913Y-15638896D01*
X11258627Y-15667468D01*
X11244342Y-15681753D01*
X11215770Y-15696039D01*
X11172913Y-15696039D01*
X11444342Y-15696039D02*
X11415770Y-15681753D01*
X11401484Y-15653182D01*
X11401484Y-15396039D01*
X11672913Y-15681753D02*
X11644342Y-15696039D01*
X11587199Y-15696039D01*
X11558627Y-15681753D01*
X11544342Y-15653182D01*
X11544342Y-15538896D01*
X11558627Y-15510325D01*
X11587199Y-15496039D01*
X11644342Y-15496039D01*
X11672913Y-15510325D01*
X11687199Y-15538896D01*
X11687199Y-15567468D01*
X11544342Y-15596039D01*
X11801484Y-15681753D02*
X11830056Y-15696039D01*
X11887199Y-15696039D01*
X11915770Y-15681753D01*
X11930056Y-15653182D01*
X11930056Y-15638896D01*
X11915770Y-15610325D01*
X11887199Y-15596039D01*
X11844342Y-15596039D01*
X11815770Y-15581753D01*
X11801484Y-15553182D01*
X11801484Y-15538896D01*
X11815770Y-15510325D01*
X11844342Y-15496039D01*
X11887199Y-15496039D01*
X11915770Y-15510325D01*
X12030056Y-15810325D02*
X12044342Y-15796039D01*
X12072913Y-15753182D01*
X12087199Y-15724611D01*
X12101484Y-15681753D01*
X12115770Y-15610325D01*
X12115770Y-15553182D01*
X12101484Y-15481753D01*
X12087199Y-15438896D01*
X12072913Y-15410325D01*
X12044342Y-15367468D01*
X12030056Y-15353182D01*
X5257913Y-15956325D02*
G75*
G03X5257913Y-15956325I-37500J0D01*
G01*
X5601484Y-15792039D02*
X5630056Y-15792039D01*
X5658627Y-15806325D01*
X5672913Y-15820611D01*
X5687199Y-15849182D01*
X5701484Y-15906325D01*
X5701484Y-15977753D01*
X5687199Y-16034896D01*
X5672913Y-16063468D01*
X5658627Y-16077753D01*
X5630056Y-16092039D01*
X5601484Y-16092039D01*
X5572913Y-16077753D01*
X5558627Y-16063468D01*
X5544342Y-16034896D01*
X5530056Y-15977753D01*
X5530056Y-15906325D01*
X5544342Y-15849182D01*
X5558627Y-15820611D01*
X5572913Y-15806325D01*
X5601484Y-15792039D01*
X5830056Y-16063468D02*
X5844342Y-16077753D01*
X5830056Y-16092039D01*
X5815770Y-16077753D01*
X5830056Y-16063468D01*
X5830056Y-16092039D01*
X5944342Y-15792039D02*
X6144342Y-15792039D01*
X6015770Y-16092039D01*
X6401484Y-15792039D02*
X6258627Y-15792039D01*
X6244342Y-15934896D01*
X6258627Y-15920611D01*
X6287199Y-15906325D01*
X6358627Y-15906325D01*
X6387199Y-15920611D01*
X6401484Y-15934896D01*
X6415770Y-15963468D01*
X6415770Y-16034896D01*
X6401484Y-16063468D01*
X6387199Y-16077753D01*
X6358627Y-16092039D01*
X6287199Y-16092039D01*
X6258627Y-16077753D01*
X6244342Y-16063468D01*
X6544342Y-16092039D02*
X6544342Y-15892039D01*
X6544342Y-15920611D02*
X6558627Y-15906325D01*
X6587199Y-15892039D01*
X6630056Y-15892039D01*
X6658627Y-15906325D01*
X6672913Y-15934896D01*
X6672913Y-16092039D01*
X6672913Y-15934896D02*
X6687199Y-15906325D01*
X6715770Y-15892039D01*
X6758627Y-15892039D01*
X6787199Y-15906325D01*
X6801484Y-15934896D01*
X6801484Y-16092039D01*
X6944342Y-16092039D02*
X6944342Y-15892039D01*
X6944342Y-15920611D02*
X6958627Y-15906325D01*
X6987199Y-15892039D01*
X7030056Y-15892039D01*
X7058627Y-15906325D01*
X7072913Y-15934896D01*
X7072913Y-16092039D01*
X7072913Y-15934896D02*
X7087199Y-15906325D01*
X7115770Y-15892039D01*
X7158627Y-15892039D01*
X7187199Y-15906325D01*
X7201484Y-15934896D01*
X7201484Y-16092039D01*
X7787199Y-15777753D02*
X7530056Y-16163468D01*
X8172913Y-15792039D02*
X8201484Y-15792039D01*
X8230056Y-15806325D01*
X8244342Y-15820611D01*
X8258627Y-15849182D01*
X8272913Y-15906325D01*
X8272913Y-15977753D01*
X8258627Y-16034896D01*
X8244342Y-16063468D01*
X8230056Y-16077753D01*
X8201484Y-16092039D01*
X8172913Y-16092039D01*
X8144342Y-16077753D01*
X8130056Y-16063468D01*
X8115770Y-16034896D01*
X8101484Y-15977753D01*
X8101484Y-15906325D01*
X8115770Y-15849182D01*
X8130056Y-15820611D01*
X8144342Y-15806325D01*
X8172913Y-15792039D01*
X8401485Y-16063468D02*
X8415770Y-16077753D01*
X8401485Y-16092039D01*
X8387199Y-16077753D01*
X8401485Y-16063468D01*
X8401485Y-16092039D01*
X8601485Y-15792039D02*
X8630056Y-15792039D01*
X8658627Y-15806325D01*
X8672913Y-15820611D01*
X8687199Y-15849182D01*
X8701485Y-15906325D01*
X8701485Y-15977753D01*
X8687199Y-16034896D01*
X8672913Y-16063468D01*
X8658627Y-16077753D01*
X8630056Y-16092039D01*
X8601485Y-16092039D01*
X8572913Y-16077753D01*
X8558627Y-16063468D01*
X8544342Y-16034896D01*
X8530056Y-15977753D01*
X8530056Y-15906325D01*
X8544342Y-15849182D01*
X8558627Y-15820611D01*
X8572913Y-15806325D01*
X8601485Y-15792039D01*
X8801485Y-15792039D02*
X8987199Y-15792039D01*
X8887199Y-15906325D01*
X8930056Y-15906325D01*
X8958627Y-15920611D01*
X8972913Y-15934896D01*
X8987199Y-15963468D01*
X8987199Y-16034896D01*
X8972913Y-16063468D01*
X8958627Y-16077753D01*
X8930056Y-16092039D01*
X8844342Y-16092039D01*
X8815770Y-16077753D01*
X8801485Y-16063468D01*
X9172913Y-15792039D02*
X9201485Y-15792039D01*
X9230056Y-15806325D01*
X9244342Y-15820611D01*
X9258627Y-15849182D01*
X9272913Y-15906325D01*
X9272913Y-15977753D01*
X9258627Y-16034896D01*
X9244342Y-16063468D01*
X9230056Y-16077753D01*
X9201485Y-16092039D01*
X9172913Y-16092039D01*
X9144342Y-16077753D01*
X9130056Y-16063468D01*
X9115770Y-16034896D01*
X9101485Y-15977753D01*
X9101485Y-15906325D01*
X9115770Y-15849182D01*
X9130056Y-15820611D01*
X9144342Y-15806325D01*
X9172913Y-15792039D01*
X9387199Y-15792039D02*
X9387199Y-15849182D01*
X9501485Y-15792039D02*
X9501485Y-15849182D01*
X9944342Y-16206325D02*
X9930056Y-16192039D01*
X9901485Y-16149182D01*
X9887199Y-16120611D01*
X9872913Y-16077753D01*
X9858627Y-16006325D01*
X9858627Y-15949182D01*
X9872913Y-15877753D01*
X9887199Y-15834896D01*
X9901485Y-15806325D01*
X9930056Y-15763468D01*
X9944342Y-15749182D01*
X10215770Y-16092039D02*
X10044342Y-16092039D01*
X10130056Y-16092039D02*
X10130056Y-15792039D01*
X10101485Y-15834896D01*
X10072913Y-15863468D01*
X10044342Y-15877753D01*
X10572913Y-16092039D02*
X10572913Y-15792039D01*
X10701485Y-16092039D02*
X10701485Y-15934896D01*
X10687199Y-15906325D01*
X10658627Y-15892039D01*
X10615770Y-15892039D01*
X10587199Y-15906325D01*
X10572913Y-15920611D01*
X10887199Y-16092039D02*
X10858627Y-16077753D01*
X10844342Y-16063468D01*
X10830056Y-16034896D01*
X10830056Y-15949182D01*
X10844342Y-15920611D01*
X10858627Y-15906325D01*
X10887199Y-15892039D01*
X10930056Y-15892039D01*
X10958627Y-15906325D01*
X10972913Y-15920611D01*
X10987199Y-15949182D01*
X10987199Y-16034896D01*
X10972913Y-16063468D01*
X10958627Y-16077753D01*
X10930056Y-16092039D01*
X10887199Y-16092039D01*
X11158627Y-16092039D02*
X11130056Y-16077753D01*
X11115770Y-16049182D01*
X11115770Y-15792039D01*
X11387199Y-16077753D02*
X11358627Y-16092039D01*
X11301484Y-16092039D01*
X11272913Y-16077753D01*
X11258627Y-16049182D01*
X11258627Y-15934896D01*
X11272913Y-15906325D01*
X11301484Y-15892039D01*
X11358627Y-15892039D01*
X11387199Y-15906325D01*
X11401484Y-15934896D01*
X11401484Y-15963468D01*
X11258627Y-15992039D01*
X11501484Y-16206325D02*
X11515770Y-16192039D01*
X11544342Y-16149182D01*
X11558627Y-16120611D01*
X11572913Y-16077753D01*
X11587199Y-16006325D01*
X11587199Y-15949182D01*
X11572913Y-15877753D01*
X11558627Y-15834896D01*
X11544342Y-15806325D01*
X11515770Y-15763468D01*
X11501484Y-15749182D01*
X5217913Y-16312325D02*
X5217913Y-16392325D01*
X5177913Y-16352325D02*
X5257913Y-16352325D01*
X5601484Y-16188039D02*
X5630056Y-16188039D01*
X5658627Y-16202325D01*
X5672913Y-16216611D01*
X5687199Y-16245182D01*
X5701484Y-16302325D01*
X5701484Y-16373753D01*
X5687199Y-16430896D01*
X5672913Y-16459468D01*
X5658627Y-16473753D01*
X5630056Y-16488039D01*
X5601484Y-16488039D01*
X5572913Y-16473753D01*
X5558627Y-16459468D01*
X5544342Y-16430896D01*
X5530056Y-16373753D01*
X5530056Y-16302325D01*
X5544342Y-16245182D01*
X5558627Y-16216611D01*
X5572913Y-16202325D01*
X5601484Y-16188039D01*
X5830056Y-16459468D02*
X5844342Y-16473753D01*
X5830056Y-16488039D01*
X5815770Y-16473753D01*
X5830056Y-16459468D01*
X5830056Y-16488039D01*
X6015770Y-16316611D02*
X5987199Y-16302325D01*
X5972913Y-16288039D01*
X5958627Y-16259468D01*
X5958627Y-16245182D01*
X5972913Y-16216611D01*
X5987199Y-16202325D01*
X6015770Y-16188039D01*
X6072913Y-16188039D01*
X6101484Y-16202325D01*
X6115770Y-16216611D01*
X6130056Y-16245182D01*
X6130056Y-16259468D01*
X6115770Y-16288039D01*
X6101484Y-16302325D01*
X6072913Y-16316611D01*
X6015770Y-16316611D01*
X5987199Y-16330896D01*
X5972913Y-16345182D01*
X5958627Y-16373753D01*
X5958627Y-16430896D01*
X5972913Y-16459468D01*
X5987199Y-16473753D01*
X6015770Y-16488039D01*
X6072913Y-16488039D01*
X6101484Y-16473753D01*
X6115770Y-16459468D01*
X6130056Y-16430896D01*
X6130056Y-16373753D01*
X6115770Y-16345182D01*
X6101484Y-16330896D01*
X6072913Y-16316611D01*
X6315770Y-16188039D02*
X6344342Y-16188039D01*
X6372913Y-16202325D01*
X6387199Y-16216611D01*
X6401484Y-16245182D01*
X6415770Y-16302325D01*
X6415770Y-16373753D01*
X6401484Y-16430896D01*
X6387199Y-16459468D01*
X6372913Y-16473753D01*
X6344342Y-16488039D01*
X6315770Y-16488039D01*
X6287199Y-16473753D01*
X6272913Y-16459468D01*
X6258627Y-16430896D01*
X6244342Y-16373753D01*
X6244342Y-16302325D01*
X6258627Y-16245182D01*
X6272913Y-16216611D01*
X6287199Y-16202325D01*
X6315770Y-16188039D01*
X6544342Y-16488039D02*
X6544342Y-16288039D01*
X6544342Y-16316611D02*
X6558627Y-16302325D01*
X6587199Y-16288039D01*
X6630056Y-16288039D01*
X6658627Y-16302325D01*
X6672913Y-16330896D01*
X6672913Y-16488039D01*
X6672913Y-16330896D02*
X6687199Y-16302325D01*
X6715770Y-16288039D01*
X6758627Y-16288039D01*
X6787199Y-16302325D01*
X6801484Y-16330896D01*
X6801484Y-16488039D01*
X6944342Y-16488039D02*
X6944342Y-16288039D01*
X6944342Y-16316611D02*
X6958627Y-16302325D01*
X6987199Y-16288039D01*
X7030056Y-16288039D01*
X7058627Y-16302325D01*
X7072913Y-16330896D01*
X7072913Y-16488039D01*
X7072913Y-16330896D02*
X7087199Y-16302325D01*
X7115770Y-16288039D01*
X7158627Y-16288039D01*
X7187199Y-16302325D01*
X7201484Y-16330896D01*
X7201484Y-16488039D01*
X7787199Y-16173753D02*
X7530056Y-16559468D01*
X8172913Y-16188039D02*
X8201484Y-16188039D01*
X8230056Y-16202325D01*
X8244342Y-16216611D01*
X8258627Y-16245182D01*
X8272913Y-16302325D01*
X8272913Y-16373753D01*
X8258627Y-16430896D01*
X8244342Y-16459468D01*
X8230056Y-16473753D01*
X8201484Y-16488039D01*
X8172913Y-16488039D01*
X8144342Y-16473753D01*
X8130056Y-16459468D01*
X8115770Y-16430896D01*
X8101484Y-16373753D01*
X8101484Y-16302325D01*
X8115770Y-16245182D01*
X8130056Y-16216611D01*
X8144342Y-16202325D01*
X8172913Y-16188039D01*
X8401485Y-16459468D02*
X8415770Y-16473753D01*
X8401485Y-16488039D01*
X8387199Y-16473753D01*
X8401485Y-16459468D01*
X8401485Y-16488039D01*
X8601485Y-16188039D02*
X8630056Y-16188039D01*
X8658627Y-16202325D01*
X8672913Y-16216611D01*
X8687199Y-16245182D01*
X8701485Y-16302325D01*
X8701485Y-16373753D01*
X8687199Y-16430896D01*
X8672913Y-16459468D01*
X8658627Y-16473753D01*
X8630056Y-16488039D01*
X8601485Y-16488039D01*
X8572913Y-16473753D01*
X8558627Y-16459468D01*
X8544342Y-16430896D01*
X8530056Y-16373753D01*
X8530056Y-16302325D01*
X8544342Y-16245182D01*
X8558627Y-16216611D01*
X8572913Y-16202325D01*
X8601485Y-16188039D01*
X8801485Y-16188039D02*
X8987199Y-16188039D01*
X8887199Y-16302325D01*
X8930056Y-16302325D01*
X8958627Y-16316611D01*
X8972913Y-16330896D01*
X8987199Y-16359468D01*
X8987199Y-16430896D01*
X8972913Y-16459468D01*
X8958627Y-16473753D01*
X8930056Y-16488039D01*
X8844342Y-16488039D01*
X8815770Y-16473753D01*
X8801485Y-16459468D01*
X9272913Y-16488039D02*
X9101485Y-16488039D01*
X9187199Y-16488039D02*
X9187199Y-16188039D01*
X9158627Y-16230896D01*
X9130056Y-16259468D01*
X9101485Y-16273753D01*
X9387199Y-16188039D02*
X9387199Y-16245182D01*
X9501485Y-16188039D02*
X9501485Y-16245182D01*
X9944342Y-16602325D02*
X9930056Y-16588039D01*
X9901485Y-16545182D01*
X9887199Y-16516611D01*
X9872913Y-16473753D01*
X9858627Y-16402325D01*
X9858627Y-16345182D01*
X9872913Y-16273753D01*
X9887199Y-16230896D01*
X9901485Y-16202325D01*
X9930056Y-16159468D01*
X9944342Y-16145182D01*
X10044342Y-16216611D02*
X10058627Y-16202325D01*
X10087199Y-16188039D01*
X10158627Y-16188039D01*
X10187199Y-16202325D01*
X10201485Y-16216611D01*
X10215770Y-16245182D01*
X10215770Y-16273753D01*
X10201485Y-16316611D01*
X10030056Y-16488039D01*
X10215770Y-16488039D01*
X10572913Y-16488039D02*
X10572913Y-16188039D01*
X10701485Y-16488039D02*
X10701485Y-16330896D01*
X10687199Y-16302325D01*
X10658627Y-16288039D01*
X10615770Y-16288039D01*
X10587199Y-16302325D01*
X10572913Y-16316611D01*
X10887199Y-16488039D02*
X10858627Y-16473753D01*
X10844342Y-16459468D01*
X10830056Y-16430896D01*
X10830056Y-16345182D01*
X10844342Y-16316611D01*
X10858627Y-16302325D01*
X10887199Y-16288039D01*
X10930056Y-16288039D01*
X10958627Y-16302325D01*
X10972913Y-16316611D01*
X10987199Y-16345182D01*
X10987199Y-16430896D01*
X10972913Y-16459468D01*
X10958627Y-16473753D01*
X10930056Y-16488039D01*
X10887199Y-16488039D01*
X11158627Y-16488039D02*
X11130056Y-16473753D01*
X11115770Y-16445182D01*
X11115770Y-16188039D01*
X11387199Y-16473753D02*
X11358627Y-16488039D01*
X11301484Y-16488039D01*
X11272913Y-16473753D01*
X11258627Y-16445182D01*
X11258627Y-16330896D01*
X11272913Y-16302325D01*
X11301484Y-16288039D01*
X11358627Y-16288039D01*
X11387199Y-16302325D01*
X11401484Y-16330896D01*
X11401484Y-16359468D01*
X11258627Y-16388039D01*
X11515770Y-16473753D02*
X11544342Y-16488039D01*
X11601484Y-16488039D01*
X11630056Y-16473753D01*
X11644342Y-16445182D01*
X11644342Y-16430896D01*
X11630056Y-16402325D01*
X11601484Y-16388039D01*
X11558627Y-16388039D01*
X11530056Y-16373753D01*
X11515770Y-16345182D01*
X11515770Y-16330896D01*
X11530056Y-16302325D01*
X11558627Y-16288039D01*
X11601484Y-16288039D01*
X11630056Y-16302325D01*
X11744342Y-16602325D02*
X11758627Y-16588039D01*
X11787199Y-16545182D01*
X11801484Y-16516611D01*
X11815770Y-16473753D01*
X11830056Y-16402325D01*
X11830056Y-16345182D01*
X11815770Y-16273753D01*
X11801484Y-16230896D01*
X11787199Y-16202325D01*
X11758627Y-16159468D01*
X11744342Y-16145182D01*
X5243269Y-16783681D02*
X5243269Y-16712969D01*
X5172557Y-16712969D01*
X5172557Y-16783681D01*
X5243269Y-16783681D01*
X5701484Y-16884039D02*
X5530056Y-16884039D01*
X5615770Y-16884039D02*
X5615770Y-16584039D01*
X5587199Y-16626896D01*
X5558627Y-16655468D01*
X5530056Y-16669753D01*
X5830056Y-16855468D02*
X5844342Y-16869754D01*
X5830056Y-16884039D01*
X5815770Y-16869754D01*
X5830056Y-16855468D01*
X5830056Y-16884039D01*
X6030056Y-16584039D02*
X6058627Y-16584039D01*
X6087199Y-16598325D01*
X6101484Y-16612611D01*
X6115770Y-16641182D01*
X6130056Y-16698325D01*
X6130056Y-16769753D01*
X6115770Y-16826896D01*
X6101484Y-16855468D01*
X6087199Y-16869754D01*
X6058627Y-16884039D01*
X6030056Y-16884039D01*
X6001484Y-16869754D01*
X5987199Y-16855468D01*
X5972913Y-16826896D01*
X5958627Y-16769753D01*
X5958627Y-16698325D01*
X5972913Y-16641182D01*
X5987199Y-16612611D01*
X6001484Y-16598325D01*
X6030056Y-16584039D01*
X6315770Y-16584039D02*
X6344342Y-16584039D01*
X6372913Y-16598325D01*
X6387199Y-16612611D01*
X6401484Y-16641182D01*
X6415770Y-16698325D01*
X6415770Y-16769753D01*
X6401484Y-16826896D01*
X6387199Y-16855468D01*
X6372913Y-16869754D01*
X6344342Y-16884039D01*
X6315770Y-16884039D01*
X6287199Y-16869754D01*
X6272913Y-16855468D01*
X6258627Y-16826896D01*
X6244342Y-16769753D01*
X6244342Y-16698325D01*
X6258627Y-16641182D01*
X6272913Y-16612611D01*
X6287199Y-16598325D01*
X6315770Y-16584039D01*
X6544342Y-16884039D02*
X6544342Y-16684039D01*
X6544342Y-16712611D02*
X6558627Y-16698325D01*
X6587199Y-16684039D01*
X6630056Y-16684039D01*
X6658627Y-16698325D01*
X6672913Y-16726896D01*
X6672913Y-16884039D01*
X6672913Y-16726896D02*
X6687199Y-16698325D01*
X6715770Y-16684039D01*
X6758627Y-16684039D01*
X6787199Y-16698325D01*
X6801484Y-16726896D01*
X6801484Y-16884039D01*
X6944342Y-16884039D02*
X6944342Y-16684039D01*
X6944342Y-16712611D02*
X6958627Y-16698325D01*
X6987199Y-16684039D01*
X7030056Y-16684039D01*
X7058627Y-16698325D01*
X7072913Y-16726896D01*
X7072913Y-16884039D01*
X7072913Y-16726896D02*
X7087199Y-16698325D01*
X7115770Y-16684039D01*
X7158627Y-16684039D01*
X7187199Y-16698325D01*
X7201484Y-16726896D01*
X7201484Y-16884039D01*
X7787199Y-16569753D02*
X7530056Y-16955468D01*
X8172913Y-16584039D02*
X8201484Y-16584039D01*
X8230056Y-16598325D01*
X8244342Y-16612611D01*
X8258627Y-16641182D01*
X8272913Y-16698325D01*
X8272913Y-16769753D01*
X8258627Y-16826896D01*
X8244342Y-16855468D01*
X8230056Y-16869754D01*
X8201484Y-16884039D01*
X8172913Y-16884039D01*
X8144342Y-16869754D01*
X8130056Y-16855468D01*
X8115770Y-16826896D01*
X8101484Y-16769753D01*
X8101484Y-16698325D01*
X8115770Y-16641182D01*
X8130056Y-16612611D01*
X8144342Y-16598325D01*
X8172913Y-16584039D01*
X8401485Y-16855468D02*
X8415770Y-16869754D01*
X8401485Y-16884039D01*
X8387199Y-16869754D01*
X8401485Y-16855468D01*
X8401485Y-16884039D01*
X8601485Y-16584039D02*
X8630056Y-16584039D01*
X8658627Y-16598325D01*
X8672913Y-16612611D01*
X8687199Y-16641182D01*
X8701485Y-16698325D01*
X8701485Y-16769753D01*
X8687199Y-16826896D01*
X8672913Y-16855468D01*
X8658627Y-16869754D01*
X8630056Y-16884039D01*
X8601485Y-16884039D01*
X8572913Y-16869754D01*
X8558627Y-16855468D01*
X8544342Y-16826896D01*
X8530056Y-16769753D01*
X8530056Y-16698325D01*
X8544342Y-16641182D01*
X8558627Y-16612611D01*
X8572913Y-16598325D01*
X8601485Y-16584039D01*
X8801485Y-16584039D02*
X8987199Y-16584039D01*
X8887199Y-16698325D01*
X8930056Y-16698325D01*
X8958627Y-16712611D01*
X8972913Y-16726896D01*
X8987199Y-16755468D01*
X8987199Y-16826896D01*
X8972913Y-16855468D01*
X8958627Y-16869754D01*
X8930056Y-16884039D01*
X8844342Y-16884039D01*
X8815770Y-16869754D01*
X8801485Y-16855468D01*
X9130056Y-16884039D02*
X9187199Y-16884039D01*
X9215770Y-16869754D01*
X9230056Y-16855468D01*
X9258627Y-16812611D01*
X9272913Y-16755468D01*
X9272913Y-16641182D01*
X9258627Y-16612611D01*
X9244342Y-16598325D01*
X9215770Y-16584039D01*
X9158627Y-16584039D01*
X9130056Y-16598325D01*
X9115770Y-16612611D01*
X9101485Y-16641182D01*
X9101485Y-16712611D01*
X9115770Y-16741182D01*
X9130056Y-16755468D01*
X9158627Y-16769753D01*
X9215770Y-16769753D01*
X9244342Y-16755468D01*
X9258627Y-16741182D01*
X9272913Y-16712611D01*
X9387199Y-16584039D02*
X9387199Y-16641182D01*
X9501485Y-16584039D02*
X9501485Y-16641182D01*
X9944342Y-16998325D02*
X9930056Y-16984039D01*
X9901485Y-16941182D01*
X9887199Y-16912611D01*
X9872913Y-16869754D01*
X9858627Y-16798325D01*
X9858627Y-16741182D01*
X9872913Y-16669753D01*
X9887199Y-16626896D01*
X9901485Y-16598325D01*
X9930056Y-16555468D01*
X9944342Y-16541182D01*
X10187199Y-16584039D02*
X10130056Y-16584039D01*
X10101485Y-16598325D01*
X10087199Y-16612611D01*
X10058627Y-16655468D01*
X10044342Y-16712611D01*
X10044342Y-16826896D01*
X10058627Y-16855468D01*
X10072913Y-16869754D01*
X10101485Y-16884039D01*
X10158627Y-16884039D01*
X10187199Y-16869754D01*
X10201485Y-16855468D01*
X10215770Y-16826896D01*
X10215770Y-16755468D01*
X10201485Y-16726896D01*
X10187199Y-16712611D01*
X10158627Y-16698325D01*
X10101485Y-16698325D01*
X10072913Y-16712611D01*
X10058627Y-16726896D01*
X10044342Y-16755468D01*
X10472913Y-16684039D02*
X10472913Y-16884039D01*
X10401485Y-16569753D02*
X10330056Y-16784039D01*
X10515770Y-16784039D01*
X10858627Y-16884039D02*
X10858627Y-16584039D01*
X10987199Y-16884039D02*
X10987199Y-16726896D01*
X10972913Y-16698325D01*
X10944342Y-16684039D01*
X10901485Y-16684039D01*
X10872913Y-16698325D01*
X10858627Y-16712611D01*
X11172913Y-16884039D02*
X11144342Y-16869754D01*
X11130056Y-16855468D01*
X11115770Y-16826896D01*
X11115770Y-16741182D01*
X11130056Y-16712611D01*
X11144342Y-16698325D01*
X11172913Y-16684039D01*
X11215770Y-16684039D01*
X11244342Y-16698325D01*
X11258627Y-16712611D01*
X11272913Y-16741182D01*
X11272913Y-16826896D01*
X11258627Y-16855468D01*
X11244342Y-16869754D01*
X11215770Y-16884039D01*
X11172913Y-16884039D01*
X11444342Y-16884039D02*
X11415770Y-16869754D01*
X11401484Y-16841182D01*
X11401484Y-16584039D01*
X11672913Y-16869754D02*
X11644342Y-16884039D01*
X11587199Y-16884039D01*
X11558627Y-16869754D01*
X11544342Y-16841182D01*
X11544342Y-16726896D01*
X11558627Y-16698325D01*
X11587199Y-16684039D01*
X11644342Y-16684039D01*
X11672913Y-16698325D01*
X11687199Y-16726896D01*
X11687199Y-16755468D01*
X11544342Y-16784039D01*
X11801484Y-16869754D02*
X11830056Y-16884039D01*
X11887199Y-16884039D01*
X11915770Y-16869754D01*
X11930056Y-16841182D01*
X11930056Y-16826896D01*
X11915770Y-16798325D01*
X11887199Y-16784039D01*
X11844342Y-16784039D01*
X11815770Y-16769753D01*
X11801484Y-16741182D01*
X11801484Y-16726896D01*
X11815770Y-16698325D01*
X11844342Y-16684039D01*
X11887199Y-16684039D01*
X11915770Y-16698325D01*
X12030056Y-16998325D02*
X12044342Y-16984039D01*
X12072913Y-16941182D01*
X12087199Y-16912611D01*
X12101484Y-16869754D01*
X12115770Y-16798325D01*
X12115770Y-16741182D01*
X12101484Y-16669753D01*
X12087199Y-16626896D01*
X12072913Y-16598325D01*
X12044342Y-16555468D01*
X12030056Y-16541182D01*
X5194413Y-17207825D02*
X5257913Y-17144325D01*
X5194413Y-17080825D01*
X5130913Y-17144325D01*
X5194413Y-17207825D01*
X5701484Y-17280039D02*
X5530056Y-17280039D01*
X5615770Y-17280039D02*
X5615770Y-16980039D01*
X5587199Y-17022896D01*
X5558627Y-17051468D01*
X5530056Y-17065754D01*
X5830056Y-17251468D02*
X5844342Y-17265754D01*
X5830056Y-17280039D01*
X5815770Y-17265754D01*
X5830056Y-17251468D01*
X5830056Y-17280039D01*
X5958627Y-17008611D02*
X5972913Y-16994325D01*
X6001484Y-16980039D01*
X6072913Y-16980039D01*
X6101484Y-16994325D01*
X6115770Y-17008611D01*
X6130056Y-17037182D01*
X6130056Y-17065754D01*
X6115770Y-17108611D01*
X5944342Y-17280039D01*
X6130056Y-17280039D01*
X6230056Y-16980039D02*
X6430056Y-16980039D01*
X6301484Y-17280039D01*
X6544342Y-17280039D02*
X6544342Y-17080039D01*
X6544342Y-17108611D02*
X6558627Y-17094325D01*
X6587199Y-17080039D01*
X6630056Y-17080039D01*
X6658627Y-17094325D01*
X6672913Y-17122896D01*
X6672913Y-17280039D01*
X6672913Y-17122896D02*
X6687199Y-17094325D01*
X6715770Y-17080039D01*
X6758627Y-17080039D01*
X6787199Y-17094325D01*
X6801484Y-17122896D01*
X6801484Y-17280039D01*
X6944342Y-17280039D02*
X6944342Y-17080039D01*
X6944342Y-17108611D02*
X6958627Y-17094325D01*
X6987199Y-17080039D01*
X7030056Y-17080039D01*
X7058627Y-17094325D01*
X7072913Y-17122896D01*
X7072913Y-17280039D01*
X7072913Y-17122896D02*
X7087199Y-17094325D01*
X7115770Y-17080039D01*
X7158627Y-17080039D01*
X7187199Y-17094325D01*
X7201484Y-17122896D01*
X7201484Y-17280039D01*
X7787199Y-16965754D02*
X7530056Y-17351468D01*
X8172913Y-16980039D02*
X8201484Y-16980039D01*
X8230056Y-16994325D01*
X8244342Y-17008611D01*
X8258627Y-17037182D01*
X8272913Y-17094325D01*
X8272913Y-17165754D01*
X8258627Y-17222896D01*
X8244342Y-17251468D01*
X8230056Y-17265754D01*
X8201484Y-17280039D01*
X8172913Y-17280039D01*
X8144342Y-17265754D01*
X8130056Y-17251468D01*
X8115770Y-17222896D01*
X8101484Y-17165754D01*
X8101484Y-17094325D01*
X8115770Y-17037182D01*
X8130056Y-17008611D01*
X8144342Y-16994325D01*
X8172913Y-16980039D01*
X8401485Y-17251468D02*
X8415770Y-17265754D01*
X8401485Y-17280039D01*
X8387199Y-17265754D01*
X8401485Y-17251468D01*
X8401485Y-17280039D01*
X8601485Y-16980039D02*
X8630056Y-16980039D01*
X8658627Y-16994325D01*
X8672913Y-17008611D01*
X8687199Y-17037182D01*
X8701485Y-17094325D01*
X8701485Y-17165754D01*
X8687199Y-17222896D01*
X8672913Y-17251468D01*
X8658627Y-17265754D01*
X8630056Y-17280039D01*
X8601485Y-17280039D01*
X8572913Y-17265754D01*
X8558627Y-17251468D01*
X8544342Y-17222896D01*
X8530056Y-17165754D01*
X8530056Y-17094325D01*
X8544342Y-17037182D01*
X8558627Y-17008611D01*
X8572913Y-16994325D01*
X8601485Y-16980039D01*
X8972913Y-16980039D02*
X8830056Y-16980039D01*
X8815770Y-17122896D01*
X8830056Y-17108611D01*
X8858627Y-17094325D01*
X8930056Y-17094325D01*
X8958627Y-17108611D01*
X8972913Y-17122896D01*
X8987199Y-17151468D01*
X8987199Y-17222896D01*
X8972913Y-17251468D01*
X8958627Y-17265754D01*
X8930056Y-17280039D01*
X8858627Y-17280039D01*
X8830056Y-17265754D01*
X8815770Y-17251468D01*
X9172913Y-16980039D02*
X9201485Y-16980039D01*
X9230056Y-16994325D01*
X9244342Y-17008611D01*
X9258627Y-17037182D01*
X9272913Y-17094325D01*
X9272913Y-17165754D01*
X9258627Y-17222896D01*
X9244342Y-17251468D01*
X9230056Y-17265754D01*
X9201485Y-17280039D01*
X9172913Y-17280039D01*
X9144342Y-17265754D01*
X9130056Y-17251468D01*
X9115770Y-17222896D01*
X9101485Y-17165754D01*
X9101485Y-17094325D01*
X9115770Y-17037182D01*
X9130056Y-17008611D01*
X9144342Y-16994325D01*
X9172913Y-16980039D01*
X9387199Y-16980039D02*
X9387199Y-17037182D01*
X9501485Y-16980039D02*
X9501485Y-17037182D01*
X9944342Y-17394325D02*
X9930056Y-17380039D01*
X9901485Y-17337182D01*
X9887199Y-17308611D01*
X9872913Y-17265754D01*
X9858627Y-17194325D01*
X9858627Y-17137182D01*
X9872913Y-17065754D01*
X9887199Y-17022896D01*
X9901485Y-16994325D01*
X9930056Y-16951468D01*
X9944342Y-16937182D01*
X10030056Y-16980039D02*
X10215770Y-16980039D01*
X10115770Y-17094325D01*
X10158627Y-17094325D01*
X10187199Y-17108611D01*
X10201485Y-17122896D01*
X10215770Y-17151468D01*
X10215770Y-17222896D01*
X10201485Y-17251468D01*
X10187199Y-17265754D01*
X10158627Y-17280039D01*
X10072913Y-17280039D01*
X10044342Y-17265754D01*
X10030056Y-17251468D01*
X10330056Y-17008611D02*
X10344342Y-16994325D01*
X10372913Y-16980039D01*
X10444342Y-16980039D01*
X10472913Y-16994325D01*
X10487199Y-17008611D01*
X10501485Y-17037182D01*
X10501485Y-17065754D01*
X10487199Y-17108611D01*
X10315770Y-17280039D01*
X10501485Y-17280039D01*
X10858627Y-17280039D02*
X10858627Y-16980039D01*
X10987199Y-17280039D02*
X10987199Y-17122896D01*
X10972913Y-17094325D01*
X10944342Y-17080039D01*
X10901485Y-17080039D01*
X10872913Y-17094325D01*
X10858627Y-17108611D01*
X11172913Y-17280039D02*
X11144342Y-17265754D01*
X11130056Y-17251468D01*
X11115770Y-17222896D01*
X11115770Y-17137182D01*
X11130056Y-17108611D01*
X11144342Y-17094325D01*
X11172913Y-17080039D01*
X11215770Y-17080039D01*
X11244342Y-17094325D01*
X11258627Y-17108611D01*
X11272913Y-17137182D01*
X11272913Y-17222896D01*
X11258627Y-17251468D01*
X11244342Y-17265754D01*
X11215770Y-17280039D01*
X11172913Y-17280039D01*
X11444342Y-17280039D02*
X11415770Y-17265754D01*
X11401484Y-17237182D01*
X11401484Y-16980039D01*
X11672913Y-17265754D02*
X11644342Y-17280039D01*
X11587199Y-17280039D01*
X11558627Y-17265754D01*
X11544342Y-17237182D01*
X11544342Y-17122896D01*
X11558627Y-17094325D01*
X11587199Y-17080039D01*
X11644342Y-17080039D01*
X11672913Y-17094325D01*
X11687199Y-17122896D01*
X11687199Y-17151468D01*
X11544342Y-17180039D01*
X11801484Y-17265754D02*
X11830056Y-17280039D01*
X11887199Y-17280039D01*
X11915770Y-17265754D01*
X11930056Y-17237182D01*
X11930056Y-17222896D01*
X11915770Y-17194325D01*
X11887199Y-17180039D01*
X11844342Y-17180039D01*
X11815770Y-17165754D01*
X11801484Y-17137182D01*
X11801484Y-17122896D01*
X11815770Y-17094325D01*
X11844342Y-17080039D01*
X11887199Y-17080039D01*
X11915770Y-17094325D01*
X12030056Y-17394325D02*
X12044342Y-17380039D01*
X12072913Y-17337182D01*
X12087199Y-17308611D01*
X12101484Y-17265754D01*
X12115770Y-17194325D01*
X12115770Y-17137182D01*
X12101484Y-17065754D01*
X12087199Y-17022896D01*
X12072913Y-16994325D01*
X12044342Y-16951468D01*
X12030056Y-16937182D01*
X5127913Y-17475325D02*
X5257913Y-17605325D01*
X5257913Y-17475325D02*
X5127913Y-17605325D01*
X5257913Y-17540325D02*
G75*
G03X5257913Y-17540325I-65000J0D01*
G01*
X5701484Y-17676039D02*
X5530056Y-17676039D01*
X5615770Y-17676039D02*
X5615770Y-17376039D01*
X5587199Y-17418896D01*
X5558627Y-17447468D01*
X5530056Y-17461754D01*
X5830056Y-17647468D02*
X5844342Y-17661754D01*
X5830056Y-17676039D01*
X5815770Y-17661754D01*
X5830056Y-17647468D01*
X5830056Y-17676039D01*
X5944342Y-17376039D02*
X6130056Y-17376039D01*
X6030056Y-17490325D01*
X6072913Y-17490325D01*
X6101484Y-17504611D01*
X6115770Y-17518896D01*
X6130056Y-17547468D01*
X6130056Y-17618896D01*
X6115770Y-17647468D01*
X6101484Y-17661754D01*
X6072913Y-17676039D01*
X5987199Y-17676039D01*
X5958627Y-17661754D01*
X5944342Y-17647468D01*
X6315770Y-17376039D02*
X6344342Y-17376039D01*
X6372913Y-17390325D01*
X6387199Y-17404611D01*
X6401484Y-17433182D01*
X6415770Y-17490325D01*
X6415770Y-17561754D01*
X6401484Y-17618896D01*
X6387199Y-17647468D01*
X6372913Y-17661754D01*
X6344342Y-17676039D01*
X6315770Y-17676039D01*
X6287199Y-17661754D01*
X6272913Y-17647468D01*
X6258627Y-17618896D01*
X6244342Y-17561754D01*
X6244342Y-17490325D01*
X6258627Y-17433182D01*
X6272913Y-17404611D01*
X6287199Y-17390325D01*
X6315770Y-17376039D01*
X6544342Y-17676039D02*
X6544342Y-17476039D01*
X6544342Y-17504611D02*
X6558627Y-17490325D01*
X6587199Y-17476039D01*
X6630056Y-17476039D01*
X6658627Y-17490325D01*
X6672913Y-17518896D01*
X6672913Y-17676039D01*
X6672913Y-17518896D02*
X6687199Y-17490325D01*
X6715770Y-17476039D01*
X6758627Y-17476039D01*
X6787199Y-17490325D01*
X6801484Y-17518896D01*
X6801484Y-17676039D01*
X6944342Y-17676039D02*
X6944342Y-17476039D01*
X6944342Y-17504611D02*
X6958627Y-17490325D01*
X6987199Y-17476039D01*
X7030056Y-17476039D01*
X7058627Y-17490325D01*
X7072913Y-17518896D01*
X7072913Y-17676039D01*
X7072913Y-17518896D02*
X7087199Y-17490325D01*
X7115770Y-17476039D01*
X7158627Y-17476039D01*
X7187199Y-17490325D01*
X7201484Y-17518896D01*
X7201484Y-17676039D01*
X7787199Y-17361754D02*
X7530056Y-17747468D01*
X8172913Y-17376039D02*
X8201484Y-17376039D01*
X8230056Y-17390325D01*
X8244342Y-17404611D01*
X8258627Y-17433182D01*
X8272913Y-17490325D01*
X8272913Y-17561754D01*
X8258627Y-17618896D01*
X8244342Y-17647468D01*
X8230056Y-17661754D01*
X8201484Y-17676039D01*
X8172913Y-17676039D01*
X8144342Y-17661754D01*
X8130056Y-17647468D01*
X8115770Y-17618896D01*
X8101484Y-17561754D01*
X8101484Y-17490325D01*
X8115770Y-17433182D01*
X8130056Y-17404611D01*
X8144342Y-17390325D01*
X8172913Y-17376039D01*
X8401485Y-17647468D02*
X8415770Y-17661754D01*
X8401485Y-17676039D01*
X8387199Y-17661754D01*
X8401485Y-17647468D01*
X8401485Y-17676039D01*
X8601485Y-17376039D02*
X8630056Y-17376039D01*
X8658627Y-17390325D01*
X8672913Y-17404611D01*
X8687199Y-17433182D01*
X8701485Y-17490325D01*
X8701485Y-17561754D01*
X8687199Y-17618896D01*
X8672913Y-17647468D01*
X8658627Y-17661754D01*
X8630056Y-17676039D01*
X8601485Y-17676039D01*
X8572913Y-17661754D01*
X8558627Y-17647468D01*
X8544342Y-17618896D01*
X8530056Y-17561754D01*
X8530056Y-17490325D01*
X8544342Y-17433182D01*
X8558627Y-17404611D01*
X8572913Y-17390325D01*
X8601485Y-17376039D01*
X8972913Y-17376039D02*
X8830056Y-17376039D01*
X8815770Y-17518896D01*
X8830056Y-17504611D01*
X8858627Y-17490325D01*
X8930056Y-17490325D01*
X8958627Y-17504611D01*
X8972913Y-17518896D01*
X8987199Y-17547468D01*
X8987199Y-17618896D01*
X8972913Y-17647468D01*
X8958627Y-17661754D01*
X8930056Y-17676039D01*
X8858627Y-17676039D01*
X8830056Y-17661754D01*
X8815770Y-17647468D01*
X9272913Y-17676039D02*
X9101485Y-17676039D01*
X9187199Y-17676039D02*
X9187199Y-17376039D01*
X9158627Y-17418896D01*
X9130056Y-17447468D01*
X9101485Y-17461754D01*
X9387199Y-17376039D02*
X9387199Y-17433182D01*
X9501485Y-17376039D02*
X9501485Y-17433182D01*
X9944342Y-17790325D02*
X9930056Y-17776039D01*
X9901485Y-17733182D01*
X9887199Y-17704611D01*
X9872913Y-17661754D01*
X9858627Y-17590325D01*
X9858627Y-17533182D01*
X9872913Y-17461754D01*
X9887199Y-17418896D01*
X9901485Y-17390325D01*
X9930056Y-17347468D01*
X9944342Y-17333182D01*
X10044342Y-17404611D02*
X10058627Y-17390325D01*
X10087199Y-17376039D01*
X10158627Y-17376039D01*
X10187199Y-17390325D01*
X10201485Y-17404611D01*
X10215770Y-17433182D01*
X10215770Y-17461754D01*
X10201485Y-17504611D01*
X10030056Y-17676039D01*
X10215770Y-17676039D01*
X10472913Y-17476039D02*
X10472913Y-17676039D01*
X10401485Y-17361754D02*
X10330056Y-17576039D01*
X10515770Y-17576039D01*
X10858627Y-17676039D02*
X10858627Y-17376039D01*
X10987199Y-17676039D02*
X10987199Y-17518896D01*
X10972913Y-17490325D01*
X10944342Y-17476039D01*
X10901485Y-17476039D01*
X10872913Y-17490325D01*
X10858627Y-17504611D01*
X11172913Y-17676039D02*
X11144342Y-17661754D01*
X11130056Y-17647468D01*
X11115770Y-17618896D01*
X11115770Y-17533182D01*
X11130056Y-17504611D01*
X11144342Y-17490325D01*
X11172913Y-17476039D01*
X11215770Y-17476039D01*
X11244342Y-17490325D01*
X11258627Y-17504611D01*
X11272913Y-17533182D01*
X11272913Y-17618896D01*
X11258627Y-17647468D01*
X11244342Y-17661754D01*
X11215770Y-17676039D01*
X11172913Y-17676039D01*
X11444342Y-17676039D02*
X11415770Y-17661754D01*
X11401484Y-17633182D01*
X11401484Y-17376039D01*
X11672913Y-17661754D02*
X11644342Y-17676039D01*
X11587199Y-17676039D01*
X11558627Y-17661754D01*
X11544342Y-17633182D01*
X11544342Y-17518896D01*
X11558627Y-17490325D01*
X11587199Y-17476039D01*
X11644342Y-17476039D01*
X11672913Y-17490325D01*
X11687199Y-17518896D01*
X11687199Y-17547468D01*
X11544342Y-17576039D01*
X11801484Y-17661754D02*
X11830056Y-17676039D01*
X11887199Y-17676039D01*
X11915770Y-17661754D01*
X11930056Y-17633182D01*
X11930056Y-17618896D01*
X11915770Y-17590325D01*
X11887199Y-17576039D01*
X11844342Y-17576039D01*
X11815770Y-17561754D01*
X11801484Y-17533182D01*
X11801484Y-17518896D01*
X11815770Y-17490325D01*
X11844342Y-17476039D01*
X11887199Y-17476039D01*
X11915770Y-17490325D01*
X12030056Y-17790325D02*
X12044342Y-17776039D01*
X12072913Y-17733182D01*
X12087199Y-17704611D01*
X12101484Y-17661754D01*
X12115770Y-17590325D01*
X12115770Y-17533182D01*
X12101484Y-17461754D01*
X12087199Y-17418896D01*
X12072913Y-17390325D01*
X12044342Y-17347468D01*
X12030056Y-17333182D01*
M02*
