M48
; DRILL file {KiCad (5.1.4)-1} date 12/29/2023 3:47:16 PM
; FORMAT={-:-/ absolute / metric / decimal}
; #@! TF.CreationDate,2023-12-29T15:47:16-05:00
; #@! TF.GenerationSoftware,Kicad,Pcbnew,(5.1.4)-1
; #@! TF.FileFunction,Plated,1,2,PTH
FMAT,2
METRIC
T1C0.400
T2C0.750
T3C0.800
T4C1.000
T5C1.270
T6C1.300
%
G90
G05
T1
X62.8Y-95.24
X74.45Y-102.89
X93.8Y-104.746
X104.119Y-116.652
X104.119Y-126.177
X106.5Y-119.828
X108.881Y-119.828
X108.913Y-126.241
X111.262Y-119.828
X113.644Y-119.828
X116.025Y-119.828
X118.406Y-119.828
X120.47Y-102.619
X120.787Y-119.828
X121.16Y-129.33
X121.31Y-131.1
X122.427Y-129.657
X122.781Y-131.111
X122.883Y-126.368
X123.169Y-119.828
X133.68Y-138.22
X136.66Y-126.343
X136.66Y-128.724
X136.66Y-131.106
X136.66Y-133.487
X136.66Y-135.868
X136.662Y-123.796
X144.6Y-123.796
X144.973Y-126.388
X144.973Y-128.769
X144.973Y-131.15
X144.973Y-133.531
X144.973Y-135.913
X147.88Y-122.36
X148.86Y-139.8
X150.14Y-138.99
X154.125Y-122.431
X158.843Y-126.368
X158.843Y-128.749
X158.843Y-131.13
X158.843Y-133.511
X158.843Y-135.893
X158.887Y-123.796
X166.952Y-124.114
X167.018Y-133.397
X167.134Y-126.369
X167.134Y-128.75
X167.134Y-131.131
X167.134Y-135.894
X170.762Y-140.592
X177.655Y-127.83
X178.763Y-127.86
X180.242Y-127.894
X181.238Y-127.809
X182.7Y-119.034
X185.05Y-107.49
X185.081Y-119.034
X187.463Y-119.034
X189.844Y-119.034
X189.844Y-119.034
X192.183Y-118.992
X194.606Y-119.034
X203.724Y-102.914
X205.719Y-125.942
X206.512Y-108.715
X206.512Y-115.859
T2
X128.59Y-142.79
T3
X130.59Y-142.79
X132.59Y-142.79
T4
X86.807Y-126.206
X88.836Y-127.734
X90.864Y-129.263
X92.893Y-130.792
X104.679Y-91.324
X107.034Y-92.275
X109.389Y-93.227
X111.744Y-94.178
X150.71Y-119.92
X153.25Y-119.92
X111.494Y-75.324
X113.849Y-76.275
X116.204Y-77.227
X118.559Y-78.178
X192.0Y-95.54
X194.355Y-94.588
X196.71Y-93.637
X199.065Y-92.685
X182.708Y-137.217
X184.236Y-139.246
X185.765Y-141.274
X187.294Y-143.303
X210.415Y-130.638
X212.444Y-129.109
X214.472Y-127.581
X216.501Y-126.052
X196.617Y-141.066
X198.645Y-139.538
X200.674Y-138.009
X202.703Y-136.48
X126.59Y-142.79
X134.59Y-142.79
X246.428Y-97.351
X247.38Y-99.706
X248.331Y-102.061
X249.283Y-104.416
X177.894Y-61.731
X180.249Y-60.779
X182.604Y-59.828
X184.959Y-58.876
X100.643Y-136.541
X102.671Y-138.07
X104.7Y-139.598
X106.728Y-141.127
X115.734Y-143.501
X117.263Y-141.473
X118.792Y-139.444
X120.32Y-137.416
X54.441Y-104.608
X55.392Y-102.253
X56.344Y-99.898
X57.295Y-97.543
X118.033Y-59.01
X120.388Y-59.962
X122.743Y-60.913
X125.098Y-61.865
X185.5Y-79.04
X187.855Y-78.088
X190.21Y-77.137
X192.565Y-76.185
X151.559Y-87.678
X151.559Y-90.218
X151.559Y-92.758
X151.559Y-95.298
T5
X117.011Y-107.239
X120.861Y-111.059
X78.398Y-104.042
X82.247Y-107.862
X111.846Y-70.639
X115.695Y-74.459
X98.735Y-103.091
X102.584Y-106.911
X189.693Y-79.721
X195.115Y-79.795
X130.123Y-74.788
X133.972Y-78.608
X196.248Y-95.947
X201.671Y-96.021
X105.29Y-86.865
X109.139Y-90.685
X123.567Y-91.014
X127.416Y-94.834
X235.611Y-94.603
X241.034Y-94.677
X171.416Y-83.87
X176.839Y-83.944
X177.972Y-100.095
X183.394Y-100.169
X216.585Y-96.897
X222.008Y-96.971
X59.372Y-101.747
X63.221Y-105.567
X164.86Y-67.644
X170.283Y-67.718
X183.137Y-63.495
X188.56Y-63.569
T6
X144.092Y-87.252
X144.092Y-89.792
X144.092Y-92.332
X144.092Y-94.872
X144.092Y-97.412
X144.092Y-99.952
X144.092Y-102.492
X144.092Y-105.032
X144.092Y-107.572
X144.092Y-110.112
X144.092Y-112.652
X144.092Y-115.192
X159.332Y-87.252
X159.332Y-89.792
X159.332Y-92.332
X159.332Y-94.872
X159.332Y-97.412
X159.332Y-99.952
X159.332Y-102.492
X159.332Y-105.032
X159.332Y-107.572
X159.332Y-110.112
X159.332Y-112.652
X159.332Y-115.192
T0
M30
