%FSLAX45Y45*%
G04 Gerber Fmt 4.5, Leading zero omitted, Abs format (unit mm)*
G04 Created by KiCad (PCBNEW (5.1.4)-1) date 2023-12-29 13:05:53*
%MOMM*%
%LPD*%
G04 APERTURE LIST*
%ADD10C,0.050000*%
%ADD11C,0.200000*%
%ADD12C,0.300000*%
G04 APERTURE END LIST*
D10*
X19937407Y-1983763D02*
X22243295Y-243223D01*
X8772683Y-241819D02*
X11078571Y-1982360D01*
X19035877Y-2247825D02*
X19937407Y-1983763D01*
X16155876Y3862175D02*
X15585876Y5272175D01*
X11965876Y-2247825D02*
X19035877Y-2247825D01*
X13205876Y-217825D02*
X9895583Y1202721D01*
X17805877Y-217825D02*
X16155876Y3862175D01*
X13205876Y-217825D02*
X14855876Y3862175D01*
X11965876Y-2247825D02*
X11078571Y-1982360D01*
X17805877Y-217825D02*
X21120396Y1201318D01*
X14855876Y3862175D02*
X15425876Y5272175D01*
X15585876Y5272175D02*
X15425876Y5272175D01*
X22104504Y153687D02*
X21319224Y1163010D01*
X9895583Y1202721D02*
X9696755Y1164414D01*
X8911474Y155090D02*
X8772683Y-241819D01*
X22104504Y153687D02*
X22243295Y-243223D01*
X21120396Y1201318D02*
X21319224Y1163010D01*
X8911474Y155090D02*
X9696755Y1164414D01*
D11*
X9403911Y694322D02*
X9574091Y524142D01*
X9574091Y694322D02*
X9403911Y524142D01*
X20579639Y35586D02*
X20749819Y-134594D01*
X20749819Y35586D02*
X20579639Y-134594D01*
X21458138Y697582D02*
X21628318Y527402D01*
X21628318Y697582D02*
X21458138Y527402D01*
X10881387Y-419036D02*
X11051567Y-589216D01*
X11051567Y-419036D02*
X10881387Y-589216D01*
X11759886Y-1081032D02*
X11930066Y-1251212D01*
X11930066Y-1081032D02*
X11759886Y-1251212D01*
X19102164Y-1077772D02*
X19272344Y-1247952D01*
X19272344Y-1077772D02*
X19102164Y-1247952D01*
X19980663Y-415776D02*
X20150843Y-585956D01*
X20150843Y-415776D02*
X19980663Y-585956D01*
X10282410Y32325D02*
X10452590Y-137855D01*
X10452590Y32325D02*
X10282410Y-137855D01*
X11913806Y-359936D02*
G75*
G03X11913806Y-359936I-150000J0D01*
G01*
X12180725Y-836543D02*
G75*
G03X12180725Y-836543I-150000J0D01*
G01*
X19602866Y-1432260D02*
G75*
G03X19602866Y-1432260I-150000J0D01*
G01*
X20134583Y-1307052D02*
G75*
G03X20134583Y-1307052I-150000J0D01*
G01*
X10436331Y753422D02*
G75*
G03X10436331Y753422I-150000J0D01*
G01*
X10703249Y276815D02*
G75*
G03X10703249Y276815I-150000J0D01*
G01*
X21080342Y-318902D02*
G75*
G03X21080342Y-318902I-150000J0D01*
G01*
X21612059Y-193694D02*
G75*
G03X21612059Y-193694I-150000J0D01*
G01*
X9928251Y449684D02*
X9928251Y106784D01*
X9756801Y278234D02*
X10099701Y278234D01*
X21103979Y452944D02*
X21103979Y110044D01*
X20932529Y281494D02*
X21275429Y281494D01*
X11405726Y-663674D02*
X11405726Y-1006574D01*
X11234276Y-835124D02*
X11577176Y-835124D01*
X19626503Y-660414D02*
X19626503Y-1003314D01*
X19455053Y-831864D02*
X19797953Y-831864D01*
D12*
X9056612Y-2716039D02*
X9056612Y-2416039D01*
X9128040Y-2416039D01*
X9170897Y-2430325D01*
X9199469Y-2458896D01*
X9213754Y-2487468D01*
X9228040Y-2544611D01*
X9228040Y-2587468D01*
X9213754Y-2644611D01*
X9199469Y-2673182D01*
X9170897Y-2701754D01*
X9128040Y-2716039D01*
X9056612Y-2716039D01*
X9356612Y-2716039D02*
X9356612Y-2516039D01*
X9356612Y-2573182D02*
X9370897Y-2544611D01*
X9385183Y-2530325D01*
X9413754Y-2516039D01*
X9442326Y-2516039D01*
X9542326Y-2716039D02*
X9542326Y-2516039D01*
X9542326Y-2416039D02*
X9528040Y-2430325D01*
X9542326Y-2444611D01*
X9556612Y-2430325D01*
X9542326Y-2416039D01*
X9542326Y-2444611D01*
X9728040Y-2716039D02*
X9699469Y-2701754D01*
X9685183Y-2673182D01*
X9685183Y-2416039D01*
X9885183Y-2716039D02*
X9856612Y-2701754D01*
X9842326Y-2673182D01*
X9842326Y-2416039D01*
X10228040Y-2716039D02*
X10228040Y-2416039D01*
X10328040Y-2630325D01*
X10428040Y-2416039D01*
X10428040Y-2716039D01*
X10699469Y-2716039D02*
X10699469Y-2558896D01*
X10685183Y-2530325D01*
X10656612Y-2516039D01*
X10599469Y-2516039D01*
X10570897Y-2530325D01*
X10699469Y-2701754D02*
X10670897Y-2716039D01*
X10599469Y-2716039D01*
X10570897Y-2701754D01*
X10556612Y-2673182D01*
X10556612Y-2644611D01*
X10570897Y-2616039D01*
X10599469Y-2601754D01*
X10670897Y-2601754D01*
X10699469Y-2587468D01*
X10842326Y-2516039D02*
X10842326Y-2816039D01*
X10842326Y-2530325D02*
X10870897Y-2516039D01*
X10928040Y-2516039D01*
X10956612Y-2530325D01*
X10970897Y-2544611D01*
X10985183Y-2573182D01*
X10985183Y-2658896D01*
X10970897Y-2687468D01*
X10956612Y-2701754D01*
X10928040Y-2716039D01*
X10870897Y-2716039D01*
X10842326Y-2701754D01*
X11113754Y-2687468D02*
X11128040Y-2701754D01*
X11113754Y-2716039D01*
X11099469Y-2701754D01*
X11113754Y-2687468D01*
X11113754Y-2716039D01*
X11113754Y-2530325D02*
X11128040Y-2544611D01*
X11113754Y-2558896D01*
X11099469Y-2544611D01*
X11113754Y-2530325D01*
X11113754Y-2558896D01*
X8600003Y-3125235D02*
X8770183Y-3295415D01*
X8770183Y-3125235D02*
X8600003Y-3295415D01*
X9213754Y-3346039D02*
X9042326Y-3346039D01*
X9128040Y-3346039D02*
X9128040Y-3046039D01*
X9099469Y-3088896D01*
X9070897Y-3117468D01*
X9042326Y-3131753D01*
X9342326Y-3317468D02*
X9356612Y-3331753D01*
X9342326Y-3346039D01*
X9328040Y-3331753D01*
X9342326Y-3317468D01*
X9342326Y-3346039D01*
X9456612Y-3046039D02*
X9656612Y-3046039D01*
X9528040Y-3346039D01*
X9828040Y-3046039D02*
X9856612Y-3046039D01*
X9885183Y-3060325D01*
X9899469Y-3074611D01*
X9913754Y-3103182D01*
X9928040Y-3160325D01*
X9928040Y-3231753D01*
X9913754Y-3288896D01*
X9899469Y-3317468D01*
X9885183Y-3331753D01*
X9856612Y-3346039D01*
X9828040Y-3346039D01*
X9799469Y-3331753D01*
X9785183Y-3317468D01*
X9770897Y-3288896D01*
X9756612Y-3231753D01*
X9756612Y-3160325D01*
X9770897Y-3103182D01*
X9785183Y-3074611D01*
X9799469Y-3060325D01*
X9828040Y-3046039D01*
X10056612Y-3346039D02*
X10056612Y-3146039D01*
X10056612Y-3174611D02*
X10070897Y-3160325D01*
X10099469Y-3146039D01*
X10142326Y-3146039D01*
X10170897Y-3160325D01*
X10185183Y-3188896D01*
X10185183Y-3346039D01*
X10185183Y-3188896D02*
X10199469Y-3160325D01*
X10228040Y-3146039D01*
X10270897Y-3146039D01*
X10299469Y-3160325D01*
X10313754Y-3188896D01*
X10313754Y-3346039D01*
X10456612Y-3346039D02*
X10456612Y-3146039D01*
X10456612Y-3174611D02*
X10470897Y-3160325D01*
X10499469Y-3146039D01*
X10542326Y-3146039D01*
X10570897Y-3160325D01*
X10585183Y-3188896D01*
X10585183Y-3346039D01*
X10585183Y-3188896D02*
X10599469Y-3160325D01*
X10628040Y-3146039D01*
X10670897Y-3146039D01*
X10699469Y-3160325D01*
X10713754Y-3188896D01*
X10713754Y-3346039D01*
X11299469Y-3031753D02*
X11042326Y-3417468D01*
X11685183Y-3046039D02*
X11713754Y-3046039D01*
X11742326Y-3060325D01*
X11756611Y-3074611D01*
X11770897Y-3103182D01*
X11785183Y-3160325D01*
X11785183Y-3231753D01*
X11770897Y-3288896D01*
X11756611Y-3317468D01*
X11742326Y-3331753D01*
X11713754Y-3346039D01*
X11685183Y-3346039D01*
X11656611Y-3331753D01*
X11642326Y-3317468D01*
X11628040Y-3288896D01*
X11613754Y-3231753D01*
X11613754Y-3160325D01*
X11628040Y-3103182D01*
X11642326Y-3074611D01*
X11656611Y-3060325D01*
X11685183Y-3046039D01*
X11913754Y-3317468D02*
X11928040Y-3331753D01*
X11913754Y-3346039D01*
X11899469Y-3331753D01*
X11913754Y-3317468D01*
X11913754Y-3346039D01*
X12113754Y-3046039D02*
X12142326Y-3046039D01*
X12170897Y-3060325D01*
X12185183Y-3074611D01*
X12199469Y-3103182D01*
X12213754Y-3160325D01*
X12213754Y-3231753D01*
X12199469Y-3288896D01*
X12185183Y-3317468D01*
X12170897Y-3331753D01*
X12142326Y-3346039D01*
X12113754Y-3346039D01*
X12085183Y-3331753D01*
X12070897Y-3317468D01*
X12056611Y-3288896D01*
X12042326Y-3231753D01*
X12042326Y-3160325D01*
X12056611Y-3103182D01*
X12070897Y-3074611D01*
X12085183Y-3060325D01*
X12113754Y-3046039D01*
X12470897Y-3046039D02*
X12413754Y-3046039D01*
X12385183Y-3060325D01*
X12370897Y-3074611D01*
X12342326Y-3117468D01*
X12328040Y-3174611D01*
X12328040Y-3288896D01*
X12342326Y-3317468D01*
X12356611Y-3331753D01*
X12385183Y-3346039D01*
X12442326Y-3346039D01*
X12470897Y-3331753D01*
X12485183Y-3317468D01*
X12499469Y-3288896D01*
X12499469Y-3217468D01*
X12485183Y-3188896D01*
X12470897Y-3174611D01*
X12442326Y-3160325D01*
X12385183Y-3160325D01*
X12356611Y-3174611D01*
X12342326Y-3188896D01*
X12328040Y-3217468D01*
X12599469Y-3046039D02*
X12799469Y-3046039D01*
X12670897Y-3346039D01*
X12899469Y-3046039D02*
X12899469Y-3103182D01*
X13013754Y-3046039D02*
X13013754Y-3103182D01*
X13456611Y-3460325D02*
X13442326Y-3446039D01*
X13413754Y-3403182D01*
X13399469Y-3374611D01*
X13385183Y-3331753D01*
X13370897Y-3260325D01*
X13370897Y-3203182D01*
X13385183Y-3131753D01*
X13399469Y-3088896D01*
X13413754Y-3060325D01*
X13442326Y-3017468D01*
X13456611Y-3003182D01*
X13613754Y-3174611D02*
X13585183Y-3160325D01*
X13570897Y-3146039D01*
X13556611Y-3117468D01*
X13556611Y-3103182D01*
X13570897Y-3074611D01*
X13585183Y-3060325D01*
X13613754Y-3046039D01*
X13670897Y-3046039D01*
X13699469Y-3060325D01*
X13713754Y-3074611D01*
X13728040Y-3103182D01*
X13728040Y-3117468D01*
X13713754Y-3146039D01*
X13699469Y-3160325D01*
X13670897Y-3174611D01*
X13613754Y-3174611D01*
X13585183Y-3188896D01*
X13570897Y-3203182D01*
X13556611Y-3231753D01*
X13556611Y-3288896D01*
X13570897Y-3317468D01*
X13585183Y-3331753D01*
X13613754Y-3346039D01*
X13670897Y-3346039D01*
X13699469Y-3331753D01*
X13713754Y-3317468D01*
X13728040Y-3288896D01*
X13728040Y-3231753D01*
X13713754Y-3203182D01*
X13699469Y-3188896D01*
X13670897Y-3174611D01*
X14085183Y-3346039D02*
X14085183Y-3046039D01*
X14213754Y-3346039D02*
X14213754Y-3188896D01*
X14199469Y-3160325D01*
X14170897Y-3146039D01*
X14128040Y-3146039D01*
X14099469Y-3160325D01*
X14085183Y-3174611D01*
X14399469Y-3346039D02*
X14370897Y-3331753D01*
X14356611Y-3317468D01*
X14342326Y-3288896D01*
X14342326Y-3203182D01*
X14356611Y-3174611D01*
X14370897Y-3160325D01*
X14399469Y-3146039D01*
X14442326Y-3146039D01*
X14470897Y-3160325D01*
X14485183Y-3174611D01*
X14499469Y-3203182D01*
X14499469Y-3288896D01*
X14485183Y-3317468D01*
X14470897Y-3331753D01*
X14442326Y-3346039D01*
X14399469Y-3346039D01*
X14670897Y-3346039D02*
X14642326Y-3331753D01*
X14628040Y-3303182D01*
X14628040Y-3046039D01*
X14899469Y-3331753D02*
X14870897Y-3346039D01*
X14813754Y-3346039D01*
X14785183Y-3331753D01*
X14770897Y-3303182D01*
X14770897Y-3188896D01*
X14785183Y-3160325D01*
X14813754Y-3146039D01*
X14870897Y-3146039D01*
X14899469Y-3160325D01*
X14913754Y-3188896D01*
X14913754Y-3217468D01*
X14770897Y-3246039D01*
X15028040Y-3331753D02*
X15056611Y-3346039D01*
X15113754Y-3346039D01*
X15142326Y-3331753D01*
X15156611Y-3303182D01*
X15156611Y-3288896D01*
X15142326Y-3260325D01*
X15113754Y-3246039D01*
X15070897Y-3246039D01*
X15042326Y-3231753D01*
X15028040Y-3203182D01*
X15028040Y-3188896D01*
X15042326Y-3160325D01*
X15070897Y-3146039D01*
X15113754Y-3146039D01*
X15142326Y-3160325D01*
X15256611Y-3460325D02*
X15270897Y-3446039D01*
X15299469Y-3403182D01*
X15313754Y-3374611D01*
X15328040Y-3331753D01*
X15342326Y-3260325D01*
X15342326Y-3203182D01*
X15328040Y-3131753D01*
X15313754Y-3088896D01*
X15299469Y-3060325D01*
X15270897Y-3017468D01*
X15256611Y-3003182D01*
X15799469Y-3460325D02*
X15785183Y-3446039D01*
X15756611Y-3403182D01*
X15742326Y-3374611D01*
X15728040Y-3331753D01*
X15713754Y-3260325D01*
X15713754Y-3203182D01*
X15728040Y-3131753D01*
X15742326Y-3088896D01*
X15756611Y-3060325D01*
X15785183Y-3017468D01*
X15799469Y-3003182D01*
X15913754Y-3146039D02*
X15913754Y-3346039D01*
X15913754Y-3174611D02*
X15928040Y-3160325D01*
X15956611Y-3146039D01*
X15999469Y-3146039D01*
X16028040Y-3160325D01*
X16042326Y-3188896D01*
X16042326Y-3346039D01*
X16228040Y-3346039D02*
X16199469Y-3331753D01*
X16185183Y-3317468D01*
X16170897Y-3288896D01*
X16170897Y-3203182D01*
X16185183Y-3174611D01*
X16199469Y-3160325D01*
X16228040Y-3146039D01*
X16270897Y-3146039D01*
X16299469Y-3160325D01*
X16313754Y-3174611D01*
X16328040Y-3203182D01*
X16328040Y-3288896D01*
X16313754Y-3317468D01*
X16299469Y-3331753D01*
X16270897Y-3346039D01*
X16228040Y-3346039D01*
X16413754Y-3146039D02*
X16528040Y-3146039D01*
X16456611Y-3046039D02*
X16456611Y-3303182D01*
X16470897Y-3331753D01*
X16499469Y-3346039D01*
X16528040Y-3346039D01*
X16856612Y-3146039D02*
X16856612Y-3446039D01*
X16856612Y-3160325D02*
X16885183Y-3146039D01*
X16942326Y-3146039D01*
X16970897Y-3160325D01*
X16985183Y-3174611D01*
X16999469Y-3203182D01*
X16999469Y-3288896D01*
X16985183Y-3317468D01*
X16970897Y-3331753D01*
X16942326Y-3346039D01*
X16885183Y-3346039D01*
X16856612Y-3331753D01*
X17170897Y-3346039D02*
X17142326Y-3331753D01*
X17128040Y-3303182D01*
X17128040Y-3046039D01*
X17413754Y-3346039D02*
X17413754Y-3188896D01*
X17399469Y-3160325D01*
X17370897Y-3146039D01*
X17313754Y-3146039D01*
X17285183Y-3160325D01*
X17413754Y-3331753D02*
X17385183Y-3346039D01*
X17313754Y-3346039D01*
X17285183Y-3331753D01*
X17270897Y-3303182D01*
X17270897Y-3274611D01*
X17285183Y-3246039D01*
X17313754Y-3231753D01*
X17385183Y-3231753D01*
X17413754Y-3217468D01*
X17513754Y-3146039D02*
X17628040Y-3146039D01*
X17556612Y-3046039D02*
X17556612Y-3303182D01*
X17570897Y-3331753D01*
X17599469Y-3346039D01*
X17628040Y-3346039D01*
X17842326Y-3331753D02*
X17813754Y-3346039D01*
X17756612Y-3346039D01*
X17728040Y-3331753D01*
X17713754Y-3303182D01*
X17713754Y-3188896D01*
X17728040Y-3160325D01*
X17756612Y-3146039D01*
X17813754Y-3146039D01*
X17842326Y-3160325D01*
X17856612Y-3188896D01*
X17856612Y-3217468D01*
X17713754Y-3246039D01*
X18113754Y-3346039D02*
X18113754Y-3046039D01*
X18113754Y-3331753D02*
X18085183Y-3346039D01*
X18028040Y-3346039D01*
X17999469Y-3331753D01*
X17985183Y-3317468D01*
X17970897Y-3288896D01*
X17970897Y-3203182D01*
X17985183Y-3174611D01*
X17999469Y-3160325D01*
X18028040Y-3146039D01*
X18085183Y-3146039D01*
X18113754Y-3160325D01*
X18228040Y-3460325D02*
X18242326Y-3446039D01*
X18270897Y-3403182D01*
X18285183Y-3374611D01*
X18299469Y-3331753D01*
X18313754Y-3260325D01*
X18313754Y-3203182D01*
X18299469Y-3131753D01*
X18285183Y-3088896D01*
X18270897Y-3060325D01*
X18242326Y-3017468D01*
X18228040Y-3003182D01*
X8770183Y-3606325D02*
G75*
G03X8770183Y-3606325I-150000J0D01*
G01*
X9028040Y-3442039D02*
X9213754Y-3442039D01*
X9113754Y-3556325D01*
X9156612Y-3556325D01*
X9185183Y-3570611D01*
X9199469Y-3584896D01*
X9213754Y-3613468D01*
X9213754Y-3684896D01*
X9199469Y-3713468D01*
X9185183Y-3727753D01*
X9156612Y-3742039D01*
X9070897Y-3742039D01*
X9042326Y-3727753D01*
X9028040Y-3713468D01*
X9342326Y-3713468D02*
X9356612Y-3727753D01*
X9342326Y-3742039D01*
X9328040Y-3727753D01*
X9342326Y-3713468D01*
X9342326Y-3742039D01*
X9542326Y-3442039D02*
X9570897Y-3442039D01*
X9599469Y-3456325D01*
X9613754Y-3470611D01*
X9628040Y-3499182D01*
X9642326Y-3556325D01*
X9642326Y-3627753D01*
X9628040Y-3684896D01*
X9613754Y-3713468D01*
X9599469Y-3727753D01*
X9570897Y-3742039D01*
X9542326Y-3742039D01*
X9513754Y-3727753D01*
X9499469Y-3713468D01*
X9485183Y-3684896D01*
X9470897Y-3627753D01*
X9470897Y-3556325D01*
X9485183Y-3499182D01*
X9499469Y-3470611D01*
X9513754Y-3456325D01*
X9542326Y-3442039D01*
X9828040Y-3442039D02*
X9856612Y-3442039D01*
X9885183Y-3456325D01*
X9899469Y-3470611D01*
X9913754Y-3499182D01*
X9928040Y-3556325D01*
X9928040Y-3627753D01*
X9913754Y-3684896D01*
X9899469Y-3713468D01*
X9885183Y-3727753D01*
X9856612Y-3742039D01*
X9828040Y-3742039D01*
X9799469Y-3727753D01*
X9785183Y-3713468D01*
X9770897Y-3684896D01*
X9756612Y-3627753D01*
X9756612Y-3556325D01*
X9770897Y-3499182D01*
X9785183Y-3470611D01*
X9799469Y-3456325D01*
X9828040Y-3442039D01*
X10056612Y-3742039D02*
X10056612Y-3542039D01*
X10056612Y-3570611D02*
X10070897Y-3556325D01*
X10099469Y-3542039D01*
X10142326Y-3542039D01*
X10170897Y-3556325D01*
X10185183Y-3584896D01*
X10185183Y-3742039D01*
X10185183Y-3584896D02*
X10199469Y-3556325D01*
X10228040Y-3542039D01*
X10270897Y-3542039D01*
X10299469Y-3556325D01*
X10313754Y-3584896D01*
X10313754Y-3742039D01*
X10456612Y-3742039D02*
X10456612Y-3542039D01*
X10456612Y-3570611D02*
X10470897Y-3556325D01*
X10499469Y-3542039D01*
X10542326Y-3542039D01*
X10570897Y-3556325D01*
X10585183Y-3584896D01*
X10585183Y-3742039D01*
X10585183Y-3584896D02*
X10599469Y-3556325D01*
X10628040Y-3542039D01*
X10670897Y-3542039D01*
X10699469Y-3556325D01*
X10713754Y-3584896D01*
X10713754Y-3742039D01*
X11299469Y-3427753D02*
X11042326Y-3813468D01*
X11685183Y-3442039D02*
X11713754Y-3442039D01*
X11742326Y-3456325D01*
X11756611Y-3470611D01*
X11770897Y-3499182D01*
X11785183Y-3556325D01*
X11785183Y-3627753D01*
X11770897Y-3684896D01*
X11756611Y-3713468D01*
X11742326Y-3727753D01*
X11713754Y-3742039D01*
X11685183Y-3742039D01*
X11656611Y-3727753D01*
X11642326Y-3713468D01*
X11628040Y-3684896D01*
X11613754Y-3627753D01*
X11613754Y-3556325D01*
X11628040Y-3499182D01*
X11642326Y-3470611D01*
X11656611Y-3456325D01*
X11685183Y-3442039D01*
X11913754Y-3713468D02*
X11928040Y-3727753D01*
X11913754Y-3742039D01*
X11899469Y-3727753D01*
X11913754Y-3713468D01*
X11913754Y-3742039D01*
X12213754Y-3742039D02*
X12042326Y-3742039D01*
X12128040Y-3742039D02*
X12128040Y-3442039D01*
X12099469Y-3484896D01*
X12070897Y-3513468D01*
X12042326Y-3527753D01*
X12499469Y-3742039D02*
X12328040Y-3742039D01*
X12413754Y-3742039D02*
X12413754Y-3442039D01*
X12385183Y-3484896D01*
X12356611Y-3513468D01*
X12328040Y-3527753D01*
X12670897Y-3570611D02*
X12642326Y-3556325D01*
X12628040Y-3542039D01*
X12613754Y-3513468D01*
X12613754Y-3499182D01*
X12628040Y-3470611D01*
X12642326Y-3456325D01*
X12670897Y-3442039D01*
X12728040Y-3442039D01*
X12756611Y-3456325D01*
X12770897Y-3470611D01*
X12785183Y-3499182D01*
X12785183Y-3513468D01*
X12770897Y-3542039D01*
X12756611Y-3556325D01*
X12728040Y-3570611D01*
X12670897Y-3570611D01*
X12642326Y-3584896D01*
X12628040Y-3599182D01*
X12613754Y-3627753D01*
X12613754Y-3684896D01*
X12628040Y-3713468D01*
X12642326Y-3727753D01*
X12670897Y-3742039D01*
X12728040Y-3742039D01*
X12756611Y-3727753D01*
X12770897Y-3713468D01*
X12785183Y-3684896D01*
X12785183Y-3627753D01*
X12770897Y-3599182D01*
X12756611Y-3584896D01*
X12728040Y-3570611D01*
X12899469Y-3442039D02*
X12899469Y-3499182D01*
X13013754Y-3442039D02*
X13013754Y-3499182D01*
X13456611Y-3856325D02*
X13442326Y-3842039D01*
X13413754Y-3799182D01*
X13399469Y-3770611D01*
X13385183Y-3727753D01*
X13370897Y-3656325D01*
X13370897Y-3599182D01*
X13385183Y-3527753D01*
X13399469Y-3484896D01*
X13413754Y-3456325D01*
X13442326Y-3413468D01*
X13456611Y-3399182D01*
X13613754Y-3570611D02*
X13585183Y-3556325D01*
X13570897Y-3542039D01*
X13556611Y-3513468D01*
X13556611Y-3499182D01*
X13570897Y-3470611D01*
X13585183Y-3456325D01*
X13613754Y-3442039D01*
X13670897Y-3442039D01*
X13699469Y-3456325D01*
X13713754Y-3470611D01*
X13728040Y-3499182D01*
X13728040Y-3513468D01*
X13713754Y-3542039D01*
X13699469Y-3556325D01*
X13670897Y-3570611D01*
X13613754Y-3570611D01*
X13585183Y-3584896D01*
X13570897Y-3599182D01*
X13556611Y-3627753D01*
X13556611Y-3684896D01*
X13570897Y-3713468D01*
X13585183Y-3727753D01*
X13613754Y-3742039D01*
X13670897Y-3742039D01*
X13699469Y-3727753D01*
X13713754Y-3713468D01*
X13728040Y-3684896D01*
X13728040Y-3627753D01*
X13713754Y-3599182D01*
X13699469Y-3584896D01*
X13670897Y-3570611D01*
X14085183Y-3742039D02*
X14085183Y-3442039D01*
X14213754Y-3742039D02*
X14213754Y-3584896D01*
X14199469Y-3556325D01*
X14170897Y-3542039D01*
X14128040Y-3542039D01*
X14099469Y-3556325D01*
X14085183Y-3570611D01*
X14399469Y-3742039D02*
X14370897Y-3727753D01*
X14356611Y-3713468D01*
X14342326Y-3684896D01*
X14342326Y-3599182D01*
X14356611Y-3570611D01*
X14370897Y-3556325D01*
X14399469Y-3542039D01*
X14442326Y-3542039D01*
X14470897Y-3556325D01*
X14485183Y-3570611D01*
X14499469Y-3599182D01*
X14499469Y-3684896D01*
X14485183Y-3713468D01*
X14470897Y-3727753D01*
X14442326Y-3742039D01*
X14399469Y-3742039D01*
X14670897Y-3742039D02*
X14642326Y-3727753D01*
X14628040Y-3699182D01*
X14628040Y-3442039D01*
X14899469Y-3727753D02*
X14870897Y-3742039D01*
X14813754Y-3742039D01*
X14785183Y-3727753D01*
X14770897Y-3699182D01*
X14770897Y-3584896D01*
X14785183Y-3556325D01*
X14813754Y-3542039D01*
X14870897Y-3542039D01*
X14899469Y-3556325D01*
X14913754Y-3584896D01*
X14913754Y-3613468D01*
X14770897Y-3642039D01*
X15028040Y-3727753D02*
X15056611Y-3742039D01*
X15113754Y-3742039D01*
X15142326Y-3727753D01*
X15156611Y-3699182D01*
X15156611Y-3684896D01*
X15142326Y-3656325D01*
X15113754Y-3642039D01*
X15070897Y-3642039D01*
X15042326Y-3627753D01*
X15028040Y-3599182D01*
X15028040Y-3584896D01*
X15042326Y-3556325D01*
X15070897Y-3542039D01*
X15113754Y-3542039D01*
X15142326Y-3556325D01*
X15256611Y-3856325D02*
X15270897Y-3842039D01*
X15299469Y-3799182D01*
X15313754Y-3770611D01*
X15328040Y-3727753D01*
X15342326Y-3656325D01*
X15342326Y-3599182D01*
X15328040Y-3527753D01*
X15313754Y-3484896D01*
X15299469Y-3456325D01*
X15270897Y-3413468D01*
X15256611Y-3399182D01*
X15799469Y-3856325D02*
X15785183Y-3842039D01*
X15756611Y-3799182D01*
X15742326Y-3770611D01*
X15728040Y-3727753D01*
X15713754Y-3656325D01*
X15713754Y-3599182D01*
X15728040Y-3527753D01*
X15742326Y-3484896D01*
X15756611Y-3456325D01*
X15785183Y-3413468D01*
X15799469Y-3399182D01*
X15913754Y-3542039D02*
X15913754Y-3742039D01*
X15913754Y-3570611D02*
X15928040Y-3556325D01*
X15956611Y-3542039D01*
X15999469Y-3542039D01*
X16028040Y-3556325D01*
X16042326Y-3584896D01*
X16042326Y-3742039D01*
X16228040Y-3742039D02*
X16199469Y-3727753D01*
X16185183Y-3713468D01*
X16170897Y-3684896D01*
X16170897Y-3599182D01*
X16185183Y-3570611D01*
X16199469Y-3556325D01*
X16228040Y-3542039D01*
X16270897Y-3542039D01*
X16299469Y-3556325D01*
X16313754Y-3570611D01*
X16328040Y-3599182D01*
X16328040Y-3684896D01*
X16313754Y-3713468D01*
X16299469Y-3727753D01*
X16270897Y-3742039D01*
X16228040Y-3742039D01*
X16413754Y-3542039D02*
X16528040Y-3542039D01*
X16456611Y-3442039D02*
X16456611Y-3699182D01*
X16470897Y-3727753D01*
X16499469Y-3742039D01*
X16528040Y-3742039D01*
X16856612Y-3542039D02*
X16856612Y-3842039D01*
X16856612Y-3556325D02*
X16885183Y-3542039D01*
X16942326Y-3542039D01*
X16970897Y-3556325D01*
X16985183Y-3570611D01*
X16999469Y-3599182D01*
X16999469Y-3684896D01*
X16985183Y-3713468D01*
X16970897Y-3727753D01*
X16942326Y-3742039D01*
X16885183Y-3742039D01*
X16856612Y-3727753D01*
X17170897Y-3742039D02*
X17142326Y-3727753D01*
X17128040Y-3699182D01*
X17128040Y-3442039D01*
X17413754Y-3742039D02*
X17413754Y-3584896D01*
X17399469Y-3556325D01*
X17370897Y-3542039D01*
X17313754Y-3542039D01*
X17285183Y-3556325D01*
X17413754Y-3727753D02*
X17385183Y-3742039D01*
X17313754Y-3742039D01*
X17285183Y-3727753D01*
X17270897Y-3699182D01*
X17270897Y-3670611D01*
X17285183Y-3642039D01*
X17313754Y-3627753D01*
X17385183Y-3627753D01*
X17413754Y-3613468D01*
X17513754Y-3542039D02*
X17628040Y-3542039D01*
X17556612Y-3442039D02*
X17556612Y-3699182D01*
X17570897Y-3727753D01*
X17599469Y-3742039D01*
X17628040Y-3742039D01*
X17842326Y-3727753D02*
X17813754Y-3742039D01*
X17756612Y-3742039D01*
X17728040Y-3727753D01*
X17713754Y-3699182D01*
X17713754Y-3584896D01*
X17728040Y-3556325D01*
X17756612Y-3542039D01*
X17813754Y-3542039D01*
X17842326Y-3556325D01*
X17856612Y-3584896D01*
X17856612Y-3613468D01*
X17713754Y-3642039D01*
X18113754Y-3742039D02*
X18113754Y-3442039D01*
X18113754Y-3727753D02*
X18085183Y-3742039D01*
X18028040Y-3742039D01*
X17999469Y-3727753D01*
X17985183Y-3713468D01*
X17970897Y-3684896D01*
X17970897Y-3599182D01*
X17985183Y-3570611D01*
X17999469Y-3556325D01*
X18028040Y-3542039D01*
X18085183Y-3542039D01*
X18113754Y-3556325D01*
X18228040Y-3856325D02*
X18242326Y-3842039D01*
X18270897Y-3799182D01*
X18285183Y-3770611D01*
X18299469Y-3727753D01*
X18313754Y-3656325D01*
X18313754Y-3599182D01*
X18299469Y-3527753D01*
X18285183Y-3484896D01*
X18270897Y-3456325D01*
X18242326Y-3413468D01*
X18228040Y-3399182D01*
X8598733Y-3864875D02*
X8598733Y-4207775D01*
X8427283Y-4036325D02*
X8770183Y-4036325D01*
X9028040Y-3872039D02*
X9213754Y-3872039D01*
X9113754Y-3986325D01*
X9156612Y-3986325D01*
X9185183Y-4000611D01*
X9199469Y-4014896D01*
X9213754Y-4043468D01*
X9213754Y-4114896D01*
X9199469Y-4143468D01*
X9185183Y-4157753D01*
X9156612Y-4172039D01*
X9070897Y-4172039D01*
X9042326Y-4157753D01*
X9028040Y-4143468D01*
X9342326Y-4143468D02*
X9356612Y-4157753D01*
X9342326Y-4172039D01*
X9328040Y-4157753D01*
X9342326Y-4143468D01*
X9342326Y-4172039D01*
X9613754Y-3972039D02*
X9613754Y-4172039D01*
X9542326Y-3857753D02*
X9470897Y-4072039D01*
X9656612Y-4072039D01*
X9742326Y-3872039D02*
X9928040Y-3872039D01*
X9828040Y-3986325D01*
X9870897Y-3986325D01*
X9899469Y-4000611D01*
X9913754Y-4014896D01*
X9928040Y-4043468D01*
X9928040Y-4114896D01*
X9913754Y-4143468D01*
X9899469Y-4157753D01*
X9870897Y-4172039D01*
X9785183Y-4172039D01*
X9756612Y-4157753D01*
X9742326Y-4143468D01*
X10056612Y-4172039D02*
X10056612Y-3972039D01*
X10056612Y-4000611D02*
X10070897Y-3986325D01*
X10099469Y-3972039D01*
X10142326Y-3972039D01*
X10170897Y-3986325D01*
X10185183Y-4014896D01*
X10185183Y-4172039D01*
X10185183Y-4014896D02*
X10199469Y-3986325D01*
X10228040Y-3972039D01*
X10270897Y-3972039D01*
X10299469Y-3986325D01*
X10313754Y-4014896D01*
X10313754Y-4172039D01*
X10456612Y-4172039D02*
X10456612Y-3972039D01*
X10456612Y-4000611D02*
X10470897Y-3986325D01*
X10499469Y-3972039D01*
X10542326Y-3972039D01*
X10570897Y-3986325D01*
X10585183Y-4014896D01*
X10585183Y-4172039D01*
X10585183Y-4014896D02*
X10599469Y-3986325D01*
X10628040Y-3972039D01*
X10670897Y-3972039D01*
X10699469Y-3986325D01*
X10713754Y-4014896D01*
X10713754Y-4172039D01*
X11299469Y-3857753D02*
X11042326Y-4243468D01*
X11685183Y-3872039D02*
X11713754Y-3872039D01*
X11742326Y-3886325D01*
X11756611Y-3900611D01*
X11770897Y-3929182D01*
X11785183Y-3986325D01*
X11785183Y-4057753D01*
X11770897Y-4114896D01*
X11756611Y-4143468D01*
X11742326Y-4157753D01*
X11713754Y-4172039D01*
X11685183Y-4172039D01*
X11656611Y-4157753D01*
X11642326Y-4143468D01*
X11628040Y-4114896D01*
X11613754Y-4057753D01*
X11613754Y-3986325D01*
X11628040Y-3929182D01*
X11642326Y-3900611D01*
X11656611Y-3886325D01*
X11685183Y-3872039D01*
X11913754Y-4143468D02*
X11928040Y-4157753D01*
X11913754Y-4172039D01*
X11899469Y-4157753D01*
X11913754Y-4143468D01*
X11913754Y-4172039D01*
X12213754Y-4172039D02*
X12042326Y-4172039D01*
X12128040Y-4172039D02*
X12128040Y-3872039D01*
X12099469Y-3914896D01*
X12070897Y-3943468D01*
X12042326Y-3957753D01*
X12313754Y-3872039D02*
X12499469Y-3872039D01*
X12399469Y-3986325D01*
X12442326Y-3986325D01*
X12470897Y-4000611D01*
X12485183Y-4014896D01*
X12499469Y-4043468D01*
X12499469Y-4114896D01*
X12485183Y-4143468D01*
X12470897Y-4157753D01*
X12442326Y-4172039D01*
X12356611Y-4172039D01*
X12328040Y-4157753D01*
X12313754Y-4143468D01*
X12770897Y-3872039D02*
X12628040Y-3872039D01*
X12613754Y-4014896D01*
X12628040Y-4000611D01*
X12656611Y-3986325D01*
X12728040Y-3986325D01*
X12756611Y-4000611D01*
X12770897Y-4014896D01*
X12785183Y-4043468D01*
X12785183Y-4114896D01*
X12770897Y-4143468D01*
X12756611Y-4157753D01*
X12728040Y-4172039D01*
X12656611Y-4172039D01*
X12628040Y-4157753D01*
X12613754Y-4143468D01*
X12899469Y-3872039D02*
X12899469Y-3929182D01*
X13013754Y-3872039D02*
X13013754Y-3929182D01*
X13456611Y-4286325D02*
X13442326Y-4272039D01*
X13413754Y-4229182D01*
X13399469Y-4200611D01*
X13385183Y-4157753D01*
X13370897Y-4086325D01*
X13370897Y-4029182D01*
X13385183Y-3957753D01*
X13399469Y-3914896D01*
X13413754Y-3886325D01*
X13442326Y-3843468D01*
X13456611Y-3829182D01*
X13699469Y-3972039D02*
X13699469Y-4172039D01*
X13628040Y-3857753D02*
X13556611Y-4072039D01*
X13742326Y-4072039D01*
X14085183Y-4172039D02*
X14085183Y-3872039D01*
X14213754Y-4172039D02*
X14213754Y-4014896D01*
X14199469Y-3986325D01*
X14170897Y-3972039D01*
X14128040Y-3972039D01*
X14099469Y-3986325D01*
X14085183Y-4000611D01*
X14399469Y-4172039D02*
X14370897Y-4157753D01*
X14356611Y-4143468D01*
X14342326Y-4114896D01*
X14342326Y-4029182D01*
X14356611Y-4000611D01*
X14370897Y-3986325D01*
X14399469Y-3972039D01*
X14442326Y-3972039D01*
X14470897Y-3986325D01*
X14485183Y-4000611D01*
X14499469Y-4029182D01*
X14499469Y-4114896D01*
X14485183Y-4143468D01*
X14470897Y-4157753D01*
X14442326Y-4172039D01*
X14399469Y-4172039D01*
X14670897Y-4172039D02*
X14642326Y-4157753D01*
X14628040Y-4129182D01*
X14628040Y-3872039D01*
X14899469Y-4157753D02*
X14870897Y-4172039D01*
X14813754Y-4172039D01*
X14785183Y-4157753D01*
X14770897Y-4129182D01*
X14770897Y-4014896D01*
X14785183Y-3986325D01*
X14813754Y-3972039D01*
X14870897Y-3972039D01*
X14899469Y-3986325D01*
X14913754Y-4014896D01*
X14913754Y-4043468D01*
X14770897Y-4072039D01*
X15028040Y-4157753D02*
X15056611Y-4172039D01*
X15113754Y-4172039D01*
X15142326Y-4157753D01*
X15156611Y-4129182D01*
X15156611Y-4114896D01*
X15142326Y-4086325D01*
X15113754Y-4072039D01*
X15070897Y-4072039D01*
X15042326Y-4057753D01*
X15028040Y-4029182D01*
X15028040Y-4014896D01*
X15042326Y-3986325D01*
X15070897Y-3972039D01*
X15113754Y-3972039D01*
X15142326Y-3986325D01*
X15256611Y-4286325D02*
X15270897Y-4272039D01*
X15299469Y-4229182D01*
X15313754Y-4200611D01*
X15328040Y-4157753D01*
X15342326Y-4086325D01*
X15342326Y-4029182D01*
X15328040Y-3957753D01*
X15313754Y-3914896D01*
X15299469Y-3886325D01*
X15270897Y-3843468D01*
X15256611Y-3829182D01*
X15799469Y-4286325D02*
X15785183Y-4272039D01*
X15756611Y-4229182D01*
X15742326Y-4200611D01*
X15728040Y-4157753D01*
X15713754Y-4086325D01*
X15713754Y-4029182D01*
X15728040Y-3957753D01*
X15742326Y-3914896D01*
X15756611Y-3886325D01*
X15785183Y-3843468D01*
X15799469Y-3829182D01*
X15913754Y-3972039D02*
X15913754Y-4172039D01*
X15913754Y-4000611D02*
X15928040Y-3986325D01*
X15956611Y-3972039D01*
X15999469Y-3972039D01*
X16028040Y-3986325D01*
X16042326Y-4014896D01*
X16042326Y-4172039D01*
X16228040Y-4172039D02*
X16199469Y-4157753D01*
X16185183Y-4143468D01*
X16170897Y-4114896D01*
X16170897Y-4029182D01*
X16185183Y-4000611D01*
X16199469Y-3986325D01*
X16228040Y-3972039D01*
X16270897Y-3972039D01*
X16299469Y-3986325D01*
X16313754Y-4000611D01*
X16328040Y-4029182D01*
X16328040Y-4114896D01*
X16313754Y-4143468D01*
X16299469Y-4157753D01*
X16270897Y-4172039D01*
X16228040Y-4172039D01*
X16413754Y-3972039D02*
X16528040Y-3972039D01*
X16456611Y-3872039D02*
X16456611Y-4129182D01*
X16470897Y-4157753D01*
X16499469Y-4172039D01*
X16528040Y-4172039D01*
X16856612Y-3972039D02*
X16856612Y-4272039D01*
X16856612Y-3986325D02*
X16885183Y-3972039D01*
X16942326Y-3972039D01*
X16970897Y-3986325D01*
X16985183Y-4000611D01*
X16999469Y-4029182D01*
X16999469Y-4114896D01*
X16985183Y-4143468D01*
X16970897Y-4157753D01*
X16942326Y-4172039D01*
X16885183Y-4172039D01*
X16856612Y-4157753D01*
X17170897Y-4172039D02*
X17142326Y-4157753D01*
X17128040Y-4129182D01*
X17128040Y-3872039D01*
X17413754Y-4172039D02*
X17413754Y-4014896D01*
X17399469Y-3986325D01*
X17370897Y-3972039D01*
X17313754Y-3972039D01*
X17285183Y-3986325D01*
X17413754Y-4157753D02*
X17385183Y-4172039D01*
X17313754Y-4172039D01*
X17285183Y-4157753D01*
X17270897Y-4129182D01*
X17270897Y-4100611D01*
X17285183Y-4072039D01*
X17313754Y-4057753D01*
X17385183Y-4057753D01*
X17413754Y-4043468D01*
X17513754Y-3972039D02*
X17628040Y-3972039D01*
X17556612Y-3872039D02*
X17556612Y-4129182D01*
X17570897Y-4157753D01*
X17599469Y-4172039D01*
X17628040Y-4172039D01*
X17842326Y-4157753D02*
X17813754Y-4172039D01*
X17756612Y-4172039D01*
X17728040Y-4157753D01*
X17713754Y-4129182D01*
X17713754Y-4014896D01*
X17728040Y-3986325D01*
X17756612Y-3972039D01*
X17813754Y-3972039D01*
X17842326Y-3986325D01*
X17856612Y-4014896D01*
X17856612Y-4043468D01*
X17713754Y-4072039D01*
X18113754Y-4172039D02*
X18113754Y-3872039D01*
X18113754Y-4157753D02*
X18085183Y-4172039D01*
X18028040Y-4172039D01*
X17999469Y-4157753D01*
X17985183Y-4143468D01*
X17970897Y-4114896D01*
X17970897Y-4029182D01*
X17985183Y-4000611D01*
X17999469Y-3986325D01*
X18028040Y-3972039D01*
X18085183Y-3972039D01*
X18113754Y-3986325D01*
X18228040Y-4286325D02*
X18242326Y-4272039D01*
X18270897Y-4229182D01*
X18285183Y-4200611D01*
X18299469Y-4157753D01*
X18313754Y-4086325D01*
X18313754Y-4029182D01*
X18299469Y-3957753D01*
X18285183Y-3914896D01*
X18270897Y-3886325D01*
X18242326Y-3843468D01*
X18228040Y-3829182D01*
M02*
