M48
; DRILL file {KiCad (5.1.4)-1} date 12/29/2023 1:05:52 PM
; FORMAT={-:-/ absolute / metric / decimal}
; #@! TF.CreationDate,2023-12-29T13:05:52-05:00
; #@! TF.GenerationSoftware,Kicad,Pcbnew,(5.1.4)-1
; #@! TF.FileFunction,Plated,1,2,PTH
FMAT,2
METRIC
T1C0.400
T2C1.000
T3C1.270
%
G90
G05
T1
X98.3Y7.71
X113.15Y-3.39
T2
X213.915Y-7.138
X215.944Y-5.609
X217.972Y-4.081
X220.001Y-2.552
X186.208Y-13.717
X187.736Y-15.746
X189.265Y-17.774
X190.794Y-19.803
X119.234Y-20.001
X120.763Y-17.973
X122.292Y-15.944
X123.82Y-13.916
X90.307Y-2.706
X92.336Y-4.234
X94.364Y-5.763
X96.393Y-7.292
X155.059Y35.822
X155.059Y33.282
X155.059Y30.742
X155.059Y28.202
T3
X93.002Y2.757
X95.732Y-1.93
X207.489Y7.527
X212.746Y8.859
X107.777Y-8.377
X110.507Y-13.063
X192.714Y-3.607
X197.971Y-2.275
T0
M30
