M48
; DRILL file {KiCad (5.1.4)-1} date 12/29/2023 1:05:52 PM
; FORMAT={-:-/ absolute / metric / decimal}
; #@! TF.CreationDate,2023-12-29T13:05:52-05:00
; #@! TF.GenerationSoftware,Kicad,Pcbnew,(5.1.4)-1
; #@! TF.FileFunction,NonPlated,1,2,NPTH
FMAT,2
METRIC
T1C1.702
T2C3.000
T3C3.429
%
G90
G05
T1
X94.89Y6.092
X206.647Y-0.495
X215.432Y6.125
X109.665Y-5.041
X118.45Y-11.661
X191.873Y-11.629
X200.658Y-5.009
X103.675Y-0.528
T2
X117.638Y-3.599
X120.307Y-8.365
X194.529Y-14.323
X199.846Y-13.071
X102.863Y7.534
X105.532Y2.768
X209.303Y-3.189
X214.621Y-1.937
T3
X99.283Y2.782
X211.04Y2.815
X114.057Y-8.351
X196.265Y-8.319
T0
M30
