G04 #@! TF.GenerationSoftware,KiCad,Pcbnew,(5.1.4)-1*
G04 #@! TF.CreationDate,2023-12-29T13:05:47-05:00*
G04 #@! TF.ProjectId,ThumbsUp,5468756d-6273-4557-902e-6b696361645f,rev?*
G04 #@! TF.SameCoordinates,Original*
G04 #@! TF.FileFunction,Paste,Bot*
G04 #@! TF.FilePolarity,Positive*
%FSLAX46Y46*%
G04 Gerber Fmt 4.6, Leading zero omitted, Abs format (unit mm)*
G04 Created by KiCad (PCBNEW (5.1.4)-1) date 2023-12-29 13:05:47*
%MOMM*%
%LPD*%
G04 APERTURE LIST*
%ADD10R,1.500000X0.800000*%
%ADD11R,1.500000X0.600000*%
%ADD12C,2.600000*%
%ADD13C,0.100000*%
G04 APERTURE END LIST*
D10*
X178020000Y-12950000D03*
X180820000Y-12950000D03*
X178020000Y-5450000D03*
X180820000Y-5450000D03*
D11*
X178020000Y-11950000D03*
X180820000Y-11450000D03*
X178020000Y-10950000D03*
X180820000Y-10450000D03*
X178020000Y-9950000D03*
X180820000Y-9450000D03*
X178020000Y-8950000D03*
X180820000Y-8450000D03*
X178020000Y-7950000D03*
X180820000Y-7450000D03*
X178020000Y-6950000D03*
X180820000Y-6450000D03*
D12*
X191913128Y-16293541D03*
D13*
G36*
X192168995Y-14472955D02*
G01*
X193733714Y-16549408D01*
X191657261Y-18114127D01*
X190092542Y-16037674D01*
X192168995Y-14472955D01*
X192168995Y-14472955D01*
G37*
D12*
X202461362Y-11099576D03*
D13*
G36*
X202717229Y-9278990D02*
G01*
X204281948Y-11355443D01*
X202205495Y-12920162D01*
X200640776Y-10843709D01*
X202717229Y-9278990D01*
X202717229Y-9278990D01*
G37*
D12*
X122922779Y-10336376D03*
D13*
G36*
X121102193Y-10592243D02*
G01*
X122666912Y-8515790D01*
X124743365Y-10080509D01*
X123178646Y-12156962D01*
X121102193Y-10592243D01*
X121102193Y-10592243D01*
G37*
D12*
X115022532Y-1628415D03*
D13*
G36*
X113201946Y-1884282D02*
G01*
X114766665Y192171D01*
X116843118Y-1372548D01*
X115278399Y-3449001D01*
X113201946Y-1884282D01*
X113201946Y-1884282D01*
G37*
D12*
X108148022Y797201D03*
D13*
G36*
X106327436Y541334D02*
G01*
X107892155Y2617787D01*
X109968608Y1053068D01*
X108403889Y-1023385D01*
X106327436Y541334D01*
X106327436Y541334D01*
G37*
D12*
X100247775Y9505162D03*
D13*
G36*
X98427189Y9249295D02*
G01*
X99991908Y11325748D01*
X102068361Y9761029D01*
X100503642Y7684576D01*
X98427189Y9249295D01*
X98427189Y9249295D01*
G37*
D12*
X206687885Y-5159963D03*
D13*
G36*
X206943752Y-3339377D02*
G01*
X208508471Y-5415830D01*
X206432018Y-6980549D01*
X204867299Y-4904096D01*
X206943752Y-3339377D01*
X206943752Y-3339377D01*
G37*
D12*
X217236119Y34002D03*
D13*
G36*
X217491986Y1854588D02*
G01*
X219056705Y-221865D01*
X216980252Y-1786584D01*
X215415533Y289869D01*
X217491986Y1854588D01*
X217491986Y1854588D01*
G37*
M02*
