%FSLAX45Y45*%
G04 Gerber Fmt 4.5, Leading zero omitted, Abs format (unit mm)*
G04 Created by KiCad (PCBNEW (5.1.4)-1) date 2023-12-29 13:05:53*
%MOMM*%
%LPD*%
G04 APERTURE LIST*
%ADD10C,0.050000*%
%ADD11C,0.200000*%
%ADD12C,0.300000*%
G04 APERTURE END LIST*
D10*
X19937407Y-1983763D02*
X22243295Y-243223D01*
X8772683Y-241819D02*
X11078571Y-1982360D01*
X19035877Y-2247825D02*
X19937407Y-1983763D01*
X16155876Y3862175D02*
X15585876Y5272175D01*
X11965876Y-2247825D02*
X19035877Y-2247825D01*
X13205876Y-217825D02*
X9895583Y1202721D01*
X17805877Y-217825D02*
X16155876Y3862175D01*
X13205876Y-217825D02*
X14855876Y3862175D01*
X11965876Y-2247825D02*
X11078571Y-1982360D01*
X17805877Y-217825D02*
X21120396Y1201318D01*
X14855876Y3862175D02*
X15425876Y5272175D01*
X15585876Y5272175D02*
X15425876Y5272175D01*
X22104504Y153687D02*
X21319224Y1163010D01*
X9895583Y1202721D02*
X9696755Y1164414D01*
X8911474Y155090D02*
X8772683Y-241819D01*
X22104504Y153687D02*
X22243295Y-243223D01*
X21120396Y1201318D02*
X21319224Y1163010D01*
X8911474Y155090D02*
X9696755Y1164414D01*
D11*
X9810000Y791000D02*
X9850000Y751000D01*
X9850000Y791000D02*
X9810000Y751000D01*
X11295000Y-319000D02*
X11335000Y-359000D01*
X11335000Y-319000D02*
X11295000Y-359000D01*
X21441514Y-713791D02*
G75*
G03X21441514Y-713791I-50000J0D01*
G01*
X21644368Y-560930D02*
G75*
G03X21644368Y-560930I-50000J0D01*
G01*
X21847221Y-408069D02*
G75*
G03X21847221Y-408069I-50000J0D01*
G01*
X22050074Y-255208D02*
G75*
G03X22050074Y-255208I-50000J0D01*
G01*
X18670781Y-1371723D02*
G75*
G03X18670781Y-1371723I-50000J0D01*
G01*
X18823642Y-1574576D02*
G75*
G03X18823642Y-1574576I-50000J0D01*
G01*
X18976503Y-1777430D02*
G75*
G03X18976503Y-1777430I-50000J0D01*
G01*
X19129364Y-1980283D02*
G75*
G03X19129364Y-1980283I-50000J0D01*
G01*
X11973428Y-2000144D02*
G75*
G03X11973428Y-2000144I-50000J0D01*
G01*
X12126289Y-1797290D02*
G75*
G03X12126289Y-1797290I-50000J0D01*
G01*
X12279150Y-1594437D02*
G75*
G03X12279150Y-1594437I-50000J0D01*
G01*
X12432011Y-1391583D02*
G75*
G03X12432011Y-1391583I-50000J0D01*
G01*
X9080702Y-270568D02*
G75*
G03X9080702Y-270568I-50000J0D01*
G01*
X9283555Y-423429D02*
G75*
G03X9283555Y-423429I-50000J0D01*
G01*
X9486408Y-576290D02*
G75*
G03X9486408Y-576290I-50000J0D01*
G01*
X9689262Y-729151D02*
G75*
G03X9689262Y-729151I-50000J0D01*
G01*
X15555876Y3582175D02*
G75*
G03X15555876Y3582175I-50000J0D01*
G01*
X15555876Y3328175D02*
G75*
G03X15555876Y3328175I-50000J0D01*
G01*
X15555876Y3074175D02*
G75*
G03X15555876Y3074175I-50000J0D01*
G01*
X15555876Y2820175D02*
G75*
G03X15555876Y2820175I-50000J0D01*
G01*
X9300243Y339160D02*
X9300243Y212160D01*
X9236743Y275660D02*
X9363743Y275660D01*
X9573180Y-129461D02*
X9573180Y-256461D01*
X9509680Y-192961D02*
X9636680Y-192961D01*
X20748908Y816189D02*
X20748908Y689189D01*
X20685408Y752689D02*
X20812408Y752689D01*
X21274607Y949383D02*
X21274607Y822383D01*
X21211107Y885883D02*
X21338107Y885883D01*
X10777719Y-774198D02*
X10777719Y-901198D01*
X10714219Y-837698D02*
X10841219Y-837698D01*
X11050656Y-1242819D02*
X11050656Y-1369819D01*
X10987156Y-1306319D02*
X11114156Y-1306319D01*
X19271432Y-297169D02*
X19271432Y-424169D01*
X19207932Y-360669D02*
X19334932Y-360669D01*
X19797131Y-163975D02*
X19797131Y-290975D01*
X19733631Y-227475D02*
X19860631Y-227475D01*
D12*
X9056612Y-2716039D02*
X9056612Y-2416039D01*
X9128040Y-2416039D01*
X9170897Y-2430325D01*
X9199469Y-2458896D01*
X9213754Y-2487468D01*
X9228040Y-2544611D01*
X9228040Y-2587468D01*
X9213754Y-2644611D01*
X9199469Y-2673182D01*
X9170897Y-2701754D01*
X9128040Y-2716039D01*
X9056612Y-2716039D01*
X9356612Y-2716039D02*
X9356612Y-2516039D01*
X9356612Y-2573182D02*
X9370897Y-2544611D01*
X9385183Y-2530325D01*
X9413754Y-2516039D01*
X9442326Y-2516039D01*
X9542326Y-2716039D02*
X9542326Y-2516039D01*
X9542326Y-2416039D02*
X9528040Y-2430325D01*
X9542326Y-2444611D01*
X9556612Y-2430325D01*
X9542326Y-2416039D01*
X9542326Y-2444611D01*
X9728040Y-2716039D02*
X9699469Y-2701754D01*
X9685183Y-2673182D01*
X9685183Y-2416039D01*
X9885183Y-2716039D02*
X9856612Y-2701754D01*
X9842326Y-2673182D01*
X9842326Y-2416039D01*
X10228040Y-2716039D02*
X10228040Y-2416039D01*
X10328040Y-2630325D01*
X10428040Y-2416039D01*
X10428040Y-2716039D01*
X10699469Y-2716039D02*
X10699469Y-2558896D01*
X10685183Y-2530325D01*
X10656612Y-2516039D01*
X10599469Y-2516039D01*
X10570897Y-2530325D01*
X10699469Y-2701754D02*
X10670897Y-2716039D01*
X10599469Y-2716039D01*
X10570897Y-2701754D01*
X10556612Y-2673182D01*
X10556612Y-2644611D01*
X10570897Y-2616039D01*
X10599469Y-2601754D01*
X10670897Y-2601754D01*
X10699469Y-2587468D01*
X10842326Y-2516039D02*
X10842326Y-2816039D01*
X10842326Y-2530325D02*
X10870897Y-2516039D01*
X10928040Y-2516039D01*
X10956612Y-2530325D01*
X10970897Y-2544611D01*
X10985183Y-2573182D01*
X10985183Y-2658896D01*
X10970897Y-2687468D01*
X10956612Y-2701754D01*
X10928040Y-2716039D01*
X10870897Y-2716039D01*
X10842326Y-2701754D01*
X11113754Y-2687468D02*
X11128040Y-2701754D01*
X11113754Y-2716039D01*
X11099469Y-2701754D01*
X11113754Y-2687468D01*
X11113754Y-2716039D01*
X11113754Y-2530325D02*
X11128040Y-2544611D01*
X11113754Y-2558896D01*
X11099469Y-2544611D01*
X11113754Y-2530325D01*
X11113754Y-2558896D01*
X8730183Y-3190325D02*
X8770183Y-3230325D01*
X8770183Y-3190325D02*
X8730183Y-3230325D01*
X9113754Y-3046039D02*
X9142326Y-3046039D01*
X9170897Y-3060325D01*
X9185183Y-3074611D01*
X9199469Y-3103182D01*
X9213754Y-3160325D01*
X9213754Y-3231753D01*
X9199469Y-3288896D01*
X9185183Y-3317468D01*
X9170897Y-3331753D01*
X9142326Y-3346039D01*
X9113754Y-3346039D01*
X9085183Y-3331753D01*
X9070897Y-3317468D01*
X9056612Y-3288896D01*
X9042326Y-3231753D01*
X9042326Y-3160325D01*
X9056612Y-3103182D01*
X9070897Y-3074611D01*
X9085183Y-3060325D01*
X9113754Y-3046039D01*
X9342326Y-3317468D02*
X9356612Y-3331753D01*
X9342326Y-3346039D01*
X9328040Y-3331753D01*
X9342326Y-3317468D01*
X9342326Y-3346039D01*
X9613754Y-3146039D02*
X9613754Y-3346039D01*
X9542326Y-3031753D02*
X9470897Y-3246039D01*
X9656612Y-3246039D01*
X9828040Y-3046039D02*
X9856612Y-3046039D01*
X9885183Y-3060325D01*
X9899469Y-3074611D01*
X9913754Y-3103182D01*
X9928040Y-3160325D01*
X9928040Y-3231753D01*
X9913754Y-3288896D01*
X9899469Y-3317468D01*
X9885183Y-3331753D01*
X9856612Y-3346039D01*
X9828040Y-3346039D01*
X9799469Y-3331753D01*
X9785183Y-3317468D01*
X9770897Y-3288896D01*
X9756612Y-3231753D01*
X9756612Y-3160325D01*
X9770897Y-3103182D01*
X9785183Y-3074611D01*
X9799469Y-3060325D01*
X9828040Y-3046039D01*
X10056612Y-3346039D02*
X10056612Y-3146039D01*
X10056612Y-3174611D02*
X10070897Y-3160325D01*
X10099469Y-3146039D01*
X10142326Y-3146039D01*
X10170897Y-3160325D01*
X10185183Y-3188896D01*
X10185183Y-3346039D01*
X10185183Y-3188896D02*
X10199469Y-3160325D01*
X10228040Y-3146039D01*
X10270897Y-3146039D01*
X10299469Y-3160325D01*
X10313754Y-3188896D01*
X10313754Y-3346039D01*
X10456612Y-3346039D02*
X10456612Y-3146039D01*
X10456612Y-3174611D02*
X10470897Y-3160325D01*
X10499469Y-3146039D01*
X10542326Y-3146039D01*
X10570897Y-3160325D01*
X10585183Y-3188896D01*
X10585183Y-3346039D01*
X10585183Y-3188896D02*
X10599469Y-3160325D01*
X10628040Y-3146039D01*
X10670897Y-3146039D01*
X10699469Y-3160325D01*
X10713754Y-3188896D01*
X10713754Y-3346039D01*
X11299469Y-3031753D02*
X11042326Y-3417468D01*
X11685183Y-3046039D02*
X11713754Y-3046039D01*
X11742326Y-3060325D01*
X11756611Y-3074611D01*
X11770897Y-3103182D01*
X11785183Y-3160325D01*
X11785183Y-3231753D01*
X11770897Y-3288896D01*
X11756611Y-3317468D01*
X11742326Y-3331753D01*
X11713754Y-3346039D01*
X11685183Y-3346039D01*
X11656611Y-3331753D01*
X11642326Y-3317468D01*
X11628040Y-3288896D01*
X11613754Y-3231753D01*
X11613754Y-3160325D01*
X11628040Y-3103182D01*
X11642326Y-3074611D01*
X11656611Y-3060325D01*
X11685183Y-3046039D01*
X11913754Y-3317468D02*
X11928040Y-3331753D01*
X11913754Y-3346039D01*
X11899469Y-3331753D01*
X11913754Y-3317468D01*
X11913754Y-3346039D01*
X12113754Y-3046039D02*
X12142326Y-3046039D01*
X12170897Y-3060325D01*
X12185183Y-3074611D01*
X12199469Y-3103182D01*
X12213754Y-3160325D01*
X12213754Y-3231753D01*
X12199469Y-3288896D01*
X12185183Y-3317468D01*
X12170897Y-3331753D01*
X12142326Y-3346039D01*
X12113754Y-3346039D01*
X12085183Y-3331753D01*
X12070897Y-3317468D01*
X12056611Y-3288896D01*
X12042326Y-3231753D01*
X12042326Y-3160325D01*
X12056611Y-3103182D01*
X12070897Y-3074611D01*
X12085183Y-3060325D01*
X12113754Y-3046039D01*
X12499469Y-3346039D02*
X12328040Y-3346039D01*
X12413754Y-3346039D02*
X12413754Y-3046039D01*
X12385183Y-3088896D01*
X12356611Y-3117468D01*
X12328040Y-3131753D01*
X12756611Y-3046039D02*
X12699469Y-3046039D01*
X12670897Y-3060325D01*
X12656611Y-3074611D01*
X12628040Y-3117468D01*
X12613754Y-3174611D01*
X12613754Y-3288896D01*
X12628040Y-3317468D01*
X12642326Y-3331753D01*
X12670897Y-3346039D01*
X12728040Y-3346039D01*
X12756611Y-3331753D01*
X12770897Y-3317468D01*
X12785183Y-3288896D01*
X12785183Y-3217468D01*
X12770897Y-3188896D01*
X12756611Y-3174611D01*
X12728040Y-3160325D01*
X12670897Y-3160325D01*
X12642326Y-3174611D01*
X12628040Y-3188896D01*
X12613754Y-3217468D01*
X12899469Y-3046039D02*
X12899469Y-3103182D01*
X13013754Y-3046039D02*
X13013754Y-3103182D01*
X13456611Y-3460325D02*
X13442326Y-3446039D01*
X13413754Y-3403182D01*
X13399469Y-3374611D01*
X13385183Y-3331753D01*
X13370897Y-3260325D01*
X13370897Y-3203182D01*
X13385183Y-3131753D01*
X13399469Y-3088896D01*
X13413754Y-3060325D01*
X13442326Y-3017468D01*
X13456611Y-3003182D01*
X13556611Y-3074611D02*
X13570897Y-3060325D01*
X13599469Y-3046039D01*
X13670897Y-3046039D01*
X13699469Y-3060325D01*
X13713754Y-3074611D01*
X13728040Y-3103182D01*
X13728040Y-3131753D01*
X13713754Y-3174611D01*
X13542326Y-3346039D01*
X13728040Y-3346039D01*
X14085183Y-3346039D02*
X14085183Y-3046039D01*
X14213754Y-3346039D02*
X14213754Y-3188896D01*
X14199469Y-3160325D01*
X14170897Y-3146039D01*
X14128040Y-3146039D01*
X14099469Y-3160325D01*
X14085183Y-3174611D01*
X14399469Y-3346039D02*
X14370897Y-3331753D01*
X14356611Y-3317468D01*
X14342326Y-3288896D01*
X14342326Y-3203182D01*
X14356611Y-3174611D01*
X14370897Y-3160325D01*
X14399469Y-3146039D01*
X14442326Y-3146039D01*
X14470897Y-3160325D01*
X14485183Y-3174611D01*
X14499469Y-3203182D01*
X14499469Y-3288896D01*
X14485183Y-3317468D01*
X14470897Y-3331753D01*
X14442326Y-3346039D01*
X14399469Y-3346039D01*
X14670897Y-3346039D02*
X14642326Y-3331753D01*
X14628040Y-3303182D01*
X14628040Y-3046039D01*
X14899469Y-3331753D02*
X14870897Y-3346039D01*
X14813754Y-3346039D01*
X14785183Y-3331753D01*
X14770897Y-3303182D01*
X14770897Y-3188896D01*
X14785183Y-3160325D01*
X14813754Y-3146039D01*
X14870897Y-3146039D01*
X14899469Y-3160325D01*
X14913754Y-3188896D01*
X14913754Y-3217468D01*
X14770897Y-3246039D01*
X15028040Y-3331753D02*
X15056611Y-3346039D01*
X15113754Y-3346039D01*
X15142326Y-3331753D01*
X15156611Y-3303182D01*
X15156611Y-3288896D01*
X15142326Y-3260325D01*
X15113754Y-3246039D01*
X15070897Y-3246039D01*
X15042326Y-3231753D01*
X15028040Y-3203182D01*
X15028040Y-3188896D01*
X15042326Y-3160325D01*
X15070897Y-3146039D01*
X15113754Y-3146039D01*
X15142326Y-3160325D01*
X15256611Y-3460325D02*
X15270897Y-3446039D01*
X15299469Y-3403182D01*
X15313754Y-3374611D01*
X15328040Y-3331753D01*
X15342326Y-3260325D01*
X15342326Y-3203182D01*
X15328040Y-3131753D01*
X15313754Y-3088896D01*
X15299469Y-3060325D01*
X15270897Y-3017468D01*
X15256611Y-3003182D01*
X8770183Y-3606325D02*
G75*
G03X8770183Y-3606325I-50000J0D01*
G01*
X9213754Y-3742039D02*
X9042326Y-3742039D01*
X9128040Y-3742039D02*
X9128040Y-3442039D01*
X9099469Y-3484896D01*
X9070897Y-3513468D01*
X9042326Y-3527753D01*
X9342326Y-3713468D02*
X9356612Y-3727753D01*
X9342326Y-3742039D01*
X9328040Y-3727753D01*
X9342326Y-3713468D01*
X9342326Y-3742039D01*
X9542326Y-3442039D02*
X9570897Y-3442039D01*
X9599469Y-3456325D01*
X9613754Y-3470611D01*
X9628040Y-3499182D01*
X9642326Y-3556325D01*
X9642326Y-3627753D01*
X9628040Y-3684896D01*
X9613754Y-3713468D01*
X9599469Y-3727753D01*
X9570897Y-3742039D01*
X9542326Y-3742039D01*
X9513754Y-3727753D01*
X9499469Y-3713468D01*
X9485183Y-3684896D01*
X9470897Y-3627753D01*
X9470897Y-3556325D01*
X9485183Y-3499182D01*
X9499469Y-3470611D01*
X9513754Y-3456325D01*
X9542326Y-3442039D01*
X9828040Y-3442039D02*
X9856612Y-3442039D01*
X9885183Y-3456325D01*
X9899469Y-3470611D01*
X9913754Y-3499182D01*
X9928040Y-3556325D01*
X9928040Y-3627753D01*
X9913754Y-3684896D01*
X9899469Y-3713468D01*
X9885183Y-3727753D01*
X9856612Y-3742039D01*
X9828040Y-3742039D01*
X9799469Y-3727753D01*
X9785183Y-3713468D01*
X9770897Y-3684896D01*
X9756612Y-3627753D01*
X9756612Y-3556325D01*
X9770897Y-3499182D01*
X9785183Y-3470611D01*
X9799469Y-3456325D01*
X9828040Y-3442039D01*
X10056612Y-3742039D02*
X10056612Y-3542039D01*
X10056612Y-3570611D02*
X10070897Y-3556325D01*
X10099469Y-3542039D01*
X10142326Y-3542039D01*
X10170897Y-3556325D01*
X10185183Y-3584896D01*
X10185183Y-3742039D01*
X10185183Y-3584896D02*
X10199469Y-3556325D01*
X10228040Y-3542039D01*
X10270897Y-3542039D01*
X10299469Y-3556325D01*
X10313754Y-3584896D01*
X10313754Y-3742039D01*
X10456612Y-3742039D02*
X10456612Y-3542039D01*
X10456612Y-3570611D02*
X10470897Y-3556325D01*
X10499469Y-3542039D01*
X10542326Y-3542039D01*
X10570897Y-3556325D01*
X10585183Y-3584896D01*
X10585183Y-3742039D01*
X10585183Y-3584896D02*
X10599469Y-3556325D01*
X10628040Y-3542039D01*
X10670897Y-3542039D01*
X10699469Y-3556325D01*
X10713754Y-3584896D01*
X10713754Y-3742039D01*
X11299469Y-3427753D02*
X11042326Y-3813468D01*
X11685183Y-3442039D02*
X11713754Y-3442039D01*
X11742326Y-3456325D01*
X11756611Y-3470611D01*
X11770897Y-3499182D01*
X11785183Y-3556325D01*
X11785183Y-3627753D01*
X11770897Y-3684896D01*
X11756611Y-3713468D01*
X11742326Y-3727753D01*
X11713754Y-3742039D01*
X11685183Y-3742039D01*
X11656611Y-3727753D01*
X11642326Y-3713468D01*
X11628040Y-3684896D01*
X11613754Y-3627753D01*
X11613754Y-3556325D01*
X11628040Y-3499182D01*
X11642326Y-3470611D01*
X11656611Y-3456325D01*
X11685183Y-3442039D01*
X11913754Y-3713468D02*
X11928040Y-3727753D01*
X11913754Y-3742039D01*
X11899469Y-3727753D01*
X11913754Y-3713468D01*
X11913754Y-3742039D01*
X12113754Y-3442039D02*
X12142326Y-3442039D01*
X12170897Y-3456325D01*
X12185183Y-3470611D01*
X12199469Y-3499182D01*
X12213754Y-3556325D01*
X12213754Y-3627753D01*
X12199469Y-3684896D01*
X12185183Y-3713468D01*
X12170897Y-3727753D01*
X12142326Y-3742039D01*
X12113754Y-3742039D01*
X12085183Y-3727753D01*
X12070897Y-3713468D01*
X12056611Y-3684896D01*
X12042326Y-3627753D01*
X12042326Y-3556325D01*
X12056611Y-3499182D01*
X12070897Y-3470611D01*
X12085183Y-3456325D01*
X12113754Y-3442039D01*
X12313754Y-3442039D02*
X12499469Y-3442039D01*
X12399469Y-3556325D01*
X12442326Y-3556325D01*
X12470897Y-3570611D01*
X12485183Y-3584896D01*
X12499469Y-3613468D01*
X12499469Y-3684896D01*
X12485183Y-3713468D01*
X12470897Y-3727753D01*
X12442326Y-3742039D01*
X12356611Y-3742039D01*
X12328040Y-3727753D01*
X12313754Y-3713468D01*
X12642326Y-3742039D02*
X12699469Y-3742039D01*
X12728040Y-3727753D01*
X12742326Y-3713468D01*
X12770897Y-3670611D01*
X12785183Y-3613468D01*
X12785183Y-3499182D01*
X12770897Y-3470611D01*
X12756611Y-3456325D01*
X12728040Y-3442039D01*
X12670897Y-3442039D01*
X12642326Y-3456325D01*
X12628040Y-3470611D01*
X12613754Y-3499182D01*
X12613754Y-3570611D01*
X12628040Y-3599182D01*
X12642326Y-3613468D01*
X12670897Y-3627753D01*
X12728040Y-3627753D01*
X12756611Y-3613468D01*
X12770897Y-3599182D01*
X12785183Y-3570611D01*
X12899469Y-3442039D02*
X12899469Y-3499182D01*
X13013754Y-3442039D02*
X13013754Y-3499182D01*
X13456611Y-3856325D02*
X13442326Y-3842039D01*
X13413754Y-3799182D01*
X13399469Y-3770611D01*
X13385183Y-3727753D01*
X13370897Y-3656325D01*
X13370897Y-3599182D01*
X13385183Y-3527753D01*
X13399469Y-3484896D01*
X13413754Y-3456325D01*
X13442326Y-3413468D01*
X13456611Y-3399182D01*
X13556611Y-3470611D02*
X13570897Y-3456325D01*
X13599469Y-3442039D01*
X13670897Y-3442039D01*
X13699469Y-3456325D01*
X13713754Y-3470611D01*
X13728040Y-3499182D01*
X13728040Y-3527753D01*
X13713754Y-3570611D01*
X13542326Y-3742039D01*
X13728040Y-3742039D01*
X13913754Y-3442039D02*
X13942326Y-3442039D01*
X13970897Y-3456325D01*
X13985183Y-3470611D01*
X13999469Y-3499182D01*
X14013754Y-3556325D01*
X14013754Y-3627753D01*
X13999469Y-3684896D01*
X13985183Y-3713468D01*
X13970897Y-3727753D01*
X13942326Y-3742039D01*
X13913754Y-3742039D01*
X13885183Y-3727753D01*
X13870897Y-3713468D01*
X13856611Y-3684896D01*
X13842326Y-3627753D01*
X13842326Y-3556325D01*
X13856611Y-3499182D01*
X13870897Y-3470611D01*
X13885183Y-3456325D01*
X13913754Y-3442039D01*
X14370897Y-3742039D02*
X14370897Y-3442039D01*
X14499469Y-3742039D02*
X14499469Y-3584896D01*
X14485183Y-3556325D01*
X14456611Y-3542039D01*
X14413754Y-3542039D01*
X14385183Y-3556325D01*
X14370897Y-3570611D01*
X14685183Y-3742039D02*
X14656611Y-3727753D01*
X14642326Y-3713468D01*
X14628040Y-3684896D01*
X14628040Y-3599182D01*
X14642326Y-3570611D01*
X14656611Y-3556325D01*
X14685183Y-3542039D01*
X14728040Y-3542039D01*
X14756611Y-3556325D01*
X14770897Y-3570611D01*
X14785183Y-3599182D01*
X14785183Y-3684896D01*
X14770897Y-3713468D01*
X14756611Y-3727753D01*
X14728040Y-3742039D01*
X14685183Y-3742039D01*
X14956611Y-3742039D02*
X14928040Y-3727753D01*
X14913754Y-3699182D01*
X14913754Y-3442039D01*
X15185183Y-3727753D02*
X15156611Y-3742039D01*
X15099469Y-3742039D01*
X15070897Y-3727753D01*
X15056611Y-3699182D01*
X15056611Y-3584896D01*
X15070897Y-3556325D01*
X15099469Y-3542039D01*
X15156611Y-3542039D01*
X15185183Y-3556325D01*
X15199469Y-3584896D01*
X15199469Y-3613468D01*
X15056611Y-3642039D01*
X15313754Y-3727753D02*
X15342326Y-3742039D01*
X15399469Y-3742039D01*
X15428040Y-3727753D01*
X15442326Y-3699182D01*
X15442326Y-3684896D01*
X15428040Y-3656325D01*
X15399469Y-3642039D01*
X15356611Y-3642039D01*
X15328040Y-3627753D01*
X15313754Y-3599182D01*
X15313754Y-3584896D01*
X15328040Y-3556325D01*
X15356611Y-3542039D01*
X15399469Y-3542039D01*
X15428040Y-3556325D01*
X15542326Y-3856325D02*
X15556611Y-3842039D01*
X15585183Y-3799182D01*
X15599469Y-3770611D01*
X15613754Y-3727753D01*
X15628040Y-3656325D01*
X15628040Y-3599182D01*
X15613754Y-3527753D01*
X15599469Y-3484896D01*
X15585183Y-3456325D01*
X15556611Y-3413468D01*
X15542326Y-3399182D01*
X8706683Y-3938825D02*
X8706683Y-4065825D01*
X8643183Y-4002325D02*
X8770183Y-4002325D01*
X9213754Y-4138039D02*
X9042326Y-4138039D01*
X9128040Y-4138039D02*
X9128040Y-3838039D01*
X9099469Y-3880896D01*
X9070897Y-3909468D01*
X9042326Y-3923753D01*
X9342326Y-4109468D02*
X9356612Y-4123753D01*
X9342326Y-4138039D01*
X9328040Y-4123753D01*
X9342326Y-4109468D01*
X9342326Y-4138039D01*
X9470897Y-3866611D02*
X9485183Y-3852325D01*
X9513754Y-3838039D01*
X9585183Y-3838039D01*
X9613754Y-3852325D01*
X9628040Y-3866611D01*
X9642326Y-3895182D01*
X9642326Y-3923753D01*
X9628040Y-3966611D01*
X9456612Y-4138039D01*
X9642326Y-4138039D01*
X9742326Y-3838039D02*
X9942326Y-3838039D01*
X9813754Y-4138039D01*
X10056612Y-4138039D02*
X10056612Y-3938039D01*
X10056612Y-3966611D02*
X10070897Y-3952325D01*
X10099469Y-3938039D01*
X10142326Y-3938039D01*
X10170897Y-3952325D01*
X10185183Y-3980896D01*
X10185183Y-4138039D01*
X10185183Y-3980896D02*
X10199469Y-3952325D01*
X10228040Y-3938039D01*
X10270897Y-3938039D01*
X10299469Y-3952325D01*
X10313754Y-3980896D01*
X10313754Y-4138039D01*
X10456612Y-4138039D02*
X10456612Y-3938039D01*
X10456612Y-3966611D02*
X10470897Y-3952325D01*
X10499469Y-3938039D01*
X10542326Y-3938039D01*
X10570897Y-3952325D01*
X10585183Y-3980896D01*
X10585183Y-4138039D01*
X10585183Y-3980896D02*
X10599469Y-3952325D01*
X10628040Y-3938039D01*
X10670897Y-3938039D01*
X10699469Y-3952325D01*
X10713754Y-3980896D01*
X10713754Y-4138039D01*
X11299469Y-3823753D02*
X11042326Y-4209468D01*
X11685183Y-3838039D02*
X11713754Y-3838039D01*
X11742326Y-3852325D01*
X11756611Y-3866611D01*
X11770897Y-3895182D01*
X11785183Y-3952325D01*
X11785183Y-4023753D01*
X11770897Y-4080896D01*
X11756611Y-4109468D01*
X11742326Y-4123753D01*
X11713754Y-4138039D01*
X11685183Y-4138039D01*
X11656611Y-4123753D01*
X11642326Y-4109468D01*
X11628040Y-4080896D01*
X11613754Y-4023753D01*
X11613754Y-3952325D01*
X11628040Y-3895182D01*
X11642326Y-3866611D01*
X11656611Y-3852325D01*
X11685183Y-3838039D01*
X11913754Y-4109468D02*
X11928040Y-4123753D01*
X11913754Y-4138039D01*
X11899469Y-4123753D01*
X11913754Y-4109468D01*
X11913754Y-4138039D01*
X12113754Y-3838039D02*
X12142326Y-3838039D01*
X12170897Y-3852325D01*
X12185183Y-3866611D01*
X12199469Y-3895182D01*
X12213754Y-3952325D01*
X12213754Y-4023753D01*
X12199469Y-4080896D01*
X12185183Y-4109468D01*
X12170897Y-4123753D01*
X12142326Y-4138039D01*
X12113754Y-4138039D01*
X12085183Y-4123753D01*
X12070897Y-4109468D01*
X12056611Y-4080896D01*
X12042326Y-4023753D01*
X12042326Y-3952325D01*
X12056611Y-3895182D01*
X12070897Y-3866611D01*
X12085183Y-3852325D01*
X12113754Y-3838039D01*
X12485183Y-3838039D02*
X12342326Y-3838039D01*
X12328040Y-3980896D01*
X12342326Y-3966611D01*
X12370897Y-3952325D01*
X12442326Y-3952325D01*
X12470897Y-3966611D01*
X12485183Y-3980896D01*
X12499469Y-4009468D01*
X12499469Y-4080896D01*
X12485183Y-4109468D01*
X12470897Y-4123753D01*
X12442326Y-4138039D01*
X12370897Y-4138039D01*
X12342326Y-4123753D01*
X12328040Y-4109468D01*
X12685183Y-3838039D02*
X12713754Y-3838039D01*
X12742326Y-3852325D01*
X12756611Y-3866611D01*
X12770897Y-3895182D01*
X12785183Y-3952325D01*
X12785183Y-4023753D01*
X12770897Y-4080896D01*
X12756611Y-4109468D01*
X12742326Y-4123753D01*
X12713754Y-4138039D01*
X12685183Y-4138039D01*
X12656611Y-4123753D01*
X12642326Y-4109468D01*
X12628040Y-4080896D01*
X12613754Y-4023753D01*
X12613754Y-3952325D01*
X12628040Y-3895182D01*
X12642326Y-3866611D01*
X12656611Y-3852325D01*
X12685183Y-3838039D01*
X12899469Y-3838039D02*
X12899469Y-3895182D01*
X13013754Y-3838039D02*
X13013754Y-3895182D01*
X13456611Y-4252325D02*
X13442326Y-4238039D01*
X13413754Y-4195182D01*
X13399469Y-4166611D01*
X13385183Y-4123753D01*
X13370897Y-4052325D01*
X13370897Y-3995182D01*
X13385183Y-3923753D01*
X13399469Y-3880896D01*
X13413754Y-3852325D01*
X13442326Y-3809468D01*
X13456611Y-3795182D01*
X13613754Y-3966611D02*
X13585183Y-3952325D01*
X13570897Y-3938039D01*
X13556611Y-3909468D01*
X13556611Y-3895182D01*
X13570897Y-3866611D01*
X13585183Y-3852325D01*
X13613754Y-3838039D01*
X13670897Y-3838039D01*
X13699469Y-3852325D01*
X13713754Y-3866611D01*
X13728040Y-3895182D01*
X13728040Y-3909468D01*
X13713754Y-3938039D01*
X13699469Y-3952325D01*
X13670897Y-3966611D01*
X13613754Y-3966611D01*
X13585183Y-3980896D01*
X13570897Y-3995182D01*
X13556611Y-4023753D01*
X13556611Y-4080896D01*
X13570897Y-4109468D01*
X13585183Y-4123753D01*
X13613754Y-4138039D01*
X13670897Y-4138039D01*
X13699469Y-4123753D01*
X13713754Y-4109468D01*
X13728040Y-4080896D01*
X13728040Y-4023753D01*
X13713754Y-3995182D01*
X13699469Y-3980896D01*
X13670897Y-3966611D01*
X14085183Y-4138039D02*
X14085183Y-3838039D01*
X14213754Y-4138039D02*
X14213754Y-3980896D01*
X14199469Y-3952325D01*
X14170897Y-3938039D01*
X14128040Y-3938039D01*
X14099469Y-3952325D01*
X14085183Y-3966611D01*
X14399469Y-4138039D02*
X14370897Y-4123753D01*
X14356611Y-4109468D01*
X14342326Y-4080896D01*
X14342326Y-3995182D01*
X14356611Y-3966611D01*
X14370897Y-3952325D01*
X14399469Y-3938039D01*
X14442326Y-3938039D01*
X14470897Y-3952325D01*
X14485183Y-3966611D01*
X14499469Y-3995182D01*
X14499469Y-4080896D01*
X14485183Y-4109468D01*
X14470897Y-4123753D01*
X14442326Y-4138039D01*
X14399469Y-4138039D01*
X14670897Y-4138039D02*
X14642326Y-4123753D01*
X14628040Y-4095182D01*
X14628040Y-3838039D01*
X14899469Y-4123753D02*
X14870897Y-4138039D01*
X14813754Y-4138039D01*
X14785183Y-4123753D01*
X14770897Y-4095182D01*
X14770897Y-3980896D01*
X14785183Y-3952325D01*
X14813754Y-3938039D01*
X14870897Y-3938039D01*
X14899469Y-3952325D01*
X14913754Y-3980896D01*
X14913754Y-4009468D01*
X14770897Y-4038039D01*
X15028040Y-4123753D02*
X15056611Y-4138039D01*
X15113754Y-4138039D01*
X15142326Y-4123753D01*
X15156611Y-4095182D01*
X15156611Y-4080896D01*
X15142326Y-4052325D01*
X15113754Y-4038039D01*
X15070897Y-4038039D01*
X15042326Y-4023753D01*
X15028040Y-3995182D01*
X15028040Y-3980896D01*
X15042326Y-3952325D01*
X15070897Y-3938039D01*
X15113754Y-3938039D01*
X15142326Y-3952325D01*
X15256611Y-4252325D02*
X15270897Y-4238039D01*
X15299469Y-4195182D01*
X15313754Y-4166611D01*
X15328040Y-4123753D01*
X15342326Y-4052325D01*
X15342326Y-3995182D01*
X15328040Y-3923753D01*
X15313754Y-3880896D01*
X15299469Y-3852325D01*
X15270897Y-3809468D01*
X15256611Y-3795182D01*
M02*
