G04 #@! TF.GenerationSoftware,KiCad,Pcbnew,(5.1.4)-1*
G04 #@! TF.CreationDate,2023-12-29T13:05:47-05:00*
G04 #@! TF.ProjectId,ThumbsUp,5468756d-6273-4557-902e-6b696361645f,rev?*
G04 #@! TF.SameCoordinates,Original*
G04 #@! TF.FileFunction,Copper,L1,Top*
G04 #@! TF.FilePolarity,Positive*
%FSLAX46Y46*%
G04 Gerber Fmt 4.6, Leading zero omitted, Abs format (unit mm)*
G04 Created by KiCad (PCBNEW (5.1.4)-1) date 2023-12-29 13:05:47*
%MOMM*%
%LPD*%
G04 APERTURE LIST*
%ADD10C,2.032000*%
%ADD11C,1.700000*%
%ADD12C,1.700000*%
%ADD13C,0.100000*%
%ADD14R,1.700000X1.700000*%
%ADD15O,1.700000X1.700000*%
%ADD16C,0.800000*%
%ADD17C,0.250000*%
G04 APERTURE END LIST*
D10*
X192714322Y-3606689D03*
X197971311Y-2274749D03*
D11*
X96392618Y-7291511D03*
D12*
X96392618Y-7291511D02*
X96392618Y-7291511D01*
D11*
X94364083Y-5762901D03*
D12*
X94364083Y-5762901D02*
X94364083Y-5762901D01*
D11*
X92335549Y-4234291D03*
D12*
X92335549Y-4234291D02*
X92335549Y-4234291D01*
D11*
X90307015Y-2705681D03*
D13*
G36*
X90474312Y-3896064D02*
G01*
X89116632Y-2872978D01*
X90139718Y-1515298D01*
X91497398Y-2538384D01*
X90474312Y-3896064D01*
X90474312Y-3896064D01*
G37*
D11*
X213915141Y-7137906D03*
D12*
X213915141Y-7137906D02*
X213915141Y-7137906D01*
D11*
X215943676Y-5609296D03*
D12*
X215943676Y-5609296D02*
X215943676Y-5609296D01*
D11*
X217972210Y-4080686D03*
D12*
X217972210Y-4080686D02*
X217972210Y-4080686D01*
D11*
X220000744Y-2552076D03*
D13*
G36*
X218810361Y-2384779D02*
G01*
X220168041Y-1361693D01*
X221191127Y-2719373D01*
X219833447Y-3742459D01*
X218810361Y-2384779D01*
X218810361Y-2384779D01*
G37*
D10*
X110506555Y-13063190D03*
X107777189Y-8376980D03*
X95731798Y-1929613D03*
X93002432Y2756597D03*
X207489079Y7526889D03*
X212746068Y8858829D03*
D14*
X155058765Y35821751D03*
D15*
X155058765Y33281751D03*
X155058765Y30741751D03*
X155058765Y28201751D03*
D11*
X190793643Y-19802834D03*
D12*
X190793643Y-19802834D02*
X190793643Y-19802834D01*
D11*
X189265033Y-17774299D03*
D12*
X189265033Y-17774299D02*
X189265033Y-17774299D01*
D11*
X187736423Y-15745765D03*
D12*
X187736423Y-15745765D02*
X187736423Y-15745765D01*
D11*
X186207813Y-13717231D03*
D13*
G36*
X186040516Y-14907614D02*
G01*
X185017430Y-13549934D01*
X186375110Y-12526848D01*
X187398196Y-13884528D01*
X186040516Y-14907614D01*
X186040516Y-14907614D01*
G37*
D11*
X119234284Y-20001436D03*
D12*
X119234284Y-20001436D02*
X119234284Y-20001436D01*
D11*
X120762894Y-17972901D03*
D12*
X120762894Y-17972901D02*
X120762894Y-17972901D01*
D11*
X122291504Y-15944367D03*
D12*
X122291504Y-15944367D02*
X122291504Y-15944367D01*
D11*
X123820114Y-13915833D03*
D13*
G36*
X122629731Y-14083130D02*
G01*
X123652817Y-12725450D01*
X125010497Y-13748536D01*
X123987411Y-15106216D01*
X122629731Y-14083130D01*
X122629731Y-14083130D01*
G37*
D16*
X98300000Y7710000D03*
X113150000Y-3390000D03*
D17*
X95731798Y-1929613D02*
X95731798Y3391798D01*
X95731798Y3391798D02*
X98300000Y5960000D01*
X98300000Y5960000D02*
X98300000Y7710000D01*
X96392618Y-2590433D02*
X95731798Y-1929613D01*
X96392618Y-7291511D02*
X96392618Y-2590433D01*
X93950000Y1809029D02*
X93002432Y2756597D01*
X94364083Y-5762901D02*
X93950000Y-5348818D01*
X93950000Y-5348818D02*
X93950000Y1809029D01*
X110506555Y-13063190D02*
X110506555Y-7033445D01*
X110506555Y-7033445D02*
X113200000Y-4340000D01*
X113200000Y-4340000D02*
X113200000Y-3540000D01*
X113200000Y-3540000D02*
X113150000Y-3490000D01*
X113150000Y-3490000D02*
X113150000Y-3390000D01*
X208505078Y6510890D02*
X212299110Y6510890D01*
X207489079Y7526889D02*
X208505078Y6510890D01*
X212299110Y6510890D02*
X216050000Y2760000D01*
X216050000Y1398668D02*
X220000744Y-2552076D01*
X216050000Y2760000D02*
X216050000Y1398668D01*
M02*
