G04 #@! TF.GenerationSoftware,KiCad,Pcbnew,(5.1.4)-1*
G04 #@! TF.CreationDate,2022-12-17T19:56:19-05:00*
G04 #@! TF.ProjectId,ThumbsUp,5468756d-6273-4557-902e-6b696361645f,rev?*
G04 #@! TF.SameCoordinates,Original*
G04 #@! TF.FileFunction,Legend,Bot*
G04 #@! TF.FilePolarity,Positive*
%FSLAX46Y46*%
G04 Gerber Fmt 4.6, Leading zero omitted, Abs format (unit mm)*
G04 Created by KiCad (PCBNEW (5.1.4)-1) date 2022-12-17 19:56:19*
%MOMM*%
%LPD*%
G04 APERTURE LIST*
%ADD10C,0.150000*%
%ADD11C,0.120000*%
%ADD12C,0.254000*%
G04 APERTURE END LIST*
D10*
X154211428Y-203078571D02*
X154068571Y-203126190D01*
X154020952Y-203173809D01*
X153973333Y-203269047D01*
X153973333Y-203411904D01*
X154020952Y-203507142D01*
X154068571Y-203554761D01*
X154163809Y-203602380D01*
X154544761Y-203602380D01*
X154544761Y-202602380D01*
X154211428Y-202602380D01*
X154116190Y-202650000D01*
X154068571Y-202697619D01*
X154020952Y-202792857D01*
X154020952Y-202888095D01*
X154068571Y-202983333D01*
X154116190Y-203030952D01*
X154211428Y-203078571D01*
X154544761Y-203078571D01*
X153116190Y-203602380D02*
X153116190Y-203078571D01*
X153163809Y-202983333D01*
X153259047Y-202935714D01*
X153449523Y-202935714D01*
X153544761Y-202983333D01*
X153116190Y-203554761D02*
X153211428Y-203602380D01*
X153449523Y-203602380D01*
X153544761Y-203554761D01*
X153592380Y-203459523D01*
X153592380Y-203364285D01*
X153544761Y-203269047D01*
X153449523Y-203221428D01*
X153211428Y-203221428D01*
X153116190Y-203173809D01*
X152782857Y-202935714D02*
X152401904Y-202935714D01*
X152640000Y-202602380D02*
X152640000Y-203459523D01*
X152592380Y-203554761D01*
X152497142Y-203602380D01*
X152401904Y-203602380D01*
X152211428Y-202935714D02*
X151830476Y-202935714D01*
X152068571Y-202602380D02*
X152068571Y-203459523D01*
X152020952Y-203554761D01*
X151925714Y-203602380D01*
X151830476Y-203602380D01*
X151116190Y-203554761D02*
X151211428Y-203602380D01*
X151401904Y-203602380D01*
X151497142Y-203554761D01*
X151544761Y-203459523D01*
X151544761Y-203078571D01*
X151497142Y-202983333D01*
X151401904Y-202935714D01*
X151211428Y-202935714D01*
X151116190Y-202983333D01*
X151068571Y-203078571D01*
X151068571Y-203173809D01*
X151544761Y-203269047D01*
X150640000Y-203602380D02*
X150640000Y-202935714D01*
X150640000Y-203126190D02*
X150592380Y-203030952D01*
X150544761Y-202983333D01*
X150449523Y-202935714D01*
X150354285Y-202935714D01*
X150116190Y-202935714D02*
X149878095Y-203602380D01*
X149640000Y-202935714D02*
X149878095Y-203602380D01*
X149973333Y-203840476D01*
X150020952Y-203888095D01*
X150116190Y-203935714D01*
X153973333Y-204871428D02*
X153211428Y-204871428D01*
X153592380Y-205252380D02*
X153592380Y-204490476D01*
X152163809Y-205252380D02*
X152497142Y-204776190D01*
X152735238Y-205252380D02*
X152735238Y-204252380D01*
X152354285Y-204252380D01*
X152259047Y-204300000D01*
X152211428Y-204347619D01*
X152163809Y-204442857D01*
X152163809Y-204585714D01*
X152211428Y-204680952D01*
X152259047Y-204728571D01*
X152354285Y-204776190D01*
X152735238Y-204776190D01*
X151735238Y-204728571D02*
X151401904Y-204728571D01*
X151259047Y-205252380D02*
X151735238Y-205252380D01*
X151735238Y-204252380D01*
X151259047Y-204252380D01*
X150830476Y-205252380D02*
X150830476Y-204252380D01*
X150592380Y-204252380D01*
X150449523Y-204300000D01*
X150354285Y-204395238D01*
X150306666Y-204490476D01*
X150259047Y-204680952D01*
X150259047Y-204823809D01*
X150306666Y-205014285D01*
X150354285Y-205109523D01*
X150449523Y-205204761D01*
X150592380Y-205252380D01*
X150830476Y-205252380D01*
X153830476Y-206902380D02*
X153830476Y-205902380D01*
X153830476Y-206378571D02*
X153259047Y-206378571D01*
X153259047Y-206902380D02*
X153259047Y-205902380D01*
X152782857Y-206378571D02*
X152449523Y-206378571D01*
X152306666Y-206902380D02*
X152782857Y-206902380D01*
X152782857Y-205902380D01*
X152306666Y-205902380D01*
X151306666Y-206902380D02*
X151640000Y-206426190D01*
X151878095Y-206902380D02*
X151878095Y-205902380D01*
X151497142Y-205902380D01*
X151401904Y-205950000D01*
X151354285Y-205997619D01*
X151306666Y-206092857D01*
X151306666Y-206235714D01*
X151354285Y-206330952D01*
X151401904Y-206378571D01*
X151497142Y-206426190D01*
X151878095Y-206426190D01*
X150878095Y-206378571D02*
X150544761Y-206378571D01*
X150401904Y-206902380D02*
X150878095Y-206902380D01*
X150878095Y-205902380D01*
X150401904Y-205902380D01*
X155302380Y-227452380D02*
X155635714Y-226976190D01*
X155873809Y-227452380D02*
X155873809Y-226452380D01*
X155492857Y-226452380D01*
X155397619Y-226500000D01*
X155350000Y-226547619D01*
X155302380Y-226642857D01*
X155302380Y-226785714D01*
X155350000Y-226880952D01*
X155397619Y-226928571D01*
X155492857Y-226976190D01*
X155873809Y-226976190D01*
X154873809Y-226928571D02*
X154540476Y-226928571D01*
X154397619Y-227452380D02*
X154873809Y-227452380D01*
X154873809Y-226452380D01*
X154397619Y-226452380D01*
X154016666Y-227404761D02*
X153873809Y-227452380D01*
X153635714Y-227452380D01*
X153540476Y-227404761D01*
X153492857Y-227357142D01*
X153445238Y-227261904D01*
X153445238Y-227166666D01*
X153492857Y-227071428D01*
X153540476Y-227023809D01*
X153635714Y-226976190D01*
X153826190Y-226928571D01*
X153921428Y-226880952D01*
X153969047Y-226833333D01*
X154016666Y-226738095D01*
X154016666Y-226642857D01*
X153969047Y-226547619D01*
X153921428Y-226500000D01*
X153826190Y-226452380D01*
X153588095Y-226452380D01*
X153445238Y-226500000D01*
X153016666Y-226928571D02*
X152683333Y-226928571D01*
X152540476Y-227452380D02*
X153016666Y-227452380D01*
X153016666Y-226452380D01*
X152540476Y-226452380D01*
X152254761Y-226452380D02*
X151683333Y-226452380D01*
X151969047Y-227452380D02*
X151969047Y-226452380D01*
X142732047Y-223924714D02*
X142732047Y-222496142D01*
X141255857Y-222924714D02*
X142017761Y-223210428D01*
X141255857Y-223496142D01*
X135493047Y-223670714D02*
X135493047Y-222242142D01*
X134016857Y-222670714D02*
X134778761Y-222956428D01*
X134016857Y-223242142D01*
X150310952Y-223674285D02*
X150310952Y-225102857D01*
X151787142Y-224674285D02*
X151025238Y-224388571D01*
X151787142Y-224102857D01*
X158130952Y-205716285D02*
X158130952Y-207144857D01*
X159607142Y-206716285D02*
X158845238Y-206430571D01*
X159607142Y-206144857D01*
X93956285Y-208772047D02*
X95384857Y-208772047D01*
X94956285Y-207295857D02*
X94670571Y-208057761D01*
X94384857Y-207295857D01*
X174728285Y-208391047D02*
X176156857Y-208391047D01*
X175728285Y-206914857D02*
X175442571Y-207676761D01*
X175156857Y-206914857D01*
X142438380Y-175213952D02*
X141438380Y-175213952D01*
X141438380Y-175594904D01*
X141486000Y-175690142D01*
X141533619Y-175737761D01*
X141628857Y-175785380D01*
X141771714Y-175785380D01*
X141866952Y-175737761D01*
X141914571Y-175690142D01*
X141962190Y-175594904D01*
X141962190Y-175213952D01*
X142438380Y-176356809D02*
X142390761Y-176261571D01*
X142295523Y-176213952D01*
X141438380Y-176213952D01*
X142438380Y-177166333D02*
X141914571Y-177166333D01*
X141819333Y-177118714D01*
X141771714Y-177023476D01*
X141771714Y-176833000D01*
X141819333Y-176737761D01*
X142390761Y-177166333D02*
X142438380Y-177071095D01*
X142438380Y-176833000D01*
X142390761Y-176737761D01*
X142295523Y-176690142D01*
X142200285Y-176690142D01*
X142105047Y-176737761D01*
X142057428Y-176833000D01*
X142057428Y-177071095D01*
X142009809Y-177166333D01*
X142390761Y-178071095D02*
X142438380Y-177975857D01*
X142438380Y-177785380D01*
X142390761Y-177690142D01*
X142343142Y-177642523D01*
X142247904Y-177594904D01*
X141962190Y-177594904D01*
X141866952Y-177642523D01*
X141819333Y-177690142D01*
X141771714Y-177785380D01*
X141771714Y-177975857D01*
X141819333Y-178071095D01*
X142390761Y-178880619D02*
X142438380Y-178785380D01*
X142438380Y-178594904D01*
X142390761Y-178499666D01*
X142295523Y-178452047D01*
X141914571Y-178452047D01*
X141819333Y-178499666D01*
X141771714Y-178594904D01*
X141771714Y-178785380D01*
X141819333Y-178880619D01*
X141914571Y-178928238D01*
X142009809Y-178928238D01*
X142105047Y-178452047D01*
X142438380Y-180118714D02*
X141438380Y-180118714D01*
X141438380Y-180499666D01*
X141486000Y-180594904D01*
X141533619Y-180642523D01*
X141628857Y-180690142D01*
X141771714Y-180690142D01*
X141866952Y-180642523D01*
X141914571Y-180594904D01*
X141962190Y-180499666D01*
X141962190Y-180118714D01*
X142438380Y-181118714D02*
X141771714Y-181118714D01*
X141962190Y-181118714D02*
X141866952Y-181166333D01*
X141819333Y-181213952D01*
X141771714Y-181309190D01*
X141771714Y-181404428D01*
X142438380Y-181880619D02*
X142390761Y-181785380D01*
X142343142Y-181737761D01*
X142247904Y-181690142D01*
X141962190Y-181690142D01*
X141866952Y-181737761D01*
X141819333Y-181785380D01*
X141771714Y-181880619D01*
X141771714Y-182023476D01*
X141819333Y-182118714D01*
X141866952Y-182166333D01*
X141962190Y-182213952D01*
X142247904Y-182213952D01*
X142343142Y-182166333D01*
X142390761Y-182118714D01*
X142438380Y-182023476D01*
X142438380Y-181880619D01*
X142438380Y-182642523D02*
X141438380Y-182642523D01*
X142152666Y-182975857D01*
X141438380Y-183309190D01*
X142438380Y-183309190D01*
X142438380Y-183785380D02*
X141771714Y-183785380D01*
X141438380Y-183785380D02*
X141486000Y-183737761D01*
X141533619Y-183785380D01*
X141486000Y-183833000D01*
X141438380Y-183785380D01*
X141533619Y-183785380D01*
X142390761Y-184690142D02*
X142438380Y-184594904D01*
X142438380Y-184404428D01*
X142390761Y-184309190D01*
X142343142Y-184261571D01*
X142247904Y-184213952D01*
X141962190Y-184213952D01*
X141866952Y-184261571D01*
X141819333Y-184309190D01*
X141771714Y-184404428D01*
X141771714Y-184594904D01*
X141819333Y-184690142D01*
X142438380Y-185118714D02*
X141771714Y-185118714D01*
X141962190Y-185118714D02*
X141866952Y-185166333D01*
X141819333Y-185213952D01*
X141771714Y-185309190D01*
X141771714Y-185404428D01*
X142438380Y-185880619D02*
X142390761Y-185785380D01*
X142343142Y-185737761D01*
X142247904Y-185690142D01*
X141962190Y-185690142D01*
X141866952Y-185737761D01*
X141819333Y-185785380D01*
X141771714Y-185880619D01*
X141771714Y-186023476D01*
X141819333Y-186118714D01*
X141866952Y-186166333D01*
X141962190Y-186213952D01*
X142247904Y-186213952D01*
X142343142Y-186166333D01*
X142390761Y-186118714D01*
X142438380Y-186023476D01*
X142438380Y-185880619D01*
X141771714Y-187261571D02*
X141771714Y-187642523D01*
X142438380Y-187404428D02*
X141581238Y-187404428D01*
X141486000Y-187452047D01*
X141438380Y-187547285D01*
X141438380Y-187642523D01*
X142438380Y-188404428D02*
X141914571Y-188404428D01*
X141819333Y-188356809D01*
X141771714Y-188261571D01*
X141771714Y-188071095D01*
X141819333Y-187975857D01*
X142390761Y-188404428D02*
X142438380Y-188309190D01*
X142438380Y-188071095D01*
X142390761Y-187975857D01*
X142295523Y-187928238D01*
X142200285Y-187928238D01*
X142105047Y-187975857D01*
X142057428Y-188071095D01*
X142057428Y-188309190D01*
X142009809Y-188404428D01*
X142390761Y-189309190D02*
X142438380Y-189213952D01*
X142438380Y-189023476D01*
X142390761Y-188928238D01*
X142343142Y-188880619D01*
X142247904Y-188833000D01*
X141962190Y-188833000D01*
X141866952Y-188880619D01*
X141819333Y-188928238D01*
X141771714Y-189023476D01*
X141771714Y-189213952D01*
X141819333Y-189309190D01*
X142390761Y-190118714D02*
X142438380Y-190023476D01*
X142438380Y-189833000D01*
X142390761Y-189737761D01*
X142295523Y-189690142D01*
X141914571Y-189690142D01*
X141819333Y-189737761D01*
X141771714Y-189833000D01*
X141771714Y-190023476D01*
X141819333Y-190118714D01*
X141914571Y-190166333D01*
X142009809Y-190166333D01*
X142105047Y-189690142D01*
X141771714Y-191213952D02*
X141771714Y-191594904D01*
X141438380Y-191356809D02*
X142295523Y-191356809D01*
X142390761Y-191404428D01*
X142438380Y-191499666D01*
X142438380Y-191594904D01*
X142438380Y-192071095D02*
X142390761Y-191975857D01*
X142343142Y-191928238D01*
X142247904Y-191880619D01*
X141962190Y-191880619D01*
X141866952Y-191928238D01*
X141819333Y-191975857D01*
X141771714Y-192071095D01*
X141771714Y-192213952D01*
X141819333Y-192309190D01*
X141866952Y-192356809D01*
X141962190Y-192404428D01*
X142247904Y-192404428D01*
X142343142Y-192356809D01*
X142390761Y-192309190D01*
X142438380Y-192213952D01*
X142438380Y-192071095D01*
X141771714Y-193452047D02*
X141771714Y-193833000D01*
X141438380Y-193594904D02*
X142295523Y-193594904D01*
X142390761Y-193642523D01*
X142438380Y-193737761D01*
X142438380Y-193833000D01*
X142438380Y-194166333D02*
X141438380Y-194166333D01*
X142438380Y-194594904D02*
X141914571Y-194594904D01*
X141819333Y-194547285D01*
X141771714Y-194452047D01*
X141771714Y-194309190D01*
X141819333Y-194213952D01*
X141866952Y-194166333D01*
X142390761Y-195452047D02*
X142438380Y-195356809D01*
X142438380Y-195166333D01*
X142390761Y-195071095D01*
X142295523Y-195023476D01*
X141914571Y-195023476D01*
X141819333Y-195071095D01*
X141771714Y-195166333D01*
X141771714Y-195356809D01*
X141819333Y-195452047D01*
X141914571Y-195499666D01*
X142009809Y-195499666D01*
X142105047Y-195023476D01*
X141771714Y-196690142D02*
X142771714Y-196690142D01*
X141819333Y-196690142D02*
X141771714Y-196785380D01*
X141771714Y-196975857D01*
X141819333Y-197071095D01*
X141866952Y-197118714D01*
X141962190Y-197166333D01*
X142247904Y-197166333D01*
X142343142Y-197118714D01*
X142390761Y-197071095D01*
X142438380Y-196975857D01*
X142438380Y-196785380D01*
X142390761Y-196690142D01*
X142438380Y-197737761D02*
X142390761Y-197642523D01*
X142295523Y-197594904D01*
X141438380Y-197594904D01*
X142438380Y-198547285D02*
X141914571Y-198547285D01*
X141819333Y-198499666D01*
X141771714Y-198404428D01*
X141771714Y-198213952D01*
X141819333Y-198118714D01*
X142390761Y-198547285D02*
X142438380Y-198452047D01*
X142438380Y-198213952D01*
X142390761Y-198118714D01*
X142295523Y-198071095D01*
X142200285Y-198071095D01*
X142105047Y-198118714D01*
X142057428Y-198213952D01*
X142057428Y-198452047D01*
X142009809Y-198547285D01*
X141771714Y-198880619D02*
X141771714Y-199261571D01*
X141438380Y-199023476D02*
X142295523Y-199023476D01*
X142390761Y-199071095D01*
X142438380Y-199166333D01*
X142438380Y-199261571D01*
X142390761Y-199975857D02*
X142438380Y-199880619D01*
X142438380Y-199690142D01*
X142390761Y-199594904D01*
X142295523Y-199547285D01*
X141914571Y-199547285D01*
X141819333Y-199594904D01*
X141771714Y-199690142D01*
X141771714Y-199880619D01*
X141819333Y-199975857D01*
X141914571Y-200023476D01*
X142009809Y-200023476D01*
X142105047Y-199547285D01*
X142343142Y-200452047D02*
X142390761Y-200499666D01*
X142438380Y-200452047D01*
X142390761Y-200404428D01*
X142343142Y-200452047D01*
X142438380Y-200452047D01*
X129934738Y-198986619D02*
X130029976Y-198939000D01*
X130125214Y-198843761D01*
X130268071Y-198700904D01*
X130363309Y-198653285D01*
X130458547Y-198653285D01*
X130410928Y-198891380D02*
X130506166Y-198843761D01*
X130601404Y-198748523D01*
X130649023Y-198558047D01*
X130649023Y-198224714D01*
X130601404Y-198034238D01*
X130506166Y-197939000D01*
X130410928Y-197891380D01*
X130220452Y-197891380D01*
X130125214Y-197939000D01*
X130029976Y-198034238D01*
X129982357Y-198224714D01*
X129982357Y-198558047D01*
X130029976Y-198748523D01*
X130125214Y-198843761D01*
X130220452Y-198891380D01*
X130410928Y-198891380D01*
X129553785Y-198891380D02*
X129553785Y-197891380D01*
X129220452Y-198605666D01*
X128887119Y-197891380D01*
X128887119Y-198891380D01*
X128410928Y-198891380D02*
X128410928Y-197891380D01*
X127839500Y-198891380D02*
X128268071Y-198319952D01*
X127839500Y-197891380D02*
X128410928Y-198462809D01*
X127410928Y-198796142D02*
X127363309Y-198843761D01*
X127410928Y-198891380D01*
X127458547Y-198843761D01*
X127410928Y-198796142D01*
X127410928Y-198891380D01*
X127410928Y-198272333D02*
X127363309Y-198319952D01*
X127410928Y-198367571D01*
X127458547Y-198319952D01*
X127410928Y-198272333D01*
X127410928Y-198367571D01*
X130649023Y-199874714D02*
X129934738Y-199874714D01*
X130363309Y-199446142D02*
X130649023Y-200731857D01*
X130029976Y-200303285D02*
X130744261Y-200303285D01*
X130315690Y-200731857D02*
X130029976Y-199446142D01*
X129172833Y-200541380D02*
X129172833Y-199541380D01*
X129172833Y-200493761D02*
X129268071Y-200541380D01*
X129458547Y-200541380D01*
X129553785Y-200493761D01*
X129601404Y-200446142D01*
X129649023Y-200350904D01*
X129649023Y-200065190D01*
X129601404Y-199969952D01*
X129553785Y-199922333D01*
X129458547Y-199874714D01*
X129268071Y-199874714D01*
X129172833Y-199922333D01*
X128315690Y-200493761D02*
X128410928Y-200541380D01*
X128601404Y-200541380D01*
X128696642Y-200493761D01*
X128744261Y-200398523D01*
X128744261Y-200017571D01*
X128696642Y-199922333D01*
X128601404Y-199874714D01*
X128410928Y-199874714D01*
X128315690Y-199922333D01*
X128268071Y-200017571D01*
X128268071Y-200112809D01*
X128744261Y-200208047D01*
X127982357Y-199874714D02*
X127601404Y-199874714D01*
X127839500Y-200541380D02*
X127839500Y-199684238D01*
X127791880Y-199589000D01*
X127696642Y-199541380D01*
X127601404Y-199541380D01*
X127268071Y-200541380D02*
X127268071Y-199874714D01*
X127268071Y-199541380D02*
X127315690Y-199589000D01*
X127268071Y-199636619D01*
X127220452Y-199589000D01*
X127268071Y-199541380D01*
X127268071Y-199636619D01*
X126791880Y-199874714D02*
X126791880Y-200541380D01*
X126791880Y-199969952D02*
X126744261Y-199922333D01*
X126649023Y-199874714D01*
X126506166Y-199874714D01*
X126410928Y-199922333D01*
X126363309Y-200017571D01*
X126363309Y-200541380D01*
X125506166Y-200493761D02*
X125601404Y-200541380D01*
X125791880Y-200541380D01*
X125887119Y-200493761D01*
X125934738Y-200398523D01*
X125934738Y-200017571D01*
X125887119Y-199922333D01*
X125791880Y-199874714D01*
X125601404Y-199874714D01*
X125506166Y-199922333D01*
X125458547Y-200017571D01*
X125458547Y-200112809D01*
X125934738Y-200208047D01*
X124268071Y-200541380D02*
X124268071Y-199541380D01*
X123934738Y-200255666D01*
X123601404Y-199541380D01*
X123601404Y-200541380D01*
X123172833Y-200255666D02*
X122696642Y-200255666D01*
X123268071Y-200541380D02*
X122934738Y-199541380D01*
X122601404Y-200541380D01*
X122410928Y-199541380D02*
X121839500Y-199541380D01*
X122125214Y-200541380D02*
X122125214Y-199541380D01*
X120934738Y-200541380D02*
X121268071Y-200065190D01*
X121506166Y-200541380D02*
X121506166Y-199541380D01*
X121125214Y-199541380D01*
X121029976Y-199589000D01*
X120982357Y-199636619D01*
X120934738Y-199731857D01*
X120934738Y-199874714D01*
X120982357Y-199969952D01*
X121029976Y-200017571D01*
X121125214Y-200065190D01*
X121506166Y-200065190D01*
X120506166Y-200541380D02*
X120506166Y-199541380D01*
X120125214Y-199541380D02*
X119458547Y-200541380D01*
X119458547Y-199541380D02*
X120125214Y-200541380D01*
X119315690Y-200636619D02*
X118553785Y-200636619D01*
X117744261Y-200541380D02*
X118077595Y-200065190D01*
X118315690Y-200541380D02*
X118315690Y-199541380D01*
X117934738Y-199541380D01*
X117839500Y-199589000D01*
X117791880Y-199636619D01*
X117744261Y-199731857D01*
X117744261Y-199874714D01*
X117791880Y-199969952D01*
X117839500Y-200017571D01*
X117934738Y-200065190D01*
X118315690Y-200065190D01*
X117125214Y-199541380D02*
X116934738Y-199541380D01*
X116839500Y-199589000D01*
X116744261Y-199684238D01*
X116696642Y-199874714D01*
X116696642Y-200208047D01*
X116744261Y-200398523D01*
X116839500Y-200493761D01*
X116934738Y-200541380D01*
X117125214Y-200541380D01*
X117220452Y-200493761D01*
X117315690Y-200398523D01*
X117363309Y-200208047D01*
X117363309Y-199874714D01*
X117315690Y-199684238D01*
X117220452Y-199589000D01*
X117125214Y-199541380D01*
X116363309Y-199541380D02*
X116125214Y-200541380D01*
X115934738Y-199827095D01*
X115744261Y-200541380D01*
X115506166Y-199541380D01*
X115363309Y-200636619D02*
X114601404Y-200636619D01*
X114363309Y-200541380D02*
X114363309Y-199541380D01*
X113982357Y-199541380D01*
X113887119Y-199589000D01*
X113839500Y-199636619D01*
X113791880Y-199731857D01*
X113791880Y-199874714D01*
X113839500Y-199969952D01*
X113887119Y-200017571D01*
X113982357Y-200065190D01*
X114363309Y-200065190D01*
X113363309Y-200541380D02*
X113363309Y-199541380D01*
X112887119Y-200541380D02*
X112887119Y-199541380D01*
X112315690Y-200541380D01*
X112315690Y-199541380D01*
X111887119Y-200493761D02*
X111744261Y-200541380D01*
X111506166Y-200541380D01*
X111410928Y-200493761D01*
X111363309Y-200446142D01*
X111315690Y-200350904D01*
X111315690Y-200255666D01*
X111363309Y-200160428D01*
X111410928Y-200112809D01*
X111506166Y-200065190D01*
X111696642Y-200017571D01*
X111791880Y-199969952D01*
X111839500Y-199922333D01*
X111887119Y-199827095D01*
X111887119Y-199731857D01*
X111839500Y-199636619D01*
X111791880Y-199589000D01*
X111696642Y-199541380D01*
X111458547Y-199541380D01*
X111315690Y-199589000D01*
X109839500Y-200922333D02*
X109887119Y-200922333D01*
X109982357Y-200874714D01*
X110029976Y-200779476D01*
X110029976Y-200303285D01*
X110077595Y-200208047D01*
X110172833Y-200160428D01*
X110077595Y-200112809D01*
X110029976Y-200017571D01*
X110029976Y-199541380D01*
X109982357Y-199446142D01*
X109887119Y-199398523D01*
X109839500Y-199398523D01*
X109458547Y-200541380D02*
X109458547Y-199541380D01*
X109220452Y-199541380D01*
X109077595Y-199589000D01*
X108982357Y-199684238D01*
X108934738Y-199779476D01*
X108887119Y-199969952D01*
X108887119Y-200112809D01*
X108934738Y-200303285D01*
X108982357Y-200398523D01*
X109077595Y-200493761D01*
X109220452Y-200541380D01*
X109458547Y-200541380D01*
X108553785Y-199541380D02*
X107934738Y-199541380D01*
X108268071Y-199922333D01*
X108125214Y-199922333D01*
X108029976Y-199969952D01*
X107982357Y-200017571D01*
X107934738Y-200112809D01*
X107934738Y-200350904D01*
X107982357Y-200446142D01*
X108029976Y-200493761D01*
X108125214Y-200541380D01*
X108410928Y-200541380D01*
X108506166Y-200493761D01*
X108553785Y-200446142D01*
X107458547Y-200493761D02*
X107458547Y-200541380D01*
X107506166Y-200636619D01*
X107553785Y-200684238D01*
X106268071Y-200541380D02*
X106268071Y-199541380D01*
X106029976Y-199541380D01*
X105887119Y-199589000D01*
X105791880Y-199684238D01*
X105744261Y-199779476D01*
X105696642Y-199969952D01*
X105696642Y-200112809D01*
X105744261Y-200303285D01*
X105791880Y-200398523D01*
X105887119Y-200493761D01*
X106029976Y-200541380D01*
X106268071Y-200541380D01*
X105315690Y-199636619D02*
X105268071Y-199589000D01*
X105172833Y-199541380D01*
X104934738Y-199541380D01*
X104839500Y-199589000D01*
X104791880Y-199636619D01*
X104744261Y-199731857D01*
X104744261Y-199827095D01*
X104791880Y-199969952D01*
X105363309Y-200541380D01*
X104744261Y-200541380D01*
X104268071Y-200493761D02*
X104268071Y-200541380D01*
X104315690Y-200636619D01*
X104363309Y-200684238D01*
X103077595Y-200541380D02*
X103077595Y-199541380D01*
X102839500Y-199541380D01*
X102696642Y-199589000D01*
X102601404Y-199684238D01*
X102553785Y-199779476D01*
X102506166Y-199969952D01*
X102506166Y-200112809D01*
X102553785Y-200303285D01*
X102601404Y-200398523D01*
X102696642Y-200493761D01*
X102839500Y-200541380D01*
X103077595Y-200541380D01*
X101649023Y-199874714D02*
X101649023Y-200541380D01*
X101887119Y-199493761D02*
X102125214Y-200208047D01*
X101506166Y-200208047D01*
X101077595Y-200493761D02*
X101077595Y-200541380D01*
X101125214Y-200636619D01*
X101172833Y-200684238D01*
X99315690Y-200446142D02*
X99363309Y-200493761D01*
X99506166Y-200541380D01*
X99601404Y-200541380D01*
X99744261Y-200493761D01*
X99839500Y-200398523D01*
X99887119Y-200303285D01*
X99934738Y-200112809D01*
X99934738Y-199969952D01*
X99887119Y-199779476D01*
X99839500Y-199684238D01*
X99744261Y-199589000D01*
X99601404Y-199541380D01*
X99506166Y-199541380D01*
X99363309Y-199589000D01*
X99315690Y-199636619D01*
X98458547Y-199541380D02*
X98649023Y-199541380D01*
X98744261Y-199589000D01*
X98791880Y-199636619D01*
X98887119Y-199779476D01*
X98934738Y-199969952D01*
X98934738Y-200350904D01*
X98887119Y-200446142D01*
X98839500Y-200493761D01*
X98744261Y-200541380D01*
X98553785Y-200541380D01*
X98458547Y-200493761D01*
X98410928Y-200446142D01*
X98363309Y-200350904D01*
X98363309Y-200112809D01*
X98410928Y-200017571D01*
X98458547Y-199969952D01*
X98553785Y-199922333D01*
X98744261Y-199922333D01*
X98839500Y-199969952D01*
X98887119Y-200017571D01*
X98934738Y-200112809D01*
X98029976Y-200922333D02*
X97982357Y-200922333D01*
X97887119Y-200874714D01*
X97839500Y-200779476D01*
X97839500Y-200303285D01*
X97791880Y-200208047D01*
X97696642Y-200160428D01*
X97791880Y-200112809D01*
X97839500Y-200017571D01*
X97839500Y-199541380D01*
X97887119Y-199446142D01*
X97982357Y-199398523D01*
X98029976Y-199398523D01*
X130649023Y-201524714D02*
X129934738Y-201524714D01*
X130363309Y-201096142D02*
X130649023Y-202381857D01*
X130029976Y-201953285D02*
X130744261Y-201953285D01*
X130315690Y-202381857D02*
X130029976Y-201096142D01*
X129172833Y-202191380D02*
X129172833Y-201191380D01*
X129172833Y-202143761D02*
X129268071Y-202191380D01*
X129458547Y-202191380D01*
X129553785Y-202143761D01*
X129601404Y-202096142D01*
X129649023Y-202000904D01*
X129649023Y-201715190D01*
X129601404Y-201619952D01*
X129553785Y-201572333D01*
X129458547Y-201524714D01*
X129268071Y-201524714D01*
X129172833Y-201572333D01*
X128315690Y-202143761D02*
X128410928Y-202191380D01*
X128601404Y-202191380D01*
X128696642Y-202143761D01*
X128744261Y-202048523D01*
X128744261Y-201667571D01*
X128696642Y-201572333D01*
X128601404Y-201524714D01*
X128410928Y-201524714D01*
X128315690Y-201572333D01*
X128268071Y-201667571D01*
X128268071Y-201762809D01*
X128744261Y-201858047D01*
X127982357Y-201524714D02*
X127601404Y-201524714D01*
X127839500Y-202191380D02*
X127839500Y-201334238D01*
X127791880Y-201239000D01*
X127696642Y-201191380D01*
X127601404Y-201191380D01*
X127268071Y-202191380D02*
X127268071Y-201524714D01*
X127268071Y-201191380D02*
X127315690Y-201239000D01*
X127268071Y-201286619D01*
X127220452Y-201239000D01*
X127268071Y-201191380D01*
X127268071Y-201286619D01*
X126791880Y-201524714D02*
X126791880Y-202191380D01*
X126791880Y-201619952D02*
X126744261Y-201572333D01*
X126649023Y-201524714D01*
X126506166Y-201524714D01*
X126410928Y-201572333D01*
X126363309Y-201667571D01*
X126363309Y-202191380D01*
X125506166Y-202143761D02*
X125601404Y-202191380D01*
X125791880Y-202191380D01*
X125887119Y-202143761D01*
X125934738Y-202048523D01*
X125934738Y-201667571D01*
X125887119Y-201572333D01*
X125791880Y-201524714D01*
X125601404Y-201524714D01*
X125506166Y-201572333D01*
X125458547Y-201667571D01*
X125458547Y-201762809D01*
X125934738Y-201858047D01*
X124268071Y-202191380D02*
X124268071Y-201191380D01*
X123934738Y-201905666D01*
X123601404Y-201191380D01*
X123601404Y-202191380D01*
X123172833Y-201905666D02*
X122696642Y-201905666D01*
X123268071Y-202191380D02*
X122934738Y-201191380D01*
X122601404Y-202191380D01*
X122410928Y-201191380D02*
X121839500Y-201191380D01*
X122125214Y-202191380D02*
X122125214Y-201191380D01*
X120934738Y-202191380D02*
X121268071Y-201715190D01*
X121506166Y-202191380D02*
X121506166Y-201191380D01*
X121125214Y-201191380D01*
X121029976Y-201239000D01*
X120982357Y-201286619D01*
X120934738Y-201381857D01*
X120934738Y-201524714D01*
X120982357Y-201619952D01*
X121029976Y-201667571D01*
X121125214Y-201715190D01*
X121506166Y-201715190D01*
X120506166Y-202191380D02*
X120506166Y-201191380D01*
X120125214Y-201191380D02*
X119458547Y-202191380D01*
X119458547Y-201191380D02*
X120125214Y-202191380D01*
X119315690Y-202286619D02*
X118553785Y-202286619D01*
X117744261Y-202096142D02*
X117791880Y-202143761D01*
X117934738Y-202191380D01*
X118029976Y-202191380D01*
X118172833Y-202143761D01*
X118268071Y-202048523D01*
X118315690Y-201953285D01*
X118363309Y-201762809D01*
X118363309Y-201619952D01*
X118315690Y-201429476D01*
X118268071Y-201334238D01*
X118172833Y-201239000D01*
X118029976Y-201191380D01*
X117934738Y-201191380D01*
X117791880Y-201239000D01*
X117744261Y-201286619D01*
X117125214Y-201191380D02*
X116934738Y-201191380D01*
X116839500Y-201239000D01*
X116744261Y-201334238D01*
X116696642Y-201524714D01*
X116696642Y-201858047D01*
X116744261Y-202048523D01*
X116839500Y-202143761D01*
X116934738Y-202191380D01*
X117125214Y-202191380D01*
X117220452Y-202143761D01*
X117315690Y-202048523D01*
X117363309Y-201858047D01*
X117363309Y-201524714D01*
X117315690Y-201334238D01*
X117220452Y-201239000D01*
X117125214Y-201191380D01*
X115791880Y-202191380D02*
X116268071Y-202191380D01*
X116268071Y-201191380D01*
X115696642Y-202286619D02*
X114934738Y-202286619D01*
X114696642Y-202191380D02*
X114696642Y-201191380D01*
X114315690Y-201191380D01*
X114220452Y-201239000D01*
X114172833Y-201286619D01*
X114125214Y-201381857D01*
X114125214Y-201524714D01*
X114172833Y-201619952D01*
X114220452Y-201667571D01*
X114315690Y-201715190D01*
X114696642Y-201715190D01*
X113696642Y-202191380D02*
X113696642Y-201191380D01*
X113220452Y-202191380D02*
X113220452Y-201191380D01*
X112649023Y-202191380D01*
X112649023Y-201191380D01*
X112220452Y-202143761D02*
X112077595Y-202191380D01*
X111839500Y-202191380D01*
X111744261Y-202143761D01*
X111696642Y-202096142D01*
X111649023Y-202000904D01*
X111649023Y-201905666D01*
X111696642Y-201810428D01*
X111744261Y-201762809D01*
X111839500Y-201715190D01*
X112029976Y-201667571D01*
X112125214Y-201619952D01*
X112172833Y-201572333D01*
X112220452Y-201477095D01*
X112220452Y-201381857D01*
X112172833Y-201286619D01*
X112125214Y-201239000D01*
X112029976Y-201191380D01*
X111791880Y-201191380D01*
X111649023Y-201239000D01*
X110172833Y-202572333D02*
X110220452Y-202572333D01*
X110315690Y-202524714D01*
X110363309Y-202429476D01*
X110363309Y-201953285D01*
X110410928Y-201858047D01*
X110506166Y-201810428D01*
X110410928Y-201762809D01*
X110363309Y-201667571D01*
X110363309Y-201191380D01*
X110315690Y-201096142D01*
X110220452Y-201048523D01*
X110172833Y-201048523D01*
X109458547Y-201667571D02*
X109315690Y-201715190D01*
X109268071Y-201762809D01*
X109220452Y-201858047D01*
X109220452Y-202000904D01*
X109268071Y-202096142D01*
X109315690Y-202143761D01*
X109410928Y-202191380D01*
X109791880Y-202191380D01*
X109791880Y-201191380D01*
X109458547Y-201191380D01*
X109363309Y-201239000D01*
X109315690Y-201286619D01*
X109268071Y-201381857D01*
X109268071Y-201477095D01*
X109315690Y-201572333D01*
X109363309Y-201619952D01*
X109458547Y-201667571D01*
X109791880Y-201667571D01*
X108839500Y-201286619D02*
X108791880Y-201239000D01*
X108696642Y-201191380D01*
X108458547Y-201191380D01*
X108363309Y-201239000D01*
X108315690Y-201286619D01*
X108268071Y-201381857D01*
X108268071Y-201477095D01*
X108315690Y-201619952D01*
X108887119Y-202191380D01*
X108268071Y-202191380D01*
X107791880Y-202143761D02*
X107791880Y-202191380D01*
X107839500Y-202286619D01*
X107887119Y-202334238D01*
X106268071Y-201667571D02*
X106125214Y-201715190D01*
X106077595Y-201762809D01*
X106029976Y-201858047D01*
X106029976Y-202000904D01*
X106077595Y-202096142D01*
X106125214Y-202143761D01*
X106220452Y-202191380D01*
X106601404Y-202191380D01*
X106601404Y-201191380D01*
X106268071Y-201191380D01*
X106172833Y-201239000D01*
X106125214Y-201286619D01*
X106077595Y-201381857D01*
X106077595Y-201477095D01*
X106125214Y-201572333D01*
X106172833Y-201619952D01*
X106268071Y-201667571D01*
X106601404Y-201667571D01*
X105172833Y-201191380D02*
X105363309Y-201191380D01*
X105458547Y-201239000D01*
X105506166Y-201286619D01*
X105601404Y-201429476D01*
X105649023Y-201619952D01*
X105649023Y-202000904D01*
X105601404Y-202096142D01*
X105553785Y-202143761D01*
X105458547Y-202191380D01*
X105268071Y-202191380D01*
X105172833Y-202143761D01*
X105125214Y-202096142D01*
X105077595Y-202000904D01*
X105077595Y-201762809D01*
X105125214Y-201667571D01*
X105172833Y-201619952D01*
X105268071Y-201572333D01*
X105458547Y-201572333D01*
X105553785Y-201619952D01*
X105601404Y-201667571D01*
X105649023Y-201762809D01*
X104601404Y-202143761D02*
X104601404Y-202191380D01*
X104649023Y-202286619D01*
X104696642Y-202334238D01*
X103077595Y-201667571D02*
X102934738Y-201715190D01*
X102887119Y-201762809D01*
X102839500Y-201858047D01*
X102839500Y-202000904D01*
X102887119Y-202096142D01*
X102934738Y-202143761D01*
X103029976Y-202191380D01*
X103410928Y-202191380D01*
X103410928Y-201191380D01*
X103077595Y-201191380D01*
X102982357Y-201239000D01*
X102934738Y-201286619D01*
X102887119Y-201381857D01*
X102887119Y-201477095D01*
X102934738Y-201572333D01*
X102982357Y-201619952D01*
X103077595Y-201667571D01*
X103410928Y-201667571D01*
X101934738Y-201191380D02*
X102410928Y-201191380D01*
X102458547Y-201667571D01*
X102410928Y-201619952D01*
X102315690Y-201572333D01*
X102077595Y-201572333D01*
X101982357Y-201619952D01*
X101934738Y-201667571D01*
X101887119Y-201762809D01*
X101887119Y-202000904D01*
X101934738Y-202096142D01*
X101982357Y-202143761D01*
X102077595Y-202191380D01*
X102315690Y-202191380D01*
X102410928Y-202143761D01*
X102458547Y-202096142D01*
X101410928Y-202143761D02*
X101410928Y-202191380D01*
X101458547Y-202286619D01*
X101506166Y-202334238D01*
X99887119Y-201667571D02*
X99744261Y-201715190D01*
X99696642Y-201762809D01*
X99649023Y-201858047D01*
X99649023Y-202000904D01*
X99696642Y-202096142D01*
X99744261Y-202143761D01*
X99839500Y-202191380D01*
X100220452Y-202191380D01*
X100220452Y-201191380D01*
X99887119Y-201191380D01*
X99791880Y-201239000D01*
X99744261Y-201286619D01*
X99696642Y-201381857D01*
X99696642Y-201477095D01*
X99744261Y-201572333D01*
X99791880Y-201619952D01*
X99887119Y-201667571D01*
X100220452Y-201667571D01*
X98791880Y-201524714D02*
X98791880Y-202191380D01*
X99029976Y-201143761D02*
X99268071Y-201858047D01*
X98649023Y-201858047D01*
X98220452Y-202143761D02*
X98220452Y-202191380D01*
X98268071Y-202286619D01*
X98315690Y-202334238D01*
X97029976Y-201667571D02*
X96696642Y-201667571D01*
X96553785Y-202191380D02*
X97029976Y-202191380D01*
X97029976Y-201191380D01*
X96553785Y-201191380D01*
X95696642Y-201191380D02*
X95887119Y-201191380D01*
X95982357Y-201239000D01*
X96029976Y-201286619D01*
X96125214Y-201429476D01*
X96172833Y-201619952D01*
X96172833Y-202000904D01*
X96125214Y-202096142D01*
X96077595Y-202143761D01*
X95982357Y-202191380D01*
X95791880Y-202191380D01*
X95696642Y-202143761D01*
X95649023Y-202096142D01*
X95601404Y-202000904D01*
X95601404Y-201762809D01*
X95649023Y-201667571D01*
X95696642Y-201619952D01*
X95791880Y-201572333D01*
X95982357Y-201572333D01*
X96077595Y-201619952D01*
X96125214Y-201667571D01*
X96172833Y-201762809D01*
X95125214Y-202143761D02*
X95125214Y-202191380D01*
X95172833Y-202286619D01*
X95220452Y-202334238D01*
X93934738Y-202191380D02*
X93934738Y-201191380D01*
X93696642Y-201191380D01*
X93553785Y-201239000D01*
X93458547Y-201334238D01*
X93410928Y-201429476D01*
X93363309Y-201619952D01*
X93363309Y-201762809D01*
X93410928Y-201953285D01*
X93458547Y-202048523D01*
X93553785Y-202143761D01*
X93696642Y-202191380D01*
X93934738Y-202191380D01*
X93029976Y-201191380D02*
X92363309Y-201191380D01*
X92791880Y-202191380D01*
X91934738Y-202143761D02*
X91934738Y-202191380D01*
X91982357Y-202286619D01*
X92029976Y-202334238D01*
X90410928Y-201667571D02*
X90268071Y-201715190D01*
X90220452Y-201762809D01*
X90172833Y-201858047D01*
X90172833Y-202000904D01*
X90220452Y-202096142D01*
X90268071Y-202143761D01*
X90363309Y-202191380D01*
X90744261Y-202191380D01*
X90744261Y-201191380D01*
X90410928Y-201191380D01*
X90315690Y-201239000D01*
X90268071Y-201286619D01*
X90220452Y-201381857D01*
X90220452Y-201477095D01*
X90268071Y-201572333D01*
X90315690Y-201619952D01*
X90410928Y-201667571D01*
X90744261Y-201667571D01*
X89839500Y-201191380D02*
X89220452Y-201191380D01*
X89553785Y-201572333D01*
X89410928Y-201572333D01*
X89315690Y-201619952D01*
X89268071Y-201667571D01*
X89220452Y-201762809D01*
X89220452Y-202000904D01*
X89268071Y-202096142D01*
X89315690Y-202143761D01*
X89410928Y-202191380D01*
X89696642Y-202191380D01*
X89791880Y-202143761D01*
X89839500Y-202096142D01*
X88744261Y-202143761D02*
X88744261Y-202191380D01*
X88791880Y-202286619D01*
X88839500Y-202334238D01*
X87220452Y-201667571D02*
X87553785Y-201667571D01*
X87553785Y-202191380D02*
X87553785Y-201191380D01*
X87077595Y-201191380D01*
X86268071Y-201524714D02*
X86268071Y-202191380D01*
X86506166Y-201143761D02*
X86744261Y-201858047D01*
X86125214Y-201858047D01*
X85696642Y-202143761D02*
X85696642Y-202191380D01*
X85744261Y-202286619D01*
X85791880Y-202334238D01*
X84172833Y-201667571D02*
X84506166Y-201667571D01*
X84506166Y-202191380D02*
X84506166Y-201191380D01*
X84029976Y-201191380D01*
X83172833Y-201191380D02*
X83649023Y-201191380D01*
X83696642Y-201667571D01*
X83649023Y-201619952D01*
X83553785Y-201572333D01*
X83315690Y-201572333D01*
X83220452Y-201619952D01*
X83172833Y-201667571D01*
X83125214Y-201762809D01*
X83125214Y-202000904D01*
X83172833Y-202096142D01*
X83220452Y-202143761D01*
X83315690Y-202191380D01*
X83553785Y-202191380D01*
X83649023Y-202143761D01*
X83696642Y-202096142D01*
X82649023Y-202143761D02*
X82649023Y-202191380D01*
X82696642Y-202286619D01*
X82744261Y-202334238D01*
X81125214Y-201667571D02*
X81458547Y-201667571D01*
X81458547Y-202191380D02*
X81458547Y-201191380D01*
X80982357Y-201191380D01*
X80172833Y-201191380D02*
X80363309Y-201191380D01*
X80458547Y-201239000D01*
X80506166Y-201286619D01*
X80601404Y-201429476D01*
X80649023Y-201619952D01*
X80649023Y-202000904D01*
X80601404Y-202096142D01*
X80553785Y-202143761D01*
X80458547Y-202191380D01*
X80268071Y-202191380D01*
X80172833Y-202143761D01*
X80125214Y-202096142D01*
X80077595Y-202000904D01*
X80077595Y-201762809D01*
X80125214Y-201667571D01*
X80172833Y-201619952D01*
X80268071Y-201572333D01*
X80458547Y-201572333D01*
X80553785Y-201619952D01*
X80601404Y-201667571D01*
X80649023Y-201762809D01*
X79601404Y-202143761D02*
X79601404Y-202191380D01*
X79649023Y-202286619D01*
X79696642Y-202334238D01*
X78077595Y-201667571D02*
X78410928Y-201667571D01*
X78410928Y-202191380D02*
X78410928Y-201191380D01*
X77934738Y-201191380D01*
X77649023Y-201191380D02*
X76982357Y-201191380D01*
X77410928Y-202191380D01*
X76553785Y-202143761D02*
X76553785Y-202191380D01*
X76601404Y-202286619D01*
X76649023Y-202334238D01*
X75029976Y-201667571D02*
X74887119Y-201715190D01*
X74839500Y-201762809D01*
X74791880Y-201858047D01*
X74791880Y-202000904D01*
X74839500Y-202096142D01*
X74887119Y-202143761D01*
X74982357Y-202191380D01*
X75363309Y-202191380D01*
X75363309Y-201191380D01*
X75029976Y-201191380D01*
X74934738Y-201239000D01*
X74887119Y-201286619D01*
X74839500Y-201381857D01*
X74839500Y-201477095D01*
X74887119Y-201572333D01*
X74934738Y-201619952D01*
X75029976Y-201667571D01*
X75363309Y-201667571D01*
X73839500Y-202191380D02*
X74410928Y-202191380D01*
X74125214Y-202191380D02*
X74125214Y-201191380D01*
X74220452Y-201334238D01*
X74315690Y-201429476D01*
X74410928Y-201477095D01*
X73506166Y-202572333D02*
X73458547Y-202572333D01*
X73363309Y-202524714D01*
X73315690Y-202429476D01*
X73315690Y-201953285D01*
X73268071Y-201858047D01*
X73172833Y-201810428D01*
X73268071Y-201762809D01*
X73315690Y-201667571D01*
X73315690Y-201191380D01*
X73363309Y-201096142D01*
X73458547Y-201048523D01*
X73506166Y-201048523D01*
X130649023Y-203174714D02*
X129934738Y-203174714D01*
X130363309Y-202746142D02*
X130649023Y-204031857D01*
X130029976Y-203603285D02*
X130744261Y-203603285D01*
X130315690Y-204031857D02*
X130029976Y-202746142D01*
X129172833Y-203841380D02*
X129172833Y-202841380D01*
X129172833Y-203793761D02*
X129268071Y-203841380D01*
X129458547Y-203841380D01*
X129553785Y-203793761D01*
X129601404Y-203746142D01*
X129649023Y-203650904D01*
X129649023Y-203365190D01*
X129601404Y-203269952D01*
X129553785Y-203222333D01*
X129458547Y-203174714D01*
X129268071Y-203174714D01*
X129172833Y-203222333D01*
X128315690Y-203793761D02*
X128410928Y-203841380D01*
X128601404Y-203841380D01*
X128696642Y-203793761D01*
X128744261Y-203698523D01*
X128744261Y-203317571D01*
X128696642Y-203222333D01*
X128601404Y-203174714D01*
X128410928Y-203174714D01*
X128315690Y-203222333D01*
X128268071Y-203317571D01*
X128268071Y-203412809D01*
X128744261Y-203508047D01*
X127982357Y-203174714D02*
X127601404Y-203174714D01*
X127839500Y-203841380D02*
X127839500Y-202984238D01*
X127791880Y-202889000D01*
X127696642Y-202841380D01*
X127601404Y-202841380D01*
X127268071Y-203841380D02*
X127268071Y-203174714D01*
X127268071Y-202841380D02*
X127315690Y-202889000D01*
X127268071Y-202936619D01*
X127220452Y-202889000D01*
X127268071Y-202841380D01*
X127268071Y-202936619D01*
X126791880Y-203174714D02*
X126791880Y-203841380D01*
X126791880Y-203269952D02*
X126744261Y-203222333D01*
X126649023Y-203174714D01*
X126506166Y-203174714D01*
X126410928Y-203222333D01*
X126363309Y-203317571D01*
X126363309Y-203841380D01*
X125506166Y-203793761D02*
X125601404Y-203841380D01*
X125791880Y-203841380D01*
X125887119Y-203793761D01*
X125934738Y-203698523D01*
X125934738Y-203317571D01*
X125887119Y-203222333D01*
X125791880Y-203174714D01*
X125601404Y-203174714D01*
X125506166Y-203222333D01*
X125458547Y-203317571D01*
X125458547Y-203412809D01*
X125934738Y-203508047D01*
X124268071Y-203841380D02*
X124268071Y-202841380D01*
X124029976Y-202841380D01*
X123887119Y-202889000D01*
X123791880Y-202984238D01*
X123744261Y-203079476D01*
X123696642Y-203269952D01*
X123696642Y-203412809D01*
X123744261Y-203603285D01*
X123791880Y-203698523D01*
X123887119Y-203793761D01*
X124029976Y-203841380D01*
X124268071Y-203841380D01*
X123268071Y-203841380D02*
X123268071Y-202841380D01*
X122601404Y-202841380D02*
X122410928Y-202841380D01*
X122315690Y-202889000D01*
X122220452Y-202984238D01*
X122172833Y-203174714D01*
X122172833Y-203508047D01*
X122220452Y-203698523D01*
X122315690Y-203793761D01*
X122410928Y-203841380D01*
X122601404Y-203841380D01*
X122696642Y-203793761D01*
X122791880Y-203698523D01*
X122839500Y-203508047D01*
X122839500Y-203174714D01*
X122791880Y-202984238D01*
X122696642Y-202889000D01*
X122601404Y-202841380D01*
X121744261Y-203841380D02*
X121744261Y-202841380D01*
X121506166Y-202841380D01*
X121363309Y-202889000D01*
X121268071Y-202984238D01*
X121220452Y-203079476D01*
X121172833Y-203269952D01*
X121172833Y-203412809D01*
X121220452Y-203603285D01*
X121268071Y-203698523D01*
X121363309Y-203793761D01*
X121506166Y-203841380D01*
X121744261Y-203841380D01*
X120744261Y-203317571D02*
X120410928Y-203317571D01*
X120268071Y-203841380D02*
X120744261Y-203841380D01*
X120744261Y-202841380D01*
X120268071Y-202841380D01*
X120077595Y-203936619D02*
X119315690Y-203936619D01*
X119077595Y-203841380D02*
X119077595Y-202841380D01*
X118839500Y-202841380D01*
X118696642Y-202889000D01*
X118601404Y-202984238D01*
X118553785Y-203079476D01*
X118506166Y-203269952D01*
X118506166Y-203412809D01*
X118553785Y-203603285D01*
X118601404Y-203698523D01*
X118696642Y-203793761D01*
X118839500Y-203841380D01*
X119077595Y-203841380D01*
X118077595Y-203841380D02*
X118077595Y-202841380D01*
X117029976Y-203841380D02*
X117363309Y-203365190D01*
X117601404Y-203841380D02*
X117601404Y-202841380D01*
X117220452Y-202841380D01*
X117125214Y-202889000D01*
X117077595Y-202936619D01*
X117029976Y-203031857D01*
X117029976Y-203174714D01*
X117077595Y-203269952D01*
X117125214Y-203317571D01*
X117220452Y-203365190D01*
X117601404Y-203365190D01*
X116601404Y-203317571D02*
X116268071Y-203317571D01*
X116125214Y-203841380D02*
X116601404Y-203841380D01*
X116601404Y-202841380D01*
X116125214Y-202841380D01*
X115125214Y-203746142D02*
X115172833Y-203793761D01*
X115315690Y-203841380D01*
X115410928Y-203841380D01*
X115553785Y-203793761D01*
X115649023Y-203698523D01*
X115696642Y-203603285D01*
X115744261Y-203412809D01*
X115744261Y-203269952D01*
X115696642Y-203079476D01*
X115649023Y-202984238D01*
X115553785Y-202889000D01*
X115410928Y-202841380D01*
X115315690Y-202841380D01*
X115172833Y-202889000D01*
X115125214Y-202936619D01*
X114839500Y-202841380D02*
X114268071Y-202841380D01*
X114553785Y-203841380D02*
X114553785Y-202841380D01*
X113934738Y-203841380D02*
X113934738Y-202841380D01*
X113268071Y-202841380D02*
X113077595Y-202841380D01*
X112982357Y-202889000D01*
X112887119Y-202984238D01*
X112839500Y-203174714D01*
X112839500Y-203508047D01*
X112887119Y-203698523D01*
X112982357Y-203793761D01*
X113077595Y-203841380D01*
X113268071Y-203841380D01*
X113363309Y-203793761D01*
X113458547Y-203698523D01*
X113506166Y-203508047D01*
X113506166Y-203174714D01*
X113458547Y-202984238D01*
X113363309Y-202889000D01*
X113268071Y-202841380D01*
X112410928Y-203841380D02*
X112410928Y-202841380D01*
X111839500Y-203841380D01*
X111839500Y-202841380D01*
X110029976Y-203746142D02*
X110077595Y-203793761D01*
X110220452Y-203841380D01*
X110315690Y-203841380D01*
X110458547Y-203793761D01*
X110553785Y-203698523D01*
X110601404Y-203603285D01*
X110649023Y-203412809D01*
X110649023Y-203269952D01*
X110601404Y-203079476D01*
X110553785Y-202984238D01*
X110458547Y-202889000D01*
X110315690Y-202841380D01*
X110220452Y-202841380D01*
X110077595Y-202889000D01*
X110029976Y-202936619D01*
X109410928Y-202841380D02*
X109220452Y-202841380D01*
X109125214Y-202889000D01*
X109029976Y-202984238D01*
X108982357Y-203174714D01*
X108982357Y-203508047D01*
X109029976Y-203698523D01*
X109125214Y-203793761D01*
X109220452Y-203841380D01*
X109410928Y-203841380D01*
X109506166Y-203793761D01*
X109601404Y-203698523D01*
X109649023Y-203508047D01*
X109649023Y-203174714D01*
X109601404Y-202984238D01*
X109506166Y-202889000D01*
X109410928Y-202841380D01*
X108077595Y-203841380D02*
X108553785Y-203841380D01*
X108553785Y-202841380D01*
X107791880Y-202936619D02*
X107744261Y-202889000D01*
X107649023Y-202841380D01*
X107410928Y-202841380D01*
X107315690Y-202889000D01*
X107268071Y-202936619D01*
X107220452Y-203031857D01*
X107220452Y-203127095D01*
X107268071Y-203269952D01*
X107839500Y-203841380D01*
X107220452Y-203841380D01*
X106220452Y-203841380D02*
X106553785Y-203365190D01*
X106791880Y-203841380D02*
X106791880Y-202841380D01*
X106410928Y-202841380D01*
X106315690Y-202889000D01*
X106268071Y-202936619D01*
X106220452Y-203031857D01*
X106220452Y-203174714D01*
X106268071Y-203269952D01*
X106315690Y-203317571D01*
X106410928Y-203365190D01*
X106791880Y-203365190D01*
X105601404Y-202841380D02*
X105410928Y-202841380D01*
X105315690Y-202889000D01*
X105220452Y-202984238D01*
X105172833Y-203174714D01*
X105172833Y-203508047D01*
X105220452Y-203698523D01*
X105315690Y-203793761D01*
X105410928Y-203841380D01*
X105601404Y-203841380D01*
X105696642Y-203793761D01*
X105791880Y-203698523D01*
X105839500Y-203508047D01*
X105839500Y-203174714D01*
X105791880Y-202984238D01*
X105696642Y-202889000D01*
X105601404Y-202841380D01*
X104839500Y-202841380D02*
X104601404Y-203841380D01*
X104410928Y-203127095D01*
X104220452Y-203841380D01*
X103982357Y-202841380D01*
X122490476Y-213347380D02*
X121919047Y-213347380D01*
X122204761Y-214347380D02*
X122204761Y-213347380D01*
X121585714Y-214347380D02*
X121585714Y-213347380D01*
X121157142Y-214347380D02*
X121157142Y-213823571D01*
X121204761Y-213728333D01*
X121300000Y-213680714D01*
X121442857Y-213680714D01*
X121538095Y-213728333D01*
X121585714Y-213775952D01*
X120252380Y-213680714D02*
X120252380Y-214347380D01*
X120680952Y-213680714D02*
X120680952Y-214204523D01*
X120633333Y-214299761D01*
X120538095Y-214347380D01*
X120395238Y-214347380D01*
X120300000Y-214299761D01*
X120252380Y-214252142D01*
X119776190Y-214347380D02*
X119776190Y-213680714D01*
X119776190Y-213775952D02*
X119728571Y-213728333D01*
X119633333Y-213680714D01*
X119490476Y-213680714D01*
X119395238Y-213728333D01*
X119347619Y-213823571D01*
X119347619Y-214347380D01*
X119347619Y-213823571D02*
X119300000Y-213728333D01*
X119204761Y-213680714D01*
X119061904Y-213680714D01*
X118966666Y-213728333D01*
X118919047Y-213823571D01*
X118919047Y-214347380D01*
X118442857Y-214347380D02*
X118442857Y-213347380D01*
X118442857Y-213728333D02*
X118347619Y-213680714D01*
X118157142Y-213680714D01*
X118061904Y-213728333D01*
X118014285Y-213775952D01*
X117966666Y-213871190D01*
X117966666Y-214156904D01*
X118014285Y-214252142D01*
X118061904Y-214299761D01*
X118157142Y-214347380D01*
X118347619Y-214347380D01*
X118442857Y-214299761D01*
X117585714Y-214299761D02*
X117490476Y-214347380D01*
X117300000Y-214347380D01*
X117204761Y-214299761D01*
X117157142Y-214204523D01*
X117157142Y-214156904D01*
X117204761Y-214061666D01*
X117300000Y-214014047D01*
X117442857Y-214014047D01*
X117538095Y-213966428D01*
X117585714Y-213871190D01*
X117585714Y-213823571D01*
X117538095Y-213728333D01*
X117442857Y-213680714D01*
X117300000Y-213680714D01*
X117204761Y-213728333D01*
X115966666Y-213347380D02*
X115966666Y-214156904D01*
X115919047Y-214252142D01*
X115871428Y-214299761D01*
X115776190Y-214347380D01*
X115585714Y-214347380D01*
X115490476Y-214299761D01*
X115442857Y-214252142D01*
X115395238Y-214156904D01*
X115395238Y-213347380D01*
X114919047Y-213680714D02*
X114919047Y-214680714D01*
X114919047Y-213728333D02*
X114823809Y-213680714D01*
X114633333Y-213680714D01*
X114538095Y-213728333D01*
X114490476Y-213775952D01*
X114442857Y-213871190D01*
X114442857Y-214156904D01*
X114490476Y-214252142D01*
X114538095Y-214299761D01*
X114633333Y-214347380D01*
X114823809Y-214347380D01*
X114919047Y-214299761D01*
X114014285Y-214252142D02*
X113966666Y-214299761D01*
X114014285Y-214347380D01*
X114061904Y-214299761D01*
X114014285Y-214252142D01*
X114014285Y-214347380D01*
X114014285Y-213966428D02*
X114061904Y-213395000D01*
X114014285Y-213347380D01*
X113966666Y-213395000D01*
X114014285Y-213966428D01*
X114014285Y-213347380D01*
X112776190Y-214347380D02*
X112776190Y-213347380D01*
X112776190Y-213728333D02*
X112680952Y-213680714D01*
X112490476Y-213680714D01*
X112395238Y-213728333D01*
X112347619Y-213775952D01*
X112300000Y-213871190D01*
X112300000Y-214156904D01*
X112347619Y-214252142D01*
X112395238Y-214299761D01*
X112490476Y-214347380D01*
X112680952Y-214347380D01*
X112776190Y-214299761D01*
X111966666Y-213680714D02*
X111728571Y-214347380D01*
X111490476Y-213680714D02*
X111728571Y-214347380D01*
X111823809Y-214585476D01*
X111871428Y-214633095D01*
X111966666Y-214680714D01*
X110395238Y-214299761D02*
X110252380Y-214347380D01*
X110014285Y-214347380D01*
X109919047Y-214299761D01*
X109871428Y-214252142D01*
X109823809Y-214156904D01*
X109823809Y-214061666D01*
X109871428Y-213966428D01*
X109919047Y-213918809D01*
X110014285Y-213871190D01*
X110204761Y-213823571D01*
X110300000Y-213775952D01*
X110347619Y-213728333D01*
X110395238Y-213633095D01*
X110395238Y-213537857D01*
X110347619Y-213442619D01*
X110300000Y-213395000D01*
X110204761Y-213347380D01*
X109966666Y-213347380D01*
X109823809Y-213395000D01*
X108966666Y-214347380D02*
X108966666Y-213823571D01*
X109014285Y-213728333D01*
X109109523Y-213680714D01*
X109300000Y-213680714D01*
X109395238Y-213728333D01*
X108966666Y-214299761D02*
X109061904Y-214347380D01*
X109300000Y-214347380D01*
X109395238Y-214299761D01*
X109442857Y-214204523D01*
X109442857Y-214109285D01*
X109395238Y-214014047D01*
X109300000Y-213966428D01*
X109061904Y-213966428D01*
X108966666Y-213918809D01*
X108538095Y-214299761D02*
X108442857Y-214347380D01*
X108252380Y-214347380D01*
X108157142Y-214299761D01*
X108109523Y-214204523D01*
X108109523Y-214156904D01*
X108157142Y-214061666D01*
X108252380Y-214014047D01*
X108395238Y-214014047D01*
X108490476Y-213966428D01*
X108538095Y-213871190D01*
X108538095Y-213823571D01*
X108490476Y-213728333D01*
X108395238Y-213680714D01*
X108252380Y-213680714D01*
X108157142Y-213728333D01*
X107680952Y-214347380D02*
X107680952Y-213347380D01*
X107252380Y-214347380D02*
X107252380Y-213823571D01*
X107300000Y-213728333D01*
X107395238Y-213680714D01*
X107538095Y-213680714D01*
X107633333Y-213728333D01*
X107680952Y-213775952D01*
X106347619Y-214347380D02*
X106347619Y-213823571D01*
X106395238Y-213728333D01*
X106490476Y-213680714D01*
X106680952Y-213680714D01*
X106776190Y-213728333D01*
X106347619Y-214299761D02*
X106442857Y-214347380D01*
X106680952Y-214347380D01*
X106776190Y-214299761D01*
X106823809Y-214204523D01*
X106823809Y-214109285D01*
X106776190Y-214014047D01*
X106680952Y-213966428D01*
X106442857Y-213966428D01*
X106347619Y-213918809D01*
X105109523Y-214347380D02*
X105109523Y-213347380D01*
X104538095Y-214347380D02*
X104966666Y-213775952D01*
X104538095Y-213347380D02*
X105109523Y-213918809D01*
X103680952Y-214347380D02*
X103680952Y-213823571D01*
X103728571Y-213728333D01*
X103823809Y-213680714D01*
X104014285Y-213680714D01*
X104109523Y-213728333D01*
X103680952Y-214299761D02*
X103776190Y-214347380D01*
X104014285Y-214347380D01*
X104109523Y-214299761D01*
X104157142Y-214204523D01*
X104157142Y-214109285D01*
X104109523Y-214014047D01*
X104014285Y-213966428D01*
X103776190Y-213966428D01*
X103680952Y-213918809D01*
X103204761Y-214347380D02*
X103204761Y-213680714D01*
X103204761Y-213871190D02*
X103157142Y-213775952D01*
X103109523Y-213728333D01*
X103014285Y-213680714D01*
X102919047Y-213680714D01*
X102585714Y-214347380D02*
X102585714Y-213680714D01*
X102585714Y-213775952D02*
X102538095Y-213728333D01*
X102442857Y-213680714D01*
X102300000Y-213680714D01*
X102204761Y-213728333D01*
X102157142Y-213823571D01*
X102157142Y-214347380D01*
X102157142Y-213823571D02*
X102109523Y-213728333D01*
X102014285Y-213680714D01*
X101871428Y-213680714D01*
X101776190Y-213728333D01*
X101728571Y-213823571D01*
X101728571Y-214347380D01*
X100823809Y-214347380D02*
X100823809Y-213823571D01*
X100871428Y-213728333D01*
X100966666Y-213680714D01*
X101157142Y-213680714D01*
X101252380Y-213728333D01*
X100823809Y-214299761D02*
X100919047Y-214347380D01*
X101157142Y-214347380D01*
X101252380Y-214299761D01*
X101300000Y-214204523D01*
X101300000Y-214109285D01*
X101252380Y-214014047D01*
X101157142Y-213966428D01*
X100919047Y-213966428D01*
X100823809Y-213918809D01*
X100347619Y-213680714D02*
X100347619Y-214347380D01*
X100347619Y-213775952D02*
X100300000Y-213728333D01*
X100204761Y-213680714D01*
X100061904Y-213680714D01*
X99966666Y-213728333D01*
X99919047Y-213823571D01*
X99919047Y-214347380D01*
X99300000Y-214347380D02*
X99395238Y-214299761D01*
X99442857Y-214252142D01*
X99490476Y-214156904D01*
X99490476Y-213871190D01*
X99442857Y-213775952D01*
X99395238Y-213728333D01*
X99300000Y-213680714D01*
X99157142Y-213680714D01*
X99061904Y-213728333D01*
X99014285Y-213775952D01*
X98966666Y-213871190D01*
X98966666Y-214156904D01*
X99014285Y-214252142D01*
X99061904Y-214299761D01*
X99157142Y-214347380D01*
X99300000Y-214347380D01*
X98633333Y-213680714D02*
X98395238Y-214347380D01*
X98157142Y-213680714D01*
X116609523Y-214997380D02*
X116419047Y-214997380D01*
X116323809Y-215045000D01*
X116228571Y-215140238D01*
X116180952Y-215330714D01*
X116180952Y-215664047D01*
X116228571Y-215854523D01*
X116323809Y-215949761D01*
X116419047Y-215997380D01*
X116609523Y-215997380D01*
X116704761Y-215949761D01*
X116800000Y-215854523D01*
X116847619Y-215664047D01*
X116847619Y-215330714D01*
X116800000Y-215140238D01*
X116704761Y-215045000D01*
X116609523Y-214997380D01*
X115323809Y-215949761D02*
X115419047Y-215997380D01*
X115609523Y-215997380D01*
X115704761Y-215949761D01*
X115752380Y-215902142D01*
X115800000Y-215806904D01*
X115800000Y-215521190D01*
X115752380Y-215425952D01*
X115704761Y-215378333D01*
X115609523Y-215330714D01*
X115419047Y-215330714D01*
X115323809Y-215378333D01*
X115038095Y-215330714D02*
X114657142Y-215330714D01*
X114895238Y-214997380D02*
X114895238Y-215854523D01*
X114847619Y-215949761D01*
X114752380Y-215997380D01*
X114657142Y-215997380D01*
X114180952Y-215997380D02*
X114276190Y-215949761D01*
X114323809Y-215902142D01*
X114371428Y-215806904D01*
X114371428Y-215521190D01*
X114323809Y-215425952D01*
X114276190Y-215378333D01*
X114180952Y-215330714D01*
X114038095Y-215330714D01*
X113942857Y-215378333D01*
X113895238Y-215425952D01*
X113847619Y-215521190D01*
X113847619Y-215806904D01*
X113895238Y-215902142D01*
X113942857Y-215949761D01*
X114038095Y-215997380D01*
X114180952Y-215997380D01*
X113419047Y-215997380D02*
X113419047Y-214997380D01*
X113419047Y-215378333D02*
X113323809Y-215330714D01*
X113133333Y-215330714D01*
X113038095Y-215378333D01*
X112990476Y-215425952D01*
X112942857Y-215521190D01*
X112942857Y-215806904D01*
X112990476Y-215902142D01*
X113038095Y-215949761D01*
X113133333Y-215997380D01*
X113323809Y-215997380D01*
X113419047Y-215949761D01*
X112133333Y-215949761D02*
X112228571Y-215997380D01*
X112419047Y-215997380D01*
X112514285Y-215949761D01*
X112561904Y-215854523D01*
X112561904Y-215473571D01*
X112514285Y-215378333D01*
X112419047Y-215330714D01*
X112228571Y-215330714D01*
X112133333Y-215378333D01*
X112085714Y-215473571D01*
X112085714Y-215568809D01*
X112561904Y-215664047D01*
X111657142Y-215997380D02*
X111657142Y-215330714D01*
X111657142Y-215521190D02*
X111609523Y-215425952D01*
X111561904Y-215378333D01*
X111466666Y-215330714D01*
X111371428Y-215330714D01*
X110323809Y-215092619D02*
X110276190Y-215045000D01*
X110180952Y-214997380D01*
X109942857Y-214997380D01*
X109847619Y-215045000D01*
X109800000Y-215092619D01*
X109752380Y-215187857D01*
X109752380Y-215283095D01*
X109800000Y-215425952D01*
X110371428Y-215997380D01*
X109752380Y-215997380D01*
X109180952Y-215425952D02*
X109276190Y-215378333D01*
X109323809Y-215330714D01*
X109371428Y-215235476D01*
X109371428Y-215187857D01*
X109323809Y-215092619D01*
X109276190Y-215045000D01*
X109180952Y-214997380D01*
X108990476Y-214997380D01*
X108895238Y-215045000D01*
X108847619Y-215092619D01*
X108800000Y-215187857D01*
X108800000Y-215235476D01*
X108847619Y-215330714D01*
X108895238Y-215378333D01*
X108990476Y-215425952D01*
X109180952Y-215425952D01*
X109276190Y-215473571D01*
X109323809Y-215521190D01*
X109371428Y-215616428D01*
X109371428Y-215806904D01*
X109323809Y-215902142D01*
X109276190Y-215949761D01*
X109180952Y-215997380D01*
X108990476Y-215997380D01*
X108895238Y-215949761D01*
X108847619Y-215902142D01*
X108800000Y-215806904D01*
X108800000Y-215616428D01*
X108847619Y-215521190D01*
X108895238Y-215473571D01*
X108990476Y-215425952D01*
X108323809Y-215949761D02*
X108323809Y-215997380D01*
X108371428Y-216092619D01*
X108419047Y-216140238D01*
X107180952Y-215092619D02*
X107133333Y-215045000D01*
X107038095Y-214997380D01*
X106800000Y-214997380D01*
X106704761Y-215045000D01*
X106657142Y-215092619D01*
X106609523Y-215187857D01*
X106609523Y-215283095D01*
X106657142Y-215425952D01*
X107228571Y-215997380D01*
X106609523Y-215997380D01*
X105990476Y-214997380D02*
X105895238Y-214997380D01*
X105800000Y-215045000D01*
X105752380Y-215092619D01*
X105704761Y-215187857D01*
X105657142Y-215378333D01*
X105657142Y-215616428D01*
X105704761Y-215806904D01*
X105752380Y-215902142D01*
X105800000Y-215949761D01*
X105895238Y-215997380D01*
X105990476Y-215997380D01*
X106085714Y-215949761D01*
X106133333Y-215902142D01*
X106180952Y-215806904D01*
X106228571Y-215616428D01*
X106228571Y-215378333D01*
X106180952Y-215187857D01*
X106133333Y-215092619D01*
X106085714Y-215045000D01*
X105990476Y-214997380D01*
X105276190Y-215092619D02*
X105228571Y-215045000D01*
X105133333Y-214997380D01*
X104895238Y-214997380D01*
X104800000Y-215045000D01*
X104752380Y-215092619D01*
X104704761Y-215187857D01*
X104704761Y-215283095D01*
X104752380Y-215425952D01*
X105323809Y-215997380D01*
X104704761Y-215997380D01*
X104323809Y-215092619D02*
X104276190Y-215045000D01*
X104180952Y-214997380D01*
X103942857Y-214997380D01*
X103847619Y-215045000D01*
X103800000Y-215092619D01*
X103752380Y-215187857D01*
X103752380Y-215283095D01*
X103800000Y-215425952D01*
X104371428Y-215997380D01*
X103752380Y-215997380D01*
X121633333Y-217647380D02*
X121633333Y-216647380D01*
X121204761Y-217647380D02*
X121204761Y-217123571D01*
X121252380Y-217028333D01*
X121347619Y-216980714D01*
X121490476Y-216980714D01*
X121585714Y-217028333D01*
X121633333Y-217075952D01*
X120871428Y-216980714D02*
X120490476Y-216980714D01*
X120728571Y-216647380D02*
X120728571Y-217504523D01*
X120680952Y-217599761D01*
X120585714Y-217647380D01*
X120490476Y-217647380D01*
X120300000Y-216980714D02*
X119919047Y-216980714D01*
X120157142Y-216647380D02*
X120157142Y-217504523D01*
X120109523Y-217599761D01*
X120014285Y-217647380D01*
X119919047Y-217647380D01*
X119585714Y-216980714D02*
X119585714Y-217980714D01*
X119585714Y-217028333D02*
X119490476Y-216980714D01*
X119300000Y-216980714D01*
X119204761Y-217028333D01*
X119157142Y-217075952D01*
X119109523Y-217171190D01*
X119109523Y-217456904D01*
X119157142Y-217552142D01*
X119204761Y-217599761D01*
X119300000Y-217647380D01*
X119490476Y-217647380D01*
X119585714Y-217599761D01*
X118728571Y-217599761D02*
X118633333Y-217647380D01*
X118442857Y-217647380D01*
X118347619Y-217599761D01*
X118300000Y-217504523D01*
X118300000Y-217456904D01*
X118347619Y-217361666D01*
X118442857Y-217314047D01*
X118585714Y-217314047D01*
X118680952Y-217266428D01*
X118728571Y-217171190D01*
X118728571Y-217123571D01*
X118680952Y-217028333D01*
X118585714Y-216980714D01*
X118442857Y-216980714D01*
X118347619Y-217028333D01*
X117871428Y-217552142D02*
X117823809Y-217599761D01*
X117871428Y-217647380D01*
X117919047Y-217599761D01*
X117871428Y-217552142D01*
X117871428Y-217647380D01*
X117871428Y-217028333D02*
X117823809Y-217075952D01*
X117871428Y-217123571D01*
X117919047Y-217075952D01*
X117871428Y-217028333D01*
X117871428Y-217123571D01*
X116680952Y-216599761D02*
X117538095Y-217885476D01*
X115633333Y-216599761D02*
X116490476Y-217885476D01*
X114871428Y-216980714D02*
X114871428Y-217790238D01*
X114919047Y-217885476D01*
X114966666Y-217933095D01*
X115061904Y-217980714D01*
X115204761Y-217980714D01*
X115300000Y-217933095D01*
X114871428Y-217599761D02*
X114966666Y-217647380D01*
X115157142Y-217647380D01*
X115252380Y-217599761D01*
X115300000Y-217552142D01*
X115347619Y-217456904D01*
X115347619Y-217171190D01*
X115300000Y-217075952D01*
X115252380Y-217028333D01*
X115157142Y-216980714D01*
X114966666Y-216980714D01*
X114871428Y-217028333D01*
X114395238Y-217647380D02*
X114395238Y-216980714D01*
X114395238Y-216647380D02*
X114442857Y-216695000D01*
X114395238Y-216742619D01*
X114347619Y-216695000D01*
X114395238Y-216647380D01*
X114395238Y-216742619D01*
X114061904Y-216980714D02*
X113680952Y-216980714D01*
X113919047Y-216647380D02*
X113919047Y-217504523D01*
X113871428Y-217599761D01*
X113776190Y-217647380D01*
X113680952Y-217647380D01*
X113347619Y-217647380D02*
X113347619Y-216647380D01*
X112919047Y-217647380D02*
X112919047Y-217123571D01*
X112966666Y-217028333D01*
X113061904Y-216980714D01*
X113204761Y-216980714D01*
X113300000Y-217028333D01*
X113347619Y-217075952D01*
X112014285Y-216980714D02*
X112014285Y-217647380D01*
X112442857Y-216980714D02*
X112442857Y-217504523D01*
X112395238Y-217599761D01*
X112300000Y-217647380D01*
X112157142Y-217647380D01*
X112061904Y-217599761D01*
X112014285Y-217552142D01*
X111538095Y-217647380D02*
X111538095Y-216647380D01*
X111538095Y-217028333D02*
X111442857Y-216980714D01*
X111252380Y-216980714D01*
X111157142Y-217028333D01*
X111109523Y-217075952D01*
X111061904Y-217171190D01*
X111061904Y-217456904D01*
X111109523Y-217552142D01*
X111157142Y-217599761D01*
X111252380Y-217647380D01*
X111442857Y-217647380D01*
X111538095Y-217599761D01*
X110633333Y-217552142D02*
X110585714Y-217599761D01*
X110633333Y-217647380D01*
X110680952Y-217599761D01*
X110633333Y-217552142D01*
X110633333Y-217647380D01*
X109728571Y-217599761D02*
X109823809Y-217647380D01*
X110014285Y-217647380D01*
X110109523Y-217599761D01*
X110157142Y-217552142D01*
X110204761Y-217456904D01*
X110204761Y-217171190D01*
X110157142Y-217075952D01*
X110109523Y-217028333D01*
X110014285Y-216980714D01*
X109823809Y-216980714D01*
X109728571Y-217028333D01*
X109157142Y-217647380D02*
X109252380Y-217599761D01*
X109300000Y-217552142D01*
X109347619Y-217456904D01*
X109347619Y-217171190D01*
X109300000Y-217075952D01*
X109252380Y-217028333D01*
X109157142Y-216980714D01*
X109014285Y-216980714D01*
X108919047Y-217028333D01*
X108871428Y-217075952D01*
X108823809Y-217171190D01*
X108823809Y-217456904D01*
X108871428Y-217552142D01*
X108919047Y-217599761D01*
X109014285Y-217647380D01*
X109157142Y-217647380D01*
X108395238Y-217647380D02*
X108395238Y-216980714D01*
X108395238Y-217075952D02*
X108347619Y-217028333D01*
X108252380Y-216980714D01*
X108109523Y-216980714D01*
X108014285Y-217028333D01*
X107966666Y-217123571D01*
X107966666Y-217647380D01*
X107966666Y-217123571D02*
X107919047Y-217028333D01*
X107823809Y-216980714D01*
X107680952Y-216980714D01*
X107585714Y-217028333D01*
X107538095Y-217123571D01*
X107538095Y-217647380D01*
X106347619Y-216599761D02*
X107204761Y-217885476D01*
X105585714Y-217647380D02*
X105585714Y-217123571D01*
X105633333Y-217028333D01*
X105728571Y-216980714D01*
X105919047Y-216980714D01*
X106014285Y-217028333D01*
X105585714Y-217599761D02*
X105680952Y-217647380D01*
X105919047Y-217647380D01*
X106014285Y-217599761D01*
X106061904Y-217504523D01*
X106061904Y-217409285D01*
X106014285Y-217314047D01*
X105919047Y-217266428D01*
X105680952Y-217266428D01*
X105585714Y-217218809D01*
X105109523Y-217647380D02*
X105109523Y-216647380D01*
X105014285Y-217266428D02*
X104728571Y-217647380D01*
X104728571Y-216980714D02*
X105109523Y-217361666D01*
X103871428Y-216647380D02*
X104061904Y-216647380D01*
X104157142Y-216695000D01*
X104204761Y-216742619D01*
X104300000Y-216885476D01*
X104347619Y-217075952D01*
X104347619Y-217456904D01*
X104300000Y-217552142D01*
X104252380Y-217599761D01*
X104157142Y-217647380D01*
X103966666Y-217647380D01*
X103871428Y-217599761D01*
X103823809Y-217552142D01*
X103776190Y-217456904D01*
X103776190Y-217218809D01*
X103823809Y-217123571D01*
X103871428Y-217075952D01*
X103966666Y-217028333D01*
X104157142Y-217028333D01*
X104252380Y-217075952D01*
X104300000Y-217123571D01*
X104347619Y-217218809D01*
X102919047Y-216647380D02*
X103109523Y-216647380D01*
X103204761Y-216695000D01*
X103252380Y-216742619D01*
X103347619Y-216885476D01*
X103395238Y-217075952D01*
X103395238Y-217456904D01*
X103347619Y-217552142D01*
X103300000Y-217599761D01*
X103204761Y-217647380D01*
X103014285Y-217647380D01*
X102919047Y-217599761D01*
X102871428Y-217552142D01*
X102823809Y-217456904D01*
X102823809Y-217218809D01*
X102871428Y-217123571D01*
X102919047Y-217075952D01*
X103014285Y-217028333D01*
X103204761Y-217028333D01*
X103300000Y-217075952D01*
X103347619Y-217123571D01*
X103395238Y-217218809D01*
X101966666Y-216647380D02*
X102157142Y-216647380D01*
X102252380Y-216695000D01*
X102300000Y-216742619D01*
X102395238Y-216885476D01*
X102442857Y-217075952D01*
X102442857Y-217456904D01*
X102395238Y-217552142D01*
X102347619Y-217599761D01*
X102252380Y-217647380D01*
X102061904Y-217647380D01*
X101966666Y-217599761D01*
X101919047Y-217552142D01*
X101871428Y-217456904D01*
X101871428Y-217218809D01*
X101919047Y-217123571D01*
X101966666Y-217075952D01*
X102061904Y-217028333D01*
X102252380Y-217028333D01*
X102347619Y-217075952D01*
X102395238Y-217123571D01*
X102442857Y-217218809D01*
X101014285Y-216647380D02*
X101204761Y-216647380D01*
X101300000Y-216695000D01*
X101347619Y-216742619D01*
X101442857Y-216885476D01*
X101490476Y-217075952D01*
X101490476Y-217456904D01*
X101442857Y-217552142D01*
X101395238Y-217599761D01*
X101300000Y-217647380D01*
X101109523Y-217647380D01*
X101014285Y-217599761D01*
X100966666Y-217552142D01*
X100919047Y-217456904D01*
X100919047Y-217218809D01*
X100966666Y-217123571D01*
X101014285Y-217075952D01*
X101109523Y-217028333D01*
X101300000Y-217028333D01*
X101395238Y-217075952D01*
X101442857Y-217123571D01*
X101490476Y-217218809D01*
X100061904Y-216647380D02*
X100252380Y-216647380D01*
X100347619Y-216695000D01*
X100395238Y-216742619D01*
X100490476Y-216885476D01*
X100538095Y-217075952D01*
X100538095Y-217456904D01*
X100490476Y-217552142D01*
X100442857Y-217599761D01*
X100347619Y-217647380D01*
X100157142Y-217647380D01*
X100061904Y-217599761D01*
X100014285Y-217552142D01*
X99966666Y-217456904D01*
X99966666Y-217218809D01*
X100014285Y-217123571D01*
X100061904Y-217075952D01*
X100157142Y-217028333D01*
X100347619Y-217028333D01*
X100442857Y-217075952D01*
X100490476Y-217123571D01*
X100538095Y-217218809D01*
X98823809Y-216599761D02*
X99680952Y-217885476D01*
X120776190Y-218297380D02*
X120204761Y-218297380D01*
X120490476Y-219297380D02*
X120490476Y-218297380D01*
X119871428Y-219297380D02*
X119871428Y-218297380D01*
X119442857Y-219297380D02*
X119442857Y-218773571D01*
X119490476Y-218678333D01*
X119585714Y-218630714D01*
X119728571Y-218630714D01*
X119823809Y-218678333D01*
X119871428Y-218725952D01*
X118538095Y-218630714D02*
X118538095Y-219297380D01*
X118966666Y-218630714D02*
X118966666Y-219154523D01*
X118919047Y-219249761D01*
X118823809Y-219297380D01*
X118680952Y-219297380D01*
X118585714Y-219249761D01*
X118538095Y-219202142D01*
X118061904Y-219297380D02*
X118061904Y-218630714D01*
X118061904Y-218725952D02*
X118014285Y-218678333D01*
X117919047Y-218630714D01*
X117776190Y-218630714D01*
X117680952Y-218678333D01*
X117633333Y-218773571D01*
X117633333Y-219297380D01*
X117633333Y-218773571D02*
X117585714Y-218678333D01*
X117490476Y-218630714D01*
X117347619Y-218630714D01*
X117252380Y-218678333D01*
X117204761Y-218773571D01*
X117204761Y-219297380D01*
X116728571Y-219297380D02*
X116728571Y-218297380D01*
X116728571Y-218678333D02*
X116633333Y-218630714D01*
X116442857Y-218630714D01*
X116347619Y-218678333D01*
X116300000Y-218725952D01*
X116252380Y-218821190D01*
X116252380Y-219106904D01*
X116300000Y-219202142D01*
X116347619Y-219249761D01*
X116442857Y-219297380D01*
X116633333Y-219297380D01*
X116728571Y-219249761D01*
X115871428Y-219249761D02*
X115776190Y-219297380D01*
X115585714Y-219297380D01*
X115490476Y-219249761D01*
X115442857Y-219154523D01*
X115442857Y-219106904D01*
X115490476Y-219011666D01*
X115585714Y-218964047D01*
X115728571Y-218964047D01*
X115823809Y-218916428D01*
X115871428Y-218821190D01*
X115871428Y-218773571D01*
X115823809Y-218678333D01*
X115728571Y-218630714D01*
X115585714Y-218630714D01*
X115490476Y-218678333D01*
X115014285Y-218297380D02*
X115014285Y-219106904D01*
X114966666Y-219202142D01*
X114919047Y-219249761D01*
X114823809Y-219297380D01*
X114633333Y-219297380D01*
X114538095Y-219249761D01*
X114490476Y-219202142D01*
X114442857Y-219106904D01*
X114442857Y-218297380D01*
X113966666Y-218630714D02*
X113966666Y-219630714D01*
X113966666Y-218678333D02*
X113871428Y-218630714D01*
X113680952Y-218630714D01*
X113585714Y-218678333D01*
X113538095Y-218725952D01*
X113490476Y-218821190D01*
X113490476Y-219106904D01*
X113538095Y-219202142D01*
X113585714Y-219249761D01*
X113680952Y-219297380D01*
X113871428Y-219297380D01*
X113966666Y-219249761D01*
X113061904Y-218297380D02*
X113061904Y-219106904D01*
X113014285Y-219202142D01*
X112966666Y-219249761D01*
X112871428Y-219297380D01*
X112680952Y-219297380D01*
X112585714Y-219249761D01*
X112538095Y-219202142D01*
X112490476Y-219106904D01*
X112490476Y-218297380D01*
X112014285Y-218630714D02*
X112014285Y-219297380D01*
X112014285Y-218725952D02*
X111966666Y-218678333D01*
X111871428Y-218630714D01*
X111728571Y-218630714D01*
X111633333Y-218678333D01*
X111585714Y-218773571D01*
X111585714Y-219297380D01*
X111157142Y-219249761D02*
X111061904Y-219297380D01*
X110871428Y-219297380D01*
X110776190Y-219249761D01*
X110728571Y-219154523D01*
X110728571Y-219106904D01*
X110776190Y-219011666D01*
X110871428Y-218964047D01*
X111014285Y-218964047D01*
X111109523Y-218916428D01*
X111157142Y-218821190D01*
X111157142Y-218773571D01*
X111109523Y-218678333D01*
X111014285Y-218630714D01*
X110871428Y-218630714D01*
X110776190Y-218678333D01*
X110300000Y-218630714D02*
X110300000Y-219630714D01*
X110300000Y-218678333D02*
X110204761Y-218630714D01*
X110014285Y-218630714D01*
X109919047Y-218678333D01*
X109871428Y-218725952D01*
X109823809Y-218821190D01*
X109823809Y-219106904D01*
X109871428Y-219202142D01*
X109919047Y-219249761D01*
X110014285Y-219297380D01*
X110204761Y-219297380D01*
X110300000Y-219249761D01*
X109252380Y-219297380D02*
X109347619Y-219249761D01*
X109395238Y-219154523D01*
X109395238Y-218297380D01*
X108871428Y-219297380D02*
X108871428Y-218630714D01*
X108871428Y-218297380D02*
X108919047Y-218345000D01*
X108871428Y-218392619D01*
X108823809Y-218345000D01*
X108871428Y-218297380D01*
X108871428Y-218392619D01*
X108538095Y-218630714D02*
X108157142Y-218630714D01*
X108395238Y-218297380D02*
X108395238Y-219154523D01*
X108347619Y-219249761D01*
X108252380Y-219297380D01*
X108157142Y-219297380D01*
X107966666Y-218297380D02*
X107633333Y-219297380D01*
X107300000Y-218297380D01*
X107014285Y-218392619D02*
X106966666Y-218345000D01*
X106871428Y-218297380D01*
X106633333Y-218297380D01*
X106538095Y-218345000D01*
X106490476Y-218392619D01*
X106442857Y-218487857D01*
X106442857Y-218583095D01*
X106490476Y-218725952D01*
X107061904Y-219297380D01*
X106442857Y-219297380D01*
X106014285Y-219297380D02*
X106014285Y-218297380D01*
X105633333Y-218297380D01*
X105538095Y-218345000D01*
X105490476Y-218392619D01*
X105442857Y-218487857D01*
X105442857Y-218630714D01*
X105490476Y-218725952D01*
X105538095Y-218773571D01*
X105633333Y-218821190D01*
X106014285Y-218821190D01*
X105014285Y-219297380D02*
X105014285Y-218630714D01*
X105014285Y-218821190D02*
X104966666Y-218725952D01*
X104919047Y-218678333D01*
X104823809Y-218630714D01*
X104728571Y-218630714D01*
X104252380Y-219297380D02*
X104347619Y-219249761D01*
X104395238Y-219202142D01*
X104442857Y-219106904D01*
X104442857Y-218821190D01*
X104395238Y-218725952D01*
X104347619Y-218678333D01*
X104252380Y-218630714D01*
X104109523Y-218630714D01*
X104014285Y-218678333D01*
X103966666Y-218725952D01*
X103919047Y-218821190D01*
X103919047Y-219106904D01*
X103966666Y-219202142D01*
X104014285Y-219249761D01*
X104109523Y-219297380D01*
X104252380Y-219297380D01*
X103490476Y-219297380D02*
X103490476Y-218297380D01*
X103157142Y-219011666D01*
X102823809Y-218297380D01*
X102823809Y-219297380D01*
X102347619Y-219297380D02*
X102347619Y-218630714D01*
X102347619Y-218297380D02*
X102395238Y-218345000D01*
X102347619Y-218392619D01*
X102300000Y-218345000D01*
X102347619Y-218297380D01*
X102347619Y-218392619D01*
X101442857Y-219249761D02*
X101538095Y-219297380D01*
X101728571Y-219297380D01*
X101823809Y-219249761D01*
X101871428Y-219202142D01*
X101919047Y-219106904D01*
X101919047Y-218821190D01*
X101871428Y-218725952D01*
X101823809Y-218678333D01*
X101728571Y-218630714D01*
X101538095Y-218630714D01*
X101442857Y-218678333D01*
X101014285Y-219297380D02*
X101014285Y-218630714D01*
X101014285Y-218821190D02*
X100966666Y-218725952D01*
X100919047Y-218678333D01*
X100823809Y-218630714D01*
X100728571Y-218630714D01*
X100252380Y-219297380D02*
X100347619Y-219249761D01*
X100395238Y-219202142D01*
X100442857Y-219106904D01*
X100442857Y-218821190D01*
X100395238Y-218725952D01*
X100347619Y-218678333D01*
X100252380Y-218630714D01*
X100109523Y-218630714D01*
X100014285Y-218678333D01*
X99966666Y-218725952D01*
X99919047Y-218821190D01*
X99919047Y-219106904D01*
X99966666Y-219202142D01*
X100014285Y-219249761D01*
X100109523Y-219297380D01*
X100252380Y-219297380D01*
D11*
X149680000Y-206210000D02*
X149680000Y-204880000D01*
X148350000Y-206210000D02*
X149680000Y-206210000D01*
X147080000Y-206210000D02*
X147080000Y-203550000D01*
X147080000Y-203550000D02*
X144480000Y-203550000D01*
X147080000Y-206210000D02*
X144480000Y-206210000D01*
X144480000Y-206210000D02*
X144480000Y-203550000D01*
D10*
X155702000Y-170942000D02*
X155702000Y-201422000D01*
X150622000Y-170942000D02*
X155702000Y-170942000D01*
X150622000Y-168402000D02*
X150622000Y-170942000D01*
X143002000Y-168402000D02*
X150622000Y-168402000D01*
X143002000Y-170942000D02*
X143002000Y-168402000D01*
X137922000Y-170942000D02*
X143002000Y-170942000D01*
X137922000Y-201422000D02*
X137922000Y-170942000D01*
X155702000Y-201422000D02*
X137922000Y-201422000D01*
D11*
X173906922Y-224842000D02*
X174424078Y-224842000D01*
X173906922Y-226262000D02*
X174424078Y-226262000D01*
X174424078Y-228294000D02*
X173906922Y-228294000D01*
X174424078Y-226874000D02*
X173906922Y-226874000D01*
D10*
X158182000Y-229422000D02*
X163382000Y-229422000D01*
X163382000Y-229422000D02*
X163382000Y-224222000D01*
X163382000Y-224222000D02*
X158182000Y-224222000D01*
X158182000Y-224222000D02*
X158182000Y-229422000D01*
X161782000Y-226822000D02*
G75*
G03X161782000Y-226822000I-1000000J0D01*
G01*
X231427677Y-188009842D02*
X231165452Y-187360813D01*
X231165452Y-187360813D02*
X226993125Y-189046543D01*
X233380363Y-188838708D02*
G75*
G02X231427677Y-188009842I-561910J1390776D01*
G01*
X234602500Y-193198338D02*
X233951605Y-192922050D01*
X233576998Y-191994866D02*
X233951605Y-192922050D01*
X228753776Y-193404307D02*
X232926103Y-191718577D01*
X236349217Y-188178480D02*
X235698322Y-187902191D01*
X228529012Y-192847997D02*
X228753776Y-193404307D01*
X235698322Y-187902191D02*
X233380363Y-188838708D01*
X237660340Y-191423623D02*
X237384052Y-192074519D01*
X237384052Y-192074519D02*
X234602500Y-193198338D01*
X232926104Y-191718578D02*
G75*
G02X233576998Y-191994866I187303J-463591D01*
G01*
X226993125Y-189046543D02*
X227180428Y-189510135D01*
X178953455Y-156901869D02*
X178691230Y-156252840D01*
X178691230Y-156252840D02*
X174518903Y-157938570D01*
X180906141Y-157730735D02*
G75*
G02X178953455Y-156901869I-561910J1390776D01*
G01*
X182128278Y-162090365D02*
X181477383Y-161814077D01*
X181102776Y-160886893D02*
X181477383Y-161814077D01*
X176279554Y-162296334D02*
X180451881Y-160610604D01*
X183874995Y-157070507D02*
X183224100Y-156794218D01*
X176054790Y-161740024D02*
X176279554Y-162296334D01*
X183224100Y-156794218D02*
X180906141Y-157730735D01*
X185186118Y-160315650D02*
X184909830Y-160966546D01*
X184909830Y-160966546D02*
X182128278Y-162090365D01*
X180451882Y-160610605D02*
G75*
G02X181102776Y-160886893I187303J-463591D01*
G01*
X174518903Y-157938570D02*
X174706206Y-158402162D01*
X185509070Y-173127586D02*
X185246845Y-172478557D01*
X185246845Y-172478557D02*
X181074518Y-174164287D01*
X187461756Y-173956452D02*
G75*
G02X185509070Y-173127586I-561910J1390776D01*
G01*
X188683893Y-178316082D02*
X188032998Y-178039794D01*
X187658391Y-177112610D02*
X188032998Y-178039794D01*
X182835169Y-178522051D02*
X187007496Y-176836321D01*
X190430610Y-173296224D02*
X189779715Y-173019935D01*
X182610405Y-177965741D02*
X182835169Y-178522051D01*
X189779715Y-173019935D02*
X187461756Y-173956452D01*
X191741733Y-176541367D02*
X191465445Y-177192263D01*
X191465445Y-177192263D02*
X188683893Y-178316082D01*
X187007497Y-176836322D02*
G75*
G02X187658391Y-177112610I187303J-463591D01*
G01*
X181074518Y-174164287D02*
X181261821Y-174627879D01*
X192064685Y-189353304D02*
X191802460Y-188704275D01*
X191802460Y-188704275D02*
X187630133Y-190390005D01*
X194017371Y-190182170D02*
G75*
G02X192064685Y-189353304I-561910J1390776D01*
G01*
X195239508Y-194541800D02*
X194588613Y-194265512D01*
X194214006Y-193338328D02*
X194588613Y-194265512D01*
X189390784Y-194747769D02*
X193563111Y-193062039D01*
X196986225Y-189521942D02*
X196335330Y-189245653D01*
X189166020Y-194191459D02*
X189390784Y-194747769D01*
X196335330Y-189245653D02*
X194017371Y-190182170D01*
X198297348Y-192767085D02*
X198021060Y-193417981D01*
X198021060Y-193417981D02*
X195239508Y-194541800D01*
X193563112Y-193062040D02*
G75*
G02X194214006Y-193338328I187303J-463591D01*
G01*
X187630133Y-190390005D02*
X187817436Y-190853597D01*
X212401743Y-190304145D02*
X212139518Y-189655116D01*
X212139518Y-189655116D02*
X207967191Y-191340846D01*
X214354429Y-191133011D02*
G75*
G02X212401743Y-190304145I-561910J1390776D01*
G01*
X215576566Y-195492641D02*
X214925671Y-195216353D01*
X214551064Y-194289169D02*
X214925671Y-195216353D01*
X209727842Y-195698610D02*
X213900169Y-194012880D01*
X217323283Y-190472783D02*
X216672388Y-190196494D01*
X209503078Y-195142300D02*
X209727842Y-195698610D01*
X216672388Y-190196494D02*
X214354429Y-191133011D01*
X218634406Y-193717926D02*
X218358118Y-194368822D01*
X218358118Y-194368822D02*
X215576566Y-195492641D01*
X213900170Y-194012881D02*
G75*
G02X214551064Y-194289169I187303J-463591D01*
G01*
X207967191Y-191340846D02*
X208154494Y-191804438D01*
X116147317Y-152845686D02*
X115885093Y-153494715D01*
X115885093Y-153494715D02*
X120057420Y-155180444D01*
X115318451Y-150893000D02*
G75*
G02X116147317Y-152845686I-561910J-1390776D01*
G01*
X117467773Y-146907976D02*
X117744061Y-147558872D01*
X117369455Y-148486055D02*
X117744061Y-147558872D01*
X121818071Y-150822680D02*
X117645744Y-149136951D01*
X112724203Y-149305589D02*
X113000492Y-149956484D01*
X121593307Y-151378991D02*
X121818071Y-150822680D01*
X113000492Y-149956484D02*
X115318451Y-150893000D01*
X114035326Y-146060445D02*
X114686221Y-145784157D01*
X114686221Y-145784157D02*
X117467773Y-146907976D01*
X117645743Y-149136951D02*
G75*
G02X117369455Y-148486055I187304J463592D01*
G01*
X120057420Y-155180444D02*
X120244723Y-154716852D01*
X167232349Y-177276257D02*
X166970124Y-176627228D01*
X166970124Y-176627228D02*
X162797797Y-178312958D01*
X169185035Y-178105123D02*
G75*
G02X167232349Y-177276257I-561910J1390776D01*
G01*
X170407172Y-182464753D02*
X169756277Y-182188465D01*
X169381670Y-181261281D02*
X169756277Y-182188465D01*
X164558448Y-182670722D02*
X168730775Y-180984992D01*
X172153889Y-177444895D02*
X171502994Y-177168606D01*
X164333684Y-182114412D02*
X164558448Y-182670722D01*
X171502994Y-177168606D02*
X169185035Y-178105123D01*
X173465012Y-180690038D02*
X173188724Y-181340934D01*
X173188724Y-181340934D02*
X170407172Y-182464753D01*
X168730776Y-180984993D02*
G75*
G02X169381670Y-181261281I187303J-463591D01*
G01*
X162797797Y-178312958D02*
X162985100Y-178776550D01*
X63673094Y-183953659D02*
X63410870Y-184602688D01*
X63410870Y-184602688D02*
X67583197Y-186288417D01*
X62844228Y-182000973D02*
G75*
G02X63673094Y-183953659I-561910J-1390776D01*
G01*
X64993550Y-178015949D02*
X65269838Y-178666845D01*
X64895232Y-179594028D02*
X65269838Y-178666845D01*
X69343848Y-181930653D02*
X65171521Y-180244924D01*
X60249980Y-180413562D02*
X60526269Y-181064457D01*
X69119084Y-182486964D02*
X69343848Y-181930653D01*
X60526269Y-181064457D02*
X62844228Y-182000973D01*
X61561103Y-177168418D02*
X62211998Y-176892130D01*
X62211998Y-176892130D02*
X64993550Y-178015949D01*
X65171520Y-180244924D02*
G75*
G02X64895232Y-179594028I187304J463592D01*
G01*
X67583197Y-186288417D02*
X67770500Y-185824825D01*
X82699028Y-186247962D02*
X82436804Y-186896991D01*
X82436804Y-186896991D02*
X86609131Y-188582720D01*
X81870162Y-184295276D02*
G75*
G02X82699028Y-186247962I-561910J-1390776D01*
G01*
X84019484Y-180310252D02*
X84295772Y-180961148D01*
X83921166Y-181888331D02*
X84295772Y-180961148D01*
X88369782Y-184224956D02*
X84197455Y-182539227D01*
X79275914Y-182707865D02*
X79552203Y-183358760D01*
X88145018Y-184781267D02*
X88369782Y-184224956D01*
X79552203Y-183358760D02*
X81870162Y-184295276D01*
X80587037Y-179462721D02*
X81237932Y-179186433D01*
X81237932Y-179186433D02*
X84019484Y-180310252D01*
X84197454Y-182539227D02*
G75*
G02X83921166Y-181888331I187304J463592D01*
G01*
X86609131Y-188582720D02*
X86796434Y-188119128D01*
X103036086Y-185297121D02*
X102773862Y-185946150D01*
X102773862Y-185946150D02*
X106946189Y-187631879D01*
X102207220Y-183344435D02*
G75*
G02X103036086Y-185297121I-561910J-1390776D01*
G01*
X104356542Y-179359411D02*
X104632830Y-180010307D01*
X104258224Y-180937490D02*
X104632830Y-180010307D01*
X108706840Y-183274115D02*
X104534513Y-181588386D01*
X99612972Y-181757024D02*
X99889261Y-182407919D01*
X108482076Y-183830426D02*
X108706840Y-183274115D01*
X99889261Y-182407919D02*
X102207220Y-183344435D01*
X100924095Y-178511880D02*
X101574990Y-178235592D01*
X101574990Y-178235592D02*
X104356542Y-179359411D01*
X104534512Y-181588386D02*
G75*
G02X104258224Y-180937490I187304J463592D01*
G01*
X106946189Y-187631879D02*
X107133492Y-187168287D01*
X173787964Y-193501974D02*
X173525739Y-192852945D01*
X173525739Y-192852945D02*
X169353412Y-194538675D01*
X175740650Y-194330840D02*
G75*
G02X173787964Y-193501974I-561910J1390776D01*
G01*
X176962787Y-198690470D02*
X176311892Y-198414182D01*
X175937285Y-197486998D02*
X176311892Y-198414182D01*
X171114063Y-198896439D02*
X175286390Y-197210709D01*
X178709504Y-193670612D02*
X178058609Y-193394323D01*
X170889299Y-198340129D02*
X171114063Y-198896439D01*
X178058609Y-193394323D02*
X175740650Y-194330840D01*
X180020627Y-196915755D02*
X179744339Y-197566651D01*
X179744339Y-197566651D02*
X176962787Y-198690470D01*
X175286391Y-197210710D02*
G75*
G02X175937285Y-197486998I187303J-463591D01*
G01*
X169353412Y-194538675D02*
X169540715Y-195002267D01*
X134424038Y-156994356D02*
X134161814Y-157643385D01*
X134161814Y-157643385D02*
X138334141Y-159329114D01*
X133595172Y-155041670D02*
G75*
G02X134424038Y-156994356I-561910J-1390776D01*
G01*
X135744494Y-151056646D02*
X136020782Y-151707542D01*
X135646176Y-152634725D02*
X136020782Y-151707542D01*
X140094792Y-154971350D02*
X135922465Y-153285621D01*
X131000924Y-153454259D02*
X131277213Y-154105154D01*
X139870028Y-155527661D02*
X140094792Y-154971350D01*
X131277213Y-154105154D02*
X133595172Y-155041670D01*
X132312047Y-150209115D02*
X132962942Y-149932827D01*
X132962942Y-149932827D02*
X135744494Y-151056646D01*
X135922464Y-153285621D02*
G75*
G02X135646176Y-152634725I187304J463592D01*
G01*
X138334141Y-159329114D02*
X138521444Y-158865522D01*
X121312807Y-189445791D02*
X121050583Y-190094820D01*
X121050583Y-190094820D02*
X125222910Y-191780549D01*
X120483941Y-187493105D02*
G75*
G02X121312807Y-189445791I-561910J-1390776D01*
G01*
X122633263Y-183508081D02*
X122909551Y-184158977D01*
X122534945Y-185086160D02*
X122909551Y-184158977D01*
X126983561Y-187422785D02*
X122811234Y-185737056D01*
X117889693Y-185905694D02*
X118165982Y-186556589D01*
X126758797Y-187979096D02*
X126983561Y-187422785D01*
X118165982Y-186556589D02*
X120483941Y-187493105D01*
X119200816Y-182660550D02*
X119851711Y-182384262D01*
X119851711Y-182384262D02*
X122633263Y-183508081D01*
X122811233Y-185737056D02*
G75*
G02X122534945Y-185086160I187304J463592D01*
G01*
X125222910Y-191780549D02*
X125410213Y-191316957D01*
X127868422Y-173220074D02*
X127606198Y-173869103D01*
X127606198Y-173869103D02*
X131778525Y-175554832D01*
X127039556Y-171267388D02*
G75*
G02X127868422Y-173220074I-561910J-1390776D01*
G01*
X129188878Y-167282364D02*
X129465166Y-167933260D01*
X129090560Y-168860443D02*
X129465166Y-167933260D01*
X133539176Y-171197068D02*
X129366849Y-169511339D01*
X124445308Y-169679977D02*
X124721597Y-170330872D01*
X133314412Y-171753379D02*
X133539176Y-171197068D01*
X124721597Y-170330872D02*
X127039556Y-171267388D01*
X125756431Y-166434833D02*
X126407326Y-166158545D01*
X126407326Y-166158545D02*
X129188878Y-167282364D01*
X129366848Y-169511339D02*
G75*
G02X129090560Y-168860443I187304J463592D01*
G01*
X131778525Y-175554832D02*
X131965828Y-175091240D01*
X160676734Y-161050539D02*
X160414509Y-160401510D01*
X160414509Y-160401510D02*
X156242182Y-162087240D01*
X162629420Y-161879405D02*
G75*
G02X160676734Y-161050539I-561910J1390776D01*
G01*
X163851557Y-166239035D02*
X163200662Y-165962747D01*
X162826055Y-165035563D02*
X163200662Y-165962747D01*
X158002833Y-166445004D02*
X162175160Y-164759274D01*
X165598274Y-161219177D02*
X164947379Y-160942888D01*
X157778069Y-165888694D02*
X158002833Y-166445004D01*
X164947379Y-160942888D02*
X162629420Y-161879405D01*
X166909397Y-164464320D02*
X166633109Y-165115216D01*
X166633109Y-165115216D02*
X163851557Y-166239035D01*
X162175161Y-164759275D02*
G75*
G02X162826055Y-165035563I187303J-463591D01*
G01*
X156242182Y-162087240D02*
X156429485Y-162550832D01*
X109591701Y-169071403D02*
X109329477Y-169720432D01*
X109329477Y-169720432D02*
X113501804Y-171406161D01*
X108762835Y-167118717D02*
G75*
G02X109591701Y-169071403I-561910J-1390776D01*
G01*
X110912157Y-163133693D02*
X111188445Y-163784589D01*
X110813839Y-164711772D02*
X111188445Y-163784589D01*
X115262455Y-167048397D02*
X111090128Y-165362668D01*
X106168587Y-165531306D02*
X106444876Y-166182201D01*
X115037691Y-167604708D02*
X115262455Y-167048397D01*
X106444876Y-166182201D02*
X108762835Y-167118717D01*
X107479710Y-162286162D02*
X108130605Y-162009874D01*
X108130605Y-162009874D02*
X110912157Y-163133693D01*
X111090127Y-165362668D02*
G75*
G02X110813839Y-164711772I187304J463592D01*
G01*
X113501804Y-171406161D02*
X113689107Y-170942569D01*
D11*
X195468750Y-210212500D02*
X195468750Y-206312500D01*
X193468750Y-210212500D02*
X193468750Y-206312500D01*
X195468750Y-210212500D02*
X193468750Y-210212500D01*
X193087500Y-210212500D02*
X193087500Y-206312500D01*
X191087500Y-210212500D02*
X191087500Y-206312500D01*
X193087500Y-210212500D02*
X191087500Y-210212500D01*
X181181250Y-210212500D02*
X181181250Y-206312500D01*
X179181250Y-210212500D02*
X179181250Y-206312500D01*
X181181250Y-210212500D02*
X179181250Y-210212500D01*
X183562500Y-210212500D02*
X183562500Y-206312500D01*
X181562500Y-210212500D02*
X181562500Y-206312500D01*
X183562500Y-210212500D02*
X181562500Y-210212500D01*
X185943750Y-210212500D02*
X185943750Y-206312500D01*
X183943750Y-210212500D02*
X183943750Y-206312500D01*
X185943750Y-210212500D02*
X183943750Y-210212500D01*
X188325000Y-210212500D02*
X188325000Y-206312500D01*
X186325000Y-210212500D02*
X186325000Y-206312500D01*
X188325000Y-210212500D02*
X186325000Y-210212500D01*
X156746250Y-212329000D02*
X160646250Y-212329000D01*
X156746250Y-210329000D02*
X160646250Y-210329000D01*
X156746250Y-212329000D02*
X156746250Y-210329000D01*
X156746250Y-214710250D02*
X160646250Y-214710250D01*
X156746250Y-212710250D02*
X160646250Y-212710250D01*
X156746250Y-214710250D02*
X156746250Y-212710250D01*
X156746250Y-217091500D02*
X160646250Y-217091500D01*
X156746250Y-215091500D02*
X160646250Y-215091500D01*
X156746250Y-217091500D02*
X156746250Y-215091500D01*
X156746250Y-219472750D02*
X160646250Y-219472750D01*
X156746250Y-217472750D02*
X160646250Y-217472750D01*
X156746250Y-219472750D02*
X156746250Y-217472750D01*
X148580000Y-212327750D02*
X152480000Y-212327750D01*
X148580000Y-210327750D02*
X152480000Y-210327750D01*
X148580000Y-212327750D02*
X148580000Y-210327750D01*
X148580000Y-214709000D02*
X152480000Y-214709000D01*
X148580000Y-212709000D02*
X152480000Y-212709000D01*
X148580000Y-214709000D02*
X148580000Y-212709000D01*
X148580000Y-217090250D02*
X152480000Y-217090250D01*
X148580000Y-215090250D02*
X152480000Y-215090250D01*
X148580000Y-217090250D02*
X148580000Y-215090250D01*
X148580000Y-219471500D02*
X152480000Y-219471500D01*
X148580000Y-217471500D02*
X152480000Y-217471500D01*
X148580000Y-219471500D02*
X148580000Y-217471500D01*
X200231250Y-210212500D02*
X200231250Y-206312500D01*
X198231250Y-210212500D02*
X198231250Y-206312500D01*
X200231250Y-210212500D02*
X198231250Y-210212500D01*
X197850000Y-210212500D02*
X197850000Y-206312500D01*
X195850000Y-210212500D02*
X195850000Y-206312500D01*
X197850000Y-210212500D02*
X195850000Y-210212500D01*
X190706250Y-210212500D02*
X190706250Y-206312500D01*
X188706250Y-210212500D02*
X188706250Y-206312500D01*
X190706250Y-210212500D02*
X188706250Y-210212500D01*
X156746250Y-221854000D02*
X160646250Y-221854000D01*
X156746250Y-219854000D02*
X160646250Y-219854000D01*
X156746250Y-221854000D02*
X156746250Y-219854000D01*
X148580000Y-221852750D02*
X152480000Y-221852750D01*
X148580000Y-219852750D02*
X152480000Y-219852750D01*
X148580000Y-221852750D02*
X148580000Y-219852750D01*
X178800000Y-210212500D02*
X178800000Y-206312500D01*
X176800000Y-210212500D02*
X176800000Y-206312500D01*
X178800000Y-210212500D02*
X176800000Y-210212500D01*
X156746250Y-209947750D02*
X160646250Y-209947750D01*
X156746250Y-207947750D02*
X160646250Y-207947750D01*
X156746250Y-209947750D02*
X156746250Y-207947750D01*
X148580000Y-209946500D02*
X152480000Y-209946500D01*
X148580000Y-207946500D02*
X152480000Y-207946500D01*
X148580000Y-209946500D02*
X148580000Y-207946500D01*
X119268750Y-210212500D02*
X119268750Y-206312500D01*
X117268750Y-210212500D02*
X117268750Y-206312500D01*
X119268750Y-210212500D02*
X117268750Y-210212500D01*
X137185500Y-207921750D02*
X133285500Y-207921750D01*
X137185500Y-209921750D02*
X133285500Y-209921750D01*
X137185500Y-207921750D02*
X137185500Y-209921750D01*
X144766500Y-207966500D02*
X140866500Y-207966500D01*
X144766500Y-209966500D02*
X140866500Y-209966500D01*
X144766500Y-207966500D02*
X144766500Y-209966500D01*
X97837500Y-210212500D02*
X97837500Y-206312500D01*
X95837500Y-210212500D02*
X95837500Y-206312500D01*
X97837500Y-210212500D02*
X95837500Y-210212500D01*
X100218750Y-210212500D02*
X100218750Y-206312500D01*
X98218750Y-210212500D02*
X98218750Y-206312500D01*
X100218750Y-210212500D02*
X98218750Y-210212500D01*
X107362500Y-210212500D02*
X107362500Y-206312500D01*
X105362500Y-210212500D02*
X105362500Y-206312500D01*
X107362500Y-210212500D02*
X105362500Y-210212500D01*
X137185500Y-219828000D02*
X133285500Y-219828000D01*
X137185500Y-221828000D02*
X133285500Y-221828000D01*
X137185500Y-219828000D02*
X137185500Y-221828000D01*
X144766500Y-219872750D02*
X140866500Y-219872750D01*
X144766500Y-221872750D02*
X140866500Y-221872750D01*
X144766500Y-219872750D02*
X144766500Y-221872750D01*
X102600000Y-210212500D02*
X102600000Y-206312500D01*
X100600000Y-210212500D02*
X100600000Y-206312500D01*
X102600000Y-210212500D02*
X100600000Y-210212500D01*
X104981250Y-210212500D02*
X104981250Y-206312500D01*
X102981250Y-210212500D02*
X102981250Y-206312500D01*
X104981250Y-210212500D02*
X102981250Y-210212500D01*
X116887500Y-210212500D02*
X116887500Y-206312500D01*
X114887500Y-210212500D02*
X114887500Y-206312500D01*
X116887500Y-210212500D02*
X114887500Y-210212500D01*
X114506250Y-210212500D02*
X114506250Y-206312500D01*
X112506250Y-210212500D02*
X112506250Y-206312500D01*
X114506250Y-210212500D02*
X112506250Y-210212500D01*
X112125000Y-210212500D02*
X112125000Y-206312500D01*
X110125000Y-210212500D02*
X110125000Y-206312500D01*
X112125000Y-210212500D02*
X110125000Y-210212500D01*
X109743750Y-210212500D02*
X109743750Y-206312500D01*
X107743750Y-210212500D02*
X107743750Y-206312500D01*
X109743750Y-210212500D02*
X107743750Y-210212500D01*
X137185500Y-210303000D02*
X133285500Y-210303000D01*
X137185500Y-212303000D02*
X133285500Y-212303000D01*
X137185500Y-210303000D02*
X137185500Y-212303000D01*
X137185500Y-212684250D02*
X133285500Y-212684250D01*
X137185500Y-214684250D02*
X133285500Y-214684250D01*
X137185500Y-212684250D02*
X137185500Y-214684250D01*
X137185500Y-215065500D02*
X133285500Y-215065500D01*
X137185500Y-217065500D02*
X133285500Y-217065500D01*
X137185500Y-215065500D02*
X137185500Y-217065500D01*
X137185500Y-217446750D02*
X133285500Y-217446750D01*
X137185500Y-219446750D02*
X133285500Y-219446750D01*
X137185500Y-217446750D02*
X137185500Y-219446750D01*
X144766500Y-210347750D02*
X140866500Y-210347750D01*
X144766500Y-212347750D02*
X140866500Y-212347750D01*
X144766500Y-210347750D02*
X144766500Y-212347750D01*
X144766500Y-212729000D02*
X140866500Y-212729000D01*
X144766500Y-214729000D02*
X140866500Y-214729000D01*
X144766500Y-212729000D02*
X144766500Y-214729000D01*
X144766500Y-215110250D02*
X140866500Y-215110250D01*
X144766500Y-217110250D02*
X140866500Y-217110250D01*
X144766500Y-215110250D02*
X144766500Y-217110250D01*
X144766500Y-217491500D02*
X140866500Y-217491500D01*
X144766500Y-219491500D02*
X140866500Y-219491500D01*
X144766500Y-217491500D02*
X144766500Y-219491500D01*
D10*
X151197619Y-202319523D02*
X150483333Y-202319523D01*
X150340476Y-202367142D01*
X150245238Y-202462380D01*
X150197619Y-202605238D01*
X150197619Y-202700476D01*
X151197619Y-201938571D02*
X151197619Y-201319523D01*
X150816666Y-201652857D01*
X150816666Y-201510000D01*
X150769047Y-201414761D01*
X150721428Y-201367142D01*
X150626190Y-201319523D01*
X150388095Y-201319523D01*
X150292857Y-201367142D01*
X150245238Y-201414761D01*
X150197619Y-201510000D01*
X150197619Y-201795714D01*
X150245238Y-201890952D01*
X150292857Y-201938571D01*
X151102380Y-200938571D02*
X151150000Y-200890952D01*
X151197619Y-200795714D01*
X151197619Y-200557619D01*
X151150000Y-200462380D01*
X151102380Y-200414761D01*
X151007142Y-200367142D01*
X150911904Y-200367142D01*
X150769047Y-200414761D01*
X150197619Y-200986190D01*
X150197619Y-200367142D01*
D12*
X137873095Y-230214523D02*
X137873095Y-228944523D01*
X137389285Y-228944523D01*
X137268333Y-229005000D01*
X137207857Y-229065476D01*
X137147380Y-229186428D01*
X137147380Y-229367857D01*
X137207857Y-229488809D01*
X137268333Y-229549285D01*
X137389285Y-229609761D01*
X137873095Y-229609761D01*
X136361190Y-228944523D02*
X136119285Y-228944523D01*
X135998333Y-229005000D01*
X135877380Y-229125952D01*
X135816904Y-229367857D01*
X135816904Y-229791190D01*
X135877380Y-230033095D01*
X135998333Y-230154047D01*
X136119285Y-230214523D01*
X136361190Y-230214523D01*
X136482142Y-230154047D01*
X136603095Y-230033095D01*
X136663571Y-229791190D01*
X136663571Y-229367857D01*
X136603095Y-229125952D01*
X136482142Y-229005000D01*
X136361190Y-228944523D01*
X135393571Y-228944523D02*
X135091190Y-230214523D01*
X134849285Y-229307380D01*
X134607380Y-230214523D01*
X134305000Y-228944523D01*
X133821190Y-229549285D02*
X133397857Y-229549285D01*
X133216428Y-230214523D02*
X133821190Y-230214523D01*
X133821190Y-228944523D01*
X133216428Y-228944523D01*
X131946428Y-230214523D02*
X132369761Y-229609761D01*
X132672142Y-230214523D02*
X132672142Y-228944523D01*
X132188333Y-228944523D01*
X132067380Y-229005000D01*
X132006904Y-229065476D01*
X131946428Y-229186428D01*
X131946428Y-229367857D01*
X132006904Y-229488809D01*
X132067380Y-229549285D01*
X132188333Y-229609761D01*
X132672142Y-229609761D01*
D10*
X171516666Y-228032380D02*
X171850000Y-227556190D01*
X172088095Y-228032380D02*
X172088095Y-227032380D01*
X171707142Y-227032380D01*
X171611904Y-227080000D01*
X171564285Y-227127619D01*
X171516666Y-227222857D01*
X171516666Y-227365714D01*
X171564285Y-227460952D01*
X171611904Y-227508571D01*
X171707142Y-227556190D01*
X172088095Y-227556190D01*
X171135714Y-227127619D02*
X171088095Y-227080000D01*
X170992857Y-227032380D01*
X170754761Y-227032380D01*
X170659523Y-227080000D01*
X170611904Y-227127619D01*
X170564285Y-227222857D01*
X170564285Y-227318095D01*
X170611904Y-227460952D01*
X171183333Y-228032380D01*
X170564285Y-228032380D01*
X171546666Y-226092380D02*
X171880000Y-225616190D01*
X172118095Y-226092380D02*
X172118095Y-225092380D01*
X171737142Y-225092380D01*
X171641904Y-225140000D01*
X171594285Y-225187619D01*
X171546666Y-225282857D01*
X171546666Y-225425714D01*
X171594285Y-225520952D01*
X171641904Y-225568571D01*
X171737142Y-225616190D01*
X172118095Y-225616190D01*
X170594285Y-226092380D02*
X171165714Y-226092380D01*
X170880000Y-226092380D02*
X170880000Y-225092380D01*
X170975238Y-225235238D01*
X171070476Y-225330476D01*
X171165714Y-225378095D01*
X166143333Y-223534761D02*
X166000476Y-223582380D01*
X165762380Y-223582380D01*
X165667142Y-223534761D01*
X165619523Y-223487142D01*
X165571904Y-223391904D01*
X165571904Y-223296666D01*
X165619523Y-223201428D01*
X165667142Y-223153809D01*
X165762380Y-223106190D01*
X165952857Y-223058571D01*
X166048095Y-223010952D01*
X166095714Y-222963333D01*
X166143333Y-222868095D01*
X166143333Y-222772857D01*
X166095714Y-222677619D01*
X166048095Y-222630000D01*
X165952857Y-222582380D01*
X165714761Y-222582380D01*
X165571904Y-222630000D01*
X165238571Y-222582380D02*
X165000476Y-223582380D01*
X164810000Y-222868095D01*
X164619523Y-223582380D01*
X164381428Y-222582380D01*
X163476666Y-223582380D02*
X164048095Y-223582380D01*
X163762380Y-223582380D02*
X163762380Y-222582380D01*
X163857619Y-222725238D01*
X163952857Y-222820476D01*
X164048095Y-222868095D01*
X233457746Y-193523207D02*
X233083139Y-192596023D01*
X233041654Y-193383166D01*
X232465017Y-192845761D01*
X232839623Y-193772944D01*
X232111804Y-192988468D02*
X231868288Y-194165389D01*
X231493681Y-193238206D02*
X232486411Y-193915652D01*
X231228772Y-193345236D02*
X230654801Y-193577135D01*
X231106569Y-193805479D01*
X230974114Y-193858995D01*
X230903650Y-193938823D01*
X230877336Y-194000813D01*
X230868862Y-194106955D01*
X230958054Y-194327713D01*
X231037882Y-194398178D01*
X231099872Y-194424491D01*
X231206014Y-194432966D01*
X231470923Y-194325935D01*
X231541388Y-194246107D01*
X231567702Y-194184117D01*
X230285527Y-194188561D02*
X230355992Y-194108732D01*
X230382305Y-194046742D01*
X230390780Y-193940601D01*
X230372942Y-193896449D01*
X230293113Y-193825984D01*
X230231123Y-193799671D01*
X230124981Y-193791196D01*
X229948375Y-193862550D01*
X229877910Y-193942378D01*
X229851597Y-194004368D01*
X229843122Y-194110510D01*
X229860961Y-194154662D01*
X229940789Y-194225126D01*
X230002779Y-194251440D01*
X230108921Y-194259914D01*
X230285527Y-194188561D01*
X230391669Y-194197036D01*
X230453659Y-194223349D01*
X230533487Y-194293814D01*
X230604841Y-194470420D01*
X230596366Y-194576562D01*
X230570053Y-194638552D01*
X230499588Y-194718380D01*
X230322982Y-194789734D01*
X230216840Y-194781259D01*
X230154850Y-194754946D01*
X230075021Y-194684481D01*
X230003668Y-194507874D01*
X230012143Y-194401733D01*
X230038456Y-194339743D01*
X230108921Y-194259914D01*
X180983524Y-162415234D02*
X180608917Y-161488050D01*
X180567432Y-162275193D01*
X179990795Y-161737788D01*
X180365401Y-162664971D01*
X179637582Y-161880495D02*
X179394066Y-163057416D01*
X179019459Y-162130233D02*
X180012189Y-162807679D01*
X178746075Y-162343405D02*
X178684085Y-162317091D01*
X178577943Y-162308617D01*
X178357185Y-162397809D01*
X178286720Y-162477637D01*
X178260407Y-162539627D01*
X178251932Y-162645769D01*
X178287609Y-162734072D01*
X178385276Y-162848688D01*
X179129156Y-163164447D01*
X178555185Y-163396346D01*
X177871517Y-162594031D02*
X177253395Y-162843769D01*
X178025366Y-163610407D01*
X187539139Y-178640951D02*
X187164532Y-177713767D01*
X187123047Y-178500910D01*
X186546410Y-177963505D01*
X186921016Y-178890688D01*
X186193197Y-178106212D02*
X185949681Y-179283133D01*
X185575074Y-178355950D02*
X186567804Y-179033396D01*
X185301690Y-178569122D02*
X185239700Y-178542808D01*
X185133558Y-178534334D01*
X184912800Y-178623526D01*
X184842335Y-178703354D01*
X184816022Y-178765344D01*
X184807547Y-178871486D01*
X184843224Y-178959789D01*
X184940891Y-179074405D01*
X185684771Y-179390164D01*
X185110800Y-179622063D01*
X184366920Y-179306305D02*
X184437385Y-179226476D01*
X184463698Y-179164486D01*
X184472173Y-179058345D01*
X184454335Y-179014193D01*
X184374506Y-178943728D01*
X184312516Y-178917415D01*
X184206374Y-178908940D01*
X184029768Y-178980294D01*
X183959303Y-179060122D01*
X183932990Y-179122112D01*
X183924515Y-179228254D01*
X183942354Y-179272406D01*
X184022182Y-179342870D01*
X184084172Y-179369184D01*
X184190314Y-179377658D01*
X184366920Y-179306305D01*
X184473062Y-179314780D01*
X184535052Y-179341093D01*
X184614880Y-179411558D01*
X184686234Y-179588164D01*
X184677759Y-179694306D01*
X184651446Y-179756296D01*
X184580981Y-179836124D01*
X184404375Y-179907478D01*
X184298233Y-179899003D01*
X184236243Y-179872690D01*
X184156414Y-179802225D01*
X184085061Y-179625618D01*
X184093536Y-179519477D01*
X184119849Y-179457487D01*
X184190314Y-179377658D01*
X194094754Y-194866669D02*
X193720147Y-193939485D01*
X193678662Y-194726628D01*
X193102025Y-194189223D01*
X193476631Y-195116406D01*
X192748812Y-194331930D02*
X192505296Y-195508851D01*
X192130689Y-194581668D02*
X193123419Y-195259114D01*
X191857305Y-194794840D02*
X191795315Y-194768526D01*
X191689173Y-194760052D01*
X191468415Y-194849244D01*
X191397950Y-194929072D01*
X191371637Y-194991062D01*
X191363162Y-195097204D01*
X191398839Y-195185507D01*
X191496506Y-195300123D01*
X192240386Y-195615882D01*
X191666415Y-195847781D01*
X191224899Y-196026165D02*
X191048293Y-196097519D01*
X190942151Y-196089044D01*
X190880161Y-196062731D01*
X190738343Y-195965953D01*
X190622837Y-195807185D01*
X190480130Y-195453972D01*
X190488605Y-195347830D01*
X190514918Y-195285840D01*
X190585383Y-195206012D01*
X190761989Y-195134658D01*
X190868131Y-195143133D01*
X190930121Y-195169446D01*
X191009950Y-195239911D01*
X191099142Y-195460669D01*
X191090667Y-195566811D01*
X191064354Y-195628801D01*
X190993889Y-195708629D01*
X190817282Y-195779983D01*
X190711141Y-195771508D01*
X190649151Y-195745195D01*
X190569322Y-195674730D01*
X214431812Y-195817510D02*
X214057205Y-194890326D01*
X214015720Y-195677469D01*
X213439083Y-195140064D01*
X213813689Y-196067247D01*
X213085870Y-195282771D02*
X212842354Y-196459692D01*
X212467747Y-195532509D02*
X213460477Y-196209955D01*
X212202838Y-195639539D02*
X211628867Y-195871438D01*
X212080635Y-196099782D01*
X211948180Y-196153298D01*
X211877716Y-196233126D01*
X211851402Y-196295116D01*
X211842928Y-196401258D01*
X211932120Y-196622016D01*
X212011948Y-196692481D01*
X212073938Y-196718794D01*
X212180080Y-196727269D01*
X212444989Y-196620238D01*
X212515454Y-196540410D01*
X212541768Y-196478420D01*
X210959007Y-196501591D02*
X211208744Y-197119714D01*
X211037057Y-196059186D02*
X211525392Y-196632268D01*
X210951421Y-196864167D01*
X121445201Y-149628420D02*
X121819808Y-148701236D01*
X121243170Y-149238641D01*
X121201685Y-148451498D01*
X120827079Y-149378682D01*
X120848472Y-148308791D02*
X119855743Y-148986237D01*
X120230350Y-148059053D02*
X120473866Y-149235975D01*
X119016863Y-148647307D02*
X119546682Y-148861368D01*
X119281772Y-148754338D02*
X119656379Y-147827154D01*
X119691167Y-147995286D01*
X119743793Y-148119266D01*
X119814258Y-148199094D01*
X118552589Y-147381194D02*
X118994105Y-147559578D01*
X118859872Y-148018932D01*
X118833559Y-147956942D01*
X118763094Y-147877114D01*
X118542336Y-147787922D01*
X118436194Y-147796397D01*
X118374204Y-147822710D01*
X118294376Y-147893175D01*
X118205184Y-148113933D01*
X118213659Y-148220074D01*
X118239972Y-148282064D01*
X118310437Y-148361893D01*
X118531195Y-148451085D01*
X118637336Y-148442610D01*
X118699327Y-148416297D01*
X169262418Y-182789622D02*
X168887811Y-181862438D01*
X168846326Y-182649581D01*
X168269689Y-182112176D01*
X168644295Y-183039359D01*
X167916476Y-182254883D02*
X167672960Y-183431804D01*
X167298353Y-182504621D02*
X168291083Y-183182067D01*
X167024969Y-182717793D02*
X166962979Y-182691479D01*
X166856837Y-182683005D01*
X166636079Y-182772197D01*
X166565614Y-182852025D01*
X166539301Y-182914015D01*
X166530826Y-183020157D01*
X166566503Y-183108460D01*
X166664170Y-183223076D01*
X167408050Y-183538835D01*
X166834079Y-183770734D01*
X165789613Y-183473703D02*
X166039350Y-184091826D01*
X165867663Y-183031298D02*
X166355998Y-183604380D01*
X165782027Y-183836279D01*
X68970978Y-180736393D02*
X69345585Y-179809209D01*
X68768947Y-180346614D01*
X68727462Y-179559471D01*
X68352856Y-180486655D01*
X68374249Y-179416764D02*
X67381520Y-180094210D01*
X67756127Y-179167026D02*
X67999643Y-180343948D01*
X66542640Y-179755280D02*
X67072459Y-179969341D01*
X66807549Y-179862311D02*
X67182156Y-178935127D01*
X67216944Y-179103259D01*
X67269570Y-179227239D01*
X67340035Y-179307067D01*
X66343275Y-178596197D02*
X66254972Y-178560520D01*
X66148830Y-178568995D01*
X66086840Y-178595308D01*
X66007012Y-178665773D01*
X65891507Y-178824541D01*
X65802315Y-179045299D01*
X65775113Y-179239744D01*
X65783587Y-179345886D01*
X65809901Y-179407876D01*
X65880365Y-179487704D01*
X65968669Y-179523381D01*
X66074810Y-179514906D01*
X66136800Y-179488593D01*
X66216629Y-179418128D01*
X66332134Y-179259360D01*
X66421326Y-179038602D01*
X66448528Y-178844157D01*
X66440053Y-178738016D01*
X66413740Y-178676026D01*
X66343275Y-178596197D01*
X87996912Y-183030696D02*
X88371519Y-182103512D01*
X87794881Y-182640917D01*
X87753396Y-181853774D01*
X87378790Y-182780958D01*
X87400183Y-181711067D02*
X86407454Y-182388513D01*
X86782061Y-181461329D02*
X87025577Y-182638251D01*
X85568574Y-182049583D02*
X86098393Y-182263644D01*
X85833483Y-182156614D02*
X86208090Y-181229430D01*
X86242878Y-181397562D01*
X86295504Y-181521542D01*
X86365969Y-181601370D01*
X85023582Y-181110370D02*
X84773845Y-181728492D01*
X85387048Y-180846349D02*
X85340230Y-181597815D01*
X84766259Y-181365916D01*
X108333970Y-182079855D02*
X108708577Y-181152671D01*
X108131939Y-181690076D01*
X108090454Y-180902933D01*
X107715848Y-181830117D01*
X107737241Y-180760226D02*
X106744512Y-181437672D01*
X107119119Y-180510488D02*
X107362635Y-181687410D01*
X105905632Y-181098742D02*
X106435451Y-181312803D01*
X106170541Y-181205773D02*
X106545148Y-180278589D01*
X106579936Y-180446721D01*
X106632562Y-180570701D01*
X106703027Y-180650529D01*
X105971177Y-180046690D02*
X105353054Y-179796952D01*
X105375812Y-180884682D01*
X175818033Y-199015339D02*
X175443426Y-198088155D01*
X175401941Y-198875298D01*
X174825304Y-198337893D01*
X175199910Y-199265076D01*
X174472091Y-198480600D02*
X174228575Y-199657521D01*
X173853968Y-198730338D02*
X174846698Y-199407784D01*
X173580584Y-198943510D02*
X173518594Y-198917196D01*
X173412452Y-198908722D01*
X173191694Y-198997914D01*
X173121229Y-199077742D01*
X173094916Y-199139732D01*
X173086441Y-199245874D01*
X173122118Y-199334177D01*
X173219785Y-199448793D01*
X173963665Y-199764552D01*
X173389694Y-199996451D01*
X172176207Y-199408197D02*
X172617723Y-199229813D01*
X172840259Y-199653491D01*
X172778269Y-199627178D01*
X172672127Y-199618703D01*
X172451369Y-199707895D01*
X172380904Y-199787723D01*
X172354591Y-199849713D01*
X172346116Y-199955855D01*
X172435308Y-200176613D01*
X172515137Y-200247078D01*
X172577127Y-200273391D01*
X172683269Y-200281866D01*
X172904027Y-200192674D01*
X172974491Y-200112845D01*
X173000805Y-200050855D01*
X139721922Y-153777090D02*
X140096529Y-152849906D01*
X139519891Y-153387311D01*
X139478406Y-152600168D01*
X139103800Y-153527352D01*
X139125193Y-152457461D02*
X138132464Y-153134907D01*
X138507071Y-152207723D02*
X138750587Y-153384645D01*
X137293584Y-152795977D02*
X137823403Y-153010038D01*
X137558493Y-152903008D02*
X137933100Y-151975824D01*
X137967888Y-152143956D01*
X138020514Y-152267936D01*
X138090979Y-152347764D01*
X136852067Y-152617593D02*
X136675461Y-152546240D01*
X136604996Y-152466411D01*
X136578683Y-152404421D01*
X136543895Y-152236290D01*
X136571097Y-152041845D01*
X136713804Y-151688632D01*
X136793633Y-151618167D01*
X136855623Y-151591854D01*
X136961764Y-151583379D01*
X137138371Y-151654733D01*
X137208836Y-151734561D01*
X137235149Y-151796551D01*
X137243624Y-151902693D01*
X137154432Y-152123451D01*
X137074603Y-152193916D01*
X137012613Y-152220229D01*
X136906472Y-152228704D01*
X136729865Y-152157350D01*
X136659400Y-152077522D01*
X136633087Y-152015532D01*
X136624612Y-151909390D01*
X126610691Y-186228525D02*
X126985298Y-185301341D01*
X126408660Y-185838746D01*
X126367175Y-185051603D01*
X125992569Y-185978787D01*
X126013962Y-184908896D02*
X125021233Y-185586342D01*
X125395840Y-184659158D02*
X125639356Y-185836080D01*
X125051102Y-184622593D02*
X125024789Y-184560603D01*
X124954324Y-184480774D01*
X124733566Y-184391582D01*
X124627424Y-184400057D01*
X124565434Y-184426370D01*
X124485606Y-184496835D01*
X124449929Y-184585138D01*
X124440565Y-184735432D01*
X124756324Y-185479312D01*
X124182353Y-185247412D01*
X123299320Y-184890644D02*
X123829140Y-185104705D01*
X123564230Y-184997675D02*
X123938837Y-184070491D01*
X123973625Y-184238623D01*
X124026251Y-184362603D01*
X124096716Y-184442431D01*
X133166306Y-170002808D02*
X133540913Y-169075624D01*
X132964275Y-169613029D01*
X132922790Y-168825886D01*
X132548184Y-169753070D01*
X132569577Y-168683179D02*
X131576848Y-169360625D01*
X131951455Y-168433441D02*
X132194971Y-169610363D01*
X131606717Y-168396876D02*
X131580404Y-168334886D01*
X131509939Y-168255057D01*
X131289181Y-168165865D01*
X131183039Y-168174340D01*
X131121049Y-168200653D01*
X131041221Y-168271118D01*
X131005544Y-168359421D01*
X130996180Y-168509715D01*
X131311939Y-169253595D01*
X130737968Y-169021695D01*
X130538603Y-167862612D02*
X130450300Y-167826935D01*
X130344158Y-167835410D01*
X130282168Y-167861723D01*
X130202340Y-167932188D01*
X130086835Y-168090956D01*
X129997643Y-168311714D01*
X129970441Y-168506159D01*
X129978915Y-168612301D01*
X130005229Y-168674291D01*
X130075693Y-168754119D01*
X130163997Y-168789796D01*
X130270138Y-168781321D01*
X130332128Y-168755008D01*
X130411957Y-168684543D01*
X130527462Y-168525775D01*
X130616654Y-168305017D01*
X130643856Y-168110572D01*
X130635381Y-168004431D01*
X130609068Y-167942441D01*
X130538603Y-167862612D01*
X162706803Y-166563904D02*
X162332196Y-165636720D01*
X162290711Y-166423863D01*
X161714074Y-165886458D01*
X162088680Y-166813641D01*
X161360861Y-166029165D02*
X161117345Y-167206086D01*
X160742738Y-166278903D02*
X161735468Y-166956349D01*
X160469354Y-166492075D02*
X160407364Y-166465761D01*
X160301222Y-166457287D01*
X160080464Y-166546479D01*
X160009999Y-166626307D01*
X159983686Y-166688297D01*
X159975211Y-166794439D01*
X160010888Y-166882742D01*
X160108555Y-166997358D01*
X160852435Y-167313117D01*
X160278464Y-167545016D01*
X159594796Y-166742701D02*
X159020826Y-166974601D01*
X159472594Y-167202945D01*
X159340139Y-167256460D01*
X159269674Y-167336288D01*
X159243361Y-167398278D01*
X159234886Y-167504420D01*
X159324078Y-167725178D01*
X159403907Y-167795643D01*
X159465897Y-167821956D01*
X159572039Y-167830431D01*
X159836948Y-167723400D01*
X159907413Y-167643572D01*
X159933726Y-167581582D01*
X114889585Y-165854137D02*
X115264192Y-164926953D01*
X114687554Y-165464358D01*
X114646069Y-164677215D01*
X114271463Y-165604399D01*
X114292856Y-164534508D02*
X113300127Y-165211954D01*
X113674734Y-164284770D02*
X113918250Y-165461692D01*
X112461247Y-164873024D02*
X112991066Y-165087085D01*
X112726156Y-164980055D02*
X113100763Y-164052871D01*
X113135551Y-164221003D01*
X113188177Y-164344983D01*
X113258642Y-164424811D01*
X112041124Y-163624749D02*
X112217731Y-163696103D01*
X112288195Y-163775931D01*
X112314509Y-163837921D01*
X112349297Y-164006053D01*
X112322095Y-164200498D01*
X112179387Y-164553711D01*
X112099559Y-164624176D01*
X112037569Y-164650489D01*
X111931427Y-164658964D01*
X111754821Y-164587610D01*
X111684356Y-164507781D01*
X111658043Y-164445791D01*
X111649568Y-164339650D01*
X111738760Y-164118892D01*
X111818588Y-164048427D01*
X111880578Y-164022114D01*
X111986720Y-164013639D01*
X112163327Y-164084993D01*
X112233791Y-164164821D01*
X112260105Y-164226811D01*
X112268579Y-164332953D01*
X196921130Y-206748214D02*
X195921130Y-206748214D01*
X195921130Y-206986309D01*
X195968750Y-207129166D01*
X196063988Y-207224404D01*
X196159226Y-207272023D01*
X196349702Y-207319642D01*
X196492559Y-207319642D01*
X196683035Y-207272023D01*
X196778273Y-207224404D01*
X196873511Y-207129166D01*
X196921130Y-206986309D01*
X196921130Y-206748214D01*
X196254464Y-208176785D02*
X196921130Y-208176785D01*
X195873511Y-207938690D02*
X196587797Y-207700595D01*
X196587797Y-208319642D01*
X196254464Y-209129166D02*
X196921130Y-209129166D01*
X195873511Y-208891071D02*
X196587797Y-208652976D01*
X196587797Y-209272023D01*
X194539880Y-206748214D02*
X193539880Y-206748214D01*
X193539880Y-206986309D01*
X193587500Y-207129166D01*
X193682738Y-207224404D01*
X193777976Y-207272023D01*
X193968452Y-207319642D01*
X194111309Y-207319642D01*
X194301785Y-207272023D01*
X194397023Y-207224404D01*
X194492261Y-207129166D01*
X194539880Y-206986309D01*
X194539880Y-206748214D01*
X193873214Y-208176785D02*
X194539880Y-208176785D01*
X193492261Y-207938690D02*
X194206547Y-207700595D01*
X194206547Y-208319642D01*
X193539880Y-208605357D02*
X193539880Y-209224404D01*
X193920833Y-208891071D01*
X193920833Y-209033928D01*
X193968452Y-209129166D01*
X194016071Y-209176785D01*
X194111309Y-209224404D01*
X194349404Y-209224404D01*
X194444642Y-209176785D01*
X194492261Y-209129166D01*
X194539880Y-209033928D01*
X194539880Y-208748214D01*
X194492261Y-208652976D01*
X194444642Y-208605357D01*
X182633630Y-206748214D02*
X181633630Y-206748214D01*
X181633630Y-206986309D01*
X181681250Y-207129166D01*
X181776488Y-207224404D01*
X181871726Y-207272023D01*
X182062202Y-207319642D01*
X182205059Y-207319642D01*
X182395535Y-207272023D01*
X182490773Y-207224404D01*
X182586011Y-207129166D01*
X182633630Y-206986309D01*
X182633630Y-206748214D01*
X181966964Y-208176785D02*
X182633630Y-208176785D01*
X181586011Y-207938690D02*
X182300297Y-207700595D01*
X182300297Y-208319642D01*
X181728869Y-208652976D02*
X181681250Y-208700595D01*
X181633630Y-208795833D01*
X181633630Y-209033928D01*
X181681250Y-209129166D01*
X181728869Y-209176785D01*
X181824107Y-209224404D01*
X181919345Y-209224404D01*
X182062202Y-209176785D01*
X182633630Y-208605357D01*
X182633630Y-209224404D01*
X185014880Y-206748214D02*
X184014880Y-206748214D01*
X184014880Y-206986309D01*
X184062500Y-207129166D01*
X184157738Y-207224404D01*
X184252976Y-207272023D01*
X184443452Y-207319642D01*
X184586309Y-207319642D01*
X184776785Y-207272023D01*
X184872023Y-207224404D01*
X184967261Y-207129166D01*
X185014880Y-206986309D01*
X185014880Y-206748214D01*
X184348214Y-208176785D02*
X185014880Y-208176785D01*
X183967261Y-207938690D02*
X184681547Y-207700595D01*
X184681547Y-208319642D01*
X185014880Y-209224404D02*
X185014880Y-208652976D01*
X185014880Y-208938690D02*
X184014880Y-208938690D01*
X184157738Y-208843452D01*
X184252976Y-208748214D01*
X184300595Y-208652976D01*
X187396130Y-206748214D02*
X186396130Y-206748214D01*
X186396130Y-206986309D01*
X186443750Y-207129166D01*
X186538988Y-207224404D01*
X186634226Y-207272023D01*
X186824702Y-207319642D01*
X186967559Y-207319642D01*
X187158035Y-207272023D01*
X187253273Y-207224404D01*
X187348511Y-207129166D01*
X187396130Y-206986309D01*
X187396130Y-206748214D01*
X186729464Y-208176785D02*
X187396130Y-208176785D01*
X186348511Y-207938690D02*
X187062797Y-207700595D01*
X187062797Y-208319642D01*
X186396130Y-208891071D02*
X186396130Y-208986309D01*
X186443750Y-209081547D01*
X186491369Y-209129166D01*
X186586607Y-209176785D01*
X186777083Y-209224404D01*
X187015178Y-209224404D01*
X187205654Y-209176785D01*
X187300892Y-209129166D01*
X187348511Y-209081547D01*
X187396130Y-208986309D01*
X187396130Y-208891071D01*
X187348511Y-208795833D01*
X187300892Y-208748214D01*
X187205654Y-208700595D01*
X187015178Y-208652976D01*
X186777083Y-208652976D01*
X186586607Y-208700595D01*
X186491369Y-208748214D01*
X186443750Y-208795833D01*
X186396130Y-208891071D01*
X189777380Y-206748214D02*
X188777380Y-206748214D01*
X188777380Y-206986309D01*
X188825000Y-207129166D01*
X188920238Y-207224404D01*
X189015476Y-207272023D01*
X189205952Y-207319642D01*
X189348809Y-207319642D01*
X189539285Y-207272023D01*
X189634523Y-207224404D01*
X189729761Y-207129166D01*
X189777380Y-206986309D01*
X189777380Y-206748214D01*
X188777380Y-207652976D02*
X188777380Y-208272023D01*
X189158333Y-207938690D01*
X189158333Y-208081547D01*
X189205952Y-208176785D01*
X189253571Y-208224404D01*
X189348809Y-208272023D01*
X189586904Y-208272023D01*
X189682142Y-208224404D01*
X189729761Y-208176785D01*
X189777380Y-208081547D01*
X189777380Y-207795833D01*
X189729761Y-207700595D01*
X189682142Y-207652976D01*
X189777380Y-208748214D02*
X189777380Y-208938690D01*
X189729761Y-209033928D01*
X189682142Y-209081547D01*
X189539285Y-209176785D01*
X189348809Y-209224404D01*
X188967857Y-209224404D01*
X188872619Y-209176785D01*
X188825000Y-209129166D01*
X188777380Y-209033928D01*
X188777380Y-208843452D01*
X188825000Y-208748214D01*
X188872619Y-208700595D01*
X188967857Y-208652976D01*
X189205952Y-208652976D01*
X189301190Y-208700595D01*
X189348809Y-208748214D01*
X189396428Y-208843452D01*
X189396428Y-209033928D01*
X189348809Y-209129166D01*
X189301190Y-209176785D01*
X189205952Y-209224404D01*
X160210535Y-213781380D02*
X160210535Y-212781380D01*
X159972440Y-212781380D01*
X159829583Y-212829000D01*
X159734345Y-212924238D01*
X159686726Y-213019476D01*
X159639107Y-213209952D01*
X159639107Y-213352809D01*
X159686726Y-213543285D01*
X159734345Y-213638523D01*
X159829583Y-213733761D01*
X159972440Y-213781380D01*
X160210535Y-213781380D01*
X159305773Y-212781380D02*
X158686726Y-212781380D01*
X159020059Y-213162333D01*
X158877202Y-213162333D01*
X158781964Y-213209952D01*
X158734345Y-213257571D01*
X158686726Y-213352809D01*
X158686726Y-213590904D01*
X158734345Y-213686142D01*
X158781964Y-213733761D01*
X158877202Y-213781380D01*
X159162916Y-213781380D01*
X159258154Y-213733761D01*
X159305773Y-213686142D01*
X158115297Y-213209952D02*
X158210535Y-213162333D01*
X158258154Y-213114714D01*
X158305773Y-213019476D01*
X158305773Y-212971857D01*
X158258154Y-212876619D01*
X158210535Y-212829000D01*
X158115297Y-212781380D01*
X157924821Y-212781380D01*
X157829583Y-212829000D01*
X157781964Y-212876619D01*
X157734345Y-212971857D01*
X157734345Y-213019476D01*
X157781964Y-213114714D01*
X157829583Y-213162333D01*
X157924821Y-213209952D01*
X158115297Y-213209952D01*
X158210535Y-213257571D01*
X158258154Y-213305190D01*
X158305773Y-213400428D01*
X158305773Y-213590904D01*
X158258154Y-213686142D01*
X158210535Y-213733761D01*
X158115297Y-213781380D01*
X157924821Y-213781380D01*
X157829583Y-213733761D01*
X157781964Y-213686142D01*
X157734345Y-213590904D01*
X157734345Y-213400428D01*
X157781964Y-213305190D01*
X157829583Y-213257571D01*
X157924821Y-213209952D01*
X160210535Y-216162630D02*
X160210535Y-215162630D01*
X159972440Y-215162630D01*
X159829583Y-215210250D01*
X159734345Y-215305488D01*
X159686726Y-215400726D01*
X159639107Y-215591202D01*
X159639107Y-215734059D01*
X159686726Y-215924535D01*
X159734345Y-216019773D01*
X159829583Y-216115011D01*
X159972440Y-216162630D01*
X160210535Y-216162630D01*
X159305773Y-215162630D02*
X158686726Y-215162630D01*
X159020059Y-215543583D01*
X158877202Y-215543583D01*
X158781964Y-215591202D01*
X158734345Y-215638821D01*
X158686726Y-215734059D01*
X158686726Y-215972154D01*
X158734345Y-216067392D01*
X158781964Y-216115011D01*
X158877202Y-216162630D01*
X159162916Y-216162630D01*
X159258154Y-216115011D01*
X159305773Y-216067392D01*
X158353392Y-215162630D02*
X157686726Y-215162630D01*
X158115297Y-216162630D01*
X160210535Y-218543880D02*
X160210535Y-217543880D01*
X159972440Y-217543880D01*
X159829583Y-217591500D01*
X159734345Y-217686738D01*
X159686726Y-217781976D01*
X159639107Y-217972452D01*
X159639107Y-218115309D01*
X159686726Y-218305785D01*
X159734345Y-218401023D01*
X159829583Y-218496261D01*
X159972440Y-218543880D01*
X160210535Y-218543880D01*
X159305773Y-217543880D02*
X158686726Y-217543880D01*
X159020059Y-217924833D01*
X158877202Y-217924833D01*
X158781964Y-217972452D01*
X158734345Y-218020071D01*
X158686726Y-218115309D01*
X158686726Y-218353404D01*
X158734345Y-218448642D01*
X158781964Y-218496261D01*
X158877202Y-218543880D01*
X159162916Y-218543880D01*
X159258154Y-218496261D01*
X159305773Y-218448642D01*
X157829583Y-217543880D02*
X158020059Y-217543880D01*
X158115297Y-217591500D01*
X158162916Y-217639119D01*
X158258154Y-217781976D01*
X158305773Y-217972452D01*
X158305773Y-218353404D01*
X158258154Y-218448642D01*
X158210535Y-218496261D01*
X158115297Y-218543880D01*
X157924821Y-218543880D01*
X157829583Y-218496261D01*
X157781964Y-218448642D01*
X157734345Y-218353404D01*
X157734345Y-218115309D01*
X157781964Y-218020071D01*
X157829583Y-217972452D01*
X157924821Y-217924833D01*
X158115297Y-217924833D01*
X158210535Y-217972452D01*
X158258154Y-218020071D01*
X158305773Y-218115309D01*
X160210535Y-220925130D02*
X160210535Y-219925130D01*
X159972440Y-219925130D01*
X159829583Y-219972750D01*
X159734345Y-220067988D01*
X159686726Y-220163226D01*
X159639107Y-220353702D01*
X159639107Y-220496559D01*
X159686726Y-220687035D01*
X159734345Y-220782273D01*
X159829583Y-220877511D01*
X159972440Y-220925130D01*
X160210535Y-220925130D01*
X159305773Y-219925130D02*
X158686726Y-219925130D01*
X159020059Y-220306083D01*
X158877202Y-220306083D01*
X158781964Y-220353702D01*
X158734345Y-220401321D01*
X158686726Y-220496559D01*
X158686726Y-220734654D01*
X158734345Y-220829892D01*
X158781964Y-220877511D01*
X158877202Y-220925130D01*
X159162916Y-220925130D01*
X159258154Y-220877511D01*
X159305773Y-220829892D01*
X157781964Y-219925130D02*
X158258154Y-219925130D01*
X158305773Y-220401321D01*
X158258154Y-220353702D01*
X158162916Y-220306083D01*
X157924821Y-220306083D01*
X157829583Y-220353702D01*
X157781964Y-220401321D01*
X157734345Y-220496559D01*
X157734345Y-220734654D01*
X157781964Y-220829892D01*
X157829583Y-220877511D01*
X157924821Y-220925130D01*
X158162916Y-220925130D01*
X158258154Y-220877511D01*
X158305773Y-220829892D01*
X152044285Y-213780130D02*
X152044285Y-212780130D01*
X151806190Y-212780130D01*
X151663333Y-212827750D01*
X151568095Y-212922988D01*
X151520476Y-213018226D01*
X151472857Y-213208702D01*
X151472857Y-213351559D01*
X151520476Y-213542035D01*
X151568095Y-213637273D01*
X151663333Y-213732511D01*
X151806190Y-213780130D01*
X152044285Y-213780130D01*
X151139523Y-212780130D02*
X150520476Y-212780130D01*
X150853809Y-213161083D01*
X150710952Y-213161083D01*
X150615714Y-213208702D01*
X150568095Y-213256321D01*
X150520476Y-213351559D01*
X150520476Y-213589654D01*
X150568095Y-213684892D01*
X150615714Y-213732511D01*
X150710952Y-213780130D01*
X150996666Y-213780130D01*
X151091904Y-213732511D01*
X151139523Y-213684892D01*
X149663333Y-213113464D02*
X149663333Y-213780130D01*
X149901428Y-212732511D02*
X150139523Y-213446797D01*
X149520476Y-213446797D01*
X152044285Y-216161380D02*
X152044285Y-215161380D01*
X151806190Y-215161380D01*
X151663333Y-215209000D01*
X151568095Y-215304238D01*
X151520476Y-215399476D01*
X151472857Y-215589952D01*
X151472857Y-215732809D01*
X151520476Y-215923285D01*
X151568095Y-216018523D01*
X151663333Y-216113761D01*
X151806190Y-216161380D01*
X152044285Y-216161380D01*
X151139523Y-215161380D02*
X150520476Y-215161380D01*
X150853809Y-215542333D01*
X150710952Y-215542333D01*
X150615714Y-215589952D01*
X150568095Y-215637571D01*
X150520476Y-215732809D01*
X150520476Y-215970904D01*
X150568095Y-216066142D01*
X150615714Y-216113761D01*
X150710952Y-216161380D01*
X150996666Y-216161380D01*
X151091904Y-216113761D01*
X151139523Y-216066142D01*
X150187142Y-215161380D02*
X149568095Y-215161380D01*
X149901428Y-215542333D01*
X149758571Y-215542333D01*
X149663333Y-215589952D01*
X149615714Y-215637571D01*
X149568095Y-215732809D01*
X149568095Y-215970904D01*
X149615714Y-216066142D01*
X149663333Y-216113761D01*
X149758571Y-216161380D01*
X150044285Y-216161380D01*
X150139523Y-216113761D01*
X150187142Y-216066142D01*
X152044285Y-218542630D02*
X152044285Y-217542630D01*
X151806190Y-217542630D01*
X151663333Y-217590250D01*
X151568095Y-217685488D01*
X151520476Y-217780726D01*
X151472857Y-217971202D01*
X151472857Y-218114059D01*
X151520476Y-218304535D01*
X151568095Y-218399773D01*
X151663333Y-218495011D01*
X151806190Y-218542630D01*
X152044285Y-218542630D01*
X151139523Y-217542630D02*
X150520476Y-217542630D01*
X150853809Y-217923583D01*
X150710952Y-217923583D01*
X150615714Y-217971202D01*
X150568095Y-218018821D01*
X150520476Y-218114059D01*
X150520476Y-218352154D01*
X150568095Y-218447392D01*
X150615714Y-218495011D01*
X150710952Y-218542630D01*
X150996666Y-218542630D01*
X151091904Y-218495011D01*
X151139523Y-218447392D01*
X150139523Y-217637869D02*
X150091904Y-217590250D01*
X149996666Y-217542630D01*
X149758571Y-217542630D01*
X149663333Y-217590250D01*
X149615714Y-217637869D01*
X149568095Y-217733107D01*
X149568095Y-217828345D01*
X149615714Y-217971202D01*
X150187142Y-218542630D01*
X149568095Y-218542630D01*
X152044285Y-220923880D02*
X152044285Y-219923880D01*
X151806190Y-219923880D01*
X151663333Y-219971500D01*
X151568095Y-220066738D01*
X151520476Y-220161976D01*
X151472857Y-220352452D01*
X151472857Y-220495309D01*
X151520476Y-220685785D01*
X151568095Y-220781023D01*
X151663333Y-220876261D01*
X151806190Y-220923880D01*
X152044285Y-220923880D01*
X151139523Y-219923880D02*
X150520476Y-219923880D01*
X150853809Y-220304833D01*
X150710952Y-220304833D01*
X150615714Y-220352452D01*
X150568095Y-220400071D01*
X150520476Y-220495309D01*
X150520476Y-220733404D01*
X150568095Y-220828642D01*
X150615714Y-220876261D01*
X150710952Y-220923880D01*
X150996666Y-220923880D01*
X151091904Y-220876261D01*
X151139523Y-220828642D01*
X149568095Y-220923880D02*
X150139523Y-220923880D01*
X149853809Y-220923880D02*
X149853809Y-219923880D01*
X149949047Y-220066738D01*
X150044285Y-220161976D01*
X150139523Y-220209595D01*
X201683630Y-206748214D02*
X200683630Y-206748214D01*
X200683630Y-206986309D01*
X200731250Y-207129166D01*
X200826488Y-207224404D01*
X200921726Y-207272023D01*
X201112202Y-207319642D01*
X201255059Y-207319642D01*
X201445535Y-207272023D01*
X201540773Y-207224404D01*
X201636011Y-207129166D01*
X201683630Y-206986309D01*
X201683630Y-206748214D01*
X200683630Y-207652976D02*
X200683630Y-208272023D01*
X201064583Y-207938690D01*
X201064583Y-208081547D01*
X201112202Y-208176785D01*
X201159821Y-208224404D01*
X201255059Y-208272023D01*
X201493154Y-208272023D01*
X201588392Y-208224404D01*
X201636011Y-208176785D01*
X201683630Y-208081547D01*
X201683630Y-207795833D01*
X201636011Y-207700595D01*
X201588392Y-207652976D01*
X200683630Y-208891071D02*
X200683630Y-208986309D01*
X200731250Y-209081547D01*
X200778869Y-209129166D01*
X200874107Y-209176785D01*
X201064583Y-209224404D01*
X201302678Y-209224404D01*
X201493154Y-209176785D01*
X201588392Y-209129166D01*
X201636011Y-209081547D01*
X201683630Y-208986309D01*
X201683630Y-208891071D01*
X201636011Y-208795833D01*
X201588392Y-208748214D01*
X201493154Y-208700595D01*
X201302678Y-208652976D01*
X201064583Y-208652976D01*
X200874107Y-208700595D01*
X200778869Y-208748214D01*
X200731250Y-208795833D01*
X200683630Y-208891071D01*
X199302380Y-206748214D02*
X198302380Y-206748214D01*
X198302380Y-206986309D01*
X198350000Y-207129166D01*
X198445238Y-207224404D01*
X198540476Y-207272023D01*
X198730952Y-207319642D01*
X198873809Y-207319642D01*
X199064285Y-207272023D01*
X199159523Y-207224404D01*
X199254761Y-207129166D01*
X199302380Y-206986309D01*
X199302380Y-206748214D01*
X198397619Y-207700595D02*
X198350000Y-207748214D01*
X198302380Y-207843452D01*
X198302380Y-208081547D01*
X198350000Y-208176785D01*
X198397619Y-208224404D01*
X198492857Y-208272023D01*
X198588095Y-208272023D01*
X198730952Y-208224404D01*
X199302380Y-207652976D01*
X199302380Y-208272023D01*
X199302380Y-208748214D02*
X199302380Y-208938690D01*
X199254761Y-209033928D01*
X199207142Y-209081547D01*
X199064285Y-209176785D01*
X198873809Y-209224404D01*
X198492857Y-209224404D01*
X198397619Y-209176785D01*
X198350000Y-209129166D01*
X198302380Y-209033928D01*
X198302380Y-208843452D01*
X198350000Y-208748214D01*
X198397619Y-208700595D01*
X198492857Y-208652976D01*
X198730952Y-208652976D01*
X198826190Y-208700595D01*
X198873809Y-208748214D01*
X198921428Y-208843452D01*
X198921428Y-209033928D01*
X198873809Y-209129166D01*
X198826190Y-209176785D01*
X198730952Y-209224404D01*
X192158630Y-206748214D02*
X191158630Y-206748214D01*
X191158630Y-206986309D01*
X191206250Y-207129166D01*
X191301488Y-207224404D01*
X191396726Y-207272023D01*
X191587202Y-207319642D01*
X191730059Y-207319642D01*
X191920535Y-207272023D01*
X192015773Y-207224404D01*
X192111011Y-207129166D01*
X192158630Y-206986309D01*
X192158630Y-206748214D01*
X191253869Y-207700595D02*
X191206250Y-207748214D01*
X191158630Y-207843452D01*
X191158630Y-208081547D01*
X191206250Y-208176785D01*
X191253869Y-208224404D01*
X191349107Y-208272023D01*
X191444345Y-208272023D01*
X191587202Y-208224404D01*
X192158630Y-207652976D01*
X192158630Y-208272023D01*
X191587202Y-208843452D02*
X191539583Y-208748214D01*
X191491964Y-208700595D01*
X191396726Y-208652976D01*
X191349107Y-208652976D01*
X191253869Y-208700595D01*
X191206250Y-208748214D01*
X191158630Y-208843452D01*
X191158630Y-209033928D01*
X191206250Y-209129166D01*
X191253869Y-209176785D01*
X191349107Y-209224404D01*
X191396726Y-209224404D01*
X191491964Y-209176785D01*
X191539583Y-209129166D01*
X191587202Y-209033928D01*
X191587202Y-208843452D01*
X191634821Y-208748214D01*
X191682440Y-208700595D01*
X191777678Y-208652976D01*
X191968154Y-208652976D01*
X192063392Y-208700595D01*
X192111011Y-208748214D01*
X192158630Y-208843452D01*
X192158630Y-209033928D01*
X192111011Y-209129166D01*
X192063392Y-209176785D01*
X191968154Y-209224404D01*
X191777678Y-209224404D01*
X191682440Y-209176785D01*
X191634821Y-209129166D01*
X191587202Y-209033928D01*
X160210535Y-223306380D02*
X160210535Y-222306380D01*
X159972440Y-222306380D01*
X159829583Y-222354000D01*
X159734345Y-222449238D01*
X159686726Y-222544476D01*
X159639107Y-222734952D01*
X159639107Y-222877809D01*
X159686726Y-223068285D01*
X159734345Y-223163523D01*
X159829583Y-223258761D01*
X159972440Y-223306380D01*
X160210535Y-223306380D01*
X159258154Y-222401619D02*
X159210535Y-222354000D01*
X159115297Y-222306380D01*
X158877202Y-222306380D01*
X158781964Y-222354000D01*
X158734345Y-222401619D01*
X158686726Y-222496857D01*
X158686726Y-222592095D01*
X158734345Y-222734952D01*
X159305773Y-223306380D01*
X158686726Y-223306380D01*
X158353392Y-222306380D02*
X157686726Y-222306380D01*
X158115297Y-223306380D01*
X152044285Y-223305130D02*
X152044285Y-222305130D01*
X151806190Y-222305130D01*
X151663333Y-222352750D01*
X151568095Y-222447988D01*
X151520476Y-222543226D01*
X151472857Y-222733702D01*
X151472857Y-222876559D01*
X151520476Y-223067035D01*
X151568095Y-223162273D01*
X151663333Y-223257511D01*
X151806190Y-223305130D01*
X152044285Y-223305130D01*
X151091904Y-222400369D02*
X151044285Y-222352750D01*
X150949047Y-222305130D01*
X150710952Y-222305130D01*
X150615714Y-222352750D01*
X150568095Y-222400369D01*
X150520476Y-222495607D01*
X150520476Y-222590845D01*
X150568095Y-222733702D01*
X151139523Y-223305130D01*
X150520476Y-223305130D01*
X149663333Y-222305130D02*
X149853809Y-222305130D01*
X149949047Y-222352750D01*
X149996666Y-222400369D01*
X150091904Y-222543226D01*
X150139523Y-222733702D01*
X150139523Y-223114654D01*
X150091904Y-223209892D01*
X150044285Y-223257511D01*
X149949047Y-223305130D01*
X149758571Y-223305130D01*
X149663333Y-223257511D01*
X149615714Y-223209892D01*
X149568095Y-223114654D01*
X149568095Y-222876559D01*
X149615714Y-222781321D01*
X149663333Y-222733702D01*
X149758571Y-222686083D01*
X149949047Y-222686083D01*
X150044285Y-222733702D01*
X150091904Y-222781321D01*
X150139523Y-222876559D01*
X180252380Y-206748214D02*
X179252380Y-206748214D01*
X179252380Y-206986309D01*
X179300000Y-207129166D01*
X179395238Y-207224404D01*
X179490476Y-207272023D01*
X179680952Y-207319642D01*
X179823809Y-207319642D01*
X180014285Y-207272023D01*
X180109523Y-207224404D01*
X180204761Y-207129166D01*
X180252380Y-206986309D01*
X180252380Y-206748214D01*
X179347619Y-207700595D02*
X179300000Y-207748214D01*
X179252380Y-207843452D01*
X179252380Y-208081547D01*
X179300000Y-208176785D01*
X179347619Y-208224404D01*
X179442857Y-208272023D01*
X179538095Y-208272023D01*
X179680952Y-208224404D01*
X180252380Y-207652976D01*
X180252380Y-208272023D01*
X179252380Y-209176785D02*
X179252380Y-208700595D01*
X179728571Y-208652976D01*
X179680952Y-208700595D01*
X179633333Y-208795833D01*
X179633333Y-209033928D01*
X179680952Y-209129166D01*
X179728571Y-209176785D01*
X179823809Y-209224404D01*
X180061904Y-209224404D01*
X180157142Y-209176785D01*
X180204761Y-209129166D01*
X180252380Y-209033928D01*
X180252380Y-208795833D01*
X180204761Y-208700595D01*
X180157142Y-208652976D01*
X160210535Y-211400130D02*
X160210535Y-210400130D01*
X159972440Y-210400130D01*
X159829583Y-210447750D01*
X159734345Y-210542988D01*
X159686726Y-210638226D01*
X159639107Y-210828702D01*
X159639107Y-210971559D01*
X159686726Y-211162035D01*
X159734345Y-211257273D01*
X159829583Y-211352511D01*
X159972440Y-211400130D01*
X160210535Y-211400130D01*
X159258154Y-210495369D02*
X159210535Y-210447750D01*
X159115297Y-210400130D01*
X158877202Y-210400130D01*
X158781964Y-210447750D01*
X158734345Y-210495369D01*
X158686726Y-210590607D01*
X158686726Y-210685845D01*
X158734345Y-210828702D01*
X159305773Y-211400130D01*
X158686726Y-211400130D01*
X157829583Y-210733464D02*
X157829583Y-211400130D01*
X158067678Y-210352511D02*
X158305773Y-211066797D01*
X157686726Y-211066797D01*
X152044285Y-211398880D02*
X152044285Y-210398880D01*
X151806190Y-210398880D01*
X151663333Y-210446500D01*
X151568095Y-210541738D01*
X151520476Y-210636976D01*
X151472857Y-210827452D01*
X151472857Y-210970309D01*
X151520476Y-211160785D01*
X151568095Y-211256023D01*
X151663333Y-211351261D01*
X151806190Y-211398880D01*
X152044285Y-211398880D01*
X151091904Y-210494119D02*
X151044285Y-210446500D01*
X150949047Y-210398880D01*
X150710952Y-210398880D01*
X150615714Y-210446500D01*
X150568095Y-210494119D01*
X150520476Y-210589357D01*
X150520476Y-210684595D01*
X150568095Y-210827452D01*
X151139523Y-211398880D01*
X150520476Y-211398880D01*
X150187142Y-210398880D02*
X149568095Y-210398880D01*
X149901428Y-210779833D01*
X149758571Y-210779833D01*
X149663333Y-210827452D01*
X149615714Y-210875071D01*
X149568095Y-210970309D01*
X149568095Y-211208404D01*
X149615714Y-211303642D01*
X149663333Y-211351261D01*
X149758571Y-211398880D01*
X150044285Y-211398880D01*
X150139523Y-211351261D01*
X150187142Y-211303642D01*
X120721130Y-206748214D02*
X119721130Y-206748214D01*
X119721130Y-206986309D01*
X119768750Y-207129166D01*
X119863988Y-207224404D01*
X119959226Y-207272023D01*
X120149702Y-207319642D01*
X120292559Y-207319642D01*
X120483035Y-207272023D01*
X120578273Y-207224404D01*
X120673511Y-207129166D01*
X120721130Y-206986309D01*
X120721130Y-206748214D01*
X119816369Y-207700595D02*
X119768750Y-207748214D01*
X119721130Y-207843452D01*
X119721130Y-208081547D01*
X119768750Y-208176785D01*
X119816369Y-208224404D01*
X119911607Y-208272023D01*
X120006845Y-208272023D01*
X120149702Y-208224404D01*
X120721130Y-207652976D01*
X120721130Y-208272023D01*
X119816369Y-208652976D02*
X119768750Y-208700595D01*
X119721130Y-208795833D01*
X119721130Y-209033928D01*
X119768750Y-209129166D01*
X119816369Y-209176785D01*
X119911607Y-209224404D01*
X120006845Y-209224404D01*
X120149702Y-209176785D01*
X120721130Y-208605357D01*
X120721130Y-209224404D01*
X136149785Y-207374130D02*
X136149785Y-206374130D01*
X135911690Y-206374130D01*
X135768833Y-206421750D01*
X135673595Y-206516988D01*
X135625976Y-206612226D01*
X135578357Y-206802702D01*
X135578357Y-206945559D01*
X135625976Y-207136035D01*
X135673595Y-207231273D01*
X135768833Y-207326511D01*
X135911690Y-207374130D01*
X136149785Y-207374130D01*
X135197404Y-206469369D02*
X135149785Y-206421750D01*
X135054547Y-206374130D01*
X134816452Y-206374130D01*
X134721214Y-206421750D01*
X134673595Y-206469369D01*
X134625976Y-206564607D01*
X134625976Y-206659845D01*
X134673595Y-206802702D01*
X135245023Y-207374130D01*
X134625976Y-207374130D01*
X133673595Y-207374130D02*
X134245023Y-207374130D01*
X133959309Y-207374130D02*
X133959309Y-206374130D01*
X134054547Y-206516988D01*
X134149785Y-206612226D01*
X134245023Y-206659845D01*
X143730785Y-207418880D02*
X143730785Y-206418880D01*
X143492690Y-206418880D01*
X143349833Y-206466500D01*
X143254595Y-206561738D01*
X143206976Y-206656976D01*
X143159357Y-206847452D01*
X143159357Y-206990309D01*
X143206976Y-207180785D01*
X143254595Y-207276023D01*
X143349833Y-207371261D01*
X143492690Y-207418880D01*
X143730785Y-207418880D01*
X142778404Y-206514119D02*
X142730785Y-206466500D01*
X142635547Y-206418880D01*
X142397452Y-206418880D01*
X142302214Y-206466500D01*
X142254595Y-206514119D01*
X142206976Y-206609357D01*
X142206976Y-206704595D01*
X142254595Y-206847452D01*
X142826023Y-207418880D01*
X142206976Y-207418880D01*
X141587928Y-206418880D02*
X141492690Y-206418880D01*
X141397452Y-206466500D01*
X141349833Y-206514119D01*
X141302214Y-206609357D01*
X141254595Y-206799833D01*
X141254595Y-207037928D01*
X141302214Y-207228404D01*
X141349833Y-207323642D01*
X141397452Y-207371261D01*
X141492690Y-207418880D01*
X141587928Y-207418880D01*
X141683166Y-207371261D01*
X141730785Y-207323642D01*
X141778404Y-207228404D01*
X141826023Y-207037928D01*
X141826023Y-206799833D01*
X141778404Y-206609357D01*
X141730785Y-206514119D01*
X141683166Y-206466500D01*
X141587928Y-206418880D01*
X99289880Y-206748214D02*
X98289880Y-206748214D01*
X98289880Y-206986309D01*
X98337500Y-207129166D01*
X98432738Y-207224404D01*
X98527976Y-207272023D01*
X98718452Y-207319642D01*
X98861309Y-207319642D01*
X99051785Y-207272023D01*
X99147023Y-207224404D01*
X99242261Y-207129166D01*
X99289880Y-206986309D01*
X99289880Y-206748214D01*
X99289880Y-208272023D02*
X99289880Y-207700595D01*
X99289880Y-207986309D02*
X98289880Y-207986309D01*
X98432738Y-207891071D01*
X98527976Y-207795833D01*
X98575595Y-207700595D01*
X99289880Y-208748214D02*
X99289880Y-208938690D01*
X99242261Y-209033928D01*
X99194642Y-209081547D01*
X99051785Y-209176785D01*
X98861309Y-209224404D01*
X98480357Y-209224404D01*
X98385119Y-209176785D01*
X98337500Y-209129166D01*
X98289880Y-209033928D01*
X98289880Y-208843452D01*
X98337500Y-208748214D01*
X98385119Y-208700595D01*
X98480357Y-208652976D01*
X98718452Y-208652976D01*
X98813690Y-208700595D01*
X98861309Y-208748214D01*
X98908928Y-208843452D01*
X98908928Y-209033928D01*
X98861309Y-209129166D01*
X98813690Y-209176785D01*
X98718452Y-209224404D01*
X101671130Y-206748214D02*
X100671130Y-206748214D01*
X100671130Y-206986309D01*
X100718750Y-207129166D01*
X100813988Y-207224404D01*
X100909226Y-207272023D01*
X101099702Y-207319642D01*
X101242559Y-207319642D01*
X101433035Y-207272023D01*
X101528273Y-207224404D01*
X101623511Y-207129166D01*
X101671130Y-206986309D01*
X101671130Y-206748214D01*
X101671130Y-208272023D02*
X101671130Y-207700595D01*
X101671130Y-207986309D02*
X100671130Y-207986309D01*
X100813988Y-207891071D01*
X100909226Y-207795833D01*
X100956845Y-207700595D01*
X101099702Y-208843452D02*
X101052083Y-208748214D01*
X101004464Y-208700595D01*
X100909226Y-208652976D01*
X100861607Y-208652976D01*
X100766369Y-208700595D01*
X100718750Y-208748214D01*
X100671130Y-208843452D01*
X100671130Y-209033928D01*
X100718750Y-209129166D01*
X100766369Y-209176785D01*
X100861607Y-209224404D01*
X100909226Y-209224404D01*
X101004464Y-209176785D01*
X101052083Y-209129166D01*
X101099702Y-209033928D01*
X101099702Y-208843452D01*
X101147321Y-208748214D01*
X101194940Y-208700595D01*
X101290178Y-208652976D01*
X101480654Y-208652976D01*
X101575892Y-208700595D01*
X101623511Y-208748214D01*
X101671130Y-208843452D01*
X101671130Y-209033928D01*
X101623511Y-209129166D01*
X101575892Y-209176785D01*
X101480654Y-209224404D01*
X101290178Y-209224404D01*
X101194940Y-209176785D01*
X101147321Y-209129166D01*
X101099702Y-209033928D01*
X108814880Y-206748214D02*
X107814880Y-206748214D01*
X107814880Y-206986309D01*
X107862500Y-207129166D01*
X107957738Y-207224404D01*
X108052976Y-207272023D01*
X108243452Y-207319642D01*
X108386309Y-207319642D01*
X108576785Y-207272023D01*
X108672023Y-207224404D01*
X108767261Y-207129166D01*
X108814880Y-206986309D01*
X108814880Y-206748214D01*
X108814880Y-208272023D02*
X108814880Y-207700595D01*
X108814880Y-207986309D02*
X107814880Y-207986309D01*
X107957738Y-207891071D01*
X108052976Y-207795833D01*
X108100595Y-207700595D01*
X107814880Y-208605357D02*
X107814880Y-209272023D01*
X108814880Y-208843452D01*
X136149785Y-219280380D02*
X136149785Y-218280380D01*
X135911690Y-218280380D01*
X135768833Y-218328000D01*
X135673595Y-218423238D01*
X135625976Y-218518476D01*
X135578357Y-218708952D01*
X135578357Y-218851809D01*
X135625976Y-219042285D01*
X135673595Y-219137523D01*
X135768833Y-219232761D01*
X135911690Y-219280380D01*
X136149785Y-219280380D01*
X134625976Y-219280380D02*
X135197404Y-219280380D01*
X134911690Y-219280380D02*
X134911690Y-218280380D01*
X135006928Y-218423238D01*
X135102166Y-218518476D01*
X135197404Y-218566095D01*
X133768833Y-218280380D02*
X133959309Y-218280380D01*
X134054547Y-218328000D01*
X134102166Y-218375619D01*
X134197404Y-218518476D01*
X134245023Y-218708952D01*
X134245023Y-219089904D01*
X134197404Y-219185142D01*
X134149785Y-219232761D01*
X134054547Y-219280380D01*
X133864071Y-219280380D01*
X133768833Y-219232761D01*
X133721214Y-219185142D01*
X133673595Y-219089904D01*
X133673595Y-218851809D01*
X133721214Y-218756571D01*
X133768833Y-218708952D01*
X133864071Y-218661333D01*
X134054547Y-218661333D01*
X134149785Y-218708952D01*
X134197404Y-218756571D01*
X134245023Y-218851809D01*
X143730785Y-219325130D02*
X143730785Y-218325130D01*
X143492690Y-218325130D01*
X143349833Y-218372750D01*
X143254595Y-218467988D01*
X143206976Y-218563226D01*
X143159357Y-218753702D01*
X143159357Y-218896559D01*
X143206976Y-219087035D01*
X143254595Y-219182273D01*
X143349833Y-219277511D01*
X143492690Y-219325130D01*
X143730785Y-219325130D01*
X142206976Y-219325130D02*
X142778404Y-219325130D01*
X142492690Y-219325130D02*
X142492690Y-218325130D01*
X142587928Y-218467988D01*
X142683166Y-218563226D01*
X142778404Y-218610845D01*
X141302214Y-218325130D02*
X141778404Y-218325130D01*
X141826023Y-218801321D01*
X141778404Y-218753702D01*
X141683166Y-218706083D01*
X141445071Y-218706083D01*
X141349833Y-218753702D01*
X141302214Y-218801321D01*
X141254595Y-218896559D01*
X141254595Y-219134654D01*
X141302214Y-219229892D01*
X141349833Y-219277511D01*
X141445071Y-219325130D01*
X141683166Y-219325130D01*
X141778404Y-219277511D01*
X141826023Y-219229892D01*
X104052380Y-206748214D02*
X103052380Y-206748214D01*
X103052380Y-206986309D01*
X103100000Y-207129166D01*
X103195238Y-207224404D01*
X103290476Y-207272023D01*
X103480952Y-207319642D01*
X103623809Y-207319642D01*
X103814285Y-207272023D01*
X103909523Y-207224404D01*
X104004761Y-207129166D01*
X104052380Y-206986309D01*
X104052380Y-206748214D01*
X104052380Y-208272023D02*
X104052380Y-207700595D01*
X104052380Y-207986309D02*
X103052380Y-207986309D01*
X103195238Y-207891071D01*
X103290476Y-207795833D01*
X103338095Y-207700595D01*
X103385714Y-209129166D02*
X104052380Y-209129166D01*
X103004761Y-208891071D02*
X103719047Y-208652976D01*
X103719047Y-209272023D01*
X106433630Y-206748214D02*
X105433630Y-206748214D01*
X105433630Y-206986309D01*
X105481250Y-207129166D01*
X105576488Y-207224404D01*
X105671726Y-207272023D01*
X105862202Y-207319642D01*
X106005059Y-207319642D01*
X106195535Y-207272023D01*
X106290773Y-207224404D01*
X106386011Y-207129166D01*
X106433630Y-206986309D01*
X106433630Y-206748214D01*
X106433630Y-208272023D02*
X106433630Y-207700595D01*
X106433630Y-207986309D02*
X105433630Y-207986309D01*
X105576488Y-207891071D01*
X105671726Y-207795833D01*
X105719345Y-207700595D01*
X105433630Y-208605357D02*
X105433630Y-209224404D01*
X105814583Y-208891071D01*
X105814583Y-209033928D01*
X105862202Y-209129166D01*
X105909821Y-209176785D01*
X106005059Y-209224404D01*
X106243154Y-209224404D01*
X106338392Y-209176785D01*
X106386011Y-209129166D01*
X106433630Y-209033928D01*
X106433630Y-208748214D01*
X106386011Y-208652976D01*
X106338392Y-208605357D01*
X118339880Y-206748214D02*
X117339880Y-206748214D01*
X117339880Y-206986309D01*
X117387500Y-207129166D01*
X117482738Y-207224404D01*
X117577976Y-207272023D01*
X117768452Y-207319642D01*
X117911309Y-207319642D01*
X118101785Y-207272023D01*
X118197023Y-207224404D01*
X118292261Y-207129166D01*
X118339880Y-206986309D01*
X118339880Y-206748214D01*
X118339880Y-208272023D02*
X118339880Y-207700595D01*
X118339880Y-207986309D02*
X117339880Y-207986309D01*
X117482738Y-207891071D01*
X117577976Y-207795833D01*
X117625595Y-207700595D01*
X117435119Y-208652976D02*
X117387500Y-208700595D01*
X117339880Y-208795833D01*
X117339880Y-209033928D01*
X117387500Y-209129166D01*
X117435119Y-209176785D01*
X117530357Y-209224404D01*
X117625595Y-209224404D01*
X117768452Y-209176785D01*
X118339880Y-208605357D01*
X118339880Y-209224404D01*
X115958630Y-206748214D02*
X114958630Y-206748214D01*
X114958630Y-206986309D01*
X115006250Y-207129166D01*
X115101488Y-207224404D01*
X115196726Y-207272023D01*
X115387202Y-207319642D01*
X115530059Y-207319642D01*
X115720535Y-207272023D01*
X115815773Y-207224404D01*
X115911011Y-207129166D01*
X115958630Y-206986309D01*
X115958630Y-206748214D01*
X115958630Y-208272023D02*
X115958630Y-207700595D01*
X115958630Y-207986309D02*
X114958630Y-207986309D01*
X115101488Y-207891071D01*
X115196726Y-207795833D01*
X115244345Y-207700595D01*
X115958630Y-209224404D02*
X115958630Y-208652976D01*
X115958630Y-208938690D02*
X114958630Y-208938690D01*
X115101488Y-208843452D01*
X115196726Y-208748214D01*
X115244345Y-208652976D01*
X113577380Y-206748214D02*
X112577380Y-206748214D01*
X112577380Y-206986309D01*
X112625000Y-207129166D01*
X112720238Y-207224404D01*
X112815476Y-207272023D01*
X113005952Y-207319642D01*
X113148809Y-207319642D01*
X113339285Y-207272023D01*
X113434523Y-207224404D01*
X113529761Y-207129166D01*
X113577380Y-206986309D01*
X113577380Y-206748214D01*
X113577380Y-208272023D02*
X113577380Y-207700595D01*
X113577380Y-207986309D02*
X112577380Y-207986309D01*
X112720238Y-207891071D01*
X112815476Y-207795833D01*
X112863095Y-207700595D01*
X112577380Y-208891071D02*
X112577380Y-208986309D01*
X112625000Y-209081547D01*
X112672619Y-209129166D01*
X112767857Y-209176785D01*
X112958333Y-209224404D01*
X113196428Y-209224404D01*
X113386904Y-209176785D01*
X113482142Y-209129166D01*
X113529761Y-209081547D01*
X113577380Y-208986309D01*
X113577380Y-208891071D01*
X113529761Y-208795833D01*
X113482142Y-208748214D01*
X113386904Y-208700595D01*
X113196428Y-208652976D01*
X112958333Y-208652976D01*
X112767857Y-208700595D01*
X112672619Y-208748214D01*
X112625000Y-208795833D01*
X112577380Y-208891071D01*
X111196130Y-207224404D02*
X110196130Y-207224404D01*
X110196130Y-207462500D01*
X110243750Y-207605357D01*
X110338988Y-207700595D01*
X110434226Y-207748214D01*
X110624702Y-207795833D01*
X110767559Y-207795833D01*
X110958035Y-207748214D01*
X111053273Y-207700595D01*
X111148511Y-207605357D01*
X111196130Y-207462500D01*
X111196130Y-207224404D01*
X111196130Y-208272023D02*
X111196130Y-208462500D01*
X111148511Y-208557738D01*
X111100892Y-208605357D01*
X110958035Y-208700595D01*
X110767559Y-208748214D01*
X110386607Y-208748214D01*
X110291369Y-208700595D01*
X110243750Y-208652976D01*
X110196130Y-208557738D01*
X110196130Y-208367261D01*
X110243750Y-208272023D01*
X110291369Y-208224404D01*
X110386607Y-208176785D01*
X110624702Y-208176785D01*
X110719940Y-208224404D01*
X110767559Y-208272023D01*
X110815178Y-208367261D01*
X110815178Y-208557738D01*
X110767559Y-208652976D01*
X110719940Y-208700595D01*
X110624702Y-208748214D01*
X135673595Y-209755380D02*
X135673595Y-208755380D01*
X135435500Y-208755380D01*
X135292642Y-208803000D01*
X135197404Y-208898238D01*
X135149785Y-208993476D01*
X135102166Y-209183952D01*
X135102166Y-209326809D01*
X135149785Y-209517285D01*
X135197404Y-209612523D01*
X135292642Y-209707761D01*
X135435500Y-209755380D01*
X135673595Y-209755380D01*
X134530738Y-209183952D02*
X134625976Y-209136333D01*
X134673595Y-209088714D01*
X134721214Y-208993476D01*
X134721214Y-208945857D01*
X134673595Y-208850619D01*
X134625976Y-208803000D01*
X134530738Y-208755380D01*
X134340261Y-208755380D01*
X134245023Y-208803000D01*
X134197404Y-208850619D01*
X134149785Y-208945857D01*
X134149785Y-208993476D01*
X134197404Y-209088714D01*
X134245023Y-209136333D01*
X134340261Y-209183952D01*
X134530738Y-209183952D01*
X134625976Y-209231571D01*
X134673595Y-209279190D01*
X134721214Y-209374428D01*
X134721214Y-209564904D01*
X134673595Y-209660142D01*
X134625976Y-209707761D01*
X134530738Y-209755380D01*
X134340261Y-209755380D01*
X134245023Y-209707761D01*
X134197404Y-209660142D01*
X134149785Y-209564904D01*
X134149785Y-209374428D01*
X134197404Y-209279190D01*
X134245023Y-209231571D01*
X134340261Y-209183952D01*
X135673595Y-212136630D02*
X135673595Y-211136630D01*
X135435500Y-211136630D01*
X135292642Y-211184250D01*
X135197404Y-211279488D01*
X135149785Y-211374726D01*
X135102166Y-211565202D01*
X135102166Y-211708059D01*
X135149785Y-211898535D01*
X135197404Y-211993773D01*
X135292642Y-212089011D01*
X135435500Y-212136630D01*
X135673595Y-212136630D01*
X134768833Y-211136630D02*
X134102166Y-211136630D01*
X134530738Y-212136630D01*
X135673595Y-214517880D02*
X135673595Y-213517880D01*
X135435500Y-213517880D01*
X135292642Y-213565500D01*
X135197404Y-213660738D01*
X135149785Y-213755976D01*
X135102166Y-213946452D01*
X135102166Y-214089309D01*
X135149785Y-214279785D01*
X135197404Y-214375023D01*
X135292642Y-214470261D01*
X135435500Y-214517880D01*
X135673595Y-214517880D01*
X134245023Y-213517880D02*
X134435500Y-213517880D01*
X134530738Y-213565500D01*
X134578357Y-213613119D01*
X134673595Y-213755976D01*
X134721214Y-213946452D01*
X134721214Y-214327404D01*
X134673595Y-214422642D01*
X134625976Y-214470261D01*
X134530738Y-214517880D01*
X134340261Y-214517880D01*
X134245023Y-214470261D01*
X134197404Y-214422642D01*
X134149785Y-214327404D01*
X134149785Y-214089309D01*
X134197404Y-213994071D01*
X134245023Y-213946452D01*
X134340261Y-213898833D01*
X134530738Y-213898833D01*
X134625976Y-213946452D01*
X134673595Y-213994071D01*
X134721214Y-214089309D01*
X135673595Y-216899130D02*
X135673595Y-215899130D01*
X135435500Y-215899130D01*
X135292642Y-215946750D01*
X135197404Y-216041988D01*
X135149785Y-216137226D01*
X135102166Y-216327702D01*
X135102166Y-216470559D01*
X135149785Y-216661035D01*
X135197404Y-216756273D01*
X135292642Y-216851511D01*
X135435500Y-216899130D01*
X135673595Y-216899130D01*
X134197404Y-215899130D02*
X134673595Y-215899130D01*
X134721214Y-216375321D01*
X134673595Y-216327702D01*
X134578357Y-216280083D01*
X134340261Y-216280083D01*
X134245023Y-216327702D01*
X134197404Y-216375321D01*
X134149785Y-216470559D01*
X134149785Y-216708654D01*
X134197404Y-216803892D01*
X134245023Y-216851511D01*
X134340261Y-216899130D01*
X134578357Y-216899130D01*
X134673595Y-216851511D01*
X134721214Y-216803892D01*
X143254595Y-209800130D02*
X143254595Y-208800130D01*
X143016500Y-208800130D01*
X142873642Y-208847750D01*
X142778404Y-208942988D01*
X142730785Y-209038226D01*
X142683166Y-209228702D01*
X142683166Y-209371559D01*
X142730785Y-209562035D01*
X142778404Y-209657273D01*
X142873642Y-209752511D01*
X143016500Y-209800130D01*
X143254595Y-209800130D01*
X141826023Y-209133464D02*
X141826023Y-209800130D01*
X142064119Y-208752511D02*
X142302214Y-209466797D01*
X141683166Y-209466797D01*
X143254595Y-212181380D02*
X143254595Y-211181380D01*
X143016500Y-211181380D01*
X142873642Y-211229000D01*
X142778404Y-211324238D01*
X142730785Y-211419476D01*
X142683166Y-211609952D01*
X142683166Y-211752809D01*
X142730785Y-211943285D01*
X142778404Y-212038523D01*
X142873642Y-212133761D01*
X143016500Y-212181380D01*
X143254595Y-212181380D01*
X142349833Y-211181380D02*
X141730785Y-211181380D01*
X142064119Y-211562333D01*
X141921261Y-211562333D01*
X141826023Y-211609952D01*
X141778404Y-211657571D01*
X141730785Y-211752809D01*
X141730785Y-211990904D01*
X141778404Y-212086142D01*
X141826023Y-212133761D01*
X141921261Y-212181380D01*
X142206976Y-212181380D01*
X142302214Y-212133761D01*
X142349833Y-212086142D01*
X143254595Y-214562630D02*
X143254595Y-213562630D01*
X143016500Y-213562630D01*
X142873642Y-213610250D01*
X142778404Y-213705488D01*
X142730785Y-213800726D01*
X142683166Y-213991202D01*
X142683166Y-214134059D01*
X142730785Y-214324535D01*
X142778404Y-214419773D01*
X142873642Y-214515011D01*
X143016500Y-214562630D01*
X143254595Y-214562630D01*
X142302214Y-213657869D02*
X142254595Y-213610250D01*
X142159357Y-213562630D01*
X141921261Y-213562630D01*
X141826023Y-213610250D01*
X141778404Y-213657869D01*
X141730785Y-213753107D01*
X141730785Y-213848345D01*
X141778404Y-213991202D01*
X142349833Y-214562630D01*
X141730785Y-214562630D01*
X143254595Y-216943880D02*
X143254595Y-215943880D01*
X143016500Y-215943880D01*
X142873642Y-215991500D01*
X142778404Y-216086738D01*
X142730785Y-216181976D01*
X142683166Y-216372452D01*
X142683166Y-216515309D01*
X142730785Y-216705785D01*
X142778404Y-216801023D01*
X142873642Y-216896261D01*
X143016500Y-216943880D01*
X143254595Y-216943880D01*
X141730785Y-216943880D02*
X142302214Y-216943880D01*
X142016500Y-216943880D02*
X142016500Y-215943880D01*
X142111738Y-216086738D01*
X142206976Y-216181976D01*
X142302214Y-216229595D01*
M02*
