G04 #@! TF.GenerationSoftware,KiCad,Pcbnew,(5.1.4)-1*
G04 #@! TF.CreationDate,2022-12-17T19:56:19-05:00*
G04 #@! TF.ProjectId,ThumbsUp,5468756d-6273-4557-902e-6b696361645f,rev?*
G04 #@! TF.SameCoordinates,Original*
G04 #@! TF.FileFunction,Copper,L2,Bot*
G04 #@! TF.FilePolarity,Positive*
%FSLAX46Y46*%
G04 Gerber Fmt 4.6, Leading zero omitted, Abs format (unit mm)*
G04 Created by KiCad (PCBNEW (5.1.4)-1) date 2022-12-17 19:56:19*
%MOMM*%
%LPD*%
G04 APERTURE LIST*
%ADD10O,1.700000X1.700000*%
%ADD11R,1.700000X1.700000*%
%ADD12C,1.500000*%
%ADD13C,1.200000*%
%ADD14C,1.300000*%
%ADD15C,1.600000*%
%ADD16R,1.600000X1.600000*%
%ADD17C,0.100000*%
%ADD18C,0.975000*%
%ADD19R,1.800000X1.100000*%
%ADD20C,1.700000*%
%ADD21C,1.700000*%
%ADD22C,2.600000*%
%ADD23C,2.032000*%
%ADD24R,1.200000X0.900000*%
%ADD25R,0.900000X1.200000*%
%ADD26C,0.800000*%
%ADD27C,0.508000*%
%ADD28C,0.250000*%
%ADD29C,0.254000*%
G04 APERTURE END LIST*
D10*
X145810000Y-204880000D03*
D11*
X148350000Y-204880000D03*
D12*
X121690000Y-227750000D03*
X129690000Y-227750000D03*
D13*
X123690000Y-227750000D03*
D14*
X125690000Y-227750000D03*
X127690000Y-227750000D03*
D15*
X154432000Y-172212000D03*
X154432000Y-174752000D03*
X154432000Y-177292000D03*
X154432000Y-179832000D03*
X154432000Y-182372000D03*
X154432000Y-184912000D03*
X154432000Y-187452000D03*
X154432000Y-189992000D03*
X154432000Y-192532000D03*
X154432000Y-195072000D03*
X154432000Y-197612000D03*
X154432000Y-200152000D03*
X139192000Y-200152000D03*
X139192000Y-197612000D03*
X139192000Y-195072000D03*
X139192000Y-192532000D03*
X139192000Y-189992000D03*
X139192000Y-187452000D03*
X139192000Y-184912000D03*
X139192000Y-182372000D03*
X139192000Y-179832000D03*
X139192000Y-177292000D03*
X139192000Y-174752000D03*
D16*
X139192000Y-172212000D03*
D17*
G36*
X175370642Y-224853174D02*
G01*
X175394303Y-224856684D01*
X175417507Y-224862496D01*
X175440029Y-224870554D01*
X175461653Y-224880782D01*
X175482170Y-224893079D01*
X175501383Y-224907329D01*
X175519107Y-224923393D01*
X175535171Y-224941117D01*
X175549421Y-224960330D01*
X175561718Y-224980847D01*
X175571946Y-225002471D01*
X175580004Y-225024993D01*
X175585816Y-225048197D01*
X175589326Y-225071858D01*
X175590500Y-225095750D01*
X175590500Y-226008250D01*
X175589326Y-226032142D01*
X175585816Y-226055803D01*
X175580004Y-226079007D01*
X175571946Y-226101529D01*
X175561718Y-226123153D01*
X175549421Y-226143670D01*
X175535171Y-226162883D01*
X175519107Y-226180607D01*
X175501383Y-226196671D01*
X175482170Y-226210921D01*
X175461653Y-226223218D01*
X175440029Y-226233446D01*
X175417507Y-226241504D01*
X175394303Y-226247316D01*
X175370642Y-226250826D01*
X175346750Y-226252000D01*
X174859250Y-226252000D01*
X174835358Y-226250826D01*
X174811697Y-226247316D01*
X174788493Y-226241504D01*
X174765971Y-226233446D01*
X174744347Y-226223218D01*
X174723830Y-226210921D01*
X174704617Y-226196671D01*
X174686893Y-226180607D01*
X174670829Y-226162883D01*
X174656579Y-226143670D01*
X174644282Y-226123153D01*
X174634054Y-226101529D01*
X174625996Y-226079007D01*
X174620184Y-226055803D01*
X174616674Y-226032142D01*
X174615500Y-226008250D01*
X174615500Y-225095750D01*
X174616674Y-225071858D01*
X174620184Y-225048197D01*
X174625996Y-225024993D01*
X174634054Y-225002471D01*
X174644282Y-224980847D01*
X174656579Y-224960330D01*
X174670829Y-224941117D01*
X174686893Y-224923393D01*
X174704617Y-224907329D01*
X174723830Y-224893079D01*
X174744347Y-224880782D01*
X174765971Y-224870554D01*
X174788493Y-224862496D01*
X174811697Y-224856684D01*
X174835358Y-224853174D01*
X174859250Y-224852000D01*
X175346750Y-224852000D01*
X175370642Y-224853174D01*
X175370642Y-224853174D01*
G37*
D18*
X175103000Y-225552000D03*
D17*
G36*
X173495642Y-224853174D02*
G01*
X173519303Y-224856684D01*
X173542507Y-224862496D01*
X173565029Y-224870554D01*
X173586653Y-224880782D01*
X173607170Y-224893079D01*
X173626383Y-224907329D01*
X173644107Y-224923393D01*
X173660171Y-224941117D01*
X173674421Y-224960330D01*
X173686718Y-224980847D01*
X173696946Y-225002471D01*
X173705004Y-225024993D01*
X173710816Y-225048197D01*
X173714326Y-225071858D01*
X173715500Y-225095750D01*
X173715500Y-226008250D01*
X173714326Y-226032142D01*
X173710816Y-226055803D01*
X173705004Y-226079007D01*
X173696946Y-226101529D01*
X173686718Y-226123153D01*
X173674421Y-226143670D01*
X173660171Y-226162883D01*
X173644107Y-226180607D01*
X173626383Y-226196671D01*
X173607170Y-226210921D01*
X173586653Y-226223218D01*
X173565029Y-226233446D01*
X173542507Y-226241504D01*
X173519303Y-226247316D01*
X173495642Y-226250826D01*
X173471750Y-226252000D01*
X172984250Y-226252000D01*
X172960358Y-226250826D01*
X172936697Y-226247316D01*
X172913493Y-226241504D01*
X172890971Y-226233446D01*
X172869347Y-226223218D01*
X172848830Y-226210921D01*
X172829617Y-226196671D01*
X172811893Y-226180607D01*
X172795829Y-226162883D01*
X172781579Y-226143670D01*
X172769282Y-226123153D01*
X172759054Y-226101529D01*
X172750996Y-226079007D01*
X172745184Y-226055803D01*
X172741674Y-226032142D01*
X172740500Y-226008250D01*
X172740500Y-225095750D01*
X172741674Y-225071858D01*
X172745184Y-225048197D01*
X172750996Y-225024993D01*
X172759054Y-225002471D01*
X172769282Y-224980847D01*
X172781579Y-224960330D01*
X172795829Y-224941117D01*
X172811893Y-224923393D01*
X172829617Y-224907329D01*
X172848830Y-224893079D01*
X172869347Y-224880782D01*
X172890971Y-224870554D01*
X172913493Y-224862496D01*
X172936697Y-224856684D01*
X172960358Y-224853174D01*
X172984250Y-224852000D01*
X173471750Y-224852000D01*
X173495642Y-224853174D01*
X173495642Y-224853174D01*
G37*
D18*
X173228000Y-225552000D03*
D17*
G36*
X173495642Y-226885174D02*
G01*
X173519303Y-226888684D01*
X173542507Y-226894496D01*
X173565029Y-226902554D01*
X173586653Y-226912782D01*
X173607170Y-226925079D01*
X173626383Y-226939329D01*
X173644107Y-226955393D01*
X173660171Y-226973117D01*
X173674421Y-226992330D01*
X173686718Y-227012847D01*
X173696946Y-227034471D01*
X173705004Y-227056993D01*
X173710816Y-227080197D01*
X173714326Y-227103858D01*
X173715500Y-227127750D01*
X173715500Y-228040250D01*
X173714326Y-228064142D01*
X173710816Y-228087803D01*
X173705004Y-228111007D01*
X173696946Y-228133529D01*
X173686718Y-228155153D01*
X173674421Y-228175670D01*
X173660171Y-228194883D01*
X173644107Y-228212607D01*
X173626383Y-228228671D01*
X173607170Y-228242921D01*
X173586653Y-228255218D01*
X173565029Y-228265446D01*
X173542507Y-228273504D01*
X173519303Y-228279316D01*
X173495642Y-228282826D01*
X173471750Y-228284000D01*
X172984250Y-228284000D01*
X172960358Y-228282826D01*
X172936697Y-228279316D01*
X172913493Y-228273504D01*
X172890971Y-228265446D01*
X172869347Y-228255218D01*
X172848830Y-228242921D01*
X172829617Y-228228671D01*
X172811893Y-228212607D01*
X172795829Y-228194883D01*
X172781579Y-228175670D01*
X172769282Y-228155153D01*
X172759054Y-228133529D01*
X172750996Y-228111007D01*
X172745184Y-228087803D01*
X172741674Y-228064142D01*
X172740500Y-228040250D01*
X172740500Y-227127750D01*
X172741674Y-227103858D01*
X172745184Y-227080197D01*
X172750996Y-227056993D01*
X172759054Y-227034471D01*
X172769282Y-227012847D01*
X172781579Y-226992330D01*
X172795829Y-226973117D01*
X172811893Y-226955393D01*
X172829617Y-226939329D01*
X172848830Y-226925079D01*
X172869347Y-226912782D01*
X172890971Y-226902554D01*
X172913493Y-226894496D01*
X172936697Y-226888684D01*
X172960358Y-226885174D01*
X172984250Y-226884000D01*
X173471750Y-226884000D01*
X173495642Y-226885174D01*
X173495642Y-226885174D01*
G37*
D18*
X173228000Y-227584000D03*
D17*
G36*
X175370642Y-226885174D02*
G01*
X175394303Y-226888684D01*
X175417507Y-226894496D01*
X175440029Y-226902554D01*
X175461653Y-226912782D01*
X175482170Y-226925079D01*
X175501383Y-226939329D01*
X175519107Y-226955393D01*
X175535171Y-226973117D01*
X175549421Y-226992330D01*
X175561718Y-227012847D01*
X175571946Y-227034471D01*
X175580004Y-227056993D01*
X175585816Y-227080197D01*
X175589326Y-227103858D01*
X175590500Y-227127750D01*
X175590500Y-228040250D01*
X175589326Y-228064142D01*
X175585816Y-228087803D01*
X175580004Y-228111007D01*
X175571946Y-228133529D01*
X175561718Y-228155153D01*
X175549421Y-228175670D01*
X175535171Y-228194883D01*
X175519107Y-228212607D01*
X175501383Y-228228671D01*
X175482170Y-228242921D01*
X175461653Y-228255218D01*
X175440029Y-228265446D01*
X175417507Y-228273504D01*
X175394303Y-228279316D01*
X175370642Y-228282826D01*
X175346750Y-228284000D01*
X174859250Y-228284000D01*
X174835358Y-228282826D01*
X174811697Y-228279316D01*
X174788493Y-228273504D01*
X174765971Y-228265446D01*
X174744347Y-228255218D01*
X174723830Y-228242921D01*
X174704617Y-228228671D01*
X174686893Y-228212607D01*
X174670829Y-228194883D01*
X174656579Y-228175670D01*
X174644282Y-228155153D01*
X174634054Y-228133529D01*
X174625996Y-228111007D01*
X174620184Y-228087803D01*
X174616674Y-228064142D01*
X174615500Y-228040250D01*
X174615500Y-227127750D01*
X174616674Y-227103858D01*
X174620184Y-227080197D01*
X174625996Y-227056993D01*
X174634054Y-227034471D01*
X174644282Y-227012847D01*
X174656579Y-226992330D01*
X174670829Y-226973117D01*
X174686893Y-226955393D01*
X174704617Y-226939329D01*
X174723830Y-226925079D01*
X174744347Y-226912782D01*
X174765971Y-226902554D01*
X174788493Y-226894496D01*
X174811697Y-226888684D01*
X174835358Y-226885174D01*
X174859250Y-226884000D01*
X175346750Y-226884000D01*
X175370642Y-226885174D01*
X175370642Y-226885174D01*
G37*
D18*
X175103000Y-227584000D03*
D19*
X157682000Y-224972000D03*
X163882000Y-228672000D03*
X157682000Y-228672000D03*
X163882000Y-224972000D03*
D20*
X194165141Y-177645498D03*
D21*
X194165141Y-177645498D02*
X194165141Y-177645498D01*
D20*
X191810094Y-178596999D03*
D21*
X191810094Y-178596999D02*
X191810094Y-178596999D01*
D20*
X189455047Y-179548499D03*
D21*
X189455047Y-179548499D02*
X189455047Y-179548499D01*
D20*
X187100000Y-180500000D03*
D17*
G36*
X188206522Y-180969691D02*
G01*
X186630309Y-181606522D01*
X185993478Y-180030309D01*
X187569691Y-179393478D01*
X188206522Y-180969691D01*
X188206522Y-180969691D01*
G37*
D20*
X241528381Y-182311090D03*
D17*
G36*
X241058690Y-183417612D02*
G01*
X240421859Y-181841399D01*
X241998072Y-181204568D01*
X242634903Y-182780781D01*
X241058690Y-183417612D01*
X241058690Y-183417612D01*
G37*
D20*
X242479882Y-184666137D03*
D21*
X242479882Y-184666137D02*
X242479882Y-184666137D01*
D20*
X243431382Y-187021184D03*
D21*
X243431382Y-187021184D02*
X243431382Y-187021184D01*
D20*
X244382883Y-189376231D03*
D21*
X244382883Y-189376231D02*
X244382883Y-189376231D01*
D20*
X172994345Y-146690649D03*
D17*
G36*
X174100867Y-147160340D02*
G01*
X172524654Y-147797171D01*
X171887823Y-146220958D01*
X173464036Y-145584127D01*
X174100867Y-147160340D01*
X174100867Y-147160340D01*
G37*
D20*
X175349392Y-145739148D03*
D21*
X175349392Y-145739148D02*
X175349392Y-145739148D01*
D20*
X177704439Y-144787648D03*
D21*
X177704439Y-144787648D02*
X177704439Y-144787648D01*
D20*
X180059486Y-143836147D03*
D21*
X180059486Y-143836147D02*
X180059486Y-143836147D01*
D20*
X180600000Y-164000000D03*
D17*
G36*
X181706522Y-164469691D02*
G01*
X180130309Y-165106522D01*
X179493478Y-163530309D01*
X181069691Y-162893478D01*
X181706522Y-164469691D01*
X181706522Y-164469691D01*
G37*
D20*
X182955047Y-163048499D03*
D21*
X182955047Y-163048499D02*
X182955047Y-163048499D01*
D20*
X185310094Y-162096999D03*
D21*
X185310094Y-162096999D02*
X185310094Y-162096999D01*
D20*
X187665141Y-161145498D03*
D21*
X187665141Y-161145498D02*
X187665141Y-161145498D01*
D20*
X182393643Y-228262834D03*
D21*
X182393643Y-228262834D02*
X182393643Y-228262834D01*
D20*
X180865033Y-226234299D03*
D21*
X180865033Y-226234299D02*
X180865033Y-226234299D01*
D20*
X179336423Y-224205765D03*
D21*
X179336423Y-224205765D02*
X179336423Y-224205765D01*
D20*
X177807813Y-222177231D03*
D17*
G36*
X177640516Y-223367614D02*
G01*
X176617430Y-222009934D01*
X177975110Y-220986848D01*
X178998196Y-222344528D01*
X177640516Y-223367614D01*
X177640516Y-223367614D01*
G37*
D22*
X238186938Y-189323428D03*
D17*
G36*
X238905288Y-187631100D02*
G01*
X239879266Y-190041778D01*
X237468588Y-191015756D01*
X236494610Y-188605078D01*
X238905288Y-187631100D01*
X238905288Y-187631100D01*
G37*
D23*
X236133916Y-179637189D03*
X230711323Y-179563136D03*
D22*
X226653830Y-191610330D03*
D17*
G36*
X227372180Y-189918002D02*
G01*
X228346158Y-192328680D01*
X225935480Y-193302658D01*
X224961502Y-190891980D01*
X227372180Y-189918002D01*
X227372180Y-189918002D01*
G37*
D22*
X185712716Y-158215455D03*
D17*
G36*
X186431066Y-156523127D02*
G01*
X187405044Y-158933805D01*
X184994366Y-159907783D01*
X184020388Y-157497105D01*
X186431066Y-156523127D01*
X186431066Y-156523127D01*
G37*
D23*
X183659694Y-148529216D03*
X178237101Y-148455163D03*
D22*
X174179608Y-160502357D03*
D17*
G36*
X174897958Y-158810029D02*
G01*
X175871936Y-161220707D01*
X173461258Y-162194685D01*
X172487280Y-159784007D01*
X174897958Y-158810029D01*
X174897958Y-158810029D01*
G37*
D22*
X192268331Y-174441172D03*
D17*
G36*
X192986681Y-172748844D02*
G01*
X193960659Y-175159522D01*
X191549981Y-176133500D01*
X190576003Y-173722822D01*
X192986681Y-172748844D01*
X192986681Y-172748844D01*
G37*
D23*
X190215309Y-164754933D03*
X184792716Y-164680880D03*
D22*
X180735223Y-176728074D03*
D17*
G36*
X181453573Y-175035746D02*
G01*
X182427551Y-177446424D01*
X180016873Y-178420402D01*
X179042895Y-176009724D01*
X181453573Y-175035746D01*
X181453573Y-175035746D01*
G37*
D22*
X198823946Y-190666890D03*
D17*
G36*
X199542296Y-188974562D02*
G01*
X200516274Y-191385240D01*
X198105596Y-192359218D01*
X197131618Y-189948540D01*
X199542296Y-188974562D01*
X199542296Y-188974562D01*
G37*
D23*
X196770924Y-180980651D03*
X191348331Y-180906598D03*
D22*
X187290838Y-192953792D03*
D17*
G36*
X188009188Y-191261464D02*
G01*
X188983166Y-193672142D01*
X186572488Y-194646120D01*
X185598510Y-192235442D01*
X188009188Y-191261464D01*
X188009188Y-191261464D01*
G37*
D22*
X219161004Y-191617731D03*
D17*
G36*
X219879354Y-189925403D02*
G01*
X220853332Y-192336081D01*
X218442654Y-193310059D01*
X217468676Y-190899381D01*
X219879354Y-189925403D01*
X219879354Y-189925403D01*
G37*
D23*
X217107982Y-181931492D03*
X211685389Y-181857439D03*
D22*
X207627896Y-193904633D03*
D17*
G36*
X208346246Y-192212305D02*
G01*
X209320224Y-194622983D01*
X206909546Y-195596961D01*
X205935568Y-193186283D01*
X208346246Y-192212305D01*
X208346246Y-192212305D01*
G37*
D20*
X205515141Y-215597906D03*
D21*
X205515141Y-215597906D02*
X205515141Y-215597906D01*
D20*
X207543676Y-214069296D03*
D21*
X207543676Y-214069296D02*
X207543676Y-214069296D01*
D20*
X209572210Y-212540686D03*
D21*
X209572210Y-212540686D02*
X209572210Y-212540686D01*
D20*
X211600744Y-211012076D03*
D17*
G36*
X210410361Y-210844779D02*
G01*
X211768041Y-209821693D01*
X212791127Y-211179373D01*
X211433447Y-212202459D01*
X210410361Y-210844779D01*
X210410361Y-210844779D01*
G37*
D20*
X87992618Y-215751511D03*
D21*
X87992618Y-215751511D02*
X87992618Y-215751511D01*
D20*
X85964083Y-214222901D03*
D21*
X85964083Y-214222901D02*
X85964083Y-214222901D01*
D20*
X83935549Y-212694291D03*
D21*
X83935549Y-212694291D02*
X83935549Y-212694291D01*
D20*
X81907015Y-211165681D03*
D17*
G36*
X82074312Y-212356064D02*
G01*
X80716632Y-211332978D01*
X81739718Y-209975298D01*
X83097398Y-210998384D01*
X82074312Y-212356064D01*
X82074312Y-212356064D01*
G37*
D20*
X52395205Y-182503276D03*
D17*
G36*
X51288683Y-182972967D02*
G01*
X51925514Y-181396754D01*
X53501727Y-182033585D01*
X52864896Y-183609798D01*
X51288683Y-182972967D01*
X51288683Y-182972967D01*
G37*
D20*
X51443704Y-184858323D03*
D21*
X51443704Y-184858323D02*
X51443704Y-184858323D01*
D20*
X50492204Y-187213370D03*
D21*
X50492204Y-187213370D02*
X50492204Y-187213370D01*
D20*
X49540703Y-189568417D03*
D21*
X49540703Y-189568417D02*
X49540703Y-189568417D01*
D20*
X120197799Y-146824591D03*
D17*
G36*
X119728108Y-145718069D02*
G01*
X121304321Y-146354900D01*
X120667490Y-147931113D01*
X119091277Y-147294282D01*
X119728108Y-145718069D01*
X119728108Y-145718069D01*
G37*
D20*
X117842752Y-145873090D03*
D21*
X117842752Y-145873090D02*
X117842752Y-145873090D01*
D20*
X115487705Y-144921590D03*
D21*
X115487705Y-144921590D02*
X115487705Y-144921590D01*
D20*
X113132658Y-143970089D03*
D21*
X113132658Y-143970089D02*
X113132658Y-143970089D01*
D20*
X113658765Y-163138249D03*
D17*
G36*
X113189074Y-162031727D02*
G01*
X114765287Y-162668558D01*
X114128456Y-164244771D01*
X112552243Y-163607940D01*
X113189074Y-162031727D01*
X113189074Y-162031727D01*
G37*
D20*
X111303718Y-162186748D03*
D21*
X111303718Y-162186748D02*
X111303718Y-162186748D01*
D20*
X108948671Y-161235248D03*
D21*
X108948671Y-161235248D02*
X108948671Y-161235248D01*
D20*
X106593624Y-160283747D03*
D21*
X106593624Y-160283747D02*
X106593624Y-160283747D01*
D20*
X99778867Y-176283747D03*
D21*
X99778867Y-176283747D02*
X99778867Y-176283747D01*
D20*
X102133914Y-177235248D03*
D21*
X102133914Y-177235248D02*
X102133914Y-177235248D01*
D20*
X104488961Y-178186748D03*
D21*
X104488961Y-178186748D02*
X104488961Y-178186748D01*
D20*
X106844008Y-179138249D03*
D17*
G36*
X106374317Y-178031727D02*
G01*
X107950530Y-178668558D01*
X107313699Y-180244771D01*
X105737486Y-179607940D01*
X106374317Y-178031727D01*
X106374317Y-178031727D01*
G37*
D22*
X112197605Y-147205393D03*
D17*
G36*
X110505277Y-147923743D02*
G01*
X111479255Y-145513065D01*
X113889933Y-146487043D01*
X112915955Y-148897721D01*
X110505277Y-147923743D01*
X110505277Y-147923743D01*
G37*
D23*
X106945799Y-155599240D03*
X110795044Y-159419359D03*
D22*
X122082444Y-153571904D03*
D17*
G36*
X120390116Y-154290254D02*
G01*
X121364094Y-151879576D01*
X123774772Y-152853554D01*
X122800794Y-155264232D01*
X120390116Y-154290254D01*
X120390116Y-154290254D01*
G37*
D22*
X173991610Y-178589843D03*
D17*
G36*
X174709960Y-176897515D02*
G01*
X175683938Y-179308193D01*
X173273260Y-180282171D01*
X172299282Y-177871493D01*
X174709960Y-176897515D01*
X174709960Y-176897515D01*
G37*
D23*
X171938588Y-168903604D03*
X166515995Y-168829551D03*
D22*
X162458502Y-180876745D03*
D17*
G36*
X163176852Y-179184417D02*
G01*
X164150830Y-181595095D01*
X161740152Y-182569073D01*
X160766174Y-180158395D01*
X163176852Y-179184417D01*
X163176852Y-179184417D01*
G37*
D22*
X59723382Y-178313366D03*
D17*
G36*
X58031054Y-179031716D02*
G01*
X59005032Y-176621038D01*
X61415710Y-177595016D01*
X60441732Y-180005694D01*
X58031054Y-179031716D01*
X58031054Y-179031716D01*
G37*
D23*
X54471576Y-186707213D03*
X58320821Y-190527332D03*
D22*
X69608221Y-184679877D03*
D17*
G36*
X67915893Y-185398227D02*
G01*
X68889871Y-182987549D01*
X71300549Y-183961527D01*
X70326571Y-186372205D01*
X67915893Y-185398227D01*
X67915893Y-185398227D01*
G37*
D22*
X78749316Y-180607669D03*
D17*
G36*
X77056988Y-181326019D02*
G01*
X78030966Y-178915341D01*
X80441644Y-179889319D01*
X79467666Y-182299997D01*
X77056988Y-181326019D01*
X77056988Y-181326019D01*
G37*
D23*
X73497510Y-189001516D03*
X77346755Y-192821635D03*
D22*
X88634155Y-186974180D03*
D17*
G36*
X86941827Y-187692530D02*
G01*
X87915805Y-185281852D01*
X90326483Y-186255830D01*
X89352505Y-188666508D01*
X86941827Y-187692530D01*
X86941827Y-187692530D01*
G37*
D22*
X99086374Y-179656828D03*
D17*
G36*
X97394046Y-180375178D02*
G01*
X98368024Y-177964500D01*
X100778702Y-178938478D01*
X99804724Y-181349156D01*
X97394046Y-180375178D01*
X97394046Y-180375178D01*
G37*
D23*
X93834568Y-188050675D03*
X97683813Y-191870794D03*
D22*
X108971213Y-186023339D03*
D17*
G36*
X107278885Y-186741689D02*
G01*
X108252863Y-184331011D01*
X110663541Y-185304989D01*
X109689563Y-187715667D01*
X107278885Y-186741689D01*
X107278885Y-186741689D01*
G37*
D22*
X180547225Y-194815560D03*
D17*
G36*
X181265575Y-193123232D02*
G01*
X182239553Y-195533910D01*
X179828875Y-196507888D01*
X178854897Y-194097210D01*
X181265575Y-193123232D01*
X181265575Y-193123232D01*
G37*
D23*
X178494203Y-185129321D03*
X173071610Y-185055268D03*
D22*
X169014117Y-197102462D03*
D17*
G36*
X169732467Y-195410134D02*
G01*
X170706445Y-197820812D01*
X168295767Y-198794790D01*
X167321789Y-196384112D01*
X169732467Y-195410134D01*
X169732467Y-195410134D01*
G37*
D22*
X130474326Y-151354063D03*
D17*
G36*
X128781998Y-152072413D02*
G01*
X129755976Y-149661735D01*
X132166654Y-150635713D01*
X131192676Y-153046391D01*
X128781998Y-152072413D01*
X128781998Y-152072413D01*
G37*
D23*
X125222520Y-159747910D03*
X129071765Y-163568029D03*
D22*
X140359165Y-157720574D03*
D17*
G36*
X138666837Y-158438924D02*
G01*
X139640815Y-156028246D01*
X142051493Y-157002224D01*
X141077515Y-159412902D01*
X138666837Y-158438924D01*
X138666837Y-158438924D01*
G37*
D22*
X117363095Y-183805498D03*
D17*
G36*
X115670767Y-184523848D02*
G01*
X116644745Y-182113170D01*
X119055423Y-183087148D01*
X118081445Y-185497826D01*
X115670767Y-184523848D01*
X115670767Y-184523848D01*
G37*
D23*
X112111289Y-192199345D03*
X115960534Y-196019464D03*
D22*
X127247934Y-190172009D03*
D17*
G36*
X125555606Y-190890359D02*
G01*
X126529584Y-188479681D01*
X128940262Y-189453659D01*
X127966284Y-191864337D01*
X125555606Y-190890359D01*
X125555606Y-190890359D01*
G37*
D22*
X123918710Y-167579781D03*
D17*
G36*
X122226382Y-168298131D02*
G01*
X123200360Y-165887453D01*
X125611038Y-166861431D01*
X124637060Y-169272109D01*
X122226382Y-168298131D01*
X122226382Y-168298131D01*
G37*
D23*
X118666904Y-175973628D03*
X122516149Y-179793747D03*
D22*
X133803549Y-173946292D03*
D17*
G36*
X132111221Y-174664642D02*
G01*
X133085199Y-172253964D01*
X135495877Y-173227942D01*
X134521899Y-175638620D01*
X132111221Y-174664642D01*
X132111221Y-174664642D01*
G37*
D22*
X167435995Y-162364125D03*
D17*
G36*
X168154345Y-160671797D02*
G01*
X169128323Y-163082475D01*
X166717645Y-164056453D01*
X165743667Y-161645775D01*
X168154345Y-160671797D01*
X168154345Y-160671797D01*
G37*
D23*
X165382973Y-152677886D03*
X159960380Y-152603833D03*
D22*
X155902887Y-164651027D03*
D17*
G36*
X156621237Y-162958699D02*
G01*
X157595215Y-165369377D01*
X155184537Y-166343355D01*
X154210559Y-163932677D01*
X156621237Y-162958699D01*
X156621237Y-162958699D01*
G37*
D22*
X105641989Y-163431110D03*
D17*
G36*
X103949661Y-164149460D02*
G01*
X104923639Y-161738782D01*
X107334317Y-162712760D01*
X106360339Y-165123438D01*
X103949661Y-164149460D01*
X103949661Y-164149460D01*
G37*
D23*
X100390183Y-171824957D03*
X104239428Y-175645076D03*
D22*
X115526828Y-169797621D03*
D17*
G36*
X113834500Y-170515971D02*
G01*
X114808478Y-168105293D01*
X117219156Y-169079271D01*
X116245178Y-171489949D01*
X113834500Y-170515971D01*
X113834500Y-170515971D01*
G37*
D20*
X101828320Y-226087050D03*
D21*
X101828320Y-226087050D02*
X101828320Y-226087050D01*
D20*
X99799785Y-224558440D03*
D21*
X99799785Y-224558440D02*
X99799785Y-224558440D01*
D20*
X97771251Y-223029830D03*
D21*
X97771251Y-223029830D02*
X97771251Y-223029830D01*
D20*
X95742717Y-221501220D03*
D17*
G36*
X95910014Y-222691603D02*
G01*
X94552334Y-221668517D01*
X95575420Y-220310837D01*
X96933100Y-221333923D01*
X95910014Y-222691603D01*
X95910014Y-222691603D01*
G37*
D11*
X146658765Y-172638249D03*
D10*
X146658765Y-175178249D03*
X146658765Y-177718249D03*
X146658765Y-180258249D03*
D20*
X191716901Y-226026163D03*
D17*
G36*
X192907284Y-226193460D02*
G01*
X191549604Y-227216546D01*
X190526518Y-225858866D01*
X191884198Y-224835780D01*
X192907284Y-226193460D01*
X192907284Y-226193460D01*
G37*
D20*
X193745435Y-224497553D03*
D21*
X193745435Y-224497553D02*
X193745435Y-224497553D01*
D20*
X195773969Y-222968943D03*
D21*
X195773969Y-222968943D02*
X195773969Y-222968943D01*
D20*
X197802504Y-221440333D03*
D21*
X197802504Y-221440333D02*
X197802504Y-221440333D01*
D20*
X110834284Y-228461436D03*
D21*
X110834284Y-228461436D02*
X110834284Y-228461436D01*
D20*
X112362894Y-226432901D03*
D21*
X112362894Y-226432901D02*
X112362894Y-226432901D01*
D20*
X113891504Y-224404367D03*
D21*
X113891504Y-224404367D02*
X113891504Y-224404367D01*
D20*
X115420114Y-222375833D03*
D17*
G36*
X114229731Y-222543130D02*
G01*
X115252817Y-221185450D01*
X116610497Y-222208536D01*
X115587411Y-223566216D01*
X114229731Y-222543130D01*
X114229731Y-222543130D01*
G37*
D24*
X194468750Y-206312500D03*
X194468750Y-209612500D03*
X192087500Y-206312500D03*
X192087500Y-209612500D03*
X180181250Y-206312500D03*
X180181250Y-209612500D03*
X182562500Y-206312500D03*
X182562500Y-209612500D03*
X184943750Y-206312500D03*
X184943750Y-209612500D03*
X187325000Y-206312500D03*
X187325000Y-209612500D03*
D25*
X160646250Y-211329000D03*
X157346250Y-211329000D03*
X160646250Y-213710250D03*
X157346250Y-213710250D03*
X160646250Y-216091500D03*
X157346250Y-216091500D03*
X160646250Y-218472750D03*
X157346250Y-218472750D03*
X152480000Y-211327750D03*
X149180000Y-211327750D03*
X152480000Y-213709000D03*
X149180000Y-213709000D03*
X152480000Y-216090250D03*
X149180000Y-216090250D03*
X152480000Y-218471500D03*
X149180000Y-218471500D03*
D24*
X199231250Y-206312500D03*
X199231250Y-209612500D03*
X196850000Y-206312500D03*
X196850000Y-209612500D03*
X189706250Y-206312500D03*
X189706250Y-209612500D03*
D25*
X160646250Y-220854000D03*
X157346250Y-220854000D03*
X152480000Y-220852750D03*
X149180000Y-220852750D03*
D24*
X177800000Y-206312500D03*
X177800000Y-209612500D03*
D25*
X160646250Y-208947750D03*
X157346250Y-208947750D03*
X152480000Y-208946500D03*
X149180000Y-208946500D03*
D24*
X118268750Y-206312500D03*
X118268750Y-209612500D03*
D25*
X133285500Y-208921750D03*
X136585500Y-208921750D03*
X140866500Y-208966500D03*
X144166500Y-208966500D03*
D24*
X96837500Y-206312500D03*
X96837500Y-209612500D03*
X99218750Y-206312500D03*
X99218750Y-209612500D03*
X106362500Y-206312500D03*
X106362500Y-209612500D03*
D25*
X133285500Y-220828000D03*
X136585500Y-220828000D03*
X140866500Y-220872750D03*
X144166500Y-220872750D03*
D24*
X101600000Y-206312500D03*
X101600000Y-209612500D03*
X103981250Y-206312500D03*
X103981250Y-209612500D03*
X115887500Y-206312500D03*
X115887500Y-209612500D03*
X113506250Y-206312500D03*
X113506250Y-209612500D03*
X111125000Y-206312500D03*
X111125000Y-209612500D03*
X108743750Y-206312500D03*
X108743750Y-209612500D03*
D25*
X133285500Y-211303000D03*
X136585500Y-211303000D03*
X133285500Y-213684250D03*
X136585500Y-213684250D03*
X133285500Y-216065500D03*
X136585500Y-216065500D03*
X133285500Y-218446750D03*
X136585500Y-218446750D03*
X140866500Y-211347750D03*
X144166500Y-211347750D03*
X140866500Y-213729000D03*
X144166500Y-213729000D03*
X140866500Y-216110250D03*
X144166500Y-216110250D03*
X140866500Y-218491500D03*
X144166500Y-218491500D03*
D26*
X140072750Y-218491500D03*
X149225000Y-207391000D03*
X140072750Y-216110250D03*
X140072750Y-213729000D03*
X140072750Y-211347750D03*
X131760500Y-218446750D03*
X142980000Y-207320000D03*
X131760500Y-216065500D03*
X131760500Y-213684250D03*
X131760500Y-211303000D03*
X108743750Y-204787500D03*
X117983000Y-211328000D03*
X144980013Y-223163491D03*
X111125000Y-204787500D03*
X113506250Y-204787500D03*
X115887500Y-204787500D03*
X88900000Y-189706250D03*
X103981250Y-204787500D03*
X104013004Y-211201000D03*
X143637002Y-223139000D03*
X69550000Y-187850000D03*
X101600000Y-204787500D03*
X140072750Y-220872750D03*
X131760500Y-220828000D03*
X106362500Y-204787500D03*
X139700000Y-208756250D03*
X131762500Y-208756250D03*
X118268750Y-204787500D03*
X153987500Y-208756250D03*
X162052000Y-209073750D03*
X177800000Y-203993750D03*
X153942500Y-220852750D03*
X162233750Y-220854000D03*
X189706250Y-203993750D03*
X153942500Y-218471500D03*
X153942500Y-216090250D03*
X153942500Y-213709000D03*
X153942500Y-211327750D03*
X162117966Y-218356965D03*
X162233750Y-216091500D03*
X162233750Y-213710250D03*
X162233750Y-211329000D03*
X187283098Y-203951848D03*
X184943750Y-203993750D03*
X184943750Y-203993750D03*
X182562500Y-203993750D03*
X180181250Y-203993750D03*
X96080000Y-213570000D03*
X57900000Y-180200000D03*
X96500000Y-214492990D03*
X99187000Y-215138000D03*
X97409042Y-216154000D03*
X99218750Y-201612500D03*
X99218750Y-211137500D03*
X115570000Y-187579000D03*
X198823946Y-187873946D03*
X200818750Y-210901515D03*
X180150002Y-192450000D03*
X201612500Y-193675000D03*
X201612500Y-200818750D03*
X176338135Y-212768953D03*
X175341773Y-212854314D03*
X173863000Y-212820299D03*
X172754566Y-212789862D03*
X152780000Y-204890000D03*
X165862000Y-225551966D03*
D27*
X158930000Y-229960000D02*
X157620000Y-228650000D01*
X179494396Y-229960000D02*
X158930000Y-229960000D01*
X182393643Y-228262834D02*
X181191562Y-228262834D01*
X181191562Y-228262834D02*
X179494396Y-229960000D01*
X126339999Y-228399999D02*
X125690000Y-227750000D01*
X127920000Y-229980000D02*
X126339999Y-228399999D01*
X157720000Y-228770000D02*
X156510000Y-229980000D01*
X156510000Y-229980000D02*
X127920000Y-229980000D01*
D28*
X140866500Y-218491500D02*
X140072750Y-218491500D01*
X144166500Y-208966500D02*
X144166500Y-220872750D01*
X149180000Y-208946500D02*
X149180000Y-220852750D01*
X144041500Y-208841500D02*
X144166500Y-208966500D01*
D29*
X144166500Y-221726750D02*
X144166500Y-220872750D01*
X144186500Y-220852750D02*
X144166500Y-220872750D01*
X149180000Y-220852750D02*
X144186500Y-220852750D01*
X149180000Y-208092500D02*
X149225000Y-208047500D01*
X149180000Y-208946500D02*
X149180000Y-208092500D01*
X149225000Y-208047500D02*
X149225000Y-207391000D01*
D28*
X140866500Y-216110250D02*
X140072750Y-216110250D01*
X140866500Y-213729000D02*
X140072750Y-213729000D01*
X140866500Y-211347750D02*
X140072750Y-211347750D01*
X133285500Y-218446750D02*
X131760500Y-218446750D01*
X136585500Y-208921750D02*
X136585500Y-220828000D01*
X157346250Y-208947750D02*
X157346250Y-220854000D01*
D29*
X157346250Y-218472750D02*
X156642250Y-218472750D01*
X136585500Y-221707250D02*
X136585500Y-220828000D01*
X137160000Y-222281750D02*
X136585500Y-221707250D01*
X156772500Y-222281750D02*
X137160000Y-222281750D01*
X157346250Y-220854000D02*
X157346250Y-221708000D01*
X157346250Y-221708000D02*
X156772500Y-222281750D01*
X142580001Y-206920001D02*
X142980000Y-207320000D01*
X139431249Y-206780001D02*
X142440001Y-206780001D01*
X142440001Y-206780001D02*
X142580001Y-206920001D01*
X136585500Y-208921750D02*
X137289500Y-208921750D01*
X137289500Y-208921750D02*
X139431249Y-206780001D01*
D28*
X133285500Y-216065500D02*
X131760500Y-216065500D01*
X133285500Y-213684250D02*
X131760500Y-213684250D01*
X133285500Y-211303000D02*
X132585500Y-211303000D01*
X132585500Y-211303000D02*
X131760500Y-211303000D01*
X108743750Y-204787500D02*
X108743750Y-206312500D01*
X189706250Y-209612500D02*
X177800000Y-209612500D01*
X106362500Y-209612500D02*
X118268750Y-209612500D01*
D29*
X118268750Y-209612500D02*
X118268750Y-211042250D01*
X118268750Y-211042250D02*
X117983000Y-211328000D01*
X177800000Y-209612500D02*
X177800000Y-212383050D01*
X177800000Y-212383050D02*
X167019559Y-223163491D01*
X167019559Y-223163491D02*
X145545698Y-223163491D01*
X145545698Y-223163491D02*
X144980013Y-223163491D01*
D28*
X111125000Y-204787500D02*
X111125000Y-206312500D01*
X113506250Y-204787500D02*
X113506250Y-206312500D01*
X115887500Y-204787500D02*
X115887500Y-206312500D01*
X88900000Y-188912500D02*
X88634155Y-188646655D01*
X88900000Y-189706250D02*
X88900000Y-188912500D01*
X88634155Y-186974180D02*
X88634155Y-188646655D01*
X74995994Y-190500000D02*
X73497510Y-189001516D01*
X79650000Y-190500000D02*
X74995994Y-190500000D01*
X81600000Y-192450000D02*
X79650000Y-190500000D01*
X88900000Y-189706250D02*
X86156250Y-192450000D01*
X86156250Y-192450000D02*
X81600000Y-192450000D01*
X103981250Y-204787500D02*
X103981250Y-206312500D01*
X199231250Y-209612500D02*
X192087500Y-209612500D01*
X103981250Y-209612500D02*
X96837500Y-209612500D01*
X103981250Y-209612500D02*
X103981250Y-211169246D01*
X103981250Y-211169246D02*
X104013004Y-211201000D01*
D29*
X192087500Y-209612500D02*
X191233500Y-209612500D01*
X144409414Y-223911412D02*
X144037001Y-223538999D01*
X191233500Y-209612500D02*
X187486000Y-213360000D01*
X187486000Y-213360000D02*
X177800000Y-213360000D01*
X144037001Y-223538999D02*
X143637002Y-223139000D01*
X167248588Y-223911412D02*
X144409414Y-223911412D01*
X177800000Y-213360000D02*
X167248588Y-223911412D01*
D28*
X69608221Y-186181972D02*
X69550000Y-186240193D01*
X69608221Y-184679877D02*
X69608221Y-186181972D01*
X69550000Y-186240193D02*
X69550000Y-187850000D01*
X69550000Y-187850000D02*
X67000000Y-190400000D01*
X67000000Y-190400000D02*
X63000000Y-190400000D01*
X63000000Y-190400000D02*
X60950000Y-188350000D01*
X56114363Y-188350000D02*
X54471576Y-186707213D01*
X60950000Y-188350000D02*
X56114363Y-188350000D01*
X101600000Y-204787500D02*
X101600000Y-206312500D01*
X122082444Y-153571904D02*
X122082444Y-156567556D01*
X122082444Y-156567556D02*
X119450000Y-159200000D01*
X119450000Y-159200000D02*
X115100000Y-159200000D01*
X115100000Y-159200000D02*
X112900000Y-157000000D01*
X108346559Y-157000000D02*
X106945799Y-155599240D01*
X112900000Y-157000000D02*
X108346559Y-157000000D01*
X140866500Y-220872750D02*
X140072750Y-220872750D01*
X115526828Y-171299716D02*
X115500000Y-171326544D01*
X115526828Y-169797621D02*
X115526828Y-171299716D01*
X115500000Y-171326544D02*
X115500000Y-172650000D01*
X115500000Y-172650000D02*
X113400000Y-174750000D01*
X113400000Y-174750000D02*
X109050000Y-174750000D01*
X109050000Y-174750000D02*
X107650000Y-173350000D01*
X101915226Y-173350000D02*
X100390183Y-171824957D01*
X107650000Y-173350000D02*
X101915226Y-173350000D01*
X133285500Y-220828000D02*
X131760500Y-220828000D01*
X100750000Y-189500000D02*
X95283893Y-189500000D01*
X104896647Y-191600000D02*
X102850000Y-191600000D01*
X95283893Y-189500000D02*
X94850567Y-189066674D01*
X108971213Y-187525434D02*
X104896647Y-191600000D01*
X94850567Y-189066674D02*
X93834568Y-188050675D01*
X102850000Y-191600000D02*
X100750000Y-189500000D01*
X108971213Y-186023339D02*
X108971213Y-187525434D01*
X106362500Y-204787500D02*
X106362500Y-206312500D01*
X99218750Y-204787500D02*
X99218750Y-206312500D01*
X83935549Y-212694291D02*
X91842340Y-204787500D01*
X91842340Y-204787500D02*
X99218750Y-204787500D01*
X85964083Y-213798417D02*
X85964083Y-214222901D01*
X93874484Y-206312500D02*
X96837500Y-206312500D01*
X85964083Y-214222901D02*
X93874484Y-206312500D01*
X126724610Y-161250000D02*
X125222520Y-159747910D01*
X131650000Y-161250000D02*
X126724610Y-161250000D01*
X140359165Y-159222669D02*
X140350000Y-159231834D01*
X140359165Y-157720574D02*
X140359165Y-159222669D01*
X140350000Y-159231834D02*
X140350000Y-160950000D01*
X137900000Y-163400000D02*
X133800000Y-163400000D01*
X133800000Y-163400000D02*
X131650000Y-161250000D01*
X138112500Y-163512500D02*
X137950000Y-163350000D01*
X140350000Y-160950000D02*
X137950000Y-163350000D01*
X137950000Y-163350000D02*
X137900000Y-163400000D01*
D29*
X140866500Y-208966500D02*
X139910250Y-208966500D01*
X139910250Y-208966500D02*
X139700000Y-208756250D01*
D28*
X133803549Y-173946292D02*
X133803549Y-177296451D01*
X133803549Y-177296451D02*
X131500000Y-179600000D01*
X131500000Y-179600000D02*
X126300000Y-179600000D01*
X126300000Y-179600000D02*
X123750000Y-177050000D01*
X119743276Y-177050000D02*
X118666904Y-175973628D01*
X123750000Y-177050000D02*
X119743276Y-177050000D01*
D29*
X133285500Y-208921750D02*
X131928000Y-208921750D01*
X131928000Y-208921750D02*
X131762500Y-208756250D01*
D28*
X113611944Y-193700000D02*
X112111289Y-192199345D01*
X118050000Y-193700000D02*
X113611944Y-193700000D01*
X120250000Y-195900000D02*
X118050000Y-193700000D01*
X124500000Y-195900000D02*
X120250000Y-195900000D01*
X127247934Y-190172009D02*
X127247934Y-193152066D01*
X127247934Y-193152066D02*
X124500000Y-195900000D01*
X118268750Y-204787500D02*
X118268750Y-206312500D01*
X154833553Y-163581693D02*
X154833553Y-158616447D01*
X155902887Y-164651027D02*
X154833553Y-163581693D01*
X154833553Y-158616447D02*
X158200000Y-155250000D01*
X162810859Y-155250000D02*
X165382973Y-152677886D01*
X158200000Y-155250000D02*
X162810859Y-155250000D01*
X155700000Y-164853914D02*
X155902887Y-164651027D01*
D29*
X153184000Y-208946500D02*
X153374250Y-208756250D01*
X152480000Y-208946500D02*
X153184000Y-208946500D01*
X153374250Y-208756250D02*
X153987500Y-208756250D01*
D28*
X161389168Y-179807411D02*
X161389168Y-173510832D01*
X162458502Y-180876745D02*
X161389168Y-179807411D01*
X161389168Y-173510832D02*
X163600000Y-171300000D01*
X163600000Y-171300000D02*
X167900000Y-171300000D01*
X170296396Y-168903604D02*
X171938588Y-168903604D01*
X167900000Y-171300000D02*
X170296396Y-168903604D01*
D29*
X160646250Y-208947750D02*
X161926000Y-208947750D01*
X161926000Y-208947750D02*
X162052000Y-209073750D01*
D28*
X169202462Y-197102462D02*
X169500000Y-197400000D01*
X169014117Y-197102462D02*
X169202462Y-197102462D01*
X169550000Y-197400000D02*
X168700000Y-198250000D01*
X169500000Y-197400000D02*
X169550000Y-197400000D01*
X168700000Y-198250000D02*
X168700000Y-198450000D01*
X177800000Y-203993750D02*
X177800000Y-206312500D01*
D29*
X175905405Y-203993750D02*
X169014117Y-197102462D01*
X177800000Y-203993750D02*
X175905405Y-203993750D01*
D28*
X181338910Y-150850000D02*
X183659694Y-148529216D01*
X173400000Y-150850000D02*
X181338910Y-150850000D01*
X171350000Y-152900000D02*
X173400000Y-150850000D01*
X174179608Y-160502357D02*
X171350000Y-157672749D01*
X171350000Y-157672749D02*
X171350000Y-152900000D01*
X152480000Y-220852750D02*
X153942500Y-220852750D01*
X187720242Y-167250000D02*
X190215309Y-164754933D01*
X180150000Y-167250000D02*
X187720242Y-167250000D01*
X178100000Y-169300000D02*
X180150000Y-167250000D01*
X180735223Y-176728074D02*
X178100000Y-174092851D01*
X178100000Y-174092851D02*
X178100000Y-169300000D01*
X160646250Y-220854000D02*
X162233750Y-220854000D01*
X194251575Y-183500000D02*
X196770924Y-180980651D01*
X190350000Y-183500000D02*
X194251575Y-183500000D01*
X186350000Y-187500000D02*
X190350000Y-183500000D01*
X187290838Y-192953792D02*
X186350000Y-192012954D01*
X186350000Y-192012954D02*
X186350000Y-187500000D01*
X189706250Y-206312500D02*
X189706250Y-203993750D01*
X208722211Y-211690687D02*
X209572210Y-212540686D01*
X201819024Y-204787500D02*
X208722211Y-211690687D01*
X197640625Y-204787500D02*
X201819024Y-204787500D01*
X196850000Y-206312500D02*
X196850000Y-205578125D01*
X196850000Y-205578125D02*
X197640625Y-204787500D01*
X207138046Y-214069296D02*
X207543676Y-214069296D01*
X199381250Y-206312500D02*
X207138046Y-214069296D01*
X199231250Y-206312500D02*
X199381250Y-206312500D01*
X152480000Y-218471500D02*
X153942500Y-218471500D01*
X152480000Y-216090250D02*
X153942500Y-216090250D01*
X152480000Y-213709000D02*
X153942500Y-213709000D01*
X152480000Y-211327750D02*
X153942500Y-211327750D01*
X162002181Y-218472750D02*
X162117966Y-218356965D01*
X160646250Y-218472750D02*
X162002181Y-218472750D01*
X160646250Y-216091500D02*
X162233750Y-216091500D01*
X160646250Y-213710250D02*
X162233750Y-213710250D01*
X160646250Y-211329000D02*
X162233750Y-211329000D01*
X187283098Y-206270598D02*
X187325000Y-206312500D01*
X187283098Y-203951848D02*
X187283098Y-206270598D01*
X184943750Y-203993750D02*
X184943750Y-206312500D01*
X182562500Y-203993750D02*
X182562500Y-206312500D01*
X180181250Y-206312500D02*
X180181250Y-203993750D01*
X215918508Y-181931492D02*
X217107982Y-181931492D01*
X213400000Y-184450000D02*
X215918508Y-181931492D01*
X209950000Y-184450000D02*
X213400000Y-184450000D01*
X206250000Y-188150000D02*
X209950000Y-184450000D01*
X207627896Y-193904633D02*
X206250000Y-192526737D01*
X206250000Y-192526737D02*
X206250000Y-188150000D01*
X206125801Y-193904633D02*
X207627896Y-193904633D01*
X203795367Y-193904633D02*
X206125801Y-193904633D01*
X192087500Y-205612500D02*
X203795367Y-193904633D01*
X192087500Y-206312500D02*
X192087500Y-205612500D01*
X225250000Y-190206500D02*
X226653830Y-191610330D01*
X225250000Y-183950000D02*
X225250000Y-190206500D01*
X226205980Y-182994020D02*
X225250000Y-183950000D01*
X231305980Y-182994020D02*
X226205980Y-182994020D01*
X236133916Y-179637189D02*
X234662811Y-179637189D01*
X234662811Y-179637189D02*
X231305980Y-182994020D01*
X225584496Y-192679664D02*
X226653830Y-191610330D01*
X219826660Y-198437500D02*
X225584496Y-192679664D01*
X201643750Y-198437500D02*
X219826660Y-198437500D01*
X194468750Y-206312500D02*
X194468750Y-205612500D01*
X194468750Y-205612500D02*
X201643750Y-198437500D01*
X63950000Y-182250000D02*
X65150000Y-181050000D01*
X53118862Y-181779619D02*
X54070381Y-181779619D01*
X69200000Y-182200000D02*
X76034315Y-182200000D01*
X52395205Y-182503276D02*
X53118862Y-181779619D01*
X54070381Y-181779619D02*
X54750000Y-181100000D01*
X68050000Y-181050000D02*
X69200000Y-182200000D01*
X65150000Y-181050000D02*
X68050000Y-181050000D01*
X54750000Y-181100000D02*
X56200000Y-181100000D01*
X56200000Y-181100000D02*
X57350000Y-182250000D01*
X57350000Y-182250000D02*
X63950000Y-182250000D01*
X75808003Y-182200000D02*
X76034315Y-182200000D01*
X71437500Y-186570503D02*
X75808003Y-182200000D01*
X71437500Y-191293750D02*
X71437500Y-186570503D01*
X71949386Y-191805636D02*
X71437500Y-191293750D01*
X77346755Y-192821635D02*
X76330756Y-191805636D01*
X76330756Y-191805636D02*
X71949386Y-191805636D01*
X78749316Y-180806934D02*
X78749316Y-180607669D01*
X78581250Y-180975000D02*
X78749316Y-180806934D01*
X76034315Y-182200000D02*
X77259315Y-180975000D01*
X77259315Y-180975000D02*
X78581250Y-180975000D01*
D29*
X96280000Y-213370000D02*
X96080000Y-213570000D01*
X121180000Y-213370000D02*
X96280000Y-213370000D01*
X139192000Y-197612000D02*
X136938000Y-197612000D01*
X136938000Y-197612000D02*
X121180000Y-213370000D01*
D28*
X59723382Y-178376618D02*
X59723382Y-178313366D01*
X57900000Y-180200000D02*
X59723382Y-178376618D01*
D29*
X139192000Y-200152000D02*
X135040068Y-200152000D01*
X135040068Y-200152000D02*
X121343088Y-213848980D01*
X121343088Y-213848980D02*
X97144010Y-213848980D01*
X96899999Y-214092991D02*
X96500000Y-214492990D01*
X97144010Y-213848980D02*
X96899999Y-214092991D01*
X99495000Y-214830000D02*
X99187000Y-215138000D01*
X121646204Y-214830000D02*
X99495000Y-214830000D01*
X133956204Y-202520000D02*
X121646204Y-214830000D01*
X154432000Y-200152000D02*
X152064000Y-202520000D01*
X152064000Y-202520000D02*
X133956204Y-202520000D01*
X98694366Y-214302991D02*
X97409042Y-215588315D01*
X97409042Y-215588315D02*
X97409042Y-216154000D01*
X121531145Y-214302991D02*
X98694366Y-214302991D01*
X133768147Y-202065989D02*
X121531145Y-214302991D01*
X149978011Y-202065989D02*
X133768147Y-202065989D01*
X154432000Y-197612000D02*
X149978011Y-202065989D01*
D28*
X122644897Y-168853594D02*
X123918710Y-167579781D01*
X122644897Y-169994897D02*
X122644897Y-168853594D01*
X129404992Y-152423397D02*
X129276603Y-152423397D01*
X130474326Y-151354063D02*
X129404992Y-152423397D01*
X129276603Y-152423397D02*
X128200000Y-153500000D01*
X99218750Y-201612500D02*
X104811786Y-196019464D01*
X122644897Y-168661353D02*
X122644897Y-169994897D01*
X129071765Y-163568029D02*
X127738221Y-163568029D01*
X127738221Y-163568029D02*
X122644897Y-168661353D01*
X121079309Y-179793747D02*
X122516149Y-179793747D01*
X118674997Y-179793747D02*
X121079309Y-179793747D01*
X116681250Y-177800000D02*
X118674997Y-179793747D01*
X116681250Y-172243750D02*
X116681250Y-177800000D01*
X122644897Y-169994897D02*
X118930103Y-169994897D01*
X118930103Y-169994897D02*
X116681250Y-172243750D01*
X127634315Y-153500000D02*
X128200000Y-153500000D01*
X125900000Y-153500000D02*
X127634315Y-153500000D01*
X123031250Y-156368750D02*
X125900000Y-153500000D01*
X123031250Y-160337500D02*
X123031250Y-156368750D01*
X129071765Y-163568029D02*
X126261779Y-163568029D01*
X126261779Y-163568029D02*
X123031250Y-160337500D01*
X104811786Y-196019464D02*
X107119464Y-196019464D01*
X107119464Y-196019464D02*
X115960534Y-196019464D01*
X107156250Y-195982678D02*
X107119464Y-196019464D01*
X112536355Y-185913645D02*
X107156250Y-191293750D01*
X107156250Y-191293750D02*
X107156250Y-195982678D01*
X117363095Y-183805498D02*
X115254948Y-185913645D01*
X115254948Y-185913645D02*
X112536355Y-185913645D01*
X118674997Y-182493596D02*
X117363095Y-183805498D01*
X118674997Y-179793747D02*
X118674997Y-182493596D01*
X92606629Y-211137500D02*
X87992618Y-215751511D01*
X99218750Y-211137500D02*
X92606629Y-211137500D01*
D29*
X123532148Y-180809746D02*
X122516149Y-179793747D01*
X134454403Y-191732001D02*
X123532148Y-180809746D01*
X138392001Y-191732001D02*
X134454403Y-191732001D01*
X139192000Y-192532000D02*
X138392001Y-191732001D01*
D28*
X105641989Y-163858011D02*
X105641989Y-163431110D01*
X99086374Y-179716458D02*
X99086374Y-179656828D01*
X104239428Y-175645076D02*
X103223429Y-174629077D01*
X103223429Y-174629077D02*
X99057729Y-174629077D01*
X97683813Y-195388883D02*
X81907015Y-211165681D01*
X97683813Y-191870794D02*
X97683813Y-195388883D01*
X105641989Y-164933205D02*
X105641989Y-163431110D01*
X105641989Y-166485404D02*
X105641989Y-164933205D01*
X98425000Y-173996348D02*
X98425000Y-172017413D01*
X99057729Y-174629077D02*
X98425000Y-173996348D01*
X98425000Y-172017413D02*
X99279665Y-169902044D01*
X99279665Y-169902044D02*
X99319209Y-169862500D01*
X99319209Y-169862500D02*
X102264893Y-169862500D01*
X102264893Y-169862500D02*
X105641989Y-166485404D01*
X104572655Y-162361776D02*
X105641989Y-163431110D01*
X104572655Y-159746095D02*
X104572655Y-162361776D01*
X105915390Y-158403360D02*
X104572655Y-159746095D01*
X110795044Y-159419359D02*
X109779045Y-158403360D01*
X109779045Y-158403360D02*
X105915390Y-158403360D01*
X104775000Y-157262970D02*
X104775000Y-156300611D01*
X105915390Y-158403360D02*
X104775000Y-157262970D01*
X104775000Y-156300611D02*
X106030254Y-153987500D01*
X106030254Y-153987500D02*
X108743750Y-153987500D01*
X112197605Y-148707488D02*
X112197605Y-147205393D01*
X108743750Y-153987500D02*
X112197605Y-150533645D01*
X112197605Y-150533645D02*
X112197605Y-148707488D01*
X96246973Y-191870794D02*
X97683813Y-191870794D01*
X94954775Y-191870794D02*
X96246973Y-191870794D01*
X99057729Y-174629077D02*
X96700000Y-176986806D01*
X94318750Y-181906250D02*
X91281250Y-184943750D01*
X96700000Y-181906250D02*
X94318750Y-181906250D01*
X91281250Y-184943750D02*
X91281250Y-188197269D01*
X91281250Y-188197269D02*
X94954775Y-191870794D01*
X97361922Y-179656828D02*
X96700000Y-180318750D01*
X99086374Y-179656828D02*
X97361922Y-179656828D01*
X96700000Y-176986806D02*
X96700000Y-180318750D01*
X96700000Y-180318750D02*
X96700000Y-181906250D01*
D29*
X116030828Y-187118172D02*
X115570000Y-187579000D01*
X136311347Y-192191347D02*
X134152347Y-192191347D01*
X139192000Y-195072000D02*
X136311347Y-192191347D01*
X134152347Y-192191347D02*
X129032000Y-187071000D01*
X129032000Y-187071000D02*
X127114411Y-187071000D01*
X127114411Y-187071000D02*
X127067239Y-187118172D01*
X127067239Y-187118172D02*
X116030828Y-187118172D01*
D28*
X193337665Y-173371838D02*
X193337665Y-172187665D01*
X192268331Y-174441172D02*
X193337665Y-173371838D01*
X193337665Y-172187665D02*
X192300000Y-171150000D01*
X198823946Y-190666890D02*
X198823946Y-187873946D01*
X194468750Y-173318750D02*
X192300000Y-171150000D01*
X194468750Y-174625000D02*
X194468750Y-173318750D01*
X196056250Y-176212500D02*
X194468750Y-174625000D01*
X196056250Y-179387500D02*
X196056250Y-176212500D01*
X191348331Y-180906598D02*
X194537152Y-180906598D01*
X194537152Y-180906598D02*
X196056250Y-179387500D01*
X197162455Y-179387500D02*
X196056250Y-179387500D01*
X198411447Y-180636492D02*
X197162455Y-179387500D01*
X198411447Y-181742697D02*
X198411447Y-180636492D01*
X200818750Y-184150000D02*
X198411447Y-181742697D01*
X198823946Y-187873946D02*
X200818750Y-185879142D01*
X200818750Y-185879142D02*
X200818750Y-184150000D01*
X192087500Y-165893750D02*
X190500000Y-167481250D01*
X186950370Y-164680880D02*
X188912500Y-162718750D01*
X188912500Y-162718750D02*
X190728779Y-162718750D01*
X190728779Y-162718750D02*
X191472823Y-163462794D01*
X190500000Y-167481250D02*
X190500000Y-169350000D01*
X184792716Y-164680880D02*
X186950370Y-164680880D01*
X191472823Y-163462794D02*
X192087500Y-164984174D01*
X190500000Y-169350000D02*
X192300000Y-171150000D01*
X192087500Y-164984174D02*
X192087500Y-165893750D01*
X187214811Y-158215455D02*
X185712716Y-158215455D01*
X189706250Y-160706894D02*
X187214811Y-158215455D01*
X188912500Y-162718750D02*
X189706250Y-161925000D01*
X189706250Y-161925000D02*
X189706250Y-160706894D01*
X179253100Y-147439164D02*
X178237101Y-148455163D01*
X180642264Y-146050000D02*
X179253100Y-147439164D01*
X183356250Y-155858989D02*
X183356250Y-151608671D01*
X185712716Y-158215455D02*
X183356250Y-155858989D01*
X183356250Y-151608671D02*
X185726004Y-149238918D01*
X185726004Y-149238918D02*
X184632568Y-146532568D01*
X184632568Y-146532568D02*
X184150000Y-146050000D01*
X184150000Y-146050000D02*
X180642264Y-146050000D01*
X201218749Y-211301514D02*
X205515141Y-215597906D01*
X200818750Y-210901515D02*
X201218749Y-211301514D01*
D29*
X191348331Y-180906598D02*
X184967513Y-187287416D01*
X159347416Y-187287416D02*
X171666416Y-187287416D01*
X154432000Y-182372000D02*
X159347416Y-187287416D01*
X184967513Y-187287416D02*
X171666416Y-187287416D01*
X171666416Y-187287416D02*
X171481530Y-187287416D01*
D28*
X167531994Y-162268126D02*
X167435995Y-162364125D01*
X173991610Y-177087748D02*
X174050000Y-177029358D01*
X173991610Y-178589843D02*
X173991610Y-177087748D01*
X174050000Y-177029358D02*
X174050000Y-175675218D01*
X174050000Y-175675218D02*
X174087609Y-175637609D01*
X180547225Y-194815560D02*
X180547225Y-192847223D01*
X180547225Y-192847223D02*
X180150002Y-192450000D01*
X180550001Y-192849999D02*
X180150002Y-192450000D01*
X183584896Y-195884894D02*
X180550001Y-192849999D01*
X199402606Y-195884894D02*
X183584896Y-195884894D01*
X201612500Y-193675000D02*
X199402606Y-195884894D01*
X173166083Y-166687500D02*
X168658046Y-166687500D01*
X176212500Y-169733917D02*
X173166083Y-166687500D01*
X174087609Y-175637609D02*
X176212500Y-173512718D01*
X176212500Y-173512718D02*
X176212500Y-169733917D01*
X167531994Y-167813552D02*
X166515995Y-168829551D01*
X168466523Y-164896748D02*
X168466523Y-166879023D01*
X167435995Y-163866220D02*
X168466523Y-164896748D01*
X167435995Y-162364125D02*
X167435995Y-163866220D01*
X168658046Y-166687500D02*
X168466523Y-166879023D01*
X168466523Y-166879023D02*
X167531994Y-167813552D01*
X169068750Y-160731370D02*
X167435995Y-162364125D01*
X169068750Y-153193750D02*
X169068750Y-160731370D01*
X165893750Y-150018750D02*
X169068750Y-153193750D01*
X159960380Y-152603833D02*
X162545463Y-150018750D01*
X162545463Y-150018750D02*
X165893750Y-150018750D01*
X173991610Y-184135268D02*
X173071610Y-185055268D01*
X173991610Y-178589843D02*
X173991610Y-184135268D01*
X211600744Y-210806994D02*
X211600744Y-211012076D01*
X201612500Y-200818750D02*
X211600744Y-210806994D01*
D29*
X159782268Y-185055268D02*
X173071610Y-185055268D01*
X156420000Y-181693000D02*
X159782268Y-185055268D01*
X152490000Y-193130000D02*
X152490000Y-171320000D01*
X154432000Y-195072000D02*
X152490000Y-193130000D01*
X152490000Y-171320000D02*
X153320000Y-170490000D01*
X153320000Y-170490000D02*
X155400000Y-170490000D01*
X155400000Y-170490000D02*
X156420000Y-171510000D01*
X156420000Y-171510000D02*
X156420000Y-181693000D01*
D28*
X219161004Y-191617731D02*
X219161004Y-189261004D01*
X240804724Y-181587433D02*
X241528381Y-182311090D01*
X237167291Y-177950000D02*
X240804724Y-181587433D01*
X235350000Y-177950000D02*
X237167291Y-177950000D01*
X230755990Y-182544010D02*
X235350000Y-177950000D01*
X225877998Y-182544010D02*
X230755990Y-182544010D01*
X219161004Y-189261004D02*
X223261004Y-185161004D01*
X223261004Y-185161004D02*
X225877998Y-182544010D01*
X218281250Y-180181250D02*
X223261004Y-185161004D01*
X216422390Y-180181250D02*
X218281250Y-180181250D01*
X215628640Y-180975000D02*
X216422390Y-180181250D01*
X211685389Y-181857439D02*
X212567828Y-180975000D01*
X212567828Y-180975000D02*
X215628640Y-180975000D01*
D29*
X161128033Y-197558851D02*
X175938136Y-212368954D01*
X175938136Y-212368954D02*
X176338135Y-212768953D01*
X161128033Y-191608033D02*
X161128033Y-197558851D01*
X154432000Y-184912000D02*
X161128033Y-191608033D01*
D28*
X238050000Y-189186490D02*
X238186938Y-189323428D01*
X238050000Y-186350000D02*
X238050000Y-189186490D01*
X240796019Y-186350000D02*
X242479882Y-184666137D01*
X238050000Y-186350000D02*
X240796019Y-186350000D01*
D29*
X175341773Y-212746811D02*
X175341773Y-212854314D01*
X174941774Y-212454315D02*
X175341773Y-212854314D01*
X154432000Y-187452000D02*
X160674022Y-193694022D01*
X160674022Y-198186563D02*
X174941774Y-212454315D01*
X160674022Y-193694022D02*
X160674022Y-198186563D01*
X160220011Y-195780011D02*
X160220011Y-199177310D01*
X173463001Y-212420300D02*
X173863000Y-212820299D01*
X154432000Y-189992000D02*
X160220011Y-195780011D01*
X160220011Y-199177310D02*
X173463001Y-212420300D01*
X172354567Y-212389863D02*
X172754566Y-212789862D01*
X159766000Y-197866000D02*
X159766000Y-199801296D01*
X154432000Y-192532000D02*
X159766000Y-197866000D01*
X159766000Y-199801296D02*
X172354567Y-212389863D01*
X176452701Y-226234299D02*
X175103000Y-227584000D01*
X180865033Y-226234299D02*
X176452701Y-226234299D01*
X176449235Y-224205765D02*
X175103000Y-225552000D01*
X179336423Y-224205765D02*
X176449235Y-224205765D01*
D27*
X173228000Y-225552000D02*
X173228000Y-227584000D01*
X173228000Y-224282000D02*
X173228000Y-225552000D01*
X177807813Y-222177231D02*
X175332769Y-222177231D01*
X175332769Y-222177231D02*
X173228000Y-224282000D01*
X149708000Y-204880000D02*
X149718000Y-204890000D01*
X148350000Y-204880000D02*
X149708000Y-204880000D01*
X149718000Y-204890000D02*
X152780000Y-204890000D01*
D29*
X163882000Y-224972000D02*
X165282034Y-224972000D01*
X165282034Y-224972000D02*
X165462001Y-225151967D01*
X165462001Y-225151967D02*
X165862000Y-225551966D01*
D27*
X127690000Y-226830762D02*
X127690000Y-227750000D01*
X127690000Y-211564828D02*
X127690000Y-226830762D01*
X134374828Y-204880000D02*
X127690000Y-211564828D01*
X145810000Y-204880000D02*
X134374828Y-204880000D01*
M02*
