M48
; DRILL file {KiCad (5.1.4)-1} date 12/17/2022 7:56:24 PM
; FORMAT={-:-/ absolute / metric / decimal}
; #@! TF.CreationDate,2022-12-17T19:56:24-05:00
; #@! TF.GenerationSoftware,Kicad,Pcbnew,(5.1.4)-1
; #@! TF.FileFunction,Plated,1,2,PTH
FMAT,2
METRIC
T1C0.400
T2C0.750
T3C0.800
T4C1.000
T5C1.270
T6C1.300
%
G90
G05
T1
X57.9Y-180.2
X69.55Y-187.85
X88.9Y-189.706
X96.08Y-213.57
X96.5Y-214.493
X97.409Y-216.154
X99.187Y-215.138
X99.219Y-201.612
X99.219Y-211.137
X101.6Y-204.787
X103.981Y-204.787
X104.013Y-211.201
X106.362Y-204.787
X108.744Y-204.787
X111.125Y-204.787
X113.506Y-204.787
X115.57Y-187.579
X115.887Y-204.787
X117.983Y-211.328
X118.269Y-204.787
X131.761Y-211.303
X131.761Y-213.684
X131.761Y-216.065
X131.761Y-218.447
X131.761Y-220.828
X131.762Y-208.756
X139.7Y-208.756
X140.073Y-211.348
X140.073Y-213.729
X140.073Y-216.11
X140.073Y-218.492
X140.073Y-220.873
X142.98Y-207.32
X143.637Y-223.139
X144.98Y-223.163
X149.225Y-207.391
X152.78Y-204.89
X153.942Y-211.328
X153.942Y-213.709
X153.942Y-216.09
X153.942Y-218.471
X153.942Y-220.853
X153.987Y-208.756
X162.052Y-209.074
X162.118Y-218.357
X162.234Y-211.329
X162.234Y-213.71
X162.234Y-216.091
X162.234Y-220.854
X165.862Y-225.552
X172.755Y-212.79
X173.863Y-212.82
X175.342Y-212.854
X176.338Y-212.769
X177.8Y-203.994
X180.15Y-192.45
X180.181Y-203.994
X182.562Y-203.994
X184.944Y-203.994
X184.944Y-203.994
X187.283Y-203.952
X189.706Y-203.994
X198.824Y-187.874
X200.819Y-210.902
X201.612Y-193.675
X201.612Y-200.819
T2
X123.69Y-227.75
T3
X125.69Y-227.75
X127.69Y-227.75
T4
X205.515Y-215.598
X207.544Y-214.069
X209.572Y-212.541
X211.601Y-211.012
X81.907Y-211.166
X83.936Y-212.694
X85.964Y-214.223
X87.993Y-215.752
X177.808Y-222.177
X179.336Y-224.206
X180.865Y-226.234
X182.394Y-228.263
X145.81Y-204.88
X148.35Y-204.88
X95.743Y-221.501
X97.771Y-223.03
X99.8Y-224.558
X101.828Y-226.087
X146.659Y-172.638
X146.659Y-175.178
X146.659Y-177.718
X146.659Y-180.258
X49.541Y-189.568
X50.492Y-187.213
X51.444Y-184.858
X52.395Y-182.503
X106.594Y-160.284
X108.949Y-161.235
X111.304Y-162.187
X113.659Y-163.138
X121.69Y-227.75
X129.69Y-227.75
X241.528Y-182.311
X242.48Y-184.666
X243.431Y-187.021
X244.383Y-189.376
X110.834Y-228.461
X112.363Y-226.433
X113.892Y-224.404
X115.42Y-222.376
X187.1Y-180.5
X189.455Y-179.548
X191.81Y-178.597
X194.165Y-177.645
X191.717Y-226.026
X193.745Y-224.498
X195.774Y-222.969
X197.803Y-221.44
X180.6Y-164.0
X182.955Y-163.048
X185.31Y-162.097
X187.665Y-161.145
X99.779Y-176.284
X102.134Y-177.235
X104.489Y-178.187
X106.844Y-179.138
X172.994Y-146.691
X175.349Y-145.739
X177.704Y-144.788
X180.059Y-143.836
X113.133Y-143.97
X115.488Y-144.922
X117.843Y-145.873
X120.198Y-146.825
T5
X166.516Y-168.83
X171.939Y-168.904
X184.793Y-164.681
X190.215Y-164.755
X191.348Y-180.907
X196.771Y-180.981
X118.667Y-175.974
X122.516Y-179.794
X159.96Y-152.604
X165.383Y-152.678
X230.711Y-179.563
X236.134Y-179.637
X54.472Y-186.707
X58.321Y-190.527
X211.685Y-181.857
X217.108Y-181.931
X93.835Y-188.051
X97.684Y-191.871
X112.111Y-192.199
X115.961Y-196.019
X173.072Y-185.055
X178.494Y-185.129
X100.39Y-171.825
X104.239Y-175.645
X106.946Y-155.599
X110.795Y-159.419
X73.498Y-189.002
X77.347Y-192.822
X178.237Y-148.455
X183.66Y-148.529
X125.223Y-159.748
X129.072Y-163.568
T6
X139.192Y-172.212
X139.192Y-174.752
X139.192Y-177.292
X139.192Y-179.832
X139.192Y-182.372
X139.192Y-184.912
X139.192Y-187.452
X139.192Y-189.992
X139.192Y-192.532
X139.192Y-195.072
X139.192Y-197.612
X139.192Y-200.152
X154.432Y-172.212
X154.432Y-174.752
X154.432Y-177.292
X154.432Y-179.832
X154.432Y-182.372
X154.432Y-184.912
X154.432Y-187.452
X154.432Y-189.992
X154.432Y-192.532
X154.432Y-195.072
X154.432Y-197.612
X154.432Y-200.152
T0
M30
